<svg width="1227" height="612" viewBox="0 0 1227 612" fill="none" xmlns="http://www.w3.org/2000/svg">
<path d="M-32.5 162H59.5L82 389H86L114.5 162H189L217.5 389H222.5L244 162H336V175.5L282.5 512H173L154.5 332.5H150L131 512H21.5L-32.5 175.5V162ZM342.641 337C342.641 294.667 349.474 260.167 363.141 233.5C376.807 206.833 394.641 187.333 416.641 175C438.974 162.333 463.141 156 489.141 156C515.141 156 539.141 162.333 561.141 175C583.474 187.333 601.474 206.833 615.141 233.5C628.807 260.167 635.641 294.667 635.641 337C635.641 379.333 628.807 413.833 615.141 440.5C601.474 467.167 583.474 486.833 561.141 499.5C539.141 511.833 515.141 518 489.141 518C463.141 518 438.974 511.833 416.641 499.5C394.641 486.833 376.807 467.167 363.141 440.5C349.474 413.833 342.641 379.333 342.641 337ZM433.141 337C433.141 358.333 435.641 376.333 440.641 391C445.641 405.333 452.307 416.333 460.641 424C469.307 431.333 478.807 435 489.141 435C499.474 435 508.974 431.333 517.641 424C526.307 416.333 533.141 405.333 538.141 391C543.141 376.333 545.641 358.333 545.641 337C545.641 315 542.974 296.833 537.641 282.5C532.641 268.167 525.807 257.333 517.141 250C508.807 242.667 499.474 239 489.141 239C478.807 239 469.307 242.667 460.641 250C452.307 257.333 445.641 268.333 440.641 283C435.641 297.333 433.141 315.333 433.141 337ZM665.699 162H753.699V512H664.699L665.699 162ZM798.699 162C818.699 162 836.533 166 852.199 174C868.199 182 880.699 194 889.699 210C898.699 225.667 903.199 245.5 903.199 269.5C903.199 294.5 898.033 315.333 887.699 332C877.699 348.333 864.699 360.667 848.699 369C832.699 377 815.866 381 798.199 381H709.699V162H798.699ZM754.199 306.5H786.699C792.699 306.5 797.533 305 801.199 302C804.866 299 807.533 295 809.199 290C811.199 284.667 812.199 278.833 812.199 272.5C812.199 266.5 811.199 261.333 809.199 257C807.533 252.333 804.866 248.667 801.199 246C797.533 243 792.699 241.5 786.699 241.5H754.199V306.5ZM760.199 334.5L844.699 335.5L904.199 498.5V512H812.699L760.199 334.5ZM931.789 512V162H1020.29V291.5H1025.79L1082.29 162H1175.29V175.5L1094.29 334.5L1175.29 498.5V512H1082.29L1025.79 378.5H1020.29V512H931.789Z" fill="#828282" fill-opacity="0.47"/>
<path d="M107.024 102.4H128.144L135.056 164.096H136.336L144.4 102.4H162.704L170.768 164.096H172.176L178.96 102.4H200.08V105.6L186.256 192H160.016L154.256 140.8H152.976L147.088 192H120.848L107.024 105.6V102.4ZM202.435 147.2C202.435 136.363 204.184 127.531 207.683 120.704C211.182 113.877 215.747 108.885 221.379 105.728C227.096 102.485 233.283 100.864 239.939 100.864C246.595 100.864 252.739 102.485 258.371 105.728C264.088 108.885 268.696 113.877 272.195 120.704C275.694 127.531 277.443 136.363 277.443 147.2C277.443 158.037 275.694 166.869 272.195 173.696C268.696 180.523 264.088 185.557 258.371 188.8C252.739 191.957 246.595 193.536 239.939 193.536C233.283 193.536 227.096 191.957 221.379 188.8C215.747 185.557 211.182 180.523 207.683 173.696C204.184 166.869 202.435 158.037 202.435 147.2ZM223.427 147.2C223.427 153.173 224.152 158.165 225.603 162.176C227.054 166.187 229.016 169.216 231.491 171.264C234.051 173.312 236.867 174.336 239.939 174.336C243.011 174.336 245.827 173.312 248.387 171.264C250.947 169.216 252.952 166.187 254.403 162.176C255.939 158.165 256.707 153.173 256.707 147.2C256.707 141.141 255.939 136.107 254.403 132.096C252.867 128.085 250.819 125.099 248.259 123.136C245.784 121.088 243.011 120.064 239.939 120.064C236.867 120.064 234.051 121.088 231.491 123.136C229.016 125.184 227.054 128.213 225.603 132.224C224.152 136.235 223.427 141.227 223.427 147.2ZM286.016 102.4H306.24V192H285.76L286.016 102.4ZM319.296 102.4C324.416 102.4 328.981 103.424 332.992 105.472C337.003 107.435 340.16 110.464 342.464 114.56C344.768 118.571 345.92 123.648 345.92 129.792C345.92 136.107 344.64 141.355 342.08 145.536C339.52 149.717 336.192 152.875 332.096 155.008C328.085 157.056 323.819 158.08 319.296 158.08H295.872V102.4H319.296ZM306.24 140.8H316.608C318.4 140.8 319.893 140.373 321.088 139.52C322.368 138.667 323.307 137.472 323.904 135.936C324.587 134.315 324.928 132.523 324.928 130.56C324.928 128.597 324.587 126.891 323.904 125.44C323.307 123.989 322.368 122.88 321.088 122.112C319.893 121.259 318.4 120.832 316.608 120.832H306.24V140.8ZM310.464 147.2H329.92L345.92 188.8V192H324.8L310.464 147.2ZM354.26 192V102.4H374.74V136.704H376.66L393.684 102.4H415.06V105.6L392.66 146.56L415.06 188.8V192H393.684L376.66 156.672H374.74V192H354.26Z" fill="#E8E8E8"/>
</svg>
