<svg width="106" height="32" viewBox="0 0 106 32" fill="none" xmlns="http://www.w3.org/2000/svg">
<path d="M49.976 19.112L50.048 19.928H50.288L55.592 9.344C55.928 8.672 56.096 8.264 56.096 8.12C56.096 7.784 55.528 7.52 54.392 7.328L54.512 6.368H59.72L59.648 7.376C58.96 7.504 58.504 7.648 58.28 7.808C58.072 7.968 57.848 8.272 57.608 8.72L50.264 23.216H48.392L47.48 14.912C47.448 14.656 47.432 14.304 47.432 13.856H47.24C47.208 14.032 47.12 14.24 46.976 14.48L42.68 23.216H40.736L38.48 8.36C38.432 8.024 38.328 7.808 38.168 7.712C38.008 7.6 37.64 7.472 37.064 7.328L37.208 6.368H42.656L42.584 7.352L41.144 7.808C41.016 7.824 40.952 7.888 40.952 8L42.32 19.112L42.392 19.928H42.632L47 11.192L46.688 8.36C46.64 8.04 46.576 7.856 46.496 7.808C46.432 7.744 46.384 7.704 46.352 7.688C46.336 7.656 46.28 7.624 46.184 7.592C46.104 7.544 46.04 7.52 45.992 7.52C45.96 7.504 45.872 7.472 45.728 7.424C45.6 7.376 45.504 7.344 45.44 7.328L45.584 6.368H50.84L50.768 7.352L48.968 7.808C48.84 7.824 48.776 7.888 48.776 8L49.976 19.112ZM72.6635 19.112L72.7355 19.928H72.9755L78.2795 9.344C78.6155 8.672 78.7835 8.264 78.7835 8.12C78.7835 7.784 78.2155 7.52 77.0795 7.328L77.1995 6.368H82.4075L82.3355 7.376C81.6475 7.504 81.1915 7.648 80.9675 7.808C80.7595 7.968 80.5355 8.272 80.2955 8.72L72.9515 23.216H71.0795L70.1675 14.912C70.1355 14.656 70.1195 14.304 70.1195 13.856H69.9275C69.8955 14.032 69.8075 14.24 69.6635 14.48L65.3675 23.216H63.4235L61.1675 8.36C61.1195 8.024 61.0155 7.808 60.8555 7.712C60.6955 7.6 60.3275 7.472 59.7515 7.328L59.8955 6.368H65.3435L65.2715 7.352L63.8315 7.808C63.7035 7.824 63.6395 7.888 63.6395 8L65.0075 19.112L65.0795 19.928H65.3195L69.6875 11.192L69.3755 8.36C69.3275 8.04 69.2635 7.856 69.1835 7.808C69.1195 7.744 69.0715 7.704 69.0395 7.688C69.0235 7.656 68.9675 7.624 68.8715 7.592C68.7915 7.544 68.7275 7.52 68.6795 7.52C68.6475 7.504 68.5595 7.472 68.4155 7.424C68.2875 7.376 68.1915 7.344 68.1275 7.328L68.2715 6.368H73.5275L73.4555 7.352L71.6555 7.808C71.5275 7.824 71.4635 7.888 71.4635 8L72.6635 19.112ZM95.351 19.112L95.423 19.928H95.663L100.967 9.344C101.303 8.672 101.471 8.264 101.471 8.12C101.471 7.784 100.903 7.52 99.767 7.328L99.887 6.368H105.095L105.023 7.376C104.335 7.504 103.879 7.648 103.655 7.808C103.447 7.968 103.223 8.272 102.983 8.72L95.639 23.216H93.767L92.855 14.912C92.823 14.656 92.807 14.304 92.807 13.856H92.615C92.583 14.032 92.495 14.24 92.351 14.48L88.055 23.216H86.111L83.855 8.36C83.807 8.024 83.703 7.808 83.543 7.712C83.383 7.6 83.015 7.472 82.439 7.328L82.583 6.368H88.031L87.959 7.352L86.519 7.808C86.391 7.824 86.327 7.888 86.327 8L87.695 19.112L87.767 19.928H88.007L92.375 11.192L92.063 8.36C92.015 8.04 91.951 7.856 91.871 7.808C91.807 7.744 91.759 7.704 91.727 7.688C91.711 7.656 91.655 7.624 91.559 7.592C91.479 7.544 91.415 7.52 91.367 7.52C91.335 7.504 91.247 7.472 91.103 7.424C90.975 7.376 90.879 7.344 90.815 7.328L90.959 6.368H96.215L96.143 7.352L94.343 7.808C94.215 7.824 94.151 7.888 94.151 8L95.351 19.112Z" fill="black"/>
<line x1="2" y1="7.5" x2="35" y2="7.5" stroke="black"/>
<line x1="10" y1="11.5" x2="35" y2="11.5" stroke="black"/>
<line x1="5" y1="15.5" x2="35" y2="15.5" stroke="black"/>
<line y1="19.5" x2="35" y2="19.5" stroke="black"/>
<line x1="25" y1="22.5" x2="35" y2="22.5" stroke="black"/>
</svg>
