<svg width="91" height="541" viewBox="0 0 91 541" fill="none" xmlns="http://www.w3.org/2000/svg">
<path d="M82.6378 540.813L23.508 539.953L23.6774 528.306L12.1586 528.139L12.3261 516.62L0.679344 516.45L0.869191 503.396L12.516 503.565L12.6835 492.046L24.2023 492.214L24.3735 480.439L83.5032 481.299L83.3134 494.354L60.1478 494.017L59.6602 527.549L82.8257 527.886L82.6378 540.813ZM46.7336 527.361L47.2212 493.829L25.4635 493.512L25.296 505.031L13.7772 504.864L13.6246 515.359L25.1434 515.526L24.9759 527.045L46.7336 527.361ZM83.8977 454.174L72.3789 454.006L72.2096 465.653L1.43303 464.624L1.62102 451.697L24.7866 452.034L25.2928 417.222L36.9396 417.391L37.1108 405.616L73.075 406.139L72.9038 417.914L84.4226 418.082L83.8977 454.174ZM71.1177 452.708L71.6053 419.176L38.0729 418.688L37.5852 452.22L71.1177 452.708ZM84.9519 381.682L73.4331 381.514L73.2638 393.161L37.2996 392.638L37.4689 380.991L25.8222 380.822L26.347 344.73L37.9938 344.899L38.1651 333.124L74.1293 333.647L73.958 345.422L85.4768 345.589L84.9519 381.682ZM72.1719 380.216L72.6595 346.683L39.1271 346.196L38.6394 379.728L72.1719 380.216ZM86.0425 306.69L74.5237 306.522L74.3543 318.169L26.7434 317.476L26.9314 304.55L73.2625 305.224L73.7501 271.691L27.419 271.017L27.6089 257.963L75.2198 258.655L75.0486 270.43L86.5674 270.597L86.0425 306.69ZM87.2261 225.303L75.7073 225.136L75.5398 236.654L40.7274 236.148L40.5581 247.795L27.7594 247.609L27.9288 235.962L4.76325 235.625L4.94937 222.827L28.1149 223.163L28.6249 188.095L41.4236 188.281L40.9136 223.35L74.446 223.837L74.9374 190.049L63.2906 189.879L63.4786 176.953L76.4052 177.141L76.2359 188.787L87.7547 188.955L87.2261 225.303Z" fill="white"/>
<path d="M88.6908 124.584L77.172 124.416L77.0026 136.063L6.2261 135.034L6.41409 122.107L75.9107 123.118L76.3984 89.5854L6.90173 88.5747L7.09158 75.5201L77.8681 76.5493L77.6969 88.3241L89.2156 88.4916L88.6908 124.584ZM89.7813 49.5917L78.2626 49.4242L78.0932 61.071L65.1666 60.883L65.3545 47.9564L77.0013 48.1257L77.489 14.5933L55.4753 14.2732L54.969 49.0855L43.4502 48.918L43.2809 60.5647L18.9634 60.2111L19.1328 48.5643L7.48605 48.395L8.01092 12.3028L19.6577 12.4721L19.8289 0.697383L32.6276 0.883507L32.4377 13.9381L20.9189 13.7706L20.4313 47.3031L42.317 47.6213L42.8232 12.809L54.214 12.9747L54.3853 1.19992L78.9587 1.55728L78.7874 13.332L90.3062 13.4995L89.7813 49.5917Z" fill="#6060BB"/>
</svg>
