<svg width="94" height="110" viewBox="0 0 94 110" fill="none" xmlns="http://www.w3.org/2000/svg">
<path d="M0.497857 109.075L0.00732422 107.003C0.79733 101.695 1.58733 96.3862 2.37734 91.0776C2.90032 87.5616 3.47494 83.9153 5.56097 80.9494C7.94058 77.5657 11.9717 75.5299 16.0081 74.0593C19.2662 72.8722 22.5922 71.7071 25.8806 70.6343C27.1109 70.2331 28.3148 69.6485 29.5082 69.0873L64.1394 70.0063C65.2193 70.5157 66.3088 71.0273 67.4204 71.3899C70.7088 72.4627 74.034 73.6278 77.2929 74.8143C81.3292 76.2848 85.3604 78.3207 87.74 81.7043C89.826 84.6709 90.3999 88.3172 90.9236 91.8326C91.7136 97.1411 92.5036 103.766 93.2936 109.074" fill="#003D4D"/>
<path d="M52.5901 78.8508H40.8042V109.075H52.5901V78.8508Z" fill="white"/>
<path d="M40.8038 107.322V104.29C40.7492 104.285 40.6939 104.283 40.6385 104.283H27.0211C27.0167 102.364 27.0122 100.368 27.0086 98.3456H40.6385C40.6946 98.3456 40.7499 98.3428 40.8038 98.338V95.3066C40.7492 95.3018 40.6939 95.299 40.6385 95.299H27.0034C26.9997 93.3025 26.9967 91.3073 26.9945 89.3618H40.7507C40.7684 89.3618 40.7861 89.3597 40.8038 89.359V86.3166C40.7861 86.3159 40.7684 86.3138 40.7507 86.3138H26.9916C26.9901 84.2159 26.9886 82.2139 26.9894 80.3759H29.5069C29.217 79.3245 29.0275 78.3021 28.9109 77.3286H26.9916C26.996 73.5486 27.0071 70.8833 27.0292 70.2097C26.7836 70.3097 26.538 70.4055 26.2901 70.4944C26.2687 71.5651 26.2569 74.0408 26.2517 77.3286H25.7029C25.7066 74.1546 25.7147 71.7678 25.731 70.6847C25.4861 70.7647 25.2404 70.846 24.9948 70.9274C24.9778 72.1559 24.9683 74.4248 24.9638 77.3286H16.6042C16.6057 76.0208 16.6079 74.8467 16.6116 73.8416C16.411 73.9147 16.2096 73.987 16.009 74.0601C15.964 74.0767 15.9182 74.0932 15.8732 74.1104C15.8695 75.0591 15.8666 76.1401 15.8651 77.3286H15.3163C15.3178 76.2214 15.3193 75.2108 15.3222 74.3166C15.0759 74.411 14.8295 74.5068 14.5839 74.6061C14.5809 75.43 14.5787 76.3428 14.5772 77.3286H9.33411C8.21143 78.098 7.18833 78.9736 6.32014 79.9808C6.60929 80.2256 6.99213 80.3759 7.41258 80.3759H14.5743C14.5735 82.2208 14.5735 84.2242 14.575 86.3138H3.25307C3.00375 87.3114 2.81343 88.3276 2.64673 89.3445C2.72197 89.3542 2.7972 89.3611 2.87539 89.3611H14.578C14.5802 91.3169 14.5831 93.3142 14.5868 95.2983H1.75124C1.6015 96.3069 1.45103 97.3156 1.30055 98.3242C1.38611 98.3373 1.47242 98.3456 1.56167 98.3456H14.5927C14.5964 100.391 14.6008 102.39 14.6052 104.283C14.1767 104.283 13.7474 104.283 13.3188 104.283C12.2751 104.283 11.2313 104.283 10.1876 104.283C8.89228 104.283 7.59625 104.283 6.30096 104.283C5.11706 104.283 3.93317 104.283 2.74926 104.283C2.0404 104.283 1.33153 104.283 0.621928 104.283C0.585784 104.283 0.513495 104.27 0.480301 104.283C0.320235 104.346 0.32761 104.774 0.308431 104.941C0.239831 105.528 0.242047 106.119 0.262701 106.709C0.267864 106.862 0.207374 107.337 0.373341 107.373C0.447842 107.39 0.609382 107.331 0.705274 107.331C1.07925 107.327 1.45472 107.331 1.8287 107.331C3.01039 107.331 4.19133 107.331 5.37302 107.331C6.76789 107.331 8.16202 107.331 9.55614 107.331C10.7282 107.331 11.8996 107.331 13.0717 107.331C13.5851 107.331 14.0978 107.331 14.6134 107.331C14.6148 107.931 14.6163 108.512 14.6178 109.076H15.3591C15.3576 108.507 15.3562 107.925 15.3547 107.331H15.902C15.9035 107.931 15.905 108.512 15.9064 109.076H16.6478C16.6463 108.507 16.6448 107.925 16.6433 107.331H25.0015C25.0029 107.931 25.0044 108.512 25.0059 109.076H25.7472C25.7457 108.507 25.7443 107.925 25.7428 107.331H26.2901C26.2916 107.931 26.2931 108.512 26.2945 109.076H27.0358C27.0344 108.507 27.0329 107.925 27.0314 107.331H40.6415C40.6939 107.329 40.7492 107.327 40.8038 107.322ZM15.3134 80.3745H15.8607C15.86 82.2194 15.86 84.2228 15.8622 86.3125H15.3156C15.3141 84.2146 15.3134 82.2118 15.3134 80.3745ZM15.3185 89.3597H15.8644C15.8666 91.3156 15.8695 93.3128 15.8732 95.297H15.3267C15.3237 93.3004 15.3215 91.3052 15.3185 89.3597ZM15.3451 104.282C15.3407 102.363 15.3362 100.367 15.3325 98.3449H15.8791C15.8828 100.39 15.8873 102.39 15.8917 104.282H15.3451ZM16.602 80.3745H24.9601C24.9594 82.2194 24.9594 84.2228 24.9616 86.3125H16.6042C16.602 84.2146 16.6013 82.2118 16.602 80.3745ZM16.6072 89.3597H24.9638C24.966 91.3156 24.969 93.3128 24.9727 95.297H16.616C16.6123 93.3004 16.6094 91.3052 16.6072 89.3597ZM16.6337 104.282C16.6293 102.363 16.6249 100.367 16.6212 98.3449H24.9786C24.9823 100.39 24.9867 102.39 24.9911 104.282H16.6337ZM25.7007 80.3745H26.2481C26.2473 82.2194 26.2473 84.2228 26.2495 86.3125H25.7037C25.7015 84.2146 25.7007 82.2118 25.7007 80.3745ZM25.7066 89.3597H26.2525C26.2547 91.3156 26.2576 93.3128 26.2613 95.297H25.7155C25.7118 93.3004 25.7089 91.3052 25.7066 89.3597ZM25.7324 104.282C25.728 102.363 25.7236 100.367 25.7199 98.3449H26.2665C26.2702 100.39 26.2746 102.39 26.279 104.282H25.7324Z" fill="#EC2D4A"/>
<path d="M92.5695 104.885H78.4896C78.494 102.993 78.4984 100.993 78.5021 98.9481H91.4306C91.5191 98.9481 91.812 98.9398 91.8968 98.9267C91.7478 97.9181 91.6401 96.9095 91.4911 95.9009H78.508C78.5117 93.9167 78.5146 91.9195 78.5169 89.9636H90.128C90.2054 89.9636 91.0507 89.9471 90.7712 89.9471C90.6059 88.9302 90.3271 87.914 90.0793 86.9164H78.5198C78.5213 84.8274 78.522 82.824 78.5205 80.9784H85.6262C86.0437 80.9784 86.4228 80.8281 86.7098 80.5834C85.8482 79.5755 84.8332 78.7006 83.7194 77.9312H78.5176C78.5161 76.9446 78.5139 76.0325 78.511 75.2087C78.2675 75.1101 78.0227 75.0136 77.7785 74.9191C77.7807 75.8133 77.7829 76.824 77.7844 77.9312H77.24C77.2378 76.7426 77.2356 75.6609 77.2319 74.713C77.1869 74.6964 77.1419 74.6792 77.0969 74.6627C76.8985 74.5896 76.6986 74.5172 76.4994 74.4441C76.5024 75.4486 76.5046 76.6234 76.5061 77.9312H68.2121C68.2077 75.0274 68.1974 72.7585 68.1811 71.53C67.9377 71.4486 67.6943 71.3679 67.4509 71.2873C67.4664 72.3703 67.4752 74.7571 67.4789 77.9312H66.9345C66.9294 74.6433 66.9176 72.1676 66.8962 71.097C66.6505 71.008 66.4064 70.9122 66.163 70.8123C66.1851 71.4858 66.1962 74.1511 66.2006 77.9312H64.296C64.181 78.9046 63.9921 79.9277 63.7052 80.9784H66.2028C66.2028 82.8157 66.2021 84.8185 66.2006 86.9164H52.55C52.5323 86.9164 52.5145 86.9184 52.4968 86.9191V89.9615C52.5145 89.9622 52.5323 89.9643 52.55 89.9643H66.1976C66.1954 91.9098 66.1925 93.9057 66.1895 95.9016H52.6613C52.606 95.9016 52.5514 95.9043 52.4968 95.9092V98.9405C52.5507 98.946 52.6053 98.9481 52.6613 98.9481H66.1836C66.18 100.97 66.1755 102.967 66.1711 104.885H52.6606C52.6053 104.885 52.5507 104.888 52.4961 104.893V107.924C52.5499 107.929 52.6045 107.932 52.6606 107.932H66.1637C66.163 108.321 66.1615 108.697 66.1608 109.076H66.8962C66.8969 108.699 66.8984 108.325 66.8991 107.932H67.442C67.4413 108.321 67.4398 108.697 67.4391 109.076H68.1745C68.1752 108.699 68.1767 108.325 68.1774 107.932H76.4692C76.4684 108.321 76.467 108.697 76.4662 109.076H77.2017C77.2024 108.699 77.2039 108.325 77.2046 107.932H77.7475C77.7468 108.321 77.7453 108.697 77.7446 109.076H78.48C78.4807 108.699 78.4822 108.325 78.4829 107.932H92.7561C92.8107 107.932 92.8638 107.929 92.9169 107.924L92.9715 107.605C92.8373 106.699 92.703 105.792 92.5695 104.885ZM67.4479 104.885H66.9058C66.9102 102.993 66.9146 100.993 66.9183 98.9481H67.4605C67.4568 100.97 67.4524 102.967 67.4479 104.885ZM67.4664 95.9002H66.9242C66.9279 93.916 66.9309 91.9188 66.9331 89.9629H67.4745C67.4723 91.9085 67.4693 93.9036 67.4664 95.9002ZM67.4775 86.9157H66.9353C66.9368 84.8267 66.9375 82.8233 66.9368 80.9777H67.4797C67.4804 82.815 67.4797 84.8178 67.4775 86.9157ZM76.4758 104.885H68.1841C68.1885 102.993 68.1929 100.993 68.1966 98.9481H76.4884C76.4839 100.97 76.4803 102.967 76.4758 104.885ZM76.4935 95.9002H68.2025C68.2062 93.916 68.2092 91.9188 68.2114 89.9629H76.5024C76.4994 91.9085 76.4965 93.9036 76.4935 95.9002ZM76.5053 86.9157H68.2143C68.2158 84.8267 68.2166 82.8233 68.2151 80.9777H76.5075C76.5075 82.815 76.5068 84.8178 76.5053 86.9157ZM77.7541 104.885H77.2113C77.2157 102.993 77.2201 100.993 77.2238 98.9481H77.766C77.7623 100.97 77.7586 102.967 77.7541 104.885ZM77.7719 95.9002H77.2297C77.2334 93.916 77.2363 91.9188 77.2386 89.9629H77.7807C77.7778 91.9085 77.7748 93.9036 77.7719 95.9002ZM77.7837 86.9157H77.2415C77.243 84.8267 77.2437 82.8233 77.243 80.9777H77.7859C77.7859 82.815 77.7851 84.8178 77.7837 86.9157Z" fill="#EC2D4A"/>
<path d="M48.7615 1.47465C48.4193 0.614256 47.5348 0 46.4948 0C45.4547 0 44.5703 0.614256 44.228 1.47465H48.7615Z" fill="#231F20"/>
<path d="M40.7451 78.2021C44.7593 79.4106 48.7049 79.21 52.649 77.845C52.9153 77.7533 52.8003 77.3514 52.531 77.4444C48.6503 78.7874 44.8161 78.9915 40.8639 77.8015C40.5902 77.7195 40.4737 78.1201 40.7451 78.2021Z" fill="#231F20"/>
<path d="M60.9935 68.3931C59.7623 67.8794 58.5165 67.3968 57.278 66.8984C57.0611 66.8115 56.8723 67.1094 57.0906 67.1976C58.3291 67.6954 59.575 68.178 60.8061 68.6923C61.0222 68.7826 61.2111 68.4841 60.9935 68.3931Z" fill="#231F20"/>
<path d="M93.4726 109.029C92.7136 103.847 92.0859 98.6502 91.346 93.4657C90.7721 89.4471 90.3472 85.0934 87.9005 81.6167C82.8344 74.4192 71.857 73.4057 64.2335 69.8566C64.0211 69.7573 63.833 70.0558 64.0469 70.1558C72.0333 73.8732 83.516 74.8052 88.2229 82.8046C90.7537 87.1065 90.8902 92.726 91.5297 97.4823C92.0512 101.362 92.5491 105.245 93.1163 109.12C93.1473 109.34 93.5043 109.247 93.4726 109.029Z" fill="#231F20"/>
<path d="M36.0232 66.1427C34.7375 66.6619 33.4563 67.1893 32.1787 67.725C31.9618 67.816 32.1499 68.1145 32.3661 68.0242C33.6436 67.4878 34.9249 66.9604 36.2106 66.442C36.4282 66.3537 36.2401 66.0552 36.0232 66.1427Z" fill="#231F20"/>
<path opacity="0.3" d="M62.6866 45.4658C62.0943 46.7123 61.5013 47.9594 60.909 49.2059C60.8706 49.2866 60.9982 49.3569 61.0366 49.2755C61.6289 48.0291 62.2219 46.7819 62.8143 45.5354C62.8526 45.4555 62.725 45.3845 62.6866 45.4658Z" fill="#EFA841"/>
<path d="M64.3205 17.0927C66.8742 24.5716 66.2111 33.8291 64.1435 41.3782C62.9965 45.5664 60.9377 49.5843 58.01 52.9459C54.7291 56.7129 51.1191 58.3461 45.9084 58.6978C37.1675 59.2886 31.0982 48.7639 29.0985 41.9394C26.8686 34.3296 26.1487 24.788 28.7872 17.2286C28.8765 16.9735 28.4472 16.8645 28.3587 17.1182C25.3624 25.7036 26.3103 37.0955 29.8974 45.4506C31.5239 49.2382 33.9219 52.7212 37.0546 55.5726C39.9107 58.1717 41.9038 59.381 45.9084 59.1142C49.7279 58.8598 53.0982 58.1607 55.9218 55.6733C59.1276 52.8501 61.5573 49.2569 63.1912 45.4506C66.796 37.0528 67.6974 25.6195 64.7491 16.9831C64.662 16.7287 64.2327 16.837 64.3205 17.0927Z" fill="#231F20"/>
<path d="M64.3205 17.0927C66.8742 24.5716 66.2111 33.8291 64.1435 41.3782C62.9965 45.5664 60.9377 49.5843 58.01 52.9459C54.7291 56.7129 51.1191 58.3461 45.9084 58.6978C37.1675 59.2886 31.0982 48.7639 29.0985 41.9394C26.8686 34.3296 26.1487 24.788 28.7872 17.2286C28.8765 16.9735 28.4472 16.8645 28.3587 17.1182C25.3624 25.7036 26.3103 37.0955 29.8974 45.4506C31.5239 49.2382 33.9219 52.7212 37.0546 55.5726C39.9107 58.1717 41.9038 59.381 45.9084 59.1142C49.7279 58.8598 53.0982 58.1607 55.9218 55.6733C59.1276 52.8501 61.5573 49.2569 63.1912 45.4506C66.796 37.0528 67.6974 25.6195 64.7491 16.9831C64.662 16.7287 64.2327 16.837 64.3205 17.0927Z" fill="#231F20"/>
<path d="M49.4253 21.3174L49.9844 23.396C49.9844 23.396 57.4367 22.7376 57.4116 22.6184C57.3866 22.4998 56.9883 20.6198 56.9883 20.6198L49.4253 21.3174Z" fill="#231F20"/>
<path d="M39.1028 45.0686C43.3236 45.9607 48.0371 46.0869 51.8757 44.0214C52.1236 43.8877 51.9 43.5285 51.6515 43.6629C47.9449 45.6574 43.2948 45.5299 39.2209 44.6688C38.9428 44.6088 38.824 45.0094 39.1028 45.0686Z" fill="#231F20"/>
<path d="M26.9084 26.5329C25.3815 25.1947 22.9038 24.4998 21.1785 26.0241C19.4111 27.5863 19.8744 30.7066 20.4327 32.6391C21.0642 34.8252 22.2326 38.062 24.6815 39.0286C26.2232 39.6374 27.801 39.1796 28.0451 37.5381C28.0842 37.2768 27.6556 37.1637 27.6166 37.4278C25.4627 38.7094 23.9601 38.6253 23.1081 37.1754C22.7393 36.7714 22.4398 36.3261 22.2104 35.84C21.6521 34.8569 21.1733 33.6215 20.862 32.5288C20.4549 31.1023 20.2129 29.5532 20.5795 28.0924C21.2545 25.4029 24.4204 24.9231 26.5942 26.8273C26.8029 27.0093 27.1179 26.7163 26.9084 26.5329Z" fill="#231F20"/>
<path d="M27.0131 31.3706C25.8793 30.3923 23.2548 29.0948 22.2347 30.8618C22.099 31.0969 22.4825 31.3072 22.6182 31.0714C23.4658 29.6036 25.7938 30.8839 26.6981 31.665C26.9083 31.8456 27.224 31.5526 27.0131 31.3706Z" fill="#231F20"/>
<path d="M25.1069 30.3985C24.0137 31.234 23.7754 32.6053 24.5035 33.7311C24.6518 33.9593 25.0361 33.7511 24.8871 33.5215C24.2534 32.5432 24.4769 31.4133 25.4204 30.6928C25.6431 30.5226 25.3267 30.2302 25.1069 30.3985Z" fill="#231F20"/>
<path d="M66.3245 26.8266C68.3523 25.05 71.6805 25.5036 72.3392 28.0917C72.7028 29.5209 72.4373 31.1258 72.0567 32.5281C71.7528 33.6484 71.274 34.8267 70.7083 35.8394C70.5718 36.0779 70.4361 36.3172 70.2996 36.5557C69.3946 38.444 67.729 38.7343 65.3022 37.4278C65.2631 37.1638 64.8345 37.2761 64.8736 37.5381C65.1148 39.1624 66.6683 39.6346 68.2107 39.039C70.6589 38.0938 71.8737 34.8115 72.486 32.6391C73.0377 30.6826 73.4936 27.6429 71.7631 26.0407C70.0695 24.473 67.5269 25.2051 66.011 26.533C65.8008 26.7163 66.1158 27.0093 66.3245 26.8266Z" fill="#231F20"/>
<path d="M66.2197 31.6643C67.1211 30.8867 69.4513 29.6023 70.2996 31.0708C70.4353 31.3059 70.8196 31.0969 70.6831 30.8612C69.6637 29.0956 67.037 30.3937 65.9047 31.37C65.6945 31.5527 66.0102 31.8457 66.2197 31.6643Z" fill="#231F20"/>
<path d="M67.4975 30.6923C68.4416 31.4134 68.6637 32.544 68.0315 33.5209C67.8832 33.7505 68.2676 33.9594 68.4151 33.7305C69.1439 32.6047 68.9056 31.2335 67.8117 30.3979C67.5919 30.2304 67.2754 30.5227 67.4975 30.6923Z" fill="#231F20"/>
<path d="M53.0701 29.1762C54.0054 29.1762 54.7637 28.4675 54.7637 27.5933C54.7637 26.7191 54.0054 26.0104 53.0701 26.0104C52.1347 26.0104 51.3765 26.7191 51.3765 27.5933C51.3765 28.4675 52.1347 29.1762 53.0701 29.1762Z" fill="#231F20"/>
<path d="M41.8512 20.9369L41.5274 23.0589C41.5274 23.0589 34.0419 23.1313 34.0537 23.0107C34.0655 22.89 34.2514 20.9817 34.2514 20.9817L41.8512 20.9369Z" fill="#231F20"/>
<path d="M36.2583 27.5933C36.2583 28.4675 37.0166 29.1762 37.9519 29.1762C38.8872 29.1762 39.6455 28.4675 39.6455 27.5933C39.6455 26.7191 38.8872 26.0104 37.9519 26.0104C37.0166 26.0104 36.2583 26.7191 36.2583 27.5933Z" fill="#231F20"/>
<path d="M44.4805 47.1521C45.4224 47.1342 46.3615 47.0811 47.299 46.9922C47.5808 46.9653 47.5837 46.5496 47.299 46.5764C46.3615 46.6654 45.4224 46.7185 44.4805 46.7364C44.195 46.7419 44.1943 47.1576 44.4805 47.1521Z" fill="#231F20"/>
<path d="M36.7265 61.9387C36.7265 61.9387 24.3748 67.7974 40.751 75.1383C40.6765 75.3458 34.8971 80.3324 31.0437 84.28C31.0437 84.28 23.0692 67.4382 36.7265 61.9387Z" fill="#004354" stroke="#231F20" stroke-width="0.6027" stroke-miterlimit="10" stroke-linecap="round" stroke-linejoin="round"/>
<path d="M36.7262 61.9387C36.7262 61.9387 28.3578 65.9946 34.4432 71.3286C34.5251 71.1652 36.9873 65.5471 36.7262 61.9387Z" fill="#231F20"/>
<path d="M56.6144 61.9387C56.6144 61.9387 68.966 67.7974 52.5898 75.1383C52.6636 75.3458 58.4437 80.3324 62.2971 84.28C62.1488 84.0036 70.2717 67.4382 56.6144 61.9387Z" stroke="#231F20" stroke-width="0.6027" stroke-miterlimit="10" stroke-linecap="round" stroke-linejoin="round"/>
<path d="M56.6141 61.9387C56.6141 61.9387 64.9826 65.9946 58.8971 71.3286C58.8145 71.1652 56.353 65.5471 56.6141 61.9387Z" fill="#231F20"/>
<path d="M56.6144 61.9387C56.6144 61.9387 68.966 67.7974 52.5898 75.1383C52.6636 75.3458 58.4437 80.3324 62.2971 84.28C62.1488 84.0036 70.2717 67.4382 56.6144 61.9387Z" fill="#004354" stroke="#231F20" stroke-width="0.6027" stroke-miterlimit="10" stroke-linecap="round" stroke-linejoin="round"/>
<path d="M56.6141 61.9387C56.6141 61.9387 64.9826 65.9946 58.8971 71.3286C58.8145 71.1652 56.353 65.5471 56.6141 61.9387Z" fill="#231F20"/>
<path d="M40.751 75.1383V106.928" stroke="#231F20" stroke-width="0.6027" stroke-miterlimit="10" stroke-linecap="round" stroke-linejoin="round"/>
<path d="M52.5898 75.1383V108.905" stroke="#231F20" stroke-width="0.6027" stroke-miterlimit="10" stroke-linecap="round" stroke-linejoin="round"/>
<path d="M55.6575 93.0073C56.592 93.0073 57.3496 92.2992 57.3496 91.4257C57.3496 90.5523 56.592 89.8442 55.6575 89.8442C54.7229 89.8442 53.9653 90.5523 53.9653 91.4257C53.9653 92.2992 54.7229 93.0073 55.6575 93.0073Z" fill="#231F20"/>
<path d="M57.3491 101.791C57.3491 102.665 56.5915 103.373 55.657 103.373C54.7224 103.373 53.9648 102.665 53.9648 101.791C53.9648 100.918 54.7224 100.21 55.657 100.21C56.5923 100.21 57.3491 100.918 57.3491 101.791Z" fill="#231F20"/>
<path d="M37.6758 86.6813V90.5137" stroke="#231F20" stroke-width="0.6027" stroke-miterlimit="10" stroke-linecap="round" stroke-linejoin="round"/>
<path d="M37.6758 95.8698V99.7015" stroke="#231F20" stroke-width="0.6027" stroke-miterlimit="10" stroke-linecap="round" stroke-linejoin="round"/>
<path d="M31.0435 84.2807L40.7507 80.1711V75.3693L31.0435 84.2807Z" fill="#231F20"/>
<path d="M62.2036 84.2807L52.4956 80.1711V75.3693L62.2036 84.2807Z" fill="#231F20"/>
<path d="M46.9758 33.2107C46.2035 32.6688 45.1332 32.7832 44.2414 32.9797C43.458 33.1527 41.8065 33.6629 41.4494 34.4178C41.1787 34.9914 42.0211 35.1989 42.4784 35.2803C43.8755 35.5285 45.3405 35.1279 46.6748 34.7811C46.95 34.7094 46.8334 34.3089 46.5568 34.3806C45.6849 34.6067 44.8027 34.8446 43.8969 34.9121C43.5215 34.9397 43.1372 34.9542 42.7646 34.8908C42.4349 34.8935 42.1399 34.7922 41.8795 34.5874C42.0661 34.4254 42.266 34.2806 42.4784 34.1517C43.5451 33.4768 45.5861 32.7515 46.7516 33.5698C46.9802 33.7298 47.2023 33.3692 46.9758 33.2107Z" fill="#231F20"/>
<path d="M66.6562 16.3694C64.7495 3.75447 54.7626 1.64829 49.1522 1.48352L44.9838 1.47525C39.7179 1.39735 28.3775 2.83892 26.332 16.3694C26.332 16.3694 46.8419 21.9524 66.6562 16.3694Z" stroke="#231F20" stroke-width="0.6027" stroke-miterlimit="10"/>
<path d="M40.7831 12.5198C40.7831 12.5198 45.3505 13.907 51.5768 12.2979C51.585 12.4013 51.8572 15.8553 51.8572 15.8553C51.8572 15.8553 44.4816 17.0224 41.0309 15.6629C40.6901 15.5816 40.7831 12.5198 40.7831 12.5198Z" fill="#231F20"/>
<path d="M28.0849 35.3824C28.4677 35.5492 29.1404 35.5126 29.3639 35.2679C29.4082 35.2196 29.4149 35.1507 29.4171 35.0873C29.4392 34.5675 29.3374 34.0504 29.243 33.5375C28.9007 31.6774 28.6462 29.8029 28.4795 27.9222C28.4006 27.0259 28.2855 26.1021 28.3313 25.2065C28.38 24.2579 28.4242 23.3106 28.4972 22.3634C28.6027 21.0011 28.7443 19.6409 28.9221 18.2855C28.9767 17.8697 29.0342 17.4526 29.0136 17.0342C29.0114 16.9887 29.0062 16.939 28.9737 16.9053C28.9428 16.8729 28.8941 16.8625 28.8483 16.8542C28.4367 16.7756 28.0657 16.6771 27.6607 16.5785C27.3524 16.5033 26.9902 16.462 26.8235 16.7736C26.5742 17.2879 26.6937 18.202 26.662 18.7639C26.5838 20.1421 26.5491 21.5216 26.558 22.9011C26.575 25.6609 26.766 28.4192 27.1282 31.1576C27.2322 31.9401 27.3495 32.7212 27.4808 33.4995C27.5634 33.987 27.5457 34.8115 27.8688 35.2293C27.9189 35.2913 27.9942 35.3424 28.0849 35.3824Z" fill="#050100"/>
<path d="M64.9829 35.3823C64.6001 35.5492 63.9274 35.5126 63.7039 35.2679C63.6596 35.2196 63.653 35.1507 63.65 35.0872C63.6279 34.5674 63.7297 34.0504 63.8241 33.5374C64.3368 30.7522 64.6525 27.9352 64.7705 25.1114C64.8236 23.8401 65.0331 22.3523 64.7395 21.1086C64.4371 19.8249 64.4836 18.433 64.4305 17.1162C64.4275 17.0397 64.4268 16.9549 64.4799 16.8963C64.5234 16.8473 64.5935 16.8287 64.6591 16.8121C65.1231 16.6956 65.9854 16.2413 66.2428 16.7728C66.4921 17.2872 66.3726 18.2013 66.4044 18.7632C66.4826 20.1413 66.5172 21.5209 66.5084 22.9004C66.4914 25.6601 66.3004 28.4185 65.9382 31.1569C65.8349 31.9394 65.7169 32.7205 65.5856 33.4988C65.503 33.9863 65.5207 34.8108 65.1976 35.2286C65.1482 35.2913 65.0737 35.3423 64.9829 35.3823Z" fill="#050100"/>
<path d="M64.703 16.7653C67.8955 15.6988 66.0256 22.9935 66.0588 26.1621C65.3462 24.9418 64.0952 24.0821 62.8184 23.3699C59.8125 21.694 56.4305 20.6095 52.9562 20.2083C51.579 20.049 50.1908 19.9966 48.8048 19.9435C46.3359 19.8498 43.8671 19.756 41.3982 19.6616C37.6024 19.5168 33.566 19.2989 30.4761 17.2334C30.4761 17.2334 50.5685 21.4858 64.703 16.7653Z" fill="#050100"/>
<path d="M63.825 8.69146C68.4278 7.91173 74.9566 9.36709 76.4961 14.1358C78.436 20.1434 70.1886 21.2313 65.9612 21.3113C65.6757 21.3168 65.6743 21.7325 65.9612 21.727C70.3376 21.6442 78.0753 20.5722 77.1113 14.7687C76.1951 9.25196 68.6513 7.45258 63.707 8.29091C63.4259 8.33848 63.5447 8.73903 63.825 8.69146Z" fill="#231F20"/>
<path d="M0.676646 109.029C-0.185648 105.387 1.02333 101.424 1.56844 97.7588C2.28469 92.946 2.47869 87.5981 4.59127 83.1031C8.798 74.1524 21.2352 73.1576 29.6015 69.2369C29.8147 69.1369 29.6273 68.8384 29.4141 68.9377C21.067 72.8494 8.46311 73.9249 4.21729 82.9308C2.09364 87.4348 1.92768 92.8501 1.2107 97.6671C0.643463 101.478 -0.57807 105.334 0.318893 109.121C0.371265 109.338 0.72828 109.246 0.676646 109.029Z" fill="#231F20"/>
<path d="M29.33 69.0411C27.7589 74.0849 28.6212 79.656 30.8835 84.3682C30.927 84.4585 31.0546 84.4661 31.1372 84.4303C32.6531 83.7684 34.1696 83.1073 35.6855 82.4454C36.4113 82.129 40.1009 79.9201 40.8386 80.1965C40.3938 80.0297 40.6188 81.6609 40.6188 82.1648C40.6188 83.9463 40.6188 85.7284 40.6188 87.5099C40.6188 94.6419 40.6188 101.773 40.6188 108.905C40.6188 109.128 40.9891 109.129 40.9891 108.905C40.9891 99.2776 40.9891 89.6499 40.9891 80.0221C40.9891 79.8815 40.8342 79.8187 40.7102 79.8725C39.5219 80.391 38.3343 80.9094 37.146 81.4279C35.6464 82.0821 33.2653 83.7409 31.6226 83.8381C31.4655 83.847 31.2479 84.0904 31.093 84.069C30.7028 84.0166 29.9091 81.1135 29.7755 80.6474C29.2253 78.7281 28.9472 76.7357 28.9472 74.7495C28.9472 72.8715 29.1227 70.9439 29.687 69.1335C29.7542 68.9184 29.3964 68.8274 29.33 69.0411Z" fill="#231F20"/>
<path d="M40.751 80.171C40.751 80.171 46.3467 84.2338 52.4963 80.171C52.7545 79.8477 52.7545 77.645 52.7545 77.645C52.7545 77.645 47.0836 80.4151 40.8048 78.0021L40.751 80.171Z" fill="#231F20"/>
<path d="M46.3256 1.35607C43.4112 2.10823 40.8693 5.17891 39.2037 7.37264C36.7828 10.5612 35.3208 14.16 34.6843 18.0131C34.6407 18.2744 35.0693 18.3875 35.1128 18.1234C35.6314 14.9852 36.6832 12.0048 38.4218 9.26025C40.0542 6.68321 43.1656 2.60323 46.4443 1.75732C46.7195 1.68562 46.6022 1.28438 46.3256 1.35607Z" fill="#231F20"/>
<path d="M46.7324 1.45536C54.5874 4.62048 58.9048 10.3295 57.777 18.4902C57.7408 18.7549 58.1856 18.7522 58.2218 18.4902C59.3739 10.1489 54.9902 4.33299 46.9566 1.09617C46.697 0.992072 46.4698 1.34988 46.7324 1.45536Z" fill="#231F20"/>
<path d="M44.0968 17.7008C44.3355 17.7008 44.5291 17.5199 44.5291 17.2968C44.5291 17.0737 44.3355 16.8928 44.0968 16.8928C43.8581 16.8928 43.6646 17.0737 43.6646 17.2968C43.6646 17.5199 43.8581 17.7008 44.0968 17.7008Z" fill="#231F20"/>
<path d="M46.1832 17.7008C46.422 17.7008 46.6155 17.5199 46.6155 17.2968C46.6155 17.0737 46.422 16.8928 46.1832 16.8928C45.9445 16.8928 45.751 17.0737 45.751 17.2968C45.751 17.5199 45.9445 17.7008 46.1832 17.7008Z" fill="#231F20"/>
<path d="M48.6911 17.2044C48.7464 17.4216 48.6026 17.6394 48.3703 17.6904C48.1379 17.7414 47.9048 17.6077 47.8502 17.3905C47.7949 17.1734 47.9387 16.9555 48.1711 16.9045C48.4034 16.8528 48.6365 16.9872 48.6911 17.2044Z" fill="#231F20"/>
<path d="M58.8972 71.3287C58.8972 71.3287 55.3411 74.2614 52.5344 74.7351C52.5905 74.5627 52.5897 77.6451 52.5897 77.6451C52.5897 77.6451 45.2842 80.0567 40.8038 77.4714L40.6268 75.3025C40.6268 75.3025 36.3692 73.5748 34.5664 71.4452C37.4476 65.6403 37.5177 58.875 34.7331 53.0294C34.7331 53.0294 41.1645 61.5575 50.4462 57.9381C50.323 58.1104 55.1626 57.3742 58.4407 52.7344C56.9942 55.7713 56.3701 58.926 56.4549 62.2463C56.539 65.5176 57.2228 68.5027 58.8132 71.4045" fill="white"/>
<path d="M58.7401 71.1811C56.9101 72.6571 54.8321 73.9574 52.4754 74.5344C52.3515 74.5648 52.2991 74.6806 52.3198 74.7902C52.811 77.3245 52.4651 77.6064 49.9829 78.0711C47.9766 78.4468 45.6405 78.6957 43.6149 78.2469C41.3681 77.7492 41.0074 77.2349 40.8496 75.3024C40.8437 75.2342 40.8127 75.1535 40.7396 75.1232C39.6546 74.6702 38.588 74.149 37.5914 73.5437C34.5642 71.7064 35.2863 70.8832 36.1058 68.1463C37.2529 64.3152 37.2927 60.1952 36.2143 56.3469C36.1553 56.1359 35.2797 52.8701 34.5686 53.168C34.5664 53.1687 34.846 53.5044 34.8106 53.4637C35.3586 54.098 35.9495 54.6978 36.5883 55.2535C38.3969 56.8274 40.5715 58.1152 42.9821 58.6943C47.0147 59.6637 52.4754 58.3021 55.7225 55.8498C56.407 55.3327 57.8874 54.0215 57.7237 53.8236C57.9501 54.0966 56.4608 58.4296 56.3745 59.1824C55.884 63.4644 56.6526 67.6278 58.6228 71.5093C58.7453 71.7505 59.1289 71.5403 59.0064 71.2997C56.0079 65.3927 56.0072 58.8046 58.6568 52.7902C58.7593 52.5571 58.3861 52.4544 58.2503 52.6302C52.5838 59.9953 40.7662 60.4896 34.9264 52.926C34.7921 52.7522 34.4159 52.8508 34.5199 53.0859C37.1702 59.0873 37.1275 65.3789 34.3753 71.3417C34.334 71.432 34.337 71.5189 34.41 71.5933C35.3011 72.5103 36.2519 73.2342 37.3672 73.9036C38.0709 74.3262 39.7247 74.7778 40.2263 75.3596C40.7374 75.9512 40.2196 77.0191 40.6924 77.6519C41.7598 79.0797 45.9031 78.9329 47.4588 78.8247C49.2121 78.7026 50.9846 78.3758 52.6495 77.8464C52.7424 77.8167 52.8125 77.7416 52.8125 77.6458C52.8118 77.0287 52.6222 76.1146 52.797 75.523C53.1378 74.371 52.752 74.9894 54.3593 74.3896C56.0736 73.7498 57.6602 72.6006 59.0544 71.4762C59.2712 71.3004 58.9555 71.0073 58.7401 71.1811Z" fill="#231F20"/>
<path d="M49.222 64.2006C50.788 63.9097 52.1046 62.9376 53.2612 61.909C54.2334 61.0445 55.2558 60.2234 56.1461 59.2823C56.5046 58.9038 56.6971 58.6191 56.8196 58.1138C57.0778 57.0541 57.3854 56.0055 57.7136 54.9631C57.8781 54.4419 58.047 53.9214 58.2174 53.4023C58.2558 53.2865 58.4667 52.8832 58.1968 52.8963C58.05 52.9032 57.7586 53.3016 57.6531 53.3982C56.9066 54.0793 56.1528 54.7542 55.3812 55.4113C54.8442 55.8683 54.2357 56.5164 53.5541 56.788C53.4523 56.8535 50.1064 58.3482 47.3653 58.5777C46.2604 58.717 45.1104 58.6756 44.0452 58.3364C43.7531 58.2434 43.4677 58.1303 43.166 58.069C42.9071 58.0166 42.6415 58.0035 42.3782 57.978C41.1205 57.858 39.8946 57.4526 38.8353 56.8073C38.2644 56.4599 37.7444 56.0448 37.2538 55.6036C36.8002 55.1955 36.3997 54.7191 35.8973 54.3689C35.2799 53.938 34.8492 53.1141 34.4287 52.5129C35.0432 53.8035 35.7624 55.2713 36.1002 56.6467C38.1383 58.8004 40.3379 60.7156 42.6614 62.2296C44.6014 63.4926 46.9058 64.6308 49.222 64.2006Z" fill="#231F20"/>
</svg>
