<svg width="92" height="107" viewBox="0 0 92 107" fill="none" xmlns="http://www.w3.org/2000/svg">
<path opacity="0.3" d="M61.6695 46.6905C61.0884 47.9054 60.5073 49.121 59.9254 50.3359C59.8878 50.4145 60.013 50.4831 60.0506 50.4038C60.6317 49.1889 61.2136 47.9733 61.7947 46.7584C61.8323 46.6798 61.7071 46.6112 61.6695 46.6905Z" fill="#EFA841"/>
<path d="M60.8939 14.4766C64.3473 19.4881 64.9494 25.1964 64.6367 31.017C64.3205 36.9107 63.586 42.8865 60.7709 48.2548C58.3307 52.9081 54.517 57.1213 49.5533 59.5847C45.9625 61.3668 43.4123 60.5524 40.2181 58.5842C37.4493 56.8781 35.1119 54.6196 33.2202 52.0937C29.5896 47.2448 27.9787 41.6823 27.3476 35.8685C26.7694 30.5379 26.341 24.9579 28.0163 19.7522C30.251 12.8075 35.8753 8.57009 43.5874 7.86385C50.4529 7.23423 56.7466 9.17351 60.8939 14.4766C61.0575 14.6856 61.436 14.4834 61.2702 14.2724C55.8319 7.31957 44.6317 5.11956 36.3689 9.17956C25.8967 14.3254 25.8815 26.3744 26.9113 35.8685C27.9287 45.2518 32.1043 54.8273 41.339 59.6943C42.4079 60.2574 44.5492 61.4662 45.8417 61.4461C47.9157 61.4131 50.8617 59.4423 52.4307 58.3766C56.3225 55.7317 59.3402 52.0541 61.3708 48.0129C64.0433 42.6963 64.7634 36.818 65.0724 31.017C65.3857 25.1393 64.7525 19.3268 61.2702 14.2724C61.1197 14.0533 60.742 14.2562 60.8939 14.4766Z" fill="#231F20"/>
<path d="M0.177246 106.668C0.952293 101.494 1.72735 96.3203 2.5024 91.1462C3.01548 87.7192 3.57921 84.1652 5.62574 81.2744C7.96029 77.9764 11.9151 75.9921 15.875 74.5588C19.0715 73.4017 22.3345 72.2661 25.5606 71.2205C26.3617 70.9611 27.1512 70.6224 27.9342 70.2643L64.0126 70.3718C64.7182 70.6896 65.4295 70.9866 66.1503 71.2205C69.3764 72.2661 72.6387 73.4017 75.8359 74.5588C79.7958 75.9921 83.7506 77.9764 86.0852 81.2744C88.1317 84.1658 88.6947 87.7198 89.2085 91.1462C89.9836 96.3203 90.7586 101.494 91.5337 106.668" fill="#EB485E"/>
<path d="M55.8185 63.0837C55.8185 63.0837 61.9168 64.4041 62.0558 68.4863C62.0529 68.618 60.5954 77.0841 46.104 79.155C46.5483 79.155 57.4431 83.8292 57.4431 83.8292C57.4431 83.8292 73.3421 67.7559 55.8185 63.0837Z" stroke="#231F20" stroke-width="0.6027" stroke-miterlimit="10"/>
<path d="M55.8185 63.0837C55.8185 63.0837 61.9168 64.4041 62.0558 68.4863C62.0529 68.618 60.5954 77.0841 46.104 79.155C46.5483 79.155 57.4431 83.8292 57.4431 83.8292C57.4431 83.8292 73.3421 67.7559 55.8185 63.0837Z" fill="white" stroke="#231F20" stroke-width="0.6027" stroke-miterlimit="10"/>
<path d="M55.8186 63.0837C55.8186 63.0837 66.9254 65.0942 59.0693 73.5589C58.808 73.2895 55.3583 68.5999 55.8186 63.0837Z" fill="#111111"/>
<path d="M36.0724 63.0837C36.0724 63.0837 29.4574 64.2409 29.9169 68.5461C30.0588 69.8759 31.0278 71.4779 32.8818 73.4763C33.1438 73.2068 36.5334 68.5999 36.0724 63.0837Z" fill="#111111"/>
<path d="M52.2348 30.8134C53.1524 30.8134 53.8963 30.1227 53.8963 29.2706C53.8963 28.4185 53.1524 27.7278 52.2348 27.7278C51.3172 27.7278 50.5732 28.4185 50.5732 29.2706C50.5732 30.1227 51.3172 30.8134 52.2348 30.8134Z" fill="#231F20"/>
<path d="M33.9834 53.6453C36.6023 59.5202 37.208 68.0991 32.7908 73.4661C32.62 73.6731 32.9992 73.8753 33.1671 73.6704C37.643 68.2329 37.0532 59.4812 34.4038 53.5377C34.2982 53.2999 33.8763 53.404 33.9834 53.6453Z" fill="#231F20"/>
<path d="M91.7086 106.624C90.9662 101.666 90.228 96.7066 89.4805 91.7482C88.8849 87.7991 88.319 83.6525 85.6255 80.3914C80.617 74.327 71.121 73.2357 64.1044 70.2267C63.893 70.1359 63.7085 70.4269 63.9205 70.5183C71.1304 73.6107 81.2676 74.6865 85.928 81.3597C88.3501 84.8284 88.7257 89.1417 89.3234 93.1318C90.0015 97.6595 90.6796 102.186 91.3576 106.714C91.3902 106.928 91.7405 106.836 91.7086 106.624Z" fill="#231F20"/>
<path d="M27.8429 70.1191C20.7481 73.2148 11.1856 74.2691 6.08518 80.3914C3.5234 83.4663 2.90322 87.3623 2.32718 91.1018C1.53115 96.2732 0.777091 101.45 0.00204393 106.624C-0.0297974 106.836 0.320453 106.928 0.352294 106.713C0.998528 102.401 1.64403 98.0902 2.29027 93.7782C2.91769 89.5892 3.24045 85.0064 5.78269 81.359C10.4793 74.6212 20.7742 73.5743 28.026 70.4101C28.2381 70.318 28.0535 70.027 27.8429 70.1191Z" fill="#231F20"/>
<path d="M50.8872 18.7941L51.0015 20.8805C51.0015 20.8805 58.3084 21.5693 58.3084 21.451C58.3084 21.3327 58.3084 19.4654 58.3084 19.4654L50.8872 18.7941Z" fill="#231F20"/>
<path d="M40.2878 47.4014C44.48 47.9491 49.1194 47.7273 52.6878 45.4352C52.9172 45.2881 52.6994 44.9366 52.4678 45.0858C49.0116 47.306 44.4721 47.5425 40.4043 47.011C40.1293 46.9754 40.0106 47.3658 40.2878 47.4014Z" fill="#231F20"/>
<path d="M44.0701 49.7607C44.8372 49.7534 45.5637 49.5706 46.2295 49.2171C46.4734 49.0875 46.2534 48.7374 46.0095 48.8677C45.4081 49.1869 44.7634 49.3495 44.0708 49.3562C43.79 49.3589 43.7893 49.7634 44.0701 49.7607Z" fill="#231F20"/>
<path d="M26.7453 28.2364C25.2473 26.9321 22.8165 26.2548 21.1246 27.7405C19.3907 29.2631 19.8451 32.3044 20.393 34.188C21.0124 36.3187 22.1587 39.4736 24.5613 40.4157C26.0737 41.009 27.6217 40.5628 27.8612 38.9629C27.8995 38.7082 27.4791 38.598 27.4407 38.8554C25.3276 40.1046 23.8535 40.0226 23.0177 38.6095C22.6559 38.2157 22.362 37.7816 22.137 37.3079C21.5899 36.3497 21.1195 35.1455 20.8141 34.0804C20.4147 32.6895 20.1773 31.1803 20.537 29.7564C21.1991 27.135 24.3051 26.6674 26.4377 28.5233C26.6411 28.7007 26.9508 28.4151 26.7453 28.2364Z" fill="#231F20"/>
<path d="M26.8473 32.9516C25.7351 31.9981 23.1603 30.7334 22.1594 32.455C22.0263 32.6841 22.4026 32.8891 22.5357 32.6593C23.3672 31.2287 25.6511 32.4765 26.5383 33.2378C26.7453 33.4146 27.0543 33.129 26.8473 32.9516Z" fill="#231F20"/>
<path d="M24.9782 32.004C23.905 32.8184 23.6713 34.155 24.3862 35.2523C24.5317 35.4747 24.9087 35.2718 24.7625 35.048C24.1409 34.0945 24.3602 32.9932 25.2858 32.291C25.5036 32.1257 25.1939 31.8407 24.9782 32.004Z" fill="#231F20"/>
<path d="M65.2382 28.5227C67.2283 26.7911 70.4927 27.2333 71.139 29.7558C71.4957 31.1488 71.2352 32.7131 70.8618 34.0799C70.5636 35.1718 70.094 36.3202 69.5389 37.3073C69.405 37.5398 69.2719 37.773 69.138 38.0055C68.2501 39.846 66.6153 40.1289 64.2345 38.8555C64.1961 38.5981 63.7756 38.7077 63.814 38.963C64.0506 40.5462 65.5747 41.0064 67.0879 40.4259C69.4897 39.5046 70.6816 36.3054 71.2822 34.1881C71.8235 32.281 72.2708 29.3183 70.573 27.7567C68.9115 26.2287 66.417 26.943 64.9299 28.2365C64.7244 28.4152 65.0334 28.7008 65.2382 28.5227Z" fill="#231F20"/>
<path d="M65.1363 33.2379C66.0207 32.48 68.3067 31.2274 69.1389 32.6594C69.2721 32.8885 69.6491 32.6842 69.5153 32.4551C68.5151 30.7342 65.9382 31.9995 64.8273 32.9517C64.6211 33.1291 64.9301 33.4147 65.1363 33.2379Z" fill="#231F20"/>
<path d="M66.3886 32.2904C67.3149 32.9933 67.5327 34.0953 66.9118 35.0474C66.7664 35.2712 67.1434 35.4748 67.2888 35.2517C68.0038 34.1544 67.7701 32.8179 66.6969 32.0035C66.4812 31.8408 66.1708 32.1258 66.3886 32.2904Z" fill="#231F20"/>
<path d="M38.8724 18.7941L38.758 20.8805C38.758 20.8805 31.4512 21.5693 31.4512 21.451C31.4512 21.3327 31.4512 19.4654 31.4512 19.4654L38.8724 18.7941Z" fill="#231F20"/>
<path d="M35.7417 29.2706C35.7417 30.1227 36.4856 30.8134 37.4032 30.8134C38.3209 30.8134 39.0648 30.1227 39.0648 29.2706C39.0648 28.4186 38.3209 27.7278 37.4032 27.7278C36.4856 27.7278 35.7417 28.4186 35.7417 29.2706Z" fill="#231F20"/>
<path d="M18.7216 106.596C18.7216 102.715 18.7216 98.8327 18.7216 94.9514C18.7216 94.7781 18.4307 94.7774 18.4307 94.9514C18.4307 98.8327 18.4307 102.715 18.4307 106.596C18.4307 106.77 18.7216 106.77 18.7216 106.596Z" fill="#231F20"/>
<path d="M71.6659 106.596C71.6659 102.715 71.6659 98.8327 71.6659 94.9514C71.6659 94.7781 71.375 94.7774 71.375 94.9514C71.375 98.8327 71.375 102.715 71.375 106.596C71.3757 106.77 71.6659 106.77 71.6659 106.596Z" fill="#231F20"/>
<path opacity="0.2" d="M58.5238 24.5635V29.4157C58.5238 32.326 55.983 34.6846 52.8496 34.6846C49.7154 34.6846 47.1753 32.3253 47.1753 29.4157V24.8068C47.1753 24.8068 51.8234 22.6235 58.5238 24.5635Z" fill="#231F20"/>
<path opacity="0.2" d="M47.5005 31.1769C47.7277 31.7716 48.0664 32.3165 48.4934 32.7916L57.401 25.0439L57.2606 24.9928C56.5709 24.7422 55.8335 24.6212 55.0932 24.6367C53.6632 25.8462 50.105 28.9218 47.5005 31.1769Z" fill="#EEEEEF"/>
<path opacity="0.2" d="M51.9794 34.6227L58.4208 29.0199L58.5236 28.1611V27.0081C57.4504 27.8937 51.0387 33.4555 50.2803 34.1134C50.8057 34.3613 51.3766 34.5367 51.9794 34.6227Z" fill="#EEEEEF"/>
<path d="M46.1196 24.4882C46.1196 24.4882 51.6904 21.248 60.1855 24.4882C60.0517 24.7005 60.1855 26.0787 60.1855 26.0787C60.1855 26.0787 53.9996 22.5791 46.1196 26.0787V24.4882Z" fill="#231F20"/>
<path d="M47.1748 24.806V29.415C47.1748 32.3252 49.7156 34.6838 52.8491 34.6838C55.9833 34.6838 58.5233 32.3246 58.5233 29.415V24.5627" stroke="#231F20" stroke-width="0.6027" stroke-miterlimit="10"/>
<path d="M58.5239 26.5417L66.0616 27.3622L65.084 28.3796L58.5239 27.9878V26.5417Z" fill="#231F20"/>
<path opacity="0.2" d="M29.3813 24.5635V29.4157C29.3813 32.326 31.9221 34.6846 35.0556 34.6846C38.1898 34.6846 40.7299 32.3253 40.7299 29.4157V24.8068C40.7299 24.8068 36.0811 22.6235 29.3813 24.5635Z" fill="#231F20"/>
<path opacity="0.2" d="M29.6504 31.1769C29.8776 31.7716 30.2163 32.3165 30.6433 32.7916L39.5509 25.0439L39.4105 24.9928C38.7201 24.7422 37.9834 24.6212 37.2431 24.6367C35.8124 25.8462 32.2541 28.9218 29.6504 31.1769Z" fill="#EEEEEF"/>
<path opacity="0.2" d="M34.1281 34.6227L40.5702 29.0199L40.673 28.1611V27.0081C39.5998 27.8937 33.1881 33.4555 32.4297 34.1134C32.9543 34.3613 33.5253 34.5367 34.1281 34.6227Z" fill="#EEEEEF"/>
<path d="M41.7856 24.4882C41.7856 24.4882 36.2149 21.248 27.7197 24.4882C27.8536 24.7005 27.7197 26.0787 27.7197 26.0787C27.7197 26.0787 33.9056 22.5791 41.7856 26.0787V24.4882Z" fill="#231F20"/>
<path d="M40.7304 24.806V29.415C40.7304 32.3252 38.1896 34.6838 35.0561 34.6838C31.9219 34.6838 29.3818 32.3246 29.3818 29.415V24.5627" stroke="#231F20" stroke-width="0.6027" stroke-miterlimit="10"/>
<path d="M29.3811 26.5417L26.6297 27.1989L26.5972 28.2243L29.3811 27.9878V26.5417Z" fill="#231F20"/>
<path d="M43.9792 27.8158C42.5174 29.745 41.6418 31.4121 41.4485 33.7633C41.3349 35.1456 40.7162 37.8112 41.8632 38.9831C43.4943 40.6503 47.0526 38.5598 45.2152 37.6332C44.9685 37.5089 44.7485 37.8583 44.9952 37.9833C43.5313 39.7304 42.4588 39.5624 41.7778 37.4793C41.772 36.9834 41.7742 36.4881 41.7843 35.9922C41.7995 35.2504 41.8154 34.5032 41.8849 33.7633C42.0962 31.521 42.9791 29.8384 44.3562 28.0201C44.5176 27.8071 44.1399 27.6041 43.9792 27.8158Z" fill="#231F20"/>
<path d="M41.6134 38.4422C41.1865 38.5403 40.7913 38.3138 40.7913 37.8865C40.7913 37.6257 40.355 37.6251 40.355 37.8865C40.355 38.588 41.028 38.9945 41.7292 38.8326C42.002 38.7701 41.8863 38.379 41.6134 38.4422Z" fill="#231F20"/>
<path d="M40.7305 29.2706C40.7305 29.2706 43.2286 26.4128 47.1747 29.2706C47.1747 29.2034 47.1747 28.0006 47.1747 28.0006C47.1747 28.0006 44.0803 26.1675 40.7305 28.0006C40.7305 27.9657 40.7305 29.2706 40.7305 29.2706Z" fill="#231F20"/>
<path d="M36.0725 63.0837C36.0725 63.0837 29.9742 64.4041 29.8352 68.4863C29.8381 68.618 31.0314 76.5666 46.104 79.2229C45.6596 79.2229 34.4479 83.8299 34.4479 83.8299C34.4479 83.8299 18.5496 67.7559 36.0725 63.0837Z" stroke="#231F20" stroke-width="0.6027" stroke-miterlimit="10"/>
<path d="M36.0725 63.0837C36.0725 63.0837 29.9742 64.4041 29.8352 68.4863C29.8381 68.618 31.0314 76.5666 46.104 79.2229C45.6596 79.2229 34.4479 83.8299 34.4479 83.8299C34.4479 83.8299 18.5496 67.7559 36.0725 63.0837Z" fill="white" stroke="#231F20" stroke-width="0.6027" stroke-miterlimit="10"/>
<path d="M46.1045 79.1556V106.668" stroke="#231F20" stroke-width="0.8037" stroke-miterlimit="10"/>
<path d="M46.1725 92.4182C47.3475 92.4182 48.3001 91.5337 48.3001 90.4426C48.3001 89.3515 47.3475 88.467 46.1725 88.467C44.9975 88.467 44.0449 89.3515 44.0449 90.4426C44.0449 91.5337 44.9975 92.4182 46.1725 92.4182Z" fill="#111111"/>
<path d="M46.1725 105.311C47.3475 105.311 48.3001 104.427 48.3001 103.336C48.3001 102.244 47.3475 101.36 46.1725 101.36C44.9975 101.36 44.0449 102.244 44.0449 103.336C44.0449 104.427 44.9975 105.311 46.1725 105.311Z" fill="#111111"/>
<path d="M71.19 17.1739C71.0988 15.5458 70.7203 13.9405 70.1486 12.401C69.3381 10.2178 68.3308 8.15688 66.4984 6.60734C64.7284 5.11021 62.7187 3.87984 60.5651 2.91088C56.2839 0.985034 51.4918 0.0617579 46.7474 0.00128133C44.7088 -0.0242532 42.7368 0.33726 40.7272 0.602685C38.5403 0.891628 36.3874 1.50446 34.4885 2.56817C31.6734 4.14594 29.4612 6.80758 29.0472 9.83611C29.0407 9.88517 29.0364 9.93489 29.0313 9.98394C28.723 10.0599 28.4625 10.1459 28.2961 10.2366C26.7952 11.0544 25.8103 12.5327 25.3428 14.089C24.8753 15.6452 24.8731 17.2882 24.9629 18.9015C25.1264 21.8373 25.6004 24.7557 26.3429 27.6135C26.4247 30.2013 26.594 32.7843 26.9949 35.3444C27.0774 35.8713 27.1693 36.3967 27.2721 36.9222C27.3213 34.2586 27.4197 31.5895 27.8337 28.9541C27.9827 28.0073 28.1716 27.0659 28.3243 26.1198C28.4821 25.1434 28.4726 24.1502 28.6188 23.1793C28.8656 21.5403 28.7216 19.7805 28.6724 18.0945C29.4843 16.4133 30.5134 14.8227 31.7501 13.3821C35.4083 15.5612 39.8581 16.3736 44.1531 16.6572C49.2991 16.9965 54.7287 18.5226 59.3074 20.8166C60.5376 21.4328 61.7215 22.1579 62.7332 23.0482C62.7071 25.0298 63.1862 26.9893 63.4945 28.9541C63.9084 31.5902 64.0069 34.2592 64.0561 36.9222C64.1588 36.3974 64.2515 35.8713 64.3332 35.3444C64.7204 32.8703 64.8905 30.3753 64.9758 27.8749C64.9918 27.9341 65.0222 27.9858 65.0801 28.014C65.1394 28.0429 65.2038 28.0375 65.2668 28.016C65.3297 27.9945 65.392 27.9569 65.447 27.9213C65.8059 27.6888 66.2097 27.5147 66.633 27.4113C67.3032 27.2473 68.1245 25.9565 68.5645 25.4391C69.2317 24.6535 69.7687 23.7766 70.179 22.8527C70.9729 21.0659 71.2985 19.1018 71.19 17.1739ZM64.9947 27.3515C64.9968 27.2816 65.0004 27.2117 65.0026 27.1411C65.0106 26.8461 65.0185 26.5512 65.0272 26.2562C65.0612 26.6184 65.0294 27 64.9947 27.3515Z" fill="#231F20"/>
<path d="M57.919 52.9989C50.0469 61.8896 45.9806 60.8649 45.9987 60.9072C39.3678 60.2769 34.1936 53.5916 34.1936 53.5916C39.5031 66.5188 32.9785 73.5683 32.9785 73.5683C48.3803 85.7254 59.0182 73.5596 59.0182 73.5596C58.7939 73.2827 58.6586 73.067 58.4878 72.7586C56.9275 69.931 56.1192 66.8158 56.0374 63.6273C55.9542 60.3912 56.4998 55.9589 57.919 52.9989Z" fill="white" stroke="#231F20" stroke-width="0.75" stroke-miterlimit="10"/>
<path d="M34.5908 54.1083C34.5908 54.1083 44.081 74.8411 56.3855 58.4015C56.3652 58.5339 57.0006 53.685 58.8286 51.8062C58.8431 51.7861 55.2247 56.8936 51.4631 58.7577C51.4805 58.7476 46.8107 61.5631 45.7845 61.2513C45.7845 61.2513 37.7496 58.9982 34.5908 54.1083Z" fill="#231F20"/>
</svg>
