<svg width="1026" height="536" viewBox="0 0 1026 536" fill="none" xmlns="http://www.w3.org/2000/svg">
<rect width="1026" height="535" rx="38" fill="#5A5AC2"/>
<path d="M523 356.5C509.827 420.349 513.926 535.26 513.926 535.26H667.347L691.759 366.619L658.222 301.405C658.222 301.405 633.708 293.662 629.951 289.602C626.193 285.542 583.958 293.477 583.958 293.477L523 308V356.5Z" fill="#2C2C2E"/>
<path d="M549.079 369.832H582.238C582.238 369.832 578.377 393.207 576.395 398.976C574.412 404.746 569.251 412.288 557.757 412.288C546.263 412.288 543.874 403.35 544.951 394.411C546.03 385.474 549.079 369.832 549.079 369.832Z" stroke="#CC8A4A" stroke-width="1.5" stroke-miterlimit="10"/>
<path d="M580.121 379.173H547.549" stroke="#CC8A4A" stroke-width="1.5" stroke-miterlimit="10"/>
<path d="M648.65 297.75C645.573 314.69 632.594 323.165 619.439 325.507" stroke="#CC8A4A" stroke-width="1.5" stroke-miterlimit="10"/>
<path d="M608.651 326.983C598.69 327.989 587.78 324.999 581.58 316.865C576.11 309.691 575.674 303.655 576.837 294.809" stroke="#CC8A4A" stroke-width="1.5" stroke-miterlimit="10"/>
<path d="M525.205 471.597C525.205 471.597 541.637 371.461 541.637 356.035" stroke="black" stroke-width="1.5" stroke-miterlimit="10"/>
<path d="M500.409 374.981C500.409 374.981 520.742 419.037 520.742 433.992" stroke="black" stroke-width="1.5" stroke-miterlimit="10"/>
<path d="M623.766 246.485L639.582 262.324L635.052 275.008L638.969 298.473C638.969 298.473 628.449 318.289 606.858 318.289C585.266 318.289 584.164 298.801 584.164 298.801L586.896 268.092" fill="#DA8C76"/>
<path d="M571.81 251.651C572.258 239.776 575.568 227.265 578.503 218.616C580.987 211.294 585.496 200.579 591.345 196.613C598.876 191.503 608.295 195.634 616.504 198.156C629.984 202.297 634.462 220.293 634.127 235.056C633.869 246.397 632.043 257.399 626.022 266.483C616.234 281.254 596.031 291.742 581.515 280.29C573.63 274.069 571.376 263.159 571.81 251.651Z" fill="#DA8C76"/>
<path d="M596.991 235.97C596.134 237.67 596.326 239.681 597.419 240.462C598.511 241.242 600.091 240.495 600.947 238.795C601.804 237.095 601.612 235.084 600.52 234.305C599.426 233.523 597.846 234.268 596.991 235.97Z" fill="black"/>
<path d="M576.513 229.711C575.656 231.411 575.848 233.422 576.941 234.202C578.033 234.981 579.613 234.235 580.469 232.535C581.326 230.835 581.134 228.824 580.042 228.044C578.949 227.265 577.369 228.011 576.513 229.711Z" fill="black"/>
<path d="M586.896 229.332C586.896 229.332 583.654 237.815 581.957 240.491C580.703 242.465 578.338 245.46 580.515 247.767C581.875 249.207 585.758 250.575 585.758 250.575" stroke="black" stroke-miterlimit="10"/>
<path d="M581.37 263.303L592.178 258.7C592.178 258.7 595.207 271.083 591.02 273.112C584.255 276.393 581.37 263.303 581.37 263.303Z" fill="white"/>
<path d="M635.052 275.008C635.052 275.008 630.901 252.69 632.51 240.507C624.42 239.903 616.648 234.777 611.926 226.932C609.836 223.462 608.336 219.535 606.317 216.005C601.728 207.983 593.637 203.686 585.484 203.686C583.515 206.903 580.985 211.576 579.65 215.577C572.549 209.369 534.37 216.005 571.418 186.722C571.816 181.025 590.369 166.179 606.317 179.2C622.266 192.222 612.077 186.379 616.87 186.722C625.368 187.328 627.421 186.708 635.052 191.2C642.776 195.747 640.987 192.56 648.87 196.7C659.71 202.394 656.159 205.884 659.48 219.202C661.827 228.617 661.411 238.973 658.319 248.079C655.913 255.162 651.9 261.453 646.854 266.165C645.925 267.033 635.052 275.008 635.052 275.008Z" fill="#21212D"/>
<path d="M619.375 246.995C620.681 240.889 628.576 238.008 632.769 241.232C642.848 248.988 634.55 271.415 623.89 270.828C620.874 270.662 616.99 268.155 616.73 263.971" fill="#DA8C76"/>
<path d="M631.521 251.915L620.072 259.487" stroke="black" stroke-miterlimit="10"/>
<path d="M625.711 240.778C623.086 241.787 620.723 243.806 619.028 246.485" stroke="black" stroke-miterlimit="10"/>
<path d="M635.275 262.324C632.877 266.946 628.943 271.452 624.185 271.084C620.883 270.827 617.565 268.158 617.032 263.869" stroke="black" stroke-miterlimit="10"/>
<path d="M608.283 282.055C607.87 282.188 597.279 289.305 584.166 282.659" stroke="black" stroke-miterlimit="10"/>
<path d="M585.657 203.134C583.429 202.738 581.184 202.104 579.258 200.711C577.331 199.319 575.747 197.068 575.387 194.419" stroke="black" stroke-miterlimit="10"/>
<path d="M599.016 221.775C601.612 221.901 606.068 225.124 606.908 225.909C607.719 226.67 609.48 229.676 606.811 229.333C605.257 229.132 605.249 229.442 603.905 228.697C602.234 227.771 600.311 227.481 598.596 226.667C597.659 226.222 597.152 224.861 597.134 223.826C597.11 222.251 597.886 221.721 599.016 221.775Z" fill="#21212D"/>
<path d="M585.2 218.004C583.372 216.837 579.251 217.552 578.416 217.847C577.296 218.244 576.353 219.305 576.198 220.783C576.096 221.762 577.193 222.304 577.812 222.15C580.148 221.57 581.573 222.454 583.892 222.629C584.682 222.689 585.477 221.709 585.827 220.783C586.359 219.374 585.996 218.512 585.2 218.004Z" fill="#21212D"/>
<path d="M575.389 464.53C567.759 463.311 560.201 461.446 552.791 458.958C546.678 456.906 539.78 454.037 535.248 448.506C533.761 446.692 532.551 444.587 531.366 442.48C530.883 441.622 530.259 440.664 529.391 440.669C528.778 440.672 528.25 441.175 527.835 441.71C526.207 443.809 526.145 446.64 526.646 449.433C527.167 452.34 528.202 454.952 529.68 457.347C531.158 459.742 532.541 462.516 532.323 465.478C532.248 466.49 524.392 465.505 523.739 465.402C520.421 464.884 517.177 463.819 514 462.592C508.105 460.315 502.297 457.476 496.149 456.548C494.711 456.332 492.829 456.552 492.427 458.21C491.973 460.081 493.866 461.434 494.737 463.083C493.456 463.441 492.154 462.779 490.873 462.423C489.592 462.064 487.99 462.163 487.296 463.494C486.418 465.177 487.662 467.267 488.872 468.627C487.117 469.765 487.468 472.977 488.613 474.928C489.757 476.878 492.329 479.556 492.329 479.556C492.329 479.556 488.9 478.794 489.648 481.945C489.707 482.189 489.842 482.396 489.981 482.59C498.451 494.438 506.62 503.691 518.572 509.981C524.446 513.073 530.69 514.987 539.401 517.254C548.381 519.59 558.399 521.231 567.464 523.045" fill="#A85C47"/>
<path d="M529.815 465.641C535.261 465.41 539.846 465.396 545.081 465.41" stroke="black" stroke-miterlimit="10"/>
<path d="M494.736 463.083C498.059 466.826 502.312 469.23 506.488 471.572C508.323 472.601 510.159 473.631 512.032 474.568C516.737 476.924 521.654 478.69 526.647 480.042" stroke="black" stroke-miterlimit="10"/>
<path d="M488.289 467.901C498.372 478.193 509.63 486.236 521.507 491.635" stroke="black" stroke-miterlimit="10"/>
<path d="M491.091 478.083C499.674 487.025 509.296 494.696 519.818 500.006" stroke="black" stroke-miterlimit="10"/>
<path d="M651.916 299.508C675.68 306.937 688.184 306.937 704.162 335.806C714.6 354.666 715.507 378.923 715.356 401.522C715.187 426.66 713.699 451.902 709.56 476.472C705.964 497.812 700.741 535.259 667.332 535.259C644.418 535.259 558.344 535.259 558.344 535.259L571.536 463.515L640.53 459.849C640.53 459.849 654.111 382.385 659.105 369.874" fill="#2C2C2E"/>
<path d="M637.701 460C637.701 460 660.523 458.408 668.787 463.517" stroke="black" stroke-width="1.5" stroke-miterlimit="10"/>
<path d="M585.404 535.26L596.82 460.961" stroke="#CC8A4A" stroke-width="1.5" stroke-miterlimit="10"/>
<path d="M659.105 369.876C654.111 382.385 640.529 459.851 640.529 459.851L571.536 463.516" stroke="black" stroke-width="1.5" stroke-miterlimit="10"/>
<path d="M569.857 260.024C569.52 257.637 570.965 255.357 573.268 254.643L581.991 251.938C583.563 251.45 585.212 251.257 586.854 251.366L596.373 252.001C598.059 252.113 599.37 253.514 599.37 255.204C599.37 256.891 598.063 258.291 596.38 258.407L587.032 259.051C585.609 259.149 584.226 259.568 582.987 260.276L577.162 263.605C574.146 265.328 570.342 263.464 569.857 260.024Z" fill="#21212D"/>
<path d="M593.802 258.461C592.933 257.119 593.183 255.342 594.388 254.292C596.237 252.682 599.135 253.652 599.641 256.051L600.562 260.413C600.959 262.297 599.076 263.851 597.302 263.104C596.862 262.918 596.487 262.604 596.227 262.203L593.802 258.461Z" fill="#21212D"/>
<path d="M513.572 385.206C513.572 385.206 521.753 415.418 523.862 420.805C525.972 426.193 574.366 535.209 574.366 535.209H472.54C472.54 535.209 431.954 471.064 422.461 446.166C412.966 421.268 411.911 366.192 411.911 366.192" fill="#CC8A4A"/>
<path d="M365.496 363.124L354.974 401.07C354.974 401.07 345.386 449.047 350.2 479.578C355.014 510.11 357.584 535.21 357.584 535.21H458.57L446.249 450.702L450.392 381.758" fill="#CC8A4A"/>
<path d="M381.723 363.124L371.201 401.07C371.201 401.07 361.612 449.047 366.425 479.578C371.239 510.11 373.809 535.21 373.809 535.21" stroke="#EAB773" stroke-width="1.5" stroke-miterlimit="10"/>
<path d="M454.213 505.321C453.943 503.47 449.198 456.134 449.198 456.134" stroke="black" stroke-width="1.5" stroke-miterlimit="10"/>
<path d="M451.705 396.179L449.197 432.515C449.197 432.515 457.061 432.302 459.439 429.865C461.817 427.428 467.16 396.179 467.16 396.179" stroke="#EAB773" stroke-width="1.5" stroke-miterlimit="10"/>
<path d="M483.405 396.179C483.405 396.179 498.652 423.776 509.88 428.02C521.108 432.265 529.24 433.212 529.24 433.212" stroke="#EAB773" stroke-width="1.5" stroke-miterlimit="10"/>
<path d="M362.21 449.167L390.902 433.94C390.902 433.94 403.71 422.779 418.312 389.783" stroke="#EAB773" stroke-width="1.5" stroke-miterlimit="10"/>
<path d="M432.345 81.5609L412.099 94.3908L415.059 108.358L406.822 131.557L382.736 139.926C382.736 139.926 428.374 174.251 440.411 176.571C455.959 179.566 478.1 149.409 478.1 149.409L465.246 143.335L472.952 111.618" fill="#F9B7B7"/>
<path d="M481.999 84.1069C478.229 72.4496 474.133 56.6204 469.842 48.1286C466.21 40.9378 459.915 30.5481 452.886 27.3252C443.836 23.173 433.724 28.8453 424.787 32.6756C410.112 38.9659 407.141 58.2175 409.21 73.4136C410.8 85.086 414.113 96.1752 421.921 104.656C434.615 118.449 460.567 125.294 475.385 111.068C482.467 104.268 486.172 97.0108 481.999 84.1069Z" fill="#F9B7B7"/>
<path d="M450.68 66.6549C451.499 68.5119 451.111 70.5745 449.811 71.2605C448.513 71.9464 446.795 70.996 445.976 69.1375C445.157 67.2805 445.546 65.218 446.845 64.532C448.145 63.846 449.861 64.7964 450.68 66.6549Z" fill="black"/>
<path d="M473.783 59.2722C474.602 61.1292 474.214 63.1917 472.914 63.8777C471.616 64.5637 469.898 63.6133 469.079 61.7548C468.261 59.8978 468.649 57.8352 469.948 57.1492C471.248 56.4633 472.964 57.4152 473.783 59.2722Z" fill="black"/>
<path d="M460.179 59.3447C462.653 64.0817 466.02 68.1705 468.601 72.8349C469.086 73.7113 469.485 74.6859 469.491 75.7103C469.505 78.7021 465.692 80.0801 463.681 81.1182" stroke="black" stroke-miterlimit="10"/>
<path d="M412.74 114.801C412.74 114.801 423.716 103.011 424.752 97.1423C426.898 84.9878 422.764 65.6969 424.909 53.5425C435.881 49.3208 443.314 46.462 454.287 42.2402C458.432 40.6461 462.593 39.043 466.484 36.8626C469.215 35.332 471.844 33.481 473.768 30.9728C475.528 28.6775 476.621 25.9321 477.496 23.1684C478.449 20.1585 479.178 17.0142 478.956 13.8819C478.449 6.72428 472.366 0.524664 465.363 0.0320795C460.694 -0.297318 455.989 1.93594 452.855 5.53665C451.094 7.55836 448.332 8.03432 445.958 7.00684C445.638 6.86783 445.309 6.75602 444.974 6.67291C442.604 6.08362 440.075 6.67895 437.775 7.59008C432.679 9.60877 429.176 16.2511 425.499 20.3368C422.93 23.1896 420.389 19.3079 414.57 21.3734C396.651 27.7332 387.817 42.5228 385.331 59.5261C382.631 77.9995 391.033 97.8268 404.281 109.307C406.861 111.542 412.74 114.801 412.74 114.801Z" fill="#DC4F35"/>
<path d="M436.265 113.296C441.349 118.261 456.86 123.523 470.819 115.106" stroke="black" stroke-miterlimit="10"/>
<path d="M434.458 62.0252C435.361 59.4731 436.329 56.8561 438.081 54.9024C440.658 52.0285 443.754 52.2022 446.964 53.4473" stroke="black" stroke-miterlimit="10"/>
<path d="M463.375 48.2857C463.629 46.8639 464.216 45.3605 465.105 44.2695C467.498 41.3397 470.563 43.7769 472.471 46.0298" stroke="black" stroke-miterlimit="10"/>
<path d="M458.015 66.3467C459.691 72.3786 456.58 78.755 451.067 80.5893C445.554 82.4237 439.726 79.0194 438.05 72.9875C436.373 66.9556 439.485 60.5792 444.998 58.7449C450.512 56.912 456.338 60.3148 458.015 66.3467Z" stroke="#A84F4F" stroke-width="1.5" stroke-miterlimit="10"/>
<path d="M480.796 58.7691C482.472 64.8009 480.533 70.7875 476.466 72.1399C472.399 73.4922 467.744 69.6996 466.067 63.6677C464.391 57.6358 466.33 51.6492 470.397 50.2969C474.464 48.9446 479.121 52.7372 480.796 58.7691Z" stroke="#A84F4F" stroke-width="1.5" stroke-miterlimit="10"/>
<path d="M465.497 60.3148L456.541 63.2944" stroke="#A84F4F" stroke-width="1.5" stroke-miterlimit="10"/>
<path d="M437.722 71.3269L419.218 86.8645" stroke="#A84F4F" stroke-width="1.5" stroke-miterlimit="10"/>
<path d="M431.912 84.5678C429.988 79.1463 421.821 77.5507 417.97 81.0623C408.707 89.5042 419.264 108.955 429.834 107.006C432.825 106.455 436.443 103.641 436.278 99.7744" fill="#F9B7B7"/>
<path d="M420.301 90.6843L432.488 96.1057" stroke="black" stroke-miterlimit="10"/>
<path d="M424.962 79.7099C427.682 80.2871 430.244 81.8238 432.207 84.054" stroke="black" stroke-miterlimit="10"/>
<path d="M417.615 100.72C420.478 104.638 424.858 108.247 429.566 107.277C432.833 106.604 435.87 103.718 435.966 99.717" stroke="black" stroke-miterlimit="10"/>
<path d="M457.686 84.7627C458.154 87.6079 459.209 93.3436 464.442 91.2947C466.062 90.6601 467.433 89.3063 468.157 87.9509" stroke="black" stroke-miterlimit="10"/>
<path d="M395.85 133.941C395.85 133.941 425.427 173.532 447.288 172.452C461.805 171.734 472.844 146.925 472.844 146.925C472.844 146.925 500.427 151.02 509.518 156.314C518.609 161.609 505.068 239.047 508.519 265.479C511.97 291.911 521.019 401.07 521.019 401.07H352.906C352.906 401.07 331.934 269.255 335.989 219.825C340.044 170.394 353.27 146.973 362.775 141.028C372.279 135.082 395.85 133.941 395.85 133.941Z" fill="#4C4139"/>
<path d="M382.736 137.917C394.2 155.403 414.473 176.726 432.179 186.095C441.699 191.132 457.451 190.162 466.539 184.408C477.908 177.213 488.702 150.338 488.702 150.338" stroke="#635245" stroke-width="1.5" stroke-miterlimit="10"/>
<path d="M506.898 155.168C515.66 158.743 523.952 164.424 529.394 172.743C535.068 181.415 537.23 192.199 538.839 202.717C542.198 224.666 543.706 246.951 543.374 269.202C543.051 290.908 542.069 316.595 537.803 337.904C532.717 363.316 517.764 379.013 493.527 379.529C470.546 380.02 447.291 370.554 426.101 361.73C414.212 356.778 402.429 351.432 390.902 345.536L415.366 279.668L480.032 292.334C480.032 292.334 492.069 224.335 503.512 203.034" fill="#4C4139"/>
<path d="M499.152 213.433C509.987 203.843 523.832 198.122 537.861 199.1" stroke="#635245" stroke-width="1.5" stroke-miterlimit="10"/>
<path d="M415.366 279.666L480.032 292.333C480.032 292.333 492.069 224.333 503.512 203.033" stroke="black" stroke-width="1.5" stroke-miterlimit="10"/>
<path d="M518.284 371.855C511.567 376.643 503.303 379.321 493.528 379.529C470.547 380.02 447.292 370.554 426.102 361.73C414.213 356.778 402.431 351.432 390.903 345.536" stroke="black" stroke-width="1.5" stroke-miterlimit="10"/>
<path d="M478.596 292.053C490.72 294.317 502.535 298.411 513.572 304.177" stroke="black" stroke-width="1.5" stroke-miterlimit="10"/>
<path d="M419.927 153.53C425.984 144.958 431.511 135.919 438.097 127.805C442.745 122.077 448.114 117.033 454.083 113.017C459.966 109.058 466.933 105.347 473.878 104.649C478.427 104.193 482.113 107.369 485.331 110.454C487.224 112.271 489.119 114.085 491.013 115.901C491.379 116.252 491.767 116.645 491.854 117.169C492.036 118.271 490.851 119.01 489.858 119.279C488.327 119.694 487.455 119.115 485.879 119.029C487.133 119.824 488.078 121.432 488.528 122.565C489.197 124.248 489.035 124.93 488.223 126.589C489.81 126.98 491.025 128.313 491.438 130.041C491.843 131.735 491.506 133.554 490.863 135.158C490.695 135.579 490.5 136.023 490.561 136.478C490.634 137.034 491.057 137.438 491.406 137.853C498.364 146.138 486.905 156.281 480.554 159.45C480.108 159.672 479.637 159.891 479.15 159.855C478.274 159.788 477.603 158.889 477.422 157.949C477.241 157.01 477.436 156.037 477.631 155.1C468.418 165.659 468.571 178.381 456.421 184.408" fill="#F9B7B7"/>
<path d="M419.927 153.53C425.984 144.958 431.511 135.919 438.097 127.805C442.745 122.077 448.114 117.033 454.083 113.017C459.966 109.058 466.933 105.347 473.878 104.649C478.427 104.193 479.726 105.853 479.726 105.853" stroke="black" stroke-miterlimit="10"/>
<path d="M486.627 119.333C482.812 116.893 481.366 115.64 476.983 114.786C472.589 113.931 466.819 115.543 463.096 118.002" stroke="black" stroke-miterlimit="10"/>
<path d="M488.223 126.59C488.223 126.59 483.457 124.839 477.039 125.664C473.265 126.149 468.28 128.444 468.28 128.444" stroke="black" stroke-miterlimit="10"/>
<path d="M490.561 136.48C487.444 135.807 484.215 135.685 481.086 136.336C478.143 136.95 475.51 138.495 472.844 139.926" stroke="black" stroke-miterlimit="10"/>
<path d="M477.629 155.1L487.461 145.579" stroke="black" stroke-miterlimit="10"/>
<path d="M370.554 137.917C358.037 141.058 327.229 152.347 317.966 189.464C309.32 224.105 313.513 259.25 318.856 287.353C324.199 315.456 340.354 370.036 363.94 375.69C396.828 383.574 412.697 371.927 439.686 296.195C466.675 220.462 474.86 180.634 474.86 180.634L416.808 149.409C416.808 149.409 357.5 246.887 351.491 280.337" fill="#4C4139"/>
<path d="M399.103 179.599L464.204 214.873" stroke="#635245" stroke-width="1.5" stroke-miterlimit="10"/>
<path d="M416.808 149.409C416.808 149.409 357.499 246.887 351.491 280.337" stroke="black" stroke-width="1.5" stroke-miterlimit="10"/>
<path d="M346.622 362.023C351.816 369.131 357.61 374.171 363.939 375.69C396.827 383.574 412.696 371.928 439.685 296.195C466.674 220.462 474.859 180.634 474.859 180.634" stroke="black" stroke-width="1.5" stroke-miterlimit="10"/>
<path d="M326.106 170.803C335.616 170.119 345.134 173.286 353.486 178.493C361.839 183.698 369.116 190.874 375.81 198.569" stroke="#635245" stroke-width="1.5" stroke-miterlimit="10"/>
<path d="M373.399 189.428C375.82 198.093 378.673 215.963 378.673 215.963" stroke="black" stroke-width="1.5" stroke-miterlimit="10"/>
<path d="M253.284 350.916C267.62 414.765 290.238 534.56 290.238 534.56H123.265L96.6963 365.919L133.196 300.704C133.196 300.704 159.876 292.962 163.965 288.902C168.054 284.842 214.021 292.776 214.021 292.776L245.758 305.861L253.284 350.916Z" fill="#FFE689"/>
<path d="M322.568 332.61C328.907 308.74 338.172 292.323 347.177 281.295C355.981 270.515 364.659 260.164 375.754 252.38C378.199 250.665 380.687 249.028 383.211 247.455C386.254 245.557 389.33 243.643 392.683 242.534C393.516 242.259 394.569 242.102 395.122 242.836C395.412 243.221 395.47 243.752 395.475 244.25C395.532 248.879 392.252 252.642 389.197 255.846C386.358 258.822 383.52 261.801 380.681 264.777C377.884 267.712 374.995 270.794 373.688 274.786C375.719 272.873 378.83 272.474 381.208 273.822C383.588 275.17 385.085 278.18 384.829 281.098C386.782 279.875 389.375 280.004 391.219 281.413C393.064 282.823 394.065 285.443 393.688 287.87C394.694 287.281 397.19 287.991 398.062 288.796C402.343 292.755 399.124 299.43 397.143 303.908C395.8 306.945 392.878 311.144 390.854 310.279C387.177 316.459 385.126 324.249 381.299 328.907C375.434 336.045 370.936 340.264 367.424 349.321" fill="#A85C47"/>
<path d="M345.077 291.909C349.905 285.629 357.456 282.878 364.608 280.409C367.468 279.422 370.328 278.434 373.187 277.447C373.945 277.186 374.821 276.936 375.495 277.4C376.033 277.77 376.269 278.493 376.38 279.179C377.012 283.08 374.707 286.889 371.897 289.387C369.087 291.886 365.712 293.544 362.926 296.076C362.317 296.629 361.726 297.243 361.381 298.022C360.69 299.58 361.116 301.422 361.484 303.107C363.936 314.281 363.299 326.243 359.679 337.03" fill="#A85C47"/>
<path d="M345.077 291.909C349.905 285.629 357.456 282.878 364.608 280.409C367.468 279.422 370.328 278.434 373.187 277.447C373.945 277.186 374.821 276.936 375.495 277.4C376.033 277.77 376.269 278.493 376.38 279.179C377.012 283.08 374.707 286.889 371.897 289.387C369.087 291.886 365.712 293.544 362.926 296.076C362.317 296.629 361.726 297.243 361.381 298.022C360.69 299.58 361.116 301.422 361.484 303.107C363.936 314.281 363.299 326.243 359.679 337.03" stroke="black" stroke-miterlimit="10"/>
<path d="M384.576 281.17C384.172 282.71 383.767 284.25 383.362 285.789C382.766 288.057 382.168 290.333 381.312 292.5C380.36 294.907 378.925 297.324 376.673 298.219C374.958 298.9 372.944 298.544 371.479 297.354C370.014 296.165 369.121 294.195 369.087 292.199" stroke="black" stroke-miterlimit="10"/>
<path d="M393.688 287.87C392.959 291.205 391.896 295.043 390.466 298.093C389.774 299.569 388.993 301.022 387.916 302.19C386.838 303.358 385.431 304.229 383.918 304.334C382.295 304.445 378.36 303.805 376.673 298.22" stroke="black" stroke-miterlimit="10"/>
<path d="M385.028 304.26C385.678 305.65 386.539 306.923 387.561 308.013C388.502 309.018 389.765 309.973 391.177 309.965" stroke="black" stroke-miterlimit="10"/>
<path d="M203.88 291.566C216.652 293.036 229.48 294.518 241.904 298.071C259.014 302.963 271.435 310.669 280.562 327.654C285.753 337.317 304.951 374.279 304.951 374.279L324.369 320.436L384.462 342.899C384.462 342.899 359.232 443.327 353.938 459.261C348.641 475.196 336.284 499.338 316.867 497.889C297.449 496.44 287.74 486.783 274.943 465.537C262.145 444.291 227.541 381.52 227.541 381.52" fill="#FFE689"/>
<path d="M251.98 369.131H215.892C215.892 369.131 220.094 392.506 222.252 398.275C224.41 404.046 230.027 411.587 242.536 411.587C255.045 411.587 257.645 402.65 256.473 393.711C255.299 384.773 251.98 369.131 251.98 369.131Z" stroke="#CC8A4A" stroke-width="1.5" stroke-miterlimit="10"/>
<path d="M218.197 378.472H253.646" stroke="#CC8A4A" stroke-width="1.5" stroke-miterlimit="10"/>
<path d="M143.613 297.049C146.962 313.989 161.089 322.464 175.405 324.806" stroke="#CC8A4A" stroke-width="1.5" stroke-miterlimit="10"/>
<path d="M187.146 326.282C197.987 327.289 209.861 324.298 216.609 316.165C222.562 308.991 223.036 302.954 221.771 294.109" stroke="#CC8A4A" stroke-width="1.5" stroke-miterlimit="10"/>
<path d="M277.964 470.897C277.964 470.897 260.08 370.76 260.08 355.334" stroke="black" stroke-width="1.5" stroke-miterlimit="10"/>
<path d="M304.95 374.281C304.95 374.281 282.821 418.337 282.821 433.291" stroke="black" stroke-width="1.5" stroke-miterlimit="10"/>
<path d="M317.136 340.492L378.375 366.967" stroke="#CC8A4A" stroke-width="1.5" stroke-miterlimit="10"/>
<path d="M170.696 245.784L153.483 261.624L158.413 274.307L154.15 297.773C154.15 297.773 165.598 317.588 189.098 317.588C212.597 317.588 213.796 298.101 213.796 298.101L210.822 267.391" fill="#A85C47"/>
<path d="M227.241 250.95C226.753 239.075 223.152 226.564 219.957 217.915C217.253 210.593 212.347 199.878 205.98 195.912C197.784 190.802 187.533 194.933 178.599 197.455C163.929 201.596 159.055 219.592 159.42 234.355C159.7 245.696 161.687 256.698 168.24 265.782C178.893 280.554 200.88 291.041 216.679 279.59C225.26 273.369 227.713 262.458 227.241 250.95Z" fill="#A85C47"/>
<path d="M199.836 235.269C200.768 236.969 200.56 238.98 199.371 239.761C198.182 240.541 196.462 239.794 195.53 238.095C194.598 236.395 194.806 234.384 195.995 233.604C197.186 232.823 198.905 233.568 199.836 235.269Z" fill="black"/>
<path d="M222.123 229.011C223.055 230.71 222.847 232.721 221.658 233.501C220.469 234.281 218.749 233.534 217.817 231.835C216.885 230.135 217.093 228.124 218.283 227.344C219.472 226.564 221.191 227.311 222.123 229.011Z" fill="black"/>
<path d="M210.822 228.631C210.822 228.631 214.351 237.114 216.199 239.79C217.563 241.765 220.137 244.76 217.767 247.067C216.287 248.507 212.061 249.874 212.061 249.874" stroke="black" stroke-miterlimit="10"/>
<path d="M215.359 257.055L203.595 252.452C203.595 252.452 200.299 264.835 204.856 266.864C212.218 270.144 215.359 257.055 215.359 257.055Z" fill="white"/>
<path d="M158.413 274.307C158.413 274.307 162.93 251.99 161.179 239.807C169.984 239.202 178.443 234.077 183.582 226.232C185.856 222.761 187.489 218.834 189.686 215.304C194.681 207.282 203.486 202.985 212.359 202.985C214.503 206.202 217.256 210.876 218.709 214.877C226.437 208.668 228.46 196.476 227.668 186.021C227.235 180.325 225.273 174.686 221.72 170.494C218.166 166.303 212.963 163.687 207.747 164.03C198.498 164.636 191.773 173.601 183.467 178.093C175.061 182.64 165.098 182.51 156.52 186.65C144.722 192.343 135.441 205.184 131.827 218.502C129.272 227.917 129.725 238.273 133.091 247.378C135.709 254.462 140.076 260.752 145.568 265.465C146.579 266.332 158.413 274.307 158.413 274.307Z" fill="#21212D"/>
<path d="M175.474 246.295C174.053 240.189 165.46 237.307 160.897 240.532C149.928 248.288 158.958 270.714 170.56 270.128C173.843 269.962 178.07 267.455 178.353 263.271" fill="#A85C47"/>
<path d="M162.256 251.215L174.716 258.786" stroke="black" stroke-miterlimit="10"/>
<path d="M168.578 240.077C171.435 241.086 174.007 243.105 175.852 245.784" stroke="black" stroke-miterlimit="10"/>
<path d="M158.17 261.624C160.78 266.246 165.061 270.752 170.24 270.383C173.833 270.126 177.445 267.458 178.025 263.168" stroke="black" stroke-miterlimit="10"/>
<path d="M187.547 281.354C187.996 281.487 199.523 288.604 213.794 281.959" stroke="black" stroke-miterlimit="10"/>
<path d="M212.171 202.434C214.596 202.038 217.039 201.403 219.136 200.01C221.232 198.618 222.957 196.367 223.348 193.718" stroke="black" stroke-miterlimit="10"/>
<path d="M197.632 221.075C194.807 221.2 189.957 224.423 189.043 225.209C188.16 225.969 186.243 228.976 189.149 228.633C190.839 228.432 190.849 228.742 192.311 227.997C194.13 227.07 196.222 226.78 198.09 225.966C199.109 225.522 199.661 224.16 199.68 223.125C199.707 221.551 198.862 221.02 197.632 221.075Z" fill="#21212D"/>
<path d="M212.669 217.303C214.659 216.137 219.143 216.852 220.051 217.146C221.271 217.544 222.297 218.604 222.465 220.082C222.577 221.061 221.383 221.604 220.709 221.449C218.166 220.869 216.615 221.753 214.092 221.928C213.232 221.989 212.367 221.008 211.986 220.082C211.408 218.674 211.803 217.811 212.669 217.303Z" fill="#21212D"/>
<path d="M331.014 492.073L267.318 484.526C265.665 484.33 264.675 482.657 265.107 480.789L286.192 389.719C286.625 387.851 288.315 386.496 289.968 386.692L353.664 394.239C355.317 394.436 356.307 396.109 355.875 397.976L334.791 489.047C334.359 490.914 332.667 492.27 331.014 492.073Z" fill="#19151E"/>
<path d="M335.536 492.61L271.84 485.062C270.187 484.866 269.196 483.193 269.629 481.326L290.714 390.255C291.146 388.387 292.836 387.032 294.49 387.228L358.186 394.776C359.839 394.972 360.829 396.645 360.397 398.513L339.311 489.583C338.881 491.449 337.189 492.805 335.536 492.61Z" fill="#342E3D"/>
<path d="M306.163 414.411L293.818 412.949C292.796 412.828 292.185 411.793 292.451 410.638L295.487 397.526C295.754 396.371 296.8 395.533 297.822 395.654L310.167 397.116C311.189 397.237 311.8 398.272 311.534 399.427L308.498 412.539C308.23 413.695 307.185 414.534 306.163 414.411Z" stroke="#554C63" stroke-miterlimit="10"/>
<path d="M303.493 402.699C303.128 404.28 301.697 405.428 300.296 405.262C298.897 405.096 298.059 403.68 298.425 402.1C298.791 400.519 300.222 399.371 301.622 399.537C303.021 399.703 303.859 401.119 303.493 402.699Z" fill="#19151E"/>
<path opacity="0.35" d="M323.165 434.418C322.604 436.585 319.72 437.836 316.725 437.212C313.73 436.59 311.756 434.328 312.318 432.161C312.879 429.994 315.763 428.743 318.758 429.367C321.753 429.991 323.725 432.252 323.165 434.418Z" fill="#554C63"/>
<path d="M223.347 463.83C231.651 462.61 239.876 460.746 247.941 458.257C254.594 456.205 262.101 453.336 267.034 447.806C268.652 445.991 269.968 443.886 271.258 441.78C271.784 440.922 272.464 439.964 273.409 439.968C274.076 439.971 274.65 440.474 275.102 441.009C276.874 443.108 276.941 445.94 276.396 448.732C275.828 451.639 274.703 454.252 273.094 456.647C271.485 459.042 269.98 461.816 270.217 464.777C270.299 465.79 278.848 464.804 279.56 464.702C283.171 464.183 286.701 463.118 290.159 461.891C296.575 459.614 302.896 456.775 309.587 455.847C311.151 455.631 313.199 455.852 313.637 457.509C314.132 459.38 312.071 460.734 311.124 462.382C312.517 462.74 313.934 462.079 315.329 461.722C316.722 461.364 318.467 461.462 319.222 462.793C320.178 464.477 318.823 466.566 317.507 467.926C319.417 469.064 319.034 472.276 317.788 474.227C316.543 476.178 313.744 478.855 313.744 478.855C313.744 478.855 317.476 478.094 316.662 481.244C316.598 481.489 316.45 481.696 316.3 481.889C307.082 493.737 298.191 502.99 285.183 509.281C278.79 512.372 271.994 514.287 262.514 516.553C252.74 518.889 241.837 520.53 231.972 522.345" fill="#A85C47"/>
<path d="M272.947 464.94C267.02 464.709 262.03 464.696 256.332 464.709" stroke="black" stroke-miterlimit="10"/>
<path d="M311.125 462.382C307.508 466.125 302.879 468.529 298.334 470.871C296.337 471.9 294.339 472.931 292.3 473.867C287.18 476.223 281.828 477.989 276.394 479.342" stroke="black" stroke-miterlimit="10"/>
<path d="M318.141 467.201C307.167 477.492 294.915 485.535 281.989 490.934" stroke="black" stroke-miterlimit="10"/>
<path d="M315.091 477.382C305.75 486.324 295.278 493.995 283.827 499.305" stroke="black" stroke-miterlimit="10"/>
<path d="M140.06 298.808C114.196 306.236 100.588 306.236 83.1984 335.105C71.8382 353.965 70.8508 378.223 71.0152 400.821C71.1988 425.96 72.8188 451.201 77.3236 475.771C81.2374 497.111 86.9216 534.558 123.282 534.558C148.22 534.558 241.898 534.558 241.898 534.558L227.54 462.814L152.452 459.149C152.452 459.149 137.671 381.685 132.235 369.173" fill="#FFE689"/>
<path d="M155.53 459.3C155.53 459.3 130.693 457.707 121.698 462.816" stroke="black" stroke-width="1.5" stroke-miterlimit="10"/>
<path d="M212.447 534.56L200.022 460.261" stroke="#CC8A4A" stroke-width="1.5" stroke-miterlimit="10"/>
<path d="M132.235 369.175C137.671 381.685 152.452 459.15 152.452 459.15L227.54 462.816" stroke="black" stroke-width="1.5" stroke-miterlimit="10"/>
<path d="M794.717 330.521C791.932 327.904 789.182 325.455 788.523 321.457C787.164 313.222 790.544 304.889 796.33 299.319C808.371 287.727 824.113 280.276 840.501 278.413C847.708 277.594 854.987 277.825 862.222 278.304C877.257 279.301 892.563 281.471 906.003 288.482C919.441 295.492 930.856 308.099 933.309 323.398C934.629 331.633 934.857 341.467 930.191 348.689C927.621 352.668 923.667 355.543 919.409 357.444C910.328 361.5 899.776 362.388 889.988 362.326" fill="#A2BDFF"/>
<path d="M850.085 279.23L868.826 292.837L865.239 306.049L865.039 328.378L887.703 337.951C887.703 337.951 842.077 367.968 830.403 369.423C815.326 371.303 794.355 330.811 794.355 330.811L802.089 325.852L809.513 305.473" fill="#F9B7B7"/>
<path d="M798.516 277.181C802.116 265.967 806.023 250.739 810.13 242.564C813.608 235.643 819.637 225.64 826.387 222.524C835.078 218.509 844.811 223.938 853.41 227.6C867.529 233.61 870.424 252.111 868.465 266.724C866.961 277.949 863.797 288.617 856.31 296.79C844.135 310.079 819.201 316.723 804.927 303.081C798.107 296.563 794.53 289.594 798.516 277.181Z" fill="#F9B7B7"/>
<path d="M857.604 265.708C850.19 268.366 843.334 273.401 837.966 280.128C837.511 280.697 837.024 281.308 836.386 281.477C835.908 281.604 835.419 281.461 834.952 281.315C824.129 277.97 801.087 268.804 801.087 268.804C801.087 268.804 798.655 276.207 797.962 278.896C796.439 284.8 792.928 294.599 794.28 300.573C796.243 309.24 809.522 314.618 817.702 315.886C827.532 317.409 833.067 317.25 841.334 311.804C849.504 306.422 866.786 291.509 866.786 291.509" fill="#4C4139"/>
<path d="M827.919 264.457C827.136 266.245 827.513 268.226 828.763 268.882C830.013 269.537 831.661 268.62 832.444 266.831C833.228 265.044 832.851 263.063 831.601 262.407C830.352 261.753 828.703 262.67 827.919 264.457Z" fill="black"/>
<path d="M807.255 255.21C806.471 256.998 806.849 258.978 808.099 259.634C809.349 260.29 810.997 259.373 811.781 257.585C812.565 255.798 812.187 253.817 810.937 253.161C809.687 252.505 808.039 253.422 807.255 255.21Z" fill="black"/>
<path d="M819.437 253.32C817.922 256.011 816.272 258.611 814.494 261.103C812.946 263.274 810.789 265.347 809.974 268.013C808.848 271.7 813.667 273.176 815.916 274.255" stroke="black" stroke-miterlimit="10"/>
<path d="M865.157 306.519C865.157 306.519 854.581 295.212 853.574 289.573C852.276 282.305 853.944 274.85 853.93 267.54C853.924 264.149 853.665 260.35 852.271 257.285C850.704 253.841 847.913 250.923 845.172 248.599C840.892 244.97 835.874 241.817 831 239.266C828.396 237.903 822.886 235.611 819.998 235.537C814.92 236.966 810.78 242.244 807.5 248.738C802.742 238.303 800.76 226.169 803.025 214.776C803.317 213.31 803.674 211.835 804.37 210.543C805.924 207.656 808.991 206.063 812.032 205.661C815.073 205.259 818.14 205.881 821.151 206.492C822.062 206.678 823.018 206.86 823.901 206.55C825.357 206.038 826.16 204.389 826.947 202.954C830.228 196.975 836.309 192.378 842.652 193.069C843.759 193.19 844.867 193.471 845.842 194.058C850.345 196.771 850.051 204.194 853.533 208.331C853.785 208.631 854.071 208.922 854.43 209.032C855.269 209.292 856.039 208.511 856.687 207.875C859.287 205.315 863.04 204.203 866.451 205.051C869.862 205.899 872.827 208.712 874.01 212.314C874.599 214.105 874.759 216.022 874.989 217.908C875.985 226.049 878.378 233.985 882.006 241.176C886.246 249.582 888.073 253.971 888.817 263.971C890.466 286.111 865.157 306.519 865.157 306.519Z" fill="#4C4139"/>
<path d="M841.899 260.455C840.854 258.626 839.742 256.75 837.949 255.255C835.313 253.058 832.428 252.898 829.522 253.463" stroke="black" stroke-miterlimit="10"/>
<path d="M817.329 248.034C816.98 247.039 816.313 245.957 815.394 245.13C812.925 242.911 810.248 244.304 808.639 245.674" stroke="black" stroke-miterlimit="10"/>
<path d="M860.994 277.195C859.432 274.688 856.306 273.653 853.649 273.825C850.555 274.026 848.801 275.917 847.175 278.644C845.48 281.485 842.954 284.594 841.877 287.769C840.721 291.176 842.493 294.378 845.346 295.868C853.795 300.278 866.922 286.714 860.994 277.195Z" fill="#F9B7B7"/>
<path d="M856.927 284.664L845.505 286.021" stroke="black" stroke-miterlimit="10"/>
<path d="M811.586 282.648C811.843 285.551 813.275 288.181 814.758 288.984C819.549 291.572 823.051 286.522 821.908 280.868L811.586 282.648Z" fill="white"/>
<path d="M821.127 234.907C818.594 233.743 816.126 232.305 814.121 230.25C812.116 228.196 810.596 225.468 810.279 222.482" stroke="#4C4144" stroke-miterlimit="10"/>
<path d="M676.457 352.967C669.795 330.226 663.128 307.459 658.805 284.132C658.01 279.839 654.234 284.127 653.488 285.978C650.504 293.382 652.921 301.492 651.318 301.892C649.134 293.009 646.59 286.132 645.411 282.653C643.17 276.038 640.275 269.927 637.735 264.957C637.528 264.552 637.262 264.14 636.748 263.98C634.287 263.218 632.954 266.579 632.74 267.661C630.694 277.963 635.697 282.216 636.603 293.341C635.283 288.011 632.881 282.441 630.819 277.332C629.625 274.374 623.754 262.614 620.448 261.895C618.27 261.422 617.517 264.966 617.392 266.403C617.134 269.383 617.741 272.147 618.328 275.145C618.328 275.145 616.594 272.101 616.03 270.296C615.701 269.243 614.67 267.988 613.323 267.8C611.645 267.564 610.104 270.181 609.787 271.441C608.509 276.533 613.899 291.945 613.899 291.945C613.899 291.945 607.305 282.363 604.689 283.535C602.074 284.708 603.004 288.361 604.1 291.717C605.195 295.073 607.859 298.606 609.495 301.874C613.542 309.956 614.436 317.634 616.948 326.348C618.458 331.583 620.179 336.755 622.33 341.721C624.399 346.494 627.396 350.75 629.108 355.67C630.397 359.367 629.492 363.307 630.712 366.963" fill="#F9B7B7"/>
<path d="M652.159 299.976C652.342 302.959 651.222 306.007 650.345 309.003C647.992 317.052 647.343 325.358 648.452 333.245" stroke="black" stroke-miterlimit="10"/>
<path d="M632.867 279.427C635.709 287.633 638.223 295.977 640.399 304.434" stroke="black" stroke-miterlimit="10"/>
<path d="M617.681 274.767C622.223 284.732 626.149 296.172 628.364 306.606" stroke="black" stroke-miterlimit="10"/>
<path d="M611.448 287.563C615.686 294.667 618.929 302.342 621.083 310.378" stroke="black" stroke-miterlimit="10"/>
<path d="M797.94 312.489C800.687 315.083 800.518 320.577 802.101 323.818C808.343 336.598 824.508 337.049 835.778 331.86C846.272 327.029 853.483 316.8 864.395 312.8C873.306 309.535 882.912 308.779 892.111 311.186C905.116 314.588 915.702 343.85 915.702 343.85C915.702 343.85 931.128 355.99 942.622 381.204C954.116 406.42 976.606 535.361 976.606 535.361H788.223C788.223 535.361 780.117 455.237 775.276 438.739C770.437 422.24 759.627 384.007 759.627 373.734C759.627 363.461 765.429 338.179 765.429 338.179L788.415 321.655L797.94 312.489Z" fill="#A2BDFF"/>
<path d="M788.415 321.655C788.415 321.655 779.793 325.452 770.114 327.942C760.435 330.432 743.108 339.826 734.941 354.145C726.774 368.465 708.811 392.294 708.811 392.294C708.811 392.294 695.493 359.686 686.972 349.415C684.272 346.158 676.456 341.573 676.456 341.573L671.908 331.598L622.48 351.09L625.943 362.95C625.943 362.95 619.892 370.945 624.43 383.086C628.967 395.226 651.339 460.78 657.39 473.291C663.438 485.8 668.375 513.589 705.531 513.589C742.687 513.589 788.222 420.363 788.222 420.363" fill="#A2BDFF"/>
<path d="M799.472 310.839C800.518 318.229 802.87 326.277 808.617 331.264C815.479 337.222 825.522 336.085 833.349 332.715C841.764 329.092 848.366 322.535 856.125 317.847C863.858 313.175 872.241 309.542 881.049 307.697C892.807 305.235 905.388 306.078 916.267 311.285" stroke="black" stroke-width="1.5" stroke-miterlimit="10"/>
<path d="M880.799 330.693C896.477 332.836 912.422 339.799 925.474 353.807" stroke="black" stroke-width="1.5" stroke-miterlimit="10"/>
<path d="M788.814 321.561C790.321 324.627 792.176 327.513 794.327 330.14" stroke="black" stroke-width="1.5" stroke-miterlimit="10"/>
<path d="M845.356 346.503C847.265 346.503 848.812 344.81 848.812 342.721C848.812 340.632 847.265 338.939 845.356 338.939C843.447 338.939 841.899 340.632 841.899 342.721C841.899 344.81 843.447 346.503 845.356 346.503Z" stroke="black" stroke-width="1.5" stroke-miterlimit="10"/>
<path d="M803.105 341.044C805.014 341.044 806.562 339.35 806.562 337.262C806.562 335.173 805.014 333.48 803.105 333.48C801.196 333.48 799.648 335.173 799.648 337.262C799.648 339.35 801.196 341.044 803.105 341.044Z" stroke="black" stroke-width="1.5" stroke-miterlimit="10"/>
<path d="M803.105 337.262C803.217 361.173 803.328 385.083 803.44 408.995" stroke="#7984D1" stroke-width="1.5" stroke-miterlimit="10" stroke-linejoin="round"/>
<path d="M845.194 341.199C848.345 370.07 849.969 399.117 850.056 428.171" stroke="#7984D1" stroke-width="1.5" stroke-miterlimit="10" stroke-linejoin="round"/>
<path d="M777.426 450.814C777.426 450.814 766.829 390.029 763.016 379.032" stroke="black" stroke-width="1.5" stroke-miterlimit="10"/>
<path d="M708.812 392.294C708.812 392.294 733.21 433.639 734.942 448.429" stroke="black" stroke-width="1.5" stroke-miterlimit="10"/>
<path d="M676.457 341.571L625.944 362.949" stroke="black" stroke-width="1.5" stroke-miterlimit="10"/>
<path d="M780.694 445.061C763.908 437.879 746.286 430.566 728.377 432.79C719.205 433.929 708.233 437.214 700.404 442.702C693.843 447.301 690.646 453.876 690.528 462.281C690.484 465.427 690.215 468.569 690.162 471.718C690.093 475.832 689.139 479.774 693.771 479.714C693.325 482.101 692.908 484.727 693.99 486.858C695.073 488.987 698.35 489.75 699.429 487.618C698.941 489.304 700.413 491.055 702.007 491.358C703.601 491.66 705.195 490.962 706.686 490.277C705.617 491.141 705.937 493.142 706.997 494.023C708.056 494.902 709.503 494.934 710.825 494.777C717.785 493.947 722.746 488.343 730.013 488.272C737.578 488.198 744.572 492.264 751.649 495.194C762.292 499.6 774.05 501.696 785.427 500.974" fill="#F9B7B7"/>
<path d="M693.634 479.256C694.404 471.912 696.28 464.619 699.834 458.335C703.391 452.05 708.718 446.825 715.111 444.437" stroke="black" stroke-miterlimit="10"/>
<path d="M699.473 488.496C702.072 481.494 704.666 474.149 708.581 468.123C712.067 462.757 716.64 458.498 721.779 455.925" stroke="black" stroke-miterlimit="10"/>
<path d="M706.049 490.912C711.006 485.522 713.189 480.651 719.143 476.648C721.598 474.998 726.684 473.618 730.046 473.082" stroke="black" stroke-miterlimit="10"/>
<path d="M884 356.962C877 368.698 863.876 415.096 858.73 429.585C857.645 432.642 856.797 436.879 854.973 439.542C854.973 439.542 826.26 441.531 809.633 438.832C800.459 437.342 780.405 434.082 772.978 440.16L760.607 436.74L743.617 496.614L756.406 501.326C756.406 501.326 757.648 508.463 766.369 514.461C775.09 520.458 848.011 531.978 873.734 533.662C899.456 535.346 910.744 527.491 921.305 493.213C932.813 455.858 939.208 431.578 939.208 431.578" fill="#A2BDFF"/>
<path d="M748.1 497.764L756.406 501.326C756.406 501.326 757.648 508.464 766.369 514.461C775.09 520.458 848.011 531.978 873.734 533.662C899.456 535.346 910.745 527.492 921.305 493.213C932.813 455.858 939.209 431.578 939.209 431.578" stroke="black" stroke-width="1.5" stroke-miterlimit="10"/>
<path d="M884 356.962C876.999 368.698 863.876 415.096 858.73 429.585C857.645 432.642 856.797 436.879 854.972 439.542C854.972 439.542 826.043 439.731 809.633 438.832C800.369 438.325 780.405 434.082 772.978 440.16L759.628 436.817" stroke="black" stroke-width="1.5" stroke-miterlimit="10"/>
<path d="M772.978 440.16L756.732 502.522" stroke="black" stroke-width="1.5" stroke-miterlimit="10"/>
<path d="M852.39 439.843C858.417 439.624 864.339 440.298 871.181 441.236C877.994 442.17 886.83 444.254 892.537 448.429" stroke="black" stroke-width="1.5" stroke-miterlimit="10"/>
<path d="M630.215 429.511H748.887C751.956 429.511 754.701 431.827 755.769 435.316L784.071 527.844H843.304C846.224 527.844 848.591 530.714 848.591 534.256H656.45L626.429 436.109C625.452 432.912 627.402 429.511 630.215 429.511Z" fill="#B7C8EA"/>
<path d="M650.121 534.256H779.704L749.441 435.316C748.373 431.827 745.628 429.511 742.559 429.511H623.887C621.073 429.511 619.123 432.912 620.101 436.109L650.121 534.256Z" fill="#EBEEF7"/>
<path d="M701.763 485.779H685.643C684.422 485.779 683.338 484.928 682.946 483.664L680.458 475.646C679.896 473.836 681.127 471.958 682.874 471.958H698.994C700.215 471.958 701.299 472.809 701.691 474.072L704.178 482.091C704.739 483.902 703.51 485.779 701.763 485.779Z" stroke="#B7C8EA" stroke-width="1.5" stroke-miterlimit="10"/>
</svg>
