<svg width="92" height="107" viewBox="0 0 92 107" fill="none" xmlns="http://www.w3.org/2000/svg">
<path d="M1.11279 106.739C1.88038 101.706 2.64797 96.673 3.41556 91.6401C3.9237 88.3066 4.48201 84.8496 6.50885 82.0378C8.82093 78.8298 12.7377 76.8997 16.6595 75.5055C19.8252 74.38 23.0568 73.2753 26.2519 72.2583C27.959 71.7151 29.6132 70.8177 31.263 70.1353C32.9767 69.4268 34.4696 68.8222 36.1968 68.1425H56.5053C58.2333 68.8222 59.7255 69.4268 61.4391 70.1353C63.0889 70.8177 64.7431 71.7151 66.4503 72.2583C69.6453 73.2753 72.8762 74.38 76.0426 75.5055C79.9644 76.8997 83.8812 78.8298 86.1933 82.0378C88.2201 84.8503 88.7777 88.3073 89.2866 91.6401C90.0542 96.673 90.8218 101.706 91.5894 106.739" fill="#0CC7BB"/>
<path d="M34.8685 55.2492C37.5733 60.7913 37.4501 67.2595 34.6506 72.763C34.2758 73.4989 33.8472 74.2271 33.2251 74.8075C33.2251 74.8075 44.2838 86.54 59.5173 74.8075C59.6937 74.6715 59.0988 74.197 58.9726 74.044C58.7505 73.7748 58.5541 73.4878 58.3857 73.1878C56.8405 70.4374 56.0399 67.4072 55.9589 64.3058C55.8765 61.1579 56.5366 57.9892 57.9413 55.11" fill="white"/>
<path d="M34.6602 55.3015C37.3012 61.1488 37.7571 69.4667 33.0727 74.6682C32.9946 74.7545 32.9896 74.8604 33.0727 74.9467C40.4203 82.594 51.8073 80.7561 59.6703 74.9467C59.724 74.9068 59.7505 74.814 59.7254 74.7552C59.4552 74.1179 58.9543 73.6845 58.5715 73.0884C57.3381 71.1661 56.716 68.7628 56.4007 66.583C55.8309 62.6534 56.5039 58.816 58.1494 55.1622C58.2548 54.9276 57.8369 54.8256 57.733 55.0577C56.2358 58.382 55.5019 61.8651 55.8072 65.4653C55.9384 67.0117 56.2509 68.5575 56.7518 70.0386C57.1252 71.1413 58.7041 73.1146 58.7866 74.1434C58.9012 75.5774 55.8975 77.0226 54.6669 77.635C52.7354 78.5958 50.6849 79.29 48.5133 79.6116C45.4279 80.0684 42.3425 79.6952 39.475 78.5645C37.6797 77.8566 35.9983 76.8879 34.5348 75.7016C33.2569 74.6656 33.5242 74.8258 34.4402 73.5898C38.2545 68.4432 37.5241 60.6121 35.0773 55.1962C34.9727 54.9655 34.5548 55.0668 34.6602 55.3015Z" fill="#231F20"/>
<path d="M91.7633 106.696C90.9391 101.293 90.1922 95.8743 89.2871 90.4826C88.5861 86.3073 87.491 82.3378 83.9218 79.4286C80.84 76.916 76.9103 75.6173 73.1061 74.3016C67.4957 72.361 62.0975 70.1805 56.5961 68.0013C56.3854 67.9183 56.2019 68.2007 56.414 68.285C60.5595 69.9262 64.5529 71.7962 68.8037 73.1956C73.4343 74.7205 78.4663 76.0814 82.454 78.7893C87.1506 81.979 88.3281 86.6733 89.1122 91.6846C89.8991 96.7148 90.6474 101.75 91.415 106.783C91.4479 106.991 91.7948 106.902 91.7633 106.696Z" fill="#231F20"/>
<path d="M36.1057 68.0007C30.8007 70.1014 25.6103 72.2329 20.1949 74.0931C16.1986 75.4663 12.0181 76.7873 8.77928 79.4273C5.39142 82.1895 4.19668 85.9367 3.50864 89.9224C2.54683 95.4965 1.79071 101.106 0.938548 106.694C0.907013 106.901 1.2539 106.99 1.28543 106.781C2.05302 101.748 2.79552 96.7122 3.5882 91.6826C4.378 86.6726 5.54408 81.9803 10.2464 78.7874C14.2363 76.0781 19.2661 74.7186 23.8967 73.1937C28.1475 71.7943 32.1409 69.9249 36.2863 68.283C36.4999 68.2007 36.3164 67.9177 36.1057 68.0007Z" fill="#231F20"/>
<path d="M33.2254 74.8074C33.2254 74.8074 35.2179 72.2511 35.4845 70.8478C35.5863 70.755 32.5073 70.8654 30.937 72.1354C30.937 72.1354 33.8798 79.0422 45.9992 80.0213C46.1698 80.02 54.7344 80.8848 62.6547 72.1766C62.6547 72.1766 60.1828 70.2974 57.111 70.7354C57.1956 70.6439 59.5177 74.8074 59.5177 74.8074C59.5177 74.8074 47.4749 86.3432 33.2254 74.8074Z" fill="#231F20"/>
<path opacity="0.3" d="M62.0125 48.3979C61.437 49.5797 60.8607 50.7621 60.2852 51.9438C60.248 52.0203 60.3719 52.0869 60.4099 52.0098C60.9854 50.8281 61.5617 49.6457 62.1372 48.4639C62.1745 48.3875 62.0505 48.3208 62.0125 48.3979Z" fill="#EFA841"/>
<path opacity="0.3" d="M45.6709 40.2996C45.0043 40.416 44.3242 40.416 43.6612 40.2781C43.3982 40.2238 43.1187 40.1571 42.8764 40.0447C42.4278 39.8362 42.4658 39.5068 42.5324 39.1172C42.7223 38.0133 42.9703 36.9178 43.2097 35.8217C43.6842 33.6497 44.1457 31.4679 44.2403 29.2495C44.2439 29.1652 44.0998 29.1652 44.0963 29.2495C43.9859 31.8379 43.3717 34.3706 42.8284 36.9041C42.6951 37.525 42.5668 38.1466 42.4507 38.7702C42.3826 39.1394 42.197 39.648 42.5109 39.965C42.837 40.2944 43.4871 40.3937 43.9393 40.4591C44.5299 40.5447 45.1226 40.5277 45.7088 40.4251C45.7999 40.4101 45.7612 40.2833 45.6709 40.2996Z" fill="#EFA841"/>
<path d="M61.2454 17.0634C64.6655 21.9381 65.2618 27.4906 64.9522 33.1523C64.639 38.8852 63.9115 44.6978 61.1236 49.9196C58.7068 54.4459 54.9298 58.5441 50.0139 60.9403C46.4577 62.6737 43.932 61.8815 40.7685 59.9671C38.0264 58.3075 35.7114 56.1107 33.838 53.6537C30.2423 48.9372 28.6469 43.5265 28.0219 37.8708C27.4493 32.6856 27.025 27.2579 28.6841 22.1943C30.8973 15.4392 36.4675 11.3174 44.1054 10.6305C50.9048 10.0187 57.1372 11.905 61.2454 17.0634C61.4074 17.2667 61.7822 17.07 61.6181 16.8647C56.2321 10.1011 45.1389 7.96175 36.9563 11.9109C26.5849 16.9164 26.5699 28.6364 27.5897 37.8714C28.5974 46.9986 32.7328 56.3127 41.8786 61.0468C42.9372 61.5946 45.0587 62.7704 46.338 62.7508C48.392 62.7188 51.3097 60.8017 52.8635 59.7644C56.718 57.1918 59.7059 53.6145 61.7177 49.6836C64.3645 44.5122 65.0776 38.7943 65.3836 33.1516C65.694 27.4344 65.0669 21.7812 61.6181 16.8647C61.469 16.6523 61.0949 16.849 61.2454 17.0634Z" fill="#231F20"/>
<path d="M51.335 21.2629L51.4482 23.2924C51.4482 23.2924 58.6847 23.9624 58.6847 23.8474C58.6847 23.7323 58.6847 21.9159 58.6847 21.9159L51.335 21.2629Z" fill="#231F20"/>
<path d="M44.2307 28.7469C43.8724 30.6313 43.514 32.5157 43.1557 34.3994C42.8776 35.8609 42.1408 37.7414 42.2383 39.2349C42.3515 40.9755 44.9969 40.4624 46.3895 40.3794C46.6654 40.363 46.6675 39.9689 46.3895 39.9852C44.8442 40.0774 43.3083 40.4643 42.8274 38.4179C42.6418 37.6276 43.2517 36.1857 43.4065 35.3739C43.8201 33.2 44.2336 31.0254 44.6471 28.8515C44.6945 28.6037 44.278 28.4972 44.2307 28.7469Z" fill="#231F20"/>
<path d="M40.8366 49.0895C44.9884 49.6222 49.5832 49.4065 53.1173 47.177C53.3445 47.0339 53.1288 46.6921 52.8994 46.8372C49.4764 48.9967 44.9806 49.2268 40.952 48.7098C40.6796 48.6751 40.5621 49.0549 40.8366 49.0895Z" fill="#231F20"/>
<path d="M44.5837 51.3843C45.3434 51.3771 46.063 51.1993 46.7224 50.8555C46.9639 50.7294 46.746 50.3888 46.5045 50.5156C45.9089 50.8261 45.2703 50.9843 44.5845 50.9908C44.3057 50.9934 44.3049 51.3869 44.5837 51.3843Z" fill="#231F20"/>
<path d="M27.4243 30.4475C25.9407 29.1788 23.5333 28.52 21.8569 29.9652C20.1397 31.4463 20.5898 34.4045 21.1323 36.2366C21.7458 38.3093 22.8811 41.378 25.2606 42.2944C26.7585 42.8715 28.2915 42.4375 28.5287 40.8813C28.5667 40.6335 28.1503 40.5264 28.1123 40.7767C26.0195 41.9918 24.5596 41.912 23.7318 40.5375C23.3735 40.1544 23.0825 39.7322 22.8596 39.2714C22.3178 38.3393 21.8519 37.1681 21.5495 36.1321C21.1538 34.7791 20.9188 33.311 21.275 31.926C21.9308 29.3762 25.0068 28.9213 27.119 30.7266C27.3218 30.8992 27.6278 30.6214 27.4243 30.4475Z" fill="#231F20"/>
<path d="M27.5261 35.034C26.4245 34.1065 23.8745 32.8764 22.8833 34.551C22.7514 34.7739 23.1241 34.9732 23.2567 34.7497C24.0802 33.3581 26.3421 34.5719 27.2208 35.3125C27.4243 35.4844 27.7311 35.2066 27.5261 35.034Z" fill="#231F20"/>
<path d="M25.6741 34.1123C24.6113 34.9045 24.3798 36.2046 25.0879 37.2719C25.2319 37.4883 25.6053 37.2909 25.4613 37.0732C24.8456 36.1457 25.0628 35.0744 25.9794 34.3914C26.1952 34.2306 25.8877 33.9535 25.6741 34.1123Z" fill="#231F20"/>
<path d="M65.5479 30.7261C67.5182 29.0417 70.7519 29.4718 71.3919 31.9255C71.7453 33.2804 71.4873 34.802 71.1174 36.1315C70.8222 37.1936 70.357 38.3107 69.8073 39.2708C69.6747 39.497 69.5428 39.7238 69.4103 39.95C68.5309 41.7402 66.9118 42.0154 64.5546 40.7768C64.5166 40.5265 64.1002 40.633 64.1382 40.8814C64.3726 42.4213 65.8819 42.869 67.3806 42.3043C69.7593 41.4082 70.9397 38.2963 71.5346 36.2367C72.0706 34.3818 72.5136 31.5 70.8322 29.9809C69.1866 28.4946 66.7162 29.1894 65.2433 30.4476C65.0391 30.6215 65.3451 30.8993 65.5479 30.7261Z" fill="#231F20"/>
<path d="M65.4462 35.3125C66.322 34.5752 68.5861 33.3568 69.4103 34.7497C69.5422 34.9726 69.9156 34.7739 69.783 34.551C68.7925 32.8771 66.2403 34.1079 65.1402 35.034C64.9359 35.2066 65.2419 35.4844 65.4462 35.3125Z" fill="#231F20"/>
<path d="M66.6868 34.391C67.6042 35.0747 67.8199 36.1466 67.2057 37.0728C67.0617 37.2904 67.4351 37.4885 67.5784 37.2715C68.2865 36.2041 68.055 34.9041 66.9921 34.1119C66.7793 33.9537 66.4718 34.2308 66.6868 34.391Z" fill="#231F20"/>
<path d="M52.6695 32.9542C53.5783 32.9542 54.315 32.2823 54.315 31.4535C54.315 30.6246 53.5783 29.9528 52.6695 29.9528C51.7607 29.9528 51.0239 30.6246 51.0239 31.4535C51.0239 32.2823 51.7607 32.9542 52.6695 32.9542Z" fill="#231F20"/>
<path d="M39.4357 21.2629L39.3225 23.2924C39.3225 23.2924 32.0859 23.9624 32.0859 23.8474C32.0859 23.7323 32.0859 21.9159 32.0859 21.9159L39.4357 21.2629Z" fill="#231F20"/>
<path d="M37.9805 32.9542C38.8893 32.9542 39.6261 32.2823 39.6261 31.4535C39.6261 30.6246 38.8893 29.9528 37.9805 29.9528C37.0717 29.9528 36.335 30.6246 36.335 31.4535C36.335 32.2823 37.0717 32.9542 37.9805 32.9542Z" fill="#231F20"/>
<path d="M69.3831 18.7046C68.8922 17.2673 67.6007 15.9803 65.9659 15.7732C64.3934 15.5738 64.4751 14.7025 64.2429 13.4103C63.7907 10.8873 62.368 8.55587 60.4537 6.68848C58.5394 4.82109 56.1492 3.3975 53.6164 2.30269C52.4567 1.80202 51.2563 1.36409 50.0013 1.12291C48.1006 0.756878 46.1311 0.849694 44.1967 1.00918C42.0423 1.18631 39.8664 1.45037 37.8632 2.19484C35.8593 2.93932 34.0217 4.21649 33.0685 5.9878C31.6466 8.62973 32.8277 11.3776 34.9183 13.3155L34.9205 13.3168C35.9224 12.6207 37.0104 12.0279 38.1635 11.5704C39.8707 10.8932 41.7528 10.6383 43.5926 10.4331C45.4954 10.2206 47.4276 10.1638 49.3341 10.3756C49.8874 10.437 50.4213 10.5814 50.9646 10.6494C52.4775 10.8383 53.9453 11.2802 55.3056 11.9083C57.7876 13.0547 59.9291 14.8136 61.4915 16.9091C61.6929 17.1791 61.8864 17.4549 62.0706 17.7353C64.65 21.6479 65.3395 26.1468 65.3072 30.66L65.4807 30.7587C67.3226 28.5096 68.642 25.9056 69.3258 23.1682C69.6934 21.7002 69.874 20.1419 69.3831 18.7046Z" fill="#231F20"/>
<path d="M29.0606 12.5822C28.0436 13.4639 27.4351 14.6659 26.9843 15.8784C25.8713 18.872 25.5875 22.1198 26.1673 25.2363C26.5364 27.2207 27.2495 29.1678 27.2681 31.1803C26.8288 27.9416 27.5233 24.7539 28.6722 21.6636C29.677 18.9602 31.3505 16.5144 34.9835 13.4149C35.1089 13.3077 33.1473 11.6057 32.6241 11.4514C31.4566 11.1076 29.8705 11.8802 29.0606 12.5822Z" fill="#231F20"/>
<path d="M19.4781 106.668C19.4781 102.893 19.4781 99.1169 19.4781 95.3416C19.4781 95.1729 19.1899 95.1723 19.1899 95.3416C19.1899 99.1169 19.1899 102.893 19.1899 106.668C19.1907 106.837 19.4781 106.837 19.4781 106.668Z" fill="#231F20"/>
<path d="M71.9136 106.668C71.9136 102.893 71.9136 99.1169 71.9136 95.3416C71.9136 95.1729 71.6255 95.1723 71.6255 95.3416C71.6255 99.1169 71.6255 102.893 71.6255 106.668C71.6255 106.837 71.9136 106.837 71.9136 106.668Z" fill="#231F20"/>
<path d="M34.9419 55.3316C34.9419 55.3316 44.0067 75.7736 56.19 59.7965L56.3957 59.918C56.4014 59.771 56.5146 56.482 58.2498 54.7309C58.2641 54.7113 55.0461 58.3219 51.3207 60.1357C51.3379 60.1259 46.713 62.8646 45.6967 62.5613C45.6967 62.5613 38.0703 60.088 34.9419 55.3316Z" fill="#231F20"/>
<path d="M62.0498 41.9892C62.7307 42.2075 63.4689 42.2748 64.1834 42.1853C64.2952 41.0408 64.4078 39.8963 64.5196 38.7512C65.0184 33.6536 65.5179 28.5331 65.1754 23.4244C64.9947 23.9898 64.7453 24.5657 64.5948 25.133C64.4551 25.6572 64.5382 26.2474 64.5332 26.7906C64.5217 28.0488 64.4637 29.307 64.3576 30.562C64.1476 33.0542 63.752 35.5334 63.1743 37.9766C63.0948 38.3139 62.0806 41.999 62.0498 41.9892Z" fill="#231F20"/>
<path d="M30.5501 41.9892C29.8692 42.2075 29.131 42.2748 28.4164 42.1853C28.3046 41.0408 28.1921 39.8963 28.0803 38.7512C27.5815 33.6536 27.0819 28.5331 27.4245 23.4244C27.6051 23.9898 27.8545 24.5657 28.005 25.133C28.1448 25.6572 28.0617 26.2474 28.0667 26.7906C28.0774 28.0488 28.1362 29.307 28.2423 30.562C28.4523 33.0542 28.8479 35.5334 29.4256 37.9766C29.5051 38.3139 30.5192 41.999 30.5501 41.9892Z" fill="#231F20"/>
</svg>
