<svg width="91" height="103" viewBox="0 0 91 103" fill="none" xmlns="http://www.w3.org/2000/svg">
<path d="M0.175781 101.165C0.942003 96.2963 1.70821 91.4274 2.47444 86.5584C2.98167 83.3335 3.539 79.9891 5.56222 77.2688C7.87019 74.1653 11.78 72.298 15.6948 70.9493C18.8549 69.8604 22.0807 68.7918 25.2701 67.8078C26.9749 67.2824 28.6254 66.4142 30.2724 65.754C31.9829 65.0686 33.4732 64.4837 35.1974 63.826L55.6314 64.5197C57.3563 65.1773 58.8458 65.7622 60.5564 66.4477C62.2033 67.1079 63.8545 67.9754 65.5586 68.5015C68.748 69.4854 71.9732 70.5541 75.1339 71.6423C79.0487 72.9911 82.9585 74.8584 85.2665 77.9618C87.2897 80.6828 87.8463 84.0272 88.3543 87.2514C89.1205 92.1204 89.8867 96.9894 90.6529 101.858" fill="#C8C9CE"/>
<path d="M32.1525 70.274C32.1525 70.274 34.1414 67.8009 34.4075 66.4433C34.5091 66.3535 31.4357 66.4604 29.8682 67.689C29.8682 67.689 32.8057 74.3708 44.9036 75.3181C45.0738 75.3168 53.6239 76.1534 61.5294 67.7288C61.5294 67.7288 59.0619 65.9109 55.9955 66.3345C56.08 66.246 58.3979 70.274 58.3979 70.274C58.3979 70.274 46.3766 81.434 32.1525 70.274Z" fill="#231F20"/>
<path d="M33.5971 51.2692C36.2613 56.9589 36.7829 65.0768 32.0789 70.1393C32.001 70.2228 31.9959 70.3252 32.0789 70.4087C39.4135 77.807 50.7802 76.0288 58.6291 70.4087C58.6828 70.3701 58.7093 70.2803 58.6842 70.2234C58.4145 69.6069 57.9144 69.1876 57.5324 68.6109C56.3011 66.7513 55.6802 64.4262 55.3654 62.3173C54.7973 58.5158 55.4684 54.8033 57.111 51.2686C57.2162 51.0416 56.7991 50.9429 56.6953 51.1674C55.203 54.3784 54.4596 57.7569 54.773 61.236C54.9082 62.7334 55.2144 64.2251 55.7159 65.6611C56.0379 66.583 57.7599 68.793 57.747 69.6322C57.6984 72.7837 49.2735 74.7958 46.6243 75.0475C43.6259 75.332 40.599 74.8261 37.8825 73.6835C36.3207 73.0265 34.4162 72.1065 33.2723 70.9278C32.1927 69.8149 32.7679 70.1285 33.6421 68.7444C36.9746 63.4669 36.5475 56.5802 34.0127 51.168C33.9083 50.9442 33.4905 51.0422 33.5971 51.2692Z" fill="#231F20"/>
<path d="M33.8054 51.218C36.5054 56.5802 36.4489 62.9712 33.6544 68.2954C33.2802 69.0074 32.8517 69.7119 32.2314 70.2734C32.2314 70.2734 43.2705 81.6238 58.4769 70.2734C58.6529 70.1419 58.0591 69.6828 57.9331 69.5348C57.7114 69.2743 57.5153 68.9967 57.3472 68.7065C55.8048 66.0456 55.0056 63.1141 54.9248 60.1137C54.8425 57.0684 55.5014 54.0028 56.9037 51.2174C56.9037 51.2174 53.275 54.7136 52.4823 55.0127C52.3836 55.0727 49.1384 56.4436 46.4799 56.6536C46.3118 56.6738 42.7232 57.1348 41.1242 56.7636C40.9267 56.7174 38.4628 55.6342 35.3736 52.8766C34.9644 52.4884 33.8054 51.218 33.8054 51.218Z" fill="white"/>
<path d="M33.5971 51.2692C36.2613 56.959 36.7829 65.0769 32.0789 70.1393C32.001 70.2228 31.9959 70.3252 32.0789 70.4087C39.4135 77.807 50.7802 76.0289 58.6291 70.4087C58.6828 70.3701 58.7093 70.2803 58.6842 70.2234C58.4145 69.6069 57.9144 69.1877 57.5324 68.611C56.3011 66.7513 55.6802 64.4262 55.3654 62.3174C54.7973 58.5158 55.4684 54.8033 57.111 51.2686C57.1947 51.089 56.8892 50.9505 56.7504 51.0833C53.6619 54.0477 51.1308 55.8783 46.4218 56.4708C44.3421 56.7326 42.155 56.9855 40.2498 56.1331C37.7566 55.0177 35.6897 52.9727 33.9569 51.0827C33.7824 50.8924 33.479 51.163 33.6522 51.3521C35.4865 53.3528 38.1493 56.1211 41.0661 56.9476C43.9743 57.7715 48.699 56.6605 51.3482 55.6677C52.5129 55.2314 53.2048 54.8027 54.132 54.0306C54.8095 53.4666 55.429 52.852 56.0844 52.2696C56.8041 51.6303 57.1318 50.6489 56.2031 52.2234C53.6634 56.529 54.3781 62.908 56.3569 67.2299C56.6603 67.8926 57.7542 69.0625 57.7456 69.6303C57.7248 71.0277 55.3575 72.1444 54.1413 72.7629C51.3282 74.1926 48.181 75.1278 44.913 75.1265C40.8522 75.1253 36.9116 73.6734 33.836 71.366C33.5942 71.1852 32.4216 70.4757 32.4016 70.1564C32.403 70.1798 33.7974 68.4662 33.8396 68.3903C34.3569 67.4506 34.7596 66.4395 35.0852 65.4379C36.6298 60.6821 36.1397 55.7095 34.012 51.1662C33.9083 50.9442 33.4905 51.0422 33.5971 51.2692Z" fill="#231F20"/>
<path d="M90.8269 101.817C90.0042 96.5898 89.2587 91.3477 88.3551 86.1316C87.6554 82.0923 86.5622 78.2527 82.9994 75.4376C79.9231 73.0069 76.0004 71.7505 72.2029 70.4776C66.6025 68.6002 61.214 66.4907 55.7223 64.3825C55.5127 64.3022 55.3296 64.5754 55.5413 64.657C59.6794 66.2448 63.6657 68.0539 67.9089 69.4077C72.5313 70.8823 77.5543 72.1994 81.5349 74.8192C86.2231 77.9043 87.3986 82.4464 88.1813 87.2945C88.9668 92.1609 89.7137 97.0324 90.4799 101.901C90.5121 102.103 90.8584 102.017 90.8269 101.817Z" fill="#231F20"/>
<path d="M35.1066 63.6889C29.811 65.7212 24.6299 67.7833 19.2241 69.5829C15.2349 70.9114 11.0618 72.1893 7.82951 74.7433C4.44769 77.4156 3.25436 81.0407 2.56826 84.8967C1.60816 90.2892 0.853379 95.7159 0.0020206 101.122C-0.0294582 101.322 0.316815 101.409 0.348293 101.207C1.11452 96.3381 1.85569 91.466 2.64695 86.6002C3.43535 81.7534 4.59935 77.2139 9.29327 74.1249C13.2761 71.5039 18.2969 70.1886 22.9193 68.7134C27.1625 67.3596 31.1496 65.5511 35.2869 63.9627C35.5001 63.8824 35.3169 63.6086 35.1066 63.6889Z" fill="#231F20"/>
<path opacity="0.3" d="M60.9669 44.7246C60.3924 45.8678 59.8172 47.0117 59.2427 48.155C59.2055 48.2289 59.3293 48.2934 59.3672 48.2188C59.9417 47.0756 60.5169 45.9317 61.0914 44.7884C61.1286 44.7144 61.0048 44.6499 60.9669 44.7246Z" fill="#EFA841"/>
<path d="M60.2014 14.4106C63.604 19.112 64.2164 24.5133 63.9016 29.9754C63.5997 35.2092 62.9637 40.524 60.5226 45.3569C58.0258 50.2999 53.9958 55.2675 47.6721 56.2944C43.3703 56.9931 40.5773 56.8603 37.1947 54.1697C35.0978 52.5016 33.3078 50.585 31.8419 48.4522C28.5867 43.7141 27.4141 38.4854 26.8754 33.0366C26.3946 28.1701 26.1635 23.0843 28.053 18.4107C30.5777 12.167 36.294 8.6361 43.6629 8.13529C50.262 7.68696 56.2437 9.59471 60.2014 14.4106C60.3631 14.6072 60.7373 14.4169 60.5734 14.2183C55.26 7.75273 44.6566 5.75645 36.4736 9.2052C26.2702 13.5051 25.5841 24.3641 26.4447 33.0359C26.9233 37.8549 27.8512 42.5506 30.3674 46.8979C32.3935 50.3979 36.0407 55.2011 40.3476 56.7319C43.4669 57.8404 49.1338 56.9375 51.974 55.5255C56.0083 53.5203 59.0524 49.1712 60.8947 45.5485C63.453 40.5196 64.0984 34.9146 64.3573 29.4607C64.6128 24.0973 63.903 18.8186 60.5734 14.2183C60.4246 14.0122 60.0512 14.2032 60.2014 14.4106Z" fill="#231F20"/>
<path d="M48.106 20.3386L48.6482 22.2451C48.6482 22.2451 55.8769 21.6412 55.8519 21.5325C55.8276 21.4237 55.4412 19.6993 55.4412 19.6993L48.106 20.3386Z" fill="#231F20"/>
<path d="M39.829 45.3936C43.9735 45.9089 48.56 45.7003 52.0878 43.5434C52.3146 43.4049 52.0993 43.0742 51.8703 43.2146C48.4535 45.3038 43.9656 45.5264 39.9442 45.0262C39.6723 44.9927 39.555 45.3594 39.829 45.3936Z" fill="#231F20"/>
<path d="M43.5692 53.5544C44.3276 53.5475 45.0459 53.3755 45.704 53.0429C45.9451 52.9208 45.7276 52.5914 45.4865 52.7141C44.892 53.0144 44.2546 53.1674 43.5699 53.1738C43.2916 53.1756 43.2909 53.5569 43.5692 53.5544Z" fill="#231F20"/>
<path d="M26.4405 27.3588C24.9596 26.1315 22.5565 25.4941 20.8831 26.8922C19.1689 28.3251 19.6182 31.187 20.1598 32.9594C20.7722 34.9645 21.9054 37.9333 24.2807 38.8199C25.7759 39.3782 27.3069 38.9584 27.543 37.4528C27.5809 37.2131 27.1653 37.1094 27.1273 37.3516C25.0383 38.5271 23.581 38.45 22.7547 37.1202C22.3969 36.7496 22.1065 36.3411 21.884 35.8953C21.3424 34.9936 20.8788 33.8605 20.5762 32.8582C20.1813 31.5493 19.9466 30.1291 20.3022 28.7892C20.9568 26.3225 24.0274 25.8824 26.1358 27.6289C26.3382 27.7958 26.6437 27.527 26.4405 27.3588Z" fill="#231F20"/>
<path d="M26.5422 31.7959C25.4426 30.8986 22.8971 29.7085 21.9076 31.3286C21.776 31.5442 22.148 31.7371 22.2797 31.5208C23.1017 30.1746 25.3596 31.3488 26.2367 32.0652C26.4406 32.2315 26.7468 31.9628 26.5422 31.7959Z" fill="#231F20"/>
<path d="M24.6935 30.9044C23.6325 31.6707 23.4022 32.9284 24.1083 33.961C24.2521 34.1703 24.6248 33.9794 24.4803 33.7688C23.8665 32.8715 24.0825 31.8351 24.9983 31.1744C25.2136 31.0188 24.9067 30.7507 24.6935 30.9044Z" fill="#231F20"/>
<path d="M64.4964 27.6282C66.4631 25.9986 69.6911 26.4147 70.3299 28.7885C70.6826 30.0993 70.4251 31.5714 70.0559 32.8576C69.7612 33.8851 69.2961 34.9658 68.7481 35.8947C68.6158 36.1134 68.4841 36.3329 68.3518 36.5517C67.4739 38.2836 65.8585 38.5498 63.504 37.3516C63.4661 37.1094 63.0505 37.2124 63.0884 37.4527C63.3223 38.9425 64.829 39.3756 66.325 38.8293C68.6995 37.9624 69.8778 34.9518 70.4716 32.9594C71.0067 31.1648 71.4489 28.3768 69.7705 26.9073C68.1278 25.4694 65.661 26.1416 64.1916 27.3588C63.9884 27.527 64.2939 27.7957 64.4964 27.6282Z" fill="#231F20"/>
<path d="M64.3948 32.0653C65.269 31.352 67.529 30.174 68.3518 31.5208C68.4834 31.7364 68.8561 31.5442 68.7238 31.3286C67.7351 29.7092 65.1874 30.8999 64.0893 31.7959C63.8854 31.9628 64.1909 32.2316 64.3948 32.0653Z" fill="#231F20"/>
<path d="M65.6335 31.1737C66.5492 31.8351 66.7646 32.8721 66.1507 33.7681C66.0069 33.9787 66.3797 34.1703 66.5228 33.9604C67.2296 32.9278 66.9985 31.6701 65.9375 30.9037C65.7258 30.7506 65.4189 31.0188 65.6335 31.1737Z" fill="#231F20"/>
<path d="M53.2833 28.332C53.2833 29.1338 52.5478 29.7838 51.6407 29.7838C50.7335 29.7838 49.998 29.1338 49.998 28.332C49.998 27.5302 50.7335 26.8801 51.6407 26.8801C52.5478 26.8801 53.2833 27.5302 53.2833 28.332Z" fill="#231F20"/>
<path d="M39.7937 19.9706L39.4797 21.9169C39.4797 21.9169 32.2195 21.9833 32.231 21.8726C32.2424 21.762 32.4227 20.0117 32.4227 20.0117L39.7937 19.9706Z" fill="#231F20"/>
<path d="M36.9781 29.7838C37.8853 29.7838 38.6207 29.1338 38.6207 28.332C38.6207 27.5301 37.8853 26.8801 36.9781 26.8801C36.0709 26.8801 35.3354 27.5301 35.3354 28.332C35.3354 29.1338 36.0709 29.7838 36.9781 29.7838Z" fill="#231F20"/>
<path d="M18.5093 101.097C18.5093 97.4447 18.5093 93.7917 18.5093 90.1393C18.5093 89.9755 18.2217 89.9755 18.2217 90.1393C18.2217 93.7917 18.2217 97.4447 18.2217 101.097C18.2217 101.261 18.5093 101.261 18.5093 101.097Z" fill="#231F20"/>
<path d="M70.8506 101.097C70.8506 97.4447 70.8506 93.7917 70.8506 90.1393C70.8506 89.9755 70.563 89.9755 70.563 90.1393C70.563 93.7917 70.563 97.4447 70.563 101.097C70.563 101.261 70.8506 101.261 70.8506 101.097Z" fill="#231F20"/>
<path d="M67.259 20.7212C66.9714 20.1837 67.3821 19.564 67.8221 19.1145C68.2621 18.6649 68.7843 18.1754 68.7414 17.5817C68.6627 16.4802 66.7289 15.9705 66.8069 14.8683C66.8333 14.4902 67.1074 14.1671 67.2898 13.8237C67.6346 13.175 67.601 12.4124 67.2876 11.7535C66.9836 11.1142 66.417 10.5723 65.6794 10.3288C64.7722 10.0291 63.493 9.96334 63.277 9.12866C63.1646 8.69551 63.4379 8.25667 63.4394 7.81214C63.4415 7.02679 62.5873 6.42481 61.7223 6.24775C60.8567 6.07133 59.9531 6.19337 59.0653 6.16239C58.631 6.14721 58.1116 6.03655 57.9778 5.67043C57.9155 5.4997 57.957 5.31443 57.9499 5.13548C57.9184 4.40513 57.0649 3.898 56.2479 3.78482C55.4309 3.671 54.5938 3.82023 53.7704 3.75573C53.5121 3.73549 53.2438 3.68934 53.0435 3.5439C52.562 3.19485 52.7201 2.51509 52.4955 2.00164C52.1728 1.26244 51.1111 1.00508 50.2197 1.09108C49.3283 1.17707 48.4712 1.4983 47.5748 1.49767C47.3101 1.49767 47.0296 1.46289 46.825 1.31429C46.6404 1.18024 46.5474 0.97473 46.4179 0.797677C46.0101 0.239327 45.2131 -0.0344707 44.4619 0.00346925C43.7115 0.0414092 43.0068 0.351251 42.4065 0.751518C42.0424 0.994334 41.6839 1.28268 41.2339 1.34907C40.9621 1.38954 40.6852 1.34401 40.4133 1.30418C39.0226 1.10057 37.2884 1.19541 36.6237 2.29441C36.2081 2.98112 36.3655 3.86196 35.9119 4.5297C35.5577 5.05138 34.9017 5.34035 34.3859 5.74315C34.1112 5.95751 33.8951 6.19337 33.7212 6.44251C33.4787 6.3015 33.184 6.23131 32.8964 6.26925C32.1344 6.36979 31.615 7.09065 30.8502 7.17033C30.554 7.20131 30.2579 7.12985 29.9602 7.1229C28.9951 7.10013 28.0958 7.86399 28.0823 8.71701C28.0794 8.92252 28.1195 9.13245 28.0544 9.32974C28.0093 9.46632 27.9241 9.57635 27.814 9.66867C27.5171 9.91718 27.037 10.0386 26.6514 10.2131C25.7485 10.621 25.1991 11.5663 25.35 12.4522C25.3815 12.6362 25.4387 12.8291 25.3643 13.003C25.2942 13.1674 25.1225 13.2774 24.963 13.3824C24.1624 13.9104 23.4012 14.7969 23.8047 15.6044C23.9843 15.9635 24.3771 16.2449 24.4214 16.6357C24.5008 17.3275 23.4599 17.791 23.4556 18.4865C23.4513 19.1827 24.4736 19.6032 24.5344 20.2975C24.5931 20.9653 23.7382 21.6564 24.171 22.2053C24.3656 22.4525 24.7655 22.5417 24.9143 22.8123C25.1125 23.1709 24.7519 23.585 24.7913 23.9828C24.8235 24.3015 25.1025 24.55 25.3343 24.796C26.288 25.8083 26.2186 26.7954 26.3888 28.0133C26.1041 25.9797 26.3016 23.9676 26.7845 21.9878C27.1121 22.4879 27.452 22.9837 27.3926 23.5439C27.3411 24.0264 26.9876 24.4842 27.0907 24.9604C27.1536 25.2519 27.379 25.4941 27.4977 25.7717C27.9384 26.8011 26.8417 28.0297 27.4126 29.0079C27.5679 29.2735 27.829 29.4778 28.0272 29.7199C28.5387 30.344 28.5959 31.1598 28.7941 31.9103C28.9923 32.6609 29.4673 33.4709 30.3201 33.6322C29.5331 33.2724 29.3342 32.3555 29.3858 31.5739C29.4373 30.7924 29.6376 29.9741 29.3013 29.2495C29.0173 28.638 28.3777 28.1726 28.2125 27.5276C27.9084 26.3401 29.3328 25.2696 29.2441 24.0542C29.2069 23.5395 28.8985 23.0722 28.7683 22.5695C28.5859 21.8613 28.7805 21.0842 29.2849 20.5106C29.7378 19.9959 30.441 19.6064 30.607 18.9709C30.8159 18.1704 30.0647 17.3148 30.4024 16.5491C30.7673 15.7226 32.1695 15.5513 32.5086 14.7166C32.7011 14.2423 32.4764 13.7017 32.6367 13.218C32.9085 12.3953 34.0046 12.0051 34.6849 11.3886C35.0906 11.6668 35.6107 11.8401 36.0636 11.8515C37.0544 11.8761 37.9966 11.4955 38.9782 11.3715C39.9591 11.2482 41.1567 11.5094 41.4994 12.3314C41.6847 12.776 41.5723 13.2862 41.7684 13.7276C42.1619 14.611 43.5226 14.7552 44.5714 14.5522C45.6209 14.3492 46.712 13.9464 47.7279 14.255C48.3231 14.4358 48.8153 14.8639 49.0285 15.3869C49.2052 15.82 49.1981 16.3018 49.4005 16.7261C49.7854 17.5324 50.8607 17.9402 51.8502 17.9118C52.6228 17.8896 53.8727 17.5893 54.2039 18.4328C54.3077 18.6965 54.3549 18.993 54.5724 19.1954C54.9494 19.5457 55.5911 19.4287 56.1363 19.3889C56.6657 19.3503 57.2266 19.4205 57.6594 19.6918C58.093 19.9637 58.3627 20.4683 58.2103 20.9179C58.1753 21.0203 58.1202 21.1202 58.1223 21.2271C58.1323 21.6684 58.9172 21.6438 59.287 21.9403C59.5625 22.161 59.5639 22.5524 59.4258 22.8579C59.2877 23.1626 59.0402 23.4181 58.8628 23.7071C58.2683 24.6777 58.6267 26.0202 59.6505 26.6531C59.061 26.0398 58.9708 25.09 59.4373 24.3982C59.6877 24.027 60.0733 23.7355 60.3029 23.3542C60.8087 22.5164 60.4195 21.4282 59.6562 20.7604C59.1075 20.2805 58.3291 19.8644 58.2811 19.1834C58.2454 18.6826 58.6446 18.3082 58.7369 17.8397C58.8413 17.3136 58.3284 16.7906 58.543 16.317C59.3221 16.3872 60.1191 16.2993 60.8545 16.0622C60.9783 16.0223 61.1142 15.9775 61.2394 16.0148C61.3475 16.047 61.4211 16.1324 61.4941 16.2095C61.5821 16.3018 61.6808 16.3866 61.7867 16.4637C63.6833 19.9131 64.2199 23.7526 64.1927 27.6041C64.6699 27.0268 64.3522 26.6398 65.1085 26.1567C65.5628 25.8665 66.2631 25.6591 66.359 25.0951C66.4162 24.758 66.188 24.426 66.2152 24.0859C66.2953 23.0792 68.3923 22.7491 68.1254 21.7677C68.0131 21.3422 67.4708 21.1164 67.259 20.7212Z" fill="#231F20"/>
<path d="M43.6995 32.1936C42.3595 32.0305 39.7675 32.1051 40.0394 33.9098C40.327 35.82 42.9769 35.4874 44.372 34.931C44.6245 34.8304 44.4056 34.5016 44.1545 34.6022C43.0463 35.0442 40.9315 35.471 40.4972 33.9989C40.0286 32.4111 42.5355 32.4339 43.5857 32.5616C43.8561 32.5945 43.9735 32.2271 43.6995 32.1936Z" fill="#231F20"/>
<path d="M38.0491 40.5436C37.7364 41.3663 37.5382 42.2048 37.4417 43.0679C37.4145 43.312 37.8459 43.3101 37.8731 43.0679C37.9654 42.2389 38.165 41.434 38.4647 40.6448C38.5534 40.4121 38.1371 40.3122 38.0491 40.5436Z" fill="#231F20"/>
<path d="M38.6772 41.4807C38.6049 41.9676 38.532 42.4545 38.4597 42.9414C38.4232 43.1836 38.8553 43.1817 38.8911 42.9414C38.9634 42.4545 39.0363 41.9676 39.1086 41.4807C39.1444 41.2386 38.713 41.2411 38.6772 41.4807Z" fill="#231F20"/>
<path d="M39.9683 41.1632C39.8975 41.6495 39.876 42.1351 39.9039 42.6245C39.9175 42.8686 40.3489 42.8699 40.3353 42.6245C40.3081 42.1351 40.3296 41.6495 40.3997 41.1632C40.4348 40.9204 40.0034 40.9223 39.9683 41.1632Z" fill="#231F20"/>
<path d="M41.1827 41.1645C41.2113 41.5667 41.2399 41.9688 41.2685 42.3703C41.2857 42.6138 41.7171 42.6157 41.6999 42.3703C41.6713 41.9682 41.6427 41.566 41.6141 41.1645C41.5962 40.9204 41.1648 40.9191 41.1827 41.1645Z" fill="#231F20"/>
<path d="M42.1284 41.1C42.127 41.5306 42.1964 41.9499 42.3388 42.3615C42.4196 42.5955 42.836 42.4956 42.7544 42.2604C42.6228 41.8797 42.5584 41.4978 42.5598 41.1C42.5606 40.8547 42.1292 40.8547 42.1284 41.1Z" fill="#231F20"/>
<path d="M43.3517 41.088C43.3961 41.3637 43.4405 41.6394 43.4848 41.9151C43.5235 42.1566 43.9391 42.0542 43.9005 41.8139C43.8561 41.5382 43.8118 41.2625 43.7674 40.9868C43.7281 40.7453 43.3124 40.8477 43.3517 41.088Z" fill="#231F20"/>
<path d="M45.0339 41.0059C45.1777 41.3024 45.3215 41.599 45.4653 41.8949C45.574 42.1194 45.946 41.9259 45.8373 41.7027C45.6935 41.4061 45.5497 41.1096 45.4059 40.8136C45.2971 40.5885 44.9251 40.7826 45.0339 41.0059Z" fill="#231F20"/>
<path d="M46.0986 40.9482C46.2481 41.2207 46.3976 41.4939 46.5478 41.7664C46.6687 41.9871 47.0408 41.7943 46.9199 41.5742C46.7703 41.3017 46.6208 41.0285 46.4706 40.756C46.3497 40.5353 45.9777 40.7282 46.0986 40.9482Z" fill="#231F20"/>
<path d="M46.9599 40.8325C47.0286 41.179 47.1903 41.4712 47.4357 41.7462C47.6074 41.9385 47.9107 41.6672 47.7404 41.4768C47.5415 41.2536 47.4307 41.0089 47.3756 40.7313C47.3276 40.4898 46.912 40.5922 46.9599 40.8325Z" fill="#231F20"/>
<path d="M47.6679 40.6549C47.713 40.9831 47.8102 41.2834 47.9719 41.5813C48.0921 41.8026 48.4641 41.6091 48.3439 41.389C48.2173 41.1551 48.1343 40.9129 48.0993 40.6549C48.0664 40.4146 47.6343 40.4115 47.6679 40.6549Z" fill="#231F20"/>
<path d="M48.4753 40.8186C48.6184 41.1152 48.7615 41.4117 48.9053 41.7083C49.014 41.9334 49.3853 41.7393 49.2773 41.5161C49.1342 41.2195 48.9911 40.9229 48.848 40.6264C48.7393 40.4013 48.368 40.5948 48.4753 40.8186Z" fill="#231F20"/>
<path d="M49.275 40.8787C49.514 41.1968 49.7529 41.5148 49.9919 41.8329C50.145 42.0365 50.5184 41.8455 50.3639 41.6407C50.1249 41.3226 49.886 41.0045 49.647 40.6865C49.4939 40.4829 49.1205 40.6732 49.275 40.8787Z" fill="#231F20"/>
<path d="M49.9157 40.247C50.3672 40.7997 50.8193 41.3524 51.2707 41.9056C51.4317 42.1029 51.8059 41.9126 51.6428 41.7134C51.1913 41.1608 50.7399 40.6075 50.2878 40.0548C50.1275 39.8575 49.7526 40.0472 49.9157 40.247Z" fill="#231F20"/>
<path d="M44.7464 75.4015C44.6856 80.4735 44.8172 85.5789 44.5754 90.6477C44.564 90.8931 44.9947 90.8924 45.0068 90.6477C45.2486 85.5789 45.1177 80.4735 45.1778 75.4015C45.1807 75.1562 44.7493 75.1562 44.7464 75.4015Z" fill="#231F20"/>
<path d="M46.7293 79.4042C46.7293 80.2812 45.9252 80.992 44.9329 80.992C43.9406 80.992 43.1357 80.2812 43.1357 79.4042C43.1357 78.5271 43.9399 77.8164 44.9329 77.8164C45.9252 77.8164 46.7293 78.5271 46.7293 79.4042Z" fill="#231F20"/>
<path d="M46.7293 86.0956C46.7293 86.9726 45.9252 87.684 44.9329 87.684C43.9406 87.684 43.1357 86.9733 43.1357 86.0956C43.1357 85.2186 43.9399 84.5078 44.9329 84.5078C45.9252 84.5072 46.7293 85.2179 46.7293 86.0956Z" fill="#231F20"/>
<path d="M42.122 54.6465C42.2307 54.8514 42.2508 55.0556 42.195 55.2744C42.1335 55.5134 42.5498 55.6152 42.6106 55.3756C42.6943 55.0493 42.6543 54.7559 42.494 54.4536C42.3767 54.2323 42.0054 54.4258 42.122 54.6465Z" fill="#231F20"/>
<path d="M43.3582 54.6952C43.3224 54.9342 43.3439 55.153 43.419 55.3838C43.4956 55.619 43.9112 55.5191 43.8347 55.2826C43.7696 55.0816 43.7581 54.9001 43.7896 54.6952C43.8254 54.4524 43.394 54.4549 43.3582 54.6952Z" fill="#231F20"/>
<path d="M45.0808 54.1862C45.0336 54.5334 45.0801 54.8653 45.2196 55.1922C45.3162 55.4199 45.7333 55.3212 45.6353 55.0911C45.5079 54.7926 45.4693 54.503 45.5115 54.1868C45.5451 53.9434 45.113 53.9453 45.0808 54.1862Z" fill="#231F20"/>
<path d="M46.5791 53.8681C46.5913 54.4815 46.6485 55.0891 46.7444 55.6962C46.7823 55.9383 47.198 55.8353 47.1601 55.595C47.0692 55.0221 47.0213 54.4467 47.0105 53.8681C47.0055 53.6234 46.5741 53.6221 46.5791 53.8681Z" fill="#231F20"/>
<path d="M48.0988 53.8049C48.0673 54.379 48.0895 54.9494 48.166 55.5198C48.1982 55.76 48.6296 55.7632 48.5974 55.5198C48.5209 54.9494 48.4987 54.379 48.5302 53.8049C48.5438 53.5595 48.1124 53.5602 48.0988 53.8049Z" fill="#231F20"/>
<path d="M49.1718 54.0585C49.1253 54.4606 49.0788 54.8634 49.033 55.2656C49.0051 55.509 49.4365 55.5078 49.4644 55.2656C49.5109 54.8634 49.5567 54.4606 49.6032 54.0585C49.6311 53.815 49.1997 53.8169 49.1718 54.0585Z" fill="#231F20"/>
<path d="M50.1792 54.1222C50.1792 54.3126 50.1792 54.5035 50.1792 54.6939C50.1792 54.9392 50.6106 54.9398 50.6106 54.6939C50.6106 54.5035 50.6106 54.3126 50.6106 54.1222C50.6106 53.8769 50.1792 53.8763 50.1792 54.1222Z" fill="#231F20"/>
<path d="M50.5299 54.305C50.4584 54.3683 50.3861 54.4321 50.3146 54.4954C50.1178 54.6693 50.4226 54.9386 50.6193 54.7647C50.6909 54.7015 50.7631 54.6376 50.8347 54.5744C51.0314 54.4011 50.7266 54.1311 50.5299 54.305Z" fill="#231F20"/>
<path d="M40.5068 54.9803C40.6971 55.3749 40.8294 55.784 40.916 56.2051C40.9653 56.4461 41.381 56.3442 41.3317 56.104C41.2379 55.648 41.0841 55.2136 40.8788 54.7881C40.7708 54.5636 40.3987 54.7571 40.5068 54.9803Z" fill="#231F20"/>
<path d="M39.5415 54.429C39.5952 54.618 39.6481 54.8077 39.7018 54.9968C39.769 55.2346 40.1847 55.134 40.1174 54.8956C40.0638 54.7066 40.0108 54.5169 39.9572 54.3278C39.8906 54.0894 39.4743 54.1906 39.5415 54.429Z" fill="#231F20"/>
<path d="M48.2785 61.8128C49.7974 61.5459 51.0744 60.655 52.1962 59.7109C53.255 58.8199 54.2344 57.855 55.1251 56.8306C55.4142 54.8976 56.0058 53.0006 56.903 51.218C56.903 51.218 53.2743 54.7142 52.4816 55.0133C52.3829 55.0734 49.1377 56.4443 46.4792 56.6542C46.3111 56.6744 42.7225 57.1354 41.1235 56.7642C40.9261 56.7181 38.4621 55.6349 35.3729 52.8773C34.9637 52.4878 33.8047 51.2174 33.8047 51.2174C34.4006 52.4011 34.8621 53.6361 35.1898 54.8976C37.1665 56.873 39.6633 58.6163 41.9169 60.0049C43.7971 61.164 46.0321 62.208 48.2785 61.8128Z" fill="#231F20"/>
<path d="M62.1552 38.8116C62.1331 39.074 62.1123 39.3364 62.093 39.6001C61.9993 40.854 61.8447 42.1187 61.3726 43.3106C61.8047 42.6992 62.2411 42.0801 62.5036 41.3972C62.7075 40.8673 62.802 40.3096 62.895 39.7563C63.4201 36.6402 63.8079 33.524 64.0182 30.3719C64.142 28.5128 64.2665 26.6537 64.3902 24.7947C64.3409 25.5313 64.044 26.256 63.9009 26.9788C63.7184 27.9026 63.7284 28.8739 63.5997 29.8065C63.3621 31.5202 62.9129 33.1959 62.6281 34.8994C62.4092 36.2051 62.2654 37.4995 62.1552 38.8116Z" fill="#231F20"/>
<path d="M28.3356 38.8116C28.3578 39.074 28.3785 39.3364 28.3978 39.6001C28.4915 40.854 28.6461 42.1187 29.1182 43.3106C28.6861 42.6992 28.2497 42.0801 27.9872 41.3972C27.7833 40.8673 27.6888 40.3096 27.5958 39.7563C27.0707 36.6402 26.6829 33.524 26.4726 30.3719C26.3488 28.5128 26.2244 26.6537 26.1006 24.7947C26.15 25.5313 26.4468 26.256 26.5899 26.9788C26.7724 27.9026 26.7623 28.8739 26.8911 29.8065C27.1286 31.5202 27.5779 33.1959 27.8627 34.8994C28.0816 36.2051 28.2247 37.4995 28.3356 38.8116Z" fill="#231F20"/>
</svg>
