<svg xmlns="http://www.w3.org/2000/svg" width="228" height="304" fill="none"><rect width="228" height="303" fill="#FDFDFD" rx="26"/><path fill="#C8C9CE" d="m69.176 302.165 2.298-14.606c.508-3.225 1.065-6.57 3.088-9.29 2.308-3.104 6.218-4.971 10.133-6.32a314 314 0 0 1 9.575-3.141c1.705-.525 3.355-1.394 5.002-2.054 1.711-.685 3.201-1.27 4.925-1.928l20.434.694a287 287 0 0 1 4.925 1.928c1.647.66 3.298 1.528 5.003 2.054 3.189.984 6.414 2.052 9.575 3.14 3.915 1.349 7.825 3.216 10.132 6.32 2.024 2.721 2.58 6.065 3.088 9.29l2.299 14.606"/><path fill="#231F20" d="M101.153 271.274s1.988-2.473 2.255-3.831c.101-.09-2.972.017-4.54 1.246 0 0 2.938 6.682 15.036 7.629.17-.001 8.72.835 16.625-7.589 0 0-2.467-1.818-5.533-1.394.084-.089 2.402 3.939 2.402 3.939s-12.021 11.16-26.245 0"/><path fill="#231F20" d="M102.597 252.269c2.664 5.69 3.186 13.808-1.518 18.87-.078.084-.083.186 0 .27 7.334 7.398 18.701 5.62 26.55 0 .054-.039.08-.129.055-.186-.269-.616-.77-1.035-1.152-1.612-1.231-1.86-1.852-4.185-2.167-6.294-.568-3.801.103-7.514 1.746-11.049.105-.227-.312-.325-.416-.101-1.492 3.211-2.235 6.59-1.922 10.069.135 1.497.441 2.989.943 4.425.322.922 2.044 3.132 2.031 3.971-.049 3.152-8.474 5.164-11.123 5.415-2.998.285-6.025-.221-8.742-1.364-1.561-.657-3.466-1.577-4.61-2.755-1.079-1.113-.504-.8.37-2.184 3.333-5.277 2.905-12.164.371-17.576-.105-.224-.523-.126-.416.101"/><path fill="#fff" d="M102.805 252.218a18.72 18.72 0 0 1-.151 17.077c-.374.712-.802 1.417-1.423 1.978 0 0 11.039 11.351 26.246 0 .176-.131-.418-.59-.544-.738a5.6 5.6 0 0 1-.586-.829 18 18 0 0 1-2.422-8.592 18.7 18.7 0 0 1 1.979-8.897s-3.629 3.496-4.422 3.796c-.098.06-3.344 1.431-6.002 1.64-.168.021-3.757.482-5.356.11-.197-.046-2.661-1.129-5.75-3.886-.41-.389-1.569-1.659-1.569-1.659"/><path fill="#231F20" d="M102.597 252.269c2.664 5.69 3.186 13.808-1.518 18.87-.078.084-.083.186 0 .269 7.334 7.399 18.701 5.621 26.55 0 .054-.038.08-.128.055-.185-.269-.616-.77-1.036-1.152-1.612-1.231-1.86-1.852-4.185-2.167-6.294-.568-3.801.103-7.514 1.746-11.049.084-.179-.222-.318-.361-.185-3.088 2.964-5.619 4.795-10.328 5.388-2.08.261-4.267.514-6.172-.338-2.493-1.116-4.56-3.16-6.293-5.051-.175-.19-.478.081-.305.27 1.835 2.001 4.497 4.769 7.414 5.595 2.908.824 7.633-.287 10.282-1.279 1.165-.437 1.857-.866 2.784-1.638.677-.564 1.297-1.178 1.952-1.761.72-.639 1.048-1.62.119-.046-2.54 4.306-1.825 10.685.154 15.007.303.662 1.397 1.832 1.389 2.4-.021 1.397-2.388 2.514-3.605 3.133-2.813 1.429-5.96 2.365-9.228 2.363-4.061-.001-8.001-1.453-11.077-3.76-.242-.181-1.414-.891-1.434-1.21.001.024 1.395-1.69 1.438-1.766.517-.94.92-1.951 1.245-2.952 1.545-4.756 1.055-9.729-1.073-14.272-.104-.222-.522-.124-.415.103"/><path fill="#231F20" d="M159.827 302.816c-.823-5.226-1.568-10.469-2.472-15.685-.7-4.039-1.793-7.878-5.356-10.694-3.076-2.43-6.999-3.687-10.796-4.96-5.6-1.877-10.989-3.987-16.481-6.095-.209-.08-.392.193-.181.275 4.138 1.588 8.125 3.397 12.368 4.75 4.622 1.475 9.645 2.792 13.626 5.412 4.688 3.085 5.864 7.627 6.646 12.475.786 4.867 1.533 9.738 2.299 14.607.032.202.378.116.347-.085M104.107 264.689c-5.296 2.032-10.477 4.094-15.883 5.894-3.99 1.328-8.162 2.606-11.395 5.16-3.381 2.673-4.575 6.298-5.26 10.154-.96 5.392-1.716 10.819-2.567 16.225-.031.2.315.287.346.085.767-4.869 1.508-9.741 2.299-14.607.788-4.847 1.952-9.386 6.646-12.475 3.983-2.621 9.004-3.936 13.626-5.412 4.243-1.353 8.231-3.162 12.368-4.75.213-.081.03-.354-.18-.274"/><path fill="#EFA841" d="m129.967 245.725-1.724 3.43c-.037.074.086.138.124.064l1.724-3.431c.038-.074-.086-.138-.124-.063" opacity=".3"/><path fill="#231F20" d="M129.201 215.41c3.403 4.702 4.015 10.103 3.701 15.565-.302 5.234-.938 10.549-3.379 15.382-2.497 4.943-6.527 9.91-12.851 10.937-4.302.699-7.095.566-10.477-2.124a26.4 26.4 0 0 1-5.353-5.718c-3.255-4.738-4.428-9.967-4.967-15.416-.48-4.866-.712-9.952 1.178-14.625 2.525-6.244 8.241-9.775 15.61-10.276 6.599-.448 12.581 1.46 16.538 6.275.162.197.536.007.372-.192-5.313-6.465-15.916-8.462-24.099-5.013-10.204 4.3-10.89 15.159-10.03 23.831.48 4.819 1.407 9.515 3.923 13.862 2.026 3.5 5.674 8.303 9.981 9.834 3.119 1.108 8.786.205 11.626-1.207 4.034-2.005 7.078-6.354 8.921-9.977 2.558-5.029 3.203-10.634 3.462-16.087.256-5.364-.454-10.643-3.784-15.243-.148-.206-.522-.015-.372.192"/><path fill="#231F20" d="m117.106 221.339.542 1.906s7.229-.604 7.204-.712l-.411-1.834zM108.829 246.394c4.144.515 8.731.306 12.259-1.851.227-.138.011-.469-.218-.328-3.417 2.089-7.904 2.311-11.926 1.811-.272-.033-.389.334-.115.368M112.569 254.554a4.8 4.8 0 0 0 2.135-.511c.241-.122.024-.452-.217-.329q-.891.45-1.917.46c-.278.002-.279.383-.001.38M95.44 228.359c-1.48-1.228-3.883-1.865-5.557-.467-1.714 1.433-1.265 4.295-.723 6.067.612 2.005 1.745 4.974 4.12 5.861 1.496.558 3.027.138 3.263-1.367.038-.24-.378-.344-.416-.102q-3.133 1.764-4.372-.231a5 5 0 0 1-.871-1.225c-.542-.901-1.005-2.035-1.308-3.037-.395-1.309-.63-2.729-.274-4.069.655-2.467 3.725-2.907 5.834-1.16.202.167.508-.102.305-.27"/><path fill="#231F20" d="M95.542 232.796c-1.1-.898-3.645-2.088-4.634-.468-.132.216.24.409.372.193.822-1.347 3.08-.172 3.957.544.204.166.51-.102.305-.269"/><path fill="#231F20" d="M93.694 231.904c-1.062.766-1.292 2.024-.586 3.057.144.209.517.018.372-.192-.614-.898-.398-1.934.518-2.595.216-.155-.091-.424-.305-.27M133.496 228.628c1.967-1.629 5.195-1.213 5.834 1.16.353 1.311.095 2.783-.274 4.07a13.5 13.5 0 0 1-1.308 3.037l-.396.657q-1.316 2.597-4.848.8c-.038-.243-.454-.14-.416.101.234 1.489 1.741 1.923 3.237 1.376 2.374-.867 3.553-3.877 4.147-5.87.535-1.794.977-4.582-.702-6.052-1.642-1.438-4.109-.765-5.578.452-.204.168.102.437.304.269"/><path fill="#231F20" d="M133.395 233.065c.874-.713 3.134-1.891 3.957-.544.131.215.504.023.372-.192-.989-1.62-3.537-.429-4.635.467-.204.167.102.436.306.269"/><path fill="#231F20" d="M134.633 232.174c.916.661 1.132 1.698.518 2.594-.144.211.229.402.372.192.707-1.032.476-2.29-.585-3.056-.212-.153-.519.115-.305.27M122.283 229.332c0 .802-.735 1.452-1.642 1.452-.908 0-1.643-.65-1.643-1.452s.735-1.452 1.643-1.452c.907 0 1.642.65 1.642 1.452M108.794 220.971l-.314 1.946s-7.26.066-7.249-.044l.192-1.861zM105.978 230.784c.907 0 1.643-.65 1.643-1.452s-.736-1.452-1.643-1.452-1.643.65-1.643 1.452.736 1.452 1.643 1.452M87.51 302.097v-10.958c0-.163-.288-.163-.288 0v10.958c0 .164.287.164.287 0M139.851 302.097v-10.958c0-.163-.288-.163-.288 0v10.958c0 .164.288.164.288 0"/><path fill="#231F20" d="M136.259 221.721c-.288-.537.123-1.157.563-1.607s.962-.939.919-1.532c-.078-1.102-2.012-1.612-1.934-2.714.026-.378.3-.701.483-1.044.345-.649.311-1.412-.002-2.071a2.74 2.74 0 0 0-1.609-1.424c-.907-.3-2.186-.366-2.402-1.2-.112-.433.161-.872.162-1.317.003-.785-.852-1.387-1.717-1.564s-1.769-.055-2.657-.086c-.434-.015-.953-.125-1.087-.492-.062-.17-.021-.356-.028-.535-.032-.73-.885-1.237-1.702-1.35-.817-.114-1.654.035-2.478-.029-.258-.021-.526-.067-.727-.212-.481-.349-.323-1.029-.548-1.542-.322-.74-1.384-.997-2.275-.911-.892.086-1.749.407-2.645.407-.265 0-.545-.035-.75-.184-.185-.134-.278-.339-.407-.516-.408-.559-1.205-.832-1.956-.795-.751.038-1.455.348-2.055.749-.365.242-.723.531-1.173.597-.272.041-.549-.005-.821-.045-1.39-.203-3.125-.109-3.789.99-.416.687-.259 1.568-.712 2.236-.354.521-1.01.81-1.526 1.213-.275.215-.491.45-.665.7a1.32 1.32 0 0 0-.825-.174c-.762.101-1.281.822-2.046.901-.296.031-.592-.04-.89-.047-.965-.023-1.864.741-1.878 1.594-.003.206.038.415-.028.613a.75.75 0 0 1-.24.339c-.297.248-.777.37-1.163.544-.902.408-1.452 1.353-1.301 2.239.032.184.089.377.014.551-.07.164-.242.274-.401.379-.8.528-1.562 1.415-1.158 2.222.18.36.572.641.616 1.032.08.691-.961 1.155-.965 1.851s1.018 1.116 1.078 1.811c.06.667-.796 1.358-.363 1.907.195.248.594.337.743.607.198.359-.162.773-.123 1.171.032.318.312.567.543.813.954 1.012.885 1.999 1.055 3.217-.285-2.033-.087-4.045.395-6.025.328.5.668.996.609 1.556-.052.482-.405.94-.302 1.416.063.292.288.534.407.812.44 1.029-.656 2.258-.085 3.236.155.266.416.47.614.712.512.624.569 1.44.767 2.19.198.751.673 1.561 1.526 1.722-.787-.36-.986-1.277-.934-2.058.051-.782.252-1.6-.085-2.325-.284-.611-.923-1.076-1.088-1.721-.305-1.188 1.12-2.258 1.031-3.474-.037-.514-.346-.982-.476-1.484-.182-.709.013-1.486.517-2.059.453-.515 1.156-.905 1.322-1.54.209-.801-.542-1.656-.205-2.422.365-.826 1.767-.998 2.107-1.832.192-.475-.033-1.015.128-1.499.272-.823 1.368-1.213 2.048-1.829.406.278.926.451 1.379.462.99.025 1.933-.356 2.914-.479.981-.124 2.179.137 2.521.959.186.445.073.955.269 1.397.394.883 1.755 1.027 2.803.824 1.05-.203 2.141-.606 3.157-.297.595.181 1.087.609 1.301 1.132.176.433.169.915.372 1.339.384.806 1.46 1.214 2.449 1.186.773-.022 2.023-.323 2.354.521.104.263.151.56.368.762.377.351 1.019.234 1.564.194.53-.039 1.091.032 1.523.303.434.272.704.776.551 1.226-.035.102-.09.202-.088.309.01.441.795.417 1.165.713.275.221.277.612.139.918-.138.305-.386.56-.563.849-.595.971-.236 2.313.787 2.946-.589-.613-.679-1.563-.213-2.255.251-.371.636-.662.866-1.044.506-.838.117-1.926-.647-2.594-.549-.48-1.327-.896-1.375-1.577-.036-.5.364-.875.456-1.343.104-.526-.409-1.049-.194-1.523a5.9 5.9 0 0 0 2.312-.255c.123-.04.259-.085.384-.047.108.032.182.117.255.195q.133.138.293.254c1.896 3.449 2.433 7.289 2.406 11.14.477-.577.159-.964.915-1.447.455-.291 1.155-.498 1.251-1.062.057-.337-.171-.669-.144-1.009.08-1.007 2.177-1.337 1.91-2.318-.112-.426-.654-.652-.866-1.047M112.699 233.194c-1.34-.163-3.932-.089-3.66 1.716.288 1.91 2.938 1.578 4.333 1.021.253-.1.034-.429-.218-.329-1.108.442-3.223.869-3.657-.603-.468-1.588 2.038-1.565 3.089-1.437.27.033.387-.335.113-.368M107.049 241.544a10.2 10.2 0 0 0-.607 2.524c-.028.244.404.242.431 0a9.8 9.8 0 0 1 .592-2.423c.088-.233-.328-.333-.416-.101M107.677 242.48l-.217 1.461c-.037.242.395.24.431 0l.218-1.461c.035-.242-.396-.239-.432 0M108.968 242.163a7.2 7.2 0 0 0-.064 1.462c.014.244.445.245.431 0a7.4 7.4 0 0 1 .065-1.462c.035-.242-.397-.241-.432 0M110.183 242.164l.086 1.206c.017.244.448.246.431 0l-.086-1.206c-.018-.244-.449-.245-.431 0M111.128 242.1q-.003.645.211 1.262c.081.233.497.134.415-.102a3.5 3.5 0 0 1-.194-1.16c.001-.245-.431-.245-.432 0M112.352 242.088l.133.827c.038.242.454.139.415-.101l-.133-.827c-.039-.241-.455-.139-.415.101M114.034 242.006l.431.889c.109.224.481.031.372-.192l-.431-.889c-.109-.226-.481-.031-.372.192M115.099 241.948l.449.819c.121.22.493.028.372-.193l-.449-.818c-.121-.22-.493-.028-.372.192M115.96 241.832c.069.347.23.639.476.914.171.192.475-.079.304-.269a1.53 1.53 0 0 1-.364-.746c-.048-.241-.464-.139-.416.101M116.668 241.655c.045.328.142.629.304.926.12.222.492.028.372-.192a2.1 2.1 0 0 1-.245-.734c-.033-.24-.465-.243-.431 0M117.475 241.819l.43.89c.109.225.48.031.372-.193l-.429-.889c-.109-.225-.48-.032-.373.192M118.275 241.878l.717.955c.153.203.526.012.372-.193l-.717-.954c-.153-.203-.527-.013-.372.192M118.916 241.247l1.355 1.659c.161.197.535.007.372-.192l-1.355-1.659c-.161-.197-.535-.008-.372.192M113.746 276.402c-.06 5.072.071 10.177-.171 15.246-.011.245.42.245.432 0 .242-5.069.111-10.174.171-15.246.003-.246-.429-.246-.432 0"/><path fill="#231F20" d="M115.729 280.404c0 .877-.804 1.588-1.796 1.588s-1.797-.711-1.797-1.588.804-1.588 1.797-1.588 1.796.711 1.796 1.588M115.729 287.096c0 .877-.804 1.588-1.796 1.588s-1.797-.711-1.797-1.588.804-1.588 1.797-1.588c.992-.001 1.796.71 1.796 1.588M111.122 255.647a.84.84 0 0 1 .073.628c-.062.239.355.34.416.101.083-.327.043-.62-.117-.922-.117-.222-.489-.028-.372.193M112.358 255.695c-.036.239-.014.458.061.689.077.235.492.135.416-.101a1.2 1.2 0 0 1-.045-.588c.035-.242-.396-.24-.432 0M114.081 255.186c-.047.347-.001.679.139 1.006.096.228.513.129.415-.101a1.66 1.66 0 0 1-.123-.904c.033-.244-.399-.242-.431-.001M115.579 254.868c.012.613.07 1.221.165 1.828.038.242.454.139.416-.101a12 12 0 0 1-.149-1.727c-.005-.245-.437-.246-.432 0M117.099 254.805a9 9 0 0 0 .067 1.715c.032.24.464.243.431 0a9 9 0 0 1-.067-1.715c.014-.245-.418-.245-.431 0M118.172 255.058l-.139 1.207c-.028.244.404.243.431 0l.139-1.207c.028-.243-.403-.241-.431 0M119.179 255.122v.572c0 .245.432.246.432 0v-.572c0-.245-.432-.246-.432 0"/><path fill="#231F20" d="m119.53 255.305-.215.19c-.197.174.108.444.304.27l.216-.19c.196-.174-.108-.444-.305-.27M109.507 255.981c.19.394.322.803.409 1.224.049.241.465.139.416-.101a5.7 5.7 0 0 0-.453-1.316c-.108-.224-.48-.031-.372.193M108.542 255.429l.16.568c.067.238.483.137.415-.101l-.16-.568c-.066-.238-.483-.137-.415.101"/><path fill="#231F20" d="M117.279 262.813c1.518-.267 2.795-1.158 3.917-2.102a26.5 26.5 0 0 0 2.929-2.88 18.6 18.6 0 0 1 1.778-5.613s-3.629 3.496-4.421 3.795c-.099.06-3.344 1.431-6.003 1.641-.168.02-3.757.481-5.355.11-.198-.046-2.662-1.129-5.751-3.887-.409-.389-1.568-1.66-1.568-1.66a18.6 18.6 0 0 1 1.385 3.68c1.976 1.976 4.473 3.719 6.727 5.108 1.88 1.159 4.115 2.203 6.362 1.808M131.155 239.812q-.033.392-.062.788c-.094 1.254-.248 2.519-.72 3.711.432-.612.868-1.231 1.131-1.914.204-.53.298-1.087.391-1.641a94 94 0 0 0 1.123-9.384l.372-5.577c-.049.736-.346 1.461-.489 2.184-.183.924-.173 1.895-.301 2.828-.238 1.713-.687 3.389-.972 5.092a48 48 0 0 0-.473 3.913M97.336 239.812q.033.392.062.788c.094 1.254.248 2.519.72 3.711-.432-.612-.868-1.231-1.13-1.914-.205-.53-.3-1.087-.392-1.641a94 94 0 0 1-1.123-9.384l-.372-5.577c.049.736.346 1.461.489 2.184.182.924.172 1.895.301 2.828.238 1.713.687 3.389.972 5.092.219 1.306.362 2.601.473 3.913"/></svg>