<svg width="228" height="304" viewBox="0 0 228 304" fill="none" xmlns="http://www.w3.org/2000/svg">
<rect width="228" height="303" rx="26" fill="#FDFDFD"/>
<path d="M69.1758 302.165C69.942 297.296 70.7082 292.427 71.4744 287.559C71.9817 284.334 72.539 280.989 74.5622 278.269C76.8702 275.165 80.78 273.298 84.6948 271.949C87.8549 270.861 91.0807 269.792 94.2701 268.808C95.9749 268.283 97.6254 267.414 99.2724 266.754C100.983 266.069 102.473 265.484 104.197 264.826L124.631 265.52C126.356 266.177 127.846 266.762 129.556 267.448C131.203 268.108 132.854 268.976 134.559 269.502C137.748 270.486 140.973 271.554 144.134 272.642C148.049 273.991 151.959 275.858 154.266 278.962C156.29 281.683 156.846 285.027 157.354 288.252C158.121 293.121 158.887 297.989 159.653 302.858" fill="#C8C9CE"/>
<path d="M101.153 271.274C101.153 271.274 103.141 268.801 103.408 267.443C103.509 267.353 100.436 267.46 98.8682 268.689C98.8682 268.689 101.806 275.371 113.904 276.318C114.074 276.317 122.624 277.153 130.529 268.729C130.529 268.729 128.062 266.911 124.996 267.335C125.08 267.246 127.398 271.274 127.398 271.274C127.398 271.274 115.377 282.434 101.153 271.274Z" fill="#231F20"/>
<path d="M102.597 252.269C105.261 257.959 105.783 266.077 101.079 271.139C101.001 271.223 100.996 271.325 101.079 271.409C108.413 278.807 119.78 277.029 127.629 271.409C127.683 271.37 127.709 271.28 127.684 271.223C127.415 270.607 126.914 270.188 126.532 269.611C125.301 267.751 124.68 265.426 124.365 263.317C123.797 259.516 124.468 255.803 126.111 252.268C126.216 252.041 125.799 251.943 125.695 252.167C124.203 255.378 123.46 258.757 123.773 262.236C123.908 263.733 124.214 265.225 124.716 266.661C125.038 267.583 126.76 269.793 126.747 270.632C126.698 273.784 118.273 275.796 115.624 276.047C112.626 276.332 109.599 275.826 106.882 274.683C105.321 274.026 103.416 273.106 102.272 271.928C101.193 270.815 101.768 271.128 102.642 269.744C105.975 264.467 105.547 257.58 103.013 252.168C102.908 251.944 102.49 252.042 102.597 252.269Z" fill="#231F20"/>
<path d="M102.805 252.218C105.505 257.58 105.449 263.971 102.654 269.295C102.28 270.007 101.852 270.712 101.231 271.273C101.231 271.273 112.27 282.624 127.477 271.273C127.653 271.142 127.059 270.683 126.933 270.535C126.711 270.274 126.515 269.997 126.347 269.706C124.805 267.045 124.006 264.114 123.925 261.114C123.843 258.068 124.501 255.003 125.904 252.217C125.904 252.217 122.275 255.713 121.482 256.013C121.384 256.073 118.138 257.444 115.48 257.653C115.312 257.674 111.723 258.135 110.124 257.763C109.927 257.717 107.463 256.634 104.374 253.877C103.964 253.488 102.805 252.218 102.805 252.218Z" fill="white"/>
<path d="M102.597 252.269C105.261 257.959 105.783 266.077 101.079 271.139C101.001 271.223 100.996 271.325 101.079 271.408C108.413 278.807 119.78 277.029 127.629 271.408C127.683 271.37 127.709 271.28 127.684 271.223C127.415 270.607 126.914 270.187 126.532 269.611C125.301 267.751 124.68 265.426 124.365 263.317C123.797 259.516 124.468 255.803 126.111 252.268C126.195 252.089 125.889 251.95 125.75 252.083C122.662 255.047 120.131 256.878 115.422 257.471C113.342 257.732 111.155 257.985 109.25 257.133C106.757 256.017 104.69 253.973 102.957 252.082C102.782 251.892 102.479 252.163 102.652 252.352C104.487 254.353 107.149 257.121 110.066 257.947C112.974 258.771 117.699 257.66 120.348 256.668C121.513 256.231 122.205 255.802 123.132 255.03C123.809 254.466 124.429 253.852 125.084 253.269C125.804 252.63 126.132 251.649 125.203 253.223C122.663 257.529 123.378 263.908 125.357 268.23C125.66 268.892 126.754 270.062 126.746 270.63C126.725 272.027 124.358 273.144 123.141 273.763C120.328 275.192 117.181 276.128 113.913 276.126C109.852 276.125 105.912 274.673 102.836 272.366C102.594 272.185 101.422 271.475 101.402 271.156C101.403 271.18 102.797 269.466 102.84 269.39C103.357 268.45 103.76 267.439 104.085 266.438C105.63 261.682 105.14 256.709 103.012 252.166C102.908 251.944 102.49 252.042 102.597 252.269Z" fill="#231F20"/>
<path d="M159.827 302.816C159.004 297.59 158.259 292.347 157.355 287.131C156.655 283.092 155.562 279.253 151.999 276.437C148.923 274.007 145 272.75 141.203 271.477C135.603 269.6 130.214 267.49 124.722 265.382C124.513 265.302 124.33 265.575 124.541 265.657C128.679 267.245 132.666 269.054 136.909 270.407C141.531 271.882 146.554 273.199 150.535 275.819C155.223 278.904 156.399 283.446 157.181 288.294C157.967 293.161 158.714 298.032 159.48 302.901C159.512 303.103 159.858 303.017 159.827 302.816Z" fill="#231F20"/>
<path d="M104.107 264.689C98.811 266.721 93.6299 268.783 88.2241 270.583C84.2349 271.911 80.0618 273.189 76.8295 275.743C73.4477 278.416 72.2544 282.041 71.5683 285.897C70.6082 291.289 69.8534 296.716 69.002 302.122C68.9705 302.322 69.3168 302.409 69.3483 302.207C70.1145 297.338 70.8557 292.466 71.6469 287.6C72.4353 282.753 73.5994 278.214 78.2933 275.125C82.2761 272.504 87.2969 271.189 91.9193 269.713C96.1625 268.36 100.15 266.551 104.287 264.963C104.5 264.882 104.317 264.609 104.107 264.689Z" fill="#231F20"/>
<path opacity="0.3" d="M129.967 245.725C129.392 246.868 128.817 248.012 128.243 249.155C128.206 249.229 128.329 249.293 128.367 249.219C128.942 248.076 129.517 246.932 130.091 245.788C130.129 245.714 130.005 245.65 129.967 245.725Z" fill="#EFA841"/>
<path d="M129.201 215.41C132.604 220.112 133.216 225.513 132.902 230.975C132.6 236.209 131.964 241.524 129.523 246.357C127.026 251.3 122.996 256.267 116.672 257.294C112.37 257.993 109.577 257.86 106.195 255.17C104.098 253.502 102.308 251.585 100.842 249.452C97.5867 244.714 96.4141 239.485 95.8754 234.036C95.3946 229.17 95.1635 224.084 97.053 219.411C99.5777 213.167 105.294 209.636 112.663 209.135C119.262 208.687 125.244 210.595 129.201 215.41C129.363 215.607 129.737 215.417 129.573 215.218C124.26 208.753 113.657 206.756 105.474 210.205C95.2702 214.505 94.5841 225.364 95.4447 234.036C95.9233 238.855 96.8512 243.551 99.3674 247.898C101.393 251.398 105.041 256.201 109.348 257.732C112.467 258.84 118.134 257.937 120.974 256.525C125.008 254.52 128.052 250.171 129.895 246.548C132.453 241.519 133.098 235.914 133.357 230.461C133.613 225.097 132.903 219.818 129.573 215.218C129.425 215.012 129.051 215.203 129.201 215.41Z" fill="#231F20"/>
<path d="M117.106 221.339L117.648 223.245C117.648 223.245 124.877 222.641 124.852 222.533C124.828 222.424 124.441 220.699 124.441 220.699L117.106 221.339Z" fill="#231F20"/>
<path d="M108.829 246.394C112.973 246.909 117.56 246.7 121.088 244.543C121.315 244.405 121.099 244.074 120.87 244.215C117.453 246.304 112.966 246.526 108.944 246.026C108.672 245.993 108.555 246.36 108.829 246.394Z" fill="#231F20"/>
<path d="M112.569 254.554C113.328 254.547 114.046 254.375 114.704 254.043C114.945 253.921 114.728 253.591 114.487 253.714C113.892 254.014 113.255 254.167 112.57 254.174C112.292 254.176 112.291 254.557 112.569 254.554Z" fill="#231F20"/>
<path d="M95.4405 228.359C93.9596 227.131 91.5565 226.494 89.8831 227.892C88.1689 229.325 88.6182 232.187 89.1598 233.959C89.7722 235.964 90.9054 238.933 93.2807 239.82C94.7759 240.378 96.3069 239.958 96.543 238.453C96.5809 238.213 96.1653 238.109 96.1273 238.351C94.0383 239.527 92.581 239.45 91.7547 238.12C91.3969 237.749 91.1065 237.341 90.884 236.895C90.3424 235.994 89.8788 234.86 89.5762 233.858C89.1813 232.549 88.9466 231.129 89.3022 229.789C89.9568 227.322 93.0274 226.882 95.1358 228.629C95.3382 228.796 95.6437 228.527 95.4405 228.359Z" fill="#231F20"/>
<path d="M95.5422 232.796C94.4426 231.898 91.8971 230.708 90.9076 232.328C90.776 232.544 91.148 232.737 91.2797 232.521C92.1017 231.174 94.3596 232.349 95.2367 233.065C95.4406 233.231 95.7468 232.963 95.5422 232.796Z" fill="#231F20"/>
<path d="M93.6935 231.904C92.6325 232.67 92.4022 233.928 93.1083 234.961C93.2521 235.17 93.6248 234.979 93.4803 234.769C92.8665 233.871 93.0825 232.835 93.9983 232.174C94.2136 232.019 93.9067 231.75 93.6935 231.904Z" fill="#231F20"/>
<path d="M133.496 228.628C135.463 226.999 138.691 227.415 139.33 229.788C139.683 231.099 139.425 232.571 139.056 233.858C138.761 234.885 138.296 235.966 137.748 236.895C137.616 237.113 137.484 237.333 137.352 237.552C136.474 239.284 134.859 239.55 132.504 238.352C132.466 238.109 132.05 238.212 132.088 238.453C132.322 239.942 133.829 240.376 135.325 239.829C137.699 238.962 138.878 235.952 139.472 233.959C140.007 232.165 140.449 229.377 138.77 227.907C137.128 226.469 134.661 227.142 133.192 228.359C132.988 228.527 133.294 228.796 133.496 228.628Z" fill="#231F20"/>
<path d="M133.395 233.065C134.269 232.352 136.529 231.174 137.352 232.521C137.483 232.736 137.856 232.544 137.724 232.329C136.735 230.709 134.187 231.9 133.089 232.796C132.885 232.963 133.191 233.232 133.395 233.065Z" fill="#231F20"/>
<path d="M134.633 232.174C135.549 232.835 135.765 233.872 135.151 234.768C135.007 234.979 135.38 235.17 135.523 234.96C136.23 233.928 135.999 232.67 134.938 231.904C134.726 231.751 134.419 232.019 134.633 232.174Z" fill="#231F20"/>
<path d="M122.283 229.332C122.283 230.134 121.548 230.784 120.641 230.784C119.733 230.784 118.998 230.134 118.998 229.332C118.998 228.53 119.733 227.88 120.641 227.88C121.548 227.88 122.283 228.53 122.283 229.332Z" fill="#231F20"/>
<path d="M108.794 220.971L108.48 222.917C108.48 222.917 101.22 222.983 101.231 222.873C101.242 222.762 101.423 221.012 101.423 221.012L108.794 220.971Z" fill="#231F20"/>
<path d="M105.978 230.784C106.885 230.784 107.621 230.134 107.621 229.332C107.621 228.53 106.885 227.88 105.978 227.88C105.071 227.88 104.335 228.53 104.335 229.332C104.335 230.134 105.071 230.784 105.978 230.784Z" fill="#231F20"/>
<path d="M87.5093 302.097C87.5093 298.445 87.5093 294.792 87.5093 291.139C87.5093 290.976 87.2217 290.976 87.2217 291.139C87.2217 294.792 87.2217 298.445 87.2217 302.097C87.2217 302.261 87.5093 302.261 87.5093 302.097Z" fill="#231F20"/>
<path d="M139.851 302.097C139.851 298.445 139.851 294.792 139.851 291.139C139.851 290.976 139.563 290.976 139.563 291.139C139.563 294.792 139.563 298.445 139.563 302.097C139.563 302.261 139.851 302.261 139.851 302.097Z" fill="#231F20"/>
<path d="M136.259 221.721C135.971 221.184 136.382 220.564 136.822 220.114C137.262 219.665 137.784 219.175 137.741 218.582C137.663 217.48 135.729 216.97 135.807 215.868C135.833 215.49 136.107 215.167 136.29 214.824C136.635 214.175 136.601 213.412 136.288 212.753C135.984 212.114 135.417 211.572 134.679 211.329C133.772 211.029 132.493 210.963 132.277 210.129C132.165 209.696 132.438 209.257 132.439 208.812C132.442 208.027 131.587 207.425 130.722 207.248C129.857 207.071 128.953 207.193 128.065 207.162C127.631 207.147 127.112 207.037 126.978 206.67C126.916 206.5 126.957 206.314 126.95 206.135C126.918 205.405 126.065 204.898 125.248 204.785C124.431 204.671 123.594 204.82 122.77 204.756C122.512 204.735 122.244 204.689 122.043 204.544C121.562 204.195 121.72 203.515 121.495 203.002C121.173 202.262 120.111 202.005 119.22 202.091C118.328 202.177 117.471 202.498 116.575 202.498C116.31 202.498 116.03 202.463 115.825 202.314C115.64 202.18 115.547 201.975 115.418 201.798C115.01 201.239 114.213 200.966 113.462 201.003C112.711 201.041 112.007 201.351 111.407 201.752C111.042 201.994 110.684 202.283 110.234 202.349C109.962 202.39 109.685 202.344 109.413 202.304C108.023 202.101 106.288 202.195 105.624 203.294C105.208 203.981 105.365 204.862 104.912 205.53C104.558 206.051 103.902 206.34 103.386 206.743C103.111 206.958 102.895 207.193 102.721 207.443C102.479 207.302 102.184 207.231 101.896 207.269C101.134 207.37 100.615 208.091 99.8502 208.17C99.554 208.201 99.2579 208.13 98.9602 208.123C97.9951 208.1 97.0958 208.864 97.0823 209.717C97.0794 209.923 97.1195 210.132 97.0544 210.33C97.0093 210.466 96.9241 210.576 96.814 210.669C96.5171 210.917 96.037 211.039 95.6514 211.213C94.7485 211.621 94.1991 212.566 94.35 213.452C94.3815 213.636 94.4387 213.829 94.3643 214.003C94.2942 214.167 94.1225 214.277 93.963 214.382C93.1624 214.91 92.4012 215.797 92.8047 216.604C92.9843 216.964 93.3771 217.245 93.4214 217.636C93.5008 218.327 92.4599 218.791 92.4556 219.487C92.4513 220.183 93.4736 220.603 93.5344 221.298C93.5931 221.965 92.7382 222.656 93.171 223.205C93.3656 223.453 93.7655 223.542 93.9143 223.812C94.1125 224.171 93.7519 224.585 93.7913 224.983C93.8235 225.301 94.1025 225.55 94.3343 225.796C95.288 226.808 95.2186 227.795 95.3888 229.013C95.1041 226.98 95.3016 224.968 95.7845 222.988C96.1121 223.488 96.452 223.984 96.3926 224.544C96.3411 225.026 95.9876 225.484 96.0907 225.96C96.1536 226.252 96.379 226.494 96.4977 226.772C96.9384 227.801 95.8417 229.03 96.4126 230.008C96.5679 230.274 96.829 230.478 97.0272 230.72C97.5387 231.344 97.5959 232.16 97.7941 232.91C97.9923 233.661 98.4673 234.471 99.3201 234.632C98.5331 234.272 98.3342 233.355 98.3858 232.574C98.4373 231.792 98.6376 230.974 98.3013 230.249C98.0173 229.638 97.3777 229.173 97.2125 228.528C96.9084 227.34 98.3328 226.27 98.2441 225.054C98.2069 224.54 97.8985 224.072 97.7683 223.57C97.5859 222.861 97.7805 222.084 98.2849 221.511C98.7378 220.996 99.441 220.606 99.607 219.971C99.8159 219.17 99.0647 218.315 99.4024 217.549C99.7673 216.723 101.169 216.551 101.509 215.717C101.701 215.242 101.476 214.702 101.637 214.218C101.909 213.395 103.005 213.005 103.685 212.389C104.091 212.667 104.611 212.84 105.064 212.851C106.054 212.876 106.997 212.495 107.978 212.372C108.959 212.248 110.157 212.509 110.499 213.331C110.685 213.776 110.572 214.286 110.768 214.728C111.162 215.611 112.523 215.755 113.571 215.552C114.621 215.349 115.712 214.946 116.728 215.255C117.323 215.436 117.815 215.864 118.029 216.387C118.205 216.82 118.198 217.302 118.401 217.726C118.785 218.532 119.861 218.94 120.85 218.912C121.623 218.89 122.873 218.589 123.204 219.433C123.308 219.696 123.355 219.993 123.572 220.195C123.949 220.546 124.591 220.429 125.136 220.389C125.666 220.35 126.227 220.421 126.659 220.692C127.093 220.964 127.363 221.468 127.21 221.918C127.175 222.02 127.12 222.12 127.122 222.227C127.132 222.668 127.917 222.644 128.287 222.94C128.562 223.161 128.564 223.552 128.426 223.858C128.288 224.163 128.04 224.418 127.863 224.707C127.268 225.678 127.627 227.02 128.65 227.653C128.061 227.04 127.971 226.09 128.437 225.398C128.688 225.027 129.073 224.736 129.303 224.354C129.809 223.516 129.42 222.428 128.656 221.76C128.107 221.28 127.329 220.864 127.281 220.183C127.245 219.683 127.645 219.308 127.737 218.84C127.841 218.314 127.328 217.791 127.543 217.317C128.322 217.387 129.119 217.299 129.855 217.062C129.978 217.022 130.114 216.977 130.239 217.015C130.347 217.047 130.421 217.132 130.494 217.21C130.582 217.302 130.681 217.387 130.787 217.464C132.683 220.913 133.22 224.753 133.193 228.604C133.67 228.027 133.352 227.64 134.108 227.157C134.563 226.866 135.263 226.659 135.359 226.095C135.416 225.758 135.188 225.426 135.215 225.086C135.295 224.079 137.392 223.749 137.125 222.768C137.013 222.342 136.471 222.116 136.259 221.721Z" fill="#231F20"/>
<path d="M112.699 233.194C111.359 233.031 108.767 233.105 109.039 234.91C109.327 236.82 111.977 236.488 113.372 235.931C113.625 235.831 113.406 235.502 113.154 235.602C112.046 236.044 109.931 236.471 109.497 234.999C109.029 233.411 111.535 233.434 112.586 233.562C112.856 233.595 112.973 233.227 112.699 233.194Z" fill="#231F20"/>
<path d="M107.049 241.544C106.736 242.366 106.538 243.205 106.442 244.068C106.414 244.312 106.846 244.31 106.873 244.068C106.965 243.239 107.165 242.434 107.465 241.645C107.553 241.412 107.137 241.312 107.049 241.544Z" fill="#231F20"/>
<path d="M107.677 242.48C107.605 242.967 107.532 243.454 107.46 243.941C107.423 244.183 107.855 244.181 107.891 243.941C107.963 243.454 108.036 242.967 108.109 242.48C108.144 242.238 107.713 242.241 107.677 242.48Z" fill="#231F20"/>
<path d="M108.968 242.163C108.897 242.65 108.876 243.135 108.904 243.625C108.918 243.869 109.349 243.87 109.335 243.625C109.308 243.135 109.33 242.65 109.4 242.163C109.435 241.921 109.003 241.922 108.968 242.163Z" fill="#231F20"/>
<path d="M110.183 242.164C110.211 242.567 110.24 242.969 110.269 243.37C110.286 243.614 110.717 243.616 110.7 243.37C110.671 242.968 110.643 242.566 110.614 242.164C110.596 241.92 110.165 241.919 110.183 242.164Z" fill="#231F20"/>
<path d="M111.128 242.1C111.127 242.531 111.196 242.95 111.339 243.362C111.42 243.595 111.836 243.496 111.754 243.26C111.623 242.88 111.558 242.498 111.56 242.1C111.561 241.855 111.129 241.855 111.128 242.1Z" fill="#231F20"/>
<path d="M112.352 242.088C112.396 242.364 112.44 242.64 112.485 242.915C112.523 243.157 112.939 243.054 112.9 242.814C112.856 242.538 112.812 242.263 112.767 241.987C112.728 241.746 112.312 241.848 112.352 242.088Z" fill="#231F20"/>
<path d="M114.034 242.006C114.178 242.302 114.321 242.599 114.465 242.895C114.574 243.119 114.946 242.926 114.837 242.703C114.693 242.406 114.55 242.109 114.406 241.814C114.297 241.588 113.925 241.783 114.034 242.006Z" fill="#231F20"/>
<path d="M115.099 241.948C115.248 242.221 115.398 242.494 115.548 242.767C115.669 242.987 116.041 242.795 115.92 242.574C115.77 242.302 115.621 242.029 115.471 241.756C115.35 241.536 114.978 241.728 115.099 241.948Z" fill="#231F20"/>
<path d="M115.96 241.832C116.029 242.179 116.19 242.471 116.436 242.746C116.607 242.938 116.911 242.667 116.74 242.477C116.542 242.254 116.431 242.009 116.376 241.731C116.328 241.49 115.912 241.592 115.96 241.832Z" fill="#231F20"/>
<path d="M116.668 241.655C116.713 241.983 116.81 242.284 116.972 242.581C117.092 242.803 117.464 242.609 117.344 242.389C117.217 242.155 117.134 241.913 117.099 241.655C117.066 241.415 116.634 241.412 116.668 241.655Z" fill="#231F20"/>
<path d="M117.475 241.819C117.618 242.115 117.761 242.412 117.905 242.709C118.014 242.934 118.385 242.74 118.277 242.516C118.134 242.22 117.991 241.923 117.848 241.627C117.739 241.402 117.368 241.595 117.475 241.819Z" fill="#231F20"/>
<path d="M118.275 241.878C118.514 242.197 118.753 242.515 118.992 242.833C119.145 243.036 119.518 242.845 119.364 242.64C119.125 242.322 118.886 242.004 118.647 241.686C118.494 241.483 118.12 241.673 118.275 241.878Z" fill="#231F20"/>
<path d="M118.916 241.247C119.367 241.8 119.819 242.352 120.271 242.906C120.432 243.103 120.806 242.913 120.643 242.714C120.191 242.161 119.74 241.608 119.288 241.055C119.127 240.858 118.753 241.047 118.916 241.247Z" fill="#231F20"/>
<path d="M113.746 276.402C113.686 281.474 113.817 286.579 113.575 291.648C113.564 291.893 113.995 291.893 114.007 291.648C114.249 286.579 114.118 281.474 114.178 276.402C114.181 276.156 113.749 276.156 113.746 276.402Z" fill="#231F20"/>
<path d="M115.729 280.404C115.729 281.281 114.925 281.992 113.933 281.992C112.941 281.992 112.136 281.281 112.136 280.404C112.136 279.527 112.94 278.816 113.933 278.816C114.925 278.816 115.729 279.527 115.729 280.404Z" fill="#231F20"/>
<path d="M115.729 287.096C115.729 287.973 114.925 288.684 113.933 288.684C112.941 288.684 112.136 287.973 112.136 287.096C112.136 286.219 112.94 285.508 113.933 285.508C114.925 285.507 115.729 286.218 115.729 287.096Z" fill="#231F20"/>
<path d="M111.122 255.647C111.231 255.851 111.251 256.056 111.195 256.275C111.133 256.514 111.55 256.615 111.611 256.376C111.694 256.049 111.654 255.756 111.494 255.454C111.377 255.232 111.005 255.426 111.122 255.647Z" fill="#231F20"/>
<path d="M112.358 255.695C112.322 255.934 112.344 256.153 112.419 256.384C112.496 256.619 112.911 256.519 112.835 256.283C112.77 256.082 112.758 255.9 112.79 255.695C112.825 255.453 112.394 255.455 112.358 255.695Z" fill="#231F20"/>
<path d="M114.081 255.186C114.034 255.533 114.08 255.865 114.22 256.192C114.316 256.42 114.733 256.321 114.635 256.091C114.508 255.793 114.469 255.503 114.512 255.187C114.545 254.943 114.113 254.945 114.081 255.186Z" fill="#231F20"/>
<path d="M115.579 254.868C115.591 255.481 115.649 256.089 115.744 256.696C115.782 256.938 116.198 256.835 116.16 256.595C116.069 256.022 116.021 255.447 116.011 254.868C116.006 254.623 115.574 254.622 115.579 254.868Z" fill="#231F20"/>
<path d="M117.099 254.805C117.067 255.379 117.089 255.949 117.166 256.52C117.198 256.76 117.63 256.763 117.597 256.52C117.521 255.949 117.499 255.379 117.53 254.805C117.544 254.56 117.112 254.56 117.099 254.805Z" fill="#231F20"/>
<path d="M118.172 255.058C118.125 255.461 118.079 255.863 118.033 256.265C118.005 256.509 118.437 256.508 118.464 256.265C118.511 255.863 118.557 255.461 118.603 255.058C118.631 254.815 118.2 254.817 118.172 255.058Z" fill="#231F20"/>
<path d="M119.179 255.122C119.179 255.313 119.179 255.504 119.179 255.694C119.179 255.939 119.611 255.94 119.611 255.694C119.611 255.504 119.611 255.313 119.611 255.122C119.611 254.877 119.179 254.876 119.179 255.122Z" fill="#231F20"/>
<path d="M119.53 255.305C119.458 255.368 119.386 255.432 119.315 255.495C119.118 255.669 119.423 255.939 119.619 255.765C119.691 255.702 119.763 255.638 119.835 255.575C120.031 255.401 119.727 255.131 119.53 255.305Z" fill="#231F20"/>
<path d="M109.507 255.981C109.697 256.375 109.829 256.784 109.916 257.205C109.965 257.446 110.381 257.344 110.332 257.104C110.238 256.648 110.084 256.214 109.879 255.788C109.771 255.564 109.399 255.757 109.507 255.981Z" fill="#231F20"/>
<path d="M108.542 255.429C108.595 255.618 108.648 255.808 108.702 255.997C108.769 256.235 109.185 256.134 109.117 255.896C109.064 255.707 109.011 255.517 108.957 255.328C108.891 255.09 108.474 255.191 108.542 255.429Z" fill="#231F20"/>
<path d="M117.279 262.813C118.797 262.546 120.074 261.655 121.196 260.711C122.255 259.82 123.234 258.855 124.125 257.831C124.414 255.897 125.006 254 125.903 252.218C125.903 252.218 122.274 255.714 121.482 256.013C121.383 256.073 118.138 257.444 115.479 257.654C115.311 257.674 111.722 258.135 110.124 257.764C109.926 257.718 107.462 256.635 104.373 253.877C103.964 253.488 102.805 252.217 102.805 252.217C103.401 253.401 103.862 254.636 104.19 255.897C106.166 257.873 108.663 259.616 110.917 261.005C112.797 262.164 115.032 263.208 117.279 262.813Z" fill="#231F20"/>
<path d="M131.155 239.812C131.133 240.074 131.112 240.336 131.093 240.6C130.999 241.854 130.845 243.119 130.373 244.311C130.805 243.699 131.241 243.08 131.504 242.397C131.708 241.867 131.802 241.31 131.895 240.756C132.42 237.64 132.808 234.524 133.018 231.372C133.142 229.513 133.266 227.654 133.39 225.795C133.341 226.531 133.044 227.256 132.901 227.979C132.718 228.903 132.728 229.874 132.6 230.807C132.362 232.52 131.913 234.196 131.628 235.899C131.409 237.205 131.265 238.5 131.155 239.812Z" fill="#231F20"/>
<path d="M97.3356 239.812C97.3578 240.074 97.3785 240.336 97.3978 240.6C97.4915 241.854 97.6461 243.119 98.1182 244.311C97.6861 243.699 97.2497 243.08 96.9872 242.397C96.7833 241.867 96.6888 241.31 96.5958 240.756C96.0707 237.64 95.6829 234.524 95.4726 231.372C95.3488 229.513 95.2244 227.654 95.1006 225.795C95.15 226.531 95.4468 227.256 95.5899 227.979C95.7724 228.903 95.7623 229.874 95.8911 230.807C96.1286 232.52 96.5779 234.196 96.8627 235.899C97.0816 237.205 97.2247 238.5 97.3356 239.812Z" fill="#231F20"/>
</svg>
