<svg width="228" height="305" viewBox="0 0 228 305" fill="none" xmlns="http://www.w3.org/2000/svg">
<rect width="228" height="303" rx="26" fill="#FDFDFD"/>
<path d="M70.4979 304.075L70.0073 302.003C70.7973 296.695 71.5873 291.386 72.3773 286.078C72.9003 282.562 73.4749 278.915 75.561 275.95C77.9406 272.566 81.9717 270.53 86.0081 269.059C89.2662 267.872 92.5922 266.707 95.8806 265.634C97.1109 265.233 98.3148 264.649 99.5082 264.087L134.139 265.006C135.219 265.516 136.309 266.027 137.42 266.39C140.709 267.463 144.034 268.628 147.293 269.814C151.329 271.285 155.36 273.321 157.74 276.704C159.826 279.671 160.4 283.317 160.924 286.833C161.714 292.141 162.504 298.766 163.294 304.074" fill="#003D4D"/>
<path d="M122.59 273.851H110.804V304.075H122.59V273.851Z" fill="white"/>
<path d="M110.804 302.322V299.29C110.749 299.285 110.694 299.283 110.639 299.283H97.0211C97.0167 297.364 97.0122 295.367 97.0086 293.345H110.639C110.695 293.345 110.75 293.343 110.804 293.338V290.306C110.749 290.302 110.694 290.299 110.639 290.299H97.0034C96.9997 288.302 96.9967 286.307 96.9945 284.362H110.751C110.768 284.362 110.786 284.359 110.804 284.359V281.316C110.786 281.316 110.768 281.314 110.751 281.314H96.9916C96.9901 279.216 96.9886 277.214 96.9894 275.376H99.5069C99.217 274.324 99.0275 273.302 98.9109 272.328H96.9916C96.996 268.548 97.0071 265.883 97.0292 265.209C96.7836 265.309 96.538 265.405 96.2901 265.494C96.2687 266.565 96.2569 269.041 96.2517 272.328H95.7029C95.7066 269.154 95.7147 266.768 95.731 265.684C95.4861 265.764 95.2404 265.846 94.9948 265.927C94.9778 267.156 94.9683 269.425 94.9638 272.328H86.6042C86.6057 271.021 86.6079 269.847 86.6116 268.841C86.411 268.914 86.2096 268.987 86.009 269.06C85.964 269.076 85.9182 269.093 85.8732 269.11C85.8695 270.059 85.8666 271.14 85.8651 272.328H85.3163C85.3178 271.221 85.3193 270.211 85.3222 269.316C85.0759 269.411 84.8295 269.507 84.5839 269.606C84.5809 270.43 84.5787 271.343 84.5772 272.328H79.3341C78.2114 273.098 77.1883 273.973 76.3201 274.981C76.6093 275.225 76.9921 275.376 77.4126 275.376H84.5743C84.5735 277.221 84.5735 279.224 84.575 281.314H73.2531C73.0037 282.311 72.8134 283.327 72.6467 284.344C72.722 284.354 72.7972 284.361 72.8754 284.361H84.578C84.5802 286.317 84.5831 288.314 84.5868 290.298H71.7512C71.6015 291.307 71.451 292.315 71.3005 293.324C71.3861 293.337 71.4724 293.345 71.5617 293.345H84.5927C84.5964 295.391 84.6008 297.39 84.6052 299.283C84.1767 299.283 83.7474 299.283 83.3188 299.283C82.2751 299.283 81.2313 299.283 80.1876 299.283C78.8923 299.283 77.5962 299.283 76.301 299.283C75.1171 299.283 73.9332 299.283 72.7493 299.283C72.0404 299.283 71.3315 299.283 70.6219 299.283C70.5858 299.283 70.5135 299.269 70.4803 299.283C70.3202 299.346 70.3276 299.774 70.3084 299.941C70.2398 300.528 70.242 301.119 70.2627 301.709C70.2679 301.862 70.2074 302.337 70.3733 302.373C70.4478 302.39 70.6094 302.331 70.7053 302.331C71.0793 302.326 71.4547 302.331 71.8287 302.331C73.0104 302.331 74.1913 302.331 75.373 302.331C76.7679 302.331 78.162 302.331 79.5561 302.331C80.7282 302.331 81.8996 302.331 83.0717 302.331C83.5851 302.331 84.0978 302.331 84.6134 302.331C84.6148 302.93 84.6163 303.512 84.6178 304.076H85.3591C85.3576 303.507 85.3562 302.925 85.3547 302.331H85.902C85.9035 302.93 85.905 303.512 85.9064 304.076H86.6478C86.6463 303.507 86.6448 302.925 86.6433 302.331H95.0015C95.0029 302.93 95.0044 303.512 95.0059 304.076H95.7472C95.7457 303.507 95.7443 302.925 95.7428 302.331H96.2901C96.2916 302.93 96.2931 303.512 96.2945 304.076H97.0358C97.0344 303.507 97.0329 302.925 97.0314 302.331H110.641C110.694 302.329 110.749 302.326 110.804 302.322ZM85.3134 275.374H85.8607C85.86 277.219 85.86 279.223 85.8622 281.312H85.3156C85.3141 279.214 85.3134 277.212 85.3134 275.374ZM85.3185 284.359H85.8644C85.8666 286.315 85.8695 288.313 85.8732 290.297H85.3267C85.3237 288.3 85.3215 286.305 85.3185 284.359ZM85.3451 299.282C85.3407 297.363 85.3362 295.367 85.3325 293.345H85.8791C85.8828 295.39 85.8873 297.389 85.8917 299.282H85.3451ZM86.602 275.374H94.9601C94.9594 277.219 94.9594 279.223 94.9616 281.312H86.6042C86.602 279.214 86.6013 277.212 86.602 275.374ZM86.6072 284.359H94.9638C94.9661 286.315 94.969 288.313 94.9727 290.297H86.616C86.6123 288.3 86.6094 286.305 86.6072 284.359ZM86.6337 299.282C86.6293 297.363 86.6249 295.367 86.6212 293.345H94.9786C94.9823 295.39 94.9867 297.389 94.9911 299.282H86.6337ZM95.7007 275.374H96.2481C96.2473 277.219 96.2473 279.223 96.2495 281.312H95.7037C95.7015 279.214 95.7007 277.212 95.7007 275.374ZM95.7066 284.359H96.2525C96.2547 286.315 96.2576 288.313 96.2613 290.297H95.7155C95.7118 288.3 95.7088 286.305 95.7066 284.359ZM95.7324 299.282C95.728 297.363 95.7236 295.367 95.7199 293.345H96.2665C96.2702 295.39 96.2746 297.389 96.279 299.282H95.7324Z" fill="#EC2D4A"/>
<path d="M162.57 299.885H148.49C148.494 297.993 148.498 295.993 148.502 293.948H161.431C161.519 293.948 161.812 293.94 161.897 293.926C161.748 292.918 161.64 291.909 161.491 290.901H148.508C148.512 288.916 148.515 286.919 148.517 284.963H160.128C160.205 284.963 161.051 284.947 160.771 284.947C160.606 283.93 160.327 282.914 160.079 281.916H148.52C148.521 279.827 148.522 277.824 148.521 275.978H155.626C156.044 275.978 156.423 275.828 156.71 275.583C155.848 274.575 154.833 273.7 153.719 272.931H148.518C148.516 271.944 148.514 271.032 148.511 270.208C148.268 270.11 148.023 270.013 147.779 269.919C147.781 270.813 147.783 271.824 147.784 272.931H147.24C147.238 271.742 147.236 270.661 147.232 269.713C147.187 269.696 147.142 269.679 147.097 269.662C146.898 269.589 146.699 269.517 146.499 269.444C146.502 270.448 146.505 271.623 146.506 272.931H138.212C138.208 270.027 138.197 267.758 138.181 266.53C137.938 266.448 137.694 266.368 137.451 266.287C137.466 267.37 137.475 269.757 137.479 272.931H136.935C136.929 269.643 136.918 267.167 136.896 266.097C136.651 266.008 136.406 265.912 136.163 265.812C136.185 266.486 136.196 269.151 136.201 272.931H134.296C134.181 273.904 133.992 274.928 133.705 275.978H136.203C136.203 277.815 136.202 279.818 136.201 281.916H122.55C122.532 281.916 122.515 281.918 122.497 281.919V284.961C122.515 284.962 122.532 284.964 122.55 284.964H136.198C136.195 286.91 136.192 288.905 136.19 290.901H122.661C122.606 290.901 122.551 290.904 122.497 290.909V293.94C122.551 293.946 122.605 293.948 122.661 293.948H136.184C136.18 295.97 136.176 297.966 136.171 299.885H122.661C122.605 299.885 122.551 299.888 122.496 299.893V302.924C122.55 302.929 122.605 302.932 122.661 302.932H136.164C136.163 303.321 136.162 303.697 136.161 304.076H136.896C136.897 303.698 136.898 303.325 136.899 302.932H137.442C137.441 303.321 137.44 303.697 137.439 304.076H138.174C138.175 303.698 138.177 303.325 138.177 302.932H146.469C146.468 303.321 146.467 303.697 146.466 304.076H147.202C147.202 303.698 147.204 303.325 147.205 302.932H147.748C147.747 303.321 147.745 303.697 147.745 304.076H148.48C148.481 303.698 148.482 303.325 148.483 302.932H162.756C162.811 302.932 162.864 302.929 162.917 302.924L162.972 302.605C162.837 301.699 162.703 300.792 162.57 299.885ZM137.448 299.885H136.906C136.91 297.993 136.915 295.993 136.918 293.948H137.46C137.457 295.97 137.452 297.966 137.448 299.885ZM137.466 290.9H136.924C136.928 288.916 136.931 286.919 136.933 284.963H137.475C137.472 286.908 137.469 288.903 137.466 290.9ZM137.477 281.915H136.935C136.937 279.827 136.938 277.823 136.937 275.977H137.48C137.48 277.815 137.48 279.818 137.477 281.915ZM146.476 299.885H138.184C138.189 297.993 138.193 295.993 138.197 293.948H146.488C146.484 295.97 146.48 297.966 146.476 299.885ZM146.494 290.9H138.203C138.206 288.916 138.209 286.919 138.211 284.963H146.502C146.499 286.908 146.496 288.903 146.494 290.9ZM146.505 281.915H138.214C138.216 279.827 138.217 277.823 138.215 275.977H146.508C146.508 277.815 146.507 279.818 146.505 281.915ZM147.754 299.885H147.211C147.216 297.993 147.22 295.993 147.224 293.948H147.766C147.762 295.97 147.759 297.966 147.754 299.885ZM147.772 290.9H147.23C147.233 288.916 147.236 286.919 147.239 284.963H147.781C147.778 286.908 147.775 288.903 147.772 290.9ZM147.784 281.915H147.242C147.243 279.827 147.244 277.823 147.243 275.977H147.786C147.786 277.815 147.785 279.818 147.784 281.915Z" fill="#EC2D4A"/>
<path d="M118.762 196.475C118.419 195.614 117.535 195 116.495 195C115.455 195 114.57 195.614 114.228 196.475H118.762Z" fill="#231F20"/>
<path d="M110.745 273.202C114.759 274.411 118.705 274.21 122.649 272.845C122.915 272.753 122.8 272.351 122.531 272.445C118.65 273.788 114.816 273.992 110.864 272.802C110.59 272.72 110.474 273.12 110.745 273.202Z" fill="#231F20"/>
<path d="M130.993 263.393C129.762 262.88 128.516 262.397 127.278 261.899C127.061 261.812 126.872 262.109 127.091 262.198C128.329 262.695 129.575 263.178 130.806 263.692C131.022 263.783 131.211 263.484 130.993 263.393Z" fill="#231F20"/>
<path d="M163.473 304.029C162.714 298.847 162.086 293.65 161.346 288.466C160.772 284.447 160.347 280.094 157.901 276.617C152.834 269.419 141.857 268.406 134.234 264.857C134.021 264.758 133.833 265.056 134.047 265.156C142.033 268.873 153.516 269.805 158.223 277.805C160.754 282.107 160.89 287.726 161.53 292.483C162.051 296.363 162.549 300.245 163.116 304.121C163.147 304.341 163.504 304.247 163.473 304.029Z" fill="#231F20"/>
<path d="M106.023 261.143C104.738 261.662 103.456 262.189 102.179 262.725C101.962 262.816 102.15 263.115 102.366 263.024C103.644 262.488 104.925 261.961 106.211 261.442C106.428 261.354 106.24 261.055 106.023 261.143Z" fill="#231F20"/>
<path opacity="0.3" d="M132.687 240.466C132.094 241.712 131.501 242.959 130.909 244.206C130.871 244.286 130.998 244.357 131.037 244.275C131.629 243.029 132.222 241.782 132.814 240.535C132.853 240.455 132.725 240.384 132.687 240.466Z" fill="#EFA841"/>
<path d="M134.321 212.093C136.874 219.572 136.211 228.829 134.143 236.378C132.996 240.566 130.938 244.584 128.01 247.946C124.729 251.713 121.119 253.346 115.908 253.698C107.167 254.289 101.098 243.764 99.0985 236.939C96.8686 229.33 96.1487 219.788 98.7872 212.229C98.8765 211.973 98.4472 211.865 98.3587 212.118C95.3624 220.704 96.3103 232.096 99.8974 240.451C101.524 244.238 103.922 247.721 107.055 250.573C109.911 253.172 111.904 254.381 115.908 254.114C119.728 253.86 123.098 253.161 125.922 250.673C129.128 247.85 131.557 244.257 133.191 240.451C136.796 232.053 137.697 220.619 134.749 211.983C134.662 211.729 134.233 211.837 134.321 212.093Z" fill="#231F20"/>
<path d="M134.321 212.093C136.874 219.572 136.211 228.829 134.143 236.378C132.996 240.566 130.938 244.584 128.01 247.946C124.729 251.713 121.119 253.346 115.908 253.698C107.167 254.289 101.098 243.764 99.0985 236.939C96.8686 229.33 96.1487 219.788 98.7872 212.229C98.8765 211.973 98.4472 211.865 98.3587 212.118C95.3624 220.704 96.3103 232.096 99.8974 240.451C101.524 244.238 103.922 247.721 107.055 250.573C109.911 253.172 111.904 254.381 115.908 254.114C119.728 253.86 123.098 253.161 125.922 250.673C129.128 247.85 131.557 244.257 133.191 240.451C136.796 232.053 137.697 220.619 134.749 211.983C134.662 211.729 134.233 211.837 134.321 212.093Z" fill="#231F20"/>
<path d="M119.425 216.318L119.984 218.396C119.984 218.396 127.437 217.738 127.412 217.618C127.387 217.5 126.988 215.62 126.988 215.62L119.425 216.318Z" fill="#231F20"/>
<path d="M109.103 240.069C113.324 240.961 118.037 241.087 121.876 239.021C122.124 238.888 121.9 238.528 121.651 238.663C117.945 240.657 113.295 240.53 109.221 239.669C108.943 239.609 108.824 240.009 109.103 240.069Z" fill="#231F20"/>
<path d="M96.9084 221.533C95.3815 220.195 92.9038 219.5 91.1785 221.024C89.4111 222.586 89.8744 225.707 90.4327 227.639C91.0642 229.825 92.2326 233.062 94.6815 234.029C96.2232 234.637 97.801 234.18 98.0451 232.538C98.0842 232.277 97.6556 232.164 97.6166 232.428C95.4627 233.71 93.9601 233.625 93.1081 232.176C92.7393 231.772 92.4398 231.326 92.2104 230.84C91.6521 229.857 91.1733 228.622 90.862 227.529C90.4549 226.102 90.2129 224.553 90.5795 223.092C91.2545 220.403 94.4204 219.923 96.5942 221.827C96.8029 222.009 97.1179 221.716 96.9084 221.533Z" fill="#231F20"/>
<path d="M97.0131 226.371C95.8793 225.392 93.2548 224.095 92.2347 225.862C92.099 226.097 92.4825 226.307 92.6182 226.071C93.4658 224.604 95.7938 225.884 96.6981 226.665C96.9083 226.846 97.224 226.553 97.0131 226.371Z" fill="#231F20"/>
<path d="M95.1069 225.399C94.0137 226.234 93.7754 227.605 94.5035 228.731C94.6518 228.959 95.0361 228.751 94.8871 228.522C94.2534 227.543 94.4769 226.413 95.4204 225.693C95.6431 225.523 95.3267 225.23 95.1069 225.399Z" fill="#231F20"/>
<path d="M136.325 221.827C138.352 220.05 141.68 220.504 142.339 223.092C142.703 224.521 142.437 226.126 142.057 227.528C141.753 228.648 141.274 229.827 140.708 230.839C140.572 231.078 140.436 231.317 140.3 231.556C139.395 233.444 137.729 233.734 135.302 232.428C135.263 232.164 134.835 232.276 134.874 232.538C135.115 234.162 136.668 234.635 138.211 234.039C140.659 233.094 141.874 229.811 142.486 227.639C143.038 225.683 143.494 222.643 141.763 221.041C140.07 219.473 137.527 220.205 136.011 221.533C135.801 221.716 136.116 222.009 136.325 221.827Z" fill="#231F20"/>
<path d="M136.22 226.664C137.121 225.887 139.451 224.602 140.3 226.071C140.435 226.306 140.82 226.097 140.683 225.861C139.664 224.096 137.037 225.394 135.905 226.37C135.695 226.553 136.01 226.846 136.22 226.664Z" fill="#231F20"/>
<path d="M137.497 225.692C138.442 226.413 138.664 227.544 138.032 228.521C137.883 228.75 138.268 228.959 138.415 228.73C139.144 227.605 138.906 226.233 137.812 225.398C137.592 225.23 137.275 225.523 137.497 225.692Z" fill="#231F20"/>
<path d="M123.07 224.176C124.005 224.176 124.764 223.467 124.764 222.593C124.764 221.719 124.005 221.01 123.07 221.01C122.135 221.01 121.376 221.719 121.376 222.593C121.376 223.467 122.135 224.176 123.07 224.176Z" fill="#231F20"/>
<path d="M111.851 215.937L111.527 218.059C111.527 218.059 104.042 218.131 104.054 218.011C104.066 217.89 104.251 215.982 104.251 215.982L111.851 215.937Z" fill="#231F20"/>
<path d="M106.258 222.593C106.258 223.467 107.017 224.176 107.952 224.176C108.887 224.176 109.646 223.467 109.646 222.593C109.646 221.719 108.887 221.01 107.952 221.01C107.017 221.01 106.258 221.719 106.258 222.593Z" fill="#231F20"/>
<path d="M114.48 242.152C115.422 242.134 116.361 242.081 117.299 241.992C117.581 241.965 117.584 241.55 117.299 241.576C116.361 241.665 115.422 241.718 114.48 241.736C114.195 241.742 114.194 242.158 114.48 242.152Z" fill="#231F20"/>
<path d="M106.726 256.938C106.726 256.938 94.3748 262.797 110.751 270.138C110.676 270.346 104.897 275.332 101.044 279.28C101.044 279.28 93.0692 262.438 106.726 256.938Z" fill="#004354" stroke="#231F20" stroke-width="0.6027" stroke-miterlimit="10" stroke-linecap="round" stroke-linejoin="round"/>
<path d="M106.726 256.938C106.726 256.938 98.3578 260.994 104.443 266.328C104.525 266.165 106.987 260.547 106.726 256.938Z" fill="#231F20"/>
<path d="M126.614 256.938C126.614 256.938 138.966 262.797 122.59 270.138C122.664 270.346 128.444 275.332 132.297 279.28C132.149 279.003 140.272 262.438 126.614 256.938Z" stroke="#231F20" stroke-width="0.6027" stroke-miterlimit="10" stroke-linecap="round" stroke-linejoin="round"/>
<path d="M126.614 256.938C126.614 256.938 134.983 260.994 128.897 266.328C128.814 266.165 126.353 260.547 126.614 256.938Z" fill="#231F20"/>
<path d="M126.614 256.938C126.614 256.938 138.966 262.797 122.59 270.138C122.664 270.346 128.444 275.332 132.297 279.28C132.149 279.003 140.272 262.438 126.614 256.938Z" fill="#004354" stroke="#231F20" stroke-width="0.6027" stroke-miterlimit="10" stroke-linecap="round" stroke-linejoin="round"/>
<path d="M126.614 256.938C126.614 256.938 134.983 260.994 128.897 266.328C128.814 266.165 126.353 260.547 126.614 256.938Z" fill="#231F20"/>
<path d="M110.751 270.138V301.928" stroke="#231F20" stroke-width="0.6027" stroke-miterlimit="10" stroke-linecap="round" stroke-linejoin="round"/>
<path d="M122.59 270.138V303.905" stroke="#231F20" stroke-width="0.6027" stroke-miterlimit="10" stroke-linecap="round" stroke-linejoin="round"/>
<path d="M125.657 288.007C126.592 288.007 127.35 287.299 127.35 286.426C127.35 285.552 126.592 284.844 125.657 284.844C124.723 284.844 123.965 285.552 123.965 286.426C123.965 287.299 124.723 288.007 125.657 288.007Z" fill="#231F20"/>
<path d="M127.349 296.791C127.349 297.664 126.592 298.373 125.657 298.373C124.722 298.373 123.965 297.664 123.965 296.791C123.965 295.918 124.722 295.209 125.657 295.209C126.592 295.209 127.349 295.918 127.349 296.791Z" fill="#231F20"/>
<path d="M107.676 281.681V285.514" stroke="#231F20" stroke-width="0.6027" stroke-miterlimit="10" stroke-linecap="round" stroke-linejoin="round"/>
<path d="M107.676 290.87V294.701" stroke="#231F20" stroke-width="0.6027" stroke-miterlimit="10" stroke-linecap="round" stroke-linejoin="round"/>
<path d="M101.043 279.281L110.751 275.171V270.369L101.043 279.281Z" fill="#231F20"/>
<path d="M132.204 279.281L122.496 275.171V270.369L132.204 279.281Z" fill="#231F20"/>
<path d="M116.976 228.211C116.203 227.669 115.133 227.783 114.241 227.98C113.458 228.153 111.806 228.663 111.449 229.418C111.179 229.991 112.021 230.199 112.478 230.28C113.876 230.528 115.34 230.128 116.675 229.781C116.95 229.709 116.833 229.309 116.557 229.38C115.685 229.607 114.803 229.844 113.897 229.912C113.521 229.94 113.137 229.954 112.765 229.891C112.435 229.893 112.14 229.792 111.879 229.587C112.066 229.425 112.266 229.281 112.478 229.152C113.545 228.477 115.586 227.751 116.752 228.57C116.98 228.73 117.202 228.369 116.976 228.211Z" fill="#231F20"/>
<path d="M136.656 211.369C134.749 198.754 124.763 196.648 119.152 196.484L114.984 196.475C109.718 196.397 98.3775 197.839 96.332 211.369C96.332 211.369 116.842 216.952 136.656 211.369Z" stroke="#231F20" stroke-width="0.6027" stroke-miterlimit="10"/>
<path d="M110.783 207.52C110.783 207.52 115.35 208.907 121.577 207.298C121.585 207.401 121.857 210.855 121.857 210.855C121.857 210.855 114.482 212.022 111.031 210.663C110.69 210.582 110.783 207.52 110.783 207.52Z" fill="#231F20"/>
<path d="M98.0849 230.382C98.4677 230.549 99.1404 230.513 99.3639 230.268C99.4082 230.22 99.4149 230.151 99.4171 230.087C99.4392 229.567 99.3374 229.05 99.243 228.537C98.9007 226.677 98.6462 224.803 98.4795 222.922C98.4006 222.026 98.2855 221.102 98.3313 220.207C98.38 219.258 98.4242 218.311 98.4972 217.363C98.6027 216.001 98.7443 214.641 98.9221 213.285C98.9767 212.87 99.0342 212.453 99.0136 212.034C99.0114 211.989 99.0062 211.939 98.9737 211.905C98.9428 211.873 98.8941 211.863 98.8483 211.854C98.4367 211.776 98.0657 211.677 97.6607 211.578C97.3524 211.503 96.9902 211.462 96.8235 211.774C96.5742 212.288 96.6937 213.202 96.662 213.764C96.5838 215.142 96.5491 216.522 96.558 217.901C96.575 220.661 96.766 223.419 97.1282 226.158C97.2322 226.94 97.3495 227.721 97.4808 228.5C97.5634 228.987 97.5457 229.812 97.8688 230.229C97.9189 230.291 97.9942 230.342 98.0849 230.382Z" fill="#050100"/>
<path d="M134.983 230.382C134.6 230.549 133.927 230.513 133.704 230.268C133.66 230.22 133.653 230.151 133.65 230.087C133.628 229.567 133.73 229.05 133.824 228.537C134.337 225.752 134.652 222.935 134.771 220.111C134.824 218.84 135.033 217.352 134.74 216.109C134.437 214.825 134.484 213.433 134.43 212.116C134.428 212.04 134.427 211.955 134.48 211.896C134.523 211.847 134.593 211.829 134.659 211.812C135.123 211.696 135.985 211.241 136.243 211.773C136.492 212.287 136.373 213.201 136.404 213.763C136.483 215.141 136.517 216.521 136.508 217.9C136.491 220.66 136.3 223.419 135.938 226.157C135.835 226.939 135.717 227.72 135.586 228.499C135.503 228.986 135.521 229.811 135.198 230.229C135.148 230.291 135.074 230.342 134.983 230.382Z" fill="#050100"/>
<path d="M134.703 211.765C137.895 210.699 136.026 217.993 136.059 221.162C135.346 219.942 134.095 219.082 132.818 218.37C129.813 216.694 126.43 215.609 122.956 215.208C121.579 215.049 120.191 214.996 118.805 214.943C116.336 214.85 113.867 214.756 111.398 214.661C107.602 214.517 103.566 214.299 100.476 212.233C100.476 212.233 120.568 216.486 134.703 211.765Z" fill="#050100"/>
<path d="M133.825 203.691C138.428 202.912 144.957 204.367 146.496 209.136C148.436 215.143 140.189 216.231 135.961 216.311C135.676 216.317 135.674 216.732 135.961 216.727C140.338 216.644 148.075 215.572 147.111 209.769C146.195 204.252 138.651 202.453 133.707 203.291C133.426 203.338 133.545 203.739 133.825 203.691Z" fill="#231F20"/>
<path d="M70.6766 304.029C69.8144 300.387 71.0233 296.425 71.5684 292.759C72.2847 287.946 72.4787 282.598 74.5913 278.103C78.798 269.153 91.2352 268.158 99.6015 264.237C99.8147 264.137 99.6273 263.839 99.4141 263.938C91.067 267.85 78.4631 268.925 74.2173 277.931C72.0936 282.435 71.9277 287.85 71.2107 292.667C70.6435 296.478 69.4219 300.334 70.3189 304.121C70.3713 304.339 70.7283 304.246 70.6766 304.029Z" fill="#231F20"/>
<path d="M99.33 264.041C97.7589 269.085 98.6212 274.656 100.883 279.368C100.927 279.459 101.055 279.466 101.137 279.43C102.653 278.769 104.17 278.107 105.685 277.446C106.411 277.129 110.101 274.92 110.839 275.197C110.394 275.03 110.619 276.661 110.619 277.165C110.619 278.946 110.619 280.729 110.619 282.51C110.619 289.642 110.619 296.773 110.619 303.905C110.619 304.128 110.989 304.129 110.989 303.905C110.989 294.278 110.989 284.65 110.989 275.022C110.989 274.882 110.834 274.819 110.71 274.873C109.522 275.391 108.334 275.91 107.146 276.428C105.646 277.082 103.265 278.741 101.623 278.838C101.465 278.847 101.248 279.091 101.093 279.069C100.703 279.017 99.9091 276.114 99.7755 275.648C99.2253 273.728 98.9472 271.736 98.9472 269.75C98.9472 267.872 99.1227 265.944 99.687 264.134C99.7542 263.918 99.3964 263.827 99.33 264.041Z" fill="#231F20"/>
<path d="M110.751 275.171C110.751 275.171 116.347 279.234 122.496 275.171C122.754 274.848 122.754 272.645 122.754 272.645C122.754 272.645 117.084 275.415 110.805 273.002L110.751 275.171Z" fill="#231F20"/>
<path d="M116.326 196.356C113.411 197.108 110.869 200.179 109.204 202.373C106.783 205.561 105.321 209.16 104.684 213.013C104.641 213.274 105.069 213.387 105.113 213.123C105.631 209.985 106.683 207.005 108.422 204.26C110.054 201.683 113.166 197.603 116.444 196.757C116.719 196.685 116.602 196.284 116.326 196.356Z" fill="#231F20"/>
<path d="M116.732 196.455C124.587 199.62 128.905 205.33 127.777 213.49C127.741 213.755 128.186 213.752 128.222 213.49C129.374 205.149 124.99 199.333 116.957 196.096C116.697 195.992 116.47 196.35 116.732 196.455Z" fill="#231F20"/>
<path d="M114.097 212.701C114.336 212.701 114.529 212.52 114.529 212.297C114.529 212.074 114.336 211.893 114.097 211.893C113.858 211.893 113.665 212.074 113.665 212.297C113.665 212.52 113.858 212.701 114.097 212.701Z" fill="#231F20"/>
<path d="M116.183 212.701C116.422 212.701 116.615 212.52 116.615 212.297C116.615 212.074 116.422 211.893 116.183 211.893C115.945 211.893 115.751 212.074 115.751 212.297C115.751 212.52 115.945 212.701 116.183 212.701Z" fill="#231F20"/>
<path d="M118.691 212.205C118.746 212.422 118.603 212.64 118.37 212.691C118.138 212.742 117.905 212.608 117.85 212.391C117.795 212.173 117.939 211.956 118.171 211.905C118.403 211.853 118.637 211.987 118.691 212.205Z" fill="#231F20"/>
<path d="M128.897 266.329C128.897 266.329 125.341 269.261 122.534 269.735C122.59 269.563 122.59 272.645 122.59 272.645C122.59 272.645 115.284 275.057 110.804 272.471L110.627 270.302C110.627 270.302 106.369 268.575 104.566 266.445C107.448 260.64 107.518 253.875 104.733 248.029C104.733 248.029 111.165 256.558 120.446 252.938C120.323 253.11 125.163 252.374 128.441 247.734C126.994 250.771 126.37 253.926 126.455 257.246C126.539 260.518 127.223 263.503 128.813 266.405" fill="white"/>
<path d="M128.74 266.181C126.91 267.657 124.832 268.957 122.475 269.534C122.351 269.565 122.299 269.68 122.32 269.79C122.811 272.324 122.465 272.606 119.983 273.071C117.977 273.447 115.64 273.696 113.615 273.247C111.368 272.749 111.007 272.235 110.85 270.302C110.844 270.234 110.813 270.153 110.74 270.123C109.655 269.67 108.588 269.149 107.591 268.544C104.564 266.706 105.286 265.883 106.106 263.146C107.253 259.315 107.293 255.195 106.214 251.347C106.155 251.136 105.28 247.87 104.569 248.168C104.566 248.169 104.846 248.504 104.811 248.464C105.359 249.098 105.949 249.698 106.588 250.253C108.397 251.827 110.571 253.115 112.982 253.694C117.015 254.664 122.475 253.302 125.722 250.85C126.407 250.333 127.887 249.021 127.724 248.823C127.95 249.096 126.461 253.429 126.375 254.182C125.884 258.464 126.653 262.628 128.623 266.509C128.745 266.75 129.129 266.54 129.006 266.3C126.008 260.393 126.007 253.805 128.657 247.79C128.759 247.557 128.386 247.454 128.25 247.63C122.584 254.995 110.766 255.489 104.926 247.926C104.792 247.752 104.416 247.851 104.52 248.086C107.17 254.087 107.127 260.379 104.375 266.342C104.334 266.432 104.337 266.519 104.41 266.593C105.301 267.51 106.252 268.234 107.367 268.903C108.071 269.326 109.725 269.778 110.226 270.36C110.737 270.951 110.22 272.019 110.692 272.652C111.76 274.08 115.903 273.933 117.459 273.825C119.212 273.703 120.985 273.376 122.649 272.846C122.742 272.817 122.812 272.741 122.812 272.646C122.812 272.029 122.622 271.114 122.797 270.523C123.138 269.371 122.752 269.989 124.359 269.39C126.074 268.75 127.66 267.6 129.054 266.476C129.271 266.3 128.956 266.007 128.74 266.181Z" fill="#231F20"/>
<path d="M119.222 259.201C120.788 258.91 122.105 257.938 123.261 256.909C124.233 256.045 125.256 255.224 126.146 254.283C126.505 253.904 126.697 253.619 126.82 253.114C127.078 252.054 127.385 251.006 127.714 249.963C127.878 249.442 128.047 248.922 128.217 248.403C128.256 248.287 128.467 247.883 128.197 247.896C128.05 247.903 127.759 248.302 127.653 248.398C126.907 249.08 126.153 249.754 125.381 250.412C124.844 250.869 124.236 251.517 123.554 251.788C123.452 251.854 120.106 253.348 117.365 253.578C116.26 253.717 115.11 253.676 114.045 253.337C113.753 253.244 113.468 253.131 113.166 253.069C112.907 253.017 112.642 253.004 112.378 252.978C111.121 252.858 109.895 252.453 108.835 251.808C108.264 251.46 107.744 251.045 107.254 250.604C106.8 250.196 106.4 249.719 105.897 249.369C105.28 248.938 104.849 248.114 104.429 247.513C105.043 248.804 105.762 250.272 106.1 251.647C108.138 253.801 110.338 255.716 112.661 257.23C114.601 258.493 116.906 259.631 119.222 259.201Z" fill="#231F20"/>
</svg>
