<svg xmlns="http://www.w3.org/2000/svg" width="228" height="305" fill="none"><rect width="228" height="303" fill="#FDFDFD" rx="26"/><path fill="#003D4D" d="m70.498 304.075-.49-2.072 2.37-15.925c.522-3.516 1.097-7.163 3.183-10.128 2.38-3.384 6.41-5.42 10.447-6.891a310 310 0 0 1 9.873-3.425c1.23-.401 2.434-.985 3.627-1.547l34.631.919c1.08.51 2.17 1.021 3.281 1.384a312 312 0 0 1 9.873 3.424c4.036 1.471 8.067 3.507 10.447 6.89 2.086 2.967 2.66 6.613 3.184 10.129.79 5.308 1.58 11.933 2.37 17.241"/><path fill="#fff" d="M122.59 273.851h-11.786v30.224h11.786z"/><path fill="#EC2D4A" d="M110.804 302.322v-3.032a2 2 0 0 0-.165-.007H97.021c-.004-1.919-.009-3.916-.012-5.938h13.63q.084 0 .165-.007v-3.032a2 2 0 0 0-.165-.007H97.003l-.008-5.937h13.756q.026-.002.053-.003v-3.043l-.053-.002h-13.76l-.002-5.938h2.518a21 21 0 0 1-.596-3.048h-1.92c.005-3.78.016-6.445.038-7.119q-.367.15-.739.285a511 511 0 0 0-.038 6.834h-.55c.005-3.174.013-5.56.029-6.644l-.736.243a637 637 0 0 0-.031 6.401h-8.36c.002-1.307.004-2.481.008-3.487l-.603.219-.136.05c-.004.949-.006 2.03-.008 3.218h-.549c.002-1.107.003-2.117.006-3.012a53 53 0 0 0-.738.29l-.007 2.722h-5.243c-1.123.77-2.146 1.645-3.014 2.653.29.244.672.395 1.093.395h7.161l.001 5.938H73.253c-.25.997-.44 2.013-.606 3.03q.112.016.228.017h11.703l.009 5.937H71.75l-.45 3.026q.127.02.26.021h13.032c.003 2.046.008 4.045.012 5.938H70.622c-.036 0-.109-.014-.142 0-.16.063-.152.491-.172.658a12 12 0 0 0-.045 1.768c.005.153-.056.628.11.664.075.017.236-.042.332-.042.374-.005.75 0 1.124 0h12.784l.005 1.745h.741l-.004-1.745h.547l.004 1.745h.742l-.005-1.745h8.358l.005 1.745h.741l-.004-1.745h.547l.004 1.745h.742l-.005-1.745h13.61zm-25.49-26.948h.547c-.001 1.845-.001 3.849.001 5.938h-.546zm.005 8.985h.545c.003 1.956.005 3.954.01 5.938h-.547zm.026 14.923-.013-5.937h.547l.013 5.937zm1.257-23.908h8.358c0 1.845 0 3.849.002 5.938h-8.358c-.002-2.098-.003-4.1-.002-5.938m.005 8.985h8.357l.009 5.938h-8.357zm.027 14.923c-.005-1.919-.01-3.915-.013-5.937h8.358c.003 2.045.008 4.044.012 5.937zm9.067-23.908h.547l.001 5.938h-.545zm.006 8.985h.546l.008 5.938h-.545zm.025 14.923-.012-5.937h.546l.013 5.937zM162.57 299.885h-14.08l.012-5.937h12.929c.088 0 .381-.008.466-.022-.149-1.008-.257-2.017-.406-3.025h-12.983l.009-5.938h11.611c.077 0 .923-.016.643-.016-.165-1.017-.444-2.033-.692-3.031H148.52c.001-2.089.002-4.092.001-5.938h7.105c.418 0 .797-.15 1.084-.395-.862-1.008-1.877-1.883-2.991-2.652h-5.201l-.007-2.723a51 51 0 0 0-.732-.289l.005 3.012h-.544c-.002-1.189-.004-2.27-.008-3.218l-.135-.051-.598-.218c.003 1.004.006 2.179.007 3.487h-8.294a653 653 0 0 0-.031-6.401q-.365-.122-.73-.243c.015 1.083.024 3.47.028 6.644h-.544c-.006-3.288-.017-5.764-.039-6.834q-.368-.134-.733-.285c.022.674.033 3.339.038 7.119h-1.905a21 21 0 0 1-.591 3.047h2.498l-.002 5.938H122.55q-.026 0-.053.003v3.042q.026.002.053.003h13.648l-.008 5.937h-13.529q-.083 0-.164.008v3.031q.08.008.164.008h13.523l-.013 5.937h-13.51q-.083 0-.165.008v3.031q.081.008.165.008h13.503l-.003 1.144h.735l.003-1.144h.543l-.003 1.144h.735c.001-.378.003-.751.003-1.144h8.292l-.003 1.144h.736l.003-1.144h.543l-.003 1.144h.735l.003-1.144h14.273q.082 0 .161-.008l.055-.319q-.202-1.36-.402-2.72m-25.122 0h-.542c.004-1.892.009-3.892.012-5.937h.542c-.003 2.022-.008 4.018-.012 5.937m.018-8.985h-.542l.009-5.937h.542zm.011-8.985h-.542c.002-2.088.003-4.092.002-5.938h.543c0 1.838 0 3.841-.003 5.938m8.999 17.97h-8.292l.013-5.937h8.291zm.018-8.985h-8.291l.008-5.937h8.291zm.011-8.985h-8.291c.002-2.088.003-4.092.001-5.938h8.293zm1.249 17.97h-.543l.013-5.937h.542c-.004 2.022-.007 4.018-.012 5.937m.018-8.985h-.542l.009-5.937h.542zm.012-8.985h-.542c.001-2.088.002-4.092.001-5.938h.543z"/><path fill="#231F20" d="M118.762 196.475c-.343-.861-1.227-1.475-2.267-1.475s-1.925.614-2.267 1.475zM110.745 273.202c4.014 1.209 7.96 1.008 11.904-.357.266-.092.151-.494-.118-.4-3.881 1.343-7.715 1.547-11.667.357-.274-.082-.39.318-.119.4M130.993 263.393c-1.231-.513-2.477-.996-3.715-1.494-.217-.087-.406.21-.187.299 1.238.497 2.484.98 3.715 1.494.216.091.405-.208.187-.299M163.473 304.029c-.759-5.182-1.387-10.379-2.127-15.563-.574-4.019-.999-8.372-3.445-11.849-5.067-7.198-16.044-8.211-23.667-11.76-.213-.099-.401.199-.187.299 7.986 3.717 19.469 4.649 24.176 12.649 2.531 4.302 2.667 9.921 3.307 14.678.521 3.88 1.019 7.762 1.586 11.638.031.22.388.126.357-.092M106.023 261.143a307 307 0 0 0-3.844 1.582c-.217.091-.029.39.187.299a307 307 0 0 1 3.845-1.582c.217-.088.029-.387-.188-.299"/><path fill="#EFA841" d="m132.687 240.466-1.778 3.74c-.038.08.089.151.128.069l1.777-3.74c.039-.08-.089-.151-.127-.069" opacity=".3"/><path fill="#231F20" d="M134.321 212.093c2.553 7.479 1.89 16.736-.178 24.285-1.147 4.188-3.205 8.206-6.133 11.568-3.281 3.767-6.891 5.4-12.102 5.752-8.741.591-14.81-9.934-16.81-16.759-2.23-7.609-2.95-17.151-.31-24.71.088-.256-.34-.364-.43-.111-2.996 8.586-2.048 19.978 1.54 28.333 1.626 3.787 4.024 7.27 7.157 10.122 2.856 2.599 4.849 3.808 8.853 3.541 3.82-.254 7.19-.953 10.014-3.441 3.206-2.823 5.635-6.416 7.269-10.222 3.605-8.398 4.506-19.832 1.558-28.468-.087-.254-.516-.146-.428.11"/><path fill="#231F20" d="M134.321 212.093c2.553 7.479 1.89 16.736-.178 24.285-1.147 4.188-3.205 8.206-6.133 11.568-3.281 3.767-6.891 5.4-12.102 5.752-8.741.591-14.81-9.934-16.81-16.759-2.23-7.609-2.95-17.151-.31-24.71.088-.256-.34-.364-.43-.111-2.996 8.586-2.048 19.978 1.54 28.333 1.626 3.787 4.024 7.27 7.157 10.122 2.856 2.599 4.849 3.808 8.853 3.541 3.82-.254 7.19-.953 10.014-3.441 3.206-2.823 5.635-6.416 7.269-10.222 3.605-8.398 4.506-19.832 1.558-28.468-.087-.254-.516-.146-.428.11"/><path fill="#231F20" d="m119.425 216.318.559 2.078s7.453-.658 7.428-.778l-.424-1.998zM109.103 240.069c4.221.892 8.934 1.018 12.773-1.048.248-.133.024-.493-.225-.358-3.706 1.994-8.356 1.867-12.43 1.006-.278-.06-.397.34-.118.4M96.908 221.533c-1.526-1.338-4.004-2.033-5.73-.509-1.767 1.562-1.304 4.683-.745 6.615.631 2.186 1.8 5.423 4.248 6.39 1.542.608 3.12.151 3.364-1.491.04-.261-.39-.374-.428-.11q-3.231 1.922-4.509-.252a5.4 5.4 0 0 1-.898-1.336c-.558-.983-1.037-2.218-1.348-3.311-.407-1.427-.65-2.976-.282-4.437.674-2.689 3.84-3.169 6.014-1.265.209.182.524-.111.314-.294"/><path fill="#231F20" d="M97.013 226.371c-1.134-.979-3.758-2.276-4.778-.509-.136.235.248.445.383.209.848-1.467 3.176-.187 4.08.594.21.181.526-.112.315-.294"/><path fill="#231F20" d="M95.107 225.399c-1.093.835-1.332 2.206-.603 3.332.148.228.532.02.383-.209-.634-.979-.41-2.109.533-2.829.223-.17-.093-.463-.313-.294M136.325 221.827c2.027-1.777 5.355-1.323 6.014 1.265.364 1.429.098 3.034-.282 4.436a15 15 0 0 1-1.349 3.311l-.408.717q-1.358 2.832-4.998.872c-.039-.264-.467-.152-.428.11.241 1.624 1.794 2.097 3.337 1.501 2.448-.945 3.663-4.228 4.275-6.4.552-1.956 1.008-4.996-.723-6.598-1.693-1.568-4.236-.836-5.752.492-.21.183.105.476.314.294"/><path fill="#231F20" d="M136.22 226.664c.901-.777 3.231-2.062 4.08-.593.135.235.52.026.383-.21-1.019-1.765-3.646-.467-4.778.509-.21.183.105.476.315.294"/><path fill="#231F20" d="M137.497 225.692c.945.721 1.167 1.852.535 2.829-.149.229.236.438.383.209.729-1.125.491-2.497-.603-3.332-.22-.168-.537.125-.315.294M123.07 224.176c.935 0 1.694-.709 1.694-1.583s-.759-1.583-1.694-1.583-1.694.709-1.694 1.583.759 1.583 1.694 1.583M111.851 215.937l-.324 2.122s-7.485.072-7.473-.048l.197-2.029zM106.258 222.593c0 .874.759 1.583 1.694 1.583s1.694-.709 1.694-1.583-.759-1.583-1.694-1.583-1.694.709-1.694 1.583M114.48 242.152a37 37 0 0 0 2.819-.16c.282-.027.285-.442 0-.416q-1.406.133-2.819.16c-.285.006-.286.422 0 .416"/><path fill="#004354" stroke="#231F20" stroke-linecap="round" stroke-linejoin="round" stroke-miterlimit="10" stroke-width=".603" d="M106.726 256.938s-12.351 5.859 4.025 13.2c-.075.208-5.854 5.194-9.707 9.142 0 0-7.975-16.842 5.682-22.342"/><path fill="#231F20" d="M106.726 256.938s-8.368 4.056-2.283 9.39c.082-.163 2.544-5.781 2.283-9.39"/><path stroke="#231F20" stroke-linecap="round" stroke-linejoin="round" stroke-miterlimit="10" stroke-width=".603" d="M126.614 256.938s12.352 5.859-4.024 13.2c.074.208 5.854 5.194 9.707 9.142-.148-.277 7.975-16.842-5.683-22.342"/><path fill="#231F20" d="M126.614 256.938s8.369 4.056 2.283 9.39c-.083-.163-2.544-5.781-2.283-9.39"/><path fill="#004354" stroke="#231F20" stroke-linecap="round" stroke-linejoin="round" stroke-miterlimit="10" stroke-width=".603" d="M126.614 256.938s12.352 5.859-4.024 13.2c.074.208 5.854 5.194 9.707 9.142-.148-.277 7.975-16.842-5.683-22.342"/><path fill="#231F20" d="M126.614 256.938s8.369 4.056 2.283 9.39c-.083-.163-2.544-5.781-2.283-9.39"/><path stroke="#231F20" stroke-linecap="round" stroke-linejoin="round" stroke-miterlimit="10" stroke-width=".603" d="M110.751 270.138v31.79M122.59 270.138v33.767"/><path fill="#231F20" d="M125.657 288.007c.935 0 1.693-.708 1.693-1.581 0-.874-.758-1.582-1.693-1.582-.934 0-1.692.708-1.692 1.582 0 .873.758 1.581 1.692 1.581M127.349 296.791c0 .873-.757 1.582-1.692 1.582s-1.692-.709-1.692-1.582.757-1.582 1.692-1.582 1.692.709 1.692 1.582"/><path stroke="#231F20" stroke-linecap="round" stroke-linejoin="round" stroke-miterlimit="10" stroke-width=".603" d="M107.676 281.681v3.833M107.676 290.87v3.831"/><path fill="#231F20" d="m101.043 279.281 9.708-4.11v-4.802zM132.204 279.281l-9.708-4.11v-4.802zM116.976 228.211c-.773-.542-1.843-.428-2.735-.231-.783.173-2.435.683-2.792 1.438-.27.573.572.781 1.029.862 1.398.248 2.862-.152 4.197-.499.275-.072.158-.472-.118-.401-.872.227-1.754.464-2.66.532-.376.028-.76.042-1.132-.021a1.38 1.38 0 0 1-.886-.304q.28-.242.599-.435c1.067-.675 3.108-1.401 4.274-.582.228.16.45-.201.224-.359"/><path stroke="#231F20" stroke-miterlimit="10" stroke-width=".603" d="M136.656 211.369c-1.907-12.615-11.893-14.721-17.504-14.885l-4.168-.009c-5.266-.078-16.606 1.364-18.652 14.894 0 0 20.51 5.583 40.324 0Z"/><path fill="#231F20" d="M110.783 207.52s4.567 1.387 10.794-.222l.28 3.557s-7.375 1.167-10.826-.192c-.341-.081-.248-3.143-.248-3.143"/><path fill="#050100" d="M98.085 230.382c.383.167 1.055.131 1.279-.114.044-.048.05-.117.053-.181.022-.52-.08-1.037-.174-1.55a61 61 0 0 1-.763-5.615c-.08-.896-.195-1.82-.149-2.715.049-.949.093-1.896.166-2.844a77 77 0 0 1 .425-4.078c.055-.415.112-.832.092-1.251-.003-.045-.008-.095-.04-.129-.031-.032-.08-.042-.126-.051-.411-.078-.782-.177-1.187-.276-.309-.075-.67-.116-.838.196-.249.514-.13 1.428-.161 1.99a66.093 66.093 0 0 0 .819 14.736c.082.487.065 1.312.388 1.729a.6.6 0 0 0 .216.153M134.983 230.382c-.383.167-1.056.131-1.279-.114-.044-.048-.051-.117-.054-.181-.022-.52.08-1.037.174-1.55.513-2.785.828-5.602.947-8.426.053-1.271.262-2.759-.031-4.002-.303-1.284-.256-2.676-.31-3.993-.002-.076-.003-.161.05-.22.043-.049.113-.067.179-.084.464-.116 1.326-.571 1.584-.039.249.514.13 1.428.161 1.99q.118 2.068.104 4.137a66 66 0 0 1-.922 10.599c-.083.487-.065 1.312-.388 1.73a.6.6 0 0 1-.215.153"/><path fill="#050100" d="M134.703 211.765c3.192-1.066 1.323 6.228 1.356 9.397-.713-1.22-1.964-2.08-3.241-2.792a26.6 26.6 0 0 0-9.862-3.162c-1.377-.159-2.765-.212-4.151-.265l-7.407-.282c-3.796-.144-7.832-.362-10.922-2.428 0 0 20.092 4.253 34.227-.468"/><path fill="#231F20" d="M133.825 203.691c4.603-.779 11.132.676 12.671 5.445 1.94 6.007-6.307 7.095-10.535 7.175-.285.006-.287.421 0 .416 4.377-.083 12.114-1.155 11.15-6.958-.916-5.517-8.46-7.316-13.404-6.478-.281.047-.162.448.118.4M70.677 304.029c-.863-3.642.346-7.604.891-11.27.717-4.813.91-10.161 3.023-14.656 4.207-8.95 16.644-9.945 25.01-13.866.214-.1.026-.398-.187-.299-8.347 3.912-20.95 4.987-25.197 13.993-2.123 4.504-2.29 9.919-3.006 14.736-.567 3.811-1.79 7.667-.892 11.454.052.218.41.125.358-.092"/><path fill="#231F20" d="M99.33 264.041c-1.571 5.044-.709 10.615 1.553 15.327.044.091.172.098.254.062l4.548-1.984c.726-.317 4.416-2.526 5.154-2.249-.445-.167-.22 1.464-.22 1.968v26.74c0 .223.37.224.37 0v-28.883c0-.14-.155-.203-.279-.149l-3.564 1.555c-1.5.654-3.881 2.313-5.523 2.41-.158.009-.375.253-.53.231-.39-.052-1.184-2.955-1.318-3.421a21.5 21.5 0 0 1-.828-5.898c0-1.878.176-3.806.74-5.616.067-.216-.29-.307-.357-.093"/><path fill="#231F20" d="M110.751 275.171s5.596 4.063 11.745 0c.258-.323.258-2.526.258-2.526s-5.67 2.77-11.949.357zM116.326 196.356c-2.915.752-5.457 3.823-7.122 6.017-2.421 3.188-3.883 6.787-4.52 10.64-.043.261.385.374.429.11.518-3.138 1.57-6.118 3.309-8.863 1.632-2.577 4.744-6.657 8.022-7.503.275-.072.158-.473-.118-.401"/><path fill="#231F20" d="M116.732 196.455c7.855 3.165 12.173 8.875 11.045 17.035-.036.265.409.262.445 0 1.152-8.341-3.232-14.157-11.265-17.394-.26-.104-.487.254-.225.359M114.097 212.701c.239 0 .432-.181.432-.404s-.193-.404-.432-.404-.432.181-.432.404.193.404.432.404M116.183 212.701c.239 0 .432-.181.432-.404s-.193-.404-.432-.404c-.238 0-.432.181-.432.404s.194.404.432.404M118.691 212.205c.055.217-.088.435-.321.486-.232.051-.465-.083-.52-.3-.055-.218.089-.435.321-.486.232-.052.466.082.52.3"/><path fill="#fff" d="M128.897 266.329s-3.556 2.932-6.363 3.406c.056-.172.056 2.91.056 2.91s-7.306 2.412-11.786-.174l-.177-2.169s-4.258-1.727-6.061-3.857c2.882-5.805 2.952-12.57.167-18.416 0 0 6.432 8.529 15.713 4.909-.123.172 4.717-.564 7.995-5.204-1.447 3.037-2.071 6.192-1.986 9.512.084 3.272.768 6.257 2.358 9.159"/><path fill="#231F20" d="M128.74 266.181c-1.83 1.476-3.908 2.776-6.265 3.353-.124.031-.176.146-.155.256.491 2.534.145 2.816-2.337 3.281-2.006.376-4.343.625-6.368.176-2.247-.498-2.608-1.012-2.765-2.945-.006-.068-.037-.149-.11-.179a23.6 23.6 0 0 1-3.149-1.579c-3.027-1.838-2.305-2.661-1.485-5.398a21.27 21.27 0 0 0 .108-11.799c-.059-.211-.934-3.477-1.645-3.179-.003.001.277.336.242.296a18 18 0 0 0 1.777 1.789c1.809 1.574 3.983 2.862 6.394 3.441 4.033.97 9.493-.392 12.74-2.844.685-.517 2.165-1.829 2.002-2.027.226.273-1.263 4.606-1.349 5.359-.491 4.282.278 8.446 2.248 12.327.122.241.506.031.383-.209-2.998-5.907-2.999-12.495-.349-18.51.102-.233-.271-.336-.407-.16-5.666 7.365-17.484 7.859-23.324.296-.134-.174-.51-.075-.406.16 2.65 6.001 2.607 12.293-.145 18.256-.041.09-.038.177.035.251.891.917 1.842 1.641 2.957 2.31.704.423 2.358.875 2.859 1.457.511.591-.006 1.659.466 2.292 1.068 1.428 5.211 1.281 6.767 1.173a22.4 22.4 0 0 0 5.19-.979c.093-.029.163-.105.163-.2 0-.617-.19-1.532-.015-2.123.341-1.152-.045-.534 1.562-1.133 1.715-.64 3.301-1.79 4.695-2.914.217-.176-.098-.469-.314-.295"/><path fill="#231F20" d="M119.222 259.201c1.566-.291 2.883-1.263 4.039-2.292.972-.864 1.995-1.685 2.885-2.626.359-.379.551-.664.674-1.169.258-1.06.565-2.108.894-3.151q.247-.781.503-1.56c.039-.116.25-.52-.02-.507-.147.007-.438.406-.544.502-.746.682-1.5 1.356-2.272 2.014-.537.457-1.145 1.105-1.827 1.376-.102.066-3.448 1.56-6.189 1.79-1.105.139-2.255.098-3.32-.241-.292-.093-.577-.206-.879-.268-.259-.052-.524-.065-.788-.091a8.4 8.4 0 0 1-3.543-1.17 10.7 10.7 0 0 1-1.581-1.204c-.454-.408-.854-.885-1.357-1.235-.617-.431-1.048-1.255-1.468-1.856.614 1.291 1.333 2.759 1.671 4.134 2.038 2.154 4.238 4.069 6.561 5.583 1.94 1.263 4.245 2.401 6.561 1.971"/></svg>