<svg xmlns="http://www.w3.org/2000/svg" width="228" height="303" fill="none"><rect width="228" height="303" fill="#FDFDFD" rx="26"/><path fill="#EFA841" d="m126.669 242.691-1.744 3.645c-.037.079.088.147.126.068l1.744-3.646c.037-.078-.088-.147-.126-.067" opacity=".3"/><path fill="#231F20" d="M125.894 210.477c3.453 5.011 4.055 10.72 3.743 16.54-.316 5.894-1.051 11.87-3.866 17.238-2.44 4.653-6.254 8.866-11.218 11.33-3.59 1.782-6.141.967-9.335-1.001-2.769-1.706-5.106-3.964-6.998-6.49-3.63-4.849-5.241-10.412-5.872-16.225-.579-5.331-1.007-10.911.668-16.117 2.235-6.944 7.859-11.182 15.571-11.888 6.866-.63 13.16 1.31 17.307 6.613.163.209.542.006.376-.205-5.438-6.952-16.638-9.152-24.901-5.092-10.472 5.146-10.487 17.195-9.458 26.689 1.018 9.383 5.193 18.958 14.428 23.825 1.069.563 3.21 1.772 4.503 1.752 2.074-.033 5.02-2.004 6.589-3.069 3.892-2.645 6.909-6.323 8.94-10.364 2.672-5.317 3.392-11.195 3.701-16.996.314-5.878-.319-11.69-3.802-16.745-.15-.219-.528-.016-.376.205"/><path fill="#EB485E" d="m65.177 302.668 2.325-15.522c.514-3.427 1.077-6.981 3.124-9.872 2.334-3.298 6.29-5.282 10.249-6.715a305 305 0 0 1 9.686-3.339c.8-.259 1.59-.598 2.373-.956l36.079.108c.705.318 1.417.615 2.137.848a306 306 0 0 1 9.686 3.339c3.96 1.433 7.915 3.417 10.249 6.715 2.047 2.892 2.61 6.446 3.124 9.872l2.325 15.522"/><path stroke="#231F20" stroke-miterlimit="10" stroke-width=".603" d="M120.819 259.083s6.098 1.321 6.237 5.403c-.003.132-1.461 8.598-15.952 10.669.444 0 11.339 4.674 11.339 4.674s15.899-16.073-1.624-20.746Z"/><path fill="#fff" stroke="#231F20" stroke-miterlimit="10" stroke-width=".603" d="M120.819 259.083s6.098 1.321 6.237 5.403c-.003.132-1.461 8.598-15.952 10.669.444 0 11.339 4.674 11.339 4.674s15.899-16.073-1.624-20.746Z"/><path fill="#111" d="M120.819 259.083s11.106 2.011 3.25 10.476c-.261-.27-3.711-4.959-3.25-10.476M101.072 259.083s-6.615 1.158-6.155 5.463c.142 1.33 1.11 2.932 2.965 4.93.262-.269 3.651-4.876 3.19-10.393"/><path fill="#231F20" d="M117.235 226.813c.917 0 1.661-.69 1.661-1.542s-.744-1.543-1.661-1.543c-.918 0-1.662.691-1.662 1.543s.744 1.542 1.662 1.542M98.983 249.645c2.619 5.875 3.225 14.454-1.192 19.821-.171.207.208.409.376.204 4.476-5.437 3.886-14.189 1.237-20.132-.106-.238-.528-.134-.42.107M156.709 302.624c-.743-4.958-1.481-9.917-2.229-14.876-.595-3.949-1.161-8.095-3.855-11.356-5.008-6.065-14.504-7.156-21.521-10.165-.211-.091-.395.2-.183.291 7.209 3.093 17.347 4.169 22.007 10.842 2.422 3.469 2.798 7.782 3.395 11.772l2.035 13.582c.032.214.382.123.351-.09M92.843 266.119c-7.095 3.096-16.657 4.15-21.758 10.273-2.562 3.075-3.182 6.971-3.758 10.71-.796 5.171-1.55 10.348-2.325 15.522-.032.213.319.305.35.09l1.938-12.936c.628-4.189.95-8.771 3.493-12.419 4.696-6.738 14.991-7.784 22.243-10.949.212-.092.028-.383-.183-.291M115.887 214.794l.115 2.086s7.306.689 7.306.571v-1.986zM105.288 243.402c4.192.547 8.831.325 12.4-1.967.229-.147.011-.498-.22-.349-3.456 2.22-7.996 2.457-12.064 1.925-.275-.035-.393.355-.116.391M109.07 245.761a4.7 4.7 0 0 0 2.16-.544c.243-.13.023-.48-.22-.35a4.16 4.16 0 0 1-1.939.489c-.281.003-.282.407-.001.405M91.745 224.237c-1.498-1.305-3.928-1.982-5.62-.496-1.734 1.522-1.28 4.564-.732 6.447.62 2.131 1.766 5.286 4.168 6.228 1.513.593 3.06.147 3.3-1.453.038-.255-.382-.365-.42-.107q-3.17 1.873-4.423-.246a5.2 5.2 0 0 1-.881-1.302c-.547-.958-1.017-2.162-1.323-3.227-.4-1.391-.637-2.901-.277-4.325.662-2.621 3.768-3.089 5.9-1.233.204.178.514-.108.308-.286"/><path fill="#231F20" d="M91.847 228.952c-1.112-.954-3.687-2.218-4.688-.497-.133.229.244.434.377.204.831-1.43 3.115-.182 4.002.579.207.177.516-.109.31-.286"/><path fill="#231F20" d="M89.978 228.004c-1.073.815-1.307 2.151-.592 3.248.146.223.523.02.377-.204-.622-.953-.403-2.055.523-2.757.218-.165-.092-.45-.308-.287M130.238 224.523c1.99-1.732 5.255-1.29 5.901 1.233.357 1.393.096 2.957-.277 4.324a14.7 14.7 0 0 1-1.323 3.227l-.401.698q-1.332 2.761-4.904.85c-.038-.257-.458-.147-.42.108.237 1.583 1.761 2.043 3.274 1.463 2.402-.922 3.594-4.121 4.194-6.238.542-1.907.989-4.87-.709-6.431-1.662-1.528-4.156-.814-5.643.479-.206.179.103.465.308.287"/><path fill="#231F20" d="M130.136 229.238c.885-.758 3.171-2.011 4.003-.579.133.229.51.025.376-.204-1-1.721-3.577-.456-4.688.497-.206.177.103.463.309.286"/><path fill="#231F20" d="M131.389 228.29c.926.703 1.144 1.805.523 2.757-.146.224.231.428.377.205.715-1.098.481-2.434-.592-3.249-.216-.162-.526.123-.308.287M103.872 214.794l-.114 2.086s-7.307.689-7.307.571v-1.986zM100.742 225.271c0 .852.744 1.542 1.661 1.542.918 0 1.662-.69 1.662-1.542s-.744-1.543-1.662-1.543-1.661.691-1.661 1.543M83.722 302.596v-11.644c0-.174-.291-.174-.291 0v11.644c0 .174.29.174.29 0M136.666 302.596v-11.644c0-.174-.291-.174-.291 0v11.644c.001.174.291.174.291 0"/><path fill="#231F20" d="M123.524 220.564v4.852c0 2.91-2.541 5.269-5.674 5.269-3.135 0-5.675-2.36-5.675-5.269v-4.609s4.648-2.183 11.349-.243" opacity=".2"/><path fill="#EEEEEF" d="M112.5 227.177a5.2 5.2 0 0 0 .993 1.615l8.908-7.748-.14-.051a6 6 0 0 0-2.168-.356c-1.43 1.209-4.988 4.285-7.593 6.54M116.979 230.623l6.442-5.603.103-.859v-1.153c-1.074.886-7.485 6.448-8.244 7.105a6 6 0 0 0 1.699.51" opacity=".2"/><path fill="#231F20" d="M111.12 220.488s5.57-3.24 14.066 0c-.134.213 0 1.591 0 1.591s-6.186-3.5-14.066 0z"/><path stroke="#231F20" stroke-miterlimit="10" stroke-width=".603" d="M112.175 220.806v4.609c0 2.91 2.541 5.269 5.674 5.269s5.674-2.359 5.674-5.269v-4.852"/><path fill="#231F20" d="m123.524 222.542 7.538.82-.978 1.018-6.56-.392z"/><path fill="#231F20" d="M94.381 220.564v4.852c0 2.91 2.541 5.269 5.675 5.269s5.674-2.36 5.674-5.269v-4.609s-4.649-2.183-11.349-.243" opacity=".2"/><path fill="#EEEEEF" d="M94.65 227.177c.228.595.566 1.14.993 1.615l8.908-7.748-.141-.051a6 6 0 0 0-2.167-.356c-1.431 1.209-4.989 4.285-7.593 6.54M99.128 230.623l6.442-5.603.103-.859v-1.153c-1.073.886-7.485 6.448-8.243 7.105a6 6 0 0 0 1.698.51" opacity=".2"/><path fill="#231F20" d="M106.786 220.488s-5.571-3.24-14.066 0c.134.213 0 1.591 0 1.591s6.186-3.5 14.066 0z"/><path stroke="#231F20" stroke-miterlimit="10" stroke-width=".603" d="M105.73 220.806v4.609c0 2.91-2.54 5.269-5.674 5.269s-5.674-2.359-5.674-5.269v-4.852"/><path fill="#231F20" d="m94.381 222.542-2.751.657-.033 1.025 2.784-.236zM108.979 223.816c-1.462 1.929-2.337 3.596-2.53 5.947-.114 1.383-.733 4.048.414 5.22 1.631 1.667 5.19-.423 3.352-1.35-.247-.124-.467.225-.22.35q-2.196 2.62-3.217-.504a46 46 0 0 1 .006-1.487c.016-.742.031-1.489.101-2.229.211-2.242 1.094-3.925 2.471-5.743.162-.213-.216-.416-.377-.204"/><path fill="#231F20" d="M106.613 234.442c-.427.099-.822-.128-.822-.555 0-.261-.436-.262-.436 0 0 .701.673 1.108 1.374.946.273-.063.157-.454-.116-.391M105.73 225.271s2.499-2.858 6.445 0v-1.27s-3.095-1.834-6.445 0z"/><path stroke="#231F20" stroke-miterlimit="10" stroke-width=".603" d="M101.073 259.083s-6.099 1.321-6.238 5.403c.003.132 1.196 8.08 16.269 10.737-.444 0-11.656 4.607-11.656 4.607s-15.898-16.074 1.625-20.747Z"/><path fill="#fff" stroke="#231F20" stroke-miterlimit="10" stroke-width=".603" d="M101.073 259.083s-6.099 1.321-6.238 5.403c.003.132 1.196 8.08 16.269 10.737-.444 0-11.656 4.607-11.656 4.607s-15.898-16.074 1.625-20.747Z"/><path stroke="#231F20" stroke-miterlimit="10" stroke-width=".804" d="M111.104 275.156v27.513"/><path fill="#111" d="M111.173 288.418c1.175 0 2.127-.885 2.127-1.976s-.952-1.975-2.127-1.975c-1.176 0-2.128.884-2.128 1.975s.952 1.976 2.128 1.976M111.173 301.311c1.175 0 2.127-.884 2.127-1.976 0-1.091-.952-1.975-2.127-1.975-1.176 0-2.128.884-2.128 1.975s.952 1.976 2.128 1.976"/><path fill="#231F20" d="M136.19 213.174c-.091-1.628-.47-3.234-1.041-4.773-.811-2.183-1.818-4.244-3.651-5.794-1.77-1.497-3.779-2.727-5.933-3.696-4.281-1.926-9.073-2.849-13.818-2.91-2.038-.025-4.01.336-6.02.602-2.187.289-4.34.901-6.239 1.965-2.815 1.578-5.027 4.24-5.44 7.268q-.01.074-.017.148c-.308.076-.569.162-.735.253-1.5.817-2.486 2.296-2.953 3.852-.468 1.556-.47 3.199-.38 4.813a44.5 44.5 0 0 0 1.38 8.712c.082 2.587.251 5.17.652 7.73q.123.79.277 1.578c.05-2.663.148-5.332.562-7.968.149-.947.338-1.888.49-2.834.158-.977.149-1.97.295-2.941.247-1.639.103-3.399.053-5.084a21.8 21.8 0 0 1 3.078-4.713c3.658 2.179 8.108 2.992 12.403 3.275 5.146.34 10.576 1.866 15.154 4.16 1.231.616 2.415 1.341 3.426 2.231-.026 1.982.453 3.941.762 5.906.413 2.636.512 5.305.561 7.968a41 41 0 0 0 .277-1.578c.387-2.474.557-4.969.643-7.469.016.059.046.111.104.139a.24.24 0 0 0 .187.002.8.8 0 0 0 .18-.095 3.9 3.9 0 0 1 1.186-.51c.67-.164 1.492-1.455 1.931-1.972a10.7 10.7 0 0 0 1.615-2.586c.794-1.787 1.12-3.751 1.011-5.679m-6.195 10.177.008-.21.024-.885c.034.362.002.744-.032 1.095"/><path fill="#fff" stroke="#231F20" stroke-miterlimit="10" stroke-width=".75" d="M122.919 248.999c-7.872 8.891-11.938 7.866-11.92 7.908-6.631-.63-11.805-7.315-11.805-7.315 5.309 12.927-1.216 19.976-1.216 19.976 15.402 12.158 26.04-.008 26.04-.008a5 5 0 0 1-.53-.801c-1.56-2.828-2.369-5.943-2.451-9.132-.083-3.236.463-7.668 1.882-10.628Z"/><path fill="#231F20" d="M99.59 250.108s9.491 20.733 21.795 4.294c-.02.132.616-4.717 2.444-6.596.014-.02-3.604 5.088-7.366 6.952.017-.01-4.652 2.805-5.679 2.493 0 0-8.034-2.253-11.193-7.143"/></svg>