<svg xmlns="http://www.w3.org/2000/svg" width="1026" height="536" fill="none"><rect width="1026" height="535" fill="#5A5AC2" rx="38"/><path fill="#2C2C2E" d="M523 356.5c-13.173 63.849-9.074 178.76-9.074 178.76h153.421l24.412-168.641-33.537-65.214s-24.514-7.743-28.271-11.803-45.993 3.875-45.993 3.875L523 308z"/><path stroke="#CC8A4A" stroke-miterlimit="10" stroke-width="1.5" d="M549.079 369.832h33.159s-3.861 23.375-5.843 29.144c-1.983 5.77-7.144 13.312-18.638 13.312s-13.883-8.938-12.806-17.877c1.079-8.937 4.128-24.579 4.128-24.579ZM580.121 379.173h-32.572M648.65 297.75c-3.077 16.94-16.056 25.415-29.211 27.757M608.651 326.983c-9.961 1.006-20.871-1.984-27.071-10.118-5.47-7.174-5.906-13.21-4.743-22.056"/><path stroke="#000" stroke-miterlimit="10" stroke-width="1.5" d="M525.205 471.597s16.432-100.136 16.432-115.562M500.409 374.981s20.333 44.056 20.333 59.011"/><path fill="#DA8C76" d="m623.766 246.485 15.816 15.839-4.53 12.684 3.917 23.465s-10.52 19.816-32.111 19.816c-21.592 0-22.694-19.488-22.694-19.488l2.732-30.709"/><path fill="#DA8C76" d="M571.81 251.651c.448-11.875 3.758-24.386 6.693-33.035 2.484-7.322 6.993-18.037 12.842-22.003 7.531-5.11 16.95-.979 25.159 1.543 13.48 4.141 17.958 22.137 17.623 36.9-.258 11.341-2.084 22.343-8.105 31.427-9.788 14.771-29.991 25.259-44.507 13.807-7.885-6.221-10.139-17.131-9.705-28.639"/><path fill="#000" d="M596.991 235.97c-.857 1.7-.665 3.711.428 4.492 1.092.78 2.672.033 3.528-1.667.857-1.7.665-3.711-.427-4.49-1.094-.782-2.674-.037-3.529 1.665M576.513 229.711c-.857 1.7-.665 3.711.428 4.491s2.672.033 3.528-1.667c.857-1.7.665-3.711-.427-4.491s-2.673-.033-3.529 1.667"/><path stroke="#000" stroke-miterlimit="10" d="M586.896 229.332s-3.242 8.483-4.939 11.159c-1.254 1.974-3.619 4.969-1.442 7.276 1.36 1.44 5.243 2.808 5.243 2.808"/><path fill="#fff" d="m581.37 263.303 10.808-4.603s3.029 12.383-1.158 14.412c-6.765 3.281-9.65-9.809-9.65-9.809"/><path fill="#21212D" d="M635.052 275.008s-4.151-22.318-2.542-34.501c-8.09-.604-15.862-5.73-20.584-13.575-2.09-3.47-3.59-7.397-5.609-10.927-4.589-8.022-12.68-12.319-20.833-12.319-1.969 3.217-4.499 7.89-5.834 11.891-7.101-6.208-45.28.428-8.232-28.855.398-5.697 18.951-20.543 34.899-7.522 15.949 13.022 5.76 7.179 10.553 7.522 8.498.606 10.551-.014 18.182 4.478 7.724 4.547 5.935 1.36 13.818 5.5 10.84 5.694 7.289 9.184 10.61 22.502 2.347 9.415 1.931 19.771-1.161 28.877-2.406 7.083-6.419 13.374-11.465 18.086-.929.868-11.802 8.843-11.802 8.843"/><path fill="#DA8C76" d="M619.375 246.995c1.306-6.106 9.201-8.987 13.394-5.763 10.079 7.756 1.781 30.183-8.879 29.596-3.016-.166-6.9-2.673-7.16-6.857"/><path stroke="#000" stroke-miterlimit="10" d="m631.521 251.915-11.449 7.572M625.711 240.778c-2.625 1.009-4.988 3.028-6.683 5.707M635.275 262.324c-2.398 4.622-6.332 9.128-11.09 8.76-3.302-.257-6.62-2.926-7.153-7.215M608.283 282.055c-.413.133-11.004 7.25-24.117.604M585.657 203.134c-2.228-.396-4.473-1.03-6.399-2.423-1.927-1.392-3.511-3.643-3.871-6.292"/><path fill="#21212D" d="M599.016 221.775c2.596.126 7.052 3.349 7.892 4.134.811.761 2.572 3.767-.097 3.424-1.554-.201-1.562.109-2.906-.636-1.671-.926-3.594-1.216-5.309-2.03-.937-.445-1.444-1.806-1.462-2.841-.024-1.575.752-2.105 1.882-2.051M585.2 218.004c-1.828-1.167-5.949-.452-6.784-.157-1.12.397-2.063 1.458-2.218 2.936-.102.979.995 1.521 1.614 1.367 2.336-.58 3.761.304 6.08.479.79.06 1.585-.92 1.935-1.846.532-1.409.169-2.271-.627-2.779"/><path fill="#A85C47" d="M575.389 464.53a141 141 0 0 1-22.598-5.572c-6.113-2.052-13.011-4.921-17.543-10.452-1.487-1.814-2.697-3.919-3.882-6.026-.483-.858-1.107-1.816-1.975-1.811-.613.003-1.141.506-1.556 1.041-1.628 2.099-1.69 4.93-1.189 7.723a22.4 22.4 0 0 0 3.034 7.914c1.478 2.395 2.861 5.169 2.643 8.131-.075 1.012-7.931.027-8.584-.076-3.318-.518-6.562-1.583-9.739-2.81-5.895-2.277-11.703-5.116-17.851-6.044-1.438-.216-3.32.004-3.722 1.662-.454 1.871 1.439 3.224 2.31 4.873-1.281.358-2.583-.304-3.864-.66-1.281-.359-2.883-.26-3.577 1.071-.878 1.683.366 3.773 1.576 5.133-1.755 1.138-1.404 4.35-.259 6.301 1.144 1.95 3.716 4.628 3.716 4.628s-3.429-.762-2.681 2.389c.059.244.194.451.333.645 8.47 11.848 16.639 21.101 28.591 27.391 5.874 3.092 12.118 5.006 20.829 7.273 8.98 2.336 18.998 3.977 28.063 5.791"/><path stroke="#000" stroke-miterlimit="10" d="M529.815 465.641c5.446-.231 10.031-.245 15.266-.231M494.736 463.083c3.323 3.743 7.576 6.147 11.752 8.489 1.835 1.029 3.671 2.059 5.544 2.996 4.705 2.356 9.622 4.122 14.615 5.474M488.289 467.901c10.083 10.292 21.341 18.335 33.218 23.734M491.091 478.083c8.583 8.942 18.205 16.613 28.727 21.923"/><path fill="#2C2C2E" d="M651.916 299.508c23.764 7.429 36.268 7.429 52.246 36.298 10.438 18.86 11.345 43.117 11.194 65.716-.169 25.138-1.657 50.38-5.796 74.95-3.596 21.34-8.819 58.787-42.228 58.787H558.344l13.192-71.744 68.994-3.666s13.581-77.464 18.575-89.975"/><path stroke="#000" stroke-miterlimit="10" stroke-width="1.5" d="M637.701 460s22.822-1.592 31.086 3.517"/><path stroke="#CC8A4A" stroke-miterlimit="10" stroke-width="1.5" d="m585.404 535.26 11.416-74.299"/><path stroke="#000" stroke-miterlimit="10" stroke-width="1.5" d="M659.105 369.876c-4.994 12.509-18.576 89.975-18.576 89.975l-68.993 3.665"/><path fill="#21212D" d="M569.857 260.024a4.915 4.915 0 0 1 3.411-5.381l8.723-2.705a13.4 13.4 0 0 1 4.863-.572l9.519.635a3.21 3.21 0 0 1 .007 6.406l-9.348.644a9.5 9.5 0 0 0-4.045 1.225l-5.825 3.329c-3.016 1.723-6.82-.141-7.305-3.581"/><path fill="#21212D" d="M593.802 258.461a3.21 3.21 0 0 1 .586-4.169c1.849-1.61 4.747-.64 5.253 1.759l.921 4.362c.397 1.884-1.486 3.438-3.26 2.691-.44-.186-.815-.5-1.075-.901z"/><path fill="#CC8A4A" d="M513.572 385.206s8.181 30.212 10.29 35.599c2.11 5.388 50.504 114.404 50.504 114.404H472.54s-40.586-64.145-50.079-89.043c-9.495-24.898-10.55-79.974-10.55-79.974"/><path fill="#CC8A4A" d="m365.496 363.124-10.522 37.946s-9.588 47.977-4.774 78.508c4.814 30.532 7.384 55.632 7.384 55.632H458.57l-12.321-84.508 4.143-68.944"/><path stroke="#EAB773" stroke-miterlimit="10" stroke-width="1.5" d="m381.723 363.124-10.522 37.946s-9.589 47.977-4.776 78.508c4.814 30.532 7.384 55.632 7.384 55.632"/><path stroke="#000" stroke-miterlimit="10" stroke-width="1.5" d="M454.213 505.321c-.27-1.851-5.015-49.187-5.015-49.187"/><path stroke="#EAB773" stroke-miterlimit="10" stroke-width="1.5" d="m451.705 396.179-2.508 36.336s7.864-.213 10.242-2.65 7.721-33.686 7.721-33.686M483.405 396.179s15.247 27.597 26.475 31.841c11.228 4.245 19.36 5.192 19.36 5.192M362.21 449.167l28.692-15.227s12.808-11.161 27.41-44.157"/><path fill="#F9B7B7" d="m432.345 81.56-20.246 12.83 2.96 13.968-8.237 23.199-24.086 8.369s45.638 34.325 57.675 36.645c15.548 2.995 37.689-27.162 37.689-27.162l-12.854-6.074 7.706-31.717"/><path fill="#F9B7B7" d="M481.999 84.107c-3.77-11.657-7.866-27.487-12.157-35.978-3.632-7.191-9.927-17.58-16.956-20.804-9.05-4.152-19.162 1.52-28.099 5.35-14.675 6.29-17.646 25.543-15.577 40.739 1.59 11.672 4.903 22.761 12.711 31.242 12.694 13.793 38.646 20.638 53.464 6.412 7.082-6.8 10.787-14.057 6.614-26.961"/><path fill="#000" d="M450.68 66.655c.819 1.857.431 3.92-.869 4.605-1.298.686-3.016-.264-3.835-2.123-.819-1.856-.43-3.919.869-4.605 1.3-.686 3.016.264 3.835 2.123M473.783 59.272c.819 1.857.431 3.92-.869 4.606-1.298.686-3.016-.265-3.835-2.123-.818-1.857-.43-3.92.869-4.606 1.3-.686 3.016.266 3.835 2.123"/><path stroke="#000" stroke-miterlimit="10" d="M460.179 59.345c2.474 4.737 5.841 8.826 8.422 13.49.485.876.884 1.85.89 2.875.014 2.992-3.799 4.37-5.81 5.408"/><path fill="#DC4F35" d="M412.74 114.801s10.976-11.79 12.012-17.659c2.146-12.154-1.988-31.445.157-43.6l29.378-11.302c4.145-1.594 8.306-3.197 12.197-5.377 2.731-1.531 5.36-3.382 7.284-5.89 1.76-2.296 2.853-5.04 3.728-7.805.953-3.01 1.682-6.154 1.46-9.286-.507-7.158-6.59-13.357-13.593-13.85-4.669-.33-9.374 1.904-12.508 5.505-1.761 2.021-4.523 2.497-6.897 1.47a6 6 0 0 0-.984-.334c-2.37-.59-4.899.006-7.199.917-5.096 2.019-8.599 8.661-12.276 12.747-2.569 2.853-5.11-1.03-10.929 1.036-17.919 6.36-26.753 21.15-29.239 38.153-2.7 18.473 5.702 38.3 18.95 49.781 2.58 2.235 8.459 5.494 8.459 5.494"/><path stroke="#000" stroke-miterlimit="10" d="M436.265 113.296c5.084 4.965 20.595 10.227 34.554 1.81M434.458 62.025c.903-2.552 1.871-5.169 3.623-7.123 2.577-2.873 5.673-2.7 8.883-1.455M463.375 48.286c.254-1.422.841-2.925 1.73-4.017 2.393-2.93 5.458-.492 7.366 1.76"/><path stroke="#A84F4F" stroke-miterlimit="10" stroke-width="1.5" d="M458.015 66.347c1.676 6.032-1.435 12.408-6.948 14.242s-11.341-1.57-13.017-7.602c-1.677-6.031 1.435-12.408 6.948-14.242 5.514-1.833 11.34 1.57 13.017 7.602ZM480.796 58.77c1.676 6.03-.263 12.017-4.33 13.37s-8.722-2.44-10.399-8.472.263-12.019 4.33-13.371 8.724 2.44 10.399 8.472ZM465.497 60.315l-8.956 2.98M437.722 71.327l-18.504 15.538"/><path fill="#F9B7B7" d="M431.912 84.568c-1.924-5.422-10.091-7.017-13.942-3.506-9.263 8.442 1.294 27.893 11.864 25.944 2.991-.551 6.609-3.365 6.444-7.232"/><path stroke="#000" stroke-miterlimit="10" d="m420.301 90.684 12.187 5.422M424.962 79.71c2.72.577 5.282 2.114 7.245 4.344M417.615 100.72c2.863 3.918 7.243 7.527 11.951 6.557 3.267-.673 6.304-3.559 6.4-7.56M457.686 84.763c.468 2.845 1.523 8.58 6.756 6.532 1.62-.635 2.991-1.989 3.715-3.344"/><path fill="#4C4139" d="M395.85 133.941s29.577 39.591 51.438 38.511c14.517-.718 25.556-25.527 25.556-25.527s27.583 4.095 36.674 9.389c9.091 5.295-4.45 82.733-.999 109.165s12.5 135.591 12.5 135.591H352.906s-20.972-131.815-16.917-181.245 17.281-72.852 26.786-78.797c9.504-5.946 33.075-7.087 33.075-7.087"/><path stroke="#635245" stroke-miterlimit="10" stroke-width="1.5" d="M382.736 137.917c11.464 17.486 31.737 38.809 49.443 48.178 9.52 5.037 25.272 4.067 34.36-1.687 11.369-7.195 22.163-34.07 22.163-34.07"/><path fill="#4C4139" d="M506.898 155.168c8.762 3.575 17.054 9.256 22.496 17.575 5.674 8.672 7.836 19.456 9.445 29.974 3.359 21.949 4.867 44.234 4.535 66.485-.323 21.706-1.305 47.393-5.571 68.702-5.086 25.412-20.039 41.109-44.276 41.625-22.981.491-46.236-8.975-67.426-17.799-11.889-4.952-23.672-10.298-35.199-16.194l24.464-65.868 64.666 12.666s12.037-67.999 23.48-89.3"/><path stroke="#635245" stroke-miterlimit="10" stroke-width="1.5" d="M499.152 213.433c10.835-9.59 24.68-15.311 38.709-14.333"/><path stroke="#000" stroke-miterlimit="10" stroke-width="1.5" d="m415.366 279.666 64.666 12.667s12.037-68 23.48-89.3M518.284 371.855c-6.717 4.788-14.981 7.466-24.756 7.674-22.981.491-46.236-8.975-67.426-17.799-11.889-4.952-23.671-10.298-35.199-16.194"/><path stroke="#000" stroke-miterlimit="10" stroke-width="1.5" d="M478.596 292.053c12.124 2.264 23.939 6.358 34.976 12.124"/><path fill="#F9B7B7" d="M419.927 153.53c6.057-8.572 11.584-17.611 18.17-25.725 4.648-5.728 10.017-10.772 15.986-14.788 5.883-3.959 12.85-7.67 19.795-8.368 4.549-.456 8.235 2.72 11.453 5.805q2.84 2.724 5.682 5.447c.366.351.754.744.841 1.268.182 1.102-1.003 1.841-1.996 2.11-1.531.415-2.403-.164-3.979-.25 1.254.795 2.199 2.403 2.649 3.536.669 1.683.507 2.365-.305 4.024 1.587.391 2.802 1.724 3.215 3.452.405 1.694.068 3.513-.575 5.117-.168.421-.363.865-.302 1.32.073.556.496.96.845 1.375 6.958 8.285-4.501 18.428-10.852 21.597-.446.222-.917.441-1.404.405-.876-.067-1.547-.966-1.728-1.906-.181-.939.014-1.912.209-2.849-9.213 10.559-9.06 23.281-21.21 29.308"/><path stroke="#000" stroke-miterlimit="10" d="M419.927 153.53c6.057-8.572 11.584-17.611 18.17-25.725 4.648-5.728 10.017-10.772 15.986-14.788 5.883-3.959 12.85-7.67 19.795-8.368 4.549-.456 5.848 1.204 5.848 1.204"/><path stroke="#000" stroke-miterlimit="10" d="M486.627 119.333c-3.815-2.44-5.261-3.693-9.644-4.547-4.394-.855-10.164.757-13.887 3.216M488.223 126.59s-4.766-1.751-11.184-.926c-3.774.485-8.759 2.78-8.759 2.78M490.561 136.48c-3.117-.673-6.346-.795-9.475-.144-2.943.614-5.576 2.159-8.242 3.59M477.629 155.1l9.832-9.521"/><path fill="#4C4139" d="M370.554 137.917c-12.517 3.141-43.325 14.43-52.588 51.547-8.646 34.641-4.453 69.786.89 97.889s21.498 82.683 45.084 88.337c32.888 7.884 48.757-3.763 75.746-79.495 26.989-75.733 35.174-115.561 35.174-115.561l-58.052-31.225s-59.308 97.478-65.317 130.928"/><path stroke="#635245" stroke-miterlimit="10" stroke-width="1.5" d="m399.103 179.599 65.101 35.274"/><path stroke="#000" stroke-miterlimit="10" stroke-width="1.5" d="M416.808 149.409s-59.309 97.478-65.317 130.928M346.622 362.023c5.194 7.108 10.988 12.148 17.317 13.667 32.888 7.884 48.757-3.762 75.746-79.495s35.174-115.561 35.174-115.561"/><path stroke="#635245" stroke-miterlimit="10" stroke-width="1.5" d="M326.106 170.803c9.51-.684 19.028 2.483 27.38 7.69 8.353 5.205 15.63 12.381 22.324 20.076"/><path stroke="#000" stroke-miterlimit="10" stroke-width="1.5" d="M373.399 189.428c2.421 8.665 5.274 26.535 5.274 26.535"/><path fill="#FFE689" d="M253.284 350.916c14.336 63.849 36.954 183.644 36.954 183.644H123.265L96.696 365.919l36.5-65.215s26.68-7.742 30.769-11.802 50.056 3.874 50.056 3.874l31.737 13.085z"/><path fill="#A85C47" d="M322.568 332.61c6.339-23.87 15.604-40.287 24.609-51.315 8.804-10.78 17.482-21.131 28.577-28.915a164 164 0 0 1 7.457-4.925c3.043-1.898 6.119-3.812 9.472-4.921.833-.275 1.886-.432 2.439.302.29.385.348.916.353 1.414.057 4.629-3.223 8.392-6.278 11.596l-8.516 8.931c-2.797 2.935-5.686 6.017-6.993 10.009 2.031-1.913 5.142-2.312 7.52-.964 2.38 1.348 3.877 4.358 3.621 7.276 1.953-1.223 4.546-1.094 6.39.315 1.845 1.41 2.846 4.03 2.469 6.457 1.006-.589 3.502.121 4.374.926 4.281 3.959 1.062 10.634-.919 15.112-1.343 3.037-4.265 7.236-6.289 6.371-3.677 6.18-5.728 13.97-9.555 18.628-5.865 7.138-10.363 11.357-13.875 20.414"/><path fill="#A85C47" d="M345.077 291.909c4.828-6.28 12.379-9.031 19.531-11.5l8.579-2.962c.758-.261 1.634-.511 2.308-.047.538.37.774 1.093.885 1.779.632 3.901-1.673 7.71-4.483 10.208s-6.185 4.157-8.971 6.689c-.609.553-1.2 1.167-1.545 1.946-.691 1.558-.265 3.4.103 5.085 2.452 11.174 1.815 23.136-1.805 33.923"/><path stroke="#000" stroke-miterlimit="10" d="M345.077 291.909c4.828-6.28 12.379-9.031 19.531-11.5l8.579-2.962c.758-.261 1.634-.511 2.308-.047.538.37.774 1.093.885 1.779.632 3.901-1.673 7.71-4.483 10.208s-6.185 4.157-8.971 6.689c-.609.553-1.2 1.167-1.545 1.946-.691 1.558-.265 3.4.103 5.085 2.452 11.174 1.815 23.136-1.805 33.923"/><path stroke="#000" stroke-miterlimit="10" d="m384.576 281.17-1.214 4.619c-.596 2.268-1.194 4.544-2.05 6.711-.952 2.407-2.387 4.824-4.639 5.719-1.715.681-3.729.325-5.194-.865s-2.358-3.159-2.392-5.155"/><path stroke="#000" stroke-miterlimit="10" d="M393.688 287.87c-.729 3.335-1.792 7.173-3.222 10.223-.692 1.476-1.473 2.929-2.55 4.097-1.078 1.168-2.485 2.039-3.998 2.144-1.623.111-5.558-.529-7.245-6.114M385.028 304.26a14.4 14.4 0 0 0 2.533 3.753c.941 1.005 2.204 1.96 3.616 1.952"/><path fill="#FFE689" d="M203.88 291.566c12.772 1.47 25.6 2.952 38.024 6.505 17.11 4.892 29.531 12.598 38.658 29.583 5.191 9.663 24.389 46.625 24.389 46.625l19.418-53.843 60.093 22.463s-25.23 100.428-30.524 116.362c-5.297 15.935-17.654 40.077-37.071 38.628-19.418-1.449-29.127-11.106-41.924-32.352s-47.402-84.017-47.402-84.017"/><path stroke="#CC8A4A" stroke-miterlimit="10" stroke-width="1.5" d="M251.98 369.131h-36.088s4.202 23.375 6.36 29.144c2.158 5.771 7.775 13.312 20.284 13.312s15.109-8.937 13.937-17.876c-1.174-8.938-4.493-24.58-4.493-24.58ZM218.197 378.472h35.449M143.613 297.049c3.349 16.94 17.476 25.415 31.792 27.757M187.146 326.282c10.841 1.007 22.715-1.984 29.463-10.117 5.953-7.174 6.427-13.211 5.162-22.056"/><path stroke="#000" stroke-miterlimit="10" stroke-width="1.5" d="M277.964 470.897S260.08 370.76 260.08 355.334M304.95 374.281s-22.129 44.056-22.129 59.01"/><path stroke="#CC8A4A" stroke-miterlimit="10" stroke-width="1.5" d="m317.136 340.492 61.239 26.475"/><path fill="#A85C47" d="m170.696 245.784-17.213 15.84 4.93 12.683-4.263 23.466s11.448 19.815 34.948 19.815c23.499 0 24.698-19.487 24.698-19.487l-2.974-30.71"/><path fill="#A85C47" d="M227.241 250.95c-.488-11.875-4.089-24.386-7.284-33.035-2.704-7.322-7.61-18.037-13.977-22.003-8.196-5.11-18.447-.979-27.381 1.543-14.67 4.141-19.544 22.137-19.179 36.9.28 11.341 2.267 22.343 8.82 31.427 10.653 14.772 32.64 25.259 48.439 13.808 8.581-6.221 11.034-17.132 10.562-28.64"/><path fill="#000" d="M199.836 235.269c.932 1.7.724 3.711-.465 4.492-1.189.78-2.909.033-3.841-1.666-.932-1.7-.724-3.711.465-4.491 1.191-.781 2.91-.036 3.841 1.665M222.123 229.011c.932 1.699.724 3.71-.465 4.49s-2.909.033-3.841-1.666c-.932-1.7-.724-3.711.466-4.491s2.908-.033 3.84 1.667"/><path stroke="#000" stroke-miterlimit="10" d="M210.822 228.631s3.529 8.483 5.377 11.159c1.364 1.975 3.938 4.97 1.568 7.277-1.48 1.44-5.706 2.807-5.706 2.807"/><path fill="#fff" d="m215.359 257.055-11.764-4.603s-3.296 12.383 1.261 14.412c7.362 3.28 10.503-9.809 10.503-9.809"/><path fill="#21212D" d="M158.413 274.307s4.517-22.317 2.766-34.5c8.805-.605 17.264-5.73 22.403-13.575 2.274-3.471 3.907-7.398 6.104-10.928 4.995-8.022 13.8-12.319 22.673-12.319 2.144 3.217 4.897 7.891 6.35 11.892 7.728-6.209 9.751-18.401 8.959-28.856-.433-5.696-2.395-11.335-5.948-15.527s-8.757-6.807-13.973-6.464c-9.249.606-15.974 9.571-24.28 14.063-8.406 4.547-18.369 4.417-26.947 8.557-11.798 5.693-21.079 18.534-24.693 31.852-2.555 9.415-2.102 19.771 1.264 28.876 2.618 7.084 6.985 13.374 12.477 18.087 1.011.867 12.845 8.842 12.845 8.842"/><path fill="#A85C47" d="M175.474 246.295c-1.421-6.106-10.014-8.988-14.577-5.763-10.969 7.756-1.939 30.182 9.663 29.596 3.283-.166 7.51-2.673 7.793-6.857"/><path stroke="#000" stroke-miterlimit="10" d="m162.256 251.215 12.46 7.571M168.578 240.077c2.857 1.009 5.429 3.028 7.274 5.707M158.17 261.624c2.61 4.622 6.891 9.128 12.07 8.759 3.593-.257 7.205-2.925 7.785-7.215M187.547 281.354c.449.133 11.976 7.25 26.247.605M212.171 202.434c2.425-.396 4.868-1.031 6.965-2.424 2.096-1.392 3.821-3.643 4.212-6.292"/><path fill="#21212D" d="M197.632 221.075c-2.825.125-7.675 3.348-8.589 4.134-.883.76-2.8 3.767.106 3.424 1.69-.201 1.7.109 3.162-.636 1.819-.927 3.911-1.217 5.779-2.031 1.019-.444 1.571-1.806 1.59-2.841.027-1.574-.818-2.105-2.048-2.05M212.669 217.303c1.99-1.166 6.474-.451 7.382-.157 1.22.398 2.246 1.458 2.414 2.936.112.979-1.082 1.522-1.756 1.367-2.543-.58-4.094.304-6.617.479-.86.061-1.725-.92-2.106-1.846-.578-1.408-.183-2.271.683-2.779"/><path fill="#19151E" d="m331.014 492.073-63.696-7.547c-1.653-.196-2.643-1.869-2.211-3.737l21.085-91.07c.433-1.868 2.123-3.223 3.776-3.027l63.696 7.547c1.653.197 2.643 1.87 2.211 3.737l-21.084 91.071c-.432 1.867-2.124 3.223-3.777 3.026"/><path fill="#342E3D" d="m335.536 492.61-63.696-7.548c-1.653-.196-2.644-1.869-2.211-3.736l21.085-91.071c.432-1.868 2.122-3.223 3.776-3.027l63.696 7.548c1.653.196 2.643 1.869 2.211 3.737l-21.086 91.07c-.43 1.866-2.122 3.222-3.775 3.027"/><path stroke="#554C63" stroke-miterlimit="10" d="m306.163 414.411-12.345-1.462c-1.022-.121-1.633-1.156-1.367-2.311l3.036-13.112c.267-1.155 1.313-1.993 2.335-1.872l12.345 1.462c1.022.121 1.633 1.156 1.367 2.311l-3.036 13.112c-.268 1.156-1.313 1.995-2.335 1.872Z"/><path fill="#19151E" d="M303.493 402.699c-.365 1.581-1.796 2.729-3.197 2.563-1.399-.166-2.237-1.582-1.871-3.162.366-1.581 1.797-2.729 3.197-2.563 1.399.166 2.237 1.582 1.871 3.162"/><path fill="#554C63" d="M323.165 434.418c-.561 2.167-3.445 3.418-6.44 2.794-2.995-.622-4.969-2.884-4.407-5.051.561-2.167 3.445-3.418 6.44-2.794s4.967 2.885 4.407 5.051" opacity=".35"/><path fill="#A85C47" d="M223.347 463.83a164.5 164.5 0 0 0 24.594-5.573c6.653-2.052 14.16-4.921 19.093-10.451 1.618-1.815 2.934-3.92 4.224-6.026.526-.858 1.206-1.816 2.151-1.812.667.003 1.241.506 1.693 1.041 1.772 2.099 1.839 4.931 1.294 7.723-.568 2.907-1.693 5.52-3.302 7.915s-3.114 5.169-2.877 8.13c.082 1.013 8.631.027 9.343-.075 3.611-.519 7.141-1.584 10.599-2.811 6.416-2.277 12.737-5.116 19.428-6.044 1.564-.216 3.612.005 4.05 1.662.495 1.871-1.566 3.225-2.513 4.873 1.393.358 2.81-.303 4.205-.66 1.393-.358 3.138-.26 3.893 1.071.956 1.684-.399 3.773-1.715 5.133 1.91 1.138 1.527 4.35.281 6.301s-4.044 4.628-4.044 4.628 3.732-.761 2.918 2.389c-.064.245-.212.452-.362.645-9.218 11.848-18.109 21.101-31.117 27.392-6.393 3.091-13.189 5.006-22.669 7.272-9.774 2.336-20.677 3.977-30.542 5.792"/><path stroke="#000" stroke-miterlimit="10" d="M272.947 464.94c-5.927-.231-10.917-.244-16.615-.231M311.125 462.382c-3.617 3.743-8.246 6.147-12.791 8.489-1.997 1.029-3.995 2.06-6.034 2.996-5.12 2.356-10.472 4.122-15.906 5.475M318.141 467.201c-10.974 10.291-23.226 18.334-36.152 23.733M315.091 477.382c-9.341 8.942-19.813 16.613-31.264 21.923"/><path fill="#FFE689" d="M140.06 298.808c-25.864 7.428-39.472 7.428-56.862 36.297-11.36 18.86-12.347 43.118-12.183 65.716.184 25.139 1.804 50.38 6.309 74.95 3.913 21.34 9.598 58.787 45.958 58.787h118.616l-14.358-71.744-75.088-3.665s-14.781-77.464-20.217-89.976"/><path stroke="#000" stroke-miterlimit="10" stroke-width="1.5" d="M155.53 459.3s-24.837-1.593-33.832 3.516"/><path stroke="#CC8A4A" stroke-miterlimit="10" stroke-width="1.5" d="m212.447 534.56-12.425-74.299"/><path stroke="#000" stroke-miterlimit="10" stroke-width="1.5" d="M132.235 369.175c5.436 12.51 20.217 89.975 20.217 89.975l75.088 3.666"/><path fill="#A2BDFF" d="M794.717 330.521c-2.785-2.617-5.535-5.066-6.194-9.064-1.359-8.235 2.021-16.568 7.807-22.138 12.041-11.592 27.783-19.043 44.171-20.906 7.207-.819 14.486-.588 21.721-.109 15.035.997 30.341 3.167 43.781 10.178 13.438 7.01 24.853 19.617 27.306 34.916 1.32 8.235 1.548 18.069-3.118 25.291-2.57 3.979-6.524 6.854-10.782 8.755-9.081 4.056-19.633 4.944-29.421 4.882"/><path fill="#F9B7B7" d="m850.085 279.23 18.741 13.607-3.587 13.212-.2 22.329 22.664 9.573s-45.626 30.017-57.3 31.472c-15.077 1.88-36.048-38.612-36.048-38.612l7.734-4.959 7.424-20.379"/><path fill="#F9B7B7" d="M798.516 277.181c3.6-11.214 7.507-26.442 11.614-34.617 3.478-6.921 9.507-16.924 16.257-20.04 8.691-4.015 18.424 1.414 27.023 5.076 14.119 6.01 17.014 24.511 15.055 39.124-1.504 11.225-4.668 21.893-12.155 30.066-12.175 13.289-37.109 19.933-51.383 6.291-6.82-6.518-10.397-13.487-6.411-25.9"/><path fill="#4C4139" d="M857.604 265.708c-7.414 2.658-14.27 7.693-19.638 14.42-.455.569-.942 1.18-1.58 1.349-.478.127-.967-.016-1.434-.162-10.823-3.345-33.865-12.511-33.865-12.511s-2.432 7.403-3.125 10.092c-1.523 5.904-5.034 15.703-3.682 21.677 1.963 8.667 15.242 14.045 23.422 15.313 9.83 1.523 15.365 1.364 23.632-4.082 8.17-5.382 25.452-20.295 25.452-20.295"/><path fill="#000" d="M827.919 264.457c-.783 1.788-.406 3.769.844 4.425s2.898-.262 3.681-2.051c.784-1.787.407-3.768-.843-4.424-1.249-.654-2.898.263-3.682 2.05M807.255 255.21c-.784 1.788-.406 3.768.844 4.424s2.898-.261 3.682-2.049.406-3.768-.844-4.424-2.898.261-3.682 2.049"/><path stroke="#000" stroke-miterlimit="10" d="M819.437 253.32a86 86 0 0 1-4.943 7.783c-1.548 2.171-3.705 4.244-4.52 6.91-1.126 3.687 3.693 5.163 5.942 6.242"/><path fill="#4C4139" d="M865.157 306.519s-10.576-11.307-11.583-16.946c-1.298-7.268.37-14.723.356-22.033-.006-3.391-.265-7.19-1.659-10.255-1.567-3.444-4.358-6.362-7.099-8.686-4.28-3.629-9.298-6.782-14.172-9.333-2.604-1.363-8.114-3.655-11.002-3.729-5.078 1.429-9.218 6.707-12.498 13.201-4.758-10.435-6.74-22.569-4.475-33.962.292-1.466.649-2.941 1.345-4.233 1.554-2.887 4.621-4.48 7.662-4.882s6.108.22 9.119.831c.911.186 1.867.368 2.75.058 1.456-.512 2.259-2.161 3.046-3.596 3.281-5.979 9.362-10.576 15.705-9.885 1.107.121 2.215.402 3.19.989 4.503 2.713 4.209 10.136 7.691 14.273.252.3.538.591.897.701.839.26 1.609-.521 2.257-1.157 2.6-2.56 6.353-3.672 9.764-2.824s6.376 3.661 7.559 7.263c.589 1.791.749 3.708.979 5.594.996 8.141 3.389 16.077 7.017 23.268 4.24 8.406 6.067 12.795 6.811 22.795 1.649 22.14-23.66 42.548-23.66 42.548"/><path stroke="#000" stroke-miterlimit="10" d="M841.899 260.455c-1.045-1.829-2.157-3.705-3.95-5.2-2.636-2.197-5.521-2.357-8.427-1.792M817.329 248.034a7.25 7.25 0 0 0-1.935-2.904c-2.469-2.219-5.146-.826-6.755.544"/><path fill="#F9B7B7" d="M860.994 277.195c-1.562-2.507-4.688-3.542-7.345-3.37-3.094.201-4.848 2.092-6.474 4.819-1.695 2.841-4.221 5.95-5.298 9.125-1.156 3.407.616 6.609 3.469 8.099 8.449 4.41 21.576-9.154 15.648-18.673"/><path stroke="#000" stroke-miterlimit="10" d="m856.927 284.664-11.422 1.357"/><path fill="#fff" d="M811.586 282.648c.257 2.903 1.689 5.533 3.172 6.336 4.791 2.588 8.293-2.462 7.15-8.116z"/><path stroke="#4C4144" stroke-miterlimit="10" d="M821.127 234.907c-2.533-1.164-5.001-2.602-7.006-4.657-2.005-2.054-3.525-4.782-3.842-7.768"/><path fill="#F9B7B7" d="M676.457 352.967c-6.662-22.741-13.329-45.508-17.652-68.835-.795-4.293-4.571-.005-5.317 1.846-2.984 7.404-.567 15.514-2.17 15.914-2.184-8.883-4.728-15.76-5.907-19.239-2.241-6.615-5.136-12.726-7.676-17.696-.207-.405-.473-.817-.987-.977-2.461-.762-3.794 2.599-4.008 3.681-2.046 10.302 2.957 14.555 3.863 25.68-1.32-5.33-3.722-10.9-5.784-16.009-1.194-2.958-7.065-14.718-10.371-15.437-2.178-.473-2.931 3.071-3.056 4.508-.258 2.98.349 5.744.936 8.742 0 0-1.734-3.044-2.298-4.849-.329-1.053-1.36-2.308-2.707-2.496-1.678-.236-3.219 2.381-3.536 3.641-1.278 5.092 4.112 20.504 4.112 20.504s-6.594-9.582-9.21-8.41c-2.615 1.173-1.685 4.826-.589 8.182 1.095 3.356 3.759 6.889 5.395 10.157 4.047 8.082 4.941 15.76 7.453 24.474 1.51 5.235 3.231 10.407 5.382 15.373 2.069 4.773 5.066 9.029 6.778 13.949 1.289 3.697.384 7.637 1.604 11.293"/><path stroke="#000" stroke-miterlimit="10" d="M652.159 299.976c.183 2.983-.937 6.031-1.814 9.027-2.353 8.049-3.002 16.355-1.893 24.242M632.867 279.427a320 320 0 0 1 7.532 25.007M617.681 274.767c4.542 9.965 8.468 21.405 10.683 31.839M611.448 287.563a90 90 0 0 1 9.635 22.815"/><path fill="#A2BDFF" d="M797.94 312.489c2.747 2.594 2.578 8.088 4.161 11.329 6.242 12.78 22.407 13.231 33.677 8.042 10.494-4.831 17.705-15.06 28.617-19.06 8.911-3.265 18.517-4.021 27.716-1.614 13.005 3.402 23.591 32.664 23.591 32.664s15.426 12.14 26.92 37.354c11.494 25.216 33.984 154.157 33.984 154.157H788.223s-8.106-80.124-12.947-96.622c-4.839-16.499-15.649-54.732-15.649-65.005s5.802-35.555 5.802-35.555l22.986-16.524z"/><path fill="#A2BDFF" d="M788.415 321.655s-8.622 3.797-18.301 6.287-27.006 11.884-35.173 26.203c-8.167 14.32-26.13 38.149-26.13 38.149s-13.318-32.608-21.839-42.879c-2.7-3.257-10.516-7.842-10.516-7.842l-4.548-9.975-49.428 19.492 3.463 11.86s-6.051 7.995-1.513 20.136c4.537 12.14 26.909 77.694 32.96 90.205 6.048 12.509 10.985 40.298 48.141 40.298s82.691-93.226 82.691-93.226"/><path stroke="#000" stroke-miterlimit="10" stroke-width="1.5" d="M799.472 310.839c1.046 7.39 3.398 15.438 9.145 20.425 6.862 5.958 16.905 4.821 24.732 1.451 8.415-3.623 15.017-10.18 22.776-14.868 7.733-4.672 16.116-8.305 24.924-10.15 11.758-2.462 24.339-1.619 35.218 3.588M880.799 330.693c15.678 2.143 31.623 9.106 44.675 23.114M788.814 321.561a44.6 44.6 0 0 0 5.513 8.579M845.356 346.503c1.909 0 3.456-1.693 3.456-3.782s-1.547-3.782-3.456-3.782-3.457 1.693-3.457 3.782 1.548 3.782 3.457 3.782ZM803.105 341.044c1.909 0 3.457-1.694 3.457-3.782s-1.548-3.782-3.457-3.782-3.457 1.693-3.457 3.782 1.548 3.782 3.457 3.782Z"/><path stroke="#7984D1" stroke-linejoin="round" stroke-miterlimit="10" stroke-width="1.5" d="m803.105 337.262.335 71.733M845.194 341.199a825 825 0 0 1 4.862 86.972"/><path stroke="#000" stroke-miterlimit="10" stroke-width="1.5" d="M777.426 450.814s-10.597-60.785-14.41-71.782M708.812 392.294s24.398 41.345 26.13 56.135M676.457 341.571l-50.513 21.378"/><path fill="#F9B7B7" d="M780.694 445.061c-16.786-7.182-34.408-14.495-52.317-12.271-9.172 1.139-20.144 4.424-27.973 9.912-6.561 4.599-9.758 11.174-9.876 19.579-.044 3.146-.313 6.288-.366 9.437-.069 4.114-1.023 8.056 3.609 7.996-.446 2.387-.863 5.013.219 7.144 1.083 2.129 4.36 2.892 5.439.76-.488 1.686.984 3.437 2.578 3.74 1.594.302 3.188-.396 4.679-1.081-1.069.864-.749 2.865.311 3.746 1.059.879 2.506.911 3.828.754 6.96-.83 11.921-6.434 19.188-6.505 7.565-.074 14.559 3.992 21.636 6.922 10.643 4.406 22.401 6.502 33.778 5.78"/><path stroke="#000" stroke-miterlimit="10" d="M693.634 479.256c.77-7.344 2.646-14.637 6.2-20.921 3.557-6.285 8.884-11.51 15.277-13.898M699.473 488.496c2.599-7.002 5.193-14.347 9.108-20.373 3.486-5.366 8.059-9.625 13.198-12.198M706.049 490.912c4.957-5.39 7.14-10.261 13.094-14.264 2.455-1.65 7.541-3.03 10.903-3.566"/><path fill="#A2BDFF" d="M884 356.962c-7 11.736-20.124 58.134-25.27 72.623-1.085 3.057-1.933 7.294-3.757 9.957 0 0-28.713 1.989-45.34-.71-9.174-1.49-29.228-4.75-36.655 1.328l-12.371-3.42-16.99 59.874 12.789 4.712s1.242 7.137 9.963 13.135c8.721 5.997 81.642 17.517 107.365 19.201s37.01-6.171 47.571-40.449c11.508-37.355 17.903-61.635 17.903-61.635"/><path stroke="#000" stroke-miterlimit="10" stroke-width="1.5" d="m748.1 497.764 8.306 3.562s1.242 7.138 9.963 13.135 81.642 17.517 107.365 19.201 37.011-6.17 47.571-40.449c11.508-37.355 17.904-61.635 17.904-61.635M884 356.962c-7.001 11.736-20.124 58.134-25.27 72.623-1.085 3.057-1.933 7.294-3.758 9.957 0 0-28.929.189-45.339-.71-9.264-.507-29.228-4.75-36.655 1.328l-13.35-3.343M772.978 440.16l-16.246 62.362"/><path stroke="#000" stroke-miterlimit="10" stroke-width="1.5" d="M852.39 439.843c6.027-.219 11.949.455 18.791 1.393 6.813.934 15.649 3.018 21.356 7.193"/><path fill="#B7C8EA" d="M630.215 429.511h118.672c3.069 0 5.814 2.316 6.882 5.805l28.302 92.528h59.233c2.92 0 5.287 2.87 5.287 6.412H656.45l-30.021-98.147c-.977-3.197.973-6.598 3.786-6.598"/><path fill="#EBEEF7" d="M650.121 534.256h129.583l-30.263-98.94c-1.068-3.489-3.813-5.805-6.882-5.805H623.887c-2.814 0-4.764 3.401-3.786 6.598z"/><path stroke="#B7C8EA" stroke-miterlimit="10" stroke-width="1.5" d="M701.763 485.779h-16.12c-1.221 0-2.305-.851-2.697-2.115l-2.488-8.018c-.562-1.81.669-3.688 2.416-3.688h16.12c1.221 0 2.305.851 2.697 2.114l2.487 8.019c.561 1.811-.668 3.688-2.415 3.688Z"/></svg>