<svg xmlns="http://www.w3.org/2000/svg" width="228" height="304" fill="none"><rect width="228" height="303" fill="#FDFDFD" rx="26"/><path fill="#0CC7BB" d="m67.113 303.739 2.303-15.099c.508-3.333 1.066-6.79 3.093-9.602 2.312-3.208 6.229-5.138 10.15-6.532a304 304 0 0 1 9.593-3.248c1.707-.543 3.361-1.44 5.011-2.123a296 296 0 0 1 4.934-1.992h20.308c1.728.679 3.22 1.284 4.934 1.992 1.65.683 3.304 1.58 5.011 2.123a305 305 0 0 1 9.593 3.248c3.921 1.394 7.838 3.324 10.15 6.532 2.027 2.812 2.585 6.269 3.094 9.602l2.302 15.099"/><path fill="#fff" d="M100.868 252.249c2.705 5.542 2.582 12.01-.217 17.514-.375.736-.804 1.464-1.426 2.044 0 0 11.059 11.733 26.292 0 .177-.136-.418-.61-.544-.763a5.7 5.7 0 0 1-.587-.856c-1.546-2.751-2.346-5.781-2.427-8.882a19.8 19.8 0 0 1 1.982-9.196"/><path fill="#231F20" d="M100.66 252.302c2.641 5.847 3.097 14.165-1.587 19.366-.078.087-.083.193 0 .279 7.347 7.647 18.734 5.809 26.597 0 .054-.04.081-.133.055-.192-.27-.637-.771-1.07-1.153-1.666-1.234-1.923-1.856-4.326-2.171-6.506-.57-3.929.103-7.767 1.748-11.421.106-.234-.312-.336-.416-.104-1.497 3.324-2.231 6.807-1.926 10.407.131 1.547.444 3.093.945 4.574.373 1.102 1.952 3.076 2.035 4.105.114 1.434-2.889 2.879-4.12 3.491-1.932.961-3.982 1.655-6.154 1.977a17.53 17.53 0 0 1-9.038-1.047 18.8 18.8 0 0 1-4.94-2.863c-1.278-1.036-1.01-.876-.095-2.112 3.814-5.147 3.084-12.978.637-18.394-.104-.23-.522-.129-.417.106"/><path fill="#231F20" d="M157.763 303.696c-.824-5.403-1.571-10.822-2.476-16.213-.701-4.176-1.796-8.145-5.365-11.054-3.082-2.513-7.012-3.812-10.816-5.127-5.61-1.941-11.008-4.121-16.51-6.301-.211-.083-.394.2-.182.284 4.145 1.641 8.139 3.511 12.39 4.911 4.63 1.525 9.662 2.885 13.65 5.593 4.697 3.19 5.874 7.884 6.658 12.896.787 5.03 1.535 10.065 2.303 15.098.033.208.38.119.348-.087M102.106 265c-5.305 2.101-10.496 4.233-15.911 6.093-3.996 1.373-8.177 2.694-11.416 5.334-3.388 2.762-4.582 6.509-5.27 10.495-.962 5.574-1.718 11.184-2.57 16.772-.032.207.315.296.346.087.768-5.033 1.51-10.069 2.303-15.099.79-5.01 1.956-9.702 6.658-12.895 3.99-2.709 9.02-4.069 13.65-5.594 4.251-1.399 8.245-3.268 12.39-4.91.214-.083.03-.366-.18-.283"/><path fill="#231F20" d="M99.225 271.808s1.993-2.557 2.259-3.96c.102-.093-2.977.018-4.547 1.288 0 0 2.943 6.906 15.062 7.886.171-.002 8.735.863 16.656-7.845 0 0-2.472-1.879-5.544-1.441.085-.092 2.407 4.072 2.407 4.072s-12.043 11.535-26.293 0"/><path fill="#EFA841" d="m128.012 245.398-1.727 3.546c-.037.076.087.143.125.066l1.727-3.546c.037-.076-.087-.143-.125-.066M111.671 237.3a5.4 5.4 0 0 1-2.01-.022 3.7 3.7 0 0 1-.785-.233c-.448-.209-.41-.538-.344-.928.19-1.104.438-2.199.678-3.295.474-2.172.936-4.354 1.03-6.572.004-.085-.14-.085-.144 0-.11 2.588-.724 5.121-1.268 7.654a71 71 0 0 0-.377 1.866c-.068.369-.254.878.06 1.195.326.329.976.429 1.428.494a5.6 5.6 0 0 0 1.77-.034c.091-.015.052-.142-.038-.125" opacity=".3"/><path fill="#231F20" d="M127.245 214.063c3.42 4.875 4.017 10.427 3.707 16.089-.313 5.733-1.04 11.546-3.828 16.767-2.417 4.527-6.194 8.625-11.11 11.021-3.556 1.734-6.082.941-9.246-.973-2.742-1.66-5.057-3.856-6.93-6.313-3.596-4.717-5.191-10.128-5.816-15.783-.573-5.186-.997-10.613.662-15.677 2.213-6.755 7.784-10.877 15.421-11.564 6.8-.611 13.032 1.275 17.14 6.433.162.204.537.007.373-.198-5.386-6.764-16.479-8.903-24.662-4.954-10.371 5.005-10.386 16.725-9.366 25.96 1.007 9.127 5.143 18.442 14.289 23.176 1.058.547 3.18 1.723 4.459 1.704 2.054-.032 4.972-1.949 6.526-2.987 3.854-2.572 6.842-6.15 8.854-10.08 2.646-5.172 3.36-10.89 3.666-16.532.31-5.718-.317-11.371-3.766-16.287-.149-.213-.523-.016-.373.198"/><path fill="#231F20" d="m117.335 218.263.113 2.029s7.237.67 7.237.555v-1.931zM110.231 225.747l-1.075 5.652c-.278 1.462-1.015 3.342-.918 4.836.114 1.74 2.759 1.227 4.151 1.144.276-.016.279-.41 0-.394-1.545.092-3.081.479-3.562-1.567-.185-.79.425-2.232.58-3.044l1.24-6.523c.047-.247-.369-.354-.416-.104M106.837 246.089c4.151.533 8.746.317 12.28-1.912.227-.143.012-.485-.218-.34-3.423 2.159-7.918 2.39-11.947 1.873-.272-.035-.39.345-.115.379M110.584 248.384a4.7 4.7 0 0 0 2.138-.528c.242-.127.024-.467-.217-.34a4.2 4.2 0 0 1-1.921.475c-.278.002-.279.396 0 .393M93.424 227.448c-1.483-1.269-3.89-1.928-5.567-.483-1.717 1.481-1.267 4.44-.725 6.272.614 2.072 1.75 5.141 4.129 6.057 1.498.578 3.03.144 3.268-1.413.038-.247-.379-.355-.417-.104q-3.139 1.822-4.38-.24a5.1 5.1 0 0 1-.872-1.266c-.542-.932-1.008-2.103-1.31-3.139-.396-1.353-.631-2.821-.275-4.206.656-2.55 3.732-3.005 5.844-1.199.203.172.509-.106.305-.279"/><path fill="#231F20" d="M93.526 232.034c-1.102-.927-3.651-2.158-4.643-.483-.132.223.241.422.374.199.823-1.392 3.085-.178 3.964.562.203.172.51-.105.305-.278"/><path fill="#231F20" d="M91.674 231.112c-1.063.793-1.294 2.093-.586 3.16.144.216.517.019.373-.199-.615-.927-.398-1.998.518-2.681.216-.161-.091-.438-.305-.28M131.548 227.726c1.97-1.684 5.204-1.254 5.844 1.199.353 1.355.095 2.877-.275 4.206a14 14 0 0 1-1.31 3.14l-.397.679q-1.319 2.684-4.855.827c-.038-.251-.455-.144-.417.104.235 1.54 1.744 1.988 3.243 1.423 2.378-.896 3.559-4.008 4.154-6.067.536-1.855.979-4.737-.703-6.256-1.645-1.487-4.116-.792-5.589.466-.204.174.102.452.305.279"/><path fill="#231F20" d="M131.446 232.312c.876-.737 3.14-1.955 3.964-.562.132.222.506.024.373-.199-.991-1.674-3.543-.443-4.643.483-.204.172.102.45.306.278"/><path fill="#231F20" d="M132.687 231.391c.917.683 1.133 1.755.519 2.682-.144.217.229.415.372.198.709-1.067.477-2.367-.586-3.159-.213-.159-.52.119-.305.279M118.669 229.954c.909 0 1.646-.672 1.646-1.5 0-.829-.737-1.501-1.646-1.501s-1.645.672-1.645 1.501.737 1.5 1.645 1.5M105.436 218.263l-.114 2.029s-7.236.67-7.236.555v-1.931zM103.981 229.954c.908 0 1.645-.672 1.645-1.5 0-.829-.737-1.501-1.645-1.501-.909 0-1.646.672-1.646 1.501s.737 1.5 1.646 1.5M135.383 215.705c-.491-1.438-1.782-2.725-3.417-2.932-1.573-.199-1.491-1.07-1.723-2.363-.452-2.523-1.875-4.854-3.789-6.722-1.915-1.867-4.305-3.29-6.838-4.385-1.159-.501-2.36-.939-3.615-1.18-1.9-.366-3.87-.273-5.804-.114-2.155.177-4.331.441-6.334 1.186-2.004.744-3.841 2.021-4.794 3.793-1.422 2.642-.241 5.39 1.849 7.328l.002.001a16 16 0 0 1 3.244-1.747c1.707-.677 3.589-.932 5.429-1.137 1.902-.212 3.835-.269 5.741-.057.553.061 1.087.205 1.631.273 1.513.189 2.98.631 4.341 1.259a16.27 16.27 0 0 1 6.765 5.827c2.579 3.913 3.268 8.412 3.236 12.925l.174.099c1.842-2.249 3.161-4.853 3.845-7.591.367-1.468.548-3.026.057-4.463"/><path fill="#231F20" d="M95.06 209.582c-1.016.882-1.625 2.084-2.076 3.296a17.65 17.65 0 0 0-.817 9.358c.37 1.985 1.082 3.932 1.101 5.944-.44-3.238.255-6.426 1.404-9.517 1.005-2.703 2.678-5.149 6.311-8.248.126-.107-1.836-1.809-2.359-1.964-1.167-.343-2.753.429-3.563 1.131M85.478 303.668v-11.326c0-.169-.288-.17-.288 0v11.326c0 .169.288.169.288 0M137.914 303.668v-11.326c0-.169-.289-.17-.289 0v11.326c0 .169.289.169.289 0M100.942 252.332s9.065 20.442 21.248 4.465l.206.121c.005-.147.119-3.436 1.854-5.187.014-.02-3.204 3.591-6.929 5.405.017-.01-4.608 2.729-5.624 2.425 0 0-7.627-2.473-10.755-7.229M128.05 238.989a5 5 0 0 0 2.133.196l.337-3.434c.498-5.098.998-10.218.655-15.327-.18.566-.43 1.142-.58 1.709-.14.524-.057 1.114-.062 1.657a50 50 0 0 1-.175 3.772 51 51 0 0 1-1.184 7.415c-.079.337-1.093 4.022-1.124 4.012"/><path fill="#231F20" d="M96.55 238.989c-.68.218-1.419.286-2.134.196l-.336-3.434c-.498-5.098-.998-10.218-.656-15.327.181.566.43 1.142.581 1.709.14.524.057 1.114.062 1.657q.016 1.889.175 3.772c.21 2.492.606 4.971 1.184 7.415.08.337 1.093 4.022 1.124 4.012"/></svg>