<svg width="285" height="272" viewBox="0 0 285 272" fill="none" xmlns="http://www.w3.org/2000/svg">
<rect x="0.0527344" y="0.083374" width="284.136" height="270.902" rx="36" fill="#292929" fill-opacity="0.63"/>
<path d="M91.5047 215.455C86.6578 226.848 94.8964 239.78 105.637 245.017C115.491 249.822 128.465 249.601 136.809 242.124C140.008 239.258 142.379 235.641 144.251 231.856C147.44 225.404 146.812 219.207 145.3 212.41C143.552 204.559 141.805 196.707 140.058 188.855C139.085 184.481 137.921 179.787 134.384 176.851C131.416 174.389 127.392 173.695 123.592 173.399C119.522 173.083 115.286 172.912 111.34 174.108C110.032 174.505 108.754 175.024 107.633 175.779C104.196 178.092 102.715 182.246 102.039 186.206C101.554 189.045 101.376 191.933 100.721 194.746C100.132 197.269 99.1665 199.86 98.2132 202.283C96.4154 206.857 93.4301 210.929 91.5047 215.455Z" fill="#221F4C"/>
<path d="M94.8707 215.98C93.6802 222.599 96.0506 229.659 100.611 234.826C105.577 240.452 112.882 243.937 120.46 245.294C122.543 245.667 124.72 245.887 126.76 245.338C128.681 244.821 130.344 243.656 131.77 242.324C135.65 238.698 138.027 233.647 138.287 228.473C138.656 221.122 134.945 214.033 135.071 206.675C135.092 205.488 135.217 204.284 135.674 203.18C136.102 202.147 136.806 201.238 137.281 200.224C138.077 198.523 138.195 196.615 138.301 194.755C138.369 193.562 138.432 192.333 138.022 191.203C137.612 190.073 136.608 189.053 135.358 188.964C134.279 191.685 132.537 194.164 130.308 196.15C129.505 196.866 128.609 197.533 127.554 197.829C126.499 198.124 125.251 197.98 124.471 197.24C123.819 196.621 123.593 195.71 123.454 194.842C122.959 191.76 123.205 188.573 124.166 185.593C124.805 183.609 125.759 181.704 126.084 179.653C126.472 177.203 125.735 174.096 123.039 173.362C119.666 172.444 114.613 173.115 111.34 174.108C110.032 174.504 108.754 175.024 107.633 175.778C99.7205 181.105 102.824 194.856 100.142 202.704C98.7953 206.645 96.3996 210.222 95.2735 214.225C95.1108 214.805 94.9767 215.391 94.8707 215.98Z" fill="#221F4C"/>
<path d="M123.562 208.228C123.572 208.025 123.587 207.809 123.714 207.646C123.849 207.473 124.08 207.4 124.295 207.329C128.009 206.099 130.855 202.492 130.588 198.751C130.989 199.73 132.293 200.16 133.361 199.902C134.429 199.644 135.275 198.863 135.923 198.013C137.475 195.978 138.17 193.366 137.824 190.872C137.637 189.521 136.998 188.124 135.51 187.711C134.426 187.411 133.264 188.127 132.721 189.071C133.176 188.281 132.963 186.655 132.988 185.785C133.028 184.338 132.91 182.88 132.507 181.481C131.68 178.605 129.564 176.273 126.677 175.149C123.96 174.09 120.965 173.825 118.032 173.931C115.487 174.023 112.911 174.398 110.619 175.456C108.138 176.601 106.091 179.116 105.268 181.605C104.267 184.63 104.792 187.924 104.154 191.037C103.748 193.024 102.877 194.897 102.337 196.855C101.104 201.326 102.941 205.127 107.443 206.934C109.772 207.868 112.306 208.207 114.796 208.616C114.954 208.643 115.128 208.676 115.23 208.795C115.303 208.879 115.326 208.991 115.344 209.099C115.721 211.431 115.815 214.259 114.731 216.445C117.631 217.518 120.907 217.64 123.886 216.785C122.141 215.321 123.463 210.185 123.562 208.228Z" fill="#C25B42"/>
<path opacity="0.32" d="M123.562 208.228C123.572 208.025 123.587 207.809 123.714 207.646C123.849 207.473 124.08 207.4 124.294 207.329C128.009 206.099 130.855 202.492 130.588 198.751C130.989 199.73 132.293 200.16 133.361 199.902C134.429 199.644 135.275 198.863 135.923 198.013C137.475 195.978 138.17 193.366 137.824 190.872C137.637 189.521 136.997 188.124 135.509 187.711C134.426 187.411 133.264 188.127 132.721 189.071C133.176 188.281 132.963 186.655 132.987 185.785C133.028 184.338 132.91 182.88 132.507 181.481C131.68 178.605 129.563 176.273 126.676 175.149C123.959 174.09 120.965 173.825 118.031 173.931C115.487 174.023 112.91 174.398 110.618 175.456C107.624 176.837 106.827 179.213 105.23 181.667C105.555 180.307 107.08 179.503 108.528 179.308C109.976 179.113 111.455 179.349 112.909 179.2C114.363 179.052 115.921 178.364 116.385 177.041C117.076 178.593 117.766 180.145 118.522 181.668C119.195 183.026 119.984 184.451 121.209 185.432C122.289 186.297 123.486 186.334 123.629 187.901C124.243 194.611 124.304 205.053 115.748 206.879C112.607 207.549 109.32 207.006 106.221 206.179C107.439 206.504 108.523 207.43 109.834 207.757C111.462 208.162 113.141 208.344 114.795 208.616C114.954 208.643 115.127 208.676 115.23 208.795C115.303 208.879 115.326 208.991 115.344 209.099C115.721 211.431 115.814 214.259 114.73 216.445C117.63 217.518 120.907 217.64 123.886 216.785C122.141 215.321 123.463 210.185 123.562 208.228Z" fill="#C25B42"/>
<path d="M111.034 185.21C111.485 186.214 111.766 187.278 111.935 188.356C112.028 188.895 112.071 189.465 112.007 190.062C111.934 190.658 111.699 191.263 111.299 191.771C111.093 192.019 110.846 192.238 110.575 192.418C110.299 192.596 110.047 192.723 109.796 192.846C109.547 192.965 109.314 193.078 109.11 193.207C109.005 193.272 108.912 193.34 108.87 193.381C108.825 193.422 108.81 193.432 108.795 193.496C108.77 193.627 108.838 193.821 108.965 194.05C109.081 194.272 109.219 194.478 109.385 194.662C109.71 195.043 110.187 195.306 110.721 195.507C110.152 195.528 109.544 195.381 109.036 195.029C108.788 194.853 108.572 194.637 108.383 194.409C108.206 194.196 107.99 193.895 107.969 193.481C107.956 193.276 108.04 193.021 108.175 192.855C108.309 192.686 108.442 192.589 108.561 192.495C108.81 192.306 109.067 192.155 109.308 192.013C109.814 191.736 110.19 191.516 110.463 191.154C111.055 190.461 111.136 189.473 111.115 188.42L111.034 185.21Z" fill="#C25B42"/>
<path d="M118.278 197.239C117.465 198.933 115.926 200.298 114.095 200.949C113.245 201.251 112.319 201.404 111.426 201.252C109.297 200.891 107.705 198.652 106.688 196.989C110.59 197.472 114.358 197.851 118.278 197.239Z" fill="white" stroke="#631C13" stroke-width="0.903" stroke-miterlimit="10"/>
<path d="M119.122 190.587C119.167 189.784 119.462 188.775 120.431 188.646C121.134 188.553 121.793 189.027 122.052 189.629C122.226 190.034 122.252 190.484 122.23 190.921C122.187 191.751 121.733 192.891 120.665 192.836C119.56 192.781 119.072 191.469 119.122 190.587Z" fill="black"/>
<path d="M106.131 191.182C105.889 190.595 105.851 189.934 106.024 189.326C106.17 188.813 106.535 188.292 107.085 188.21C107.578 188.138 108.067 188.459 108.293 188.883C108.701 189.647 108.631 191.088 107.904 191.668C107.262 192.181 106.418 191.878 106.131 191.182Z" fill="black"/>
<path d="M118.763 184.349C118.721 183.543 119.082 182.745 119.722 182.148C120.352 181.549 121.319 181.162 122.303 181.224C122.79 181.254 123.272 181.374 123.685 181.587C123.899 181.686 124.087 181.811 124.267 181.944C124.452 182.075 124.632 182.243 124.776 182.418C125.364 183.117 125.567 184.067 125.208 184.815C124.682 184.184 124.165 183.826 123.668 183.6C123.543 183.544 123.428 183.505 123.298 183.463C123.161 183.428 123.039 183.37 122.909 183.35C122.658 183.28 122.418 183.249 122.181 183.236C121.711 183.208 121.215 183.268 120.653 183.454C120.082 183.633 119.494 183.938 118.763 184.349Z" fill="#221F4C"/>
<path d="M109.362 184.004C108.749 183.713 108.296 183.643 107.901 183.606C107.509 183.573 107.197 183.601 106.938 183.644C106.679 183.689 106.376 183.761 106.019 183.917C105.661 184.078 105.259 184.286 104.78 184.756C104.365 184.212 104.431 183.449 104.78 182.858C105.129 182.261 105.788 181.784 106.578 181.657C107.369 181.527 108.155 181.767 108.694 182.218C109.23 182.663 109.559 183.36 109.362 184.004Z" fill="#221F4C"/>
<g opacity="0.36">
<path d="M121.82 197.311C122.984 197.433 125.726 197.497 126.018 195.923C126.34 194.184 123.095 193.688 121.894 193.631C120.716 193.575 118.811 193.82 118.093 194.842C117.858 195.176 117.905 195.728 118.164 196.034C118.346 196.25 118.605 196.392 118.865 196.516C119.788 196.953 120.793 197.204 121.82 197.311Z" fill="#FB7A48"/>
<path d="M104.166 193.566C103.742 193.739 103.423 194.045 103.181 194.462C102.997 194.779 102.917 195.17 103.058 195.507C103.258 195.986 103.825 196.22 104.354 196.326C105.418 196.541 108.308 196.571 107.825 194.811C107.729 194.462 107.48 194.164 107.182 193.941C106.462 193.403 105.469 193.278 104.571 193.447C104.426 193.475 104.292 193.514 104.166 193.566Z" fill="#FB7A48"/>
</g>
<path d="M135.501 190.841C135.627 190.573 135.348 190.304 135.101 190.344C134.838 190.364 134.64 190.551 134.505 190.771C134.227 191.232 133.973 191.73 133.758 192.224C133.333 193.213 133.056 194.28 133.14 195.313C133.162 195.567 133.213 195.817 133.304 196.048C133.349 196.16 133.408 196.29 133.458 196.349C133.484 196.382 133.506 196.392 133.502 196.391C133.497 196.388 133.488 196.397 133.527 196.383C133.925 196.181 134.196 195.695 134.32 195.198C134.426 194.697 134.55 194.124 134.3 193.703C134.177 193.494 133.953 193.327 133.688 193.341C133.422 193.352 133.164 193.502 132.929 193.656C133.129 193.463 133.356 193.263 133.672 193.208C133.993 193.146 134.327 193.321 134.516 193.565C134.714 193.817 134.776 194.133 134.788 194.421C134.799 194.712 134.772 194.991 134.724 195.278C134.623 195.84 134.37 196.45 133.751 196.809C133.662 196.858 133.502 196.898 133.358 196.854C133.215 196.812 133.124 196.727 133.061 196.653C132.934 196.494 132.886 196.365 132.822 196.224C132.707 195.942 132.643 195.648 132.614 195.356C132.531 194.19 132.863 193.064 133.384 192.061C133.644 191.556 133.945 191.087 134.296 190.628C134.478 190.403 134.77 190.188 135.102 190.21C135.443 190.203 135.696 190.603 135.501 190.841Z" fill="#C25B42"/>
<path d="M106.839 179.466C108.25 178.295 110.225 178.044 112.053 177.664C113.881 177.284 115.859 176.579 116.677 174.975C117.367 176.391 119.007 177.332 120.641 177.251C120.791 177.243 120.946 177.228 121.089 177.273C121.27 177.329 121.405 177.47 121.529 177.608C122.819 179.038 123.85 180.663 125.175 182.066C126.619 183.595 128.082 184.419 130.229 184.728C130.445 186.703 130.017 188.531 129.955 190.514C129.885 192.751 130.203 195 130.905 197.136C130.535 196.009 131.087 194.022 131.419 192.922C131.784 191.709 132.214 190.451 132.916 189.372C133.222 188.904 133.583 188.357 134.135 188.136C134.364 188.044 136.06 187.949 136.002 188.33C136.532 184.869 137.006 181.098 135.156 178.077C133.509 175.387 130.336 173.883 127.189 173.049C121.184 171.458 113.884 171.41 108.56 174.786C107.393 175.527 106.322 176.438 105.586 177.576C103.845 180.27 103.936 184.275 104.593 187.269C104.716 184.666 104.574 181.346 106.839 179.466Z" fill="#221F4C"/>
<path d="M99.1191 236.141C98.6343 238.741 96.7979 240.694 97.4204 243.469C97.9286 245.735 99.775 247.801 102.186 248.331C101.409 256.197 99.4605 263.46 96.8113 270.676H138.786C138.541 269.373 138.356 268.06 138.242 266.741C138.211 266.375 138.184 266.008 138.162 265.641C140.154 265.614 142.958 263.883 144.541 262.787C145.141 262.372 145.753 261.917 146.064 261.275C146.406 260.569 146.33 259.751 146.245 258.977C145.386 251.208 144.251 243.466 142.844 235.769C142.141 231.922 141.393 228.078 140.529 224.26C139.868 221.339 138.472 220.389 135.363 219.69C132.543 219.056 129.724 218.422 126.905 217.788C127.588 217.606 128.226 217.27 128.752 216.816C126.341 216.252 126.893 213.976 126.109 212.305C125.708 211.454 124.772 210.719 123.818 210.929C123.221 211.06 122.773 211.518 122.237 211.804C121.544 212.174 120.716 212.242 119.922 212.208C118.942 212.166 117.969 211.979 117.047 211.657C116.304 211.397 115.579 211.047 114.791 210.987C112.928 210.847 112.117 212.411 112.082 213.914C112.069 214.488 111.318 217.935 109.843 216.817C110.35 217.201 111.036 217.361 111.671 217.243C109.843 217.681 108 218.064 106.146 218.39C104.656 218.651 102.54 218.558 101.221 219.248C100.085 219.842 99.2298 220.816 98.4088 221.772C93.9426 226.973 89.0998 231.958 83.9536 236.519C78.1136 241.695 72.2987 246.907 66.1466 251.747C63.8979 253.516 61.4513 255.091 59.092 256.719C55.5814 259.141 52.2324 261.784 48.6973 264.112C50.6432 266.531 53.1272 268.554 55.9374 270.008C56.2056 270.147 56.4902 270.284 56.7953 270.285C57.1555 270.287 57.4834 270.1 57.7891 269.919C63.9383 266.278 69.8135 262.32 75.5517 258.135C80.8606 254.258 85.2009 249.841 89.9377 245.417C93.0472 242.513 96.6849 239.596 99.1191 236.141Z" fill="white"/>
<path opacity="0.67" d="M99.1194 236.141C98.6345 238.741 96.7981 240.694 97.4206 243.469C97.9289 245.735 99.7752 247.801 102.187 248.331C102.074 249.472 101.815 250.498 102.056 251.648C103.285 250.344 104.67 249.173 106.176 248.166C107.667 250.298 110.125 251.921 111.184 254.339C112.353 257.008 110.696 260.23 108.12 261.756C105.545 263.283 102.33 263.447 99.3103 263.18C99.4145 263.189 97.7678 267.986 97.6343 268.374C97.3691 269.144 97.0933 269.911 96.8128 270.676H138.786C138.542 269.373 138.357 268.06 138.243 266.741C138.211 266.375 138.185 266.008 138.163 265.641C140.155 265.614 142.959 263.883 144.542 262.787C145.142 262.372 145.754 261.917 146.065 261.275C146.407 260.569 146.331 259.751 146.246 258.977C145.387 251.208 144.252 243.466 142.845 235.769C142.142 231.922 141.394 228.078 140.53 224.26C139.869 221.339 138.472 220.389 135.364 219.69C132.544 219.056 129.725 218.422 126.905 217.788C127.589 217.606 128.227 217.27 128.752 216.816C126.342 216.252 126.894 213.976 126.11 212.305C125.709 211.454 124.773 210.719 123.819 210.929C123.045 211.099 122.512 211.755 121.751 211.999C120.963 212.251 120.07 212.265 119.254 212.17C118.136 212.04 117.2 211.615 116.125 211.288C115.303 211.038 114.374 210.843 113.607 211.219C114.804 211.427 115.901 211.833 116.943 212.414C118.769 213.43 121.173 214.01 120.771 216.559C120.75 216.688 120.718 216.82 120.632 216.92C120.535 217.034 120.386 217.091 120.241 217.138C119.501 217.373 118.71 217.418 117.93 217.426C116.135 217.446 114.338 217.28 112.581 216.931C112.106 216.837 111.515 216.578 111.578 216.119C111.228 216.546 110.836 217.114 110.165 217.046C110.557 217.086 110.949 217.126 111.342 217.166C110.849 217.486 110.281 217.7 109.692 217.787C110.869 219.014 112.421 219.908 114.107 220.33C112.438 220.797 110.636 220.821 108.953 220.399C110.246 221.831 111.947 222.419 113.71 223.089C115.654 223.828 117.73 224.031 119.689 223.167C115.949 225.912 111.523 227.801 106.884 228.63C112.882 232.575 121.551 232.341 127.305 228.08C127.576 231.474 127.593 234.971 126.385 238.173C125.177 241.376 122.538 244.258 119.066 245.04C115.593 245.822 111.447 243.93 110.609 240.622C109.296 242.223 107.926 243.871 106.044 244.826C104.162 245.781 101.614 245.857 100.074 244.452C98.2697 242.805 98.5637 239.993 99.3085 237.719C100.283 234.743 101.787 231.945 102.79 228.977C103.793 226.009 104.27 222.731 103.153 219.801C102.85 220.987 102.547 222.173 102.244 223.36C102.119 222.444 101.845 221.548 101.433 220.713C100.485 223.841 99.5369 226.97 98.5894 230.098C98.6328 229.265 98.6714 228.403 98.3534 227.626C98.036 226.849 97.259 226.178 96.387 226.231C96.1692 228.85 95.8266 231.46 95.3617 234.049C95.2516 233.237 94.83 232.465 94.1946 231.914C94.1688 235.441 91.0336 238.14 88.1549 240.355C78.235 247.991 68.2935 255.641 57.6136 262.279C56.7241 262.831 55.796 263.39 54.7472 263.546C52.9606 263.813 48.1494 262.565 49.8084 265.388C50.938 267.31 53.9766 268.993 55.9394 270.009C56.2076 270.148 56.4922 270.285 56.7973 270.286C57.1575 270.288 57.4854 270.102 57.7911 269.92C63.9403 266.279 69.8155 262.321 75.5536 258.136C80.8626 254.26 85.2029 249.842 89.9397 245.418C93.0474 242.513 96.6851 239.596 99.1194 236.141Z" fill="#D8E8EF"/>
<path d="M38.6167 270.583C37.9339 270.579 36.8816 270.521 37.1574 270.194C37.709 269.54 38.2606 268.887 38.8123 268.234C39.2497 267.716 39.6918 267.193 40.2376 266.778C42.0271 265.418 44.8736 265.158 47.0544 264.591C47.9702 264.353 48.9335 264.113 49.8558 264.327C51.352 264.674 58.9997 268.194 56.2943 270.509C55.4657 271.21 51.3256 270.681 50.1791 270.693C47.6558 270.72 45.1325 270.705 42.6098 270.647C41.4609 270.621 40.3026 270.558 39.1589 270.576C39.1548 270.576 38.9229 270.585 38.6167 270.583Z" fill="#C25B42"/>
<path d="M42.124 270.36C42.5205 269.712 43.003 269.098 43.6138 268.595C44.2175 268.085 44.9389 267.702 45.6873 267.429C46.4363 267.156 47.2245 267 47.9723 266.844C48.7218 266.672 49.4649 266.485 50.1641 266.134C49.5826 266.649 48.8348 266.985 48.0859 267.222C47.3287 267.463 46.585 267.631 45.8753 267.9C45.1609 268.151 44.4892 268.483 43.8691 268.902C43.2519 269.326 42.6833 269.83 42.124 270.36Z" fill="#C25B42"/>
<path d="M39.2793 270.369C39.7443 269.621 40.2356 268.893 40.7538 268.184C40.9863 267.827 41.3324 267.457 41.6989 267.179C42.0702 266.887 42.4947 266.686 42.9146 266.49C43.7737 266.137 44.6667 265.912 45.5609 265.75C46.4545 265.577 47.3504 265.474 48.2464 265.322C46.5587 266.001 44.7358 266.266 43.1301 266.95C42.3208 267.29 41.6164 267.738 41.0817 268.421C40.5078 269.089 39.907 269.739 39.2793 270.369Z" fill="#C25B42"/>
<path d="M144.54 262.787C138.744 266.8 130.946 267.717 124.045 268.9C118.228 269.897 112.319 270.587 106.386 270.676C107.366 270.661 104.559 264.73 104.266 264.294C114.509 261.314 124.103 256.524 134.381 253.651C132.14 246.568 130.711 239.318 129.926 231.957C129.679 229.641 129.52 227.255 130.219 225.024C130.96 222.659 132.859 220.301 135.59 220.363C138.274 220.423 139.948 221.696 140.529 224.261C141.392 228.078 142.14 231.923 142.843 235.769C144.251 243.465 145.385 251.208 146.245 258.977C146.33 259.751 146.406 260.569 146.064 261.275C145.752 261.917 145.14 262.372 144.54 262.787Z" fill="white"/>
<path d="M95.0324 270.063C96.0378 269.998 97.0398 269.848 98.0476 269.81C99.9864 269.737 101.901 270.073 103.827 270.218C105.023 270.309 107.593 270.673 108.614 269.853C109.183 269.396 109.021 268.538 108.808 267.858C108.64 267.319 108.472 266.779 108.304 266.24C108.078 265.518 107.719 264.675 106.941 264.538C106.186 264.404 105.327 264.842 104.552 264.862C103.677 264.885 102.76 264.698 101.909 264.523C101.007 264.337 100.102 264.086 99.1801 264.13C98.0727 264.184 97.0421 264.657 96.0466 265.121C94.0779 266.039 92.2421 266.788 90.3822 267.914C90.247 267.996 90.1012 268.091 90.0555 268.237C89.9952 268.431 90.134 268.627 90.2786 268.775C91.2044 269.721 92.6338 270.069 93.99 270.092C94.3385 270.098 94.6857 270.085 95.0324 270.063Z" fill="#C25B42"/>
<g opacity="0.56">
<path d="M132.348 254.253C133.775 253.354 135.743 253.253 137.35 253.949C138.958 254.644 140.173 256.125 140.402 257.742C139.763 256.25 138.596 255.044 137.132 254.408C135.667 253.774 133.946 253.728 132.348 254.253Z" fill="#A8A3E7"/>
</g>
<g opacity="0.56">
<path d="M125.05 268.096C126.822 267.013 128.351 265.657 129.545 264.055C130.748 262.459 131.601 260.642 132.104 258.693C132.018 260.708 131.213 262.692 129.975 264.348C128.73 266 127.021 267.366 125.05 268.096Z" fill="#A8A3E7"/>
</g>
<g opacity="0.56">
<path d="M126.762 262.472C126.655 262.927 126.388 263.285 126.078 263.597C125.757 263.898 125.386 264.158 124.91 264.267C125.121 263.847 125.404 263.542 125.702 263.243C126.011 262.955 126.327 262.68 126.762 262.472Z" fill="#A8A3E7"/>
</g>
<g opacity="0.56">
<path d="M109.88 265.526C110.522 265.811 110.983 266.392 111.228 267.024C111.463 267.659 111.497 268.388 111.193 268.999C111.076 268.341 110.95 267.763 110.731 267.195C110.521 266.625 110.231 266.102 109.88 265.526Z" fill="#A8A3E7"/>
</g>
<g opacity="0.56">
<path d="M130.753 227.354C130.815 226.092 131.447 224.87 132.359 223.935C133.276 223.005 134.513 222.321 135.829 222.179C134.64 222.708 133.602 223.401 132.745 224.28C131.883 225.152 131.226 226.187 130.753 227.354Z" fill="#A8A3E7"/>
</g>
<g opacity="0.56">
<path d="M131.455 220.32C130.625 221.427 130.094 222.687 129.767 223.985C129.448 225.286 129.283 226.624 129.202 227.964C129.11 229.305 129.134 230.65 129.221 231.993C129.263 232.665 129.338 233.336 129.436 234.005C129.517 234.676 129.641 235.343 129.761 236.013C129.301 234.725 128.995 233.386 128.816 232.031C128.631 230.675 128.593 229.301 128.675 227.934C128.77 226.571 128.952 225.202 129.377 223.883C129.592 223.227 129.855 222.582 130.191 221.974C130.546 221.376 130.953 220.805 131.455 220.32Z" fill="#A8A3E7"/>
</g>
<g opacity="0.56">
<path d="M96.6279 226.478C97.5075 227.733 97.9683 229.249 98.0679 230.767C98.1557 232.285 97.884 233.842 97.1626 235.186C97.4841 233.715 97.6351 232.256 97.5403 230.796C97.4571 229.336 97.1286 227.903 96.6279 226.478Z" fill="#A8A3E7"/>
</g>
<g opacity="0.56">
<path d="M110.955 220.906C112.283 221 113.605 221.044 114.922 220.997C116.238 220.945 117.549 220.833 118.845 220.625C120.144 220.428 121.424 220.136 122.689 219.786C123.953 219.431 125.191 218.987 126.419 218.496C125.291 219.174 124.074 219.716 122.817 220.154C121.56 220.598 120.254 220.91 118.931 221.122C117.606 221.322 116.263 221.423 114.924 221.383C113.586 221.35 112.251 221.206 110.955 220.906Z" fill="#A8A3E7"/>
</g>
<g opacity="0.56">
<path d="M129.445 220.303C128.031 221.624 126.445 222.78 124.76 223.785C123.074 224.791 121.271 225.615 119.417 226.305C117.549 226.957 115.624 227.473 113.661 227.78C111.7 228.088 109.709 228.219 107.732 228.118C109.707 228.009 111.665 227.782 113.587 227.4C115.509 227.018 117.403 226.513 119.231 225.834C121.073 225.194 122.845 224.377 124.552 223.454C126.261 222.529 127.888 221.466 129.445 220.303Z" fill="#A8A3E7"/>
</g>
<g opacity="0.56">
<path d="M111.546 241.72C112.073 243.349 112.984 244.839 114.179 246.063C115.374 247.284 116.841 248.272 118.483 248.832C120.111 249.43 121.897 249.598 123.639 249.419C125.383 249.238 127.093 248.678 128.609 247.774C127.216 248.853 125.487 249.536 123.692 249.803C121.896 250.071 120.022 249.895 118.299 249.304C116.591 248.676 115.051 247.643 113.877 246.319C112.701 244.999 111.862 243.404 111.546 241.72Z" fill="#A8A3E7"/>
</g>
<g opacity="0.56">
<path d="M112.315 217.458C114.271 217.765 116.207 218.016 118.161 218.11C120.114 218.217 122.067 218.168 124.046 218.067C122.13 218.564 120.12 218.709 118.133 218.613C116.146 218.502 114.165 218.149 112.315 217.458Z" fill="#A8A3E7"/>
</g>
<g opacity="0.56">
<path d="M98.3105 238.458C98.8698 236.89 99.4946 235.347 100.087 233.797C100.678 232.247 101.273 230.7 101.744 229.119C102.256 227.55 102.644 225.948 102.917 224.328C103.192 222.707 103.316 221.063 103.313 219.407C103.535 221.051 103.514 222.725 103.32 224.38C103.126 226.036 102.728 227.665 102.251 229.262C101.732 230.849 101.14 232.412 100.465 233.938C99.7903 235.465 99.0712 236.97 98.3105 238.458Z" fill="#A8A3E7"/>
</g>
<g opacity="0.56">
<path d="M102.009 220.708C102.277 221.028 102.367 221.394 102.398 221.759C102.411 222.124 102.364 222.497 102.134 222.844C101.945 222.477 101.898 222.134 101.87 221.786C101.858 221.438 101.865 221.093 102.009 220.708Z" fill="#A8A3E7"/>
</g>
<path d="M54.917 236.905L58.3064 270.676H92.056H120.678V268.247H95.1672L93.4245 236.905H54.917Z" fill="#221F4C"/>
<path opacity="0.5" d="M93.4248 236.905H91.1855L93.2673 270.676H120.678V268.247H95.1675L93.4248 236.905Z" fill="#4343A8"/>
<path d="M71.572 245.602C72.6959 245.602 73.6069 244.733 73.6069 243.661C73.6069 242.589 72.6959 241.72 71.572 241.72C70.4482 241.72 69.5371 242.589 69.5371 243.661C69.5371 244.733 70.4482 245.602 71.572 245.602Z" fill="white"/>
<path d="M157 266.989C157 269.398 159.047 271.35 161.572 271.35H203.86C206.384 271.35 208.431 269.398 208.431 266.989V193.36C208.431 190.951 206.384 189 203.86 189H161.572C159.047 189 157 190.951 157 193.36V266.989Z" fill="#4343A6"/>
<path d="M183.376 266.989C183.376 269.398 185.423 271.35 187.948 271.35H230.236C232.76 271.35 234.807 269.398 234.807 266.989V193.36C234.807 190.951 232.76 189 230.236 189H187.948C185.423 189 183.376 190.951 183.376 193.36V266.989Z" fill="#221F4C"/>
<path d="M186.201 266.989C186.201 269.398 188.248 271.35 190.773 271.35H233.061C235.585 271.35 237.633 269.398 237.633 266.989V193.36C237.633 190.951 235.585 189 233.061 189H190.773C188.248 189 186.201 190.951 186.201 193.36V266.989Z" fill="#A6A1E5"/>
<path d="M229.156 198.168C230.4 198.168 231.417 199.138 231.417 200.324V215.551C231.417 216.738 230.4 217.708 229.156 217.708H221.055C219.812 217.708 218.795 216.738 218.795 215.551V213.35C218.795 212.164 217.777 211.194 216.534 211.194H207.302C206.059 211.194 205.041 212.164 205.041 213.35V215.551C205.041 216.738 204.023 217.708 202.78 217.708H194.679C193.436 217.708 192.418 216.738 192.418 215.551V200.324C192.418 199.138 193.436 198.168 194.679 198.168H229.156Z" fill="#4343A6"/>
<path d="M194.679 198.168H229.156C230.399 198.168 231.417 199.138 231.417 200.324V202.48C231.417 201.294 230.399 200.324 229.156 200.324H194.679C193.436 200.324 192.418 201.294 192.418 202.48V200.324C192.418 199.138 193.436 198.168 194.679 198.168Z" fill="#221F4C"/>
<path d="M221.934 206.81C221.934 207.263 222.318 207.63 222.793 207.63H226.852C227.327 207.63 227.712 207.263 227.712 206.81V205.216C227.712 204.763 227.327 204.396 226.852 204.396H222.793C222.318 204.396 221.934 204.763 221.934 205.216V206.81Z" fill="#F8CB53"/>
<path d="M213.331 206.81C213.331 207.263 213.716 207.63 214.191 207.63H218.249C218.724 207.63 219.109 207.263 219.109 206.81V205.216C219.109 204.763 218.724 204.396 218.249 204.396H214.191C213.716 204.396 213.331 204.763 213.331 205.216V206.81Z" fill="#F8CB53"/>
<path d="M204.727 206.81C204.727 207.263 205.111 207.63 205.586 207.63H209.645C210.12 207.63 210.505 207.263 210.505 206.81V205.216C210.505 204.763 210.12 204.396 209.645 204.396H205.586C205.111 204.396 204.727 204.763 204.727 205.216V206.81Z" fill="#F8CB53"/>
<path d="M196.124 206.81C196.124 207.263 196.509 207.63 196.984 207.63H201.042C201.517 207.63 201.902 207.263 201.902 206.81V205.216C201.902 204.763 201.517 204.397 201.042 204.397H196.984C196.509 204.397 196.124 204.763 196.124 205.216V206.81Z" fill="#F8CB53"/>
<path d="M237.633 221.66H186.201V223.637H237.633V221.66Z" fill="#92D7F5"/>
<path d="M237.633 222.424H186.201V224.4H237.633V222.424Z" fill="#221F4C"/>
<path d="M229.156 230.175C230.4 230.175 231.417 231.145 231.417 232.332V247.559C231.417 248.745 230.4 249.715 229.156 249.715H221.055C219.812 249.715 218.795 248.745 218.795 247.559V245.358C218.795 244.172 217.777 243.202 216.534 243.202H207.302C206.059 243.202 205.041 244.172 205.041 245.358V247.559C205.041 248.745 204.023 249.715 202.78 249.715H194.679C193.436 249.715 192.418 248.745 192.418 247.559V232.332C192.418 231.145 193.436 230.175 194.679 230.175H229.156Z" fill="#4343A6"/>
<path d="M194.679 230.175H229.156C230.399 230.175 231.417 231.145 231.417 232.332V234.488C231.417 233.302 230.399 232.332 229.156 232.332H194.679C193.436 232.332 192.418 233.302 192.418 234.488V232.332C192.418 231.145 193.436 230.175 194.679 230.175Z" fill="#221F4C"/>
<path d="M221.934 238.817C221.934 239.27 222.318 239.637 222.793 239.637H226.852C227.327 239.637 227.712 239.27 227.712 238.817V237.224C227.712 236.771 227.327 236.404 226.852 236.404H222.793C222.318 236.404 221.934 236.771 221.934 237.224V238.817Z" fill="#F8CB53"/>
<path d="M213.331 238.817C213.331 239.27 213.716 239.637 214.191 239.637H218.249C218.724 239.637 219.109 239.27 219.109 238.817V237.224C219.109 236.771 218.724 236.404 218.249 236.404H214.191C213.716 236.404 213.331 236.771 213.331 237.224V238.817Z" fill="#F8CB53"/>
<path d="M204.727 238.817C204.727 239.27 205.111 239.637 205.586 239.637H209.645C210.12 239.637 210.505 239.27 210.505 238.817V237.224C210.505 236.771 210.12 236.404 209.645 236.404H205.586C205.111 236.404 204.727 236.771 204.727 237.224V238.817Z" fill="#F8CB53"/>
<path d="M196.124 238.818C196.124 239.27 196.509 239.637 196.984 239.637H201.042C201.517 239.637 201.902 239.27 201.902 238.818V237.224C201.902 236.771 201.517 236.404 201.042 236.404H196.984C196.509 236.404 196.124 236.771 196.124 237.224V238.818Z" fill="#F8CB53"/>
<path d="M237.633 253.667H186.201V255.644H237.633V253.667Z" fill="#92D7F5"/>
<path d="M237.633 254.431H186.201V256.408H237.633V254.431Z" fill="#221F4C"/>
<path d="M217.632 264.018C217.632 264.812 218.306 265.456 219.139 265.456H227.994C228.826 265.456 229.501 264.813 229.501 264.018C229.501 263.225 228.826 262.581 227.994 262.581H219.139C218.307 262.581 217.632 263.224 217.632 264.018Z" fill="#221F4C"/>
<path d="M227.994 263.239H219.139C218.426 263.239 217.832 263.713 217.675 264.347C217.649 264.241 217.632 264.132 217.632 264.018C217.632 263.225 218.306 262.581 219.139 262.581H227.994C228.826 262.581 229.501 263.224 229.501 264.018C229.501 264.132 229.484 264.242 229.458 264.347C229.301 263.713 228.707 263.239 227.994 263.239Z" fill="#92D7F5"/>
<path d="M218.792 264.019C218.792 264.176 218.926 264.303 219.091 264.303H228.04C228.204 264.303 228.338 264.176 228.338 264.019C228.338 263.862 228.204 263.734 228.04 263.734H219.091C218.926 263.734 218.792 263.861 218.792 264.019Z" fill="#D6E2EE"/>
<path d="M194.334 264.018C194.334 264.812 195.008 265.456 195.841 265.456H204.696C205.527 265.456 206.203 264.812 206.203 264.018C206.203 263.225 205.527 262.581 204.696 262.581H195.841C195.009 262.581 194.334 263.224 194.334 264.018Z" fill="#221F4C"/>
<path d="M204.696 263.239H195.841C195.127 263.239 194.534 263.713 194.377 264.347C194.351 264.241 194.334 264.132 194.334 264.018C194.334 263.225 195.008 262.581 195.841 262.581H204.696C205.527 262.581 206.203 263.224 206.203 264.018C206.203 264.132 206.186 264.242 206.159 264.347C206.003 263.713 205.409 263.239 204.696 263.239Z" fill="#92D7F5"/>
<path d="M195.495 264.018C195.495 264.176 195.629 264.303 195.793 264.303H204.743C204.907 264.303 205.041 264.176 205.041 264.018C205.041 263.861 204.908 263.734 204.743 263.734H195.793C195.629 263.734 195.495 263.861 195.495 264.018Z" fill="#D6E2EE"/>
<path d="M96.5349 47.03C97.4309 47.19 98.1909 47.662 98.8149 48.446C99.4389 49.23 99.7509 50.118 99.7509 51.11C99.7509 51.958 99.5269 52.726 99.0789 53.414C98.6469 54.086 98.0149 54.622 97.1829 55.022C96.3509 55.406 95.3829 55.598 94.2789 55.598H87.6069V38.918H93.9669C95.1029 38.918 96.0789 39.11 96.8949 39.494C97.7109 39.878 98.3269 40.398 98.7429 41.054C99.1589 41.694 99.3669 42.414 99.3669 43.214C99.3669 44.174 99.1109 44.974 98.5989 45.614C98.0869 46.254 97.3989 46.726 96.5349 47.03ZM90.3429 45.926H93.7269C94.6229 45.926 95.3189 45.726 95.8149 45.326C96.3269 44.91 96.5829 44.318 96.5829 43.55C96.5829 42.798 96.3269 42.214 95.8149 41.798C95.3189 41.366 94.6229 41.15 93.7269 41.15H90.3429V45.926ZM94.0389 53.366C94.9669 53.366 95.6949 53.142 96.2229 52.694C96.7509 52.246 97.0149 51.622 97.0149 50.822C97.0149 50.006 96.7349 49.358 96.1749 48.878C95.6149 48.398 94.8709 48.158 93.9429 48.158H90.3429V53.366H94.0389ZM101.812 48.926C101.812 47.598 102.084 46.422 102.628 45.398C103.188 44.374 103.94 43.582 104.884 43.022C105.844 42.446 106.9 42.158 108.052 42.158C109.092 42.158 109.996 42.366 110.764 42.782C111.548 43.182 112.172 43.686 112.636 44.294V42.374H115.396V55.598H112.636V53.63C112.172 54.254 111.54 54.774 110.74 55.19C109.94 55.606 109.028 55.814 108.004 55.814C106.868 55.814 105.828 55.526 104.884 54.95C103.94 54.358 103.188 53.542 102.628 52.502C102.084 51.446 101.812 50.254 101.812 48.926ZM112.636 48.974C112.636 48.062 112.444 47.27 112.06 46.598C111.692 45.926 111.204 45.414 110.596 45.062C109.988 44.71 109.332 44.534 108.628 44.534C107.924 44.534 107.268 44.71 106.66 45.062C106.052 45.398 105.556 45.902 105.172 46.574C104.804 47.23 104.62 48.014 104.62 48.926C104.62 49.838 104.804 50.638 105.172 51.326C105.556 52.014 106.052 52.542 106.66 52.91C107.284 53.262 107.94 53.438 108.628 53.438C109.332 53.438 109.988 53.262 110.596 52.91C111.204 52.558 111.692 52.046 112.06 51.374C112.444 50.686 112.636 49.886 112.636 48.974ZM118.078 48.974C118.078 47.614 118.35 46.422 118.894 45.398C119.454 44.358 120.222 43.558 121.198 42.998C122.174 42.438 123.294 42.158 124.558 42.158C126.158 42.158 127.478 42.542 128.518 43.31C129.574 44.062 130.286 45.142 130.654 46.55H127.702C127.462 45.894 127.078 45.382 126.55 45.014C126.022 44.646 125.358 44.462 124.558 44.462C123.438 44.462 122.542 44.862 121.87 45.662C121.214 46.446 120.886 47.55 120.886 48.974C120.886 50.398 121.214 51.51 121.87 52.31C122.542 53.11 123.438 53.51 124.558 53.51C126.142 53.51 127.19 52.814 127.702 51.422H130.654C130.27 52.766 129.55 53.838 128.494 54.638C127.438 55.422 126.126 55.814 124.558 55.814C123.294 55.814 122.174 55.534 121.198 54.974C120.222 54.398 119.454 53.598 118.894 52.574C118.35 51.534 118.078 50.334 118.078 48.974ZM138.612 48.998L144.708 55.598H141.012L136.116 49.91V55.598H133.38V37.838H136.116V48.158L140.916 42.374H144.708L138.612 48.998ZM158.789 48.662C158.789 49.158 158.757 49.606 158.693 50.006H148.589C148.669 51.062 149.061 51.91 149.765 52.55C150.469 53.19 151.333 53.51 152.357 53.51C153.829 53.51 154.869 52.894 155.477 51.662H158.429C158.029 52.878 157.301 53.878 156.245 54.662C155.205 55.43 153.909 55.814 152.357 55.814C151.093 55.814 149.957 55.534 148.949 54.974C147.957 54.398 147.173 53.598 146.597 52.574C146.037 51.534 145.757 50.334 145.757 48.974C145.757 47.614 146.029 46.422 146.573 45.398C147.133 44.358 147.909 43.558 148.901 42.998C149.909 42.438 151.061 42.158 152.357 42.158C153.605 42.158 154.717 42.43 155.693 42.974C156.669 43.518 157.429 44.286 157.973 45.278C158.517 46.254 158.789 47.382 158.789 48.662ZM155.933 47.798C155.917 46.79 155.557 45.982 154.853 45.374C154.149 44.766 153.277 44.462 152.237 44.462C151.293 44.462 150.485 44.766 149.813 45.374C149.141 45.966 148.741 46.774 148.613 47.798H155.933ZM168.154 42.158C169.194 42.158 170.122 42.374 170.938 42.806C171.77 43.238 172.418 43.878 172.882 44.726C173.346 45.574 173.578 46.598 173.578 47.798V55.598H170.866V48.206C170.866 47.022 170.57 46.118 169.978 45.494C169.386 44.854 168.578 44.534 167.554 44.534C166.53 44.534 165.714 44.854 165.106 45.494C164.514 46.118 164.218 47.022 164.218 48.206V55.598H161.482V42.374H164.218V43.886C164.666 43.342 165.234 42.918 165.922 42.614C166.626 42.31 167.37 42.158 168.154 42.158ZM176.156 48.926C176.156 47.598 176.428 46.422 176.972 45.398C177.532 44.374 178.284 43.582 179.228 43.022C180.188 42.446 181.252 42.158 182.42 42.158C183.284 42.158 184.132 42.35 184.964 42.734C185.812 43.102 186.484 43.598 186.98 44.222V37.838H189.74V55.598H186.98V53.606C186.532 54.246 185.908 54.774 185.108 55.19C184.324 55.606 183.42 55.814 182.396 55.814C181.244 55.814 180.188 55.526 179.228 54.95C178.284 54.358 177.532 53.542 176.972 52.502C176.428 51.446 176.156 50.254 176.156 48.926ZM186.98 48.974C186.98 48.062 186.788 47.27 186.404 46.598C186.036 45.926 185.548 45.414 184.94 45.062C184.332 44.71 183.676 44.534 182.972 44.534C182.268 44.534 181.612 44.71 181.004 45.062C180.396 45.398 179.9 45.902 179.516 46.574C179.148 47.23 178.964 48.014 178.964 48.926C178.964 49.838 179.148 50.638 179.516 51.326C179.9 52.014 180.396 52.542 181.004 52.91C181.628 53.262 182.284 53.438 182.972 53.438C183.676 53.438 184.332 53.262 184.94 52.91C185.548 52.558 186.036 52.046 186.404 51.374C186.788 50.686 186.98 49.886 186.98 48.974ZM64.6018 74.918C66.3778 74.918 67.9298 75.262 69.2578 75.95C70.6018 76.622 71.6338 77.598 72.3538 78.878C73.0898 80.142 73.4578 81.622 73.4578 83.318C73.4578 85.014 73.0898 86.486 72.3538 87.734C71.6338 88.982 70.6018 89.942 69.2578 90.614C67.9298 91.27 66.3778 91.598 64.6018 91.598H59.1538V74.918H64.6018ZM64.6018 89.366C66.5538 89.366 68.0498 88.838 69.0898 87.782C70.1298 86.726 70.6498 85.238 70.6498 83.318C70.6498 81.382 70.1298 79.87 69.0898 78.782C68.0498 77.694 66.5538 77.15 64.6018 77.15H61.8898V89.366H64.6018ZM88.2894 84.662C88.2894 85.158 88.2574 85.606 88.1934 86.006H78.0894C78.1694 87.062 78.5614 87.91 79.2654 88.55C79.9694 89.19 80.8334 89.51 81.8574 89.51C83.3294 89.51 84.3694 88.894 84.9774 87.662H87.9294C87.5294 88.878 86.8014 89.878 85.7454 90.662C84.7054 91.43 83.4094 91.814 81.8574 91.814C80.5934 91.814 79.4574 91.534 78.4494 90.974C77.4574 90.398 76.6734 89.598 76.0974 88.574C75.5374 87.534 75.2574 86.334 75.2574 84.974C75.2574 83.614 75.5294 82.422 76.0734 81.398C76.6334 80.358 77.4094 79.558 78.4014 78.998C79.4094 78.438 80.5614 78.158 81.8574 78.158C83.1054 78.158 84.2174 78.43 85.1934 78.974C86.1694 79.518 86.9294 80.286 87.4734 81.278C88.0174 82.254 88.2894 83.382 88.2894 84.662ZM85.4334 83.798C85.4174 82.79 85.0574 81.982 84.3534 81.374C83.6494 80.766 82.7774 80.462 81.7374 80.462C80.7934 80.462 79.9854 80.766 79.3134 81.374C78.6414 81.966 78.2414 82.774 78.1134 83.798H85.4334ZM96.0939 89.15L99.8379 78.374H102.742L97.7019 91.598H94.4379L89.4219 78.374H92.3499L96.0939 89.15ZM116.93 84.662C116.93 85.158 116.898 85.606 116.834 86.006H106.73C106.81 87.062 107.202 87.91 107.906 88.55C108.61 89.19 109.474 89.51 110.498 89.51C111.97 89.51 113.01 88.894 113.618 87.662H116.57C116.17 88.878 115.442 89.878 114.386 90.662C113.346 91.43 112.05 91.814 110.498 91.814C109.234 91.814 108.098 91.534 107.09 90.974C106.098 90.398 105.314 89.598 104.738 88.574C104.178 87.534 103.898 86.334 103.898 84.974C103.898 83.614 104.17 82.422 104.714 81.398C105.274 80.358 106.05 79.558 107.042 78.998C108.05 78.438 109.202 78.158 110.498 78.158C111.746 78.158 112.858 78.43 113.834 78.974C114.81 79.518 115.57 80.286 116.114 81.278C116.658 82.254 116.93 83.382 116.93 84.662ZM114.074 83.798C114.058 82.79 113.698 81.982 112.994 81.374C112.29 80.766 111.418 80.462 110.378 80.462C109.434 80.462 108.626 80.766 107.954 81.374C107.282 81.966 106.882 82.774 106.754 83.798H114.074ZM122.359 73.838V91.598H119.623V73.838H122.359ZM131.687 91.814C130.439 91.814 129.311 91.534 128.303 90.974C127.295 90.398 126.503 89.598 125.927 88.574C125.351 87.534 125.063 86.334 125.063 84.974C125.063 83.63 125.359 82.438 125.951 81.398C126.543 80.358 127.351 79.558 128.375 78.998C129.399 78.438 130.543 78.158 131.807 78.158C133.071 78.158 134.215 78.438 135.239 78.998C136.263 79.558 137.071 80.358 137.663 81.398C138.255 82.438 138.551 83.63 138.551 84.974C138.551 86.318 138.247 87.51 137.639 88.55C137.031 89.59 136.199 90.398 135.143 90.974C134.103 91.534 132.951 91.814 131.687 91.814ZM131.687 89.438C132.391 89.438 133.047 89.27 133.655 88.934C134.279 88.598 134.783 88.094 135.167 87.422C135.551 86.75 135.743 85.934 135.743 84.974C135.743 84.014 135.559 83.206 135.191 82.55C134.823 81.878 134.335 81.374 133.727 81.038C133.119 80.702 132.463 80.534 131.759 80.534C131.055 80.534 130.399 80.702 129.791 81.038C129.199 81.374 128.727 81.878 128.375 82.55C128.023 83.206 127.847 84.014 127.847 84.974C127.847 86.398 128.207 87.502 128.927 88.286C129.663 89.054 130.583 89.438 131.687 89.438ZM143.991 80.318C144.455 79.71 145.087 79.198 145.887 78.782C146.687 78.366 147.591 78.158 148.599 78.158C149.751 78.158 150.799 78.446 151.743 79.022C152.703 79.582 153.455 80.374 153.999 81.398C154.543 82.422 154.815 83.598 154.815 84.926C154.815 86.254 154.543 87.446 153.999 88.502C153.455 89.542 152.703 90.358 151.743 90.95C150.799 91.526 149.751 91.814 148.599 91.814C147.591 91.814 146.695 91.614 145.911 91.214C145.127 90.798 144.487 90.286 143.991 89.678V97.886H141.255V78.374H143.991V80.318ZM152.031 84.926C152.031 84.014 151.839 83.23 151.455 82.574C151.087 81.902 150.591 81.398 149.967 81.062C149.359 80.71 148.703 80.534 147.999 80.534C147.311 80.534 146.655 80.71 146.031 81.062C145.423 81.414 144.927 81.926 144.543 82.598C144.175 83.27 143.991 84.062 143.991 84.974C143.991 85.886 144.175 86.686 144.543 87.374C144.927 88.046 145.423 88.558 146.031 88.91C146.655 89.262 147.311 89.438 147.999 89.438C148.703 89.438 149.359 89.262 149.967 88.91C150.591 88.542 151.087 88.014 151.455 87.326C151.839 86.638 152.031 85.838 152.031 84.926ZM173.529 78.158C174.569 78.158 175.497 78.374 176.313 78.806C177.145 79.238 177.793 79.878 178.257 80.726C178.737 81.574 178.977 82.598 178.977 83.798V91.598H176.265V84.206C176.265 83.022 175.969 82.118 175.377 81.494C174.785 80.854 173.977 80.534 172.953 80.534C171.929 80.534 171.113 80.854 170.505 81.494C169.913 82.118 169.617 83.022 169.617 84.206V91.598H166.905V84.206C166.905 83.022 166.609 82.118 166.017 81.494C165.425 80.854 164.617 80.534 163.593 80.534C162.569 80.534 161.753 80.854 161.145 81.494C160.553 82.118 160.257 83.022 160.257 84.206V91.598H157.521V78.374H160.257V79.886C160.705 79.342 161.273 78.918 161.961 78.614C162.649 78.31 163.385 78.158 164.169 78.158C165.225 78.158 166.169 78.382 167.001 78.83C167.833 79.278 168.473 79.926 168.921 80.774C169.321 79.974 169.945 79.342 170.793 78.878C171.641 78.398 172.553 78.158 173.529 78.158ZM194.578 84.662C194.578 85.158 194.546 85.606 194.482 86.006H184.378C184.458 87.062 184.85 87.91 185.554 88.55C186.258 89.19 187.122 89.51 188.146 89.51C189.618 89.51 190.658 88.894 191.266 87.662H194.218C193.818 88.878 193.09 89.878 192.034 90.662C190.994 91.43 189.698 91.814 188.146 91.814C186.882 91.814 185.746 91.534 184.738 90.974C183.746 90.398 182.962 89.598 182.386 88.574C181.826 87.534 181.546 86.334 181.546 84.974C181.546 83.614 181.818 82.422 182.362 81.398C182.922 80.358 183.698 79.558 184.69 78.998C185.698 78.438 186.85 78.158 188.146 78.158C189.394 78.158 190.506 78.43 191.482 78.974C192.458 79.518 193.218 80.286 193.762 81.278C194.306 82.254 194.578 83.382 194.578 84.662ZM191.722 83.798C191.706 82.79 191.346 81.982 190.642 81.374C189.938 80.766 189.066 80.462 188.026 80.462C187.082 80.462 186.274 80.766 185.602 81.374C184.93 81.966 184.53 82.774 184.402 83.798H191.722ZM203.943 78.158C204.983 78.158 205.911 78.374 206.727 78.806C207.559 79.238 208.207 79.878 208.671 80.726C209.135 81.574 209.367 82.598 209.367 83.798V91.598H206.655V84.206C206.655 83.022 206.359 82.118 205.767 81.494C205.175 80.854 204.367 80.534 203.343 80.534C202.319 80.534 201.503 80.854 200.895 81.494C200.303 82.118 200.007 83.022 200.007 84.206V91.598H197.271V78.374H200.007V79.886C200.455 79.342 201.023 78.918 201.711 78.614C202.415 78.31 203.159 78.158 203.943 78.158ZM216.049 80.606V87.926C216.049 88.422 216.161 88.782 216.385 89.006C216.625 89.214 217.025 89.318 217.585 89.318H219.265V91.598H217.105C215.873 91.598 214.929 91.31 214.273 90.734C213.617 90.158 213.289 89.222 213.289 87.926V80.606H211.729V78.374H213.289V75.086H216.049V78.374H219.265V80.606H216.049Z" fill="#D8D8D8"/>
</svg>
