<svg width="285" height="309" viewBox="0 0 285 309" fill="none" xmlns="http://www.w3.org/2000/svg">
<rect x="0.0527344" y="0.083374" width="284.136" height="270.902" rx="36" fill="#292929" fill-opacity="0.63"/>
<path d="M176.236 216.41C171.389 227.803 179.628 240.735 190.368 245.972C200.223 250.776 213.197 250.555 221.541 243.079C224.739 240.212 227.11 236.596 228.982 232.811C232.172 226.359 231.544 220.162 230.031 213.365C228.284 205.513 226.537 197.661 224.789 189.81C223.816 185.436 222.652 180.741 219.115 177.806C216.148 175.344 212.124 174.65 208.324 174.354C204.253 174.038 200.018 173.867 196.071 175.063C194.763 175.459 193.485 175.979 192.364 176.733C188.928 179.047 187.446 183.201 186.77 187.16C186.286 190 186.108 192.888 185.452 195.701C184.864 198.224 183.898 200.814 182.945 203.238C181.147 207.811 178.162 211.884 176.236 216.41Z" fill="#221F4C"/>
<path d="M179.602 216.935C178.412 223.554 180.782 230.614 185.343 235.781C190.308 241.407 197.613 244.891 205.191 246.249C207.274 246.622 209.452 246.842 211.491 246.293C213.412 245.776 215.076 244.61 216.502 243.278C220.382 239.653 222.758 234.602 223.018 229.427C223.388 222.076 219.677 214.988 219.803 207.629C219.823 206.443 219.948 205.239 220.406 204.135C220.834 203.102 221.537 202.193 222.012 201.179C222.808 199.478 222.926 197.57 223.032 195.71C223.1 194.517 223.163 193.287 222.753 192.158C222.343 191.028 221.34 190.008 220.09 189.919C219.011 192.64 217.268 195.119 215.039 197.105C214.236 197.82 213.341 198.488 212.285 198.783C211.23 199.079 209.982 198.935 209.203 198.195C208.55 197.576 208.325 196.664 208.185 195.797C207.691 192.715 207.936 189.527 208.897 186.547C209.537 184.564 210.491 182.659 210.816 180.608C211.204 178.157 210.466 175.051 207.77 174.317C204.398 173.399 199.345 174.07 196.071 175.062C194.764 175.459 193.485 175.978 192.364 176.733C184.452 182.059 187.555 195.811 184.873 203.659C183.527 207.6 181.131 211.177 180.005 215.179C179.842 215.76 179.708 216.346 179.602 216.935Z" fill="#221F4C"/>
<path d="M208.293 209.183C208.304 208.98 208.319 208.764 208.446 208.601C208.581 208.427 208.812 208.354 209.026 208.283C212.741 207.054 215.586 203.447 215.32 199.706C215.72 200.685 217.024 201.115 218.093 200.857C219.161 200.599 220.006 199.818 220.654 198.968C222.206 196.933 222.901 194.321 222.556 191.827C222.369 190.476 221.729 189.079 220.241 188.666C219.158 188.366 217.996 189.082 217.453 190.025C217.908 189.236 217.694 187.61 217.719 186.739C217.76 185.292 217.642 183.835 217.239 182.435C216.411 179.56 214.295 177.228 211.408 176.103C208.691 175.045 205.696 174.779 202.763 174.885C200.219 174.978 197.642 175.353 195.35 176.411C192.869 177.555 190.822 180.071 189.999 182.56C188.998 185.585 189.523 188.879 188.886 191.992C188.479 193.979 187.608 195.851 187.068 197.809C185.835 202.28 187.672 206.082 192.175 207.889C194.503 208.823 197.038 209.162 199.527 209.571C199.686 209.597 199.859 209.631 199.962 209.75C200.034 209.834 200.058 209.946 200.075 210.054C200.452 212.386 200.546 215.214 199.462 217.4C202.362 218.473 205.639 218.595 208.618 217.74C206.873 216.276 208.194 211.139 208.293 209.183Z" fill="#C25B42"/>
<path opacity="0.32" d="M208.293 209.183C208.304 208.98 208.318 208.764 208.445 208.601C208.581 208.427 208.811 208.354 209.026 208.283C212.741 207.054 215.586 203.447 215.32 199.706C215.72 200.685 217.024 201.115 218.092 200.857C219.16 200.599 220.006 199.818 220.654 198.968C222.206 196.933 222.901 194.321 222.556 191.827C222.368 190.476 221.729 189.079 220.241 188.666C219.157 188.366 217.996 189.082 217.452 190.025C217.907 189.236 217.694 187.61 217.719 186.739C217.76 185.292 217.641 183.835 217.239 182.435C216.411 179.56 214.295 177.228 211.408 176.103C208.691 175.045 205.696 174.779 202.763 174.885C200.218 174.978 197.642 175.353 195.35 176.411C192.356 177.792 191.558 180.168 189.962 182.621C190.286 181.261 191.811 180.458 193.259 180.263C194.708 180.068 196.186 180.304 197.64 180.155C199.094 180.007 200.652 179.319 201.117 177.996C201.807 179.548 202.498 181.099 203.253 182.623C203.926 183.981 204.715 185.405 205.941 186.387C207.02 187.252 208.217 187.289 208.36 188.856C208.975 195.566 209.036 206.008 200.479 207.834C197.339 208.504 194.052 207.961 190.953 207.134C192.171 207.459 193.254 208.385 194.566 208.712C196.193 209.117 197.873 209.299 199.527 209.571C199.686 209.597 199.859 209.631 199.961 209.75C200.034 209.834 200.057 209.946 200.075 210.054C200.452 212.386 200.546 215.214 199.462 217.4C202.362 218.473 205.639 218.595 208.618 217.74C206.872 216.276 208.194 211.139 208.293 209.183Z" fill="#C25B42"/>
<path d="M195.766 186.165C196.216 187.169 196.497 188.233 196.666 189.311C196.76 189.849 196.803 190.42 196.739 191.017C196.665 191.613 196.43 192.218 196.03 192.725C195.824 192.974 195.578 193.193 195.306 193.373C195.03 193.55 194.779 193.678 194.528 193.801C194.279 193.92 194.046 194.033 193.841 194.162C193.737 194.227 193.643 194.295 193.601 194.336C193.557 194.376 193.542 194.387 193.526 194.451C193.501 194.582 193.569 194.776 193.697 195.005C193.813 195.226 193.95 195.432 194.117 195.617C194.441 195.998 194.919 196.261 195.453 196.462C194.883 196.483 194.275 196.335 193.768 195.984C193.519 195.808 193.303 195.592 193.114 195.364C192.938 195.15 192.722 194.849 192.701 194.436C192.687 194.231 192.771 193.976 192.906 193.809C193.04 193.64 193.173 193.544 193.293 193.45C193.542 193.261 193.799 193.11 194.04 192.967C194.545 192.69 194.922 192.47 195.194 192.109C195.786 191.416 195.867 190.427 195.846 189.375L195.766 186.165Z" fill="#C25B42"/>
<path d="M203.01 198.194C202.196 199.888 200.658 201.253 198.826 201.904C197.977 202.206 197.05 202.359 196.158 202.207C194.029 201.846 192.436 199.606 191.42 197.944C195.321 198.427 199.09 198.806 203.01 198.194Z" fill="white" stroke="#631C13" stroke-width="0.903" stroke-miterlimit="10"/>
<path d="M203.853 191.542C203.898 190.739 204.193 189.73 205.162 189.601C205.865 189.508 206.524 189.982 206.783 190.583C206.958 190.989 206.984 191.438 206.961 191.876C206.918 192.706 206.464 193.845 205.397 193.791C204.292 193.735 203.804 192.423 203.853 191.542Z" fill="black"/>
<path d="M190.862 192.136C190.62 191.55 190.582 190.889 190.756 190.281C190.901 189.767 191.266 189.246 191.817 189.165C192.309 189.092 192.798 189.414 193.024 189.837C193.433 190.602 193.362 192.043 192.635 192.623C191.993 193.136 191.149 192.832 190.862 192.136Z" fill="black"/>
<path d="M203.494 185.304C203.453 184.498 203.813 183.7 204.453 183.103C205.083 182.503 206.05 182.117 207.034 182.179C207.521 182.209 208.003 182.329 208.417 182.541C208.63 182.641 208.818 182.765 208.998 182.898C209.183 183.03 209.364 183.198 209.508 183.373C210.096 184.072 210.298 185.022 209.939 185.769C209.413 185.138 208.896 184.78 208.399 184.555C208.274 184.498 208.16 184.46 208.03 184.418C207.893 184.383 207.77 184.325 207.64 184.305C207.39 184.235 207.15 184.203 206.913 184.191C206.442 184.163 205.946 184.223 205.384 184.409C204.814 184.588 204.226 184.893 203.494 185.304Z" fill="#221F4C"/>
<path d="M194.093 184.959C193.48 184.668 193.028 184.598 192.633 184.56C192.241 184.527 191.929 184.556 191.669 184.599C191.411 184.644 191.108 184.716 190.751 184.871C190.392 185.033 189.99 185.241 189.511 185.711C189.097 185.167 189.162 184.403 189.511 183.813C189.86 183.216 190.519 182.739 191.31 182.612C192.1 182.482 192.887 182.721 193.425 183.173C193.961 183.618 194.29 184.315 194.093 184.959Z" fill="#221F4C"/>
<g opacity="0.36">
<path d="M206.551 198.266C207.715 198.388 210.458 198.452 210.749 196.878C211.071 195.139 207.827 194.642 206.625 194.585C205.447 194.53 203.542 194.775 202.824 195.797C202.589 196.131 202.637 196.683 202.895 196.989C203.077 197.205 203.337 197.347 203.597 197.47C204.52 197.908 205.524 198.158 206.551 198.266Z" fill="#FB7A48"/>
<path d="M188.897 194.52C188.474 194.694 188.154 195 187.912 195.416C187.729 195.733 187.649 196.125 187.789 196.462C187.989 196.94 188.557 197.174 189.085 197.281C190.149 197.496 193.04 197.526 192.557 195.765C192.461 195.416 192.212 195.119 191.914 194.896C191.193 194.357 190.2 194.233 189.303 194.402C189.158 194.429 189.023 194.469 188.897 194.52Z" fill="#FB7A48"/>
</g>
<path d="M220.233 191.796C220.359 191.528 220.08 191.259 219.832 191.298C219.569 191.318 219.371 191.505 219.237 191.726C218.958 192.187 218.705 192.684 218.489 193.179C218.064 194.168 217.787 195.234 217.872 196.268C217.894 196.522 217.945 196.772 218.036 197.003C218.081 197.115 218.139 197.244 218.19 197.304C218.215 197.336 218.238 197.347 218.233 197.345C218.229 197.343 218.219 197.352 218.258 197.338C218.657 197.136 218.927 196.65 219.051 196.153C219.158 195.652 219.281 195.079 219.032 194.658C218.909 194.449 218.684 194.282 218.419 194.296C218.154 194.307 217.896 194.456 217.66 194.611C217.86 194.417 218.088 194.217 218.404 194.163C218.724 194.101 219.059 194.275 219.247 194.52C219.445 194.772 219.507 195.087 219.519 195.376C219.53 195.667 219.504 195.945 219.455 196.233C219.355 196.795 219.102 197.405 218.482 197.764C218.394 197.813 218.233 197.852 218.089 197.808C217.947 197.767 217.856 197.682 217.792 197.608C217.665 197.449 217.617 197.32 217.554 197.178C217.439 196.897 217.374 196.603 217.346 196.311C217.263 195.144 217.595 194.019 218.115 193.016C218.376 192.511 218.676 192.042 219.027 191.583C219.209 191.357 219.501 191.142 219.833 191.164C220.175 191.158 220.428 191.557 220.233 191.796Z" fill="#C25B42"/>
<path d="M191.571 180.421C192.982 179.25 194.956 178.998 196.785 178.619C198.612 178.239 200.59 177.534 201.408 175.93C202.099 177.345 203.739 178.286 205.373 178.205C205.523 178.198 205.677 178.183 205.82 178.228C206.001 178.284 206.136 178.425 206.26 178.562C207.55 179.993 208.582 181.618 209.906 183.021C211.35 184.55 212.813 185.373 214.96 185.683C215.177 187.658 214.748 189.486 214.687 191.468C214.617 193.706 214.935 195.955 215.636 198.091C215.266 196.963 215.819 194.977 216.15 193.877C216.515 192.664 216.946 191.405 217.648 190.327C217.953 189.859 218.315 189.312 218.866 189.091C219.095 188.998 220.791 188.904 220.733 189.285C221.264 185.824 221.737 182.053 219.887 179.032C218.24 176.342 215.067 174.838 211.92 174.004C205.915 172.413 198.615 172.364 193.292 175.741C192.125 176.481 191.053 177.393 190.317 178.531C188.577 181.225 188.667 185.229 189.324 188.224C189.447 185.621 189.305 182.301 191.571 180.421Z" fill="#221F4C"/>
<path d="M183.851 237.096C183.366 239.696 181.529 241.649 182.152 244.424C182.66 246.689 184.506 248.756 186.918 249.286C186.141 257.152 184.192 264.415 181.543 271.63H223.517C223.272 270.327 223.088 269.014 222.974 267.696C222.942 267.33 222.916 266.963 222.894 266.595C224.886 266.569 227.689 264.838 229.272 263.742C229.872 263.326 230.484 262.871 230.796 262.23C231.138 261.523 231.062 260.706 230.977 259.932C230.118 252.162 228.983 244.42 227.576 236.723C226.872 232.877 226.125 229.032 225.26 225.215C224.599 222.293 223.203 221.344 220.094 220.645C217.275 220.011 214.456 219.376 211.636 218.742C212.319 218.56 212.957 218.225 213.483 217.77C211.072 217.207 211.625 214.931 210.84 213.26C210.44 212.408 209.503 211.674 208.549 211.883C207.952 212.015 207.504 212.473 206.969 212.758C206.275 213.128 205.448 213.196 204.654 213.162C203.673 213.12 202.7 212.934 201.778 212.612C201.036 212.352 200.31 212.002 199.522 211.942C197.66 211.802 196.849 213.366 196.814 214.869C196.8 215.442 196.05 218.89 194.574 217.771C195.081 218.155 195.768 218.316 196.403 218.197C194.574 218.636 192.732 219.018 190.877 219.344C189.388 219.606 187.272 219.513 185.953 220.202C184.817 220.796 183.961 221.771 183.14 222.727C178.674 227.928 173.831 232.912 168.685 237.474C162.845 242.65 157.03 247.861 150.878 252.702C148.629 254.471 146.183 256.045 143.823 257.674C140.313 260.096 136.964 262.739 133.429 265.067C135.375 267.485 137.859 269.509 140.669 270.963C140.937 271.102 141.222 271.239 141.527 271.24C141.887 271.242 142.215 271.055 142.521 270.874C148.67 267.232 154.545 263.275 160.283 259.089C165.592 255.213 169.932 250.796 174.669 246.372C177.779 243.468 181.416 240.551 183.851 237.096Z" fill="white"/>
<path opacity="0.67" d="M183.851 237.096C183.366 239.696 181.53 241.649 182.152 244.424C182.66 246.689 184.507 248.756 186.918 249.286C186.806 250.426 186.546 251.453 186.788 252.603C188.017 251.298 189.402 250.128 190.907 249.121C192.398 251.252 194.856 252.876 195.915 255.294C197.084 257.962 195.427 261.184 192.852 262.711C190.276 264.237 187.061 264.402 184.042 264.135C184.146 264.144 182.499 268.941 182.366 269.329C182.101 270.099 181.825 270.865 181.544 271.63H223.518C223.273 270.327 223.089 269.014 222.974 267.696C222.943 267.33 222.916 266.963 222.895 266.595C224.886 266.569 227.69 264.838 229.273 263.742C229.873 263.326 230.485 262.871 230.797 262.23C231.139 261.523 231.063 260.706 230.978 259.932C230.119 252.162 228.984 244.42 227.577 236.723C226.873 232.877 226.125 229.032 225.261 225.215C224.6 222.293 223.204 221.344 220.095 220.645C217.275 220.011 214.456 219.376 211.637 218.742C212.32 218.56 212.958 218.225 213.484 217.77C211.073 217.207 211.626 214.931 210.841 213.26C210.441 212.408 209.504 211.674 208.55 211.883C207.776 212.054 207.244 212.709 206.483 212.953C205.695 213.206 204.802 213.219 203.985 213.124C202.868 212.994 201.931 212.569 200.856 212.242C200.035 211.993 199.106 211.798 198.339 212.174C199.536 212.382 200.633 212.788 201.675 213.368C203.501 214.385 205.905 214.965 205.502 217.514C205.482 217.642 205.45 217.775 205.363 217.875C205.267 217.989 205.118 218.046 204.972 218.092C204.232 218.328 203.442 218.373 202.662 218.381C200.867 218.401 199.07 218.234 197.312 217.886C196.837 217.791 196.247 217.532 196.309 217.074C195.959 217.5 195.568 218.069 194.896 218C195.288 218.04 195.681 218.081 196.073 218.121C195.581 218.44 195.013 218.654 194.424 218.742C195.6 219.968 197.152 220.862 198.838 221.285C197.169 221.751 195.367 221.775 193.685 221.354C194.978 222.785 196.678 223.374 198.442 224.044C200.385 224.782 202.461 224.986 204.42 224.122C200.681 226.867 196.254 228.756 191.616 229.585C197.613 233.53 206.282 233.296 212.036 229.035C212.308 232.428 212.324 235.926 211.116 239.128C209.908 242.33 207.27 245.213 203.797 245.995C200.325 246.777 196.179 244.885 195.341 241.577C194.027 243.178 192.657 244.826 190.775 245.781C188.894 246.736 186.345 246.812 184.806 245.406C183.001 243.759 183.295 240.948 184.04 238.674C185.014 235.697 186.519 232.9 187.522 229.931C188.524 226.964 189.002 223.685 187.884 220.755C187.582 221.942 187.278 223.128 186.976 224.314C186.851 223.399 186.576 222.503 186.164 221.668C185.216 224.796 184.268 227.924 183.321 231.052C183.364 230.219 183.403 229.357 183.085 228.58C182.767 227.804 181.99 227.132 181.118 227.186C180.901 229.805 180.558 232.414 180.093 235.004C179.983 234.191 179.561 233.42 178.926 232.869C178.9 236.396 175.765 239.095 172.886 241.31C162.966 248.945 153.025 256.596 142.345 263.233C141.456 263.786 140.527 264.345 139.479 264.501C137.692 264.768 132.881 263.519 134.54 266.343C135.669 268.265 138.708 269.948 140.671 270.964C140.939 271.103 141.224 271.24 141.529 271.241C141.889 271.243 142.217 271.056 142.523 270.875C148.672 267.234 154.547 263.276 160.285 259.091C165.594 255.214 169.934 250.797 174.671 246.373C177.779 243.468 181.417 240.551 183.851 237.096Z" fill="#D8E8EF"/>
<path d="M123.348 271.538C122.665 271.534 121.613 271.476 121.889 271.148C122.44 270.495 122.992 269.841 123.544 269.189C123.981 268.67 124.423 268.148 124.969 267.733C126.759 266.372 129.605 266.113 131.786 265.545C132.702 265.307 133.665 265.068 134.587 265.282C136.083 265.628 143.731 269.148 141.026 271.464C140.197 272.165 136.057 271.635 134.91 271.648C132.387 271.675 129.864 271.659 127.341 271.602C126.192 271.576 125.034 271.513 123.89 271.531C123.886 271.531 123.654 271.54 123.348 271.538Z" fill="#C25B42"/>
<path d="M126.854 271.315C127.251 270.667 127.733 270.053 128.344 269.55C128.948 269.04 129.669 268.657 130.418 268.384C131.167 268.111 131.955 267.955 132.703 267.799C133.452 267.627 134.195 267.439 134.895 267.089C134.313 267.604 133.565 267.939 132.816 268.177C132.059 268.418 131.315 268.586 130.606 268.855C129.891 269.105 129.22 269.438 128.6 269.857C127.982 270.28 127.414 270.785 126.854 271.315Z" fill="#C25B42"/>
<path d="M124.01 271.323C124.475 270.576 124.966 269.848 125.484 269.139C125.717 268.781 126.063 268.411 126.429 268.133C126.801 267.842 127.225 267.641 127.645 267.445C128.504 267.092 129.397 266.866 130.291 266.704C131.185 266.532 132.081 266.429 132.977 266.277C131.289 266.956 129.466 267.221 127.861 267.905C127.051 268.245 126.347 268.692 125.812 269.375C125.238 270.044 124.638 270.693 124.01 271.323Z" fill="#C25B42"/>
<path d="M229.271 263.742C223.476 267.755 215.678 268.672 208.776 269.854C202.96 270.852 197.051 271.541 191.117 271.63C192.098 271.616 189.29 265.685 188.997 265.249C199.241 262.269 208.834 257.478 219.112 254.606C216.872 247.522 215.442 240.272 214.657 232.911C214.41 230.595 214.251 228.21 214.95 225.979C215.692 223.613 217.59 221.256 220.321 221.317C223.005 221.378 224.68 222.651 225.26 225.216C226.124 229.033 226.872 232.877 227.575 236.723C228.982 244.42 230.117 252.162 230.976 259.932C231.061 260.706 231.138 261.524 230.795 262.23C230.484 262.871 229.872 263.326 229.271 263.742Z" fill="white"/>
<path d="M179.764 271.018C180.769 270.953 181.771 270.803 182.779 270.765C184.718 270.692 186.632 271.027 188.558 271.173C189.754 271.263 192.324 271.628 193.345 270.808C193.915 270.351 193.752 269.493 193.54 268.812C193.372 268.273 193.203 267.734 193.035 267.195C192.81 266.473 192.45 265.63 191.673 265.492C190.917 265.359 190.058 265.797 189.284 265.817C188.408 265.84 187.492 265.653 186.64 265.477C185.739 265.291 184.833 265.04 183.912 265.085C182.804 265.138 181.774 265.612 180.778 266.076C178.809 266.993 176.974 267.742 175.114 268.869C174.978 268.951 174.833 269.045 174.787 269.192C174.727 269.385 174.865 269.582 175.01 269.73C175.936 270.676 177.365 271.023 178.721 271.047C179.07 271.052 179.417 271.04 179.764 271.018Z" fill="#C25B42"/>
<g opacity="0.56">
<path d="M217.079 255.208C218.507 254.309 220.475 254.208 222.082 254.904C223.689 255.599 224.905 257.08 225.133 258.697C224.494 257.205 223.327 255.998 221.863 255.363C220.399 254.728 218.677 254.683 217.079 255.208Z" fill="#A8A3E7"/>
</g>
<g opacity="0.56">
<path d="M209.781 269.051C211.554 267.968 213.082 266.612 214.277 265.01C215.48 263.414 216.332 261.597 216.836 259.647C216.75 261.663 215.945 263.647 214.707 265.303C213.461 266.954 211.753 268.321 209.781 269.051Z" fill="#A8A3E7"/>
</g>
<g opacity="0.56">
<path d="M211.494 263.427C211.386 263.881 211.119 264.24 210.81 264.551C210.489 264.852 210.118 265.113 209.642 265.222C209.852 264.802 210.135 264.497 210.433 264.198C210.743 263.91 211.059 263.635 211.494 263.427Z" fill="#A8A3E7"/>
</g>
<g opacity="0.56">
<path d="M194.611 266.48C195.254 266.766 195.715 267.347 195.959 267.979C196.195 268.614 196.229 269.343 195.924 269.953C195.808 269.296 195.681 268.717 195.462 268.15C195.253 267.58 194.962 267.057 194.611 266.48Z" fill="#A8A3E7"/>
</g>
<g opacity="0.56">
<path d="M215.484 228.309C215.546 227.047 216.179 225.825 217.091 224.89C218.007 223.959 219.244 223.276 220.561 223.134C219.371 223.663 218.333 224.356 217.477 225.234C216.614 226.107 215.958 227.141 215.484 228.309Z" fill="#A8A3E7"/>
</g>
<g opacity="0.56">
<path d="M216.186 221.275C215.356 222.382 214.826 223.641 214.499 224.94C214.179 226.241 214.014 227.579 213.934 228.919C213.842 230.259 213.865 231.605 213.952 232.948C213.994 233.62 214.07 234.291 214.167 234.959C214.248 235.631 214.373 236.297 214.492 236.968C214.033 235.68 213.726 234.341 213.548 232.985C213.363 231.63 213.324 230.255 213.406 228.889C213.502 227.526 213.683 226.156 214.108 224.838C214.324 224.181 214.586 223.537 214.923 222.929C215.277 222.331 215.685 221.759 216.186 221.275Z" fill="#A8A3E7"/>
</g>
<g opacity="0.56">
<path d="M181.359 227.433C182.239 228.688 182.7 230.204 182.799 231.721C182.887 233.24 182.615 234.797 181.894 236.141C182.215 234.67 182.367 233.211 182.272 231.751C182.189 230.29 181.86 228.857 181.359 227.433Z" fill="#A8A3E7"/>
</g>
<g opacity="0.56">
<path d="M195.687 221.861C197.014 221.955 198.336 221.999 199.653 221.952C200.969 221.899 202.281 221.788 203.577 221.58C204.875 221.383 206.156 221.091 207.42 220.741C208.685 220.385 209.923 219.942 211.151 219.451C210.023 220.129 208.805 220.67 207.548 221.109C206.291 221.553 204.985 221.865 203.662 222.077C202.338 222.276 200.994 222.378 199.655 222.338C198.317 222.305 196.982 222.161 195.687 221.861Z" fill="#A8A3E7"/>
</g>
<g opacity="0.56">
<path d="M214.176 221.258C212.762 222.579 211.176 223.735 209.491 224.74C207.806 225.746 206.003 226.57 204.149 227.26C202.28 227.911 200.355 228.427 198.393 228.735C196.432 229.042 194.44 229.173 192.464 229.072C194.438 228.964 196.396 228.737 198.319 228.354C200.24 227.972 202.135 227.467 203.962 226.789C205.805 226.148 207.576 225.332 209.284 224.409C210.992 223.484 212.62 222.421 214.176 221.258Z" fill="#A8A3E7"/>
</g>
<g opacity="0.56">
<path d="M196.277 242.675C196.804 244.304 197.715 245.793 198.911 247.017C200.106 248.239 201.572 249.227 203.215 249.787C204.842 250.385 206.629 250.553 208.37 250.373C210.114 250.193 211.824 249.633 213.34 248.729C211.947 249.807 210.218 250.49 208.424 250.757C206.627 251.025 204.754 250.85 203.03 250.259C201.322 249.631 199.783 248.598 198.608 247.274C197.433 245.953 196.593 244.359 196.277 242.675Z" fill="#A8A3E7"/>
</g>
<g opacity="0.56">
<path d="M197.047 218.413C199.003 218.72 200.939 218.97 202.893 219.064C204.846 219.172 206.798 219.123 208.778 219.021C206.862 219.518 204.851 219.664 202.864 219.567C200.878 219.457 198.896 219.104 197.047 218.413Z" fill="#A8A3E7"/>
</g>
<g opacity="0.56">
<path d="M183.042 239.413C183.601 237.844 184.226 236.302 184.819 234.752C185.41 233.201 186.004 231.654 186.476 230.073C186.988 228.504 187.375 226.902 187.648 225.282C187.923 223.662 188.047 222.018 188.044 220.362C188.267 222.006 188.246 223.68 188.052 225.335C187.858 226.991 187.46 228.619 186.982 230.217C186.463 231.804 185.871 233.366 185.196 234.892C184.522 236.42 183.803 237.924 183.042 239.413Z" fill="#A8A3E7"/>
</g>
<g opacity="0.56">
<path d="M186.74 221.663C187.008 221.983 187.099 222.349 187.129 222.713C187.143 223.078 187.095 223.452 186.865 223.798C186.676 223.431 186.63 223.089 186.601 222.741C186.59 222.393 186.597 222.048 186.74 221.663Z" fill="#A8A3E7"/>
</g>
<path d="M139.648 237.859L143.038 271.63H176.787H205.409V269.202H179.899L178.156 237.859H139.648Z" fill="#221F4C"/>
<path opacity="0.5" d="M178.156 237.859H175.917L177.999 271.63H205.409V269.202H179.899L178.156 237.859Z" fill="#4343A8"/>
<path d="M156.303 246.556C157.427 246.556 158.338 245.687 158.338 244.616C158.338 243.544 157.427 242.675 156.303 242.675C155.18 242.675 154.269 243.544 154.269 244.616C154.269 245.687 155.18 246.556 156.303 246.556Z" fill="white"/>
<path d="M43.9619 247.47C41.9059 247.312 38.9938 246.996 38.6963 248.745C38.4223 250.357 38.3713 252.095 38.26 253.725C37.1006 270.693 35.6331 303.359 38.6571 304.827C42.3059 306.598 61.4047 307.399 71.7971 307.74C80.8837 308.039 89.979 307.797 99.0673 307.556C119.308 307.018 139.548 306.48 159.789 305.943C161.63 305.893 163.77 305.692 164.764 304.215C165.272 303.46 165.356 302.523 165.426 301.628C166.201 291.653 165.539 281.729 165.189 271.738" stroke="#221F4C" stroke-width="1.806" stroke-miterlimit="10" stroke-linecap="round"/>
<path d="M49.2335 254.036C45.5947 253.856 43.2266 254.011 42.9883 256.38C42.7763 258.49 40.3842 291.016 43.0954 299.17C43.616 300.737 46.0579 300.77 47.7678 300.97C54.782 301.789 61.8693 301.801 68.9356 301.795C96.2614 301.768 123.587 301.476 150.907 300.917C153.449 300.865 156.343 300.652 157.912 298.744C160.328 295.808 158.777 289.631 158.666 286.2C158.509 281.338 158.334 276.477 158.117 271.617" stroke="#221F4C" stroke-width="1.806" stroke-miterlimit="10" stroke-linecap="round"/>
<path d="M149.352 271.606C149.438 275.617 149.525 279.629 149.612 283.64C149.654 285.593 149.75 287.699 151.015 289.237C152.742 291.336 155.924 291.579 158.721 291.646" stroke="#221F4C" stroke-width="1.806" stroke-miterlimit="10" stroke-linecap="round"/>
<path d="M153.359 272.694C154.047 279.24 153.9 285.783 153.915 292.36C153.917 293.314 153.902 294.327 153.367 295.134C152.659 296.202 151.251 296.607 149.95 296.848C147.427 297.316 144.854 297.473 142.287 297.611C113.72 299.147 85.0681 298.428 56.4968 296.967C54.4039 296.86 50.6509 296.619 48.688 295.92C48.1335 295.722 47.5795 295.468 47.193 295.039C46.7486 294.547 46.5032 293.9 46.43 293.254C45.2963 283.233 45.831 274.671 46.0166 265.233C46.0804 261.995 48.0591 261.059 49.8381 261.199" stroke="#221F4C" stroke-width="1.806" stroke-miterlimit="10" stroke-linecap="round"/>
<path d="M158.745 273.991H158.002C156.833 273.991 155.885 273.087 155.885 271.972C155.885 270.857 156.832 269.953 158.002 269.953H158.745C159.914 269.953 160.862 270.857 160.862 271.972C160.861 273.087 159.914 273.991 158.745 273.991Z" fill="#373782"/>
<path d="M165.636 273.991H165.076C164.278 273.991 163.63 273.373 163.63 272.611V270.582C163.63 269.82 164.278 269.202 165.076 269.202H165.636C166.435 269.202 167.082 269.82 167.082 270.582V272.611C167.082 273.373 166.435 273.991 165.636 273.991Z" fill="#373782"/>
<path d="M149.166 274.436C148.238 274.436 147.486 273.719 147.486 272.834V269.954H150.846V272.834C150.846 273.718 150.093 274.436 149.166 274.436Z" fill="#373782"/>
<path d="M153.194 274.946C152.172 274.946 151.344 274.156 151.344 273.181V269.953H155.045V273.181C155.045 274.157 154.216 274.946 153.194 274.946Z" fill="#373782"/>
<path d="M51.8697 251.522H54.506V256.55H51.8697C50.4139 256.55 49.2334 255.425 49.2334 254.036C49.2334 252.648 50.4139 251.522 51.8697 251.522Z" fill="#373782"/>
<path d="M45.0495 245.99H54.5056V249.194H45.0495C44.4481 249.194 43.9609 248.729 43.9609 248.155V247.028C43.9609 246.455 44.4481 245.99 45.0495 245.99Z" fill="#373782"/>
<path d="M51.6287 258.568H54.5056V263.831H51.6287C50.6753 263.831 49.9023 263.094 49.9023 262.185V260.214C49.9023 259.305 50.6753 258.568 51.6287 258.568Z" fill="#373782"/>
<path d="M54.1191 267.809C54.1191 270.218 56.1663 272.17 58.6908 272.17H100.979C103.503 272.17 105.551 270.218 105.551 267.809V194.18C105.551 191.771 103.503 189.82 100.979 189.82H58.6908C56.1663 189.82 54.1191 191.771 54.1191 194.18V267.809Z" fill="#4343A6"/>
<path d="M80.4951 267.81C80.4951 270.218 82.5423 272.17 85.0668 272.17H127.355C129.879 272.17 131.927 270.218 131.927 267.81V194.18C131.927 191.772 129.879 189.82 127.355 189.82H85.0668C82.5423 189.82 80.4951 191.772 80.4951 194.18V267.81Z" fill="#221F4C"/>
<path d="M83.3203 267.81C83.3203 270.218 85.3675 272.17 87.892 272.17H130.18C132.705 272.17 134.752 270.218 134.752 267.81V194.18C134.752 191.772 132.705 189.82 130.18 189.82H87.892C85.3675 189.82 83.3203 191.772 83.3203 194.18V267.81Z" fill="#A6A1E5"/>
<path d="M126.276 198.988C127.519 198.988 128.537 199.958 128.537 201.144V216.372C128.537 217.558 127.519 218.528 126.276 218.528H118.175C116.931 218.528 115.914 217.558 115.914 216.372V214.171C115.914 212.984 114.896 212.014 113.653 212.014H104.421C103.178 212.014 102.16 212.984 102.16 214.171V216.372C102.16 217.558 101.142 218.528 99.899 218.528H91.7981C90.5549 218.528 89.5371 217.558 89.5371 216.372V201.144C89.5371 199.958 90.5549 198.988 91.7981 198.988H126.276Z" fill="#4343A6"/>
<path d="M91.7981 198.988H126.275C127.518 198.988 128.536 199.958 128.536 201.144V203.301C128.536 202.114 127.518 201.144 126.275 201.144H91.7981C90.5549 201.144 89.5371 202.114 89.5371 203.301V201.144C89.5371 199.958 90.5549 198.988 91.7981 198.988Z" fill="#221F4C"/>
<path d="M119.053 207.63C119.053 208.083 119.437 208.45 119.912 208.45H123.971C124.446 208.45 124.831 208.083 124.831 207.63V206.036C124.831 205.583 124.446 205.216 123.971 205.216H119.912C119.437 205.216 119.053 205.583 119.053 206.036V207.63Z" fill="#F8CB53"/>
<path d="M110.45 207.63C110.45 208.083 110.835 208.45 111.31 208.45H115.369C115.843 208.45 116.228 208.083 116.228 207.63V206.036C116.228 205.583 115.843 205.216 115.369 205.216H111.31C110.835 205.216 110.45 205.583 110.45 206.036V207.63Z" fill="#F8CB53"/>
<path d="M101.846 207.63C101.846 208.083 102.23 208.45 102.705 208.45H106.764C107.239 208.45 107.624 208.083 107.624 207.63V206.036C107.624 205.583 107.239 205.216 106.764 205.216H102.705C102.23 205.216 101.846 205.583 101.846 206.036V207.63Z" fill="#F8CB53"/>
<path d="M93.2432 207.63C93.2432 208.083 93.6279 208.45 94.1028 208.45H98.1615C98.6364 208.45 99.0211 208.083 99.0211 207.63V206.037C99.0211 205.584 98.6364 205.217 98.1615 205.217H94.1028C93.6279 205.217 93.2432 205.584 93.2432 206.037V207.63Z" fill="#F8CB53"/>
<path d="M134.752 222.481H83.3203V224.457H134.752V222.481Z" fill="#92D7F5"/>
<path d="M134.752 223.244H83.3203V225.22H134.752V223.244Z" fill="#221F4C"/>
<path d="M126.276 230.995C127.519 230.995 128.537 231.966 128.537 233.152V248.379C128.537 249.565 127.519 250.535 126.276 250.535H118.175C116.931 250.535 115.914 249.565 115.914 248.379V246.178C115.914 244.992 114.896 244.022 113.653 244.022H104.421C103.178 244.022 102.16 244.992 102.16 246.178V248.379C102.16 249.565 101.142 250.535 99.899 250.535H91.7981C90.5549 250.535 89.5371 249.565 89.5371 248.379V233.152C89.5371 231.966 90.5549 230.995 91.7981 230.995H126.276Z" fill="#4343A6"/>
<path d="M91.7981 230.995H126.275C127.518 230.995 128.536 231.966 128.536 233.152V235.308C128.536 234.122 127.518 233.152 126.275 233.152H91.7981C90.5549 233.152 89.5371 234.122 89.5371 235.308V233.152C89.5371 231.965 90.5549 230.995 91.7981 230.995Z" fill="#221F4C"/>
<path d="M119.053 239.638C119.053 240.091 119.437 240.457 119.912 240.457H123.971C124.446 240.457 124.831 240.091 124.831 239.638V238.044C124.831 237.591 124.446 237.224 123.971 237.224H119.912C119.437 237.224 119.053 237.591 119.053 238.044V239.638Z" fill="#F8CB53"/>
<path d="M110.45 239.638C110.45 240.091 110.835 240.457 111.31 240.457H115.369C115.843 240.457 116.228 240.091 116.228 239.638V238.044C116.228 237.591 115.843 237.224 115.369 237.224H111.31C110.835 237.224 110.45 237.591 110.45 238.044V239.638Z" fill="#F8CB53"/>
<path d="M101.846 239.638C101.846 240.091 102.23 240.457 102.705 240.457H106.764C107.239 240.457 107.624 240.091 107.624 239.638V238.044C107.624 237.591 107.239 237.224 106.764 237.224H102.705C102.23 237.224 101.846 237.591 101.846 238.044V239.638Z" fill="#F8CB53"/>
<path d="M93.2432 239.638C93.2432 240.091 93.6279 240.458 94.1028 240.458H98.1615C98.6364 240.458 99.0211 240.091 99.0211 239.638V238.044C99.0211 237.591 98.6364 237.224 98.1615 237.224H94.1028C93.6279 237.224 93.2432 237.591 93.2432 238.044V239.638Z" fill="#F8CB53"/>
<path d="M134.752 254.487H83.3203V256.464H134.752V254.487Z" fill="#92D7F5"/>
<path d="M134.752 255.251H83.3203V257.228H134.752V255.251Z" fill="#221F4C"/>
<path d="M114.751 264.839C114.751 265.632 115.426 266.276 116.258 266.276H125.113C125.945 266.276 126.62 265.633 126.62 264.839C126.62 264.045 125.946 263.401 125.113 263.401H116.258C115.426 263.401 114.751 264.044 114.751 264.839Z" fill="#221F4C"/>
<path d="M125.113 264.06H116.258C115.545 264.06 114.951 264.533 114.794 265.168C114.769 265.061 114.751 264.952 114.751 264.839C114.751 264.045 115.426 263.401 116.258 263.401H125.113C125.945 263.401 126.62 264.044 126.62 264.839C126.62 264.953 126.603 265.062 126.577 265.168C126.42 264.533 125.826 264.06 125.113 264.06Z" fill="#92D7F5"/>
<path d="M115.911 264.839C115.911 264.996 116.045 265.123 116.21 265.123H125.159C125.323 265.123 125.457 264.996 125.457 264.839C125.457 264.682 125.323 264.554 125.159 264.554H116.21C116.045 264.554 115.911 264.681 115.911 264.839Z" fill="#D6E2EE"/>
<path d="M91.4531 264.838C91.4531 265.632 92.1271 266.276 92.9604 266.276H101.815C102.647 266.276 103.322 265.633 103.322 264.838C103.322 264.045 102.647 263.401 101.815 263.401H92.9604C92.1277 263.401 91.4531 264.044 91.4531 264.838Z" fill="#221F4C"/>
<path d="M101.815 264.059H92.9604C92.2466 264.059 91.6534 264.533 91.4959 265.167C91.4701 265.061 91.4531 264.952 91.4531 264.838C91.4531 264.045 92.1271 263.401 92.9604 263.401H101.815C102.647 263.401 103.322 264.044 103.322 264.838C103.322 264.952 103.305 265.062 103.278 265.167C103.122 264.533 102.528 264.059 101.815 264.059Z" fill="#92D7F5"/>
<path d="M92.6143 264.839C92.6143 264.996 92.7484 265.123 92.9123 265.123H101.862C102.026 265.123 102.16 264.996 102.16 264.839C102.16 264.682 102.027 264.554 101.862 264.554H92.9123C92.7478 264.554 92.6143 264.681 92.6143 264.839Z" fill="#D6E2EE"/>
<path d="M96.5349 47.03C97.4309 47.19 98.1909 47.662 98.8149 48.446C99.4389 49.23 99.7509 50.118 99.7509 51.11C99.7509 51.958 99.5269 52.726 99.0789 53.414C98.6469 54.086 98.0149 54.622 97.1829 55.022C96.3509 55.406 95.3829 55.598 94.2789 55.598H87.6069V38.918H93.9669C95.1029 38.918 96.0789 39.11 96.8949 39.494C97.7109 39.878 98.3269 40.398 98.7429 41.054C99.1589 41.694 99.3669 42.414 99.3669 43.214C99.3669 44.174 99.1109 44.974 98.5989 45.614C98.0869 46.254 97.3989 46.726 96.5349 47.03ZM90.3429 45.926H93.7269C94.6229 45.926 95.3189 45.726 95.8149 45.326C96.3269 44.91 96.5829 44.318 96.5829 43.55C96.5829 42.798 96.3269 42.214 95.8149 41.798C95.3189 41.366 94.6229 41.15 93.7269 41.15H90.3429V45.926ZM94.0389 53.366C94.9669 53.366 95.6949 53.142 96.2229 52.694C96.7509 52.246 97.0149 51.622 97.0149 50.822C97.0149 50.006 96.7349 49.358 96.1749 48.878C95.6149 48.398 94.8709 48.158 93.9429 48.158H90.3429V53.366H94.0389ZM101.812 48.926C101.812 47.598 102.084 46.422 102.628 45.398C103.188 44.374 103.94 43.582 104.884 43.022C105.844 42.446 106.9 42.158 108.052 42.158C109.092 42.158 109.996 42.366 110.764 42.782C111.548 43.182 112.172 43.686 112.636 44.294V42.374H115.396V55.598H112.636V53.63C112.172 54.254 111.54 54.774 110.74 55.19C109.94 55.606 109.028 55.814 108.004 55.814C106.868 55.814 105.828 55.526 104.884 54.95C103.94 54.358 103.188 53.542 102.628 52.502C102.084 51.446 101.812 50.254 101.812 48.926ZM112.636 48.974C112.636 48.062 112.444 47.27 112.06 46.598C111.692 45.926 111.204 45.414 110.596 45.062C109.988 44.71 109.332 44.534 108.628 44.534C107.924 44.534 107.268 44.71 106.66 45.062C106.052 45.398 105.556 45.902 105.172 46.574C104.804 47.23 104.62 48.014 104.62 48.926C104.62 49.838 104.804 50.638 105.172 51.326C105.556 52.014 106.052 52.542 106.66 52.91C107.284 53.262 107.94 53.438 108.628 53.438C109.332 53.438 109.988 53.262 110.596 52.91C111.204 52.558 111.692 52.046 112.06 51.374C112.444 50.686 112.636 49.886 112.636 48.974ZM118.078 48.974C118.078 47.614 118.35 46.422 118.894 45.398C119.454 44.358 120.222 43.558 121.198 42.998C122.174 42.438 123.294 42.158 124.558 42.158C126.158 42.158 127.478 42.542 128.518 43.31C129.574 44.062 130.286 45.142 130.654 46.55H127.702C127.462 45.894 127.078 45.382 126.55 45.014C126.022 44.646 125.358 44.462 124.558 44.462C123.438 44.462 122.542 44.862 121.87 45.662C121.214 46.446 120.886 47.55 120.886 48.974C120.886 50.398 121.214 51.51 121.87 52.31C122.542 53.11 123.438 53.51 124.558 53.51C126.142 53.51 127.19 52.814 127.702 51.422H130.654C130.27 52.766 129.55 53.838 128.494 54.638C127.438 55.422 126.126 55.814 124.558 55.814C123.294 55.814 122.174 55.534 121.198 54.974C120.222 54.398 119.454 53.598 118.894 52.574C118.35 51.534 118.078 50.334 118.078 48.974ZM138.612 48.998L144.708 55.598H141.012L136.116 49.91V55.598H133.38V37.838H136.116V48.158L140.916 42.374H144.708L138.612 48.998ZM158.789 48.662C158.789 49.158 158.757 49.606 158.693 50.006H148.589C148.669 51.062 149.061 51.91 149.765 52.55C150.469 53.19 151.333 53.51 152.357 53.51C153.829 53.51 154.869 52.894 155.477 51.662H158.429C158.029 52.878 157.301 53.878 156.245 54.662C155.205 55.43 153.909 55.814 152.357 55.814C151.093 55.814 149.957 55.534 148.949 54.974C147.957 54.398 147.173 53.598 146.597 52.574C146.037 51.534 145.757 50.334 145.757 48.974C145.757 47.614 146.029 46.422 146.573 45.398C147.133 44.358 147.909 43.558 148.901 42.998C149.909 42.438 151.061 42.158 152.357 42.158C153.605 42.158 154.717 42.43 155.693 42.974C156.669 43.518 157.429 44.286 157.973 45.278C158.517 46.254 158.789 47.382 158.789 48.662ZM155.933 47.798C155.917 46.79 155.557 45.982 154.853 45.374C154.149 44.766 153.277 44.462 152.237 44.462C151.293 44.462 150.485 44.766 149.813 45.374C149.141 45.966 148.741 46.774 148.613 47.798H155.933ZM168.154 42.158C169.194 42.158 170.122 42.374 170.938 42.806C171.77 43.238 172.418 43.878 172.882 44.726C173.346 45.574 173.578 46.598 173.578 47.798V55.598H170.866V48.206C170.866 47.022 170.57 46.118 169.978 45.494C169.386 44.854 168.578 44.534 167.554 44.534C166.53 44.534 165.714 44.854 165.106 45.494C164.514 46.118 164.218 47.022 164.218 48.206V55.598H161.482V42.374H164.218V43.886C164.666 43.342 165.234 42.918 165.922 42.614C166.626 42.31 167.37 42.158 168.154 42.158ZM176.156 48.926C176.156 47.598 176.428 46.422 176.972 45.398C177.532 44.374 178.284 43.582 179.228 43.022C180.188 42.446 181.252 42.158 182.42 42.158C183.284 42.158 184.132 42.35 184.964 42.734C185.812 43.102 186.484 43.598 186.98 44.222V37.838H189.74V55.598H186.98V53.606C186.532 54.246 185.908 54.774 185.108 55.19C184.324 55.606 183.42 55.814 182.396 55.814C181.244 55.814 180.188 55.526 179.228 54.95C178.284 54.358 177.532 53.542 176.972 52.502C176.428 51.446 176.156 50.254 176.156 48.926ZM186.98 48.974C186.98 48.062 186.788 47.27 186.404 46.598C186.036 45.926 185.548 45.414 184.94 45.062C184.332 44.71 183.676 44.534 182.972 44.534C182.268 44.534 181.612 44.71 181.004 45.062C180.396 45.398 179.9 45.902 179.516 46.574C179.148 47.23 178.964 48.014 178.964 48.926C178.964 49.838 179.148 50.638 179.516 51.326C179.9 52.014 180.396 52.542 181.004 52.91C181.628 53.262 182.284 53.438 182.972 53.438C183.676 53.438 184.332 53.262 184.94 52.91C185.548 52.558 186.036 52.046 186.404 51.374C186.788 50.686 186.98 49.886 186.98 48.974ZM64.6018 74.918C66.3778 74.918 67.9298 75.262 69.2578 75.95C70.6018 76.622 71.6338 77.598 72.3538 78.878C73.0898 80.142 73.4578 81.622 73.4578 83.318C73.4578 85.014 73.0898 86.486 72.3538 87.734C71.6338 88.982 70.6018 89.942 69.2578 90.614C67.9298 91.27 66.3778 91.598 64.6018 91.598H59.1538V74.918H64.6018ZM64.6018 89.366C66.5538 89.366 68.0498 88.838 69.0898 87.782C70.1298 86.726 70.6498 85.238 70.6498 83.318C70.6498 81.382 70.1298 79.87 69.0898 78.782C68.0498 77.694 66.5538 77.15 64.6018 77.15H61.8898V89.366H64.6018ZM88.2894 84.662C88.2894 85.158 88.2574 85.606 88.1934 86.006H78.0894C78.1694 87.062 78.5614 87.91 79.2654 88.55C79.9694 89.19 80.8334 89.51 81.8574 89.51C83.3294 89.51 84.3694 88.894 84.9774 87.662H87.9294C87.5294 88.878 86.8014 89.878 85.7454 90.662C84.7054 91.43 83.4094 91.814 81.8574 91.814C80.5934 91.814 79.4574 91.534 78.4494 90.974C77.4574 90.398 76.6734 89.598 76.0974 88.574C75.5374 87.534 75.2574 86.334 75.2574 84.974C75.2574 83.614 75.5294 82.422 76.0734 81.398C76.6334 80.358 77.4094 79.558 78.4014 78.998C79.4094 78.438 80.5614 78.158 81.8574 78.158C83.1054 78.158 84.2174 78.43 85.1934 78.974C86.1694 79.518 86.9294 80.286 87.4734 81.278C88.0174 82.254 88.2894 83.382 88.2894 84.662ZM85.4334 83.798C85.4174 82.79 85.0574 81.982 84.3534 81.374C83.6494 80.766 82.7774 80.462 81.7374 80.462C80.7934 80.462 79.9854 80.766 79.3134 81.374C78.6414 81.966 78.2414 82.774 78.1134 83.798H85.4334ZM96.0939 89.15L99.8379 78.374H102.742L97.7019 91.598H94.4379L89.4219 78.374H92.3499L96.0939 89.15ZM116.93 84.662C116.93 85.158 116.898 85.606 116.834 86.006H106.73C106.81 87.062 107.202 87.91 107.906 88.55C108.61 89.19 109.474 89.51 110.498 89.51C111.97 89.51 113.01 88.894 113.618 87.662H116.57C116.17 88.878 115.442 89.878 114.386 90.662C113.346 91.43 112.05 91.814 110.498 91.814C109.234 91.814 108.098 91.534 107.09 90.974C106.098 90.398 105.314 89.598 104.738 88.574C104.178 87.534 103.898 86.334 103.898 84.974C103.898 83.614 104.17 82.422 104.714 81.398C105.274 80.358 106.05 79.558 107.042 78.998C108.05 78.438 109.202 78.158 110.498 78.158C111.746 78.158 112.858 78.43 113.834 78.974C114.81 79.518 115.57 80.286 116.114 81.278C116.658 82.254 116.93 83.382 116.93 84.662ZM114.074 83.798C114.058 82.79 113.698 81.982 112.994 81.374C112.29 80.766 111.418 80.462 110.378 80.462C109.434 80.462 108.626 80.766 107.954 81.374C107.282 81.966 106.882 82.774 106.754 83.798H114.074ZM122.359 73.838V91.598H119.623V73.838H122.359ZM131.687 91.814C130.439 91.814 129.311 91.534 128.303 90.974C127.295 90.398 126.503 89.598 125.927 88.574C125.351 87.534 125.063 86.334 125.063 84.974C125.063 83.63 125.359 82.438 125.951 81.398C126.543 80.358 127.351 79.558 128.375 78.998C129.399 78.438 130.543 78.158 131.807 78.158C133.071 78.158 134.215 78.438 135.239 78.998C136.263 79.558 137.071 80.358 137.663 81.398C138.255 82.438 138.551 83.63 138.551 84.974C138.551 86.318 138.247 87.51 137.639 88.55C137.031 89.59 136.199 90.398 135.143 90.974C134.103 91.534 132.951 91.814 131.687 91.814ZM131.687 89.438C132.391 89.438 133.047 89.27 133.655 88.934C134.279 88.598 134.783 88.094 135.167 87.422C135.551 86.75 135.743 85.934 135.743 84.974C135.743 84.014 135.559 83.206 135.191 82.55C134.823 81.878 134.335 81.374 133.727 81.038C133.119 80.702 132.463 80.534 131.759 80.534C131.055 80.534 130.399 80.702 129.791 81.038C129.199 81.374 128.727 81.878 128.375 82.55C128.023 83.206 127.847 84.014 127.847 84.974C127.847 86.398 128.207 87.502 128.927 88.286C129.663 89.054 130.583 89.438 131.687 89.438ZM143.991 80.318C144.455 79.71 145.087 79.198 145.887 78.782C146.687 78.366 147.591 78.158 148.599 78.158C149.751 78.158 150.799 78.446 151.743 79.022C152.703 79.582 153.455 80.374 153.999 81.398C154.543 82.422 154.815 83.598 154.815 84.926C154.815 86.254 154.543 87.446 153.999 88.502C153.455 89.542 152.703 90.358 151.743 90.95C150.799 91.526 149.751 91.814 148.599 91.814C147.591 91.814 146.695 91.614 145.911 91.214C145.127 90.798 144.487 90.286 143.991 89.678V97.886H141.255V78.374H143.991V80.318ZM152.031 84.926C152.031 84.014 151.839 83.23 151.455 82.574C151.087 81.902 150.591 81.398 149.967 81.062C149.359 80.71 148.703 80.534 147.999 80.534C147.311 80.534 146.655 80.71 146.031 81.062C145.423 81.414 144.927 81.926 144.543 82.598C144.175 83.27 143.991 84.062 143.991 84.974C143.991 85.886 144.175 86.686 144.543 87.374C144.927 88.046 145.423 88.558 146.031 88.91C146.655 89.262 147.311 89.438 147.999 89.438C148.703 89.438 149.359 89.262 149.967 88.91C150.591 88.542 151.087 88.014 151.455 87.326C151.839 86.638 152.031 85.838 152.031 84.926ZM173.529 78.158C174.569 78.158 175.497 78.374 176.313 78.806C177.145 79.238 177.793 79.878 178.257 80.726C178.737 81.574 178.977 82.598 178.977 83.798V91.598H176.265V84.206C176.265 83.022 175.969 82.118 175.377 81.494C174.785 80.854 173.977 80.534 172.953 80.534C171.929 80.534 171.113 80.854 170.505 81.494C169.913 82.118 169.617 83.022 169.617 84.206V91.598H166.905V84.206C166.905 83.022 166.609 82.118 166.017 81.494C165.425 80.854 164.617 80.534 163.593 80.534C162.569 80.534 161.753 80.854 161.145 81.494C160.553 82.118 160.257 83.022 160.257 84.206V91.598H157.521V78.374H160.257V79.886C160.705 79.342 161.273 78.918 161.961 78.614C162.649 78.31 163.385 78.158 164.169 78.158C165.225 78.158 166.169 78.382 167.001 78.83C167.833 79.278 168.473 79.926 168.921 80.774C169.321 79.974 169.945 79.342 170.793 78.878C171.641 78.398 172.553 78.158 173.529 78.158ZM194.578 84.662C194.578 85.158 194.546 85.606 194.482 86.006H184.378C184.458 87.062 184.85 87.91 185.554 88.55C186.258 89.19 187.122 89.51 188.146 89.51C189.618 89.51 190.658 88.894 191.266 87.662H194.218C193.818 88.878 193.09 89.878 192.034 90.662C190.994 91.43 189.698 91.814 188.146 91.814C186.882 91.814 185.746 91.534 184.738 90.974C183.746 90.398 182.962 89.598 182.386 88.574C181.826 87.534 181.546 86.334 181.546 84.974C181.546 83.614 181.818 82.422 182.362 81.398C182.922 80.358 183.698 79.558 184.69 78.998C185.698 78.438 186.85 78.158 188.146 78.158C189.394 78.158 190.506 78.43 191.482 78.974C192.458 79.518 193.218 80.286 193.762 81.278C194.306 82.254 194.578 83.382 194.578 84.662ZM191.722 83.798C191.706 82.79 191.346 81.982 190.642 81.374C189.938 80.766 189.066 80.462 188.026 80.462C187.082 80.462 186.274 80.766 185.602 81.374C184.93 81.966 184.53 82.774 184.402 83.798H191.722ZM203.943 78.158C204.983 78.158 205.911 78.374 206.727 78.806C207.559 79.238 208.207 79.878 208.671 80.726C209.135 81.574 209.367 82.598 209.367 83.798V91.598H206.655V84.206C206.655 83.022 206.359 82.118 205.767 81.494C205.175 80.854 204.367 80.534 203.343 80.534C202.319 80.534 201.503 80.854 200.895 81.494C200.303 82.118 200.007 83.022 200.007 84.206V91.598H197.271V78.374H200.007V79.886C200.455 79.342 201.023 78.918 201.711 78.614C202.415 78.31 203.159 78.158 203.943 78.158ZM216.049 80.606V87.926C216.049 88.422 216.161 88.782 216.385 89.006C216.625 89.214 217.025 89.318 217.585 89.318H219.265V91.598H217.105C215.873 91.598 214.929 91.31 214.273 90.734C213.617 90.158 213.289 89.222 213.289 87.926V80.606H211.729V78.374H213.289V75.086H216.049V78.374H219.265V80.606H216.049Z" fill="#D8D8D8"/>
</svg>
