<svg width="285" height="272" viewBox="0 0 285 272" fill="none" xmlns="http://www.w3.org/2000/svg">
<rect x="0.119141" y="0.741211" width="284.136" height="270.902" rx="36" fill="#292929" fill-opacity="0.63"/>
<path fill-rule="evenodd" clip-rule="evenodd" d="M158 179.676C158 179.676 163.178 182.479 166.489 186.196C169.799 189.911 178.829 221.457 178.427 231.429C178.026 241.4 167.799 239.791 167.799 239.791C167.799 239.791 155.153 224.539 155.153 216.2C155.153 207.861 158 179.676 158 179.676Z" fill="#212850"/>
<path fill-rule="evenodd" clip-rule="evenodd" d="M157.999 179.676C157.999 179.676 163.178 182.479 166.488 186.196C166.869 186.623 167.326 187.422 167.834 188.509C166.854 189.585 165.89 191.604 165.89 195.381C165.89 203.062 171.005 231.209 171.005 231.209C171.005 231.209 167.827 233.324 164.376 235.33C162.131 232.238 159.264 227.952 157.326 223.832C158.203 214.856 159.117 204.266 159.117 199.8C159.117 194.882 158.415 186.684 157.886 180.815L157.999 179.676Z" fill="#050A26"/>
<path fill-rule="evenodd" clip-rule="evenodd" d="M97.1014 185.742C95.5244 197.519 95.127 225.782 95.127 225.782C95.127 225.782 100.71 249.445 100.71 260.743C100.71 264.552 100.988 268.266 101.448 271.643H124.205C130.613 268.891 138.833 266.841 149.107 266.841H168.773C168.773 266.841 171.674 264.922 171.902 261.546C172.131 258.171 165.497 238.637 165.345 235.055C164.773 221.598 166.75 206.025 164.035 193.108C161.682 181.897 150.763 176.779 138.086 175.314C133.076 175.209 125.854 175.264 118.563 176.028C118.379 176.065 106.082 178.512 97.1014 185.742Z" fill="#E62952"/>
<path fill-rule="evenodd" clip-rule="evenodd" d="M139.146 201.166C140.432 201.166 141.704 201.278 142.946 201.492C144.214 201.708 145.438 202.03 146.602 202.445C147.315 202.696 147.668 203.424 147.389 204.068C147.289 204.301 147.12 204.492 146.911 204.627C145.966 205.25 145.187 206.07 144.652 207.02C144.137 207.933 143.847 208.969 143.847 210.067C143.847 211.923 144.679 213.602 146.024 214.819C147.37 216.034 149.229 216.787 151.282 216.787C152.314 216.787 153.289 216.602 154.165 216.268C155.085 215.918 155.911 215.405 156.599 214.769C157.133 214.273 158.011 214.263 158.56 214.745C158.757 214.919 158.885 215.132 158.943 215.359C159.12 216.036 159.253 216.727 159.342 217.432C159.431 218.132 159.477 218.836 159.477 219.539C159.477 224.611 157.2 229.204 153.522 232.529C149.843 235.853 144.76 237.909 139.146 237.909C133.532 237.909 128.449 235.852 124.77 232.529C121.091 229.204 118.815 224.611 118.815 219.539C118.815 214.465 121.091 209.872 124.77 206.549C128.448 203.224 133.532 201.166 139.146 201.166ZM142.435 203.954C141.382 203.774 140.282 203.68 139.146 203.68C134.299 203.68 129.911 205.454 126.736 208.325C123.56 211.194 121.595 215.159 121.595 219.538C121.595 223.917 123.56 227.882 126.736 230.752C129.911 233.622 134.299 235.396 139.146 235.396C143.993 235.396 148.381 233.622 151.556 230.752C154.732 227.883 156.696 223.917 156.696 219.538C156.696 218.991 156.667 218.457 156.611 217.939C156.175 218.181 155.717 218.393 155.241 218.574C154.015 219.041 152.677 219.298 151.282 219.298C148.462 219.298 145.907 218.265 144.058 216.595C142.21 214.924 141.065 212.615 141.065 210.067C141.065 208.561 141.466 207.14 142.175 205.881C142.524 205.262 142.949 204.683 143.438 204.155C143.107 204.079 142.773 204.012 142.435 203.954Z" fill="#050A26"/>
<path fill-rule="evenodd" clip-rule="evenodd" d="M140.82 202.489C141.538 202.546 142.243 202.639 142.935 202.766L120.584 222.963C120.443 222.337 120.341 221.698 120.279 221.05L140.82 202.489ZM145.224 203.324L121.201 225.03C121.401 225.566 121.63 226.089 121.886 226.6L142.872 207.637C143.45 206.003 144.594 204.6 146.096 203.613C145.809 203.511 145.518 203.413 145.224 203.324ZM142.476 210.619L122.886 228.321C123.187 228.773 123.509 229.212 123.853 229.636L142.86 212.461C142.657 211.874 142.526 211.257 142.476 210.619ZM143.774 214.261L125.16 231.08C125.546 231.462 125.95 231.826 126.371 232.174L144.822 215.502C144.431 215.121 144.079 214.705 143.774 214.261ZM146.394 216.707L127.969 233.355C128.438 233.666 128.924 233.958 129.425 234.229L147.978 217.464C147.419 217.26 146.889 217.006 146.394 216.707ZM150.299 217.992L131.33 235.132C131.895 235.364 132.474 235.57 133.067 235.752L152.795 217.925C152.304 218.002 151.798 218.042 151.282 218.042C150.95 218.043 150.622 218.025 150.299 217.992ZM157.706 216.114L135.354 236.31C136.047 236.437 136.754 236.529 137.472 236.586L158.012 218.024C157.95 217.377 157.847 216.739 157.706 216.114ZM158.047 220.619L140.341 236.618C141.298 236.563 142.237 236.446 143.15 236.268L157.66 223.156C157.857 222.331 157.987 221.483 158.047 220.619ZM156.079 227.211C154.249 230.501 151.279 233.185 147.636 234.839L156.079 227.211ZM120.243 218.457L137.949 202.458C136.991 202.513 136.053 202.631 135.14 202.807L120.631 215.921C120.433 216.744 120.303 217.592 120.243 218.457ZM122.211 211.864L130.654 204.237C127.011 205.89 124.041 208.575 122.211 211.864Z" fill="#050A26"/>
<path fill-rule="evenodd" clip-rule="evenodd" d="M97.1014 185.742C95.5244 197.519 95.127 225.782 95.127 225.782C95.127 225.782 100.71 249.445 100.71 260.743C100.71 264.552 100.988 268.266 101.448 271.643H124.205C130.613 268.891 138.833 266.841 149.107 266.841H150.461C148.253 265.177 125.703 268.069 121.877 267.078C109.651 263.911 114.297 203.699 115.934 193.342C117.138 185.727 129.929 180.016 129.929 180.016L127.242 175.412C124.455 175.526 121.515 175.719 118.563 176.028C118.379 176.065 106.082 178.512 97.1014 185.742Z" fill="#BD1449"/>
<path fill-rule="evenodd" clip-rule="evenodd" d="M97.0987 185.743C96.6726 188.933 96.3324 193.328 96.0635 198.044C102.269 200.235 106.722 201.613 106.722 201.613C107.248 184.579 119.467 181.811 119.467 181.811L123.341 177.778C123.341 177.778 136.493 177.311 148.883 181.105C161.051 184.832 164.493 195.95 164.612 196.344C163.751 190.592 162.128 185.261 159.156 180.735C157.61 178.379 149.417 176.492 144.774 175.592C144.774 175.592 131.778 174.643 118.553 176.031C118.11 176.119 105.981 178.592 97.0987 185.743Z" fill="#050A26"/>
<path fill-rule="evenodd" clip-rule="evenodd" d="M118.569 176.027V177.126C118.569 184.826 125.525 191.11 134.046 191.11C142.569 191.11 149.523 184.826 149.523 177.126V176.641C147.637 176.211 145.875 175.847 144.491 175.574C142.545 175.447 130.657 174.761 118.569 176.027Z" fill="#212850"/>
<path fill-rule="evenodd" clip-rule="evenodd" d="M118.569 176.027V177.126C118.569 180.162 119.652 182.978 121.484 185.276C125.404 182.036 129.929 180.017 129.929 180.017L127.242 175.413C124.457 175.527 121.519 175.719 118.569 176.027Z" fill="#050A26"/>
<path fill-rule="evenodd" clip-rule="evenodd" d="M134.046 154.608C139.947 154.608 144.775 158.971 144.775 164.302V177.125C144.775 182.457 139.947 186.818 134.047 186.818C128.146 186.818 123.318 182.456 123.318 177.125V164.302C123.318 158.971 128.145 154.608 134.046 154.608Z" fill="#EB6B5D"/>
<path fill-rule="evenodd" clip-rule="evenodd" d="M88.1956 199.605C88.0828 200.466 87.9739 201.369 87.8723 202.307L87.8717 202.315C86.3756 216.068 86.0837 237.351 89.0411 242.759C93.1539 250.283 121.876 269.36 121.876 269.36C121.876 269.36 129.47 267.688 130.172 265.24C130.874 262.793 130.072 260.436 130.072 260.436C130.072 260.436 108.203 244.03 105.795 237.14C105.795 237.14 104.791 235.145 105.392 228.981C105.994 222.817 107.299 197.345 107.198 193.538C107.128 190.879 106.519 184.244 103.938 181.323C96.9917 184.957 89.8445 190.759 88.1956 199.605Z" fill="#212850"/>
<path fill-rule="evenodd" clip-rule="evenodd" d="M87.3262 235.454C87.6916 238.728 88.2497 241.313 89.0418 242.759C93.1546 250.283 121.877 269.36 121.877 269.36C121.877 269.36 129.47 267.688 130.173 265.24C130.875 262.793 130.072 260.436 130.072 260.436C130.072 260.436 127.845 258.765 124.736 256.267C124.322 258.327 123.757 260.577 123.154 261.327C121.949 262.822 118.891 264.728 111.918 259.627C105.173 254.694 88.7914 244.702 87.3262 235.454ZM108.305 241.105H108.304C103.864 236.371 102.989 232.909 102.538 230.325C102.087 227.741 104.044 201.364 104.044 191.301C104.044 187.369 103.147 184.455 102.055 182.363C102.682 181.998 103.311 181.652 103.939 181.323C106.52 184.244 107.13 190.879 107.2 193.538C107.3 197.345 105.995 222.817 105.394 228.981C104.792 235.145 105.796 237.14 105.796 237.14C106.184 238.251 107.079 239.609 108.305 241.105Z" fill="#050A26"/>
<path fill-rule="evenodd" clip-rule="evenodd" d="M176.853 271.644H102.557C101.167 271.644 100.03 270.617 100.03 269.361V269.36C100.03 268.105 101.167 267.078 102.557 267.078H176.853C178.242 267.078 179.379 268.105 179.379 269.36V269.361C179.379 270.617 178.242 271.644 176.853 271.644Z" fill="#D5CCE4"/>
<path fill-rule="evenodd" clip-rule="evenodd" d="M176.852 271.644H102.556C101.655 271.644 100.861 271.213 100.414 270.567C100.861 269.922 101.656 269.491 102.556 269.491H176.852C177.752 269.491 178.546 269.923 178.993 270.567C178.546 271.213 177.752 271.644 176.852 271.644Z" fill="#A79CCB"/>
<path fill-rule="evenodd" clip-rule="evenodd" d="M178.817 267.078H115.192C113.374 267.078 112.07 265.734 112.293 264.091L117.366 226.853C117.589 225.212 119.259 223.867 121.078 223.867H184.702C186.52 223.867 187.823 225.211 187.6 226.853L182.528 264.091C182.305 265.734 180.634 267.078 178.817 267.078Z" fill="#EAE5F1"/>
<path fill-rule="evenodd" clip-rule="evenodd" d="M178.817 267.078H117.069C115.252 267.078 113.948 265.734 114.172 264.091L119.243 226.853C119.467 225.212 121.137 223.867 122.955 223.867H184.702C186.52 223.867 187.824 225.211 187.601 226.853L182.529 264.091C182.305 265.734 180.635 267.078 178.817 267.078Z" fill="white"/>
<path fill-rule="evenodd" clip-rule="evenodd" d="M171.522 263.587H166.195L124.146 231.694L124.396 229.863C124.47 229.315 124.737 228.808 125.125 228.395L171.522 263.587ZM131.175 227.358L177.043 262.149C177.258 261.825 177.402 261.463 177.454 261.083L178.115 256.228L140.054 227.358H131.175Z" fill="#F4F1F8"/>
<path fill-rule="evenodd" clip-rule="evenodd" d="M111.762 271.644H102.556C101.167 271.644 100.03 270.617 100.03 269.361V269.36C100.03 268.105 101.167 267.078 102.556 267.078H111.762C113.152 267.078 114.289 268.105 114.289 269.36V269.361C114.289 270.617 113.152 271.644 111.762 271.644Z" fill="#E9E1EF"/>
<path fill-rule="evenodd" clip-rule="evenodd" d="M178.116 268.22H111.923C111.228 268.22 110.66 267.706 110.66 267.078C110.66 266.451 111.229 265.937 111.923 265.937H178.116C178.811 265.937 179.379 266.451 179.379 267.078C179.379 267.706 178.811 268.22 178.116 268.22Z" fill="#EAE5F1"/>
<path fill-rule="evenodd" clip-rule="evenodd" d="M152.563 239.733C149.056 239.733 145.798 242.303 145.287 245.473C144.777 248.643 147.207 251.212 150.716 251.212C154.223 251.212 157.481 248.643 157.991 245.473C158.071 244.977 158.078 244.497 158.022 244.038C157.365 244.575 156.509 244.91 155.619 244.91C153.887 244.91 152.687 243.64 152.939 242.075C153.073 241.237 153.597 240.485 154.319 239.966C153.775 239.815 153.186 239.733 152.563 239.733Z" fill="#A79CCB"/>
<path fill-rule="evenodd" clip-rule="evenodd" d="M113.939 146.102C113.785 146.112 113.633 146.128 113.482 146.149L113.478 146.15H113.479C110.695 146.535 108.473 148.615 108.259 151.261C108.011 154.337 110.569 157.013 113.972 157.238C117.375 157.462 120.337 155.152 120.585 152.076C120.731 150.289 119.928 148.637 118.562 147.522C118.619 149.176 118.208 151.199 115.871 151.289L116.131 148.078C116.236 146.778 114.929 146.114 113.939 146.102Z" fill="#E8685B"/>
<path fill-rule="evenodd" clip-rule="evenodd" d="M158.474 148.279C158.626 148.305 158.775 148.335 158.922 148.371L158.927 148.372C161.647 149.028 163.606 151.312 163.505 153.963C163.385 157.044 160.522 159.455 157.112 159.347C153.701 159.238 151.033 156.652 151.152 153.571C151.221 151.78 152.217 150.216 153.709 149.241C153.453 150.879 153.621 152.93 155.934 153.248L156.059 150.03C156.109 148.728 157.488 148.195 158.474 148.279Z" fill="#E8685B"/>
<path fill-rule="evenodd" clip-rule="evenodd" d="M137.875 119.339C126.255 118.77 116.233 126.896 115.604 137.395L114.564 154.758C113.935 165.257 122.929 174.312 134.549 174.881C146.166 175.449 156.188 167.323 156.817 156.824L157.857 139.461C158.485 128.962 149.492 119.906 137.875 119.339Z" fill="#F4AD85"/>
<path fill-rule="evenodd" clip-rule="evenodd" d="M137.875 119.339C126.255 118.77 116.233 126.896 115.604 137.395L114.564 154.758C114.384 157.763 114.994 160.65 116.227 163.254C117.178 163.121 117.75 163.028 117.75 163.028C117.75 163.028 120.273 146.274 121.629 141.719C122.985 137.163 126.223 137.199 126.223 137.199C126.223 137.199 145.518 138.49 149.856 139.275C154.195 140.059 154.503 142.625 154.503 142.625L157.707 141.961L157.857 139.461C158.485 128.962 149.492 119.906 137.875 119.339Z" fill="#EF8871"/>
<path fill-rule="evenodd" clip-rule="evenodd" d="M129.939 160.716C129.657 163.436 131.869 165.848 134.88 166.102C137.89 166.357 140.56 164.358 140.842 161.638L140.833 161.637C140.881 161.169 140.498 160.752 139.98 160.707L130.978 159.945C130.461 159.901 129.997 160.248 129.948 160.716L129.939 160.716Z" fill="white"/>
<path fill-rule="evenodd" clip-rule="evenodd" d="M131.573 164.722C132.437 165.484 133.584 165.993 134.88 166.103C135.938 166.193 136.954 166.003 137.839 165.604C137.525 164.557 136.379 163.697 134.91 163.523C133.508 163.355 132.212 163.861 131.573 164.722Z" fill="white"/>
<path fill-rule="evenodd" clip-rule="evenodd" d="M140.099 160.725L131.639 160.01C131.417 160.844 131.762 161.734 132.371 161.974C133.114 162.265 139.251 162.638 139.729 162.239C139.961 162.046 140.06 161.372 140.099 160.725Z" fill="white"/>
<path fill-rule="evenodd" clip-rule="evenodd" d="M147.635 157.322C146.103 157.221 144.769 158.262 144.657 159.646C144.545 161.03 145.697 162.236 147.229 162.337C148.761 162.438 150.095 161.398 150.208 160.013C150.319 158.628 149.167 157.423 147.635 157.322Z" fill="#E8685B"/>
<path fill-rule="evenodd" clip-rule="evenodd" d="M123.763 155.744C122.231 155.643 120.898 156.683 120.785 158.067C120.673 159.452 121.825 160.657 123.358 160.759C124.89 160.86 126.224 159.819 126.336 158.434C126.448 157.05 125.296 155.845 123.763 155.744Z" fill="#E8685B"/>
<path fill-rule="evenodd" clip-rule="evenodd" d="M122.809 145.052C122.429 145.202 121.986 145.044 121.821 144.701C121.656 144.357 121.831 143.958 122.208 143.809C124.253 142.98 126.917 143.002 128.804 144.156C129.146 144.364 129.238 144.788 129.007 145.098C128.776 145.407 128.306 145.49 127.964 145.28C126.436 144.348 124.449 144.441 122.809 145.052Z" fill="#050A26"/>
<path fill-rule="evenodd" clip-rule="evenodd" d="M149.782 146.373C148.221 145.603 146.257 145.317 144.627 146.095C144.261 146.27 143.804 146.141 143.611 145.812C143.419 145.482 143.56 145.069 143.926 144.894C145.939 143.933 148.591 144.17 150.522 145.193C150.882 145.378 151.008 145.793 150.803 146.118C150.597 146.443 150.139 146.557 149.782 146.373Z" fill="#050A26"/>
<path fill-rule="evenodd" clip-rule="evenodd" d="M148.355 153.017C148.383 152.547 148.205 152.09 147.857 151.74C147.509 151.39 147.026 151.18 146.505 151.155C145.985 151.129 145.479 151.291 145.091 151.605C144.704 151.919 144.472 152.356 144.444 152.826C144.421 153.201 144.066 153.489 143.651 153.469C143.236 153.449 142.917 153.128 142.94 152.753C142.99 151.921 143.4 151.148 144.085 150.592C144.771 150.036 145.667 149.752 146.586 149.797C147.506 149.841 148.363 150.212 148.978 150.831C149.593 151.45 149.909 152.26 149.859 153.091C149.836 153.466 149.481 153.755 149.066 153.735C148.651 153.713 148.332 153.392 148.355 153.017Z" fill="#050A26"/>
<path fill-rule="evenodd" clip-rule="evenodd" d="M127.341 151.99C127.369 151.52 127.191 151.063 126.843 150.712C126.496 150.362 126.011 150.153 125.491 150.127C124.972 150.102 124.466 150.263 124.078 150.577C123.69 150.891 123.458 151.329 123.429 151.799C123.407 152.174 123.052 152.462 122.637 152.441C122.222 152.422 121.903 152.1 121.926 151.725C121.976 150.894 122.386 150.12 123.072 149.564C123.757 149.008 124.653 148.724 125.573 148.769C126.492 148.813 127.349 149.184 127.964 149.803C128.58 150.423 128.895 151.232 128.845 152.064C128.823 152.439 128.467 152.726 128.052 152.706C127.638 152.686 127.319 152.365 127.341 151.99Z" fill="#050A26"/>
<path fill-rule="evenodd" clip-rule="evenodd" d="M114.756 151.551C114.756 151.551 117.984 150.544 118.276 145.66C118.569 140.777 118.497 141.979 118.649 139.432C118.801 136.884 121.026 132.521 126.744 132.801C132.462 133.081 137.039 133.304 137.039 133.304C137.039 133.304 141.615 133.528 147.332 133.808C153.05 134.088 154.741 138.641 154.589 141.19C154.436 143.737 154.508 142.534 154.215 147.418C153.923 152.301 157.012 153.618 157.012 153.618C157.243 149.745 158.641 148.286 158.641 148.286C158.641 148.286 158.951 143.105 159.222 138.576C159.494 134.047 158.449 127.891 152.119 123.394C145.79 118.897 137.92 118.584 137.92 118.584C137.92 118.584 130.058 118.128 123.229 121.981C116.399 125.835 114.626 131.852 114.354 136.382C114.082 140.911 113.772 146.092 113.772 146.092C113.772 146.092 114.987 147.678 114.756 151.551Z" fill="#050A26"/>
<path fill-rule="evenodd" clip-rule="evenodd" d="M126.744 132.801C126.744 132.801 137.165 141.387 150.908 134.725C150.908 134.725 156.687 130.971 158.84 133.302C158.84 133.302 162.099 122.89 152.251 121.069C152.251 121.069 154.348 119.893 154.095 118.603C153.843 117.313 150.293 113.701 140.604 116.453C140.604 116.453 140.609 113.217 137.35 112.547C134.091 111.876 123.849 115.981 121.985 122.743C121.985 122.743 120.416 127.731 126.744 132.801Z" fill="#212850"/>
<path fill-rule="evenodd" clip-rule="evenodd" d="M158.65 125.709C158.384 125.073 158.026 124.457 157.553 123.889C154.206 125.659 147.822 128.38 141.437 127.532C135.333 126.72 133.255 118.689 132.547 113.313C129.84 114.272 126.742 116.019 124.55 118.378C125.559 123.119 128.463 130.075 136.809 132.083C145.617 134.202 154.087 129.183 158.65 125.709Z" fill="#3A2084"/>
<path fill-rule="evenodd" clip-rule="evenodd" d="M113.768 146.164C113.768 146.164 113.182 155.945 112.902 160.616C112.622 165.287 120.324 173.102 125.705 175.068C131.086 177.035 132.999 177.022 134.415 177.092C135.831 177.16 137.732 177.36 143.316 175.93C148.901 174.499 157.491 167.481 157.771 162.81C158.05 158.139 158.636 148.358 158.636 148.358L155.809 146.665C155.65 149.316 155.567 155.227 155.148 158.578C154.716 162.032 151.806 162.211 148.003 162.936C145.289 163.452 142.917 170.058 140.762 169.952C138.606 169.847 137.322 169.034 136.734 168.778C136.147 168.523 134.932 168.457 134.932 168.457C134.932 168.457 133.717 168.404 133.103 168.6C132.488 168.798 131.114 169.48 128.959 169.375C126.803 169.269 125.234 162.472 122.598 161.693C118.904 160.602 116.032 160.14 116.015 156.663C115.999 153.293 116.622 147.407 116.781 144.756L113.768 146.164Z" fill="#050A26"/>
<path fill-rule="evenodd" clip-rule="evenodd" d="M126.712 146.56C126.71 146.56 126.708 146.56 126.705 146.56L120.272 146.274C119.604 146.245 118.985 146.498 118.571 146.973C118.157 147.445 118.026 148.051 118.211 148.63L120.505 155.781C120.749 156.544 121.488 157.071 122.365 157.109L129.894 157.443C130.77 157.483 131.563 157.023 131.889 156.287L134.948 149.373C134.976 149.309 135 149.244 135.02 149.179C135.168 148.882 135.505 148.35 136.005 148.371L136.247 148.382C136.817 148.408 137.097 149.133 137.178 149.386C137.185 149.415 137.193 149.442 137.202 149.47L137.203 149.472L137.204 149.473L139.496 156.624C139.741 157.386 140.48 157.914 141.357 157.952L148.885 158.287C149.763 158.326 150.554 157.867 150.88 157.13L153.939 150.216C154.186 149.657 154.121 149.042 153.762 148.536C153.401 148.027 152.813 147.72 152.145 147.69L145.712 147.404C145.709 147.404 145.707 147.404 145.705 147.404C145.703 147.404 145.7 147.404 145.698 147.404L141.246 147.206L133.154 146.846L131.066 146.754L126.72 146.561C126.717 146.561 126.714 146.56 126.712 146.56ZM145.646 148.439C145.649 148.439 145.651 148.44 145.653 148.44L152.086 148.726C152.384 148.739 152.634 148.869 152.795 149.096C152.955 149.322 152.983 149.581 152.872 149.831L149.813 156.744C149.669 157.07 149.328 157.268 148.94 157.251L141.412 156.916C141.024 156.899 140.706 156.672 140.598 156.335L138.304 149.183C138.222 148.925 138.277 148.669 138.462 148.459C138.646 148.248 138.908 148.14 139.206 148.153L145.64 148.439C145.642 148.439 145.644 148.439 145.646 148.439ZM126.655 147.596C126.658 147.596 126.66 147.596 126.662 147.597L133.095 147.882C133.392 147.895 133.643 148.025 133.803 148.253C133.964 148.479 133.992 148.739 133.881 148.988L130.822 155.902C130.678 156.228 130.336 156.425 129.949 156.408L122.421 156.073C122.033 156.056 121.714 155.829 121.607 155.492L119.313 148.341C119.23 148.082 119.286 147.827 119.47 147.616C119.655 147.404 119.917 147.297 120.214 147.311L126.648 147.596C126.651 147.596 126.653 147.596 126.655 147.596Z" fill="#050A26"/>
<path d="M113.771 145.949L113.709 146.99L122.015 147.396L122.078 146.355L113.771 145.949Z" fill="#050A26"/>
<path d="M150.344 147.613L150.282 148.653L158.588 149.058L158.65 148.018L150.344 147.613Z" fill="#050A26"/>
<path fill-rule="evenodd" clip-rule="evenodd" d="M136.462 155.111C136.462 155.111 137.641 157.421 137.776 158.132C137.912 158.844 137.151 159.237 135.556 159.009C133.961 158.779 135.374 153.702 136.462 155.111Z" fill="#F8CAB0"/>
<path fill-rule="evenodd" clip-rule="evenodd" d="M61.2808 138.648H97.5939C100.231 138.648 102.389 140.598 102.389 142.982V160.852V162.173V173.549C102.389 173.749 102.263 173.92 102.059 173.997C101.854 174.073 101.631 174.033 101.475 173.891L93.3031 166.508H61.2808C58.6428 166.508 56.4854 164.558 56.4854 162.173V142.982C56.4854 140.598 58.6434 138.648 61.2808 138.648Z" fill="#E74D91"/>
<path fill-rule="evenodd" clip-rule="evenodd" d="M88.7651 160.172C93.5247 160.172 97.4067 156.664 97.4067 152.363C97.4067 148.062 93.5247 144.555 88.7651 144.555C84.0056 144.555 80.124 148.062 80.124 152.363C80.124 156.664 84.0056 160.172 88.7651 160.172Z" fill="white"/>
<path fill-rule="evenodd" clip-rule="evenodd" d="M84.2949 157.482C85.5233 158.36 87.0761 158.883 88.7642 158.883C90.4518 158.883 92.0041 158.36 93.233 157.482C93.1549 155.32 91.1743 153.574 88.7642 153.574C86.3536 153.574 84.373 155.32 84.2949 157.482ZM88.7642 146.807C86.9908 146.807 85.5536 148.107 85.5536 149.708C85.5536 151.311 86.9908 152.61 88.7642 152.61C90.5371 152.61 91.9749 151.311 91.9749 149.708C91.9749 148.107 90.5371 146.807 88.7642 146.807Z" fill="#A79CCB"/>
<path fill-rule="evenodd" clip-rule="evenodd" d="M75.1799 147.919H61.818C61.3245 147.919 60.9209 148.284 60.9209 148.731C60.9209 149.177 61.324 149.541 61.818 149.541H75.1799C75.6739 149.541 76.077 149.177 76.077 148.731C76.0765 148.284 75.6734 147.919 75.1799 147.919Z" fill="white"/>
<path fill-rule="evenodd" clip-rule="evenodd" d="M75.1787 151.487H65.7584C65.2639 151.487 64.8613 151.851 64.8613 152.298C64.8613 152.744 65.2639 153.108 65.7584 153.108H75.1787C75.6728 153.108 76.0759 152.744 76.0759 152.298C76.0753 151.851 75.6728 151.487 75.1787 151.487Z" fill="white"/>
<path fill-rule="evenodd" clip-rule="evenodd" d="M62.5592 151.487H61.1833C60.6887 151.487 60.2861 151.851 60.2861 152.298C60.2861 152.744 60.6887 153.108 61.1833 153.108H62.5592C63.0533 153.108 63.4558 152.744 63.4558 152.298C63.4558 151.851 63.0533 151.487 62.5592 151.487Z" fill="white"/>
<path fill-rule="evenodd" clip-rule="evenodd" d="M75.1797 155.185H67.9528C67.4593 155.185 67.0557 155.549 67.0557 155.995C67.0557 156.442 67.4593 156.806 67.9528 156.806H75.1797C75.6737 156.806 76.0768 156.442 76.0768 155.995C76.0762 155.549 75.6737 155.185 75.1797 155.185Z" fill="white"/>
<path d="M96.211 37.4676V39.6996H89.131V44.6196H94.651V46.8516H89.131V54.1476H86.395V37.4676H96.211ZM101.483 42.8436C101.883 42.1716 102.411 41.6516 103.067 41.2836C103.739 40.8996 104.531 40.7076 105.443 40.7076V43.5396H104.747C103.675 43.5396 102.859 43.8116 102.299 44.3556C101.755 44.8996 101.483 45.8436 101.483 47.1876V54.1476H98.7466V40.9236H101.483V42.8436ZM113.694 54.3636C112.446 54.3636 111.318 54.0836 110.31 53.5236C109.302 52.9476 108.51 52.1476 107.934 51.1236C107.358 50.0836 107.07 48.8836 107.07 47.5236C107.07 46.1796 107.366 44.9876 107.958 43.9476C108.55 42.9076 109.358 42.1076 110.382 41.5476C111.406 40.9876 112.55 40.7076 113.814 40.7076C115.078 40.7076 116.222 40.9876 117.246 41.5476C118.27 42.1076 119.078 42.9076 119.67 43.9476C120.262 44.9876 120.558 46.1796 120.558 47.5236C120.558 48.8676 120.254 50.0596 119.646 51.0996C119.038 52.1396 118.206 52.9476 117.15 53.5236C116.11 54.0836 114.958 54.3636 113.694 54.3636ZM113.694 51.9876C114.398 51.9876 115.054 51.8196 115.662 51.4836C116.286 51.1476 116.79 50.6436 117.174 49.9716C117.558 49.2996 117.75 48.4836 117.75 47.5236C117.75 46.5636 117.566 45.7556 117.198 45.0996C116.83 44.4276 116.342 43.9236 115.734 43.5876C115.126 43.2516 114.47 43.0836 113.766 43.0836C113.062 43.0836 112.406 43.2516 111.798 43.5876C111.206 43.9236 110.734 44.4276 110.382 45.0996C110.03 45.7556 109.854 46.5636 109.854 47.5236C109.854 48.9476 110.214 50.0516 110.934 50.8356C111.67 51.6036 112.59 51.9876 113.694 51.9876ZM129.934 40.7076C130.974 40.7076 131.902 40.9236 132.718 41.3556C133.55 41.7876 134.198 42.4276 134.662 43.2756C135.126 44.1236 135.358 45.1476 135.358 46.3476V54.1476H132.646V46.7556C132.646 45.5716 132.35 44.6676 131.758 44.0436C131.166 43.4036 130.358 43.0836 129.334 43.0836C128.31 43.0836 127.494 43.4036 126.886 44.0436C126.294 44.6676 125.998 45.5716 125.998 46.7556V54.1476H123.262V40.9236H125.998V42.4356C126.446 41.8916 127.014 41.4676 127.702 41.1636C128.406 40.8596 129.15 40.7076 129.934 40.7076ZM142.04 43.1556V50.4756C142.04 50.9716 142.152 51.3316 142.376 51.5556C142.616 51.7636 143.016 51.8676 143.576 51.8676H145.256V54.1476H143.096C141.864 54.1476 140.92 53.8596 140.264 53.2836C139.608 52.7076 139.28 51.7716 139.28 50.4756V43.1556H137.72V40.9236H139.28V37.6356H142.04V40.9236H145.256V43.1556H142.04ZM157.93 44.3076V46.6116H148.066V44.3076H157.93ZM173.937 47.2116C173.937 47.7076 173.905 48.1556 173.841 48.5556H163.737C163.817 49.6116 164.209 50.4596 164.913 51.0996C165.617 51.7396 166.481 52.0596 167.505 52.0596C168.977 52.0596 170.017 51.4436 170.625 50.2116H173.577C173.177 51.4276 172.449 52.4276 171.393 53.2116C170.353 53.9796 169.057 54.3636 167.505 54.3636C166.241 54.3636 165.105 54.0836 164.097 53.5236C163.105 52.9476 162.321 52.1476 161.745 51.1236C161.185 50.0836 160.905 48.8836 160.905 47.5236C160.905 46.1636 161.177 44.9716 161.721 43.9476C162.281 42.9076 163.057 42.1076 164.049 41.5476C165.057 40.9876 166.209 40.7076 167.505 40.7076C168.753 40.7076 169.865 40.9796 170.841 41.5236C171.817 42.0676 172.577 42.8356 173.121 43.8276C173.665 44.8036 173.937 45.9316 173.937 47.2116ZM171.081 46.3476C171.065 45.3396 170.705 44.5316 170.001 43.9236C169.297 43.3156 168.425 43.0116 167.385 43.0116C166.441 43.0116 165.633 43.3156 164.961 43.9236C164.289 44.5156 163.889 45.3236 163.761 46.3476H171.081ZM183.301 40.7076C184.341 40.7076 185.269 40.9236 186.085 41.3556C186.917 41.7876 187.565 42.4276 188.029 43.2756C188.493 44.1236 188.725 45.1476 188.725 46.3476V54.1476H186.013V46.7556C186.013 45.5716 185.717 44.6676 185.125 44.0436C184.533 43.4036 183.725 43.0836 182.701 43.0836C181.677 43.0836 180.861 43.4036 180.253 44.0436C179.661 44.6676 179.365 45.5716 179.365 46.7556V54.1476H176.629V40.9236H179.365V42.4356C179.813 41.8916 180.381 41.4676 181.069 41.1636C181.773 40.8596 182.517 40.7076 183.301 40.7076ZM191.303 47.4756C191.303 46.1476 191.575 44.9716 192.119 43.9476C192.679 42.9236 193.431 42.1316 194.375 41.5716C195.335 40.9956 196.399 40.7076 197.567 40.7076C198.431 40.7076 199.279 40.8996 200.111 41.2836C200.959 41.6516 201.631 42.1476 202.127 42.7716V36.3876H204.887V54.1476H202.127V52.1556C201.679 52.7956 201.055 53.3236 200.255 53.7396C199.471 54.1556 198.567 54.3636 197.543 54.3636C196.391 54.3636 195.335 54.0756 194.375 53.4996C193.431 52.9076 192.679 52.0916 192.119 51.0516C191.575 49.9956 191.303 48.8036 191.303 47.4756ZM202.127 47.5236C202.127 46.6116 201.935 45.8196 201.551 45.1476C201.183 44.4756 200.695 43.9636 200.087 43.6116C199.479 43.2596 198.823 43.0836 198.119 43.0836C197.415 43.0836 196.759 43.2596 196.151 43.6116C195.543 43.9476 195.047 44.4516 194.663 45.1236C194.295 45.7796 194.111 46.5636 194.111 47.4756C194.111 48.3876 194.295 49.1876 194.663 49.8756C195.047 50.5636 195.543 51.0916 196.151 51.4596C196.775 51.8116 197.431 51.9876 198.119 51.9876C198.823 51.9876 199.479 51.8116 200.087 51.4596C200.695 51.1076 201.183 50.5956 201.551 49.9236C201.935 49.2356 202.127 48.4356 202.127 47.5236ZM71.5696 73.4676C73.3456 73.4676 74.8976 73.8116 76.2256 74.4996C77.5696 75.1716 78.6016 76.1476 79.3216 77.4276C80.0576 78.6916 80.4256 80.1716 80.4256 81.8676C80.4256 83.5636 80.0576 85.0356 79.3216 86.2836C78.6016 87.5316 77.5696 88.4916 76.2256 89.1636C74.8976 89.8196 73.3456 90.1476 71.5696 90.1476H66.1216V73.4676H71.5696ZM71.5696 87.9156C73.5216 87.9156 75.0176 87.3876 76.0576 86.3316C77.0976 85.2756 77.6176 83.7876 77.6176 81.8676C77.6176 79.9316 77.0976 78.4196 76.0576 77.3316C75.0176 76.2436 73.5216 75.6996 71.5696 75.6996H68.8576V87.9156H71.5696ZM95.2572 83.2116C95.2572 83.7076 95.2252 84.1556 95.1612 84.5556H85.0572C85.1372 85.6116 85.5292 86.4596 86.2332 87.0996C86.9372 87.7396 87.8012 88.0596 88.8252 88.0596C90.2972 88.0596 91.3372 87.4436 91.9452 86.2116H94.8972C94.4972 87.4276 93.7692 88.4276 92.7132 89.2116C91.6732 89.9796 90.3772 90.3636 88.8252 90.3636C87.5612 90.3636 86.4252 90.0836 85.4172 89.5236C84.4252 88.9476 83.6412 88.1476 83.0652 87.1236C82.5052 86.0836 82.2252 84.8836 82.2252 83.5236C82.2252 82.1636 82.4972 80.9716 83.0412 79.9476C83.6012 78.9076 84.3772 78.1076 85.3692 77.5476C86.3772 76.9876 87.5292 76.7076 88.8252 76.7076C90.0732 76.7076 91.1852 76.9796 92.1612 77.5236C93.1372 78.0676 93.8972 78.8356 94.4412 79.8276C94.9852 80.8036 95.2572 81.9316 95.2572 83.2116ZM92.4012 82.3476C92.3852 81.3396 92.0252 80.5316 91.3212 79.9236C90.6172 79.3156 89.7452 79.0116 88.7052 79.0116C87.7612 79.0116 86.9532 79.3156 86.2812 79.9236C85.6092 80.5156 85.2092 81.3236 85.0812 82.3476H92.4012ZM103.062 87.6996L106.806 76.9236H109.71L104.67 90.1476H101.406L96.3897 76.9236H99.3177L103.062 87.6996ZM123.898 83.2116C123.898 83.7076 123.866 84.1556 123.802 84.5556H113.698C113.778 85.6116 114.17 86.4596 114.874 87.0996C115.578 87.7396 116.442 88.0596 117.466 88.0596C118.938 88.0596 119.978 87.4436 120.586 86.2116H123.538C123.138 87.4276 122.41 88.4276 121.354 89.2116C120.314 89.9796 119.018 90.3636 117.466 90.3636C116.202 90.3636 115.066 90.0836 114.058 89.5236C113.066 88.9476 112.282 88.1476 111.706 87.1236C111.146 86.0836 110.866 84.8836 110.866 83.5236C110.866 82.1636 111.138 80.9716 111.682 79.9476C112.242 78.9076 113.018 78.1076 114.01 77.5476C115.018 76.9876 116.17 76.7076 117.466 76.7076C118.714 76.7076 119.826 76.9796 120.802 77.5236C121.778 78.0676 122.538 78.8356 123.082 79.8276C123.626 80.8036 123.898 81.9316 123.898 83.2116ZM121.042 82.3476C121.026 81.3396 120.666 80.5316 119.962 79.9236C119.258 79.3156 118.386 79.0116 117.346 79.0116C116.402 79.0116 115.594 79.3156 114.922 79.9236C114.25 80.5156 113.85 81.3236 113.722 82.3476H121.042ZM129.326 72.3876V90.1476H126.59V72.3876H129.326ZM138.654 90.3636C137.406 90.3636 136.278 90.0836 135.27 89.5236C134.262 88.9476 133.47 88.1476 132.894 87.1236C132.318 86.0836 132.03 84.8836 132.03 83.5236C132.03 82.1796 132.326 80.9876 132.918 79.9476C133.51 78.9076 134.318 78.1076 135.342 77.5476C136.366 76.9876 137.51 76.7076 138.774 76.7076C140.038 76.7076 141.182 76.9876 142.206 77.5476C143.23 78.1076 144.038 78.9076 144.63 79.9476C145.222 80.9876 145.518 82.1796 145.518 83.5236C145.518 84.8676 145.214 86.0596 144.606 87.0996C143.998 88.1396 143.166 88.9476 142.11 89.5236C141.07 90.0836 139.918 90.3636 138.654 90.3636ZM138.654 87.9876C139.358 87.9876 140.014 87.8196 140.622 87.4836C141.246 87.1476 141.75 86.6436 142.134 85.9716C142.518 85.2996 142.71 84.4836 142.71 83.5236C142.71 82.5636 142.526 81.7556 142.158 81.0996C141.79 80.4276 141.302 79.9236 140.694 79.5876C140.086 79.2516 139.43 79.0836 138.726 79.0836C138.022 79.0836 137.366 79.2516 136.758 79.5876C136.166 79.9236 135.694 80.4276 135.342 81.0996C134.99 81.7556 134.814 82.5636 134.814 83.5236C134.814 84.9476 135.174 86.0516 135.894 86.8356C136.63 87.6036 137.55 87.9876 138.654 87.9876ZM150.959 78.8676C151.423 78.2596 152.055 77.7476 152.855 77.3316C153.655 76.9156 154.559 76.7076 155.567 76.7076C156.719 76.7076 157.767 76.9956 158.711 77.5716C159.671 78.1316 160.423 78.9236 160.967 79.9476C161.511 80.9716 161.783 82.1476 161.783 83.4756C161.783 84.8036 161.511 85.9956 160.967 87.0516C160.423 88.0916 159.671 88.9076 158.711 89.4996C157.767 90.0756 156.719 90.3636 155.567 90.3636C154.559 90.3636 153.663 90.1636 152.879 89.7636C152.095 89.3476 151.455 88.8356 150.959 88.2276V96.4356H148.223V76.9236H150.959V78.8676ZM158.999 83.4756C158.999 82.5636 158.807 81.7796 158.423 81.1236C158.055 80.4516 157.559 79.9476 156.935 79.6116C156.327 79.2596 155.671 79.0836 154.967 79.0836C154.279 79.0836 153.623 79.2596 152.999 79.6116C152.391 79.9636 151.895 80.4756 151.511 81.1476C151.143 81.8196 150.959 82.6116 150.959 83.5236C150.959 84.4356 151.143 85.2356 151.511 85.9236C151.895 86.5956 152.391 87.1076 152.999 87.4596C153.623 87.8116 154.279 87.9876 154.967 87.9876C155.671 87.9876 156.327 87.8116 156.935 87.4596C157.559 87.0916 158.055 86.5636 158.423 85.8756C158.807 85.1876 158.999 84.3876 158.999 83.4756ZM180.497 76.7076C181.537 76.7076 182.465 76.9236 183.281 77.3556C184.113 77.7876 184.761 78.4276 185.225 79.2756C185.705 80.1236 185.945 81.1476 185.945 82.3476V90.1476H183.233V82.7556C183.233 81.5716 182.937 80.6676 182.345 80.0436C181.753 79.4036 180.945 79.0836 179.921 79.0836C178.897 79.0836 178.081 79.4036 177.473 80.0436C176.881 80.6676 176.585 81.5716 176.585 82.7556V90.1476H173.873V82.7556C173.873 81.5716 173.577 80.6676 172.985 80.0436C172.393 79.4036 171.585 79.0836 170.561 79.0836C169.537 79.0836 168.721 79.4036 168.113 80.0436C167.521 80.6676 167.225 81.5716 167.225 82.7556V90.1476H164.489V76.9236H167.225V78.4356C167.673 77.8916 168.241 77.4676 168.929 77.1636C169.617 76.8596 170.353 76.7076 171.137 76.7076C172.193 76.7076 173.137 76.9316 173.969 77.3796C174.801 77.8276 175.441 78.4756 175.889 79.3236C176.289 78.5236 176.913 77.8916 177.761 77.4276C178.609 76.9476 179.521 76.7076 180.497 76.7076ZM201.546 83.2116C201.546 83.7076 201.514 84.1556 201.45 84.5556H191.346C191.426 85.6116 191.818 86.4596 192.522 87.0996C193.226 87.7396 194.09 88.0596 195.114 88.0596C196.586 88.0596 197.626 87.4436 198.234 86.2116H201.186C200.786 87.4276 200.058 88.4276 199.002 89.2116C197.962 89.9796 196.666 90.3636 195.114 90.3636C193.85 90.3636 192.714 90.0836 191.706 89.5236C190.714 88.9476 189.93 88.1476 189.354 87.1236C188.794 86.0836 188.514 84.8836 188.514 83.5236C188.514 82.1636 188.786 80.9716 189.33 79.9476C189.89 78.9076 190.666 78.1076 191.658 77.5476C192.666 76.9876 193.818 76.7076 195.114 76.7076C196.362 76.7076 197.474 76.9796 198.45 77.5236C199.426 78.0676 200.186 78.8356 200.73 79.8276C201.274 80.8036 201.546 81.9316 201.546 83.2116ZM198.69 82.3476C198.674 81.3396 198.314 80.5316 197.61 79.9236C196.906 79.3156 196.034 79.0116 194.994 79.0116C194.05 79.0116 193.242 79.3156 192.57 79.9236C191.898 80.5156 191.498 81.3236 191.37 82.3476H198.69ZM210.911 76.7076C211.951 76.7076 212.879 76.9236 213.695 77.3556C214.527 77.7876 215.175 78.4276 215.639 79.2756C216.103 80.1236 216.335 81.1476 216.335 82.3476V90.1476H213.623V82.7556C213.623 81.5716 213.327 80.6676 212.735 80.0436C212.143 79.4036 211.335 79.0836 210.311 79.0836C209.287 79.0836 208.471 79.4036 207.863 80.0436C207.271 80.6676 206.975 81.5716 206.975 82.7556V90.1476H204.239V76.9236H206.975V78.4356C207.423 77.8916 207.991 77.4676 208.679 77.1636C209.383 76.8596 210.127 76.7076 210.911 76.7076ZM223.017 79.1556V86.4756C223.017 86.9716 223.129 87.3316 223.353 87.5556C223.593 87.7636 223.993 87.8676 224.553 87.8676H226.233V90.1476H224.073C222.841 90.1476 221.897 89.8596 221.241 89.2836C220.585 88.7076 220.257 87.7716 220.257 86.4756V79.1556H218.697V76.9236H220.257V73.6356H223.017V76.9236H226.233V79.1556H223.017Z" fill="#D8D8D8"/>
</svg>
