<svg width="285" height="271" viewBox="0 0 285 271" fill="none" xmlns="http://www.w3.org/2000/svg">
<rect width="284.136" height="270.902" rx="36" fill="#292929" fill-opacity="0.63"/>
<path fill-rule="evenodd" clip-rule="evenodd" d="M94.4341 149.345L98.5761 155.125C98.5761 155.125 92.3589 193.776 94.6644 195.618C96.9693 197.461 119.036 181.439 121.053 180.262C123.07 179.084 129.612 177.734 132.473 176.995C135.334 176.256 125.181 188.952 125.181 188.952L120.129 209.088C111.453 211.757 97.681 214.726 91.7398 214.35C79.5215 213.577 79.7394 204.783 80.6085 193.07C81.5629 180.198 86.1366 153.39 86.1366 153.39L94.4341 149.345Z" fill="#212850"/>
<path fill-rule="evenodd" clip-rule="evenodd" d="M94.4339 149.345L98.5759 155.125C98.5759 155.125 94.9012 177.975 94.2505 189.374C94.5135 182.7 95.2235 163.498 94.7144 162.495C94.0992 161.279 89.5142 157.753 87.9407 157.692C87.3859 157.671 86.3723 158.028 85.2915 158.498C85.8012 155.366 86.137 153.391 86.137 153.391L94.4339 149.345ZM94.1602 191.61L94.1591 191.637V191.638L94.1602 191.61ZM114.968 184.399C115.562 186.163 115.883 187.932 115.447 189.182C114.215 192.708 105.184 206.811 100.394 209.121C96.4595 211.018 87.6348 213.57 83.0137 210.852C84.7508 212.845 87.4937 214.082 91.7396 214.351C97.6802 214.727 111.453 211.758 120.128 209.089L125.181 188.953C125.181 188.953 135.334 176.258 132.473 176.996C129.612 177.735 123.069 179.085 121.052 180.263C120.452 180.613 118.072 182.28 114.968 184.399Z" fill="#050A26"/>
<path fill-rule="evenodd" clip-rule="evenodd" d="M103.441 151.731C105.503 149.55 108.098 148.6 109.083 148.336C110.387 147.986 107.817 143.908 103.967 146.804C103.967 146.804 101.706 147.495 101.173 146.696C100.64 145.896 106.198 134.553 106.807 133.314C107.414 132.074 105.936 131.22 105.318 131.346C104.702 131.473 103.845 133.28 102.587 135.5C101.328 137.721 99.8807 140.207 99.5381 140.319C99.1955 140.43 98.6345 140.153 98.7908 138.695C98.9466 137.239 100.147 129.248 99.6984 128.595C99.2514 127.945 97.6677 127.938 97.0841 129.091C96.5006 130.243 95.6326 138.352 95.1511 139.359C94.6692 140.367 93.6358 139.795 93.4868 139.04C93.3378 138.286 92.8818 129.374 92.4867 128.753C92.0933 128.131 90.4775 128.174 90.2185 129.507C89.9611 130.841 89.9961 139.384 89.6242 139.915C89.25 140.446 88.1839 140.458 87.3683 138.932C86.5539 137.405 85.2694 134.075 84.7801 133.804C84.2913 133.533 82.7698 134.567 83.28 136.259C83.7891 137.951 84.8902 142.186 84.9646 142.832C85.3603 146.24 84.6503 149.422 85.3693 152.042C85.6289 152.991 86.1837 153.888 86.9405 154.683C88.7291 156.562 91.6497 157.867 94.4914 157.913C99.4275 157.993 100.604 154.732 103.441 151.731Z" fill="#F4AD85"/>
<path fill-rule="evenodd" clip-rule="evenodd" d="M185.174 185.991C186.759 197.632 187.159 225.57 187.159 225.57C187.159 225.57 181.547 248.96 181.547 260.128C181.547 263.892 181.268 267.564 180.805 270.902H157.928C151.485 268.181 143.221 266.156 132.893 266.156H113.123C113.123 266.156 110.207 264.259 109.978 260.922C109.747 257.585 116.417 238.277 116.57 234.736C117.145 221.434 115.156 206.04 117.886 193.273C120.253 182.191 131.229 177.132 143.973 175.684C149.011 175.58 156.269 175.634 163.6 176.39C163.784 176.426 176.145 178.845 185.174 185.991Z" fill="white"/>
<path fill-rule="evenodd" clip-rule="evenodd" d="M144.294 201.238C145.587 201.238 146.866 201.348 148.114 201.559C149.39 201.773 150.619 202.091 151.79 202.501C152.507 202.75 152.86 203.47 152.581 204.107C152.48 204.337 152.31 204.525 152.1 204.659C151.15 205.274 150.368 206.085 149.829 207.024C149.311 207.926 149.019 208.95 149.019 210.036C149.019 211.87 149.855 213.53 151.208 214.733C152.561 215.934 154.43 216.678 156.495 216.678C157.531 216.678 158.512 216.496 159.393 216.165C160.318 215.819 161.148 215.312 161.84 214.684C162.377 214.193 163.26 214.183 163.811 214.66C164.009 214.832 164.138 215.043 164.196 215.267C164.374 215.936 164.508 216.619 164.597 217.316C164.686 218.008 164.732 218.704 164.732 219.399C164.732 224.412 162.444 228.952 158.746 232.239C155.048 235.524 149.938 237.557 144.294 237.557C138.651 237.557 133.541 235.524 129.842 232.239C126.144 228.952 123.856 224.412 123.856 219.399C123.856 214.383 126.144 209.843 129.842 206.558C133.541 203.272 138.651 201.238 144.294 201.238ZM147.601 203.994C146.542 203.816 145.436 203.722 144.294 203.722C139.421 203.722 135.011 205.476 131.819 208.313C128.625 211.15 126.651 215.069 126.651 219.398C126.651 223.726 128.625 227.645 131.819 230.482C135.011 233.319 139.422 235.073 144.294 235.073C149.167 235.073 153.578 233.319 156.771 230.482C159.963 227.646 161.937 223.726 161.937 219.398C161.937 218.856 161.908 218.329 161.851 217.818C161.413 218.056 160.953 218.266 160.473 218.444C159.242 218.906 157.896 219.161 156.495 219.161C153.659 219.161 151.091 218.139 149.232 216.488C147.374 214.837 146.224 212.555 146.224 210.036C146.224 208.547 146.627 207.142 147.34 205.899C147.691 205.286 148.119 204.714 148.61 204.192C148.277 204.117 147.94 204.051 147.601 203.994Z" fill="#716AAE"/>
<path fill-rule="evenodd" clip-rule="evenodd" d="M145.977 202.545C146.699 202.601 147.409 202.694 148.105 202.819L125.635 222.783C125.493 222.164 125.391 221.533 125.329 220.892L145.977 202.545ZM150.406 203.371L126.255 224.827C126.456 225.356 126.687 225.874 126.945 226.378L148.042 207.634C148.622 206.019 149.773 204.632 151.282 203.656C150.994 203.555 150.7 203.459 150.406 203.371ZM147.643 210.582L127.949 228.079C128.25 228.526 128.576 228.96 128.921 229.379L148.029 212.402C147.823 211.822 147.692 211.212 147.643 210.582ZM148.947 214.182L130.235 230.807C130.624 231.184 131.028 231.544 131.453 231.888L150.003 215.408C149.608 215.032 149.254 214.621 148.947 214.182ZM151.582 216.6L133.06 233.056C133.531 233.362 134.019 233.651 134.522 233.919L153.175 217.347C152.612 217.146 152.078 216.895 151.582 216.6ZM155.507 217.87L136.438 234.812C137.006 235.041 137.589 235.245 138.184 235.425L158.017 217.803C157.523 217.88 157.015 217.919 156.496 217.919C156.161 217.919 155.831 217.902 155.507 217.87ZM162.953 216.013L140.483 235.976C141.179 236.102 141.89 236.192 142.612 236.249L163.262 217.901C163.199 217.262 163.094 216.631 162.953 216.013ZM163.296 220.466L145.497 236.281C146.459 236.227 147.402 236.11 148.32 235.935L162.907 222.974C163.105 222.159 163.236 221.321 163.296 220.466ZM161.317 226.982C159.478 230.234 156.491 232.888 152.83 234.522L161.317 226.982ZM125.292 218.329L143.092 202.515C142.129 202.569 141.186 202.686 140.268 202.86L125.681 215.822C125.483 216.636 125.352 217.474 125.292 218.329ZM127.27 211.813L135.758 204.273C132.096 205.907 129.11 208.561 127.27 211.813Z" fill="#716AAE"/>
<path fill-rule="evenodd" clip-rule="evenodd" d="M185.174 185.991C186.759 197.633 187.159 225.57 187.159 225.57C187.159 225.57 181.547 248.96 181.547 260.128C181.547 263.892 181.268 267.564 180.805 270.902H157.928C151.485 268.181 143.221 266.156 132.893 266.156H131.531C133.752 264.51 156.422 267.369 160.268 266.389C172.558 263.259 167.887 203.741 166.242 193.503C165.032 185.977 152.173 180.332 152.173 180.332L154.873 175.781C157.676 175.893 160.631 176.084 163.599 176.39C163.784 176.426 176.145 178.845 185.174 185.991Z" fill="#EAE5F1"/>
<path fill-rule="evenodd" clip-rule="evenodd" d="M185.176 185.993C185.605 189.146 185.946 193.49 186.218 198.152C179.978 200.318 175.502 201.679 175.502 201.679C174.973 184.842 162.689 182.105 162.689 182.105L158.795 178.119C158.795 178.119 145.573 177.658 133.118 181.408C120.885 185.092 117.424 196.082 117.306 196.471C118.17 190.785 119.802 185.515 122.79 181.042C124.345 178.713 132.581 176.848 137.249 175.959C137.249 175.959 150.313 175.02 163.609 176.392C164.054 176.48 176.247 178.924 185.176 185.993Z" fill="#050A26"/>
<path fill-rule="evenodd" clip-rule="evenodd" d="M163.592 176.388V177.475C163.592 185.086 156.599 191.298 148.033 191.298C139.465 191.298 132.474 185.086 132.474 177.475V176.996C134.37 176.57 136.14 176.211 137.532 175.94C139.489 175.815 151.44 175.137 163.592 176.388Z" fill="#212850"/>
<path fill-rule="evenodd" clip-rule="evenodd" d="M163.592 176.389V177.475C163.592 180.476 162.503 183.259 160.662 185.531C156.72 182.329 152.172 180.332 152.172 180.332L154.872 175.781C157.672 175.894 160.625 176.084 163.592 176.389Z" fill="#050A26"/>
<path fill-rule="evenodd" clip-rule="evenodd" d="M148.033 155.217C142.1 155.217 137.248 159.529 137.248 164.799V177.474C137.248 182.744 142.101 187.055 148.033 187.055C153.965 187.055 158.818 182.744 158.818 177.474V164.799C158.818 159.529 153.964 155.217 148.033 155.217Z" fill="#EB6B5D"/>
<path fill-rule="evenodd" clip-rule="evenodd" d="M194.125 199.694C194.238 200.545 194.347 201.438 194.45 202.365L194.451 202.373C195.955 215.967 196.248 237.005 193.275 242.351C189.14 249.788 160.266 268.645 160.266 268.645C160.266 268.645 152.632 266.992 151.926 264.573C151.221 262.154 152.027 259.824 152.027 259.824C152.027 259.824 174.011 243.607 176.432 236.797C176.432 236.797 177.441 234.825 176.837 228.732C176.232 222.639 174.92 197.461 175.021 193.697C175.091 191.069 175.703 184.511 178.299 181.623C185.282 185.216 192.467 190.951 194.125 199.694Z" fill="#212850"/>
<path fill-rule="evenodd" clip-rule="evenodd" d="M195 235.13C194.633 238.366 194.071 240.921 193.275 242.351C189.14 249.788 160.266 268.645 160.266 268.645C160.266 268.645 152.632 266.992 151.926 264.573C151.221 262.154 152.027 259.824 152.027 259.824C152.027 259.824 154.267 258.172 157.392 255.703C157.807 257.739 158.376 259.963 158.982 260.705C160.192 262.182 163.267 264.067 170.277 259.025C177.059 254.148 193.527 244.272 195 235.13ZM173.91 240.716H173.911C178.373 236.036 179.253 232.614 179.708 230.06C180.161 227.507 178.194 201.433 178.194 191.486C178.194 187.599 179.095 184.719 180.193 182.651C179.562 182.291 178.929 181.948 178.299 181.623C175.703 184.511 175.091 191.069 175.021 193.697C174.92 197.461 176.232 222.639 176.837 228.732C177.441 234.825 176.432 236.797 176.432 236.797C176.041 237.895 175.141 239.237 173.91 240.716Z" fill="#050A26"/>
<path fill-rule="evenodd" clip-rule="evenodd" d="M90.2043 270.902H164.895C166.292 270.902 167.435 269.888 167.435 268.646V268.645C167.435 267.404 166.291 266.389 164.895 266.389H90.2043C88.8081 266.389 87.6641 267.404 87.6641 268.645V268.646C87.6641 269.888 88.8081 270.902 90.2043 270.902Z" fill="#212850"/>
<path fill-rule="evenodd" clip-rule="evenodd" d="M90.2039 270.902H164.894C165.8 270.902 166.598 270.476 167.048 269.838C166.597 269.201 165.799 268.775 164.894 268.775H90.2039C89.2998 268.775 88.5006 269.201 88.0508 269.838C88.5006 270.477 89.2992 270.902 90.2039 270.902Z" fill="#050A26"/>
<path fill-rule="evenodd" clip-rule="evenodd" d="M88.2288 266.389H152.191C154.018 266.389 155.33 265.06 155.104 263.437L150.006 226.628C149.782 225.006 148.102 223.677 146.275 223.677H82.3124C80.4855 223.677 79.1745 225.005 79.3991 226.628L84.4977 263.437C84.7234 265.06 86.4014 266.389 88.2288 266.389Z" fill="#050A26"/>
<path fill-rule="evenodd" clip-rule="evenodd" d="M88.2288 266.389H150.304C152.131 266.389 153.443 265.06 153.217 263.437L148.119 226.628C147.895 225.006 146.215 223.677 144.388 223.677H82.3124C80.4855 223.677 79.1745 225.005 79.3991 226.628L84.4977 263.437C84.7223 265.06 86.4014 266.389 88.2288 266.389Z" fill="#212850"/>
<path fill-rule="evenodd" clip-rule="evenodd" d="M137.108 263.417H131.61L88.207 231.049L88.465 229.191C88.5423 228.634 88.8154 228.12 89.2173 227.701L137.108 263.417ZM95.4616 226.649L142.807 261.958C143.029 261.63 143.178 261.263 143.232 260.875L143.915 255.949L104.628 226.649H95.4616Z" fill="#282A69"/>
<path fill-rule="evenodd" clip-rule="evenodd" d="M155.639 270.902H164.894C166.291 270.902 167.434 269.888 167.434 268.646V268.645C167.434 267.404 166.291 266.389 164.894 266.389H155.639C154.241 266.389 153.099 267.404 153.099 268.645V268.646C153.099 269.888 154.241 270.902 155.639 270.902Z" fill="#212850"/>
<path fill-rule="evenodd" clip-rule="evenodd" d="M88.9345 267.517H155.478C156.177 267.517 156.748 267.009 156.748 266.389C156.748 265.769 156.177 265.261 155.478 265.261H88.9345C88.2363 265.261 87.6641 265.769 87.6641 266.389C87.6641 267.009 88.2358 267.517 88.9345 267.517Z" fill="#282A69"/>
<path fill-rule="evenodd" clip-rule="evenodd" d="M113.401 239.36C109.874 239.36 107.372 241.899 107.814 245.033C108.256 248.166 111.473 250.706 114.999 250.706C118.526 250.706 121.027 248.166 120.585 245.033C120.517 244.543 120.38 244.069 120.185 243.615C119.686 244.146 118.926 244.477 118.032 244.477C116.29 244.477 114.701 243.222 114.483 241.674C114.367 240.846 114.666 240.102 115.236 239.59C114.643 239.44 114.028 239.36 113.401 239.36Z" fill="#A79CCB"/>
<path fill-rule="evenodd" clip-rule="evenodd" d="M125.557 149.793C125.412 149.817 125.271 149.844 125.131 149.876L125.127 149.877V149.877C122.544 150.47 120.67 152.587 120.746 155.057C120.836 157.93 123.531 160.194 126.763 160.113C129.996 160.034 132.544 157.64 132.454 154.769C132.401 153.099 131.47 151.636 130.065 150.719C130.295 152.246 130.12 154.157 127.925 154.439L127.832 151.44C127.794 150.226 126.491 149.72 125.557 149.793Z" fill="#E8685B"/>
<path fill-rule="evenodd" clip-rule="evenodd" d="M167.774 148.036C167.919 148.047 168.064 148.063 168.206 148.084L168.212 148.084H168.21C170.844 148.461 172.934 150.412 173.117 152.879C173.329 155.745 170.885 158.223 167.658 158.412C164.431 158.601 161.643 156.429 161.43 153.563C161.306 151.897 162.08 150.362 163.383 149.332C163.315 150.873 163.69 152.76 165.903 152.859L165.682 149.865C165.592 148.652 166.835 148.042 167.774 148.036Z" fill="#E8685B"/>
<path fill-rule="evenodd" clip-rule="evenodd" d="M145.298 122.954C134.283 123.412 125.692 131.795 126.208 141.581L127.062 157.764C127.577 167.55 137.012 175.182 148.028 174.723C159.04 174.265 167.631 165.883 167.115 156.097L166.262 139.914C165.745 130.127 156.31 122.496 145.298 122.954Z" fill="#F4AD85"/>
<path fill-rule="evenodd" clip-rule="evenodd" d="M145.3 122.954C135.268 123.372 127.25 130.359 126.286 138.995L131.738 141.308C131.738 141.308 132.627 139.35 136.405 139.277C140.182 139.204 147.242 138.766 152.087 138.912C156.931 139.057 158.175 140.916 158.819 144.018C159.464 147.121 159.555 148.581 162.186 149.198L162.925 162.839C162.925 162.839 164.082 163.078 165.801 163.303C166.773 161.071 167.251 158.631 167.117 156.097L166.264 139.914C165.746 130.127 156.313 122.496 145.3 122.954Z" fill="#EF8871"/>
<path fill-rule="evenodd" clip-rule="evenodd" d="M142.055 162.536C142.175 165.079 144.594 167.054 147.456 166.946C150.321 166.839 152.543 164.69 152.422 162.147H152.413C152.392 161.71 151.973 161.367 151.48 161.385L142.92 161.706C142.429 161.724 142.041 162.097 142.063 162.535L142.055 162.536Z" fill="#050A26"/>
<path fill-rule="evenodd" clip-rule="evenodd" d="M144.155 166.049C145.075 166.653 146.224 166.992 147.456 166.947C148.462 166.909 149.389 166.618 150.164 166.148C149.72 165.218 148.523 164.554 147.118 164.56C145.778 164.566 144.633 165.181 144.155 166.049Z" fill="#E4414F"/>
<path fill-rule="evenodd" clip-rule="evenodd" d="M151.594 161.388L143.549 161.69C143.458 162.485 143.908 163.268 144.516 163.419C145.253 163.603 151.069 163.25 151.461 162.828C151.651 162.624 151.649 161.989 151.594 161.388Z" fill="white"/>
<path fill-rule="evenodd" clip-rule="evenodd" d="M158.491 157.339C157.035 157.375 155.888 158.454 155.929 159.746C155.969 161.039 157.182 162.059 158.637 162.022C160.093 161.987 161.24 160.909 161.2 159.616C161.158 158.323 159.946 157.303 158.491 157.339Z" fill="#E8685B"/>
<path fill-rule="evenodd" clip-rule="evenodd" d="M135.817 157.9C134.362 157.935 133.214 159.014 133.255 160.306C133.296 161.599 134.508 162.618 135.964 162.583C137.419 162.547 138.567 161.469 138.527 160.176C138.486 158.883 137.272 157.864 135.817 157.9Z" fill="#E8685B"/>
<path fill-rule="evenodd" clip-rule="evenodd" d="M134.274 149.652C133.932 149.823 133.498 149.714 133.306 149.41C133.115 149.106 133.237 148.72 133.578 148.55C135.418 147.609 137.931 147.403 139.833 148.313C140.177 148.477 140.307 148.862 140.123 149.168C139.938 149.474 139.503 149.591 139.158 149.427C137.62 148.692 135.755 148.946 134.274 149.652Z" fill="#050A26"/>
<path fill-rule="evenodd" clip-rule="evenodd" d="M159.843 148.59C158.291 148.008 156.407 147.909 154.953 148.77C154.627 148.962 154.182 148.882 153.966 148.592C153.749 148.303 153.839 147.909 154.165 147.717C155.963 146.654 158.487 146.649 160.415 147.434C160.775 147.574 160.936 147.948 160.778 148.268C160.619 148.586 160.198 148.73 159.843 148.59Z" fill="#050A26"/>
<path fill-rule="evenodd" clip-rule="evenodd" d="M157.777 150.808C158.728 150.768 159.543 151.427 159.587 152.272L159.693 154.276C159.737 155.12 158.996 155.844 158.045 155.883C157.093 155.923 156.279 155.265 156.235 154.419L156.129 152.416C156.085 151.571 156.826 150.847 157.777 150.808Z" fill="#050A26"/>
<path fill-rule="evenodd" clip-rule="evenodd" d="M136.559 151.69C135.609 151.73 134.867 152.454 134.912 153.298L135.016 155.302C135.062 156.147 135.876 156.806 136.826 156.766H136.828C137.779 156.727 138.52 156.004 138.475 155.158L138.369 153.155C138.326 152.309 137.512 151.651 136.559 151.69Z" fill="#050A26"/>
<path fill-rule="evenodd" clip-rule="evenodd" d="M137.812 136.312C135.656 136.401 131.535 137.482 131.736 141.309C131.938 145.135 131.281 148.202 128.533 148.317C128.533 148.317 128.604 149.641 128.691 151.318C128.78 152.996 128.685 154.701 126.903 154.776C126.712 151.166 125.4 149.798 125.4 149.798C125.4 149.798 125.145 144.97 124.922 140.748C124.699 136.526 125.736 130.797 131.768 126.646C139.573 121.274 150.819 120.806 159.156 125.506C165.598 129.139 167.233 134.756 167.455 138.978C167.679 143.2 167.933 148.029 167.933 148.029C167.933 148.029 166.769 149.5 166.959 153.109C165.177 153.183 164.903 151.493 164.814 149.816C164.725 148.137 164.656 146.814 164.656 146.814C161.91 146.929 160.932 143.928 160.732 140.103C160.53 136.276 156.312 135.542 154.156 135.632C148.708 135.858 143.26 136.084 137.812 136.312Z" fill="#050A26"/>
<path fill-rule="evenodd" clip-rule="evenodd" d="M125.4 149.799C125.4 149.799 125.881 158.916 126.11 163.27C126.34 167.624 134.425 174.215 139.707 175.582C144.987 176.949 146.791 176.775 148.132 176.719C149.474 176.663 151.287 176.687 156.402 174.888C161.515 173.088 168.873 165.854 168.644 161.5C168.414 157.146 167.933 148.03 167.933 148.03L165.089 146.7C165.219 149.171 165.765 154.659 165.724 157.8C165.681 161.038 162.956 161.451 159.447 162.445C156.943 163.154 155.405 169.478 153.362 169.564C151.318 169.648 150.022 169.004 149.441 168.817C148.861 168.629 147.708 168.672 147.708 168.672C147.708 168.672 146.558 168.725 145.997 168.96C145.44 169.195 144.217 169.944 142.174 170.028C140.131 170.114 137.932 163.946 135.366 163.447C131.767 162.749 129.011 162.565 128.628 159.344C128.257 156.22 128.222 150.71 128.092 148.24L125.4 149.799Z" fill="#050A26"/>
<path fill-rule="evenodd" clip-rule="evenodd" d="M133.5 137.665C132.422 138.434 131.647 139.597 131.738 141.309C131.939 145.135 131.282 148.202 128.535 148.317L128.553 148.657L128.582 149.203L128.648 150.459C128.69 151.243 128.002 151.913 127.121 151.95C126.239 151.986 125.483 151.376 125.442 150.592L125.347 148.79L125.345 148.733L124.924 140.748C124.868 139.68 124.892 138.516 125.058 137.305C128.69 135.535 133.5 137.665 133.5 137.665ZM164.673 147.096L164.676 147.153L164.771 148.955C164.812 149.738 165.566 150.349 166.448 150.313C167.33 150.276 168.018 149.605 167.977 148.822L167.911 147.566L167.882 147.02L167.458 138.977C167.402 137.91 167.256 136.754 166.962 135.561L166.961 135.56C163.178 134.107 158.643 136.592 158.594 136.618C159.749 137.296 160.644 138.389 160.735 140.101C160.935 143.927 161.912 146.927 164.659 146.812L164.673 147.096Z" fill="#212850"/>
<path fill-rule="evenodd" clip-rule="evenodd" d="M138.164 124.45C134.797 125.775 131.923 127.899 129.835 130.537C132.649 132.06 136.381 133.246 141.249 133.368C150.361 133.597 156.89 130.557 160.493 128.257C159.786 127.62 159.027 127.031 158.221 126.494C153.933 127.823 146.066 129.106 138.164 124.45Z" fill="#212850"/>
<path fill-rule="evenodd" clip-rule="evenodd" d="M128.393 129.679C129.291 128.611 130.402 127.587 131.769 126.646C133.447 125.491 135.284 124.564 137.216 123.865C146.588 129.963 156.11 127.37 159.863 125.926C160.585 126.373 161.242 126.847 161.837 127.342C158.673 129.638 151.641 133.629 141.249 133.368C135.498 133.224 131.331 131.596 128.393 129.679Z" fill="#212850"/>
<path fill-rule="evenodd" clip-rule="evenodd" d="M165.547 148.527C164.872 147.896 163.611 147.096 162.856 146.64C162.662 146.515 162.463 146.396 162.256 146.285C162.249 146.28 162.243 146.277 162.243 146.277C160.79 145.498 159.068 145.079 157.244 145.155C154.786 145.257 152.608 146.238 151.076 147.737C150.331 148.416 149.698 149.152 149.041 149.875C148.208 150.789 147.665 150.38 146.786 150.417C145.907 150.453 145.41 150.905 144.485 150.064C143.754 149.399 143.046 148.719 142.234 148.106C140.55 146.739 138.252 145.946 135.794 146.048C133.97 146.123 132.191 146.688 130.906 147.582C130.906 147.582 130.928 147.584 130.92 147.59C130.727 147.717 130.555 147.851 130.373 147.992C129.67 148.509 128.468 149.412 127.861 150.095C127.563 150.432 127.136 150.673 126.698 150.846L126.86 153.915C127.078 154.408 127.35 155.311 127.713 156.241C127.864 156.683 128.069 157.108 128.301 157.512C128.519 157.916 128.768 158.287 129.046 158.588L129.049 158.586C130.75 160.658 133.553 161.955 136.652 161.826C140.25 161.677 143.247 159.645 144.498 156.854C144.5 156.851 144.502 156.849 144.504 156.846C144.511 156.835 144.517 156.825 144.523 156.814C145.11 155.826 145.614 153.167 145.881 152.736C146.151 152.301 146.882 152.238 146.882 152.238C146.882 152.238 147.617 152.24 147.931 152.65C148.243 153.058 149.024 155.664 149.712 156.598C149.72 156.608 149.727 156.618 149.735 156.627C149.736 156.631 149.738 156.633 149.742 156.635C151.281 159.311 154.477 161.085 158.076 160.935C161.175 160.806 163.827 159.281 165.303 157.078L165.304 157.08C165.549 156.756 165.754 156.366 165.928 155.947C166.116 155.524 166.266 155.084 166.371 154.631C166.613 153.749 166.771 152.898 166.92 152.37L166.751 149.17C166.309 149.035 165.874 148.832 165.547 148.527ZM136.595 160.754C132.358 160.93 128.763 158.021 128.565 154.257C128.365 150.491 131.641 147.297 135.877 147.121C140.115 146.945 143.71 149.853 143.908 153.618C144.107 157.382 140.833 160.577 136.595 160.754ZM158.019 159.862C153.781 160.038 150.185 157.13 149.987 153.365C149.789 149.6 153.063 146.406 157.301 146.23C161.537 146.053 165.134 148.962 165.331 152.727C165.53 156.49 162.257 159.685 158.019 159.862Z" fill="#050A26"/>
<path fill-rule="evenodd" clip-rule="evenodd" d="M146.06 156.865C146.06 156.865 145.075 159.025 144.983 159.681C144.892 160.337 145.619 160.667 147.091 160.395C148.564 160.124 147.004 155.536 146.06 156.865Z" fill="#F8CAB0"/>
<path fill-rule="evenodd" clip-rule="evenodd" d="M97.752 153.978C95.7913 154.864 93.2956 155.154 90.073 153.896C89.1909 153.551 88.3466 153.143 87.5502 152.702C86.7042 152.233 85.9136 151.725 85.1895 151.216C85.2363 151.497 85.2956 151.773 85.3689 152.043C85.5185 152.592 85.7674 153.122 86.0975 153.627C86.3374 153.994 86.6218 154.348 86.9402 154.684C88.7287 156.563 91.6493 157.868 94.491 157.913C96.0786 157.939 97.2779 157.619 98.2678 157.073C100.355 155.921 101.516 153.766 103.44 151.73C105.502 149.55 108.097 148.599 109.082 148.335C109.468 148.232 109.515 147.805 109.292 147.328C107.276 148.337 103.042 149.756 101.074 151.634C100.176 152.492 99.0884 153.374 97.752 153.978Z" fill="#EF8871"/>
<path d="M99.8473 39.8887V42.1207H92.7673V47.0407H98.2873V49.2727H92.7673V56.5687H90.0313V39.8887H99.8473ZM114.359 43.3447V56.5687H111.623V55.0087C111.191 55.5527 110.623 55.9847 109.919 56.3047C109.231 56.6087 108.495 56.7607 107.711 56.7607C106.671 56.7607 105.735 56.5447 104.903 56.1127C104.087 55.6807 103.439 55.0407 102.959 54.1927C102.495 53.3447 102.263 52.3207 102.263 51.1207V43.3447H104.975V50.7127C104.975 51.8967 105.271 52.8087 105.863 53.4487C106.455 54.0727 107.263 54.3847 108.287 54.3847C109.311 54.3847 110.119 54.0727 110.711 53.4487C111.319 52.8087 111.623 51.8967 111.623 50.7127V43.3447H114.359ZM120.705 38.8087V56.5687H117.969V38.8087H120.705ZM127.033 38.8087V56.5687H124.297V38.8087H127.033ZM140.777 46.7287V49.0327H130.913V46.7287H140.777ZM149.464 56.7847C148.424 56.7847 147.488 56.6007 146.656 56.2327C145.84 55.8487 145.192 55.3367 144.712 54.6967C144.232 54.0407 143.976 53.3127 143.944 52.5127H146.776C146.824 53.0727 147.088 53.5447 147.568 53.9287C148.064 54.2967 148.68 54.4807 149.416 54.4807C150.184 54.4807 150.776 54.3367 151.192 54.0487C151.624 53.7447 151.84 53.3607 151.84 52.8967C151.84 52.4007 151.6 52.0327 151.12 51.7927C150.656 51.5527 149.912 51.2887 148.888 51.0007C147.896 50.7287 147.088 50.4647 146.464 50.2087C145.84 49.9527 145.296 49.5607 144.832 49.0327C144.384 48.5047 144.16 47.8087 144.16 46.9447C144.16 46.2407 144.368 45.6007 144.784 45.0247C145.2 44.4327 145.792 43.9687 146.56 43.6327C147.344 43.2967 148.24 43.1287 149.248 43.1287C150.752 43.1287 151.96 43.5127 152.872 44.2807C153.8 45.0327 154.296 46.0647 154.36 47.3767H151.624C151.576 46.7847 151.336 46.3127 150.904 45.9607C150.472 45.6087 149.888 45.4327 149.152 45.4327C148.432 45.4327 147.88 45.5687 147.496 45.8407C147.112 46.1127 146.92 46.4727 146.92 46.9207C146.92 47.2727 147.048 47.5687 147.304 47.8087C147.56 48.0487 147.872 48.2407 148.24 48.3847C148.608 48.5127 149.152 48.6807 149.872 48.8887C150.832 49.1447 151.616 49.4087 152.224 49.6807C152.848 49.9367 153.384 50.3207 153.832 50.8327C154.28 51.3447 154.512 52.0247 154.528 52.8727C154.528 53.6247 154.32 54.2967 153.904 54.8887C153.488 55.4807 152.896 55.9447 152.128 56.2807C151.376 56.6167 150.488 56.7847 149.464 56.7847ZM160.676 45.5767V52.8967C160.676 53.3927 160.788 53.7527 161.012 53.9767C161.252 54.1847 161.652 54.2887 162.212 54.2887H163.892V56.5687H161.732C160.5 56.5687 159.556 56.2807 158.9 55.7047C158.244 55.1287 157.916 54.1927 157.916 52.8967V45.5767H156.356V43.3447H157.916V40.0567H160.676V43.3447H163.892V45.5767H160.676ZM165.502 49.8967C165.502 48.5687 165.774 47.3927 166.318 46.3687C166.878 45.3447 167.63 44.5527 168.574 43.9927C169.534 43.4167 170.59 43.1287 171.742 43.1287C172.782 43.1287 173.686 43.3367 174.454 43.7527C175.238 44.1527 175.862 44.6567 176.326 45.2647V43.3447H179.086V56.5687H176.326V54.6007C175.862 55.2247 175.23 55.7447 174.43 56.1607C173.63 56.5767 172.718 56.7847 171.694 56.7847C170.558 56.7847 169.518 56.4967 168.574 55.9207C167.63 55.3287 166.878 54.5127 166.318 53.4727C165.774 52.4167 165.502 51.2247 165.502 49.8967ZM176.326 49.9447C176.326 49.0327 176.134 48.2407 175.75 47.5687C175.382 46.8967 174.894 46.3847 174.286 46.0327C173.678 45.6807 173.022 45.5047 172.318 45.5047C171.614 45.5047 170.958 45.6807 170.35 46.0327C169.742 46.3687 169.246 46.8727 168.862 47.5447C168.494 48.2007 168.31 48.9847 168.31 49.8967C168.31 50.8087 168.494 51.6087 168.862 52.2967C169.246 52.9847 169.742 53.5127 170.35 53.8807C170.974 54.2327 171.63 54.4087 172.318 54.4087C173.022 54.4087 173.678 54.2327 174.286 53.8807C174.894 53.5287 175.382 53.0167 175.75 52.3447C176.134 51.6567 176.326 50.8567 176.326 49.9447ZM181.768 49.9447C181.768 48.5847 182.04 47.3927 182.584 46.3687C183.144 45.3287 183.912 44.5287 184.888 43.9687C185.864 43.4087 186.984 43.1287 188.248 43.1287C189.848 43.1287 191.168 43.5127 192.208 44.2807C193.264 45.0327 193.976 46.1127 194.344 47.5207H191.392C191.152 46.8647 190.768 46.3527 190.24 45.9847C189.712 45.6167 189.048 45.4327 188.248 45.4327C187.128 45.4327 186.232 45.8327 185.56 46.6327C184.904 47.4167 184.576 48.5207 184.576 49.9447C184.576 51.3687 184.904 52.4807 185.56 53.2807C186.232 54.0807 187.128 54.4807 188.248 54.4807C189.832 54.4807 190.88 53.7847 191.392 52.3927H194.344C193.96 53.7367 193.24 54.8087 192.184 55.6087C191.128 56.3927 189.816 56.7847 188.248 56.7847C186.984 56.7847 185.864 56.5047 184.888 55.9447C183.912 55.3687 183.144 54.5687 182.584 53.5447C182.04 52.5047 181.768 51.3047 181.768 49.9447ZM202.302 49.9687L208.398 56.5687H204.702L199.806 50.8807V56.5687H197.07V38.8087H199.806V49.1287L204.606 43.3447H208.398L202.302 49.9687ZM74.3269 75.8887C76.1029 75.8887 77.6549 76.2327 78.9829 76.9207C80.3269 77.5927 81.3589 78.5687 82.0789 79.8487C82.8149 81.1127 83.1829 82.5927 83.1829 84.2887C83.1829 85.9847 82.8149 87.4567 82.0789 88.7047C81.3589 89.9527 80.3269 90.9127 78.9829 91.5847C77.6549 92.2407 76.1029 92.5687 74.3269 92.5687H68.8789V75.8887H74.3269ZM74.3269 90.3367C76.2789 90.3367 77.7749 89.8087 78.8149 88.7527C79.8549 87.6967 80.3749 86.2087 80.3749 84.2887C80.3749 82.3527 79.8549 80.8407 78.8149 79.7527C77.7749 78.6647 76.2789 78.1207 74.3269 78.1207H71.6149V90.3367H74.3269ZM98.0145 85.6327C98.0145 86.1287 97.9825 86.5767 97.9185 86.9767H87.8145C87.8945 88.0327 88.2865 88.8807 88.9905 89.5207C89.6945 90.1607 90.5585 90.4807 91.5825 90.4807C93.0545 90.4807 94.0945 89.8647 94.7025 88.6327H97.6545C97.2545 89.8487 96.5265 90.8487 95.4705 91.6327C94.4305 92.4007 93.1345 92.7847 91.5825 92.7847C90.3185 92.7847 89.1825 92.5047 88.1745 91.9447C87.1825 91.3687 86.3985 90.5687 85.8225 89.5447C85.2625 88.5047 84.9825 87.3047 84.9825 85.9447C84.9825 84.5847 85.2545 83.3927 85.7985 82.3687C86.3585 81.3287 87.1345 80.5287 88.1265 79.9687C89.1345 79.4087 90.2865 79.1287 91.5825 79.1287C92.8305 79.1287 93.9425 79.4007 94.9185 79.9447C95.8945 80.4887 96.6545 81.2567 97.1985 82.2487C97.7425 83.2247 98.0145 84.3527 98.0145 85.6327ZM95.1585 84.7687C95.1425 83.7607 94.7825 82.9527 94.0785 82.3447C93.3745 81.7367 92.5025 81.4327 91.4625 81.4327C90.5185 81.4327 89.7105 81.7367 89.0385 82.3447C88.3665 82.9367 87.9665 83.7447 87.8385 84.7687H95.1585ZM105.819 90.1207L109.563 79.3447H112.467L107.427 92.5687H104.163L99.147 79.3447H102.075L105.819 90.1207ZM126.655 85.6327C126.655 86.1287 126.623 86.5767 126.559 86.9767H116.455C116.535 88.0327 116.927 88.8807 117.631 89.5207C118.335 90.1607 119.199 90.4807 120.223 90.4807C121.695 90.4807 122.735 89.8647 123.343 88.6327H126.295C125.895 89.8487 125.167 90.8487 124.111 91.6327C123.071 92.4007 121.775 92.7847 120.223 92.7847C118.959 92.7847 117.823 92.5047 116.815 91.9447C115.823 91.3687 115.039 90.5687 114.463 89.5447C113.903 88.5047 113.623 87.3047 113.623 85.9447C113.623 84.5847 113.895 83.3927 114.439 82.3687C114.999 81.3287 115.775 80.5287 116.767 79.9687C117.775 79.4087 118.927 79.1287 120.223 79.1287C121.471 79.1287 122.583 79.4007 123.559 79.9447C124.535 80.4887 125.295 81.2567 125.839 82.2487C126.383 83.2247 126.655 84.3527 126.655 85.6327ZM123.799 84.7687C123.783 83.7607 123.423 82.9527 122.719 82.3447C122.015 81.7367 121.143 81.4327 120.103 81.4327C119.159 81.4327 118.351 81.7367 117.679 82.3447C117.007 82.9367 116.607 83.7447 116.479 84.7687H123.799ZM132.084 74.8087V92.5687H129.348V74.8087H132.084ZM141.412 92.7847C140.164 92.7847 139.036 92.5047 138.028 91.9447C137.02 91.3687 136.228 90.5687 135.652 89.5447C135.076 88.5047 134.788 87.3047 134.788 85.9447C134.788 84.6007 135.084 83.4087 135.676 82.3687C136.268 81.3287 137.076 80.5287 138.1 79.9687C139.124 79.4087 140.268 79.1287 141.532 79.1287C142.796 79.1287 143.94 79.4087 144.964 79.9687C145.988 80.5287 146.796 81.3287 147.388 82.3687C147.98 83.4087 148.276 84.6007 148.276 85.9447C148.276 87.2887 147.972 88.4807 147.364 89.5207C146.756 90.5607 145.924 91.3687 144.868 91.9447C143.828 92.5047 142.676 92.7847 141.412 92.7847ZM141.412 90.4087C142.116 90.4087 142.772 90.2407 143.38 89.9047C144.004 89.5687 144.508 89.0647 144.892 88.3927C145.276 87.7207 145.468 86.9047 145.468 85.9447C145.468 84.9847 145.284 84.1767 144.916 83.5207C144.548 82.8487 144.06 82.3447 143.452 82.0087C142.844 81.6727 142.188 81.5047 141.484 81.5047C140.78 81.5047 140.124 81.6727 139.516 82.0087C138.924 82.3447 138.452 82.8487 138.1 83.5207C137.748 84.1767 137.572 84.9847 137.572 85.9447C137.572 87.3687 137.932 88.4727 138.652 89.2567C139.388 90.0247 140.308 90.4087 141.412 90.4087ZM153.716 81.2887C154.18 80.6807 154.812 80.1687 155.612 79.7527C156.412 79.3367 157.316 79.1287 158.324 79.1287C159.476 79.1287 160.524 79.4167 161.468 79.9927C162.428 80.5527 163.18 81.3447 163.724 82.3687C164.268 83.3927 164.54 84.5687 164.54 85.8967C164.54 87.2247 164.268 88.4167 163.724 89.4727C163.18 90.5127 162.428 91.3287 161.468 91.9207C160.524 92.4967 159.476 92.7847 158.324 92.7847C157.316 92.7847 156.42 92.5847 155.636 92.1847C154.852 91.7687 154.212 91.2567 153.716 90.6487V98.8567H150.98V79.3447H153.716V81.2887ZM161.756 85.8967C161.756 84.9847 161.564 84.2007 161.18 83.5447C160.812 82.8727 160.316 82.3687 159.692 82.0327C159.084 81.6807 158.428 81.5047 157.724 81.5047C157.036 81.5047 156.38 81.6807 155.756 82.0327C155.148 82.3847 154.652 82.8967 154.268 83.5687C153.9 84.2407 153.716 85.0327 153.716 85.9447C153.716 86.8567 153.9 87.6567 154.268 88.3447C154.652 89.0167 155.148 89.5287 155.756 89.8807C156.38 90.2327 157.036 90.4087 157.724 90.4087C158.428 90.4087 159.084 90.2327 159.692 89.8807C160.316 89.5127 160.812 88.9847 161.18 88.2967C161.564 87.6087 161.756 86.8087 161.756 85.8967ZM183.254 79.1287C184.294 79.1287 185.222 79.3447 186.038 79.7767C186.87 80.2087 187.518 80.8487 187.982 81.6967C188.462 82.5447 188.702 83.5687 188.702 84.7687V92.5687H185.99V85.1767C185.99 83.9927 185.694 83.0887 185.102 82.4647C184.51 81.8247 183.702 81.5047 182.678 81.5047C181.654 81.5047 180.838 81.8247 180.23 82.4647C179.638 83.0887 179.342 83.9927 179.342 85.1767V92.5687H176.63V85.1767C176.63 83.9927 176.334 83.0887 175.742 82.4647C175.15 81.8247 174.342 81.5047 173.318 81.5047C172.294 81.5047 171.478 81.8247 170.87 82.4647C170.278 83.0887 169.982 83.9927 169.982 85.1767V92.5687H167.246V79.3447H169.982V80.8567C170.43 80.3127 170.998 79.8887 171.686 79.5847C172.374 79.2807 173.11 79.1287 173.894 79.1287C174.95 79.1287 175.894 79.3527 176.726 79.8007C177.558 80.2487 178.198 80.8967 178.646 81.7447C179.046 80.9447 179.67 80.3127 180.518 79.8487C181.366 79.3687 182.278 79.1287 183.254 79.1287ZM204.304 85.6327C204.304 86.1287 204.272 86.5767 204.208 86.9767H194.104C194.184 88.0327 194.576 88.8807 195.28 89.5207C195.984 90.1607 196.848 90.4807 197.872 90.4807C199.344 90.4807 200.384 89.8647 200.992 88.6327H203.944C203.544 89.8487 202.816 90.8487 201.76 91.6327C200.72 92.4007 199.424 92.7847 197.872 92.7847C196.608 92.7847 195.472 92.5047 194.464 91.9447C193.472 91.3687 192.688 90.5687 192.112 89.5447C191.552 88.5047 191.272 87.3047 191.272 85.9447C191.272 84.5847 191.544 83.3927 192.088 82.3687C192.648 81.3287 193.424 80.5287 194.416 79.9687C195.424 79.4087 196.576 79.1287 197.872 79.1287C199.12 79.1287 200.232 79.4007 201.208 79.9447C202.184 80.4887 202.944 81.2567 203.488 82.2487C204.032 83.2247 204.304 84.3527 204.304 85.6327ZM201.448 84.7687C201.432 83.7607 201.072 82.9527 200.368 82.3447C199.664 81.7367 198.792 81.4327 197.752 81.4327C196.808 81.4327 196 81.7367 195.328 82.3447C194.656 82.9367 194.256 83.7447 194.128 84.7687H201.448ZM213.668 79.1287C214.708 79.1287 215.636 79.3447 216.452 79.7767C217.284 80.2087 217.932 80.8487 218.396 81.6967C218.86 82.5447 219.092 83.5687 219.092 84.7687V92.5687H216.38V85.1767C216.38 83.9927 216.084 83.0887 215.492 82.4647C214.9 81.8247 214.092 81.5047 213.068 81.5047C212.044 81.5047 211.228 81.8247 210.62 82.4647C210.028 83.0887 209.732 83.9927 209.732 85.1767V92.5687H206.996V79.3447H209.732V80.8567C210.18 80.3127 210.748 79.8887 211.436 79.5847C212.14 79.2807 212.884 79.1287 213.668 79.1287ZM225.774 81.5767V88.8967C225.774 89.3927 225.886 89.7527 226.11 89.9767C226.35 90.1847 226.75 90.2887 227.31 90.2887H228.99V92.5687H226.83C225.598 92.5687 224.654 92.2807 223.998 91.7047C223.342 91.1287 223.014 90.1927 223.014 88.8967V81.5767H221.454V79.3447H223.014V76.0567H225.774V79.3447H228.99V81.5767H225.774Z" fill="#D8D8D8"/>
</svg>
