<svg width="285" height="288" viewBox="0 0 285 288" fill="none" xmlns="http://www.w3.org/2000/svg">
<rect width="284.136" height="270.902" rx="36" fill="#292929" fill-opacity="0.63"/>
<path d="M148.042 205.633C148.042 205.633 159.639 214.806 160.387 230.9C161.135 246.994 161.51 269.525 161.51 269.525H146.92L148.042 205.633Z" fill="#4E599C"/>
<path d="M117.039 194.971C117.039 194.971 148.603 195.494 149.912 213.198C152.209 244.256 148.79 270.116 148.79 270.116C148.79 270.116 57.1367 266.468 57.1367 270.814C57.1367 275.159 67.1475 220.904 81.3634 209.8C95.5788 198.695 106.865 194.684 117.039 194.971Z" fill="#5C6BBB"/>
<path d="M150.213 217.785C150.372 219.964 150.535 222.144 150.644 224.325C150.74 226.508 150.838 228.691 150.88 230.874C151 235.242 150.95 239.611 150.865 243.979C150.738 248.346 150.526 252.712 150.195 257.071C150.027 259.25 149.829 261.428 149.611 263.604C149.365 265.778 149.124 267.952 148.79 270.117C148.998 267.941 149.183 265.765 149.337 263.586C149.499 261.408 149.649 259.23 149.764 257.05C150.006 252.691 150.222 248.331 150.305 243.968C150.436 239.606 150.478 235.242 150.45 230.879C150.453 226.515 150.32 222.152 150.213 217.785Z" fill="#3F477C"/>
<path d="M117.064 189.079C117.064 189.079 111.925 191.754 111.171 194.833C110.469 197.699 120.776 216.4 134.437 214.682C148.097 212.964 137.841 194.706 137.841 194.706C137.841 194.706 121.2 187.977 117.064 189.079Z" fill="#E3A779"/>
<path d="M118.603 185.449L116.038 186.946C116.038 186.946 118.432 203.276 126.324 210.347C128.324 210.983 130.444 211.24 132.651 210.963C140.605 209.962 140.451 203.355 138.933 198.009C133.545 194.003 127.111 189.285 123.42 186.585C121.69 186.09 120.025 185.682 118.603 185.449Z" fill="#AE693D"/>
<path d="M114.073 183.978C114.073 183.978 105.259 168.703 108.652 157.693C112.045 146.683 125.438 146.28 125.438 146.28C125.438 146.28 133.2 134.948 150.531 140.478C167.862 146.008 168.268 155.196 168.268 155.196C168.268 155.196 181.373 154.6 183.416 162.123C185.459 169.646 184.229 177.287 167.278 180.085C150.327 182.883 131.09 186.862 131.09 186.862C131.09 186.862 126.182 189.028 123.55 188.272C120.919 187.515 114.073 183.978 114.073 183.978Z" fill="#3F477C"/>
<path d="M169.34 179.705C169.34 179.705 162.585 194.947 155.3 205.422C151.087 211.48 140.371 216.231 131.883 210.473C123.395 204.715 120.03 194.228 119.822 187.72C119.822 187.72 112.14 187.427 110.323 180.232C108.507 173.037 118.204 169.371 123.418 178.649C123.418 178.649 123.613 187.382 125.55 186.526C127.487 185.67 128.865 178.619 128.865 178.619C128.865 178.619 134.665 179.692 138.032 177.4C144.035 173.313 144.186 167.66 144.186 167.66C144.186 167.66 145.724 176.545 156.512 176.869C160.081 176.977 162.826 174.207 162.826 174.207C162.826 174.207 163.088 180.169 169.34 179.705Z" fill="#E3A779"/>
<path d="M154.658 191.133C154.967 192.387 155.13 193.665 155.199 194.949C155.267 196.232 155.215 197.531 154.895 198.814C154.725 199.451 154.476 200.091 154.025 200.661C153.794 200.939 153.482 201.194 153.135 201.365C152.964 201.443 152.797 201.527 152.624 201.6L152.082 201.781C151.345 201.99 150.549 202.037 149.796 201.915C149.05 201.777 148.34 201.495 147.786 201.063C149.039 201.756 150.62 201.896 151.935 201.432L152.417 201.236L152.877 201.004C153.167 200.847 153.394 200.646 153.587 200.4C153.962 199.904 154.196 199.313 154.347 198.707C154.665 197.492 154.734 196.219 154.768 194.953C154.783 194.319 154.773 193.683 154.747 193.046C154.739 192.409 154.695 191.773 154.658 191.133Z" fill="#AE693D"/>
<path d="M141.145 204.855C142.555 206.145 144.461 206.912 146.429 206.985C146.922 206.977 147.417 206.988 147.907 206.906C148.405 206.878 148.88 206.735 149.37 206.642C149.853 206.527 150.319 206.356 150.803 206.222C151.269 206.049 151.727 205.856 152.209 205.69C151.794 205.95 151.357 206.186 150.924 206.435C150.457 206.625 150 206.849 149.508 207.001C148.527 207.316 147.473 207.484 146.407 207.468C145.345 207.417 144.29 207.169 143.375 206.71C142.456 206.261 141.674 205.618 141.145 204.855Z" fill="#AE693D"/>
<path d="M160.188 194.573C159.806 195.698 158.933 196.467 158.238 196.293C157.543 196.118 157.289 195.065 157.671 193.94C158.052 192.816 158.925 192.046 159.621 192.22C160.316 192.395 160.57 193.448 160.188 194.573Z" fill="#3F477C"/>
<path d="M145.818 194.385C145.436 195.51 144.563 196.28 143.868 196.105C143.173 195.931 142.919 194.877 143.301 193.753C143.682 192.628 144.555 191.858 145.251 192.032C145.946 192.207 146.2 193.26 145.818 194.385Z" fill="#3F477C"/>
<path d="M157.555 187.348C158.682 187.8 159.749 184.951 161.803 185.123C163.856 185.295 164.304 187.729 165.009 187.303C165.714 186.876 164.58 185.036 163.04 184.336C161.499 183.636 159.571 184.243 158.721 185.143C157.872 186.043 156.917 187.092 157.555 187.348Z" fill="#3F477C"/>
<path d="M150.275 186.479C148.876 186.724 147.912 183.656 145.435 183.446C142.958 183.237 142.152 185.604 141.355 185.043C140.558 184.482 142.119 182.841 144.041 182.423C145.963 182.006 148.205 182.977 149.122 184.041C150.04 185.106 151.067 186.34 150.275 186.479Z" fill="#3F477C"/>
<path d="M179.571 243.213L186.633 257.845L167.711 271.811C167.711 271.811 136.5 271.811 141.042 264.984C145.585 258.158 179.571 243.213 179.571 243.213Z" fill="#5C6BBB"/>
<path d="M179.86 243.399C179.86 243.399 190.711 237.944 198.149 239.713C204.167 241.145 210.812 243.489 210.964 244.616C211.115 245.743 210.219 251.826 208.935 256.138C207.274 261.718 208.153 262.208 203.162 262.371C198.17 262.534 197.981 261.557 197.544 260.401C197.544 260.401 196.863 260.649 194.135 260.192C191.408 259.735 188.191 256.918 188.191 256.918L186.922 258.03L179.86 243.399Z" fill="#E3A779"/>
<path d="M189.82 240.86C189.82 240.86 192.661 238.066 201.706 239.276C204.195 239.609 205.762 242.236 205.762 242.236C205.762 242.236 212.429 243.503 212.81 245.973C213.191 248.443 211.294 252.206 206.72 250.22C206.72 250.22 206.133 251.339 204.475 252.135C202.817 252.931 195.134 254.594 190.848 251.433C186.562 248.272 189.82 240.86 189.82 240.86Z" fill="#E3A779"/>
<path d="M205.929 244.004C206.587 245.757 207.06 247.562 207.164 249.393C207.205 250.298 207.153 251.263 206.601 252.078C206.328 252.471 205.949 252.822 205.466 253.033C204.987 253.249 204.439 253.342 203.891 253.325C202.787 253.288 201.718 252.818 200.901 252.136C200.49 251.789 200.175 251.367 199.906 250.957C199.628 250.542 199.415 250.104 199.228 249.662C198.502 247.9 198.243 245.987 198.765 244.276C198.615 245.155 198.637 246.054 198.797 246.944C198.952 247.833 199.22 248.714 199.623 249.551C200.033 250.374 200.527 251.214 201.245 251.813C201.974 252.405 202.925 252.815 203.865 252.835C204.332 252.853 204.789 252.778 205.188 252.604C205.592 252.434 205.904 252.14 206.151 251.809C206.648 251.14 206.723 250.24 206.741 249.367C206.747 248.484 206.64 247.586 206.49 246.692C206.353 245.793 206.15 244.899 205.929 244.004Z" fill="#AE693D"/>
<path d="M188.112 250.549C189.303 252.038 191.093 253.044 192.976 253.292L193.685 253.364C193.921 253.378 194.157 253.357 194.394 253.36C194.874 253.389 195.331 253.272 195.807 253.244C196.27 253.162 196.731 253.061 197.198 252.969C197.652 252.847 198.101 252.709 198.571 252.598C198.162 252.81 197.733 252.995 197.308 253.197C196.858 253.346 196.404 253.501 195.933 253.618C194.978 253.814 193.968 253.924 192.938 253.777C191.917 253.628 190.903 253.267 190.058 252.693C189.207 252.132 188.521 251.379 188.112 250.549Z" fill="#AE693D"/>
<path d="M193.32 245.383C193.608 245.875 193.951 246.32 194.348 246.714C194.748 247.103 195.191 247.451 195.694 247.712C195.947 247.836 196.198 247.974 196.472 248.06C196.607 248.108 196.739 248.168 196.879 248.206C197.019 248.242 197.158 248.281 197.299 248.322C197.579 248.407 197.871 248.44 198.162 248.51C198.455 248.558 198.752 248.589 199.057 248.651C198.766 248.698 198.467 248.731 198.164 248.75C197.861 248.735 197.55 248.753 197.242 248.696C196.62 248.625 196.007 248.412 195.438 248.125C194.316 247.518 193.473 246.465 193.32 245.383Z" fill="#AE693D"/>
<path d="M199.393 249.537C199.15 249.79 198.954 250.075 198.796 250.372C198.642 250.671 198.542 250.993 198.52 251.319C198.488 251.645 198.555 251.977 198.7 252.283C198.83 252.595 199.079 252.864 199.328 253.12L199.452 253.248L199.333 253.373C198.621 254.12 197.929 254.973 197.71 255.911C197.608 256.38 197.736 256.842 198.134 257.151C198.329 257.306 198.57 257.437 198.836 257.528C199.096 257.621 199.369 257.676 199.659 257.722C200.235 257.81 200.829 257.851 201.422 257.872C202.016 257.899 202.612 257.913 203.207 257.91C204.397 257.904 205.59 257.885 206.784 257.853C205.62 258.028 204.441 258.157 203.249 258.221C202.057 258.29 200.859 258.332 199.618 258.182C198.998 258.102 198.328 257.921 197.785 257.498C197.513 257.287 197.295 256.994 197.204 256.683C197.108 256.373 197.119 256.066 197.178 255.787C197.3 255.226 197.585 254.749 197.907 254.31C198.232 253.871 198.598 253.47 199.021 253.102L199.027 253.355C198.763 253.053 198.506 252.735 198.378 252.369C198.238 252.011 198.185 251.628 198.256 251.275C198.397 250.569 198.829 249.973 199.393 249.537Z" fill="#AE693D"/>
<path d="M199.178 253.24C200.387 253.059 201.609 253.027 202.834 253.031C204.061 253.05 205.291 253.105 206.534 253.312C205.325 253.494 204.103 253.526 202.877 253.521C201.65 253.501 200.421 253.446 199.178 253.24Z" fill="#AE693D"/>
<path d="M198.846 257.782C198.62 258.179 198.421 258.502 198.232 258.847L197.946 259.368C197.847 259.545 197.755 259.729 197.614 259.921C197.437 259.466 197.519 258.996 197.732 258.599C197.846 258.404 197.992 258.223 198.18 258.08C198.364 257.936 198.584 257.816 198.846 257.782Z" fill="#AE693D"/>
<path d="M99.0275 206.058C104.134 207.456 108.567 214.866 107.07 225.166C105.513 235.885 84.2504 267.011 84.2504 267.011L47.5894 268.459C47.5894 268.459 75.6464 223.396 83.1281 215.027C90.6104 206.658 94.0592 204.699 99.0275 206.058Z" fill="#5C6BBB"/>
<path d="M96.6028 205.668C97.4535 205.685 98.3003 205.824 99.1111 206.048C99.913 206.298 100.696 206.623 101.364 207.088C102.732 207.981 103.803 209.171 104.651 210.447C105.487 211.732 106.139 213.11 106.572 214.535C107.014 215.957 107.331 217.412 107.459 218.88C107.634 220.347 107.603 221.824 107.523 223.294C107.433 224.027 107.387 224.76 107.26 225.492C107.14 226.228 106.946 226.948 106.738 227.663C105.858 230.514 104.602 233.248 103.286 235.951C100.583 241.334 97.5237 246.571 94.3274 251.739C91.1132 256.9 87.7721 262.002 84.251 267.009C85.9103 264.455 87.5578 261.895 89.166 259.318C90.7872 256.747 92.3864 254.166 93.9458 251.567C97.0596 246.369 100.118 241.14 102.771 235.762C104.097 233.078 105.362 230.359 106.245 227.553C106.454 226.85 106.648 226.144 106.768 225.431C106.896 224.717 106.947 223.987 107.04 223.266C107.12 221.815 107.176 220.359 107.031 218.91C106.931 217.459 106.643 216.021 106.231 214.614C105.83 213.202 105.207 211.839 104.412 210.561C103.614 209.288 102.594 208.096 101.273 207.189C99.9669 206.269 98.2986 205.762 96.6028 205.668Z" fill="#3F477C"/>
<path d="M143.721 234.923L110.038 203.855C109.251 203.129 107.951 203.036 107.036 203.641L105.991 204.331C105.101 204.919 104.956 206.024 105.671 206.767L136.005 238.303L146.947 242.89L143.721 234.923Z" fill="#3F477C"/>
<path d="M43.1367 271.034C43.6586 270.735 87.7273 239.235 93.8673 234.845C94.3274 234.517 94.5743 234.34 94.5743 234.34L103.739 246.41L85.6997 271.034H43.1367Z" fill="#5C6BBB"/>
<path d="M103.741 246.41L89.6273 263.44L88.5229 262.987L103.741 246.41Z" fill="#3F477C"/>
<path d="M43.1367 271.036L49.4086 266.44L55.7018 261.867L68.3398 252.773L81.0564 243.761L87.4433 239.285L93.8673 234.848L87.619 239.468L81.332 244.048L68.6973 253.145L55.9756 262.152C51.716 265.133 47.4637 268.124 43.1367 271.036Z" fill="#3F477C"/>
<path d="M94.5742 234.34L98.5022 231.121C98.5022 231.121 106.732 218.125 110.754 216.999C114.775 215.873 122.912 214.625 126.279 216.798C129.646 218.97 135.07 224.201 136.473 224.603C137.876 225.006 137.221 228.035 134.322 228.587C131.423 229.138 128.324 226.065 128.324 226.065C128.324 226.065 132.358 231.008 129.552 233.294C129.552 233.294 130.698 234.648 129.763 236.674C128.827 238.7 126.653 240.938 122.071 243.353C117.488 245.767 115.845 242.387 115.845 242.387C115.845 242.387 113.467 245.847 110.1 245.927C106.733 246.008 105.985 245.042 105.704 245.203C105.424 245.364 103.74 246.41 103.74 246.41L94.5742 234.34Z" fill="#E3A779"/>
<path d="M128.43 232.33C127.834 231.822 127.224 231.339 126.616 230.859C126 230.386 125.377 229.925 124.73 229.49C124.093 229.044 123.415 228.648 122.731 228.258C122.041 227.873 121.32 227.534 120.574 227.199C121.39 227.356 122.202 227.59 122.949 227.931C123.699 228.265 124.416 228.659 125.077 229.111C126.392 230.017 127.572 231.083 128.43 232.33Z" fill="#AE693D"/>
<path d="M127.376 225.646C126.78 225.138 126.17 224.655 125.562 224.176C124.946 223.703 124.323 223.241 123.676 222.807C123.039 222.36 122.362 221.965 121.678 221.574C120.987 221.189 120.266 220.851 119.52 220.516C120.336 220.672 121.148 220.906 121.895 221.247C122.646 221.582 123.363 221.975 124.023 222.427C125.339 223.334 126.518 224.4 127.376 225.646Z" fill="#AE693D"/>
<path d="M118.61 234.844C119.372 235.792 120.445 236.435 121.639 236.768C122.239 236.934 122.87 237.012 123.512 237.057C123.834 237.076 124.159 237.067 124.488 237.081C124.815 237.07 125.144 237.054 125.484 237.059C125.17 237.158 124.846 237.239 124.52 237.316C124.188 237.358 123.852 237.421 123.512 237.433C122.83 237.465 122.135 237.403 121.468 237.227C120.809 237.035 120.184 236.738 119.682 236.324C119.18 235.917 118.781 235.407 118.61 234.844Z" fill="#AE693D"/>
<path d="M117.138 240.236C117.539 239.515 118.074 238.888 118.639 238.283C119.218 237.688 119.829 237.115 120.575 236.637C120.173 237.358 119.639 237.985 119.073 238.589C118.492 239.184 117.881 239.757 117.138 240.236Z" fill="#AE693D"/>
<path d="M197.119 255.47L159.603 244.514C158.074 244.068 156.456 243.909 154.868 244.05L75.223 251.128C73.8656 251.249 73.5407 252.727 74.7449 253.303L105.19 267.851C107.426 268.92 110.027 269.304 112.516 268.933L197.07 256.325C197.61 256.244 197.646 255.624 197.119 255.47Z" fill="#3F477C"/>
<path d="M122.717 265.395L122.675 265.376L90.7295 251.178L91.1958 251.136L158.133 245.082L158.161 245.09L192.224 254.904L191.679 254.986L122.717 265.395ZM91.6907 251.334L122.762 265.144L191.086 254.831L158.101 245.327L91.6907 251.334Z" fill="#5C6BBB"/>
<path d="M101.193 258.786C101.181 259.595 99.3083 260.176 97.0088 260.085C94.7092 259.994 92.8541 259.265 92.8653 258.457C92.8765 257.648 94.7496 257.067 97.0492 257.158C99.3487 257.249 101.204 257.978 101.193 258.786Z" fill="#5C6BBB"/>
<path d="M95.3708 254.973L86.0508 256.283L88.3576 257.265L97.8578 255.902L95.3708 254.973Z" fill="#5C6BBB"/>
<path d="M111.787 262.441L102.467 263.751L104.774 264.734L114.274 263.371L111.787 262.441Z" fill="#5C6BBB"/>
<path d="M106.789 260.117L97.4692 261.427L99.7761 262.41L109.276 261.046L106.789 260.117Z" fill="#5C6BBB"/>
<path d="M91.2336 252.941L81.9136 254.251L84.2199 255.234L93.72 253.87L91.2336 252.941Z" fill="#5C6BBB"/>
<path d="M108.159 37.7809V48.4129C108.159 49.6769 108.487 50.6289 109.143 51.2689C109.815 51.9089 110.743 52.2289 111.927 52.2289C113.127 52.2289 114.055 51.9089 114.711 51.2689C115.383 50.6289 115.719 49.6769 115.719 48.4129V37.7809H118.455V48.3649C118.455 49.7249 118.159 50.8769 117.567 51.8209C116.975 52.7649 116.183 53.4689 115.191 53.9329C114.199 54.3969 113.103 54.6289 111.903 54.6289C110.703 54.6289 109.607 54.3969 108.615 53.9329C107.639 53.4689 106.863 52.7649 106.287 51.8209C105.711 50.8769 105.423 49.7249 105.423 48.3649V37.7809H108.159ZM124.753 37.7809V54.4609H122.017V37.7809H124.753ZM137.225 31.8049L130.697 58.6609H128.009L134.513 31.8049H137.225ZM143.385 37.7809V48.4129C143.385 49.6769 143.713 50.6289 144.369 51.2689C145.041 51.9089 145.969 52.2289 147.153 52.2289C148.353 52.2289 149.281 51.9089 149.937 51.2689C150.609 50.6289 150.945 49.6769 150.945 48.4129V37.7809H153.681V48.3649C153.681 49.7249 153.385 50.8769 152.793 51.8209C152.201 52.7649 151.409 53.4689 150.417 53.9329C149.425 54.3969 148.329 54.6289 147.129 54.6289C145.929 54.6289 144.833 54.3969 143.841 53.9329C142.865 53.4689 142.089 52.7649 141.513 51.8209C140.937 50.8769 140.649 49.7249 140.649 48.3649V37.7809H143.385ZM164.9 46.1329L170.084 54.4609H167.012L163.244 48.4129L159.716 54.4609H156.668L161.852 46.1329L156.644 37.7809H159.716L163.508 43.8769L167.06 37.7809H170.108L164.9 46.1329ZM84.2112 73.7809C85.9872 73.7809 87.5392 74.1249 88.8672 74.8129C90.2112 75.4849 91.2432 76.4609 91.9632 77.7409C92.6992 79.0049 93.0672 80.4849 93.0672 82.1809C93.0672 83.8769 92.6992 85.3489 91.9632 86.5969C91.2432 87.8449 90.2112 88.8049 88.8672 89.4769C87.5392 90.1329 85.9872 90.4609 84.2112 90.4609H78.7632V73.7809H84.2112ZM84.2112 88.2289C86.1632 88.2289 87.6592 87.7009 88.6992 86.6449C89.7392 85.5889 90.2592 84.1009 90.2592 82.1809C90.2592 80.2449 89.7392 78.7329 88.6992 77.6449C87.6592 76.5569 86.1632 76.0129 84.2112 76.0129H81.4992V88.2289H84.2112ZM107.899 83.5249C107.899 84.0209 107.867 84.4689 107.803 84.8689H97.6988C97.7788 85.9249 98.1708 86.7729 98.8748 87.4129C99.5788 88.0529 100.443 88.3729 101.467 88.3729C102.939 88.3729 103.979 87.7569 104.587 86.5249H107.539C107.139 87.7409 106.411 88.7409 105.355 89.5249C104.315 90.2929 103.019 90.6769 101.467 90.6769C100.203 90.6769 99.0668 90.3969 98.0588 89.8369C97.0668 89.2609 96.2828 88.4609 95.7068 87.4369C95.1468 86.3969 94.8668 85.1969 94.8668 83.8369C94.8668 82.4769 95.1388 81.2849 95.6828 80.2609C96.2428 79.2209 97.0188 78.4209 98.0108 77.8609C99.0188 77.3009 100.171 77.0209 101.467 77.0209C102.715 77.0209 103.827 77.2929 104.803 77.8369C105.779 78.3809 106.539 79.1489 107.083 80.1409C107.627 81.1169 107.899 82.2449 107.899 83.5249ZM105.043 82.6609C105.027 81.6529 104.667 80.8449 103.963 80.2369C103.259 79.6289 102.387 79.3249 101.347 79.3249C100.403 79.3249 99.5948 79.6289 98.9228 80.2369C98.2508 80.8289 97.8508 81.6369 97.7228 82.6609H105.043ZM115.391 90.6769C114.351 90.6769 113.415 90.4929 112.583 90.1249C111.767 89.7409 111.119 89.2289 110.639 88.5889C110.159 87.9329 109.903 87.2049 109.871 86.4049H112.703C112.751 86.9649 113.015 87.4369 113.495 87.8209C113.991 88.1889 114.607 88.3729 115.343 88.3729C116.111 88.3729 116.703 88.2289 117.119 87.9409C117.551 87.6369 117.767 87.2529 117.767 86.7889C117.767 86.2929 117.527 85.9249 117.047 85.6849C116.583 85.4449 115.839 85.1809 114.815 84.8929C113.823 84.6209 113.015 84.3569 112.391 84.1009C111.767 83.8449 111.223 83.4529 110.759 82.9249C110.311 82.3969 110.087 81.7009 110.087 80.8369C110.087 80.1329 110.295 79.4929 110.711 78.9169C111.127 78.3249 111.719 77.8609 112.487 77.5249C113.271 77.1889 114.167 77.0209 115.175 77.0209C116.679 77.0209 117.887 77.4049 118.799 78.1729C119.727 78.9249 120.223 79.9569 120.287 81.2689H117.551C117.503 80.6769 117.263 80.2049 116.831 79.8529C116.399 79.5009 115.815 79.3249 115.079 79.3249C114.359 79.3249 113.807 79.4609 113.423 79.7329C113.039 80.0049 112.847 80.3649 112.847 80.8129C112.847 81.1649 112.975 81.4609 113.231 81.7009C113.487 81.9409 113.799 82.1329 114.167 82.2769C114.535 82.4049 115.079 82.5729 115.799 82.7809C116.759 83.0369 117.543 83.3009 118.151 83.5729C118.775 83.8289 119.311 84.2129 119.759 84.7249C120.207 85.2369 120.439 85.9169 120.455 86.7649C120.455 87.5169 120.247 88.1889 119.831 88.7809C119.415 89.3729 118.823 89.8369 118.055 90.1729C117.303 90.5089 116.415 90.6769 115.391 90.6769ZM124.804 75.4849C124.308 75.4849 123.892 75.3169 123.556 74.9809C123.22 74.6449 123.052 74.2289 123.052 73.7329C123.052 73.2369 123.22 72.8209 123.556 72.4849C123.892 72.1489 124.308 71.9809 124.804 71.9809C125.284 71.9809 125.692 72.1489 126.028 72.4849C126.364 72.8209 126.532 73.2369 126.532 73.7329C126.532 74.2289 126.364 74.6449 126.028 74.9809C125.692 75.3169 125.284 75.4849 124.804 75.4849ZM126.148 77.2369V90.4609H123.412V77.2369H126.148ZM135.068 77.0209C136.092 77.0209 136.996 77.2289 137.78 77.6449C138.58 78.0449 139.204 78.5489 139.652 79.1569V77.2369H142.412V90.6769C142.412 91.8929 142.156 92.9729 141.644 93.9169C141.132 94.8769 140.388 95.6289 139.412 96.1729C138.452 96.7169 137.3 96.9889 135.956 96.9889C134.164 96.9889 132.676 96.5649 131.492 95.7169C130.308 94.8849 129.636 93.7489 129.476 92.3089H132.188C132.396 92.9969 132.836 93.5489 133.508 93.9649C134.196 94.3969 135.012 94.6129 135.956 94.6129C137.06 94.6129 137.948 94.2769 138.62 93.6049C139.308 92.9329 139.652 91.9569 139.652 90.6769V88.4689C139.188 89.0929 138.556 89.6209 137.756 90.0529C136.972 90.4689 136.076 90.6769 135.068 90.6769C133.916 90.6769 132.86 90.3889 131.9 89.8129C130.956 89.2209 130.204 88.4049 129.644 87.3649C129.1 86.3089 128.828 85.1169 128.828 83.7889C128.828 82.4609 129.1 81.2849 129.644 80.2609C130.204 79.2369 130.956 78.4449 131.9 77.8849C132.86 77.3089 133.916 77.0209 135.068 77.0209ZM139.652 83.8369C139.652 82.9249 139.46 82.1329 139.076 81.4609C138.708 80.7889 138.22 80.2769 137.612 79.9249C137.004 79.5729 136.348 79.3969 135.644 79.3969C134.94 79.3969 134.284 79.5729 133.676 79.9249C133.068 80.2609 132.572 80.7649 132.188 81.4369C131.82 82.0929 131.636 82.8769 131.636 83.7889C131.636 84.7009 131.82 85.5009 132.188 86.1889C132.572 86.8769 133.068 87.4049 133.676 87.7729C134.3 88.1249 134.956 88.3009 135.644 88.3009C136.348 88.3009 137.004 88.1249 137.612 87.7729C138.22 87.4209 138.708 86.9089 139.076 86.2369C139.46 85.5489 139.652 84.7489 139.652 83.8369ZM152.677 77.0209C153.717 77.0209 154.645 77.2369 155.461 77.6689C156.293 78.1009 156.941 78.7409 157.405 79.5889C157.869 80.4369 158.101 81.4609 158.101 82.6609V90.4609H155.389V83.0689C155.389 81.8849 155.093 80.9809 154.501 80.3569C153.909 79.7169 153.101 79.3969 152.077 79.3969C151.053 79.3969 150.237 79.7169 149.629 80.3569C149.037 80.9809 148.741 81.8849 148.741 83.0689V90.4609H146.005V77.2369H148.741V78.7489C149.189 78.2049 149.757 77.7809 150.445 77.4769C151.149 77.1729 151.893 77.0209 152.677 77.0209ZM162.983 75.4849C162.487 75.4849 162.071 75.3169 161.735 74.9809C161.399 74.6449 161.231 74.2289 161.231 73.7329C161.231 73.2369 161.399 72.8209 161.735 72.4849C162.071 72.1489 162.487 71.9809 162.983 71.9809C163.463 71.9809 163.871 72.1489 164.207 72.4849C164.543 72.8209 164.711 73.2369 164.711 73.7329C164.711 74.2289 164.543 74.6449 164.207 74.9809C163.871 75.3169 163.463 75.4849 162.983 75.4849ZM164.327 77.2369V90.4609H161.591V77.2369H164.327ZM174.591 77.0209C175.631 77.0209 176.559 77.2369 177.375 77.6689C178.207 78.1009 178.855 78.7409 179.319 79.5889C179.783 80.4369 180.015 81.4609 180.015 82.6609V90.4609H177.303V83.0689C177.303 81.8849 177.007 80.9809 176.415 80.3569C175.823 79.7169 175.015 79.3969 173.991 79.3969C172.967 79.3969 172.151 79.7169 171.543 80.3569C170.951 80.9809 170.655 81.8849 170.655 83.0689V90.4609H167.919V77.2369H170.655V78.7489C171.103 78.2049 171.671 77.7809 172.359 77.4769C173.063 77.1729 173.807 77.0209 174.591 77.0209ZM188.833 77.0209C189.857 77.0209 190.761 77.2289 191.545 77.6449C192.345 78.0449 192.969 78.5489 193.417 79.1569V77.2369H196.177V90.6769C196.177 91.8929 195.921 92.9729 195.409 93.9169C194.897 94.8769 194.153 95.6289 193.177 96.1729C192.217 96.7169 191.065 96.9889 189.721 96.9889C187.929 96.9889 186.441 96.5649 185.257 95.7169C184.073 94.8849 183.401 93.7489 183.241 92.3089H185.953C186.161 92.9969 186.601 93.5489 187.273 93.9649C187.961 94.3969 188.777 94.6129 189.721 94.6129C190.825 94.6129 191.713 94.2769 192.385 93.6049C193.073 92.9329 193.417 91.9569 193.417 90.6769V88.4689C192.953 89.0929 192.321 89.6209 191.521 90.0529C190.737 90.4689 189.841 90.6769 188.833 90.6769C187.681 90.6769 186.625 90.3889 185.665 89.8129C184.721 89.2209 183.969 88.4049 183.409 87.3649C182.865 86.3089 182.593 85.1169 182.593 83.7889C182.593 82.4609 182.865 81.2849 183.409 80.2609C183.969 79.2369 184.721 78.4449 185.665 77.8849C186.625 77.3089 187.681 77.0209 188.833 77.0209ZM193.417 83.8369C193.417 82.9249 193.225 82.1329 192.841 81.4609C192.473 80.7889 191.985 80.2769 191.377 79.9249C190.769 79.5729 190.113 79.3969 189.409 79.3969C188.705 79.3969 188.049 79.5729 187.441 79.9249C186.833 80.2609 186.337 80.7649 185.953 81.4369C185.585 82.0929 185.401 82.8769 185.401 83.7889C185.401 84.7009 185.585 85.5009 185.953 86.1889C186.337 86.8769 186.833 87.4049 187.441 87.7729C188.065 88.1249 188.721 88.3009 189.409 88.3009C190.113 88.3009 190.769 88.1249 191.377 87.7729C191.985 87.4209 192.473 86.9089 192.841 86.2369C193.225 85.5489 193.417 84.7489 193.417 83.8369Z" fill="#D8D8D8"/>
</svg>
