<svg width="285" height="311" viewBox="0 0 285 311" fill="none" xmlns="http://www.w3.org/2000/svg">
<rect x="0.863281" y="0.0424805" width="284.136" height="270.902" rx="36" fill="#292929" fill-opacity="0.63"/>
<path d="M158.715 200.608C158.715 200.608 170.312 209.781 171.06 225.875C171.808 241.969 172.182 264.501 172.182 264.501H157.593L158.715 200.608Z" fill="#4E599C"/>
<path d="M127.711 189.946C127.711 189.946 159.276 190.469 160.585 208.172C162.882 239.231 159.463 265.09 159.463 265.09C159.463 265.09 67.8096 261.443 67.8096 265.788C67.8096 270.134 77.8203 215.879 92.0363 204.774C106.252 193.669 117.537 189.659 127.711 189.946Z" fill="#5C6BBB"/>
<path d="M160.886 212.758C161.044 214.937 161.207 217.116 161.316 219.298C161.412 221.481 161.511 223.663 161.552 225.847C161.673 230.215 161.622 234.584 161.538 238.952C161.411 243.319 161.199 247.685 160.868 252.044C160.7 254.223 160.501 256.401 160.283 258.577C160.037 260.751 159.796 262.925 159.462 265.09C159.67 262.914 159.856 260.738 160.009 258.559C160.171 256.381 160.322 254.203 160.437 252.023C160.678 247.664 160.894 243.304 160.977 238.941C161.108 234.579 161.15 230.215 161.122 225.852C161.125 221.487 160.992 217.125 160.886 212.758Z" fill="#3F477C"/>
<path d="M125.921 185.584C125.921 185.584 120.783 188.259 120.029 191.338C119.327 194.204 129.634 212.905 143.294 211.187C156.955 209.469 146.699 191.211 146.699 191.211C146.699 191.211 130.058 184.482 125.921 185.584Z" fill="#E3A779"/>
<path d="M129.247 185.674L126.682 187.171C126.682 187.171 129.075 203.501 136.968 210.572C138.968 211.207 141.087 211.465 143.295 211.188C151.249 210.187 151.094 203.58 149.577 198.234C144.189 194.228 137.754 189.51 134.063 186.81C132.334 186.315 130.669 185.907 129.247 185.674Z" fill="#AE693D"/>
<path d="M124.717 184.203C124.717 184.203 115.903 168.929 119.296 157.919C122.689 146.909 136.082 146.506 136.082 146.506C136.082 146.506 143.844 135.173 161.175 140.704C178.507 146.234 178.912 155.422 178.912 155.422C178.912 155.422 192.017 154.825 194.06 162.349C196.103 169.872 194.873 177.513 177.922 180.311C160.971 183.109 141.734 187.088 141.734 187.088C141.734 187.088 136.826 189.254 134.194 188.498C131.563 187.741 124.717 184.203 124.717 184.203Z" fill="#3F477C"/>
<path d="M179.985 179.931C179.985 179.931 173.23 195.173 165.944 205.648C161.731 211.706 151.016 216.457 142.528 210.699C134.04 204.941 130.674 194.454 130.467 187.946C130.467 187.946 122.784 187.653 120.968 180.458C119.151 173.263 128.849 169.597 134.062 178.875C134.062 178.875 134.258 187.608 136.195 186.752C138.132 185.896 139.51 178.845 139.51 178.845C139.51 178.845 145.309 179.918 148.677 177.626C154.679 173.54 154.831 167.886 154.831 167.886C154.831 167.886 156.369 176.771 167.157 177.095C170.725 177.203 173.471 174.433 173.471 174.433C173.471 174.433 173.733 180.395 179.985 179.931Z" fill="#E3A779"/>
<path d="M165.302 191.357C165.61 192.612 165.774 193.889 165.842 195.173C165.91 196.457 165.859 197.756 165.539 199.038C165.369 199.675 165.119 200.315 164.668 200.886C164.437 201.164 164.125 201.419 163.778 201.59C163.608 201.668 163.441 201.751 163.267 201.825L162.726 202.006C161.989 202.214 161.192 202.261 160.44 202.139C159.693 202.001 158.984 201.719 158.43 201.288C159.682 201.981 161.264 202.121 162.578 201.656L163.06 201.461L163.52 201.229C163.81 201.072 164.038 200.871 164.231 200.624C164.605 200.129 164.84 199.537 164.991 198.931C165.308 197.716 165.378 196.444 165.411 195.178C165.427 194.543 165.417 193.907 165.39 193.271C165.383 192.633 165.339 191.997 165.302 191.357Z" fill="#AE693D"/>
<path d="M151.789 205.082C153.2 206.372 155.106 207.139 157.074 207.212C157.567 207.204 158.062 207.215 158.551 207.133C159.05 207.105 159.524 206.962 160.015 206.869C160.498 206.754 160.964 206.583 161.448 206.449C161.914 206.276 162.372 206.083 162.854 205.917C162.438 206.177 162.001 206.413 161.568 206.662C161.101 206.852 160.644 207.076 160.152 207.228C159.171 207.543 158.118 207.711 157.052 207.695C155.989 207.644 154.934 207.396 154.02 206.937C153.1 206.488 152.319 205.845 151.789 205.082Z" fill="#AE693D"/>
<path d="M170.833 194.798C170.45 195.923 169.577 196.693 168.883 196.519C168.187 196.344 167.934 195.29 168.315 194.166C168.697 193.041 169.57 192.271 170.265 192.446C170.96 192.62 171.215 193.674 170.833 194.798Z" fill="#3F477C"/>
<path d="M156.461 194.611C156.079 195.736 155.206 196.506 154.511 196.332C153.816 196.157 153.563 195.103 153.944 193.979C154.326 192.854 155.199 192.084 155.894 192.259C156.589 192.433 156.844 193.486 156.461 194.611Z" fill="#3F477C"/>
<path d="M168.199 187.574C169.326 188.026 170.393 185.177 172.447 185.349C174.5 185.521 174.948 187.955 175.653 187.529C176.358 187.102 175.224 185.262 173.684 184.562C172.143 183.862 170.215 184.469 169.365 185.369C168.516 186.269 167.561 187.318 168.199 187.574Z" fill="#3F477C"/>
<path d="M160.919 186.705C159.521 186.95 158.556 183.882 156.079 183.673C153.602 183.463 152.796 185.831 151.999 185.269C151.202 184.708 152.763 183.067 154.685 182.65C156.607 182.232 158.849 183.204 159.766 184.268C160.684 185.332 161.711 186.566 160.919 186.705Z" fill="#3F477C"/>
<path d="M197.062 228.287L208.281 240.038L194.066 261.926C194.066 261.926 166.909 261.174 167.096 260.852C167.283 260.531 197.062 228.287 197.062 228.287Z" fill="#5C6BBB"/>
<path d="M197.062 228.287C197.062 228.287 205.71 219.76 213.332 219.156C219.498 218.667 226.542 218.855 227.033 219.881C227.524 220.907 228.542 226.97 228.646 231.468C228.782 237.288 229.769 237.485 225.069 239.174C220.37 240.864 219.889 239.993 219.118 239.028C219.118 239.028 218.546 239.473 215.81 239.877C213.075 240.281 209.147 238.589 209.147 238.589L208.281 240.038L197.062 228.287Z" fill="#E3A779"/>
<path d="M232.224 215.837C232.224 215.837 225.35 214.207 224.438 219.639C223.526 225.071 225.841 230.261 235.38 229.597V226.761C235.38 226.761 227.524 227.847 226.823 223.924C226.122 220.001 227.954 218.56 229.818 218.251C231.088 218.04 232.505 218.432 232.505 218.432L232.224 215.837Z" fill="#DD5655"/>
<path d="M230.353 213.782C230.353 213.782 231.726 227.92 234.474 230.499C237.221 233.077 246.149 232.385 248.286 229.492C250.423 226.599 252.331 213.782 252.331 213.782H230.353Z" fill="#DD5655"/>
<path d="M231.989 214.69C232.13 215.738 232.269 216.785 232.445 217.827C232.606 218.871 232.786 219.912 232.998 220.947C233.422 223.014 233.889 225.087 234.712 227.045C235.123 228.012 235.605 228.997 236.405 229.71C236.611 229.884 236.821 230.023 237.083 230.134C237.354 230.235 237.615 230.36 237.894 230.444C238.454 230.612 239.03 230.74 239.622 230.81C240.807 230.949 242.028 230.867 243.213 230.654C244.405 230.453 245.564 230.102 246.673 229.654C244.563 230.714 242.087 231.364 239.573 231.179C239.259 231.167 238.952 231.098 238.64 231.06C238.33 231.01 238.033 230.909 237.729 230.836C237.43 230.75 237.148 230.621 236.857 230.515C236.566 230.398 236.28 230.218 236.049 230.023C235.126 229.216 234.629 228.202 234.186 227.209C233.385 225.184 232.91 223.098 232.573 221.003C232.246 218.908 232.035 216.801 231.989 214.69Z" fill="#963D39"/>
<path d="M205.759 222.81C205.759 222.81 207.603 219.277 216.582 217.648C219.052 217.199 221.351 219.217 221.351 219.217C221.351 219.217 228.085 218.372 229.207 220.605C230.33 222.838 229.682 227.002 224.718 226.519C224.718 226.519 224.504 227.764 223.171 229.031C221.838 230.299 215.039 234.244 209.989 232.555C204.938 230.865 205.759 222.81 205.759 222.81Z" fill="#E3A779"/>
<path d="M222.053 220.846C223.218 222.312 224.223 223.884 224.886 225.594C225.203 226.443 225.451 227.377 225.176 228.322C225.037 228.78 224.785 229.231 224.389 229.581C224.001 229.933 223.507 230.19 222.981 230.342C221.919 230.647 220.757 230.528 219.77 230.13C219.272 229.926 218.843 229.622 218.46 229.315C218.069 229.005 217.732 228.654 217.417 228.291C216.185 226.838 215.349 225.097 215.32 223.308C215.448 224.19 215.745 225.04 216.172 225.837C216.592 226.635 217.118 227.391 217.758 228.064C218.402 228.721 219.13 229.368 219.998 229.717C220.873 230.056 221.904 230.154 222.805 229.884C223.255 229.758 223.667 229.545 223.993 229.257C224.326 228.971 224.532 228.595 224.665 228.205C224.933 227.416 224.727 226.536 224.475 225.7C224.21 224.858 223.832 224.036 223.414 223.231C223.007 222.418 222.539 221.63 222.053 220.846Z" fill="#AE693D"/>
<path d="M207.113 232.555C208.705 233.605 210.717 234.012 212.585 233.669L213.281 233.519C213.511 233.46 213.729 233.368 213.955 233.298C214.42 233.177 214.819 232.926 215.264 232.752C215.68 232.532 216.087 232.294 216.503 232.063C216.898 231.807 217.282 231.538 217.696 231.288C217.372 231.616 217.02 231.924 216.678 232.246C216.295 232.526 215.911 232.813 215.5 233.07C214.651 233.549 213.723 233.965 212.698 234.142C211.681 234.314 210.605 234.282 209.624 233.996C208.642 233.724 207.757 233.218 207.113 232.555Z" fill="#AE693D"/>
<path d="M210.479 226.037C210.905 226.417 211.368 226.735 211.867 226.987C212.368 227.234 212.896 227.429 213.455 227.522C213.734 227.563 214.015 227.617 214.303 227.615C214.446 227.618 214.59 227.636 214.734 227.629C214.878 227.619 215.023 227.614 215.169 227.61C215.462 227.604 215.75 227.546 216.049 227.523C216.342 227.478 216.634 227.417 216.943 227.382C216.681 227.516 216.407 227.64 216.125 227.751C215.831 227.83 215.541 227.943 215.231 227.983C214.617 228.107 213.968 228.093 213.339 227.994C212.084 227.762 210.958 227.02 210.479 226.037Z" fill="#AE693D"/>
<path d="M217.536 228.122C217.382 228.437 217.284 228.769 217.225 229.1C217.17 229.432 217.174 229.769 217.254 230.086C217.323 230.407 217.49 230.702 217.721 230.948C217.941 231.205 218.261 231.384 218.576 231.551L218.734 231.635L218.659 231.791C218.211 232.72 217.815 233.744 217.895 234.705C217.942 235.183 218.206 235.582 218.679 235.754C218.913 235.842 219.182 235.892 219.464 235.897C219.74 235.905 220.016 235.874 220.306 235.829C220.881 235.735 221.459 235.591 222.03 235.429C222.603 235.272 223.175 235.102 223.74 234.917C224.871 234.544 226 234.16 227.127 233.762C226.072 234.287 224.991 234.772 223.876 235.2C222.763 235.632 221.635 236.04 220.409 236.279C219.794 236.394 219.101 236.427 218.454 236.192C218.131 236.075 217.833 235.862 217.651 235.595C217.464 235.329 217.38 235.033 217.35 234.75C217.294 234.179 217.419 233.638 217.59 233.121C217.765 232.603 217.989 232.109 218.279 231.629L218.362 231.868C218.018 231.661 217.675 231.438 217.441 231.128C217.198 230.831 217.029 230.483 216.988 230.126C216.906 229.41 217.133 228.71 217.536 228.122Z" fill="#AE693D"/>
<path d="M218.47 231.709C219.565 231.165 220.718 230.759 221.885 230.385C223.058 230.026 224.245 229.701 225.491 229.515C224.397 230.061 223.244 230.467 222.076 230.839C220.903 231.197 219.715 231.522 218.47 231.709Z" fill="#AE693D"/>
<path d="M219.551 236.136C219.458 236.583 219.369 236.952 219.295 237.338L219.183 237.921C219.142 238.121 219.112 238.324 219.037 238.55C218.728 238.171 218.662 237.7 218.742 237.256C218.791 237.035 218.875 236.818 219.009 236.624C219.14 236.43 219.313 236.249 219.551 236.136Z" fill="#AE693D"/>
<path d="M109.673 206.285C114.779 207.682 119.212 215.093 117.715 225.393C116.158 236.112 94.8955 267.237 94.8955 267.237L58.2344 268.686C58.2344 268.686 86.2915 223.623 93.7732 215.254C101.255 206.885 104.704 204.925 109.673 206.285Z" fill="#5C6BBB"/>
<path d="M107.248 205.894C108.099 205.911 108.946 206.051 109.757 206.275C110.559 206.524 111.342 206.85 112.009 207.314C113.378 208.207 114.449 209.397 115.297 210.673C116.132 211.958 116.785 213.336 117.218 214.761C117.66 216.183 117.977 217.638 118.105 219.107C118.28 220.573 118.249 222.05 118.169 223.52C118.078 224.253 118.032 224.986 117.906 225.718C117.785 226.455 117.591 227.174 117.383 227.889C116.504 230.74 115.247 233.474 113.932 236.177C111.229 241.56 108.169 246.798 104.973 251.966C101.759 257.126 98.4176 262.228 94.8965 267.236C96.5558 264.681 98.2033 262.122 99.8115 259.544C101.433 256.973 103.032 254.392 104.591 251.793C107.705 246.595 110.764 241.366 113.416 235.989C114.742 233.304 116.008 230.585 116.89 227.779C117.099 227.076 117.293 226.37 117.414 225.657C117.542 224.943 117.592 224.213 117.686 223.492C117.766 222.042 117.822 220.585 117.677 219.136C117.576 217.686 117.288 216.247 116.876 214.84C116.476 213.428 115.853 212.065 115.058 210.788C114.259 209.514 113.239 208.322 111.919 207.415C110.612 206.495 108.944 205.988 107.248 205.894Z" fill="#3F477C"/>
<path d="M154.366 235.15L120.682 204.081C119.895 203.356 118.596 203.263 117.681 203.867L116.635 204.558C115.746 205.145 115.601 206.251 116.316 206.994L146.649 238.53L157.592 243.117L154.366 235.15Z" fill="#3F477C"/>
<path d="M53.7812 271.261C54.3031 270.962 98.3718 239.462 104.512 235.072C104.972 234.744 105.219 234.567 105.219 234.567L114.384 246.637L96.3442 271.261H53.7812Z" fill="#5C6BBB"/>
<path d="M114.385 246.637L100.271 263.667L99.167 263.214L114.385 246.637Z" fill="#3F477C"/>
<path d="M53.7812 271.261L60.0531 266.665L66.3463 262.092L78.9844 252.998L91.701 243.987L98.0879 239.51L104.512 235.073L98.2635 239.693L91.9765 244.273L79.3418 253.37L66.6202 262.377C62.3605 265.358 58.1082 268.349 53.7812 271.261Z" fill="#3F477C"/>
<path d="M105.219 234.567L109.147 231.348C109.147 231.348 117.377 218.352 121.398 217.225C125.42 216.099 133.556 214.851 136.923 217.024C140.29 219.197 145.715 224.427 147.118 224.83C148.52 225.233 147.866 228.261 144.967 228.813C142.067 229.365 138.968 226.291 138.968 226.291C138.968 226.291 143.003 231.234 140.197 233.521C140.197 233.521 141.343 234.874 140.407 236.9C139.472 238.926 137.298 241.165 132.715 243.579C128.132 245.993 126.489 242.613 126.489 242.613C126.489 242.613 124.111 246.074 120.744 246.154C117.378 246.235 116.63 245.269 116.349 245.43C116.068 245.59 114.385 246.637 114.385 246.637L105.219 234.567Z" fill="#E3A779"/>
<path d="M139.075 232.555C138.479 232.047 137.869 231.564 137.261 231.085C136.645 230.612 136.022 230.15 135.375 229.715C134.738 229.269 134.06 228.873 133.376 228.483C132.686 228.098 131.965 227.76 131.219 227.424C132.035 227.581 132.847 227.815 133.594 228.156C134.344 228.491 135.061 228.884 135.722 229.336C137.037 230.243 138.217 231.309 139.075 232.555Z" fill="#AE693D"/>
<path d="M138.021 225.873C137.425 225.365 136.815 224.882 136.207 224.403C135.591 223.93 134.968 223.468 134.321 223.034C133.685 222.587 133.007 222.191 132.323 221.801C131.632 221.416 130.911 221.078 130.165 220.743C130.982 220.899 131.793 221.133 132.54 221.474C133.291 221.809 134.008 222.202 134.668 222.654C135.984 223.561 137.163 224.627 138.021 225.873Z" fill="#AE693D"/>
<path d="M129.255 235.072C130.017 236.021 131.09 236.664 132.283 236.997C132.884 237.163 133.515 237.241 134.157 237.285C134.479 237.305 134.803 237.296 135.132 237.31C135.459 237.298 135.789 237.282 136.129 237.288C135.815 237.387 135.491 237.467 135.164 237.545C134.832 237.587 134.497 237.649 134.156 237.662C133.475 237.694 132.779 237.632 132.112 237.456C131.453 237.264 130.828 236.966 130.327 236.552C129.824 236.145 129.425 235.636 129.255 235.072Z" fill="#AE693D"/>
<path d="M127.782 240.461C128.184 239.74 128.719 239.113 129.284 238.508C129.863 237.913 130.474 237.34 131.219 236.862C130.818 237.583 130.284 238.211 129.718 238.815C129.137 239.409 128.526 239.982 127.782 240.461Z" fill="#AE693D"/>
<path d="M220.669 266.529L183.153 255.573C181.624 255.127 180.005 254.968 178.417 255.109L98.7728 262.188C97.4154 262.308 97.0905 263.786 98.2947 264.362L128.739 278.91C130.976 279.979 133.577 280.363 136.066 279.992L220.62 267.384C221.16 267.303 221.195 266.683 220.669 266.529Z" fill="#3F477C"/>
<path d="M146.267 276.455L146.225 276.436L114.279 262.238L114.746 262.195L181.683 256.142L181.711 256.15L215.774 265.964L215.229 266.046L146.267 276.455ZM115.241 262.393L146.312 276.203L214.636 265.89L181.651 256.387L115.241 262.393Z" fill="#5C6BBB"/>
<path d="M124.742 269.845C124.731 270.653 122.858 271.235 120.559 271.143C118.259 271.053 116.404 270.323 116.415 269.515C116.426 268.707 118.299 268.125 120.599 268.216C122.899 268.307 124.754 269.036 124.742 269.845Z" fill="#5C6BBB"/>
<path d="M118.921 266.031L109.601 267.341L111.907 268.324L121.408 266.96L118.921 266.031Z" fill="#5C6BBB"/>
<path d="M135.337 273.502L126.017 274.812L128.323 275.795L137.824 274.431L135.337 273.502Z" fill="#5C6BBB"/>
<path d="M130.339 271.175L121.019 272.485L123.325 273.468L132.826 272.104L130.339 271.175Z" fill="#5C6BBB"/>
<path d="M114.783 264.001L105.463 265.311L107.769 266.294L117.269 264.93L114.783 264.001Z" fill="#5C6BBB"/>
<path d="M212.558 270.321L126.483 283.588C125.553 283.731 125.288 284.929 126.055 285.522L157.124 309.55C158.643 310.725 160.559 311.22 162.397 310.91L251.139 295.947L212.558 270.321Z" fill="#C1C3C0"/>
<path d="M145.31 292.395L175.571 287.88C175.571 287.88 179.245 299.943 178.774 300.289C178.303 300.636 161.302 305.622 161.302 305.622L145.31 292.395Z" fill="#828187"/>
<path d="M257.522 227.556L163.951 237.74C162.571 237.89 161.539 239.018 161.5 240.419L159.614 307.719C159.562 309.593 161.27 311.099 163.097 310.791L251.139 295.947C252.35 295.743 253.263 294.779 253.409 293.55L260.823 230.91C261.046 229.017 259.407 227.351 257.522 227.556Z" fill="#A4A2A7"/>
<path d="M220.162 274.284C223.256 270.727 222.744 265.9 219.02 263.503C215.296 261.105 209.769 262.045 206.676 265.602C203.583 269.159 204.094 273.986 207.818 276.384C211.543 278.781 217.069 277.841 220.162 274.284Z" fill="#C1C3C0"/>
<path d="M109.022 37.823V48.455C109.022 49.719 109.35 50.671 110.006 51.311C110.678 51.951 111.606 52.271 112.79 52.271C113.99 52.271 114.918 51.951 115.574 51.311C116.246 50.671 116.582 49.719 116.582 48.455V37.823H119.318V48.407C119.318 49.767 119.022 50.919 118.43 51.863C117.838 52.807 117.046 53.511 116.054 53.975C115.062 54.439 113.966 54.671 112.766 54.671C111.566 54.671 110.47 54.439 109.478 53.975C108.502 53.511 107.726 52.807 107.15 51.863C106.574 50.919 106.286 49.767 106.286 48.407V37.823H109.022ZM125.616 37.823V54.503H122.88V37.823H125.616ZM138.088 31.847L131.56 58.703H128.872L135.376 31.847H138.088ZM144.249 37.823V48.455C144.249 49.719 144.577 50.671 145.233 51.311C145.905 51.951 146.833 52.271 148.017 52.271C149.217 52.271 150.145 51.951 150.801 51.311C151.473 50.671 151.809 49.719 151.809 48.455V37.823H154.545V48.407C154.545 49.767 154.249 50.919 153.657 51.863C153.065 52.807 152.273 53.511 151.281 53.975C150.289 54.439 149.193 54.671 147.993 54.671C146.793 54.671 145.697 54.439 144.705 53.975C143.729 53.511 142.953 52.807 142.377 51.863C141.801 50.919 141.513 49.767 141.513 48.407V37.823H144.249ZM165.763 46.175L170.947 54.503H167.875L164.107 48.455L160.579 54.503H157.531L162.715 46.175L157.507 37.823H160.579L164.371 43.919L167.923 37.823H170.971L165.763 46.175ZM52.5465 83.831C52.5465 82.503 52.8185 81.327 53.3625 80.303C53.9225 79.279 54.6745 78.487 55.6185 77.927C56.5785 77.351 57.6345 77.063 58.7865 77.063C59.8265 77.063 60.7305 77.271 61.4985 77.687C62.2825 78.087 62.9065 78.591 63.3705 79.199V77.279H66.1305V90.503H63.3705V88.535C62.9065 89.159 62.2745 89.679 61.4745 90.095C60.6745 90.511 59.7625 90.719 58.7385 90.719C57.6025 90.719 56.5625 90.431 55.6185 89.855C54.6745 89.263 53.9225 88.447 53.3625 87.407C52.8185 86.351 52.5465 85.159 52.5465 83.831ZM63.3705 83.879C63.3705 82.967 63.1785 82.175 62.7945 81.503C62.4265 80.831 61.9385 80.319 61.3305 79.967C60.7225 79.615 60.0665 79.439 59.3625 79.439C58.6585 79.439 58.0025 79.615 57.3945 79.967C56.7865 80.303 56.2905 80.807 55.9065 81.479C55.5385 82.135 55.3545 82.919 55.3545 83.831C55.3545 84.743 55.5385 85.543 55.9065 86.231C56.2905 86.919 56.7865 87.447 57.3945 87.815C58.0185 88.167 58.6745 88.343 59.3625 88.343C60.0665 88.343 60.7225 88.167 61.3305 87.815C61.9385 87.463 62.4265 86.951 62.7945 86.279C63.1785 85.591 63.3705 84.791 63.3705 83.879ZM76.3961 77.063C77.4361 77.063 78.3641 77.279 79.1801 77.711C80.0121 78.143 80.6601 78.783 81.1241 79.631C81.5881 80.479 81.8201 81.503 81.8201 82.703V90.503H79.1081V83.111C79.1081 81.927 78.8121 81.023 78.2201 80.399C77.6281 79.759 76.8201 79.439 75.7961 79.439C74.7721 79.439 73.9561 79.759 73.3481 80.399C72.7561 81.023 72.4601 81.927 72.4601 83.111V90.503H69.7241V77.279H72.4601V78.791C72.9081 78.247 73.4761 77.823 74.1641 77.519C74.8681 77.215 75.6121 77.063 76.3961 77.063ZM84.398 83.831C84.398 82.503 84.67 81.327 85.214 80.303C85.774 79.279 86.526 78.487 87.47 77.927C88.43 77.351 89.494 77.063 90.662 77.063C91.526 77.063 92.374 77.255 93.206 77.639C94.054 78.007 94.726 78.503 95.222 79.127V72.743H97.982V90.503H95.222V88.511C94.774 89.151 94.15 89.679 93.35 90.095C92.566 90.511 91.662 90.719 90.638 90.719C89.486 90.719 88.43 90.431 87.47 89.855C86.526 89.263 85.774 88.447 85.214 87.407C84.67 86.351 84.398 85.159 84.398 83.831ZM95.222 83.879C95.222 82.967 95.03 82.175 94.646 81.503C94.278 80.831 93.79 80.319 93.182 79.967C92.574 79.615 91.918 79.439 91.214 79.439C90.51 79.439 89.854 79.615 89.246 79.967C88.638 80.303 88.142 80.807 87.758 81.479C87.39 82.135 87.206 82.919 87.206 83.831C87.206 84.743 87.39 85.543 87.758 86.231C88.142 86.919 88.638 87.447 89.246 87.815C89.87 88.167 90.526 88.343 91.214 88.343C91.918 88.343 92.574 88.167 93.182 87.815C93.79 87.463 94.278 86.951 94.646 86.279C95.03 85.591 95.222 84.791 95.222 83.879ZM110.546 79.223C111.01 78.615 111.642 78.103 112.442 77.687C113.242 77.271 114.146 77.063 115.154 77.063C116.306 77.063 117.354 77.351 118.298 77.927C119.258 78.487 120.01 79.279 120.554 80.303C121.098 81.327 121.37 82.503 121.37 83.831C121.37 85.159 121.098 86.351 120.554 87.407C120.01 88.447 119.258 89.263 118.298 89.855C117.354 90.431 116.306 90.719 115.154 90.719C114.146 90.719 113.25 90.519 112.466 90.119C111.682 89.703 111.042 89.191 110.546 88.583V96.791H107.81V77.279H110.546V79.223ZM118.586 83.831C118.586 82.919 118.394 82.135 118.01 81.479C117.642 80.807 117.146 80.303 116.522 79.967C115.914 79.615 115.258 79.439 114.554 79.439C113.866 79.439 113.21 79.615 112.586 79.967C111.978 80.319 111.482 80.831 111.098 81.503C110.73 82.175 110.546 82.967 110.546 83.879C110.546 84.791 110.73 85.591 111.098 86.279C111.482 86.951 111.978 87.463 112.586 87.815C113.21 88.167 113.866 88.343 114.554 88.343C115.258 88.343 115.914 88.167 116.522 87.815C117.146 87.447 117.642 86.919 118.01 86.231C118.394 85.543 118.586 84.743 118.586 83.831ZM126.812 79.199C127.212 78.527 127.74 78.007 128.396 77.639C129.068 77.255 129.86 77.063 130.772 77.063V79.895H130.076C129.004 79.895 128.188 80.167 127.628 80.711C127.084 81.255 126.812 82.199 126.812 83.543V90.503H124.076V77.279H126.812V79.199ZM139.023 90.719C137.775 90.719 136.647 90.439 135.639 89.879C134.631 89.303 133.839 88.503 133.263 87.479C132.687 86.439 132.399 85.239 132.399 83.879C132.399 82.535 132.695 81.343 133.287 80.303C133.879 79.263 134.687 78.463 135.711 77.903C136.735 77.343 137.879 77.063 139.143 77.063C140.407 77.063 141.551 77.343 142.575 77.903C143.599 78.463 144.407 79.263 144.999 80.303C145.591 81.343 145.887 82.535 145.887 83.879C145.887 85.223 145.583 86.415 144.975 87.455C144.367 88.495 143.535 89.303 142.479 89.879C141.439 90.439 140.287 90.719 139.023 90.719ZM139.023 88.343C139.727 88.343 140.383 88.175 140.991 87.839C141.615 87.503 142.119 86.999 142.503 86.327C142.887 85.655 143.079 84.839 143.079 83.879C143.079 82.919 142.895 82.111 142.527 81.455C142.159 80.783 141.671 80.279 141.063 79.943C140.455 79.607 139.799 79.439 139.095 79.439C138.391 79.439 137.735 79.607 137.127 79.943C136.535 80.279 136.063 80.783 135.711 81.455C135.359 82.111 135.183 82.919 135.183 83.879C135.183 85.303 135.543 86.407 136.263 87.191C136.999 87.959 137.919 88.343 139.023 88.343ZM151.783 79.511V86.831C151.783 87.327 151.895 87.687 152.119 87.911C152.359 88.119 152.759 88.223 153.319 88.223H154.999V90.503H152.839C151.607 90.503 150.663 90.215 150.007 89.639C149.351 89.063 149.023 88.127 149.023 86.831V79.511H147.463V77.279H149.023V73.991H151.783V77.279H154.999V79.511H151.783ZM163.257 90.719C162.009 90.719 160.881 90.439 159.873 89.879C158.865 89.303 158.073 88.503 157.497 87.479C156.921 86.439 156.633 85.239 156.633 83.879C156.633 82.535 156.929 81.343 157.521 80.303C158.113 79.263 158.921 78.463 159.945 77.903C160.969 77.343 162.113 77.063 163.377 77.063C164.641 77.063 165.785 77.343 166.809 77.903C167.833 78.463 168.641 79.263 169.233 80.303C169.825 81.343 170.121 82.535 170.121 83.879C170.121 85.223 169.817 86.415 169.209 87.455C168.601 88.495 167.769 89.303 166.713 89.879C165.673 90.439 164.521 90.719 163.257 90.719ZM163.257 88.343C163.961 88.343 164.617 88.175 165.225 87.839C165.849 87.503 166.353 86.999 166.737 86.327C167.121 85.655 167.313 84.839 167.313 83.879C167.313 82.919 167.129 82.111 166.761 81.455C166.393 80.783 165.905 80.279 165.297 79.943C164.689 79.607 164.033 79.439 163.329 79.439C162.625 79.439 161.969 79.607 161.361 79.943C160.769 80.279 160.297 80.783 159.945 81.455C159.593 82.111 159.417 82.919 159.417 83.879C159.417 85.303 159.777 86.407 160.497 87.191C161.233 87.959 162.153 88.343 163.257 88.343ZM176.018 79.511V86.831C176.018 87.327 176.13 87.687 176.354 87.911C176.594 88.119 176.994 88.223 177.554 88.223H179.234V90.503H177.074C175.842 90.503 174.898 90.215 174.242 89.639C173.586 89.063 173.258 88.127 173.258 86.831V79.511H171.698V77.279H173.258V73.991H176.018V77.279H179.234V79.511H176.018ZM193.659 77.279L185.547 96.719H182.715L185.403 90.287L180.195 77.279H183.243L186.963 87.359L190.827 77.279H193.659ZM198.46 79.223C198.924 78.615 199.556 78.103 200.356 77.687C201.156 77.271 202.06 77.063 203.068 77.063C204.22 77.063 205.268 77.351 206.212 77.927C207.172 78.487 207.924 79.279 208.468 80.303C209.012 81.327 209.284 82.503 209.284 83.831C209.284 85.159 209.012 86.351 208.468 87.407C207.924 88.447 207.172 89.263 206.212 89.855C205.268 90.431 204.22 90.719 203.068 90.719C202.06 90.719 201.164 90.519 200.38 90.119C199.596 89.703 198.956 89.191 198.46 88.583V96.791H195.724V77.279H198.46V79.223ZM206.5 83.831C206.5 82.919 206.308 82.135 205.924 81.479C205.556 80.807 205.06 80.303 204.436 79.967C203.828 79.615 203.172 79.439 202.468 79.439C201.78 79.439 201.124 79.615 200.5 79.967C199.892 80.319 199.396 80.831 199.012 81.503C198.644 82.175 198.46 82.967 198.46 83.879C198.46 84.791 198.644 85.591 199.012 86.279C199.396 86.951 199.892 87.463 200.5 87.815C201.124 88.167 201.78 88.343 202.468 88.343C203.172 88.343 203.828 88.167 204.436 87.815C205.06 87.447 205.556 86.919 205.924 86.231C206.308 85.543 206.5 84.743 206.5 83.831ZM224.11 83.567C224.11 84.063 224.078 84.511 224.014 84.911H213.91C213.99 85.967 214.382 86.815 215.086 87.455C215.79 88.095 216.654 88.415 217.678 88.415C219.15 88.415 220.19 87.799 220.798 86.567H223.75C223.35 87.783 222.622 88.783 221.566 89.567C220.526 90.335 219.23 90.719 217.678 90.719C216.414 90.719 215.278 90.439 214.27 89.879C213.278 89.303 212.494 88.503 211.918 87.479C211.358 86.439 211.078 85.239 211.078 83.879C211.078 82.519 211.35 81.327 211.894 80.303C212.454 79.263 213.23 78.463 214.222 77.903C215.23 77.343 216.382 77.063 217.678 77.063C218.926 77.063 220.038 77.335 221.014 77.879C221.99 78.423 222.75 79.191 223.294 80.183C223.838 81.159 224.11 82.287 224.11 83.567ZM221.254 82.703C221.238 81.695 220.878 80.887 220.174 80.279C219.47 79.671 218.598 79.367 217.558 79.367C216.614 79.367 215.806 79.671 215.134 80.279C214.462 80.871 214.062 81.679 213.934 82.703H221.254Z" fill="#D8D8D8"/>
</svg>
