<svg width="285" height="288" viewBox="0 0 285 288" fill="none" xmlns="http://www.w3.org/2000/svg">
<rect width="284.136" height="270.902" rx="36" fill="#292929" fill-opacity="0.63"/>
<path d="M148.042 205.634C148.042 205.634 159.639 214.807 160.387 230.901C161.135 246.995 161.51 269.526 161.51 269.526H146.92L148.042 205.634Z" fill="#4E599C"/>
<path d="M117.039 194.972C117.039 194.972 148.603 195.495 149.912 213.198C152.209 244.256 148.79 270.116 148.79 270.116C148.79 270.116 57.1367 266.469 57.1367 270.814C57.1367 275.16 67.1475 220.905 81.3634 209.8C95.5788 198.695 106.865 194.685 117.039 194.972Z" fill="#5C6BBB"/>
<path d="M150.213 217.784C150.371 219.963 150.534 222.142 150.644 224.324C150.74 226.506 150.838 228.689 150.879 230.873C151 235.241 150.949 239.61 150.865 243.978C150.738 248.345 150.526 252.711 150.195 257.07C150.027 259.249 149.828 261.427 149.611 263.603C149.364 265.776 149.124 267.951 148.789 270.116C148.997 267.94 149.183 265.763 149.336 263.584C149.498 261.406 149.649 259.228 149.764 257.049C150.005 252.69 150.222 248.33 150.304 243.967C150.435 239.605 150.478 235.241 150.449 230.877C150.452 226.513 150.319 222.15 150.213 217.784Z" fill="#3F477C"/>
<path d="M117.063 189.08C117.063 189.08 111.924 191.755 111.171 194.833C110.469 197.699 120.776 216.401 134.436 214.683C148.096 212.965 137.84 194.707 137.84 194.707C137.84 194.707 121.199 187.977 117.063 189.08Z" fill="#E3A779"/>
<path d="M118.602 185.449L116.037 186.946C116.037 186.946 118.431 203.276 126.323 210.346C128.323 210.982 130.443 211.24 132.65 210.962C140.604 209.962 140.45 203.355 138.932 198.009C133.544 194.003 127.11 189.284 123.419 186.584C121.689 186.09 120.024 185.682 118.602 185.449Z" fill="#AE693D"/>
<path d="M114.072 183.978C114.072 183.978 105.258 168.703 108.651 157.694C112.045 146.684 125.437 146.28 125.437 146.28C125.437 146.28 133.2 134.948 150.531 140.478C167.862 146.009 168.267 155.197 168.267 155.197C168.267 155.197 181.372 154.6 183.415 162.123C185.458 169.647 184.229 177.288 167.278 180.086C150.327 182.884 131.09 186.863 131.09 186.863C131.09 186.863 126.181 189.029 123.55 188.272C120.919 187.516 114.072 183.978 114.072 183.978Z" fill="#3F477C"/>
<path d="M169.34 179.705C169.34 179.705 162.585 194.947 155.3 205.423C151.087 211.48 140.371 216.231 131.883 210.474C123.395 204.716 120.03 194.228 119.822 187.721C119.822 187.721 112.14 187.428 110.323 180.232C108.507 173.038 118.204 169.372 123.418 178.65C123.418 178.65 123.613 187.383 125.55 186.527C127.487 185.671 128.865 178.62 128.865 178.62C128.865 178.62 134.665 179.693 138.032 177.401C144.035 173.314 144.186 167.661 144.186 167.661C144.186 167.661 145.724 176.546 156.512 176.87C160.081 176.977 162.826 174.208 162.826 174.208C162.826 174.208 163.088 180.169 169.34 179.705Z" fill="#E3A779"/>
<path d="M154.657 191.132C154.966 192.386 155.129 193.664 155.198 194.948C155.266 196.232 155.214 197.53 154.894 198.813C154.724 199.45 154.475 200.09 154.024 200.66C153.793 200.938 153.481 201.193 153.134 201.364C152.963 201.443 152.796 201.526 152.623 201.599L152.081 201.781C151.344 201.989 150.548 202.036 149.795 201.914C149.049 201.776 148.339 201.494 147.785 201.063C149.038 201.755 150.619 201.895 151.934 201.431L152.416 201.235L152.876 201.003C153.166 200.846 153.393 200.645 153.586 200.399C153.961 199.903 154.195 199.312 154.346 198.706C154.664 197.491 154.733 196.218 154.767 194.953C154.782 194.318 154.772 193.682 154.746 193.045C154.738 192.408 154.694 191.772 154.657 191.132Z" fill="#AE693D"/>
<path d="M141.145 204.857C142.555 206.147 144.461 206.913 146.429 206.986C146.922 206.979 147.417 206.99 147.907 206.907C148.405 206.879 148.88 206.736 149.37 206.644C149.853 206.529 150.319 206.358 150.803 206.224C151.269 206.05 151.727 205.858 152.209 205.692C151.794 205.951 151.357 206.188 150.924 206.437C150.457 206.627 150 206.851 149.508 207.002C148.527 207.318 147.473 207.486 146.407 207.469C145.345 207.419 144.29 207.17 143.375 206.712C142.456 206.263 141.674 205.62 141.145 204.857Z" fill="#AE693D"/>
<path d="M160.188 194.573C159.806 195.698 158.933 196.468 158.238 196.293C157.543 196.119 157.289 195.065 157.671 193.941C158.052 192.816 158.925 192.046 159.621 192.22C160.316 192.395 160.57 193.449 160.188 194.573Z" fill="#3F477C"/>
<path d="M145.817 194.386C145.435 195.511 144.562 196.281 143.867 196.106C143.172 195.932 142.918 194.878 143.3 193.754C143.681 192.629 144.554 191.859 145.25 192.033C145.945 192.208 146.199 193.261 145.817 194.386Z" fill="#3F477C"/>
<path d="M157.555 187.348C158.682 187.801 159.749 184.951 161.802 185.123C163.855 185.295 164.304 187.73 165.008 187.303C165.713 186.877 164.58 185.036 163.039 184.336C161.499 183.636 159.57 184.244 158.721 185.144C157.871 186.044 156.917 187.092 157.555 187.348Z" fill="#3F477C"/>
<path d="M150.275 186.48C148.876 186.725 147.912 183.657 145.435 183.447C142.957 183.238 142.151 185.605 141.354 185.044C140.558 184.483 142.118 182.842 144.04 182.424C145.963 182.007 148.204 182.978 149.122 184.042C150.04 185.107 151.067 186.341 150.275 186.48Z" fill="#3F477C"/>
<path d="M179.571 243.216L186.632 257.848L167.711 271.814C167.711 271.814 136.5 271.814 141.042 264.987C145.584 258.161 179.571 243.216 179.571 243.216Z" fill="#5C6BBB"/>
<path d="M179.86 243.401C179.86 243.401 190.71 237.947 198.149 239.716C204.166 241.147 210.812 243.492 210.963 244.619C211.115 245.746 210.219 251.829 208.935 256.141C207.274 261.721 208.153 262.211 203.161 262.374C198.17 262.537 197.98 261.56 197.543 260.404C197.543 260.404 196.862 260.652 194.135 260.195C191.408 259.738 188.19 256.921 188.19 256.921L186.921 258.033L179.86 243.401Z" fill="#E3A779"/>
<path d="M189.819 240.864C189.819 240.864 192.66 238.07 201.705 239.28C204.194 239.613 205.761 242.24 205.761 242.24C205.761 242.24 212.428 243.507 212.809 245.977C213.19 248.447 211.294 252.21 206.719 250.224C206.719 250.224 206.132 251.343 204.474 252.139C202.816 252.935 195.133 254.598 190.847 251.437C186.561 248.276 189.819 240.864 189.819 240.864Z" fill="#E3A779"/>
<path d="M205.928 244.007C206.586 245.759 207.059 247.564 207.164 249.396C207.204 250.3 207.152 251.266 206.6 252.081C206.328 252.473 205.949 252.825 205.465 253.036C204.987 253.251 204.438 253.345 203.891 253.327C202.787 253.291 201.717 252.82 200.901 252.138C200.49 251.791 200.174 251.37 199.905 250.96C199.628 250.545 199.415 250.106 199.227 249.665C198.502 247.903 198.242 245.989 198.764 244.279C198.615 245.157 198.636 246.057 198.797 246.947C198.951 247.835 199.219 248.716 199.622 249.553C200.032 250.377 200.527 251.216 201.245 251.816C201.973 252.407 202.924 252.817 203.865 252.838C204.331 252.856 204.789 252.78 205.187 252.606C205.592 252.437 205.904 252.142 206.151 251.811C206.648 251.143 206.723 250.243 206.74 249.37C206.747 248.487 206.64 247.589 206.489 246.694C206.353 245.796 206.149 244.901 205.928 244.007Z" fill="#AE693D"/>
<path d="M188.111 250.553C189.303 252.042 191.092 253.048 192.975 253.296L193.684 253.367C193.921 253.382 194.157 253.361 194.393 253.364C194.873 253.392 195.33 253.276 195.807 253.248C196.269 253.166 196.73 253.065 197.197 252.973C197.652 252.851 198.1 252.713 198.571 252.602C198.162 252.814 197.732 252.999 197.308 253.2C196.857 253.35 196.403 253.505 195.933 253.622C194.978 253.817 193.967 253.928 192.938 253.781C191.917 253.631 190.903 253.271 190.057 252.697C189.206 252.135 188.52 251.382 188.111 250.553Z" fill="#AE693D"/>
<path d="M193.319 245.386C193.608 245.879 193.95 246.324 194.347 246.718C194.748 247.106 195.191 247.454 195.694 247.715C195.947 247.839 196.197 247.978 196.472 248.063C196.607 248.111 196.739 248.172 196.878 248.21C197.018 248.245 197.158 248.284 197.298 248.326C197.579 248.41 197.871 248.443 198.162 248.514C198.455 248.561 198.751 248.592 199.056 248.654C198.766 248.701 198.466 248.735 198.164 248.754C197.86 248.739 197.549 248.757 197.242 248.7C196.619 248.629 196.006 248.415 195.438 248.128C194.316 247.522 193.472 246.469 193.319 245.386Z" fill="#AE693D"/>
<path d="M199.393 249.541C199.149 249.793 198.954 250.079 198.795 250.376C198.642 250.675 198.541 250.997 198.52 251.323C198.487 251.649 198.555 251.981 198.7 252.286C198.829 252.599 199.079 252.868 199.327 253.124L199.452 253.252L199.333 253.377C198.621 254.123 197.929 254.976 197.709 255.915C197.607 256.384 197.736 256.846 198.133 257.155C198.329 257.31 198.569 257.441 198.836 257.531C199.096 257.625 199.368 257.68 199.658 257.726C200.234 257.813 200.829 257.854 201.421 257.876C202.015 257.902 202.611 257.916 203.206 257.914C204.397 257.907 205.589 257.888 206.784 257.857C205.619 258.031 204.441 258.161 203.249 258.225C202.056 258.294 200.858 258.336 199.617 258.186C198.998 258.106 198.328 257.924 197.785 257.502C197.513 257.291 197.295 256.997 197.203 256.687C197.107 256.376 197.119 256.069 197.178 255.79C197.299 255.229 197.585 254.753 197.907 254.314C198.232 253.875 198.597 253.474 199.02 253.106L199.026 253.359C198.763 253.057 198.505 252.739 198.378 252.372C198.238 252.015 198.184 251.632 198.255 251.279C198.397 250.572 198.828 249.976 199.393 249.541Z" fill="#AE693D"/>
<path d="M199.177 253.241C200.386 253.059 201.608 253.028 202.833 253.032C204.06 253.05 205.29 253.106 206.533 253.312C205.324 253.495 204.102 253.527 202.876 253.522C201.649 253.502 200.42 253.446 199.177 253.241Z" fill="#AE693D"/>
<path d="M198.845 257.786C198.62 258.183 198.421 258.506 198.231 258.851L197.946 259.371C197.846 259.549 197.754 259.733 197.614 259.925C197.437 259.47 197.518 259 197.731 258.603C197.845 258.408 197.992 258.227 198.179 258.083C198.363 257.939 198.583 257.82 198.845 257.786Z" fill="#AE693D"/>
<path d="M99.028 206.06C104.134 207.457 108.567 214.867 107.071 225.168C105.514 235.886 84.2509 267.012 84.2509 267.012L47.5898 268.46C47.5898 268.46 75.6469 223.398 83.1286 215.028C90.6109 206.659 94.0597 204.7 99.028 206.06Z" fill="#5C6BBB"/>
<path d="M96.6038 205.669C97.4545 205.686 98.3013 205.825 99.1121 206.049C99.914 206.299 100.697 206.624 101.365 207.089C102.733 207.982 103.804 209.172 104.652 210.448C105.488 211.733 106.14 213.111 106.573 214.536C107.015 215.958 107.332 217.412 107.46 218.881C107.635 220.348 107.604 221.824 107.524 223.295C107.434 224.028 107.388 224.76 107.261 225.493C107.141 226.229 106.947 226.949 106.739 227.664C105.859 230.515 104.603 233.249 103.287 235.952C100.584 241.335 97.5246 246.572 94.3284 251.74C91.1142 256.901 87.7731 262.003 84.252 267.01C85.9112 264.456 87.5588 261.896 89.167 259.319C90.7881 256.748 92.3874 254.166 93.9468 251.567C97.0606 246.37 100.119 241.141 102.772 235.763C104.098 233.078 105.363 230.36 106.246 227.554C106.455 226.851 106.649 226.145 106.769 225.432C106.897 224.718 106.948 223.987 107.041 223.267C107.121 221.816 107.177 220.36 107.032 218.911C106.932 217.46 106.644 216.022 106.232 214.615C105.831 213.203 105.208 211.84 104.413 210.562C103.615 209.289 102.595 208.097 101.274 207.19C99.9679 206.27 98.2996 205.763 96.6038 205.669Z" fill="#3F477C"/>
<path d="M143.721 234.925L110.038 203.856C109.251 203.13 107.951 203.038 107.036 203.642L105.991 204.332C105.101 204.92 104.956 206.025 105.671 206.769L136.005 238.304L146.947 242.891L143.721 234.925Z" fill="#3F477C"/>
<path d="M43.1367 271.036C43.6586 270.736 87.7273 239.236 93.8673 234.847C94.3274 234.518 94.5743 234.342 94.5743 234.342L103.739 246.412L85.6997 271.036H43.1367Z" fill="#5C6BBB"/>
<path d="M103.74 246.412L89.6268 263.441L88.5225 262.989L103.74 246.412Z" fill="#3F477C"/>
<path d="M43.1367 271.036L49.4086 266.44L55.7018 261.866L68.3398 252.773L81.0564 243.761L87.4433 239.285L93.8673 234.847L87.619 239.468L81.332 244.048L68.6973 253.145L55.9756 262.152C51.716 265.133 47.4637 268.124 43.1367 271.036Z" fill="#3F477C"/>
<path d="M94.5742 234.342L98.5022 231.123C98.5022 231.123 106.732 218.127 110.754 217C114.775 215.874 122.912 214.626 126.279 216.799C129.646 218.971 135.07 224.202 136.473 224.605C137.876 225.007 137.221 228.036 134.322 228.588C131.423 229.14 128.324 226.066 128.324 226.066C128.324 226.066 132.358 231.009 129.552 233.295C129.552 233.295 130.698 234.649 129.763 236.675C128.827 238.701 126.653 240.94 122.071 243.354C117.488 245.768 115.845 242.388 115.845 242.388C115.845 242.388 113.467 245.848 110.1 245.929C106.733 246.009 105.985 245.044 105.704 245.204C105.424 245.365 103.74 246.411 103.74 246.411L94.5742 234.342Z" fill="#E3A779"/>
<path d="M128.43 232.33C127.834 231.822 127.224 231.339 126.616 230.859C126 230.386 125.378 229.925 124.731 229.49C124.094 229.043 123.416 228.648 122.732 228.257C122.042 227.873 121.321 227.534 120.574 227.199C121.391 227.356 122.202 227.59 122.95 227.931C123.7 228.265 124.417 228.659 125.077 229.111C126.393 230.017 127.572 231.083 128.43 232.33Z" fill="#AE693D"/>
<path d="M127.376 225.648C126.781 225.14 126.171 224.657 125.562 224.177C124.947 223.704 124.324 223.243 123.677 222.808C123.04 222.362 122.362 221.966 121.678 221.576C120.988 221.191 120.267 220.852 119.521 220.517C120.337 220.674 121.148 220.908 121.896 221.249C122.646 221.583 123.363 221.977 124.024 222.429C125.34 223.335 126.519 224.402 127.376 225.648Z" fill="#AE693D"/>
<path d="M118.61 234.847C119.372 235.796 120.445 236.438 121.639 236.771C122.239 236.937 122.87 237.015 123.512 237.06C123.834 237.079 124.159 237.07 124.488 237.084C124.815 237.073 125.144 237.057 125.484 237.063C125.17 237.162 124.846 237.242 124.52 237.319C124.188 237.361 123.852 237.424 123.512 237.436C122.83 237.469 122.135 237.406 121.468 237.231C120.809 237.038 120.184 236.741 119.682 236.327C119.18 235.92 118.781 235.41 118.61 234.847Z" fill="#AE693D"/>
<path d="M117.138 240.236C117.539 239.515 118.074 238.888 118.639 238.283C119.218 237.688 119.829 237.115 120.575 236.637C120.173 237.358 119.639 237.985 119.073 238.589C118.492 239.184 117.881 239.757 117.138 240.236Z" fill="#AE693D"/>
<path d="M197.119 255.47L159.603 244.514C158.074 244.068 156.456 243.909 154.868 244.05L75.223 251.128C73.8656 251.249 73.5407 252.727 74.7449 253.303L105.19 267.851C107.426 268.92 110.027 269.304 112.516 268.933L197.07 256.325C197.61 256.244 197.646 255.624 197.119 255.47Z" fill="#3F477C"/>
<path d="M122.717 265.396L122.675 265.377L90.7295 251.179L91.1958 251.136L158.133 245.083L158.161 245.091L192.224 254.905L191.679 254.987L122.717 265.396ZM91.6907 251.334L122.762 265.144L191.086 254.831L158.101 245.328L91.6907 251.334Z" fill="#5C6BBB"/>
<path d="M101.193 258.785C101.181 259.594 99.3083 260.176 97.0088 260.084C94.7092 259.993 92.8541 259.264 92.8653 258.456C92.8765 257.647 94.7496 257.066 97.0492 257.157C99.3487 257.248 101.204 257.977 101.193 258.785Z" fill="#5C6BBB"/>
<path d="M95.3708 254.972L86.0508 256.282L88.3576 257.264L97.8578 255.901L95.3708 254.972Z" fill="#5C6BBB"/>
<path d="M111.787 262.443L102.467 263.753L104.774 264.736L114.274 263.372L111.787 262.443Z" fill="#5C6BBB"/>
<path d="M106.789 260.116L97.4688 261.426L99.7756 262.409L109.276 261.045L106.789 260.116Z" fill="#5C6BBB"/>
<path d="M91.2331 252.942L81.9131 254.252L84.2194 255.234L93.7195 253.871L91.2331 252.942Z" fill="#5C6BBB"/>
<path d="M108.159 37.7806V48.4126C108.159 49.6766 108.487 50.6286 109.143 51.2686C109.815 51.9086 110.743 52.2286 111.927 52.2286C113.127 52.2286 114.055 51.9086 114.711 51.2686C115.383 50.6286 115.719 49.6766 115.719 48.4126V37.7806H118.455V48.3646C118.455 49.7246 118.159 50.8766 117.567 51.8206C116.975 52.7646 116.183 53.4686 115.191 53.9326C114.199 54.3966 113.103 54.6286 111.903 54.6286C110.703 54.6286 109.607 54.3966 108.615 53.9326C107.639 53.4686 106.863 52.7646 106.287 51.8206C105.711 50.8766 105.423 49.7246 105.423 48.3646V37.7806H108.159ZM124.753 37.7806V54.4606H122.017V37.7806H124.753ZM137.225 31.8046L130.697 58.6606H128.009L134.513 31.8046H137.225ZM143.385 37.7806V48.4126C143.385 49.6766 143.713 50.6286 144.369 51.2686C145.041 51.9086 145.969 52.2286 147.153 52.2286C148.353 52.2286 149.281 51.9086 149.937 51.2686C150.609 50.6286 150.945 49.6766 150.945 48.4126V37.7806H153.681V48.3646C153.681 49.7246 153.385 50.8766 152.793 51.8206C152.201 52.7646 151.409 53.4686 150.417 53.9326C149.425 54.3966 148.329 54.6286 147.129 54.6286C145.929 54.6286 144.833 54.3966 143.841 53.9326C142.865 53.4686 142.089 52.7646 141.513 51.8206C140.937 50.8766 140.649 49.7246 140.649 48.3646V37.7806H143.385ZM164.9 46.1326L170.084 54.4606H167.012L163.244 48.4126L159.716 54.4606H156.668L161.852 46.1326L156.644 37.7806H159.716L163.508 43.8766L167.06 37.7806H170.108L164.9 46.1326ZM51.6832 83.7886C51.6832 82.4606 51.9552 81.2846 52.4992 80.2606C53.0592 79.2366 53.8112 78.4446 54.7552 77.8846C55.7152 77.3086 56.7712 77.0206 57.9232 77.0206C58.9632 77.0206 59.8672 77.2286 60.6352 77.6446C61.4192 78.0446 62.0432 78.5486 62.5072 79.1566V77.2366H65.2672V90.4606H62.5072V88.4926C62.0432 89.1166 61.4112 89.6366 60.6112 90.0526C59.8112 90.4686 58.8992 90.6766 57.8752 90.6766C56.7392 90.6766 55.6992 90.3886 54.7552 89.8126C53.8112 89.2206 53.0592 88.4046 52.4992 87.3646C51.9552 86.3086 51.6832 85.1166 51.6832 83.7886ZM62.5072 83.8366C62.5072 82.9246 62.3152 82.1326 61.9312 81.4606C61.5632 80.7886 61.0752 80.2766 60.4672 79.9246C59.8592 79.5726 59.2032 79.3966 58.4992 79.3966C57.7952 79.3966 57.1392 79.5726 56.5312 79.9246C55.9232 80.2606 55.4272 80.7646 55.0432 81.4366C54.6752 82.0926 54.4912 82.8766 54.4912 83.7886C54.4912 84.7006 54.6752 85.5006 55.0432 86.1886C55.4272 86.8766 55.9232 87.4046 56.5312 87.7726C57.1552 88.1246 57.8112 88.3006 58.4992 88.3006C59.2032 88.3006 59.8592 88.1246 60.4672 87.7726C61.0752 87.4206 61.5632 86.9086 61.9312 86.2366C62.3152 85.5486 62.5072 84.7486 62.5072 83.8366ZM75.5328 77.0206C76.5728 77.0206 77.5008 77.2366 78.3168 77.6686C79.1488 78.1006 79.7968 78.7406 80.2608 79.5886C80.7248 80.4366 80.9568 81.4606 80.9568 82.6606V90.4606H78.2448V83.0686C78.2448 81.8846 77.9488 80.9806 77.3568 80.3566C76.7648 79.7166 75.9568 79.3966 74.9328 79.3966C73.9088 79.3966 73.0928 79.7166 72.4848 80.3566C71.8928 80.9806 71.5968 81.8846 71.5968 83.0686V90.4606H68.8608V77.2366H71.5968V78.7486C72.0448 78.2046 72.6128 77.7806 73.3008 77.4766C74.0048 77.1726 74.7488 77.0206 75.5328 77.0206ZM83.5348 83.7886C83.5348 82.4606 83.8068 81.2846 84.3508 80.2606C84.9108 79.2366 85.6628 78.4446 86.6068 77.8846C87.5668 77.3086 88.6308 77.0206 89.7988 77.0206C90.6628 77.0206 91.5108 77.2126 92.3428 77.5966C93.1908 77.9646 93.8628 78.4606 94.3588 79.0846V72.7006H97.1188V90.4606H94.3588V88.4686C93.9108 89.1086 93.2868 89.6366 92.4868 90.0526C91.7028 90.4686 90.7988 90.6766 89.7748 90.6766C88.6228 90.6766 87.5668 90.3886 86.6068 89.8126C85.6628 89.2206 84.9108 88.4046 84.3508 87.3646C83.8068 86.3086 83.5348 85.1166 83.5348 83.7886ZM94.3588 83.8366C94.3588 82.9246 94.1668 82.1326 93.7828 81.4606C93.4148 80.7886 92.9268 80.2766 92.3188 79.9246C91.7108 79.5726 91.0548 79.3966 90.3508 79.3966C89.6468 79.3966 88.9908 79.5726 88.3828 79.9246C87.7748 80.2606 87.2788 80.7646 86.8948 81.4366C86.5268 82.0926 86.3428 82.8766 86.3428 83.7886C86.3428 84.7006 86.5268 85.5006 86.8948 86.1886C87.2788 86.8766 87.7748 87.4046 88.3828 87.7726C89.0068 88.1246 89.6628 88.3006 90.3508 88.3006C91.0548 88.3006 91.7108 88.1246 92.3188 87.7726C92.9268 87.4206 93.4148 86.9086 93.7828 86.2366C94.1668 85.5486 94.3588 84.7486 94.3588 83.8366ZM109.683 79.1806C110.147 78.5726 110.779 78.0606 111.579 77.6446C112.379 77.2286 113.283 77.0206 114.291 77.0206C115.443 77.0206 116.491 77.3086 117.435 77.8846C118.395 78.4446 119.147 79.2366 119.691 80.2606C120.235 81.2846 120.507 82.4606 120.507 83.7886C120.507 85.1166 120.235 86.3086 119.691 87.3646C119.147 88.4046 118.395 89.2206 117.435 89.8126C116.491 90.3886 115.443 90.6766 114.291 90.6766C113.283 90.6766 112.387 90.4766 111.603 90.0766C110.819 89.6606 110.179 89.1486 109.683 88.5406V96.7486H106.947V77.2366H109.683V79.1806ZM117.723 83.7886C117.723 82.8766 117.531 82.0926 117.147 81.4366C116.779 80.7646 116.283 80.2606 115.659 79.9246C115.051 79.5726 114.395 79.3966 113.691 79.3966C113.003 79.3966 112.347 79.5726 111.723 79.9246C111.115 80.2766 110.619 80.7886 110.235 81.4606C109.867 82.1326 109.683 82.9246 109.683 83.8366C109.683 84.7486 109.867 85.5486 110.235 86.2366C110.619 86.9086 111.115 87.4206 111.723 87.7726C112.347 88.1246 113.003 88.3006 113.691 88.3006C114.395 88.3006 115.051 88.1246 115.659 87.7726C116.283 87.4046 116.779 86.8766 117.147 86.1886C117.531 85.5006 117.723 84.7006 117.723 83.7886ZM125.948 79.1566C126.348 78.4846 126.876 77.9646 127.532 77.5966C128.204 77.2126 128.996 77.0206 129.908 77.0206V79.8526H129.212C128.14 79.8526 127.324 80.1246 126.764 80.6686C126.22 81.2126 125.948 82.1566 125.948 83.5006V90.4606H123.212V77.2366H125.948V79.1566ZM138.159 90.6766C136.911 90.6766 135.783 90.3966 134.775 89.8366C133.767 89.2606 132.975 88.4606 132.399 87.4366C131.823 86.3966 131.535 85.1966 131.535 83.8366C131.535 82.4926 131.831 81.3006 132.423 80.2606C133.015 79.2206 133.823 78.4206 134.847 77.8606C135.871 77.3006 137.015 77.0206 138.279 77.0206C139.543 77.0206 140.687 77.3006 141.711 77.8606C142.735 78.4206 143.543 79.2206 144.135 80.2606C144.727 81.3006 145.023 82.4926 145.023 83.8366C145.023 85.1806 144.719 86.3726 144.111 87.4126C143.503 88.4526 142.671 89.2606 141.615 89.8366C140.575 90.3966 139.423 90.6766 138.159 90.6766ZM138.159 88.3006C138.863 88.3006 139.519 88.1326 140.127 87.7966C140.751 87.4606 141.255 86.9566 141.639 86.2846C142.023 85.6126 142.215 84.7966 142.215 83.8366C142.215 82.8766 142.031 82.0686 141.663 81.4126C141.295 80.7406 140.807 80.2366 140.199 79.9006C139.591 79.5646 138.935 79.3966 138.231 79.3966C137.527 79.3966 136.871 79.5646 136.263 79.9006C135.671 80.2366 135.199 80.7406 134.847 81.4126C134.495 82.0686 134.319 82.8766 134.319 83.8366C134.319 85.2606 134.679 86.3646 135.399 87.1486C136.135 87.9166 137.055 88.3006 138.159 88.3006ZM150.92 79.4686V86.7886C150.92 87.2846 151.032 87.6446 151.256 87.8686C151.496 88.0766 151.896 88.1806 152.456 88.1806H154.136V90.4606H151.976C150.744 90.4606 149.8 90.1726 149.144 89.5966C148.488 89.0206 148.16 88.0846 148.16 86.7886V79.4686H146.6V77.2366H148.16V73.9486H150.92V77.2366H154.136V79.4686H150.92ZM162.394 90.6766C161.146 90.6766 160.018 90.3966 159.01 89.8366C158.002 89.2606 157.21 88.4606 156.634 87.4366C156.058 86.3966 155.77 85.1966 155.77 83.8366C155.77 82.4926 156.066 81.3006 156.658 80.2606C157.25 79.2206 158.058 78.4206 159.082 77.8606C160.106 77.3006 161.25 77.0206 162.514 77.0206C163.778 77.0206 164.922 77.3006 165.946 77.8606C166.97 78.4206 167.778 79.2206 168.37 80.2606C168.962 81.3006 169.258 82.4926 169.258 83.8366C169.258 85.1806 168.954 86.3726 168.346 87.4126C167.738 88.4526 166.906 89.2606 165.85 89.8366C164.81 90.3966 163.658 90.6766 162.394 90.6766ZM162.394 88.3006C163.098 88.3006 163.754 88.1326 164.362 87.7966C164.986 87.4606 165.49 86.9566 165.874 86.2846C166.258 85.6126 166.45 84.7966 166.45 83.8366C166.45 82.8766 166.266 82.0686 165.898 81.4126C165.53 80.7406 165.042 80.2366 164.434 79.9006C163.826 79.5646 163.17 79.3966 162.466 79.3966C161.762 79.3966 161.106 79.5646 160.498 79.9006C159.906 80.2366 159.434 80.7406 159.082 81.4126C158.73 82.0686 158.554 82.8766 158.554 83.8366C158.554 85.2606 158.914 86.3646 159.634 87.1486C160.37 87.9166 161.29 88.3006 162.394 88.3006ZM175.154 79.4686V86.7886C175.154 87.2846 175.266 87.6446 175.49 87.8686C175.73 88.0766 176.13 88.1806 176.69 88.1806H178.37V90.4606H176.21C174.978 90.4606 174.034 90.1726 173.378 89.5966C172.722 89.0206 172.394 88.0846 172.394 86.7886V79.4686H170.834V77.2366H172.394V73.9486H175.154V77.2366H178.37V79.4686H175.154ZM192.796 77.2366L184.684 96.6766H181.852L184.54 90.2446L179.332 77.2366H182.38L186.1 87.3166L189.964 77.2366H192.796ZM197.597 79.1806C198.061 78.5726 198.693 78.0606 199.493 77.6446C200.293 77.2286 201.197 77.0206 202.205 77.0206C203.357 77.0206 204.405 77.3086 205.349 77.8846C206.309 78.4446 207.061 79.2366 207.605 80.2606C208.149 81.2846 208.421 82.4606 208.421 83.7886C208.421 85.1166 208.149 86.3086 207.605 87.3646C207.061 88.4046 206.309 89.2206 205.349 89.8126C204.405 90.3886 203.357 90.6766 202.205 90.6766C201.197 90.6766 200.301 90.4766 199.517 90.0766C198.733 89.6606 198.093 89.1486 197.597 88.5406V96.7486H194.861V77.2366H197.597V79.1806ZM205.637 83.7886C205.637 82.8766 205.445 82.0926 205.061 81.4366C204.693 80.7646 204.197 80.2606 203.573 79.9246C202.965 79.5726 202.309 79.3966 201.605 79.3966C200.917 79.3966 200.261 79.5726 199.637 79.9246C199.029 80.2766 198.533 80.7886 198.149 81.4606C197.781 82.1326 197.597 82.9246 197.597 83.8366C197.597 84.7486 197.781 85.5486 198.149 86.2366C198.533 86.9086 199.029 87.4206 199.637 87.7726C200.261 88.1246 200.917 88.3006 201.605 88.3006C202.309 88.3006 202.965 88.1246 203.573 87.7726C204.197 87.4046 204.693 86.8766 205.061 86.1886C205.445 85.5006 205.637 84.7006 205.637 83.7886ZM223.246 83.5246C223.246 84.0206 223.214 84.4686 223.15 84.8686H213.046C213.126 85.9246 213.518 86.7726 214.222 87.4126C214.926 88.0526 215.79 88.3726 216.814 88.3726C218.286 88.3726 219.326 87.7566 219.934 86.5246H222.886C222.486 87.7406 221.758 88.7406 220.702 89.5246C219.662 90.2926 218.366 90.6766 216.814 90.6766C215.55 90.6766 214.414 90.3966 213.406 89.8366C212.414 89.2606 211.63 88.4606 211.054 87.4366C210.494 86.3966 210.214 85.1966 210.214 83.8366C210.214 82.4766 210.486 81.2846 211.03 80.2606C211.59 79.2206 212.366 78.4206 213.358 77.8606C214.366 77.3006 215.518 77.0206 216.814 77.0206C218.062 77.0206 219.174 77.2926 220.15 77.8366C221.126 78.3806 221.886 79.1486 222.43 80.1406C222.974 81.1166 223.246 82.2446 223.246 83.5246ZM220.39 82.6606C220.374 81.6526 220.014 80.8446 219.31 80.2366C218.606 79.6286 217.734 79.3246 216.694 79.3246C215.75 79.3246 214.942 79.6286 214.27 80.2366C213.598 80.8286 213.198 81.6366 213.07 82.6606H220.39Z" fill="#D8D8D8"/>
</svg>
