<svg xmlns="http://www.w3.org/2000/svg" width="1280" height="860" fill="none"><mask id="a" width="1296" height="860" x="-14" y="0" maskUnits="userSpaceOnUse" style="mask-type:luminance"><path fill="#fff" d="M1282 0H-14v860h1296z"/></mask><g mask="url(#a)"><path fill="url(#b)" fill-opacity=".37" fill-rule="evenodd" d="M-14.012-.008h39.54c-7.377 9.15-25.222 11.862-39.54 13.92zm0 41.037V30.71c25.819.275 56.837-11.584 62.928-30.717h14.707v.24c-2.197 7.611-2.98 13.97-6.992 19.438-12.004 16.362-43.06 20.95-70.643 21.36M77.607-.008h2.651c1.472 12.164 2.846 25.542 6.27 36.238l5.544 11.04h-.24c-7.246-1.79-15.788-2.055-18.806-7.92-2.295-4.46.835-10.551 1.928-14.16 2.247-7.413 2.537-15.538 2.653-25.198m15.43 0h12.055c.972 7.555 4.071 14.94 6.75 21.119 18.07 41.665 64.556 58.698 75.947 103.673 7.317 28.889-11.176 47.115-22.182 62.876-5.835 8.356-12.527 22.711-5.304 34.557 8.315 13.638 26.083 15.901 40.022 23.999 16.067 9.333 27.516 21.608 41.469 32.638 5.277 4.171 21.995 15.188 22.423 22.558-4.539 11.431-20.758-3.821-24.111-7.199l-11.813-13.92c-8.181-10.208-19.528-19.116-30.861-26.158-14.855-9.23-36.617-13.186-46.773-27.118-7.354-10.088-4.289-25.281 1.688-34.558 10.925-16.96 33.089-36.193 25.316-66.475-6.155-23.975-28.993-45.848-46.05-59.516-17.735-14.211-34.204-39.18-38.576-66.476m29.896 0h6.75c3.191 10.366 11.547 19.41 17.6 27.359 21.087 27.688 55.003 46.201 67.99 81.354 9.211 24.931.32 50.155-10.608 66.476-5.768 8.614-16.762 19.631-13.019 35.518 4.733 20.094 23.517 24.671 34.477 37.677l-14.707-6.96c-15.297-7.617-30.332-12.19-33.753-31.678-2.482-14.131 10.118-26.739 15.672-33.838 10.752-13.742 20.863-34.132 13.259-58.076-10.775-33.936-39.559-51.024-59.551-75.834-9.456-11.737-21.021-24.146-24.11-41.998M-14.012 66.467v-12.24c68.34-.698 117.86 8.842 153.099 43.918 10.194 10.146 27.123 28.725 22.905 51.597-5.875 31.859-31.112 38.215-36.407 67.675-2.368 13.18 5.288 23.472 11.814 28.318 8.187 6.079 19.046 8.421 29.655 12.239 10.951 3.939 21.214 8.844 30.138 14.878 8.805 5.956 17.112 14.299 23.387 22.799 4.263 5.777 7.896 12.862 13.501 17.278 6.83 5.382 19.214 12.038 31.826 7.68 13.305-4.598 19.963-20.741 11.331-35.278-5.343-8.999-13.934-16.858-21.94-23.279l-10.368-10.559c-9.185-9.771-19.776-18.817-26.28-31.198-19.506-37.132 23.978-67.541 12.537-112.312-4.841-18.945-15.032-30.66-25.556-43.676l-8.921-8.88-16.395-17.038c-10.069-12.43-21.04-23.659-28.932-38.397h13.742c20.005 38.578 62.883 56.665 74.742 102.954 11.111 43.373-27.533 73.998-9.163 114.472 12.899 28.417 45.113 39.945 58.829 67.435 10.303 20.65-2.598 39.935-19.046 45.118-13.329 4.199-29.508-.028-38.335-5.52-14.612-9.09-21.274-26.061-34.478-36.477-8.523-6.724-17.746-12.986-28.45-17.519-17.218-7.289-34.556-10.805-46.292-23.279-5.296-5.628-11.778-15.085-9.643-27.598 5.338-31.3 31.889-37.865 37.37-68.875 3.224-18.243-13.546-37.289-22.422-44.397-5.654-4.528-10.775-9.719-17.118-13.679-31.59-19.725-73.179-26.195-125.13-26.16m0 24.238v-11.04c43.938-.242 86.823 7.012 108.978 29.039 7.554 7.511 18.015 20.729 13.019 37.197-4.632 15.268-15.864 22.225-24.593 33.118-9.23 11.519-16.04 22.437-20.011 39.598-1.523 6.581-2.652 16.294-1.206 23.998.96 5.112 2 9.925 3.859 14.159 10.188 23.212 30.457 18.346 57.863 23.279 20.458 3.682 38.605 7.417 53.283 16.558 7.658 4.769 15.485 11.039 20.976 18 5.125 6.497 9.875 13.868 16.395 18.958 8.112 6.332 16.456 9.935 28.45 12.72 6.028 1.399 14.803 2.652 22.182 1.439 5.701-.938 11.292-1.292 16.153-3.12 23.987-9.014 38.904-37.584 23.869-66.955-14.582-28.485-47.097-40.376-59.792-70.796-15.635-37.462 19.143-70.057 8.92-110.392-6.774-26.734-24.237-40.698-39.057-59.037-9.839-12.174-19.859-23.293-28.209-37.197v-.24c2.739-.077 10.199-.978 11.814.481q3.132 5.04 6.269 10.08l13.501 17.278c14.218 17.946 32.304 32.105 41.469 55.196 2.78 7.003 3.382 14.41 4.822 23.038 1.604 9.613-1.718 19.939-3.858 26.878-5.701 18.482-15.466 42.3-8.198 65.276 11.98 37.871 55.472 48.705 67.509 85.434 11.986 36.57-7.383 65.056-34.719 73.435-5.805 1.78-12.234 2.025-18.806 3.12-5.298.883-12.203.588-17.118-.24q-6.027-.6-12.054-1.2c-16.163-3.397-29.673-9.349-38.335-20.158-5.36-6.689-10.441-15.045-17.118-20.399-9.68-7.761-19.651-14.753-33.031-18.958-9.372-2.946-19.47-3.934-30.379-5.76-15.017-2.514-29.859-.809-41.469-5.76-13.53-5.77-21.3-17.359-24.833-33.117-8.06-35.948 9.198-66.237 23.87-84.714 8.647-10.892 26.539-25.672 14.466-46.077-16.958-28.66-61.768-30.43-104.88-33.119M220.338-.008h13.502c2.106 8.03 12.915 19.865 17.841 26.159 16.965 21.674 37.129 41.099 69.195 47.756 23.466 4.872 49.826-3.34 71.848 2.64 5.569 1.512 20.072 8.457 11.573 15.599l-6.509-3.84c-6.594-2.087-15.348-1.68-23.628-1.68-19.248 0-37.696 2.027-55.212-1.44-34.827-6.895-56.223-28.26-74.742-51.357-8.055-10.047-19.477-20.616-23.868-33.837m31.583 0c2.238-.081 7.657-.68 8.921.48L271.45 16.55c12.273 16.007 28.071 29.027 49.908 35.519 28.144 8.366 73.099-3.79 98.852 6.96 5.36 2.237 11.44 6.986 13.261 12.719 2.366 7.453-1.715 16.57-9.162 16.558q-.724-.36-1.446-.72c-.393-3.211-.151-7.034-1.206-9.598-10.947-26.586-70.013-11.8-99.092-18.958-35.491-8.74-53.646-31.914-70.644-59.038m27.727 0h14.707c9.217 15.75 27.47 23.836 48.943 27.598 6.063 1.062 14.76 1.465 20.977.48l29.896-.72c33.352-3.24 60.898 8.906 69.437 30.478 8.117 20.507-5.394 39.28-18.565 47.037-16.16 9.519-41.232 6.48-63.891 10.32-40.265 6.823-73.377 13.129-87.761 45.597-5.11 11.537-10.624 31.363-4.581 46.078 5.835 14.205 19.804 24.386 31.102 33.358 19.221 15.263 37.909 46.995 29.655 84.474-1.906 8.657-4.597 16.252-8.197 23.038-5.155 9.718-12.862 18.226-21.94 23.999-31.668 20.137-101.686 23.45-132.846 0-10.193-7.672-16.034-19.47-23.627-29.759-6.577-8.91-16.09-16.072-27.245-20.399-12.641-4.902-27.605-4.214-43.398-6.719-10.33-1.639-19.976-.296-28.691-2.879-14.274-4.231-24.475-11.964-31.343-23.519-10.088-16.971-11.896-50.392-7.715-76.075 2.444-15.012 3.688-33.687 1.205-47.757-2.083-11.803-4.09-22.845-9.162-31.677-3.205-5.582-11.789-12.804-12.537-19.439 4.516-7.044 20.768-4.741 29.655-2.88 17.664 3.699 50.77 13.491 38.817 38.638-1.303-15.896-30.623-33.687-39.058-13.92-4.565 10.699 1.65 29.104 1.929 41.518.664 29.559-7.274 64.966.965 91.914 5.53 18.092 16.717 29.769 34.959 35.278 19.8 5.978 47.798 1.744 66.784 7.679 15.623 4.884 26.897 14.243 35.442 26.159 4.406 6.143 8.408 12.792 13.984 17.758 20.702 18.443 68.762 28.263 105.602 16.799 26.902-8.371 41.505-25.946 47.014-55.915 1.554-8.451 1.168-19.594-.723-27.599-1.597-6.758-3.598-13.576-6.75-18.958-18.252-31.168-54.402-43.224-65.821-81.355-8.097-27.043 6.876-51.396 12.537-73.435 2.158-8.401.895-17.63.483-26.398 5.707 1.195 10.176 6.373 15.43 8.64 6.774 2.922 14.902 2.92 22.663 4.08l20.011-.481q10.97-.6 21.94-1.2c3.189-.51 14.091-2.07 16.877-.96l-28.691 4.56c-35.999 7.598-56.011 9.924-68.955 41.277-4.439 10.753-8.29 30.577-2.41 43.437h.24c.371-11.354 4.352-21.529 7.956-29.998 14.697-34.533 43.216-40.879 84.144-48.956 30.52-6.023 65.147-1.702 78.84-24.238 1.889-3.108 4.09-8.906 3.617-13.44-1.889-18.09-16.681-25.526-33.031-29.278-5.913-1.356-11.884-.403-18.564-1.439h-15.43l-27.244.24c-32.025 2.767-56.037-11.928-69.678-29.518-2.666-3.441-6.393-7.156-7.957-11.523m35.683 0h77.152c20.113-.001 39.583-.375 54.971 4.32 33.866 10.331 58.659 42.22 67.509 77.514 10.079 40.201-14.339 71.365-37.853 85.435-7.59 4.541-16.563 6.655-27.003 8.399-28.336 4.735-56.867-7.968-77.393 7.199-4.423 3.268-7.73 7.188-8.921 13.679-3.158 17.212 15.914 33.699 22.663 43.917 7.659 11.594 12.857 25.417 16.153 41.277l1.929 19.438c1.18 7.507-.122 17.053-1.206 23.519-3.994 23.824-8.018 43.041-16.153 61.916-3.064 7.109-13.546 23.581-8.197 31.917 8.123 12.659 35.793 20.277 48.943 29.759 17.347 12.506 30.096 29.008 36.165 52.796 2.047 8.026 2.441 16.736 3.858 25.438 1.144 7.041 1.574 17.791.482 24.718-1.079 6.849-.168 14.992-1.446 21.839-3.773 20.202-9.721 35.368-19.771 48.956-10.891 14.727-26.455 25.061-34.236 42.957-8.657 19.91-12.827 63.275.483 81.835 13.456 18.765 60.178 16.293 83.902 7.92 7.033-2.482 14.039-6.066 19.771-10.079 7.408-5.189 13.56-11.718 20.734-17.039-1.578 3.916-5.231 6.93-7.715 10.079-14.643 18.557-34.385 29.617-62.685 34.797-6.013 1.101-14.655 1.983-20.977.961l-14.466-.72c-14.986-2.709-23.99-7.895-29.415-19.919-11.067-24.532-8.199-75.975 4.099-96.953 9.41-16.052 23.917-26.848 34.478-41.757 14.071-19.866 23.215-59.878 16.878-93.834-1.773-9.496-3.085-18.439-6.269-26.398-8.605-21.51-26.785-38.801-47.738-47.997-13.01-5.711-46.757-14.278-53.042-24.479-6.293-10.216 12.801-23.33 17.6-28.798 11.793-13.438 18.32-30.011 23.145-50.636l1.929-17.758.482-18-2.17-18.478c-4.145-17.682-10.284-32.151-19.288-44.877-6.942-9.811-26.581-27.973-23.628-45.598 3.055-18.23 16.073-24.637 33.995-28.078l13.262-.72 14.707-.239h29.173c29.781-4.848 46.552-16.019 59.312-37.438 4.491-7.54 10.166-20.063 8.679-32.158-4.349-35.387-25.799-67.781-52.801-79.914-7.968-3.582-16.614-5.276-26.762-6.96-6.963-1.155-16.005-.834-23.145-.24l-24.833.24c-14.637 2.298-37.684.928-48.703-2.64-5.48-1.773-14.008-4.551-16.638-9.118m158.886 0h19.288c6.179 2.83 15.847 15.652 20.011 21.358 14.716 20.167 36.821 61.564 28.45 99.113-6.606 29.636-22.319 51.036-43.639 65.997-10.418 7.311-22.198 11.917-37.37 14.639-13.76 2.468-30.611-1.026-37.13 8.399-4.306 6.226 1.37 14.787 3.617 19.199 5.042 9.896 6.951 19.434 9.162 32.878l.241 15.119c-1.611-20.498-10.093-36.114-19.529-48.956-3.842-5.23-12.951-15.244-8.921-25.199 6.615-16.337 31.963-9.731 51.114-13.439 11.32-2.192 20.863-5.86 29.173-11.039 24.464-15.247 52.69-52.244 41.952-95.754-2.68-10.86-6.196-20.523-10.368-29.758-6.214-13.754-18.724-32.087-29.897-41.037l-9.885-7.68zm42.192 0c2.572-.079 9.351-.878 10.849.48 7.344 5.92 13.264 19.34 18.323 27.838 22.817 38.325 42.354 121.194 12.779 168.229-8.121 12.915-20.822 18.744-33.271 27.358-13.164 9.108-25.586 21.532-32.066 37.197-4.614 11.153-5.412 23.913-7.715 37.918l-1.206 21.358-1.205 24.238-1.206 20.639c-1.062 6.575.076 14.812 1.206 19.919 10.387 46.953 61.518 31.386 84.385 62.156 13.445 18.092 10.89 47.443 15.912 74.634 1.678 9.081 2.892 18.175 5.304 26.638 3.001 10.526 8.788 23.632 6.028 35.278-3.712 15.656-18.755 19.366-27.004 30.478-6.672 8.987-10.821 19.802-16.153 30.238-9.441 18.479-21.408 35.746-37.853 47.277-11.331 7.946-37.587 18.9-47.737 1.68-1.768-2.999-3.591-8.531-2.652-13.919l1.446-7.44c5.414-17.999 19.621-28.097 27.967-43.437 6.319-11.612 9.989-25.044 13.02-40.077l1.928-20.879c.943-6.79-.004-14.057-.965-19.438l-.965-14.159c-2.561-14.529-3.74-28.838-7.232-42.238-1.717-6.583-8.04-22.802-4.822-28.317h.482c6.46-1.515 8.906 6.638 10.609 11.039 5.632 14.561 6.917 32.016 10.126 48.956 5.954 31.436 4.411 69.716-5.787 95.514-6.051 15.309-14.991 27.623-22.904 40.798-4.822 8.028-9.188 23.501 3.616 26.398 7.163 1.621 14.349-3.174 18.323-5.519 16.125-9.517 23.118-24.091 32.308-40.557 6.775-12.141 11.618-26.178 19.771-36.958 5.948-7.865 17.353-12.59 20.976-22.318 3.784-10.159-.369-24.237-2.653-33.358-4.352-17.384-3.813-36.692-7.232-55.676-3.424-19.007-6.303-35.186-18.806-44.878-18.095-14.025-47.783-16.929-65.579-31.198-10.053-8.06-12.827-20.459-15.431-36.238-1.067-6.47-.458-14.377.483-20.638l1.688-27.118.723-18.479c2.618-16.333 1.571-33.467 5.786-47.757 3.664-12.416 9.34-21.838 16.395-30.717 17.823-22.433 46.104-26.082 58.829-55.196 19.249-44.042 2.713-114.834-15.912-146.63-4.667-7.966-9.405-15.911-14.708-23.28zm27.726 0c2.53-.079 9.141-.853 10.609.48 2.15 1.92 3.253 4.933 4.821 7.44 4.716 7.532 8.869 15.361 13.502 23.279 8.437 14.42 15.313 30.436 20.735 47.756 11.054 35.316 13.725 93.9-3.859 123.592-5.761 9.729-13.924 18.701-23.387 24.718-11.803 7.506-25.942 13.04-34.478 23.759-14.512 18.225-21.064 49.195-20.252 81.595l-.723 22.318c.78 15.664 2.098 27.699 9.163 36.718 7.745 9.89 22.758 11.98 35.201 17.279 15.886 6.766 29.651 16.022 38.094 30.238 12.286 20.687 8.888 54.311 14.707 82.075 3.055 14.579 6.614 27.588 11.814 39.837 3.425 8.068 9.224 19.218 6.75 30.478-4.918 22.388-27.314 28.762-39.058 44.637-11.093 14.995-16.822 35.215-27.726 50.637-19.389 27.423-51.274 43.802-90.172 51.836-16.362 3.379-37.168 2.066-44.121-9.12-2.946-4.739-3.472-10.001-4.581-16.799-.855-5.244-.824-12.296.24-18l3.376-15.119c7.11-21.71 24.18-33.237 35.683-50.397 15.083-22.501 27.889-59.744 21.458-98.633q-.724-8.758-1.446-17.519c-5.059-26.365-12.026-50.134-29.415-64.075l-12.054-9.599c-11.83-8.298-25.53-13.781-31.102-28.318-5.23-13.644.939-31.839 4.098-43.198l5.064-23.038c6.92-32.712 3.194-73.831-9.885-96.953l-10.368-16.799c-4.35-6.105-9.99-11.61-13.502-18.48-5.874-11.486-2.845-24.14 11.332-25.438-6.919 8.382-7.475 17.678-1.447 27.838 4.16 7.011 9.603 13.137 14.225 19.679 7.164 10.136 12.855 22.168 16.878 35.278 7.417 24.169 6.519 61.118.964 86.874-2.735 12.683-8.613 33.055-4.581 47.277 5.263 18.564 25.73 30.625 39.3 41.518 15.816 12.695 22.855 36.2 27.967 59.515 9.236 42.121 4.07 90.372-13.019 118.793-10.905 18.135-27.598 31.218-35.924 51.596-12.311 30.134-1.689 53.984 34.718 46.317 35.703-7.518 63.578-24.186 80.287-50.636 8.453-13.381 13.428-29.934 22.662-42.477 10.986-14.922 31.741-19.965 36.407-41.037 2.722-12.297-2.952-23.776-6.027-32.397-3.847-10.784-6.297-22.239-8.68-34.558-4.928-25.479-1.649-56.451-12.779-75.355-8.408-14.282-22.648-23.734-39.3-29.758-12.686-4.59-24.302-7.674-33.513-15.359-8.986-7.498-9.737-19.333-12.054-33.838l.482-19.439.723-13.919c.483-9.358.965-18.72 1.446-28.078-.517-24.029 11.055-53.35 24.11-63.836 21.515-17.28 44.505-22.024 56.659-49.677 21.598-49.141 1.92-122.106-19.047-157.91l-13.502-22.798q-3.735-5.401-7.473-10.8m29.414 0h14.467c7.573 16.23 17.547 30.9 24.833 47.997 12.034 28.233 16.937 61.637 16.878 101.993l-1.929 24.718c-2.524 13.174-5.211 25.316-10.368 35.758-10.513 21.292-30.106 31.952-47.737 46.078-14.66 11.744-22.009 31.853-26.522 53.756-1.719 8.346-3.819 20.472-2.17 30.959 2.713 17.248 4.296 25.415 13.02 36.237 7.546 9.363 19.597 13.672 30.379 19.919 15.338 8.889 28.752 18.042 36.164 34.798 4.124 9.32 5.764 19.885 7.715 31.677l1.206 18.239.965 23.038c2.68 16.695 3.854 31.914 9.162 45.357 5.227 13.241 20.677 30.577 15.19 49.916-3.361 11.845-13.435 17.921-22.182 24.479-9.474 7.102-18.55 15.889-25.556 25.438-14.147 19.282-22.572 44.285-32.79 67.436-7.636 17.301-18.154 32.755-30.138 45.836-14.389 15.708-33.124 26.954-56.417 33.839-8.772 2.592-18.363 3.228-28.209 4.799-21.261 3.391-50.755-1.139-62.445-9.359-15.916-11.193-17.439-28.318-16.878-53.036l1.688-33.118 2.17 12.959.723 18.239c2.773 17.105 2.466 28.592 11.091 39.598 18.952 24.184 89.1 12.564 111.148-.24 24.477-14.214 40.192-33.973 54.488-58.315 12.886-21.942 20.068-48.382 34.478-68.636 5.957-8.373 13.238-16.899 21.217-23.278 9.285-7.424 20.1-14.52 24.35-26.879 6.455-18.768-6.257-34.712-11.09-48.236-5.584-15.625-6.748-33.007-9.886-52.077l-.723-15.359c-1.54-11.809-1.336-22.94-4.098-33.597-3.356-12.946-9.131-22.33-16.395-31.198-14.421-17.604-45.628-21.281-59.552-38.638-6.533-8.143-9.291-17.478-11.573-30.238-1.101-6.152-1.523-14.983-.483-21.358q.602-9.96 1.206-19.919c4.521-24.678 11.086-45.898 27.244-58.796 18.996-15.163 40.936-25.414 51.836-48.717 4.64-9.918 6.946-21.085 9.403-33.358 1.795-8.966 1.445-19.085 1.446-29.278.006-42.826-8.882-76.9-24.833-104.153Q583.797 17.63 573.549-.008M1101.8 860.094h-8.44c-.04-19.022-1.3-39.056 1.69-57.115 1.67-10.108 3.36-24.073-.96-32.398-7.92-15.23-33.91-14.948-53.29-18.958-28.47-5.891-52.869-12.83-72.81-26.879-17.518-12.342-30.54-29.302-38.335-51.357-3.937-11.138-4.554-23.42-7.232-36.238-5.678-27.171-15.17-44.629-40.264-52.316-13.324-4.082-32.815-5.489-47.978-5.04l-18.083.48-23.145 1.439-39.781 2.64c-17.335 2.693-44.708 2.297-59.07-2.16-15.66-4.86-26.564-15.005-34.236-27.838-6.033-10.093-9.105-21.974-12.055-35.278l-2.652-24.238-.723-19.918c-2.554-16.029-1.613-31.271-6.75-43.918-6.446-15.864-17.624-27.865-31.343-36.477-21.518-13.508-38.242-18.906-44.845-47.997-1.186-5.225-2.527-13.217-1.446-19.919l2.653-18.958c3.64-14.437 9.911-26.499 17.841-36.718 8.475-10.92 20.555-19.207 31.343-27.838 6.968-5.574 12.951-14.008 17.6-21.838 6.723-11.321 9.665-24.206 12.779-39.357 1.657-8.062 1.475-17.365 2.893-26.159v-22.318l-.482-15.839c-2.08-12.823-2.126-25.457-5.064-37.198-7.786-31.12-19.172-55.319-32.548-80.155v-.24h12.055l8.438 17.28c4.384 9.866 8.833 19.775 12.537 30.238 14.396 40.66 24.379 118.155 7.474 164.149-4.533 12.333-11.494 22.787-19.046 32.158-10.77 13.362-26.209 22.316-36.407 36.477-7.082 9.836-12.711 20.554-15.912 34.319l-1.688 16.078c-2.189 13.85 6.192 29.282 12.296 36.958 6.874 8.645 16.727 13.919 26.28 19.918 15.31 9.615 27.657 21.714 34.719 39.597 3.804 9.633 4.344 20.876 6.269 32.639l.723 14.639 1.688 20.399c3.457 19.919 5.926 38.201 15.43 51.836 12.691 18.205 33.473 25.197 64.615 25.198l20.735-.48 35.683-2.4 26.281-1.68c20.146-3.089 51.693-.902 67.749 4.08 21.583 6.697 34.784 23.161 40.987 45.117 4.018 14.217 4.374 30.987 8.68 44.637 8.456 26.803 23.9 46.373 45.81 59.756 14.259 8.711 31.017 13.789 50.147 17.759l27.73 3.36c20.31 3.383 43.24.83 51.59 15.839 5.26 9.438-.3 24.385-2.65 32.638-5.85 20.526-7.99 43.947-7.48 69.594m25.8 0h-11.09c-1.92-32.521 5.79-56.178 15.43-77.994 3.8-8.602 13.77-26.473 7.47-38.397-7.15-13.543-30.04-10.298-48.22-13.2l-28.93-2.16c-24.43-4.034-46.74-6.282-64.374-16.559-20.504-11.948-35.728-28.523-44.845-51.836-5.465-13.978-6.12-31.755-10.367-47.037-7.566-27.224-22.658-49.487-47.498-59.515-22.998-9.285-69.669-6.68-96.921-2.16l-37.37 3.119-18.566.48c-25.659.803-45.582-6.13-55.693-22.318-10.593-16.957-13.03-39.125-17.118-62.876q-.725-9.719-1.446-19.438c-2.128-12.686-3.585-24-7.956-34.078-5.654-13.034-15.166-23.307-26.039-31.198-13.359-9.695-27.887-16.682-35.683-31.917-3.295-6.44-4.404-13.831-5.787-22.319-2.733-16.775 7.05-32.865 13.02-41.757 7.562-11.264 17.369-19.214 26.761-28.558 12.748-12.681 23.226-27.319 30.379-45.597 16.671-42.599 8.209-126.97-6.75-165.35-4.203-10.782-8.641-21.167-13.261-31.438l-9.162-18h12.296l5.787 12.72 13.984 35.519c13.145 41.29 22.801 117.092 7.474 164.149-6.546 20.098-17.636 33.897-29.414 48.477-6.851 8.48-15.825 15.116-22.663 23.759-6.998 8.844-20.361 26.87-17.359 44.878 5.119 30.705 21.201 36.074 41.469 50.877 10.245 7.48 19.443 18.002 24.833 30.238 4.25 9.648 6.093 20.287 8.198 32.398l2.411 28.317c3.485 18.533 7.377 35.133 16.153 48.237 10.07 15.034 26.464 21.117 51.836 21.119l17.119-.481 31.584-2.879c29.177-5.068 76.774-7.935 101.503 2.16 29.413 12.006 45.986 39.284 55.453 71.276 4.699 15.877 4.83 34.498 10.849 48.477 8.139 18.901 21 32.247 38.093 42.237 23.31 13.622 57.07 17.283 93.79 17.278 24.2-.003 53.4-2.412 60.52 14.639 6.45 15.455-4.71 36.689-9.89 46.798-7.85 15.317-14.77 30.355-18.81 49.436-1.98 9.36-1.21 20.07-1.2 30.474M658.899-.008c1.774-.065 3.732-.043 4.822.48l10.608 17.039c8.802 15.99 16.276 30.773 33.754 38.157 36.272 15.325 86.405 14.12 99.092 53.036 5.208 15.976 5.204 39.888 1.688 57.596-5.898 29.702-12.025 55.881-19.047 83.514-5.342 21.021-9.931 52.079-4.339 76.315 3.36 14.563 7.995 27.229 13.261 39.597 5.193 12.2 10.008 23.875 17.601 33.597 20.532 26.296 62.751 21.532 100.057 30.718 42.454 10.454 73.651 25.864 89.684 62.395 4.36 9.912 8.57 21.514 9.89 34.319h-.24c-1.47-7.647-5.89-16.054-9.16-22.558-17.866-35.52-48.702-54.124-91.622-64.796-39.696-9.87-84.245-3.388-105.843-31.917-8.473-11.191-13.77-25.539-19.289-39.598-6.51-16.586-12.191-33.036-15.912-53.036-3.765-20.241.769-43.161 4.822-59.996 6.984-29.011 15.021-55.935 20.976-86.874 2.953-15.345 3.732-37.038-.965-51.116-11.206-33.595-43.239-33.88-77.393-43.917-9.516-2.797-19.057-4.352-26.761-8.88-19.602-11.518-25.401-43.03-35.684-64.075m19.289 0h13.019l6.75 7.2c12.728 12.667 28.038 19.9 46.292 27.358 35.922 14.674 73.178 26.16 85.35 64.555 5.802 18.306 5.785 45.403 1.928 65.997-6.411 34.236-12.137 64.183-18.806 98.153-3.931 20.027-4.276 47.784 1.446 65.996 3.94 12.535 9.38 23.833 16.636 33.117 13.737 17.576 34.002 29.231 57.864 36.718 46.673 14.643 103.468 16.329 130.193 50.636 7.78 9.993 10.66 21.652 13.5 36.958 1.6 8.613 2.25 21.765.73 31.198-.57 8.558-1.13 17.119-1.69 25.678v14.4c-1.92-48.299.08-89.262-28.93-112.312-31.255-24.826-74.478-25.895-116.937-39.118-25.082-7.811-46.362-18.817-60.517-37.438-9.652-12.698-16.465-28.024-20.976-45.837-6.502-25.671-1.335-57.366 3.616-80.394l11.574-55.196c5.606-24.855 10.833-61.88 1.928-87.115-18.231-51.668-96.252-47.05-129.712-84.714-4.308-4.853-10.397-9.752-13.258-15.84m44.121 0h27.486l14.707 7.92 22.182 10.799c30.74 17.612 54.372 32.325 65.82 69.355 5.362 17.341 6.579 44.331 2.894 64.795l-3.617 26.398c-4.179 21.997-8.359 44-12.536 65.996-6.617 32.849-2.595 70.137 11.09 91.915 13.696 21.795 36.061 32.933 64.616 40.077 14.463 3.618 30.083 3.223 46.05 5.999 38.208 6.643 77.469 7.336 105.119 23.999 13.03 7.853 23.05 18.876 27.97 34.797 7.47 24.201 3.65 56.436 10.85 80.395 2.49 8.292 6.31 14.921 11.09 20.879 3.05 3.039 6.11 6.08 9.16 9.119v.24h-.48c-11.52 6.02-24.47-10.726-27.25-17.039-8.7-19.782-3.37-50.4-8.44-75.115-3.54-17.28-9.05-29.892-20.97-38.637-24.6-18.051-59.05-19.074-95.718-25.438l-32.308-3.36c-38.493-7.106-72.17-14.179-92.1-39.358-7.146-9.028-13.015-19.382-16.877-31.678-6.132-19.527-5.433-48.724-1.206-69.835 6.197-30.945 10.768-59.109 16.396-90.714 3.497-19.641 4.47-43.158-.241-61.917-10.834-43.144-44.043-61.272-81.492-77.755-11.69-5.145-23.179-10.554-33.753-16.8-2.742-1.615-6.426-2.698-8.442-5.037m66.544 0h26.28l7.475 5.04c9.068 6.028 17.097 12.385 24.592 19.919 14.38 14.454 25.04 32.18 31.585 54.476 10.614 36.164 1.863 86.496-5.545 120.232-7.803 35.53-17.293 88.095 1.205 118.552 14.637 24.098 36.252 28.495 68.714 34.798q17.721 1.919 35.442 3.84c35.939 6.476 70.899 11.076 98.849 25.198 15.7 7.931 28.55 19.542 35.44 36.238 9.27 22.45 7.15 57.667 14.71 81.355 4.7 14.725 12.48 26.721 20.74 37.918 2.71 3.679 9.72 9.324 8.19 15.119-10.26 3.947-23.23-14.364-27.72-21.118-11.86-17.815-12.78-34.776-17.12-60.237-2.3-13.456-1.67-26.871-5.06-38.637-3.15-10.885-8.49-19.133-14.95-26.638-18.46-21.441-59.21-27.91-92.827-34.558l-31.585-4.08c-19.74-3.427-39.638-2.862-56.658-8.159-19.681-6.125-34.275-16.286-44.844-31.439-12.822-18.379-17.293-52.403-11.574-82.074s9.642-58.342 15.19-88.554c3.04-16.556 5.232-39.78 1.928-57.837-6.861-37.51-23.08-61.87-48.943-80.155L801.873 6.712zm54.488 0h16.153l8.198 7.92c5.251 6.14 10.811 12.526 15.189 19.438 15.723 24.825 20.454 50.88 22.182 86.875.944 19.68-2.648 41.676-6.027 58.556l-9.644 59.996c-4.162 23.443-2.01 53.111 7.233 68.396 18.004 29.77 50.617 27.212 89.448 35.277 35.167 7.304 68.177 14.3 97.407 26.878 24.65 10.611 43.55 27.685 51.83 54.717 5.86 19.107 5 43.871 10.85 62.395 9.07 28.668 25.57 53.574 47.5 69.596 14.4 10.521 33.22 15.355 49.18 24.718 10.91 6.396 19.89 14.313 27.25 24.238 5.45 7.361 12.12 12.013 12.05 24.959-3.05-4.559-6.1-9.12-9.16-13.679-6.76-9.213-15.22-18.104-24.59-24.718-14.95-10.555-34.56-15.866-50.63-25.438-18.92-11.272-34.47-28.47-45.81-47.277-7.45-12.353-12.76-26.581-16.4-42.718-3.93-17.463-3.16-38.107-8.68-53.757-5.94-16.849-17.19-28.743-30.62-38.157-29.35-20.574-71.82-27.412-113.072-35.997-41.693-8.676-75.101-4.739-94.511-36.958-9.687-16.078-11.973-44.894-7.233-68.635l13.019-79.915c1.568-8.472 1.149-17.431 2.653-26.878.902-5.662 1.791-14.32.723-20.879-2.45-15.05-2.752-29.045-6.75-41.757-6.988-22.214-20.889-45.541-37.13-58.556zm438.799 512.126v12.959l-20.49 2.16c-20.44 3.323-39-6.847-48.94-14.639-15.68-12.294-25.5-31.96-30.86-54.477-5.47-22.96-4.9-49.34-12.78-69.595-10.26-26.343-29.84-42.836-55.21-53.997-24.95-10.968-51.49-18.535-81.5-25.438l-22.42-3.36-33.029-4.799c-31.836-6.912-51.394-15.606-62.686-42.957-10.363-25.101-6.593-63.087-.965-90.954l4.34-32.397c1.471-8.533.438-17.889 1.928-27.359l.241-11.52c-2.129-13.117-1.466-25.458-4.339-36.957-6.258-25.036-15.617-41.07-28.932-58.557v-.24c4.515-.064 12.394-1.126 15.912.481l5.304 7.92c3.911 6.343 7.481 13.447 10.368 20.639 7.879 19.625 10.084 44.687 10.609 70.554 1.113 54.956-28.451 124.981 3.858 166.069 21.466 27.301 69.141 23.84 109.461 32.639 39.51 8.621 72.72 21.149 101.26 40.317 6.91 4.64 13.92 9.693 19.05 16.079 8.91 11.095 15.09 23.585 19.53 39.357 4.04 14.371 4.38 30.347 7.47 45.837 6.13 30.74 16.07 57.395 41.47 68.635 15.29 6.766 32.29 4.957 51.35 3.6m0-21.599v9.12c-12.88.687-26.04 1.199-36.16-2.88-47.78-19.243-37.24-83.515-57.38-129.111-13.22-29.919-40.36-43.875-67.75-59.756-8.83-5.116-18.15-10.438-27.73-14.639-12.13-5.323-25.46-8.583-40.26-11.52l-24.11-2.88c-21.52-3.548-43.114-1.601-60.518-8.64-14.964-6.052-25.233-17.518-31.343-32.397-11.738-28.589-2.853-71.505 2.652-101.033 8.761-46.994 3.992-104.476-13.502-136.791h13.984c2.388 7.577 5.906 15.368 8.198 23.759 7.376 27.003 7.073 67.305 1.688 96.473l-5.545 33.117c-5.285 24.189-10.335 58.238-.723 81.595 6.445 15.664 18.225 26.965 35.201 32.158 14.604 4.467 31.008 2.807 48.218 5.519 5.55.239 11.09.48 16.64.72l19.53 2.16c12.4 2.46 23.38 5.392 33.51 9.839 13.23 5.804 25.86 13.597 37.85 20.88 25.02 15.186 49.17 28.357 61.48 56.156 22.44 50.687 8.22 133.427 86.07 128.151m0-15.119c-61.87-.136-53.65-87.066-77.15-127.192-16-27.325-36.94-38.871-63.41-55.437-14.58-9.128-28.29-19.211-43.4-27.837-11.08-6.328-35.42-12.378-54.24-9.36h-9.65c-11.52 1.775-27.24 1.574-37.85-.72-18.667-4.035-31.509-13.08-38.094-29.038-9.631-23.341-3.023-57.447 2.17-81.115l4.099-27.358c4.88-26.502 6.902-60.767 1.928-87.835-1.946-10.59-2.583-20.533-6.027-29.517h7.715c9.435 37.111 11.555 89.261 3.616 130.791-4.471 23.392-12.665 65.275-3.134 87.354 5.599 12.971 16.802 20.033 32.307 23.279 8.4 1.758 22.29 2.23 31.59.72h13.26c20.72.691 39.62.437 53.28 8.399 14.2 8.283 25.28 20.183 38.57 29.518 13.1 8.078 26.21 16.159 39.3 24.238 14.27 9.951 25.24 21.701 34.24 36.957 8.44 14.317 13.54 32.593 18.57 49.917 6.09 21.044 9.98 42.547 23.38 56.156 5.01 5.079 11.91 9.129 19.77 11.279 3.06.481 6.11.961 9.17 1.44-.01 5.121-.01 10.242-.01 15.361M989.448-.008l4.099.24 2.41 12.239 1.929 19.199c1.437 8.845.855 26.98-.482 35.277l-.965 16.32-5.787 46.077c-3.765 19.627-11.241 54.966-2.893 73.915 5.904 13.403 24.411 17.907 44.601 14.639 29.23-4.731 67.33-6.587 88.49 5.999 15.61 9.288 24.22 24.916 38.09 35.758 16.07 12.563 34.76 22.573 50.63 35.278 8.03 6.423 13.71 15.844 19.05 24.958 19.11 32.627 16.67 94.442 53.52 108.473v13.439c-6.87-2.311-11.92-4.225-16.87-8.159-9.53-7.555-13.52-20.547-18.33-32.878-9.24-23.705-13.32-51.836-25.55-72.715-17.34-29.568-42.86-40.155-69.2-59.996-13.72-10.331-23.06-25.34-38.09-34.318-9.07-5.419-19.34-7.219-32.07-9.359-7.46-1.255-17.78-.381-24.35.719l-16.64 1.2c-25.09 4.04-50.296.269-58.102-17.758-7.426-17.152-.583-49.559 3.376-67.436 4.169-18.829 3.716-38.064 6.992-58.316 1.343-8.302 2.214-19.662 1.446-27.598v-15.6c-2.158-13.298-1.157-27.662-5.304-39.597m37.852 0c.64 6 1.29 12 1.93 18l.48 12.478-.24 7.44c-.99 9.469-.01 18.525-1.45 27.118l-1.92 21.838c-2.99 16.52-4.61 33.171-8.44 48.477-2.82 11.254-11.66 41.748-5.07 52.077 4.18 6.541 15 8.142 25.56 6.24 16.26-2.93 37.42-7.172 56.42-3.84 30.32 5.318 60.58 10.322 88 18.958 6.48 2.041 24.39 7.953 22.42 16.799-1.41 6.35-11.08 6.055-16.63 3.6-13.07-5.778-23.77-16.407-38.82-20.638l.48.719c15.73 5.355 14.25 33.097 36.89 38.158 14.3 3.197 28.35-10.652 25.8-24.959-1.41-7.878-5.26-13.114-9.41-18.239-12.01-14.843-36.68-15.436-59.31-19.919-27.33-5.414-57.26-11.6-70.4-31.197-9.35-13.961-6.99-38.263-3.61-57.116 5.6-31.295 4.41-64.387 1.44-95.994h8.2c.07 19.42 4.66 42.382 1.45 62.395-.73 8.878-1.45 17.76-2.17 26.638-5.46 31.173-6.03 56.292 15.19 71.276 12.01 8.481 29.16 12.467 45.56 15.839 27.93 5.739 57.76 4.623 72.57 23.038 11.24 13.973 15.4 37.508-.72 50.157-3.17 2.489-6.9 4.568-11.57 5.519l-5.55.481v.239c5.7 1.25 14.07 7.906 18.81 11.04 16.44 10.865 28.37 24.211 36.16 43.676 8.6 21.469 10.45 48.417 19.53 69.835 3.6 8.476 8.19 12.738 13.26 19.2l-.24 12.239c-24.73-14.602-27.42-75.096-42.43-102.233-6.78-12.254-14.89-23.085-26.04-30.958-12.82-9.055-28.55-14.718-40.74-24.238-15.52-12.104-23.7-31.371-40.75-41.998-22.97-14.313-62.6-13.227-93.79-7.44-15.63 2.899-32.15 2.256-37.37-10.32-5.995-14.437 2.66-39.787 5.55-53.276l7.71-48.957c.64-7.119 1.29-14.24 1.93-21.358.64-9.518 1.29-19.039 1.93-28.558-.97-14.595 1.32-29.404-2.41-42.237zm28.69 0c.22 12.16 3 25.394 2.41 38.157v18.959l-.24 14.159c-2.65 17.658-2.63 36.578-5.78 53.756-1.68 9.108-2.7 21.433.72 29.279 3.74 8.581 15.49 15.166 25.07 17.758l-.48.48c-7.9-2.105-25.4 3.501-31.82 5.28-4.24 1.172-10.6 2.84-14.47 0-7.45-5.467 3.69-31.081 6.03-38.638 4.8-15.543 6.47-32.925 9.64-50.877.48-7.598.96-15.2 1.45-22.798 1.83-11.32 1.53-24.698.24-36.238-1.07-9.528-.63-20.134-2.41-29.278zm37.37 0h8.44c.64 16.717 1.29 33.439 1.93 50.157.14 40.631-5.4 73.181 21.46 89.034 19.6 11.573 49.85 9.149 75.7 15.12 12.51 2.889 22.39 7.196 30.86 13.919 29.6 23.485 26.37 85.257 37.13 128.151 2.27 9.058 4.44 18.343 7.72 26.638 1.44 3.663 4.42 7.358 5.54 10.799v16.078c-10.28-8.034-13.57-26.176-17.84-40.077-7.52-24.474-11.05-52.452-18.32-77.034-4.12-13.914-6.63-27.238-13.27-38.397-6.63-11.168-15.94-19.382-29.17-23.999-10.59-3.696-22.58-3.779-34.96-5.999-22.03-3.954-43.06-5.984-58.1-16.559-17.87-12.561-21.27-39.307-16.64-68.155.4-8.719.81-17.44 1.21-26.159 1.61-17.505-1.5-35.618-1.69-53.517m23.15 0h11.09c2.22 39.41-2 92.445 22.18 110.153 19.52 14.3 50.58 9.203 78.12 15.599 29.42 6.837 46.85 23.73 54.25 52.317v51.836c-.09 17.117-.17 34.239-.25 51.357-5.82-42.97-4.19-109.108-31.1-130.311-10.56-8.321-23.39-12.029-39.78-14.879l-19.29-1.2c-17.97-2.781-33.35-1.625-46.77-8.399-16.3-8.229-20.98-23.06-24.59-44.157-.41-5.92-.81-11.84-1.21-17.758l-.48-22.799c-.73-13.92-1.45-27.842-2.17-41.76m34.72 0c.76 36.546 5.52 70.078 26.76 86.394 18.93 14.547 47.18 12.72 73.53 19.919 7.31 1.994 14.56 4.426 20.5 7.92 3.37 2.32 6.75 4.639 10.12 6.959l-.24 15.6-.24-.48-7.47-7.44c-5.86-4.656-12.76-8.81-20.25-11.759-14.89-5.857-32.76-6.023-50.39-9.84-22.66-4.906-41.52-14.18-49.91-33.117-5.66-12.775-6.22-25.006-8.92-41.518-1.46-8.896-2.93-23.627-1.93-32.638zm16.39 0h12.3c-.55 40.272 15.58 66.281 46.29 75.595 15.69 4.76 36.45 4.098 55.93 4.08v11.04c-76.27.803-114.7-14.424-114.52-90.715m29.41 0h5.31c.86 8.838 4.64 17.7 8.2 24.238 13.55 24.887 34.72 30.389 71.6 30.238v12c-40.46.43-65.54-6.744-77.63-34.32-3.91-8.914-7.24-19.63-7.48-32.156m85.11 0v13.92c-24.51 1.084-54.57 2.518-64.13-13.92zm0 30.957v10.08c-20.46.373-45.1-3.61-52.32-16.56v-.24h.25c4.25 1.681 8.52 3.361 12.77 5.041 5.9 1.647 12.37 1.418 19.05 2.4zM481.449 57.588c1.83 2.56 2.229 6.425 3.134 9.84 5.109 19.257-4.467 33.856-12.778 44.156-11.349 14.064-26.041 17.841-48.22 21.358l-18.324.481c-11.508 1.792-23.326.636-34.236 2.639-22.107 4.058-40.726 10.564-52.077 25.198-2.537 3.27-4.857 7.246-6.51 11.279-3.478 8.484-2.75 20.771 1.446 27.838 4.347 7.321 11.09 13.26 17.6 18.479 8.049 6.452 16.122 15.342 22.423 23.518 7.573 9.829 14.288 21.073 18.323 34.319 15.966 52.397-8.11 101.52-40.746 121.432-38.254 23.341-130.387 19.643-164.67-4.8-18.378-13.103-24.246-38.278-46.292-47.756-11.018-4.737-30.055-8.039-46.533-5.519-15.148 2.316-36.092 3.135-49.425-.961-23.354-7.174-32.426-30.559-38.576-54.956v-55.437l.24-48.477q1.568 8.4 3.135 16.799l1.928 19.438q.725 13.08 1.446 26.159l1.929 22.558c2.872 16.311 5.483 30.639 12.778 42.237 6.707 10.663 16.591 17.95 30.86 21.119 9.985 2.217 25.147 2.95 36.407 1.2h10.126c13.039-.001 24.325.975 34.236 4.08 30.476 9.545 31.03 34.579 52.319 50.156 7.455 5.454 16.48 9.969 26.281 12.959 27.495 8.386 85.056 10.29 112.594.719 10.684-3.712 20.233-8.897 27.967-15.599 21.779-18.872 36.919-61.182 25.798-101.274-4.217-15.199-11.606-27.776-20.735-38.157-15.469-17.591-51.938-34.901-40.023-71.516 1.559-4.789 4.111-9.332 6.751-13.198 12.078-17.689 33.365-25.029 58.346-29.998l22.422-2.4c17.039-2.686 35.394.154 49.667-4.319 21.089-6.611 36.468-22.916 40.987-46.077 1.062-5.432.198-12.845.002-17.517m669.781 802.506h-8.68c-.77-42.556 13.6-66.342 32.06-89.273 11.01-13.679 34.72-32.684 26.52-59.276-5.8-18.838-23.07-28.124-43.64-32.398l-15.43-1.2-16.87-.239-31.59 1.2-12.29.239-18.57-1.2c-12.43-2.163-23.6-4.174-33.75-8.399-22.75-9.467-38.345-27.333-50.394-47.517-6.907-11.572-11.988-24.754-17.6-37.437-11.278-25.487-29.138-50.695-54.73-61.917-34.237-15.013-87.733-9.276-127.542-2.4-37.749 6.521-63.108-3.256-74.258-28.317-3.527-7.93-6.263-16.621-8.438-25.918q-1.57-12.48-3.134-24.959c-2.913-15.953-5.074-30.351-11.814-42.238-5.669-9.997-12.801-19.607-21.7-26.398-15.183-11.589-43.411-24.507-36.888-55.196 4.517-21.254 18.262-31.501 29.655-45.597 12.656-15.659 26.02-30.194 33.03-51.597 3.61-11.019 5.451-22.89 7.715-35.518l1.206-17.759c.961-5.975 1.255-15 .241-21.358-1.546-9.691-4.889-42.675-.483-49.436 3.404-5.225 12.262-6.216 20.494-4.56 16.146 3.248 31.731 6.35 44.844 12.719 10.636 5.166 20.751 12.322 25.075 23.759 8.49 22.455-.273 58.656-6.269 78.235-6.545 21.375-13.185 41.702-19.77 62.636-3.386 10.763-9.089 28.309-6.51 43.198 3.721 21.479 11.039 37.851 16.153 57.836 5.888 23.003 5.394 50.871 21.699 63.356 3.844 2.943 8.757 5.521 13.985 6.96l9.885 1.68c-8.026.523-17.193 1.212-23.87-1.2-24.417-8.821-25.335-46.956-33.271-72.235-2.752-8.767-6.092-17.289-9.643-25.438-5.062-11.617-13.467-26.742-10.126-43.917 2.027-10.425 4.968-19.335 8.679-28.079 8.041-18.943 15.635-38.859 22.182-59.756 2.92-9.321 4.303-18.56 6.75-28.558 3.535-14.436 5.586-35.808-.482-48.717-6.024-12.814-20.449-19.838-34.959-24.238-9.156-2.776-26.433-6.021-32.066 1.919-6.535 9.213-2.896 31.18-2.893 45.357.004 24.977-2.809 46.265-9.163 65.036-7.376 21.795-21.595 36.784-34.478 53.036-10.221 12.894-22.696 23.653-26.28 43.197-4.632 25.252 18.138 35.605 30.86 45.118 10.075 7.532 17.823 17.235 24.351 28.317 6.34 10.765 9.471 24.256 12.537 38.158 3.802 17.236 4.221 34.628 10.849 48.477 5.602 11.704 13.936 21.93 26.762 26.398 16.776 5.844 45.568 1.941 63.168-1.439 34.953-6.715 82.77-6.662 109.218 6.719 26.748 13.534 43.454 38.511 55.693 66.475 5.769 13.18 10.501 26.962 17.601 38.877 10.7 17.959 24.029 31.687 42.189 42.237 10.94 6.352 24.43 8.16 39.3 10.799l13.26.72 21.46.239 16.4-.719c11.89-1.872 28.94-1.833 40.74.48 26.52 5.196 47.14 15.683 54.49 39.598 9.11 29.601-13.87 51.253-26.76 65.755-19.44 21.873-34.77 43.918-34.71 85.673M495.192 96.225c2.518 7.897-7.865 27.448-10.849 31.918-9.615 14.402-22.393 24.457-42.434 28.558-8.376 1.715-18.807.962-28.449.961-31.562-.004-60.497.116-74.5 17.999-4.362 5.57-11.754 16.151-8.68 27.598-5.44-2.566-10.195-13.176-7.474-22.079 3.287-10.76 11.539-18.58 20.734-23.518 14.217-7.636 43.642-11.691 64.856-10.079 10.835.822 26.542.707 36.406-1.92 25.621-6.824 41.835-25.55 50.39-49.438m-509.204 25.678c7.35 3.553 12.966 16.296 16.153 24.479 14.972 38.422-4.252 92.27 9.644 131.03l-.482.24c-.87-6.208-2.937-14.069-4.34-20.879l-1.688-21.119v-13.678c.66-15.325-.131-32.433-2.893-45.598-2.223-10.594-5.042-21.284-9.885-29.517-1.788-3.039-5.203-6.333-6.51-9.36zM1179.92 860.094h-12.3c-1.07-53.71 33.43-69.814 52.8-102.713 15.31-25.982 12.99-54.965-4.34-76.554-11.31-14.101-28.81-21.417-50.39-25.438-11.55-2.153-35.33-2.43-47.49-.48l-18.09.48-20.97.24c-18.36-2.914-31.67-3.879-45.33-10.799-36.283-18.384-44.18-50.833-60.757-88.315-9.587-21.675-23.252-41.993-41.228-55.437-24.698-18.471-68.651-25.584-110.906-17.999-19.716 3.539-55.019 11.365-74.259 3.12-28.871-12.372-25.433-56.882-36.407-87.115-5.397-14.867-13.183-28.521-24.592-37.438-11.98-9.364-26.64-16.07-31.343-32.638-4.3-15.15 3.009-29.408 8.68-38.638 14.848-24.167 35.734-41.474 46.773-69.355 4.305-10.872 5.507-23.451 7.715-36.477q.602-8.88 1.206-17.759c2.506-15.653-1.306-29.878 10.126-36.718 5.699-3.41 15.484-1.001 20.252 1.44 19.534 10.001 15.826 38.03 10.126 60.236-7.199 28.038-17.023 53.54-30.38 75.595-8.489 14.021-24 33.495-27.003 51.357-2.036 12.11 20.271 22.131 26.039 29.278 12.586 15.599 17.448 39.508 23.627 61.437 2.967 10.528 4.97 21.179 10.368 29.278 9.165 13.75 26.969 17.447 49.426 13.199 39.75-7.519 86.687-5.443 119.586 7.44 32.972 12.913 54.239 37.834 68.231 69.596 13.98 31.721 17.56 63.561 46.29 81.114 9.46 5.779 20.62 8.477 33.76 10.799l14.46.72 13.02.239c5.87-.159 11.74-.32 17.6-.48 7.77-1.205 19.17-1.527 27.25-.239 8.9 1.417 17.79 1.299 26.03 3.119 18.64 4.116 33.26 11.336 45.81 21.358 24.6 19.63 43.79 66.332 30.62 110.153-3.5 11.649-7.6 22.758-13.26 32.398-4.84 8.26-10.31 16.371-13.98 25.678-8.53 21.621-.08 42.875 20.49 46.078v.239h-29.41c-2.11-3.752-4.52-7.311-5.79-11.999-7.03-26.003 17.65-57.866 26.76-73.435 23.57-40.274 12.93-96.728-17.84-120.952-12.74-10.033-27.34-16.529-46.29-20.639-6.19-.719-12.38-1.44-18.56-2.16h-24.12l-18.56.72h-8.92c-21.65 3.287-50.56-3.308-62.93-10.559-33.88-19.873-36.07-49.9-52.076-86.155-13.715-31.071-34.623-55.118-66.543-68.155-30.5-12.456-74.724-12.251-110.906-5.76-24.545 4.404-47.264 2.956-58.106-12.479-7.266-10.345-9.182-24.485-13.261-38.157-4.917-16.481-9.651-33.193-18.083-46.317-4.768-7.422-10.909-14.87-17.841-20.158-8.586-6.551-18.813-10.783-20.976-23.759-2.611-15.655 17.308-35.678 23.869-44.157 18.091-23.383 29.743-46.003 39.3-78.475 3.245-11.026 8.652-34.195 3.616-46.317-1.949-4.691-7.763-10.49-13.984-6.24-6.999 4.781-4.616 17.036-6.269 27.358-3.32 20.754-4.598 39.174-11.573 55.437-10.951 25.535-29.371 41.438-44.362 62.636-6.158 8.707-14.497 22.73-9.644 37.678 4.929 15.179 19.831 21.105 31.102 29.998 10.79 8.512 17.956 23.211 23.388 36.957 10.664 26.99 10.053 67.838 36.647 78.955 14.459 6.045 37.467 3.124 53.524.24q11.693-1.44 23.387-2.88l21.458-.96c6.815-1.029 15.927-.318 22.181.719 26.289 4.361 43.137 7.666 60.757 20.399 19.981 14.44 33.62 36.66 43.88 60.717 14.447 33.871 21.195 66.454 55.215 81.114 10.97 4.73 36.73 11.513 53.28 8.879l15.19-.239 21.46-.961c9.16-1.388 25.28-1.499 34.47 0 29.73 4.851 51.6 12.324 66.55 31.439 5.17 6.614 9.54 14.321 12.54 23.038 1.77 5.16 2.63 10.982 3.61 16.799 3.27 19.333-4.75 40.292-11.33 51.357-4.52 7.606-8.94 14.417-14.22 21.119-17.45 22.128-37.86 35.054-37.85 75.355M129.684 129.103c6.526 8.23 3.91 27.12-.723 35.038-11.204 19.144-30.238 27.344-36.165 52.557-.723 3.079-1.879 7.673-1.205 11.759 2.29 13.887 8.679 21.269 19.771 26.159 4.781 2.108 13.42 4.633 16.395 8.64-11.814-2.043-25.952-2.035-34.719-7.199-14.157-8.341-15.496-30.165-8.438-47.517 3.568-8.772 8.505-15.968 13.984-22.799 13.133-16.377 34.121-25.406 31.1-56.638m-79.563 12.479 1.928.24c7.339 3.002 9.442 16.684 6.028 25.437l-4.581 7.921h-.483c.603-10.664-5.537-24.362-3.616-33.118q.362-.24.724-.48M545.1 156.461l.241.48zm-.242.48.241.72h-.241zm-.24.72c1.141 4.017-7.018 18.615-8.921 21.838-4.966 8.413-10.477 15.641-18.083 21.358-12.407 9.326-27.613 15.897-37.612 27.598-7.238 8.471-12.992 17.586-16.635 29.758-6.779 22.645-3.825 51.094-7.956 77.035l-2.893 34.318-.723 17.279c5.941 37.347 28.05 44.474 59.069 56.156 9.23 3.477 18.334 6.753 25.556 12.239 18.719 14.218 16.478 38.606 21.699 65.997l5.787 37.918-7.715-31.918c-5.594-23.17-8.181-52.498-24.833-64.795-8.357-6.172-18.888-9.047-29.415-13.2-24.925-9.83-49.862-19.995-58.828-45.597-5.365-15.318-1.806-40.059.964-56.157l2.171-28.078 1.928-30.717c4.463-27.303 5.363-44.163 20.252-61.196 10.888-12.456 26.758-18.845 41.228-27.838 13.599-8.452 29.899-25.43 34.96-41.998m-80.287 55.436h1.446l-.24.481c-12.307 1.295-22.723 17.274-23.87 30.238h-.24c-1.242-10.532-8.25-26.071 4.822-29.998zm765.249 36.478c9.27 1.027 18.56 17.862 20.02 27.358h-.24v-.48l-6.03-8.64c-4.74-5.528-11.71-11.892-19.05-14.639l.48-.719c1.53-.709 3.22-1.915 4.82-2.88m-329.098 15.359.24.719h-.24zm.24 1.199 4.582 11.279c5.634 9.866 13.398 17.774 23.145 23.519 20.203 11.908 50.015 11.924 76.911 17.519 42.03 8.741 82.56 16.439 113.8 35.757 17.25 10.673 29.34 24.672 37.13 44.878 7.19 18.657 5.66 44.363 10.85 65.036 5.14 20.513 13.07 37.102 24.35 51.357 11.84 14.96 27.81 24.079 51.11 27.838 13.37 2.156 26.84-1.879 39.54-.24l-.24 42.957v-.48c-1.2-2.719-2.41-5.441-3.62-8.16-2.77-6.296-6.85-12.643-12.53-16.078-9-5.437-26.27-3.665-37.13-6.96-18.74-5.687-34.64-17.812-45.33-31.678-12.02-15.603-20.18-33.475-26.04-55.437-5.47-20.512-3.97-45.483-11.09-63.595-9.45-24.051-28.34-40.421-51.59-50.636-28.93-12.708-61.72-19.594-96.685-27.118l-45.81-7.199c-27.154-6.763-50.388-20.075-51.353-52.559m-889.178 11.52.483 1.68h-.24zm.483 1.68.24.48zm.482 1.2.482 1.2h-.24v-.48zm.482 1.92h.483zm.241.48h.483zm-27.244 51.596c5.568 6.062 9.066 13.167 16.395 17.519 4.08 2.424 12.406 2.901 15.43 4.8-7.902.092-15.826 2.037-23.145-.961-3.304-1.352-5.67-4.12-8.68-5.519zm86.555 19.199 13.984.24c13.941 2.266 25.49 4.149 34.719 10.799 10.675 7.692 16.781 19.454 24.833 29.758 8.445 10.807 19.952 19.011 33.754 24.479 14.007 5.547 30.608 6.69 47.497 9.599l25.798 2.16 27.486 1.919c14.276 2.376 28.51 2.66 42.193 5.52 52.964 11.071 102.643 23.818 117.415 72.715 2.166 7.168 2.252 14.981 3.617 23.279 1.769 10.76-.766 25.918-2.653 34.318-2.632 11.713-5.045 22.39-10.368 31.438-12.744 21.663-32.007 36.026-44.844 57.596-13.747 23.1-16.517 53.19-26.281 80.636-6.431 18.08-15.095 33.948-19.77 53.756-3.221 13.652-.824 28.14 5.786 35.998 14.785 17.573 53.441 7.321 81.009 11.759 15.319 2.466 29.681 2.851 42.193 7.679l16.395 7.44 7.716 5.04v.24h-19.771c-5.637-1.976-11.564-5.27-18.083-7.2-7.688-2.276-16.184-2.199-25.075-3.599H405.5l-19.046.239c-20.34.004-38.125-.523-49.666-9.599-9.108-7.161-14.135-24.064-10.849-41.037 4.279-22.115 12.233-38.493 19.528-56.876 9.851-24.82 13.951-55.667 24.593-79.915 5.16-11.757 12.252-22.19 19.771-31.677 8.164-10.302 18.117-18.808 25.315-30.239 7.749-12.303 11.176-25.756 14.225-43.198 1.604-9.177 1.963-20.255.241-29.517-1.439-7.744-3.157-14.653-5.787-20.879-4.221-9.993-10.599-19.39-18.565-25.679-23.368-18.45-53.271-26.566-88.243-34.078l-37.13-4.799-23.145-1.68c-28.229-4.523-57.242-2.671-80.528-11.759-12.964-5.06-23.856-12.291-32.307-21.838-15.292-17.273-20.701-34.328-46.533-41.998-32.474-9.641-61.157 4.934-81.733 15.359-7.965 4.035-22.946 6.364-29.655-.72v-11.759c2.651 1.469 5.345 2.966 8.92 3.599 6.82 1.209 12.805-1.973 17.36-3.599 10.708-3.825 21.122-7.74 32.547-10.56l19.047-2.879zm1199.237 0c1.52 2.719 3.05 5.441 4.58 8.16 1.93 1.919 3.86 3.84 5.78 5.76l-.24 11.519-.96-.719c-1.21-1.68-2.41-3.36-3.62-5.04-3.1-5.106-5.1-12.209-5.54-19.68M66.516 378.686c58.381-.981 61.331 44.996 99.574 62.876 17.414 8.141 37.012 8.525 59.552 12.239l23.145 1.439 43.157 4.32c54.397 10.197 107.252 16.874 118.863 69.596 1.746 7.928 1.73 19.291.241 27.358-2.341 12.677-4.517 22.557-9.163 32.398-5.598 11.861-14.975 20.897-22.663 30.717-6.148 7.854-11.694 16.122-16.877 24.959-11.781 20.088-15.735 45.878-23.387 70.316-6.102 19.487-14.468 36.94-21.699 55.196-12.989 32.792-17.612 80.868 20.976 89.754v.239h-23.628l-6.51-7.439c-4.067-5.722-6.947-12.929-8.92-20.639-3.561-13.92-.964-31.703 2.17-43.917 7.113-27.723 18.622-50.084 27.004-76.555l10.849-41.757c5.14-16.712 11.557-32.346 20.011-45.836 5.383-8.591 12.69-15.561 18.323-23.759 9.403-13.686 14.875-26.415 18.324-46.797 1.242-7.342.886-16.723-.723-23.519-1.346-5.684-3.312-11.119-6.027-15.599-19.195-31.652-65.823-35.322-109.218-43.198l-35.924-3.599q-11.211-.722-22.423-1.44c-20.261-3.324-39.165-3.782-54.97-10.559-34.868-14.951-41.926-54.055-80.286-64.316-30.517-8.163-52.41 10.062-70.883 19.438-6.59 3.345-22.781 7.453-29.415.961l.24-12.24c21.924 12.032 37.952-7.654 54.248-14.639 5.525-2.368 11.889-4.018 18.324-5.279q3.858-.358 7.715-.719m716.068 8.879 4.581 13.44c4.093 9.79 12.561 23.952 22.422 27.598v.239c-15.617-2.483-26.13-23.492-27.003-41.277M69.891 407.484c39.931-.308 58.719 25.236 67.266 56.396 2.235 8.146 5.742 23.041 4.099 33.838l-1.688 22.799c-2.576 14.625-6.295 35.798-1.688 50.636 6.995 22.524 29.268 27.693 52.56 34.078l20.011 5.519v.24c-7.29-.204-14.957-1.98-21.457-3.361-25.484-5.409-48.352-9.34-56.418-31.917-4.477-12.532-2.672-32.286-.24-45.837l1.928-20.879c.971-5.792.674-13.819-.241-19.199l-1.446-13.919c-3.194-15.092-8.58-26.43-16.635-36.478-4.21-5.251-10.629-9.78-16.878-12.959-27.523-14.003-55.99.198-77.875 9.12-8.554 3.487-22.838 9.542-35.2 6v-13.199c26.535 3.513 40.207-7.754 58.828-15.359 5.145-2.102 10.808-3.57 16.635-4.799q4.221-.36 8.439-.72m939.569 15.599c33.25 1.868 55.44 9.687 64.13 36.478 10.49 32.355-3.08 72.993 17.6 97.433 18.01 21.283 57.99 11.844 90.66 17.759 41.29 7.475 66.65 20.68 86.79 48.956 4.5 6.308 11.06 14.262 13.5 22.079v23.518l-.48-.239c-1.73-10.436-9.9-23.188-14.95-31.198-18.36-29.174-43.22-45.461-83.66-53.036-36.52-6.842-81.43 3.145-100.78-20.879-10.2-12.667-11.22-24.921-13.74-45.597l.24-11.52c.19-11.781-.23-23.417-2.65-33.117-6.77-27.154-20.87-35.459-45.33-44.878-5.48-2.11-12.06-4.425-17.84-5.279v-.24zM-14.012 475.4v-15.6c25.404 1.036 44.137-9.928 64.133-16.799 10.835-3.723 28.241-6.002 40.263-1.439 4.86 1.844 9.246 4.466 13.02 7.44 15.129 11.921 21.383 43.035 16.153 70.315-3.535 18.437-9.341 43.275-3.134 62.876 8.11 25.614 33.448 30.424 60.757 37.197 11.02 2.732 40.045 11.402 49.908 3.84 11.514-8.829-.836-22.29-8.197-25.918-7.608-3.75-16.97-4.333-26.281-6.48-12.645-2.915-23.559-5.717-32.066-12.478-9.933-7.895-14.175-26.039-10.126-43.437 5.269-22.639 13.275-40.601 32.791-48.957 19.585-8.387 60.309-5.612 83.179-1.439 44.454 8.112 92.958 8.654 105.119 48.717 2.176 7.166 3.033 16.981 1.446 25.437-1.324 7.063-2.444 13.823-4.821 19.919-3.595 9.215-7.667 20.16-13.502 27.598l4.822-15.119c5.252-17.193 9.161-44.64 0-60.476-18.998-32.835-67.878-31.68-113.077-38.637l-10.608-.24c-22.148-3.306-46.14 2.899-57.381 11.759-15.07 11.878-24.493 49.806-5.305 64.556 20.127 15.47 55.64 6.422 69.678 29.518 3.691 6.071 6.261 16.149 2.893 24.718-2.216 5.639-6.411 8.724-9.885 12.959l.482.72c11.396 4.575 17.419 22.455 13.502 39.117-4.503 19.159-12.729 32.098-22.422 45.598l-7.957 10.319c4.585-15.379 13.391-28.053 17.6-44.637l1.688-10.559c1.038-6.089-.498-12.794-1.928-16.799-7.41-20.749-29.977-19.616-52.56-25.199-34.136-8.439-65.846-11.712-78.117-41.757-16.385-40.118 24.604-107.919-14.466-132.23-9.674-6.019-26.802-6.754-39.54-2.88-21.602 6.567-39.272 17.293-66.06 18.477m1059.392-14.879.24.48zm.24.72c6.65 4.627 7.94 24.61 9.41 35.758 1.73 13.139-4.15 27.594-1.69 42.476 2.63 15.931 5.74 27.138 13.74 37.197 19.89 24.999 72.23 14.033 110.18 21.358 42.75 8.25 67.95 24.358 85.35 57.596 14.21 27.13 21.52 73.361 11.82 111.353-1.92 7.513-4.3 14.924-7.23 21.599-3.24 7.366-7.51 13.784-9.17 22.799-2.82 15.334 11.78 19.061 24.11 16.078v13.919c-16.17 4.361-43.6 3.18-40.02-18.479 3.55-21.479 15.53-35.062 21.7-54.716 10.9-34.766 4.77-81.531-10.37-107.273-16.07-27.335-37.86-42.965-74.5-50.157-39.33-7.722-85.99 2.913-112.83-17.278-14.26-10.722-24.85-34.575-20.01-61.437 1.87-10.435 3.03-20.168 4.82-31.438l.48-11.759c-.8-5.92-1.61-11.84-2.41-17.759-1.13-3.277-2.25-6.558-3.38-9.837M59.524 472.28c22.847-.302 30.661 8.387 33.995 27.599.794 4.574 1.075 11.57.241 16.558-4.488 26.839-12.035 63.567-1.446 88.794 7.17 17.084 21.715 27.775 41.469 32.397q12.296 1.562 24.592 3.12c26.05 4.881 52.79 7.523 61.24 29.758 6.497 17.096-6.102 42.963-11.091 55.677-14.014 35.71-33.025 95.211-9.643 133.91l-12.297-.239-4.822-10.559c-2.554-6.199-4.253-13.084-5.786-20.159-4.358-20.107 1.675-43.596 6.75-59.756 6.75-20.076 13.503-40.159 20.252-60.236 2.546-8.097 7.08-19.886 4.581-30.718-5.182-22.464-26.501-26.523-49.908-30.958-9.372-1.775-18.806-1.502-27.486-3.84-11.575-3.119-20.617-7.709-28.691-14.159-17.394-13.894-25.675-45.063-20.252-76.315 3.264-18.809 8.496-49.199-2.41-63.116-5.03-6.418-17.732-8.369-28.692-6-13.76 2.975-26.403 7.201-39.54 10.799l-24.593 4.8v-9.12c18.248-2.14 33.938-8.415 49.666-13.2q7.595-1.92 15.19-3.84 4.341-.596 8.68-1.197m463.636 1.44c9.392 8.129 14.422 30.454 18.083 44.637 3.961 15.349 12.05 45.208 8.197 63.355-4.617 21.754-16.337 39.21-26.761 55.677-4.491 7.093-15.911 25.247-22.663 28.798v-.24c4.407-14.626 11.121-24.59 18.083-36.477 5.783-9.875 9.957-22.304 13.502-33.838 11.307-36.803.827-89.015-8.441-121.912m-366.472 4.32c2.131.582 3.627 1.615 4.821 3.12-.662 2.328-2.28 4.523-3.858 5.999h-.24c.228-2.725-.306-6.4-.723-9.119m-170.7 46.796v-12.959c21.007-.71 58.81-19.348 77.152-5.519 8.265 6.231 9.87 22.909 7.475 36.238-4.774 26.547-6 51.65 3.858 74.154 8.26 18.86 23.222 32.07 44.604 37.918 20.231 5.534 48.987 1.654 63.41 13.92 18.523 15.752-.422 54.045-6.028 71.755l-5.304 21.598c-.274-25.101 15.523-64.178.723-82.794-11.196-14.084-38.707-9.775-58.346-15.599-23.292-6.908-38.592-22.042-47.738-42.957-8.067-18.449-10.806-43.724-6.51-67.196 2.354-12.861 3.178-29.268-5.544-35.518-5-3.583-14.461-4.079-22.182-2.4-14.822 3.223-29.61 8.173-45.57 9.359m235.555-18.238c21.904-.3 41.925 1.767 60.035 5.759 23.499 5.181 49.395 8.285 61.239 24.959 16.609 23.384-.542 67.932-7.474 90.234-9.166 29.485-14.906 61.39-25.075 90.235-8.688 24.641-19.304 46.248-26.521 72.475-3.39 12.317-5.432 31.417-1.446 44.878 2.862 9.668 6.994 17.437 11.813 24.959h-14.707l-6.992-16.559c-4.926-15.594-5.146-35.804-.965-52.316 6.954-27.458 19.064-50.472 28.692-75.835 10.667-28.103 15.162-60.575 23.627-90.714 4.992-17.771 17.35-52.278 8.439-72.955-10.42-24.179-49.498-24.435-80.046-29.278-8.264-1.311-23.345-1.6-31.825-.24-12.183 1.955-23.561 3.346-26.039 14.879-.793 3.693.347 7.238 1.929 9.359 7.757 10.407 32.968 8.53 46.773 12.72 27.316 8.292 32.769 29.01 33.513 61.916.213 9.451-.872 19.88-2.411 28.318-3.016 16.539-4.668 31.832-10.126 45.837-7.345 18.847-16.813 35.101-24.833 53.277-9.306 21.089-22.571 52.983-15.19 84.714 2.359 10.142 6.312 18.316 9.644 26.878h-13.502c-2.799-8.863-6.396-17.398-8.438-27.838-3.199-16.355-.135-35.436 3.616-48.716 5.197-18.395 11.463-33.974 19.047-49.677 6.112-12.657 13.306-24.67 18.806-38.158 5.744-14.085 8.377-29.914 11.573-46.797l1.928-22.799c.773-4.725-.277-10.465-.964-14.399-4.288-24.552-9.972-37.133-32.308-43.677-13.933-4.082-31.551-2.641-42.434-9.599-19.532-12.488-9.982-40.022 7.233-47.517 4.695-2.043 10.111-2.837 15.913-3.84q3.74-.244 7.476-.483m4.099 26.158c31.664-.508 64.301 4.218 77.875 22.799 13.075 17.898 6.912 51.895 1.688 74.395-6.889 29.671-11.212 58.777-21.457 84.475-9.96 24.98-23.651 46.183-30.62 73.915-4.164 16.57-4.5 39.76.723 55.435 1.922 5.768 4.864 11.009 6.992 16.319h-8.92l-5.064-11.278c-2.448-6.13-3.887-13.105-5.304-20.159-6.511-32.389 10.086-65.854 19.529-87.113 6.451-14.524 13.309-28.787 18.323-44.637 3.533-11.166 5.457-22.692 8.198-34.798 5.593-24.701 16.247-76.925 1.688-97.433-16.151-22.749-48.876-18.69-78.84-27.118 2.008-5.147 9.802-2.779 15.189-4.802m-197.703 3.12c1.584.383 3.151.686 4.581 1.68-.146 4.637-3.284 7.943-4.821 11.519-2.886 6.71-5.798 17.746-4.099 28.079 5.068 30.823 16.051 54.716 29.414 77.514 9.001 15.357 16.38 30.259 31.343 39.598 6.347 3.961 14.139 6.709 22.422 8.64 18.186 4.24 39.161 1.76 47.738 15.359 4.022 6.377 5.679 18.505 3.858 29.038-2.87 16.604-3.906 32.85-6.75 50.158-2.638 16.045 2.704 38.446 6.992 49.197l6.269 13.439h-13.502c-4.662-9.814-8.503-20.22-11.09-32.398l-1.688-17.999v-17.519l1.928-19.679c1.945-10.671 5.481-27.017 1.688-37.677-5.075-14.265-22.952-13.141-38.575-17.039-7.217-1.801-14.438-4.062-20.252-7.44-21.273-12.36-31.655-33.838-41.952-57.116-8.655-19.566-18.797-38.469-25.556-59.996-4.99-15.894-7.28-44.707 5.064-54.235 2.11-1.635 4.228-1.935 6.988-3.123m17.118 3.599c.929 2.473.098 6.276-.482 9.599-1.713 9.818-3.207 22.323-1.446 32.878 4.896 29.352 13.76 52.546 28.932 71.515 10.53 13.165 25.825 21.372 45.567 25.438 17.759 3.658 49.635-.391 46.533 22.319l-.241-.48c-3.719-3.781-4.295-7.637-9.885-9.84-8.733-3.441-20.823-1.119-31.825-2.88-10.354-1.657-18.942-2.975-27.004-6.48-27.538-11.971-41.595-43.96-51.596-73.434-2.996-8.833-7.762-24.208-5.786-36.958.99-6.396 1.345-14.353 3.134-20.638q2.05-5.519 4.1-11.039m-59.069 3.601c14.226 1.685 9.143 12.142 11.332 25.198 1.198 7.146 2.249 13.999 4.58 20.159 8.762 23.14 19.51 44.509 28.692 67.675 7.755 19.567 13.074 40.267 25.075 55.437 7.453 9.42 18.906 16.232 32.066 19.918 15.405 4.315 33.836 3.64 37.852 19.199 3.201 12.396-3.788 24.603-7.715 32.878-8.311 17.511-20.601 51.583-12.778 76.556l-12.297-.24-1.928-14.639c-2.591-15.336 3.191-33.083 7.233-42.957 4.227-10.325 18.577-32.011 12.296-47.037-5.051-12.084-19.887-13.198-33.03-17.278-11.172-3.468-21.68-8.895-28.21-17.039-15.007-18.715-20.82-46.961-30.86-70.555-6.62-15.556-13.82-30.904-22.182-45.117q-5.062-9.119-10.126-18.238zm578.158 16.079.241.719-.482-.239zm221.814 34.557 22.904.481c32.631 5.375 51.203 11.559 60.275 40.557 2.433 7.774 5.168 19.624 3.376 30.238l-2.894 17.278c-2.644 9.636-6.06 18.985-10.849 26.638-5.85 9.351-13.43 17.534-22.422 23.759l-13.019 8.16c-3.307 2.566-7.244 8.492-4.822 14.399 5.278 12.869 37.12 26.309 49.908 34.078 29.279 17.789 55.804 39.641 71.607 70.796H925.8c-2.608-7.895-10.317-14.562-15.19-20.639-17.669-22.033-42.392-36.201-67.509-50.877-12.839-7.502-37.513-16.885-43.156-30.478-8.222-19.804 23.006-29.143 33.03-36.477 18.482-13.523 38.716-52.203 25.798-84.955-5.28-13.386-14.9-22.937-27.967-28.558-19.744-8.493-54.781-8.352-79.322-3.84-9.602 1.765-18.388 1.945-27.244 4.319-43.422 11.637-76.299 28.362-98.129 61.195-16.503 24.825-23.249 58.972-39.057 84.235-9.133 14.594-21.233 29.51-34.478 40.077-7.183 5.732-18.714 12.528-21.458 22.319-1.761 6.281 1.312 11.832 3.616 15.599 6.056 9.898 14.065 18.067 19.771 28.078-2.572.079-9.351.879-10.849-.48l-26.521-30.958c-2.066-2.912-4.755-7.874-3.616-12.959 2.17-9.686 12.153-15.615 19.046-20.879 11.998-9.16 23.509-19.814 32.79-31.678 10.343-13.22 18.412-28.704 25.316-45.356 7.115-17.164 12.607-35.031 21.699-50.158 12.96-21.56 32.04-37.557 54.971-49.197 22.15-11.243 47.247-15.905 76.187-21.118l28.932-2.88q6.748-.358 13.5-.719m293.66 266.382-8.2-.239c-.8-7.279-1.61-14.559-2.41-21.838-3.32-18.636-3.37-34.502-12.78-46.317-10.78-13.538-41.07-17.301-59.067-24.238-32.726-12.613-61.712-26.072-80.769-52.077-7.119-9.715-11.809-21.322-14.466-35.518-3.442-18.395-.72-36.267-7.233-51.357-4.78-11.079-13.301-17.944-23.869-23.279l-9.163-3.6v-.239c17.602-.014 31.607 4.616 39.058 16.799 6.179 10.101 7.084 22.333 9.403 36.718q.725 10.439 1.446 20.879c2.14 11.605 5.825 21.471 11.332 29.758 17.831 26.831 48.554 42.442 81.978 53.757 18.49 6.263 50.67 7.583 62.92 19.679 10.48 10.34 6.77 30.112 9.65 48.478.72 10.875 1.45 21.757 2.17 32.634M210.453 610.991h.964v.239q-.484-.118-.964-.239m568.032 0 15.672.48c17.688 3.015 33.311 6.42 42.434 17.758 19.254 23.93 9.337 61.301-10.609 77.276-5.792 4.638-11.834 9.556-19.046 12.719-15.951 6.993-48.546 12.86-37.13 40.077 7.742 18.458 34.959 28.466 52.078 38.397 30.474 17.681 60.269 33.723 79.803 62.156v.239h-15.672c-4.441-7.425-13.433-13.985-20.252-19.199-8.579-6.557-17.291-13.196-26.761-18.958l-35.684-19.439c-15.407-8.935-32.215-15.512-42.674-29.278-16.491-21.702-12.065-52.16 17.841-56.396l-4.581-1.439-11.814-5.28c-4.149-2.102-8.411-4.251-13.502-5.519-6.937-1.729-15.372-.221-20.494 1.92-24.645 10.304-29.242 48.414-17.358 76.314 13.288 31.203 44.567 46.339 74.018 61.437 7.653 3.923 15.214 7.545 22.422 11.759l6.992 4.079h-26.521l-24.35-12.959-20.977-11.039c-19.069-11.586-35.59-26.599-44.604-48.237-5.936-14.251-9.507-37.281-4.821-55.915 2.301-9.153 5.727-17.346 10.608-23.999 8.365-11.402 27.704-24.342 47.497-15.839 11.085 4.762 17.353 14.824 30.138 17.999 13.289 3.301 27.121-6.446 33.513-11.519 20.704-16.434 27.221-53.536 1.446-69.596-28.364-17.673-81.177-5.5-106.325 6.479-32.862 15.653-52.727 33.118-70.642 63.596-10.772 18.324-15.159 41.884-24.593 61.436-8.124 16.837-19.941 29.9-29.414 45.356-3.519 5.742-9.047 14.008-7.233 24.479 1.247 7.203 2.554 13.533 5.064 19.439l4.821 10.319h-14.466c-4.165-11.666-18.24-24.436-12.537-42.956 3.762-12.216 12.759-19.377 19.771-28.318 7.565-9.648 15.138-19.314 21.699-29.998 14.414-23.472 20.614-54.707 34.959-77.995 12.914-20.963 31.315-35.258 52.802-47.756 16.505-9.602 36.29-14.548 57.623-19.199l19.529-2.4zm-792.497 5.759c5.068 4.897 8.133 13.021 11.814 19.2 9.624 16.154 16.432 34.782 22.663 54.476 4.377 13.832 6.975 28.327 12.537 41.037 2.333 5.331 5.755 11.081 11.573 12.959 3.753 1.213 9.051.702 13.742.72 11.332.045 22.993 1.241 28.21 7.919 5.4 6.915 3.516 19.309.24 27.118-5.672 13.526-14.951 23.397-19.288 38.877-2.468 8.806-1.513 18.678-3.134 28.318-.768 4.566.143 8.839-.965 12.719H49.155v-.239c6-11.488 3.065-29.907 7.233-43.677 2.337-7.725 5.706-14.82 9.643-21.118 2.977-4.763 6.811-9.268 8.68-15.12 3.109-9.735-1.446-17.908-9.162-19.918-15.717-4.097-25.299 9.57-30.62 17.999-15.397 24.386-20.097 51.721-48.943 63.356l.24-14.159c20.089-3.075 28.433-42.049 38.335-57.596 2.339-3.673 5.906-7.779 9.403-10.32l7.233-4.319c-9.161 1.809-17.267-1.013-20.011-7.2-2.883-6.498-2.237-14.777-3.617-23.038-2.535-15.19-3.02-30.334-6.992-43.917-3.8-12.993-7.827-25.507-13.502-36.718-4.447-8.794-11.032-14.407-11.087-27.359m780.443 16.559c18.742-.334 35.635 1.585 43.879 11.999 11.113 14.036 3.362 35.945-7.715 44.637l-7.715 4.799c-19.668 8.123-32.323-10.69-43.88-16.558-10.718-5.442-26.84-3.51-36.647 1.439-16.634 8.397-29.545 22.951-35.441 41.998-11.174 36.086-2.108 74.215 14.947 96.473 8.884 11.593 20.917 21.658 33.514 29.517l21.457 12.479h-27.486l-15.672-11.279c-18.46-13.529-33.454-31.822-40.505-56.636-8.84-31.115-.711-70.966 12.537-91.915 10.048-15.888 24.955-27.226 44.362-33.838 7.413-2.525 20.007-4.446 28.45-1.2 9.82 3.776 24.954 21.462 35.924 19.439 18.694-3.448 21.616-27.456 6.509-36.958-21.98-13.826-64.04 1.18-80.768 9.12-28.075 13.325-47.414 34.836-59.07 64.556l-14.947 51.836c-4.883 12.368-10.9 23.643-17.359 34.558-4.847 8.189-10.993 20.185-8.198 34.077 1.377 6.84 4.397 12.249 6.269 18.239h-12.054l-4.581-11.279c-1.696-4.801-2.188-10.039-3.134-15.599-1.482-8.702 2.207-16.635 4.581-22.079 6.708-15.382 16.982-27.694 23.869-43.437 8.086-18.482 13.1-40.156 21.217-58.557 12.33-27.949 36.011-47.708 63.168-60.956 10.809-5.273 22.609-9.056 35.442-12.239q9.521-1.314 19.047-2.636m204.934.96c3.38 3.524 6.576 12.193 9.885 16.559 11.68 15.414 29.22 28.017 49.91 34.318 9.16 2.79 18.91 4.064 29.41 5.76l17.12.72 21.94.239c22.99-3.373 55.32-2.09 69.92 6.719 9.84 5.939 19.79 17.149 15.43 34.558-1.17 4.691-2.84 9.314-4.82 13.2-3.61 7.083-7.77 15.299-13.26 20.638h-.24v-.239c2.47-6.101 4.54-12.819 6.02-19.679 13.16-60.931-68.92-35.861-112.11-43.918-45.82-8.547-80.352-23.78-89.205-68.875m84.385 225.825h-9.4c-4.56-53.716-35.92-60.078-76.189-77.275-33.363-14.246-73.049-38.268-84.145-74.154-3.645-11.789-2.868-28.217-.723-41.038l.483-23.038-.483-5.519 1.688 14.159-.24 17.039c-1.291 7.848.186 17.424 1.687 23.759 6.774 28.585 27.58 48.207 49.426 61.916 15.374 9.647 32.425 16.632 49.908 24.479 17.258 7.748 34.388 12.155 47.978 23.038 11.45 9.172 13.87 25.661 17.6 42.717.8 4.638 1.61 9.279 2.41 13.917M-14.012 646.748c4.791 5.854 7.633 17.792 10.126 25.918 3.178 10.354 4.902 21.476 6.992 33.598l.723 17.758-.24 17.039-.723 17.278-.723 18c-2.152 12.404-6.964 23.991-16.154 29.278-.161-14.273 3.728-21.126 6.27-32.638 2.204-9.988.88-20.686 2.652-31.678l.482-17.759c-1.504-9.165-.856-18.568-2.655-27.117-1.87-8.893-4.79-17.673-6.75-25.678zm773.209 7.92c11.104-.357 20.53.395 26.521 5.04 2.91 2.258 4.684 8.04.24 10.08-2.404 1.194-5.149-.752-6.75-1.92l-10.608-8.64zm-11.814 62.396c2.125-.058 4.956-.164 5.786.48-4.786.2-7.511 2.677-10.367 4.799-15.087 11.212-12.86 38.33-3.376 53.757 19.514 31.741 65.546 44.517 96.199 65.756 7.722 5.35 17.78 10.815 23.387 18.238h-16.153c-5.691-7.044-21.021-14.959-29.415-19.918-29.022-17.146-65.329-29.09-83.179-57.357-9.025-14.291-15.382-43.211-1.446-57.596 3.041-3.138 7.26-6.139 12.054-7.439zm-208.552 9.12c-.079.628-.205.869-.965 1.439zm343.087 5.039.24.48zm.24 1.2.241.48zm.241.48 6.992 11.279c9.387 12.796 24.139 23.517 38.335 31.438 15.834 8.835 32.899 16.448 49.426 24.479 12.274 5.965 26.128 11.5 34.238 21.599 8.38 10.446 12.51 22.588 15.91 38.398h-11.81c-3.81-37.651-37.299-49.647-63.895-65.036-12.431-7.194-25.229-13.875-36.889-21.599-12.646-8.38-30.534-21.948-32.307-40.558m-29.655 9.6c.911 2.518.502 5.562 1.928 7.919 9.364 15.463 39.828 28.659 55.453 39.598 20.196 14.137 38.869 28.823 50.631 51.357 3.089 5.916 4.874 12.412 7.716 18.719h-7.957c-9.615-38.8-47.369-61.028-76.911-80.636-9.622-6.386-35.073-20.774-30.86-36.957M365.48 756.662l.965 17.758c2.954 15.386 9.235 25.861 20.494 32.878 17.01 10.602 43.992 8.452 66.784 13.2 29.864 6.219 58.308 18.804 73.294 39.598h-11.091c-12.074-16.182-39.409-25.59-63.168-30.718-35.768-7.721-72.418-1.261-85.832-31.917-2.477-5.662-5.573-14.109-4.099-23.279q1.328-8.762 2.653-17.52M58.318 773.701c2.42-.046 3.115.539 4.582 1.199v1.681c-2.136 4.748-5.61 8.014-8.438 11.998-5.38 7.577-10.214 16.485-13.262 26.159-5.607 17.805-1.704 35.187-15.43 45.356l-36.164-.239c15.198-.952 29.85-8.9 34.478-20.638 2.843-7.218 2.069-17.6 4.58-24.959 5.165-15.14 15.94-33.976 29.655-40.557m294.625 21.358 2.17 9.359c4.246 11.272 14.599 20.559 27.967 22.558v.24c-20.143.227-30.41-10.64-30.137-32.157m928.957.24c.71 1.594.8 9.221-.24 10.32-1.29 1.356-3.86 2.225-6.27 2.4zm-640.842 16.799c19.788-.162 30.465 19.624 38.335 31.917q5.786 8.04 11.573 16.078h-13.261c-1.313-5.017-17.338-25.75-21.457-28.798-2.051-1.517-5.798-3.899-9.644-2.64-11.834 3.876-3.109 24.046-.723 31.438l-12.779-.239-5.786-14.639c-3.126-10.944-.539-24.704 6.027-29.759 2.297-1.767 4.711-2.104 7.715-3.358m-519.812 5.999 1.205 15.359c1.751 9.824 3.44 18.982 7.233 26.637l-6.992-.239c-.368-6.26-1.828-13.356-2.893-20.158-1.182-7.537 1.22-14.824 1.447-21.599m-40.988 41.997c-1.768.104-2.254.084-2.893-.96 1.76-11.515-2.755-27.746 1.928-37.677l-.723 19.679zm893.277-36.237c9.538 5.296 15.442 25.024 20.012 36.237h-4.099c-1.443-10.111-6.364-20.268-10.849-28.078zm-589.49 3.599 1.206.24q-.604-.119-1.206-.24m812.985 32.638c-.17-9.207.14-26.613 4.1-31.438-.45 9.804-.18 22.13 1.21 31.438zm-544.158-13.919c2.901 1.498 8.636 10.751 10.368 13.919h-4.34z" clip-rule="evenodd"/></g><defs><linearGradient id="b" x1="634.211" x2="634.211" y1="-.412" y2="860.4" gradientUnits="userSpaceOnUse"><stop stop-color="#5A5AC2"/><stop offset="1" stop-color="#2B2B5C" stop-opacity="0"/></linearGradient></defs></svg>