<svg width="1280" height="860" viewBox="0 0 1280 860" fill="none" xmlns="http://www.w3.org/2000/svg">
<mask id="mask0_16_1757" style="mask-type:luminance" maskUnits="userSpaceOnUse" x="-14" y="0" width="1296" height="860">
<path d="M1282 0H-14V860H1282V0Z" fill="white"/>
</mask>
<g mask="url(#mask0_16_1757)">
<path fill-rule="evenodd" clip-rule="evenodd" d="M-14.0119 -0.00810909C-0.833308 -0.00810909 12.3499 -0.00810909 25.5284 -0.00810909C18.1514 9.1426 0.305679 11.8537 -14.0119 13.9113C-14.0119 9.27148 -14.0119 4.63055 -14.0119 -0.00810909ZM-14.0119 41.0292C-14.0119 37.5893 -14.0119 34.1494 -14.0119 30.7094C11.8067 30.9843 42.8253 19.1248 48.9155 -0.00810909C53.8175 -0.00810909 58.7207 -0.00810909 63.6227 -0.00810909C63.6227 0.0717301 63.6227 0.151569 63.6227 0.231408C61.4261 7.8435 60.6423 14.2021 56.6306 19.67C44.6266 36.0324 13.5702 40.6198 -14.0119 41.0292ZM77.6068 -0.00810909C78.4903 -0.00810909 79.3749 -0.00810909 80.2584 -0.00810909C81.7297 12.156 83.1035 25.5336 86.5274 36.2297C88.3757 39.9092 90.2239 43.5898 92.0722 47.2692C91.992 47.2692 91.9118 47.2692 91.8316 47.2692C84.5863 45.4797 76.0439 45.2151 73.0257 39.3492C70.7305 34.8896 73.861 28.799 74.9542 25.1903C77.2012 17.7766 77.4911 9.65243 77.6068 -0.00810909ZM93.037 -0.00810909C97.0544 -0.00810909 101.074 -0.00810909 105.092 -0.00810909C106.064 7.54696 109.163 14.9321 111.842 21.1105C129.912 62.7763 176.398 79.8094 187.789 124.784C195.106 153.673 176.613 171.899 165.607 187.66C159.772 196.016 153.08 210.371 160.303 222.217C168.618 235.855 186.386 238.118 200.325 246.216C216.392 255.549 227.841 267.824 241.794 278.854C247.071 283.025 263.789 294.042 264.217 301.412C259.678 312.843 243.459 297.591 240.106 294.213C236.169 289.573 232.23 284.933 228.293 280.293C220.112 270.085 208.765 261.177 197.432 254.135C182.577 244.905 160.815 240.949 150.659 227.017C143.305 216.929 146.37 201.736 152.347 192.459C163.272 175.499 185.436 156.266 177.663 125.984C171.508 102.009 148.67 80.1356 131.613 66.4683C113.878 52.2569 97.4085 27.2878 93.037 -0.00810909ZM122.933 -0.00810909C125.183 -0.00810909 127.434 -0.00810909 129.683 -0.00810909C132.874 10.3584 141.23 19.4019 147.283 27.3505C168.37 55.0387 202.286 73.5523 215.273 108.705C224.484 133.636 215.593 158.86 204.665 175.181C198.897 183.795 187.903 194.812 191.646 210.699C196.379 230.793 215.163 235.37 226.123 248.376C221.221 246.056 216.318 243.736 211.416 241.416C196.119 233.799 181.084 229.226 177.663 209.738C175.181 195.607 187.781 182.999 193.335 175.9C204.087 162.158 214.198 141.768 206.594 117.824C195.819 83.888 167.035 66.8002 147.043 41.9896C137.587 30.2532 126.022 17.8439 122.933 -0.00810909ZM-14.0119 66.4671C-14.0119 62.3873 -14.0119 58.3075 -14.0119 54.2278C54.3286 53.5286 103.848 63.0694 139.087 98.145C149.281 108.291 166.21 126.87 161.992 149.742C156.117 181.601 130.88 187.957 125.585 217.417C123.217 230.597 130.873 240.889 137.399 245.735C145.586 251.814 156.445 254.156 167.054 257.974C178.005 261.913 188.268 266.818 197.192 272.852C205.997 278.808 214.304 287.151 220.579 295.651C224.842 301.428 228.475 308.513 234.08 312.929C240.91 318.311 253.294 324.967 265.906 320.609C279.211 316.011 285.869 299.868 277.237 285.331C271.894 276.332 263.303 268.473 255.297 262.052C251.841 258.533 248.385 255.013 244.929 251.493C235.744 241.722 225.153 232.676 218.649 220.295C199.143 183.163 242.627 152.754 231.186 107.983C226.345 89.0376 216.154 77.323 205.63 64.3069C202.656 61.3471 199.683 58.3874 196.709 55.4276C191.244 49.7488 185.779 44.0677 180.314 38.3888C170.245 25.959 159.274 14.7302 151.382 -0.00810909C155.962 -0.00810909 160.544 -0.00810909 165.124 -0.00810909C185.129 38.5702 228.007 56.6572 239.866 102.946C250.977 146.319 212.333 176.944 230.703 217.418C243.602 245.835 275.816 257.363 289.532 284.853C299.835 305.503 286.934 324.788 270.486 329.971C257.157 334.17 240.978 329.943 232.151 324.451C217.539 315.361 210.877 298.39 197.673 287.974C189.15 281.25 179.927 274.988 169.223 270.455C152.005 263.166 134.667 259.65 122.931 247.176C117.635 241.548 111.153 232.091 113.288 219.578C118.626 188.278 145.177 181.713 150.658 150.703C153.882 132.46 137.112 113.414 128.236 106.306C122.582 101.778 117.461 96.587 111.118 92.627C79.5273 72.9021 37.9393 66.4318 -14.0119 66.4671ZM-14.0119 90.7051C-14.0119 87.0257 -14.0119 83.3451 -14.0119 79.6657C29.9263 79.4227 72.8114 86.6767 94.9655 108.704C102.52 116.215 112.981 129.433 107.985 145.901C103.353 161.169 92.1215 168.126 83.3923 179.019C74.1612 190.538 67.3513 201.456 63.3809 218.617C61.8581 225.198 60.7294 234.911 62.1755 242.615C63.1346 247.727 64.175 252.54 66.0336 256.774C76.2215 279.986 96.4907 275.12 123.897 280.053C144.355 283.735 162.502 287.47 177.18 296.611C184.838 301.38 192.665 307.65 198.156 314.611C203.281 321.108 208.031 328.479 214.551 333.569C222.663 339.901 231.007 343.504 243.001 346.289C249.029 347.688 257.804 348.941 265.183 347.728C270.884 346.79 276.475 346.436 281.336 344.608C305.323 335.594 320.24 307.024 305.205 277.653C290.623 249.168 258.108 237.277 245.413 206.857C229.778 169.395 264.556 136.8 254.333 96.465C247.559 69.7314 230.096 55.7675 215.276 37.4285C205.437 25.2541 195.417 14.1348 187.067 0.231408C187.067 0.151569 187.067 0.0717301 187.067 -0.00810909C189.806 -0.0856671 197.266 -0.986709 198.881 0.472066C200.969 3.83101 203.059 7.19224 205.15 10.5512C209.649 16.3099 214.151 22.0708 218.651 27.8295C232.869 45.7762 250.955 59.9351 260.12 83.0257C262.9 90.0288 263.502 97.4367 264.942 106.064C266.546 115.677 263.224 126.003 261.084 132.942C255.383 151.424 245.618 175.242 252.886 198.218C264.866 236.089 308.358 246.923 320.395 283.652C332.381 320.222 313.012 348.708 285.676 357.087C279.871 358.867 273.442 359.112 266.87 360.207C261.572 361.09 254.667 360.795 249.752 359.967C245.735 359.567 241.715 359.168 237.698 358.767C221.535 355.37 208.025 349.418 199.363 338.609C194.003 331.92 188.922 323.564 182.245 318.21C172.565 310.449 162.594 303.457 149.214 299.252C139.842 296.306 129.744 295.318 118.835 293.492C103.818 290.978 88.9761 292.683 77.3662 287.732C63.8358 281.962 56.0657 270.373 52.533 254.615C44.473 218.667 61.7309 188.378 76.4025 169.901C85.0504 159.009 102.942 144.229 90.8691 123.824C73.9114 95.1647 29.1012 93.3934 -14.0119 90.7051ZM220.338 -0.00810909C224.838 -0.00810909 229.34 -0.00810909 233.84 -0.00810909C235.946 8.02143 246.755 19.857 251.681 26.1506C268.646 47.8247 288.81 67.2495 320.876 73.907C344.342 78.7794 370.702 70.5674 392.724 76.5462C398.293 78.0586 412.796 85.0035 404.297 92.1457C402.128 90.866 399.957 89.5862 397.788 88.3054C391.194 86.2193 382.44 86.6254 374.16 86.6254C354.912 86.6265 336.464 88.6533 318.948 85.186C284.121 78.2913 262.725 56.9252 244.206 33.8289C236.151 23.7817 224.729 13.2133 220.338 -0.00810909ZM251.921 -0.00810909C254.159 -0.0890888 259.578 -0.687882 260.842 0.472066C264.378 5.83155 267.914 11.1922 271.45 16.5505C283.723 32.5571 299.521 45.5766 321.358 52.0687C349.502 60.4347 394.457 48.2786 420.21 59.0284C425.57 61.2662 431.65 66.0154 433.471 71.7479C435.837 79.2015 431.756 88.3179 424.309 88.3065C423.826 88.067 423.344 87.8264 422.863 87.5868C422.47 84.375 422.712 80.5519 421.657 77.9879C410.71 51.4015 351.644 66.1877 322.565 59.0295C287.074 50.2906 268.919 27.1155 251.921 -0.00810909ZM279.648 -0.00810909C284.55 -0.00810909 289.453 -0.00810909 294.355 -0.00810909C303.572 15.7419 321.825 23.8284 343.298 27.59C349.361 28.6519 358.058 29.0545 364.275 28.0702C374.239 27.8307 384.207 27.59 394.171 27.3505C427.523 24.1102 455.069 36.256 463.608 57.8285C471.725 78.3346 458.214 97.1071 445.043 104.865C428.883 114.384 403.811 111.345 381.152 115.185C340.887 122.008 307.775 128.314 293.391 160.782C288.281 172.319 282.767 192.145 288.81 206.86C294.645 221.065 308.614 231.246 319.912 240.218C339.133 255.481 357.821 287.213 349.567 324.692C347.661 333.349 344.97 340.944 341.37 347.73C336.215 357.448 328.508 365.956 319.43 371.729C287.762 391.866 217.744 395.179 186.584 371.729C176.391 364.057 170.55 352.259 162.957 341.97C156.38 333.06 146.867 325.898 135.712 321.571C123.071 316.669 108.107 317.357 92.314 314.852C81.984 313.213 72.3381 314.556 63.6227 311.973C49.3487 307.742 39.1482 300.009 32.2799 288.454C22.1917 271.483 20.3835 238.062 24.5648 212.379C27.0089 197.367 28.2533 178.692 25.7702 164.622C23.687 152.819 21.6806 141.777 16.6079 132.945C13.4029 127.363 4.81924 120.141 4.07099 113.506C8.58684 106.462 24.8386 108.765 33.726 110.626C51.3895 114.325 84.4958 124.117 72.5433 149.264C71.2404 133.368 41.92 115.577 33.4853 135.344C28.9202 146.043 35.1354 164.448 35.4138 176.862C36.0784 206.421 28.1399 241.828 36.3786 268.776C41.9086 286.868 53.0956 298.545 71.3378 304.054C91.1372 310.032 119.136 305.798 138.122 311.733C153.745 316.617 165.019 325.976 173.564 337.892C177.97 344.035 181.972 350.684 187.548 355.65C208.25 374.093 256.31 383.913 293.15 372.449C320.052 364.078 334.655 346.503 340.164 316.534C341.718 308.083 341.332 296.94 339.441 288.935C337.844 282.177 335.843 275.359 332.691 269.977C314.439 238.809 278.289 226.753 266.87 188.622C258.773 161.579 273.746 137.226 279.407 115.187C281.565 106.786 280.302 97.5576 279.89 88.789C285.597 89.9843 290.066 95.1624 295.32 97.4287C302.094 100.351 310.222 100.349 317.983 101.509C324.653 101.349 331.324 101.188 337.994 101.028C345.307 100.628 352.621 100.229 359.934 99.8285C363.123 99.3175 374.025 97.7584 376.811 98.8681C367.249 100.387 357.684 101.908 348.12 103.428C312.121 111.026 292.109 113.352 279.165 144.705C274.726 155.458 270.875 175.282 276.755 188.142C276.835 188.142 276.915 188.142 276.995 188.142C277.366 176.788 281.347 166.613 284.951 158.144C299.648 123.611 328.167 117.265 369.095 109.188C399.615 103.165 434.242 107.486 447.935 84.9499C449.824 81.8419 452.025 76.0444 451.552 71.5107C449.663 53.4191 434.871 45.9838 418.521 42.2325C412.608 40.8764 406.637 41.8287 399.957 40.7931C394.814 40.7931 389.669 40.7931 384.527 40.7931C375.446 40.873 366.362 40.9528 357.283 41.0326C325.258 43.7996 301.246 29.1047 287.605 11.515C284.939 8.07389 281.212 4.35909 279.648 -0.00810909ZM315.331 -0.00810909C341.046 -0.00810909 366.769 -0.00810909 392.483 -0.00810909C412.596 -0.00924966 432.066 -0.383353 447.454 4.31119C481.32 14.6435 506.113 46.5313 514.963 81.8259C525.042 122.027 500.624 153.191 477.11 167.261C469.52 171.802 460.547 173.916 450.107 175.66C421.771 180.395 393.24 167.692 372.714 182.859C368.291 186.127 364.984 190.047 363.793 196.538C360.635 213.75 379.707 230.237 386.456 240.455C394.115 252.049 399.313 265.872 402.609 281.732C403.252 288.21 403.895 294.692 404.538 301.17C405.718 308.677 404.416 318.223 403.332 324.689C399.338 348.513 395.314 367.73 387.179 386.605C384.115 393.714 373.633 410.186 378.982 418.522C387.105 431.181 414.775 438.799 427.925 448.281C445.272 460.787 458.021 477.289 464.09 501.077C466.137 509.103 466.531 517.813 467.948 526.515C469.092 533.556 469.522 544.306 468.43 551.233C467.351 558.082 468.262 566.225 466.984 573.072C463.211 593.274 457.263 608.44 447.213 622.028C436.322 636.755 420.758 647.089 412.977 664.985C404.32 684.895 400.15 728.26 413.46 746.82C426.916 765.585 473.638 763.113 497.362 754.74C504.395 752.258 511.401 748.674 517.133 744.661C524.541 739.472 530.693 732.943 537.867 727.622C536.289 731.538 532.636 734.552 530.152 737.701C515.509 756.258 495.767 767.318 467.467 772.498C461.454 773.599 452.812 774.481 446.49 773.459C441.669 773.219 436.846 772.979 432.024 772.739C417.038 770.03 408.034 764.844 402.609 752.82C391.542 728.288 394.41 676.845 406.708 655.867C416.118 639.815 430.625 629.019 441.186 614.11C455.257 594.244 464.401 554.232 458.064 520.276C456.291 510.78 454.979 501.837 451.795 493.878C443.19 472.368 425.01 455.077 404.057 445.881C391.047 440.17 357.3 431.603 351.015 421.402C344.722 411.186 363.816 398.072 368.615 392.604C380.408 379.166 386.935 362.593 391.76 341.968C392.403 336.049 393.046 330.128 393.689 324.21C393.849 318.21 394.011 312.21 394.171 306.21C393.448 300.051 392.724 293.89 392.001 287.732C387.856 270.05 381.717 255.581 372.713 242.855C365.771 233.044 346.132 214.882 349.085 197.257C352.14 179.027 365.158 172.62 383.08 169.179C387.5 168.94 391.921 168.699 396.342 168.459C401.244 168.38 406.147 168.3 411.049 168.22C420.773 168.22 430.499 168.22 440.222 168.22C470.003 163.372 486.774 152.201 499.534 130.782C504.025 123.242 509.7 110.719 508.213 98.624C503.864 63.237 482.414 30.8429 455.412 18.7096C447.444 15.1283 438.798 13.4345 428.65 11.7499C421.687 10.5945 412.645 10.9162 405.505 11.5104C397.228 11.5902 388.948 11.6701 380.672 11.7499C366.035 14.0481 342.988 12.6783 331.969 9.10952C326.489 7.33709 317.961 4.55869 315.331 -0.00810909ZM474.217 -0.00810909C480.645 -0.00810909 487.076 -0.00810909 493.505 -0.00810909C499.684 2.82276 509.352 15.6438 513.516 21.35C528.232 41.5174 550.337 82.914 541.966 120.463C535.36 150.099 519.647 171.499 498.327 186.46C487.909 193.771 476.129 198.377 460.957 201.099C447.197 203.567 430.346 200.073 423.827 209.498C419.521 215.724 425.197 224.285 427.444 228.697C432.486 238.593 434.395 248.131 436.606 261.575C436.686 266.614 436.767 271.655 436.847 276.694C435.236 256.196 426.754 240.58 417.318 227.738C413.476 222.508 404.367 212.494 408.397 202.539C415.012 186.202 440.36 192.808 459.511 189.1C470.831 186.908 480.374 183.24 488.684 178.061C513.148 162.814 541.374 125.817 530.636 82.3072C527.956 71.4479 524.44 61.784 520.268 52.5489C514.054 38.7949 501.544 20.4615 490.371 11.5115C487.077 8.95213 483.781 6.39157 480.486 3.83215C478.396 2.55131 476.306 1.2716 474.217 -0.00810909ZM516.409 -0.00810909C518.981 -0.0868077 525.76 -0.88634 527.258 0.472066C534.602 6.39271 540.522 19.8125 545.581 28.3097C568.398 66.6348 587.935 149.504 558.36 196.539C550.239 209.454 537.538 215.283 525.089 223.897C511.925 233.005 499.503 245.429 493.023 261.094C488.409 272.247 487.611 285.007 485.308 299.012C484.905 306.132 484.504 313.252 484.102 320.37C483.7 328.449 483.299 336.53 482.897 344.608C482.495 351.487 482.093 358.368 481.691 365.247C480.629 371.822 481.767 380.059 482.897 385.166C493.284 432.119 544.415 416.552 567.282 447.322C580.727 465.414 578.172 494.765 583.194 521.956C584.872 531.037 586.086 540.131 588.498 548.594C591.499 559.12 597.286 572.226 594.526 583.872C590.814 599.528 575.771 603.238 567.522 614.35C560.85 623.337 556.701 634.152 551.369 644.588C541.928 663.067 529.961 680.334 513.516 691.865C502.185 699.811 475.929 710.765 465.779 693.545C464.011 690.546 462.188 685.014 463.127 679.626C463.61 677.146 464.092 674.666 464.573 672.186C469.987 654.187 484.194 644.089 492.54 628.749C498.859 617.137 502.529 603.705 505.56 588.672C506.202 581.714 506.845 574.753 507.488 567.793C508.431 561.003 507.484 553.736 506.523 548.355C506.201 543.635 505.88 538.914 505.558 534.196C502.997 519.667 501.818 505.358 498.326 491.958C496.609 485.375 490.286 469.156 493.504 463.641C493.664 463.641 493.826 463.641 493.986 463.641C500.446 462.126 502.892 470.279 504.595 474.68C510.227 489.241 511.512 506.696 514.721 523.636C520.675 555.072 519.132 593.352 508.934 619.15C502.883 634.459 493.943 646.773 486.03 659.948C481.208 667.976 476.842 683.449 489.646 686.346C496.809 687.967 503.995 683.172 507.969 680.827C524.094 671.31 531.087 656.736 540.277 640.27C547.052 628.129 551.895 614.092 560.048 603.312C565.996 595.447 577.401 590.722 581.024 580.994C584.808 570.835 580.655 556.757 578.371 547.636C574.019 530.252 574.558 510.944 571.139 491.96C567.715 472.953 564.836 456.774 552.333 447.082C534.238 433.057 504.55 430.153 486.754 415.884C476.701 407.824 473.927 395.425 471.323 379.646C470.256 373.176 470.865 365.269 471.806 359.008C472.368 349.969 472.931 340.928 473.494 331.89C473.734 325.731 473.976 319.57 474.217 313.411C476.835 297.078 475.788 279.944 480.003 265.654C483.667 253.238 489.343 243.816 496.398 234.937C514.221 212.504 542.502 208.855 555.227 179.741C574.476 135.699 557.94 64.9068 539.315 33.1103C534.648 25.1446 529.91 17.1995 524.607 9.8315C521.874 6.55125 519.142 3.271 516.409 -0.00810909ZM544.135 -0.00810909C546.665 -0.0868077 553.276 -0.861247 554.744 0.472066C556.894 2.39163 557.997 5.40498 559.565 7.91193C564.281 15.4442 568.434 23.273 573.067 31.1908C581.504 45.6108 588.38 61.6266 593.802 78.9471C604.856 114.263 607.527 172.847 589.943 202.539C584.182 212.268 576.019 221.24 566.556 227.257C554.753 234.763 540.614 240.297 532.078 251.016C517.566 269.241 511.014 300.211 511.826 332.611C511.586 340.05 511.344 347.491 511.103 354.929C511.883 370.593 513.201 382.628 520.266 391.647C528.011 401.537 543.024 403.627 555.467 408.926C571.353 415.692 585.118 424.948 593.561 439.164C605.847 459.851 602.449 493.475 608.268 521.239C611.323 535.818 614.882 548.827 620.082 561.076C623.507 569.144 629.306 580.294 626.832 591.554C621.914 613.942 599.518 620.316 587.774 636.191C576.681 651.186 570.952 671.406 560.048 686.828C540.659 714.251 508.774 730.63 469.876 738.664C453.514 742.043 432.708 740.73 425.755 729.544C422.809 724.805 422.283 719.543 421.174 712.745C420.319 707.501 420.35 700.449 421.414 694.745C422.539 689.706 423.665 684.665 424.79 679.626C431.9 657.916 448.97 646.389 460.473 629.229C475.556 606.728 488.362 569.485 481.931 530.596C481.448 524.758 480.966 518.917 480.485 513.077C475.426 486.712 468.459 462.943 451.07 449.002C447.053 445.802 443.033 442.602 439.016 439.403C427.186 431.105 413.486 425.622 407.914 411.085C402.684 397.441 408.853 379.246 412.012 367.887C413.7 360.209 415.388 352.527 417.076 344.849C423.996 312.137 420.27 271.018 407.191 247.896C403.735 242.297 400.279 236.696 396.823 231.097C392.473 224.992 386.833 219.487 383.321 212.617C377.447 201.131 380.476 188.477 394.653 187.179C387.734 195.561 387.178 204.857 393.206 215.017C397.366 222.028 402.809 228.154 407.431 234.696C414.595 244.832 420.286 256.864 424.309 269.974C431.726 294.143 430.828 331.092 425.273 356.848C422.538 369.531 416.66 389.903 420.692 404.125C425.955 422.689 446.422 434.75 459.992 445.643C475.808 458.338 482.847 481.843 487.959 505.158C497.195 547.279 492.029 595.53 474.94 623.951C464.035 642.086 447.342 655.169 439.016 675.547C426.705 705.681 437.327 729.531 473.734 721.864C509.437 714.346 537.312 697.678 554.021 671.228C562.474 657.847 567.449 641.294 576.683 628.751C587.669 613.829 608.424 608.786 613.09 587.714C615.812 575.417 610.138 563.938 607.063 555.317C603.216 544.533 600.766 533.078 598.383 520.759C593.455 495.28 596.734 464.308 585.604 445.404C577.196 431.122 562.956 421.67 546.304 415.646C533.618 411.056 522.002 407.972 512.791 400.287C503.805 392.789 503.054 380.954 500.737 366.449C500.897 359.971 501.059 353.489 501.219 347.01C501.46 342.371 501.701 337.731 501.942 333.091C502.425 323.733 502.907 314.371 503.388 305.013C502.871 280.984 514.443 251.663 527.498 241.177C549.013 223.897 572.003 219.153 584.157 191.5C605.755 142.359 586.077 69.3938 565.11 33.5905C560.61 25.9921 556.108 18.3903 551.608 10.7918C549.119 7.1911 546.626 3.59036 544.135 -0.00810909ZM573.549 -0.00810909C578.371 -0.00810909 583.194 -0.00810909 588.016 -0.00810909C595.589 16.222 605.563 30.8919 612.849 47.9889C624.883 76.2223 629.786 109.626 629.727 149.982C629.084 158.221 628.441 166.462 627.798 174.7C625.274 187.874 622.587 200.016 617.43 210.458C606.917 231.75 587.324 242.41 569.693 256.536C555.033 268.28 547.684 288.389 543.171 310.292C541.452 318.638 539.352 330.764 541.001 341.251C543.714 358.499 545.297 366.666 554.021 377.488C561.567 386.851 573.618 391.16 584.4 397.407C599.738 406.296 613.152 415.449 620.564 432.205C624.688 441.525 626.328 452.09 628.279 463.882C628.682 469.962 629.083 476.042 629.485 482.121C629.807 489.799 630.128 497.481 630.45 505.159C633.13 521.854 634.304 537.073 639.612 550.516C644.839 563.757 660.289 581.093 654.802 600.432C651.441 612.277 641.367 618.353 632.62 624.911C623.146 632.013 614.07 640.8 607.064 650.349C592.917 669.631 584.492 694.634 574.274 717.785C566.638 735.086 556.12 750.54 544.136 763.621C529.747 779.329 511.012 790.575 487.719 797.46C478.947 800.052 469.356 800.688 459.51 802.259C438.249 805.65 408.755 801.12 397.065 792.9C381.149 781.707 379.626 764.582 380.187 739.864C380.75 728.825 381.312 717.784 381.875 706.746C382.598 711.066 383.322 715.386 384.045 719.705C384.286 725.784 384.528 731.865 384.768 737.944C387.541 755.049 387.234 766.536 395.859 777.542C414.811 801.726 484.959 790.106 507.007 777.302C531.484 763.088 547.199 743.329 561.495 718.987C574.381 697.045 581.563 670.605 595.973 650.351C601.93 641.978 609.211 633.452 617.19 627.073C626.475 619.649 637.29 612.553 641.54 600.194C647.995 581.426 635.283 565.482 630.45 551.958C624.866 536.333 623.702 518.951 620.564 499.881C620.324 494.762 620.082 489.641 619.841 484.522C618.301 472.713 618.505 461.582 615.743 450.925C612.387 437.979 606.612 428.595 599.348 419.727C584.927 402.123 553.72 398.446 539.796 381.089C533.263 372.946 530.505 363.611 528.223 350.851C527.122 344.699 526.7 335.868 527.74 329.493C528.142 322.853 528.543 316.213 528.946 309.574C533.467 284.896 540.032 263.676 556.19 250.778C575.186 235.615 597.126 225.364 608.026 202.061C612.666 192.143 614.972 180.976 617.429 168.703C619.224 159.737 618.874 149.618 618.875 139.425C618.881 96.5995 609.993 62.5253 594.042 35.2717C587.213 23.5114 580.38 11.7499 573.549 -0.00810909ZM1101.8 860.094C1098.99 860.094 1096.17 860.094 1093.36 860.094C1093.32 841.072 1092.06 821.038 1095.05 802.979C1096.72 792.871 1098.41 778.906 1094.09 770.581C1086.17 755.351 1060.18 755.633 1040.8 751.623C1012.33 745.732 987.931 738.793 967.99 724.744C950.472 712.402 937.45 695.442 929.655 673.387C925.718 662.249 925.101 649.967 922.423 637.149C916.745 609.978 907.253 592.52 882.159 584.833C868.835 580.751 849.344 579.344 834.181 579.793C828.154 579.953 822.125 580.113 816.098 580.273C808.384 580.753 800.667 581.233 792.953 581.712C779.694 582.592 766.431 583.472 753.172 584.352C735.837 587.045 708.464 586.649 694.102 582.192C678.442 577.332 667.538 567.187 659.866 554.354C653.833 544.261 650.761 532.38 647.811 519.076C646.927 510.998 646.043 502.917 645.159 494.838C644.919 488.199 644.677 481.559 644.436 474.92C641.882 458.891 642.823 443.649 637.686 431.002C631.24 415.138 620.062 403.137 606.343 394.525C584.825 381.017 568.101 375.619 561.498 346.528C560.312 341.303 558.971 333.311 560.052 326.609C560.936 320.291 561.82 313.97 562.705 307.651C566.345 293.214 572.616 281.152 580.546 270.933C589.021 260.013 601.101 251.726 611.889 243.095C618.857 237.521 624.84 229.087 629.489 221.257C636.212 209.936 639.154 197.051 642.268 181.9C643.925 173.838 643.743 164.535 645.161 155.741C645.161 152.861 645.161 149.981 645.161 147.101C645.161 142.542 645.161 137.981 645.161 133.423C645.001 128.143 644.839 122.863 644.679 117.584C642.599 104.761 642.553 92.1274 639.615 80.3865C631.829 49.2663 620.443 25.0671 607.067 0.231408C607.067 0.151569 607.067 0.0717301 607.067 -0.00810909C611.085 -0.00810909 615.104 -0.00810909 619.122 -0.00810909C621.935 5.75057 624.748 11.5115 627.56 17.2702C631.944 27.1372 636.393 37.0464 640.097 47.5087C654.493 88.1685 664.476 165.664 647.571 211.658C643.038 223.991 636.077 234.445 628.525 243.816C617.755 257.178 602.316 266.132 592.118 280.293C585.036 290.129 579.407 300.847 576.206 314.612C575.643 319.971 575.08 325.332 574.518 330.69C572.329 344.54 580.71 359.972 586.814 367.648C593.688 376.293 603.541 381.567 613.094 387.566C628.404 397.181 640.751 409.28 647.813 427.163C651.617 436.796 652.157 448.039 654.082 459.802C654.323 464.681 654.564 469.561 654.805 474.441C655.368 481.239 655.93 488.041 656.493 494.84C659.95 514.759 662.419 533.041 671.923 546.676C684.614 564.881 705.396 571.873 736.538 571.874C743.449 571.714 750.362 571.554 757.273 571.394C769.166 570.594 781.062 569.794 792.956 568.994C801.715 568.434 810.478 567.874 819.237 567.314C839.383 564.225 870.93 566.412 886.986 571.394C908.569 578.091 921.77 594.555 927.973 616.511C931.991 630.728 932.347 647.498 936.653 661.148C945.109 687.951 960.553 707.521 982.463 720.904C996.722 729.615 1013.48 734.693 1032.61 738.663C1041.85 739.783 1051.1 740.903 1060.34 742.023C1080.65 745.406 1103.58 742.853 1111.93 757.862C1117.19 767.3 1111.63 782.247 1109.28 790.5C1103.43 811.026 1101.29 834.447 1101.8 860.094ZM1127.6 860.094C1123.9 860.094 1120.2 860.094 1116.51 860.094C1114.59 827.573 1122.3 803.916 1131.94 782.1C1135.74 773.498 1145.71 755.627 1139.41 743.703C1132.26 730.16 1109.37 733.405 1091.19 730.503C1081.55 729.783 1071.9 729.062 1062.26 728.343C1037.83 724.309 1015.52 722.061 997.886 711.784C977.382 699.836 962.158 683.261 953.041 659.948C947.576 645.97 946.921 628.193 942.674 612.911C935.108 585.687 920.016 563.424 895.176 553.396C872.178 544.111 825.507 546.716 798.255 551.236C785.799 552.276 773.34 553.316 760.885 554.355C754.697 554.515 748.507 554.676 742.319 554.835C716.66 555.638 696.737 548.705 686.626 532.517C676.033 515.56 673.596 493.392 669.508 469.641C669.025 463.163 668.543 456.681 668.062 450.203C665.934 437.517 664.477 426.203 660.106 416.125C654.452 403.091 644.94 392.818 634.067 384.927C620.708 375.232 606.18 368.245 598.384 353.01C595.089 346.57 593.98 339.179 592.597 330.691C589.864 313.916 599.647 297.826 605.617 288.934C613.179 277.67 622.986 269.72 632.378 260.376C645.126 247.695 655.604 233.057 662.757 214.779C679.428 172.18 670.966 87.8093 656.007 49.4294C651.804 38.6466 647.366 28.2618 642.746 17.9911C639.692 11.9917 636.637 5.99123 633.584 -0.00810909C637.682 -0.00810909 641.781 -0.00810909 645.88 -0.00810909C647.808 4.23135 649.738 8.47195 651.667 12.7114C656.328 24.5493 660.989 36.3906 665.651 48.2296C678.796 89.5201 688.452 165.322 673.125 212.379C666.579 232.477 655.489 246.276 643.711 260.856C636.86 269.336 627.886 275.972 621.048 284.615C614.05 293.459 600.687 311.485 603.689 329.493C608.808 360.198 624.89 365.567 645.158 380.37C655.403 387.85 664.601 398.372 669.991 410.608C674.241 420.256 676.084 430.895 678.189 443.006C678.992 452.444 679.796 461.885 680.6 471.323C684.085 489.856 687.977 506.456 696.753 519.56C706.823 534.594 723.217 540.677 748.589 540.679C754.295 540.519 760.002 540.358 765.708 540.198C776.235 539.238 786.765 538.279 797.292 537.319C826.469 532.251 874.066 529.384 898.795 539.479C928.208 551.485 944.781 578.763 954.248 610.755C958.947 626.632 959.078 645.253 965.097 659.232C973.236 678.133 986.097 691.479 1003.19 701.469C1026.5 715.091 1060.26 718.752 1096.98 718.747C1121.18 718.744 1150.38 716.335 1157.5 733.386C1163.95 748.841 1152.79 770.075 1147.61 780.184C1139.76 795.501 1132.84 810.539 1128.8 829.62C1126.82 838.98 1127.59 849.69 1127.6 860.094ZM658.899 -0.00810909C660.673 -0.073121 662.631 -0.0514503 663.721 0.472066C667.257 6.15091 670.793 11.832 674.329 17.5109C683.131 33.5015 690.605 48.2843 708.083 55.6683C744.355 70.9929 794.488 69.7884 807.175 108.704C812.383 124.68 812.379 148.592 808.863 166.3C802.965 196.002 796.838 222.181 789.816 249.814C784.474 270.835 779.885 301.893 785.477 326.129C788.837 340.692 793.472 353.358 798.738 365.726C803.931 377.926 808.746 389.601 816.339 399.323C836.871 425.619 879.09 420.855 916.396 430.041C958.85 440.495 990.047 455.905 1006.08 492.436C1010.44 502.348 1014.65 513.95 1015.97 526.755C1015.89 526.755 1015.81 526.755 1015.73 526.755C1014.26 519.108 1009.84 510.701 1006.57 504.197C988.704 468.677 957.868 450.073 914.948 439.401C875.252 429.531 830.703 436.013 809.105 407.484C800.632 396.293 795.335 381.945 789.816 367.886C783.306 351.3 777.625 334.85 773.904 314.85C770.139 294.609 774.673 271.689 778.726 254.854C785.71 225.843 793.747 198.919 799.702 167.98C802.655 152.635 803.434 130.942 798.737 116.864C787.531 83.2687 755.498 82.9847 721.344 72.9466C711.828 70.15 702.287 68.5954 694.583 64.0674C674.981 52.5489 669.182 21.0375 658.899 -0.00810909ZM678.188 -0.00810909C682.527 -0.00810909 686.867 -0.00810909 691.207 -0.00810909C693.457 2.39163 695.708 4.79136 697.957 7.1911C710.685 19.8593 725.995 27.0927 744.249 34.5497C780.171 49.2241 817.427 60.7096 829.599 99.1054C835.401 117.411 835.384 144.508 831.527 165.102C825.116 199.338 819.39 229.285 812.721 263.255C808.79 283.282 808.445 311.039 814.167 329.251C818.107 341.786 823.547 353.084 830.803 362.368C844.54 379.944 864.805 391.599 888.667 399.086C935.34 413.729 992.135 415.415 1018.86 449.722C1026.64 459.715 1029.52 471.374 1032.36 486.68C1033.96 495.293 1034.61 508.445 1033.09 517.878C1032.52 526.436 1031.96 534.997 1031.4 543.556C1031.4 548.356 1031.4 553.156 1031.4 557.956C1029.48 509.657 1031.48 468.694 1002.47 445.644C971.215 420.818 927.992 419.749 885.533 406.526C860.451 398.715 839.171 387.709 825.016 369.088C815.364 356.39 808.551 341.064 804.04 323.251C797.538 297.58 802.705 265.885 807.656 242.857C811.513 224.46 815.372 206.058 819.23 187.661C824.836 162.806 830.063 125.781 821.158 100.546C802.927 48.8785 724.906 53.4955 691.446 15.832C687.138 10.9789 681.049 6.0802 678.188 -0.00810909ZM722.309 -0.00810909C731.47 -0.00810909 740.634 -0.00810909 749.795 -0.00810909C754.697 2.63115 759.6 5.27154 764.502 7.91193C771.895 11.5115 779.291 15.1123 786.684 18.7108C817.424 36.3233 841.056 51.0365 852.504 88.0659C857.866 105.407 859.083 132.397 855.398 152.861C854.192 161.659 852.987 170.461 851.781 179.259C847.602 201.256 843.422 223.259 839.245 245.255C832.628 278.104 836.65 315.392 850.335 337.17C864.031 358.965 886.396 370.103 914.951 377.247C929.414 380.865 945.034 380.47 961.001 383.246C999.209 389.889 1038.47 390.582 1066.12 407.245C1079.15 415.098 1089.17 426.121 1094.09 442.042C1101.56 466.243 1097.74 498.478 1104.94 522.437C1107.43 530.729 1111.25 537.358 1116.03 543.316C1119.08 546.355 1122.14 549.396 1125.19 552.435C1125.19 552.515 1125.19 552.595 1125.19 552.675C1125.03 552.675 1124.87 552.675 1124.71 552.675C1113.19 558.695 1100.24 541.949 1097.46 535.636C1088.76 515.854 1094.09 485.236 1089.02 460.521C1085.48 443.241 1079.97 430.629 1068.05 421.884C1043.45 403.833 1009 402.81 972.332 396.446C961.564 395.326 950.793 394.206 940.024 393.086C901.531 385.98 867.854 378.907 847.924 353.728C840.778 344.7 834.909 334.346 831.047 322.05C824.915 302.523 825.614 273.326 829.841 252.215C836.038 221.27 840.609 193.106 846.237 161.501C849.734 141.86 850.707 118.343 845.996 99.5844C835.162 56.4404 801.953 38.3124 764.504 21.829C752.814 16.684 741.325 11.2754 730.751 5.02974C728.009 3.41357 724.325 2.33118 722.309 -0.00810909ZM788.853 -0.00810909C797.612 -0.00810909 806.373 -0.00810909 815.133 -0.00810909C817.624 1.67193 820.117 3.35198 822.608 5.03202C831.676 11.0599 839.705 17.4174 847.2 24.9507C861.58 39.4051 872.24 57.1305 878.785 79.4273C889.399 115.591 880.648 165.923 873.24 199.659C865.437 235.189 855.947 287.754 874.445 318.211C889.082 342.309 910.697 346.706 943.159 353.009C954.972 354.288 966.788 355.568 978.601 356.849C1014.54 363.325 1049.5 367.925 1077.45 382.047C1093.15 389.978 1106 401.589 1112.89 418.285C1122.16 440.735 1120.04 475.952 1127.6 499.64C1132.3 514.365 1140.08 526.361 1148.34 537.558C1151.05 541.237 1158.06 546.882 1156.53 552.677C1146.27 556.624 1133.3 538.313 1128.81 531.559C1116.95 513.744 1116.03 496.783 1111.69 471.322C1109.39 457.866 1110.02 444.451 1106.63 432.685C1103.48 421.8 1098.14 413.552 1091.68 406.047C1073.22 384.606 1032.47 378.137 998.853 371.489C988.326 370.13 977.796 368.769 967.268 367.409C947.528 363.982 927.63 364.547 910.61 359.25C890.929 353.125 876.335 342.964 865.766 327.811C852.944 309.432 848.473 275.408 854.192 245.737C859.911 216.066 863.834 187.395 869.382 157.183C872.422 140.627 874.614 117.403 871.31 99.346C864.449 61.8364 848.23 37.4752 822.367 19.1909C815.537 15.0313 808.704 10.8705 801.873 6.71207C797.533 4.47087 793.192 2.23081 788.853 -0.00810909ZM843.341 -0.00810909C848.725 -0.00810909 854.111 -0.00810909 859.494 -0.00810909C862.226 2.63115 864.96 5.27154 867.692 7.91193C872.943 14.0516 878.503 20.4376 882.881 27.3505C898.604 52.1748 903.335 78.2297 905.063 114.225C906.007 133.905 902.415 155.901 899.036 172.781C895.822 192.777 892.606 212.78 889.392 232.777C885.23 256.22 887.382 285.888 896.625 301.173C914.629 330.943 947.242 328.385 986.073 336.45C1021.24 343.754 1054.25 350.75 1083.48 363.328C1108.13 373.939 1127.03 391.013 1135.31 418.045C1141.17 437.152 1140.31 461.916 1146.16 480.44C1155.23 509.108 1171.73 534.014 1193.66 550.036C1208.06 560.557 1226.88 565.391 1242.84 574.754C1253.75 581.15 1262.73 589.067 1270.09 598.992C1275.54 606.353 1282.21 611.005 1282.14 623.951C1279.09 619.392 1276.04 614.831 1272.98 610.272C1266.22 601.059 1257.76 592.168 1248.39 585.554C1233.44 574.999 1213.83 569.688 1197.76 560.116C1178.84 548.844 1163.29 531.646 1151.95 512.839C1144.5 500.486 1139.19 486.258 1135.55 470.121C1131.62 452.658 1132.39 432.014 1126.87 416.364C1120.93 399.515 1109.68 387.621 1096.25 378.207C1066.9 357.633 1024.43 350.795 983.178 342.21C941.485 333.534 908.077 337.471 888.667 305.252C878.98 289.174 876.694 260.358 881.434 236.617C885.773 209.981 890.114 183.338 894.453 156.702C896.021 148.23 895.602 139.271 897.106 129.824C898.008 124.162 898.897 115.504 897.829 108.945C895.379 93.8941 895.077 79.8995 891.079 67.1879C884.091 44.9744 870.19 21.6465 853.949 8.63163C850.413 5.75172 846.877 2.87066 843.341 -0.00810909ZM1282.14 512.118C1282.14 516.437 1282.14 520.758 1282.14 525.077C1275.31 525.797 1268.48 526.517 1261.65 527.237C1241.21 530.56 1222.65 520.39 1212.71 512.598C1197.03 500.304 1187.21 480.638 1181.85 458.121C1176.38 435.161 1176.95 408.781 1169.07 388.526C1158.81 362.183 1139.23 345.69 1113.86 334.529C1088.91 323.561 1062.37 315.994 1032.36 309.091C1024.89 307.971 1017.41 306.851 1009.94 305.731C998.932 304.131 987.92 302.531 976.911 300.932C945.075 294.02 925.517 285.326 914.225 257.975C903.862 232.874 907.632 194.888 913.26 167.021C914.707 156.223 916.154 145.421 917.6 134.624C919.071 126.091 918.038 116.735 919.528 107.265C919.609 103.426 919.689 99.5855 919.769 95.7453C917.64 82.6277 918.303 70.2868 915.43 58.7877C909.172 33.7524 899.813 17.7185 886.498 0.231408C886.498 0.151569 886.498 0.0717301 886.498 -0.00810909C891.013 -0.073121 898.892 -1.13498 902.41 0.472066C904.178 3.11132 905.946 5.75172 907.714 8.39211C911.625 14.7348 915.195 21.8393 918.082 29.0305C925.961 48.6561 928.166 73.7177 928.691 99.5855C929.804 154.541 900.24 224.566 932.549 265.654C954.015 292.955 1001.69 289.494 1042.01 298.293C1081.52 306.914 1114.73 319.442 1143.27 338.61C1150.18 343.25 1157.19 348.303 1162.32 354.689C1171.23 365.784 1177.41 378.274 1181.85 394.046C1185.89 408.417 1186.23 424.393 1189.32 439.883C1195.45 470.623 1205.39 497.278 1230.79 508.518C1246.08 515.284 1263.08 513.475 1282.14 512.118ZM1282.14 490.519C1282.14 493.559 1282.14 496.599 1282.14 499.639C1269.26 500.326 1256.1 500.838 1245.98 496.759C1198.2 477.516 1208.74 413.244 1188.6 367.648C1175.38 337.729 1148.24 323.773 1120.85 307.892C1112.02 302.776 1102.7 297.454 1093.12 293.253C1080.99 287.93 1067.66 284.67 1052.86 281.733C1044.82 280.772 1036.78 279.813 1028.75 278.853C1007.23 275.305 985.636 277.252 968.232 270.213C953.268 264.161 942.999 252.695 936.889 237.816C925.151 209.227 934.036 166.311 939.541 136.783C948.302 89.7893 943.533 32.3074 926.039 -0.00810909C930.701 -0.00810909 935.362 -0.00810909 940.023 -0.00810909C942.411 7.56863 945.929 15.3598 948.221 23.7509C955.597 50.7536 955.294 91.0564 949.909 120.224C948.06 131.262 946.212 142.304 944.364 153.341C939.079 177.53 934.029 211.579 943.641 234.936C950.086 250.6 961.866 261.901 978.842 267.094C993.446 271.561 1009.85 269.901 1027.06 272.613C1032.61 272.852 1038.15 273.093 1043.7 273.333C1050.21 274.052 1056.72 274.773 1063.23 275.493C1075.63 277.953 1086.61 280.885 1096.74 285.332C1109.97 291.136 1122.6 298.929 1134.59 306.212C1159.61 321.398 1183.76 334.569 1196.07 362.368C1218.51 413.055 1204.29 495.795 1282.14 490.519ZM1282.14 475.4C1220.27 475.264 1228.49 388.334 1204.99 348.208C1188.99 320.883 1168.05 309.337 1141.58 292.771C1127 283.643 1113.29 273.56 1098.18 264.934C1087.1 258.606 1062.76 252.556 1043.94 255.574C1040.72 255.574 1037.51 255.574 1034.29 255.574C1022.77 257.349 1007.05 257.148 996.44 254.854C977.773 250.819 964.931 241.774 958.346 225.816C948.715 202.475 955.323 168.369 960.516 144.701C961.882 135.583 963.249 126.462 964.615 117.343C969.495 90.8409 971.517 56.5762 966.543 29.5084C964.597 18.9183 963.96 8.97494 960.516 -0.00924963C963.087 -0.00924963 965.66 -0.00924963 968.231 -0.00924963C977.666 37.1023 979.786 89.2521 971.847 130.782C967.376 154.174 959.182 196.057 968.713 218.136C974.312 231.107 985.515 238.169 1001.02 241.415C1009.42 243.173 1023.31 243.645 1032.61 242.135C1037.03 242.135 1041.45 242.135 1045.87 242.135C1066.59 242.826 1085.49 242.572 1099.15 250.534C1113.35 258.817 1124.43 270.717 1137.72 280.052C1150.82 288.13 1163.93 296.211 1177.02 304.29C1191.29 314.241 1202.26 325.991 1211.26 341.247C1219.7 355.564 1224.8 373.84 1229.83 391.164C1235.92 412.208 1239.81 433.711 1253.21 447.32C1258.22 452.399 1265.12 456.449 1272.98 458.599C1276.04 459.08 1279.09 459.56 1282.15 460.039C1282.14 465.16 1282.14 470.281 1282.14 475.4ZM989.448 -0.00810909C990.814 0.0717301 992.181 0.151569 993.547 0.231408C994.35 4.31119 995.154 8.39097 995.957 12.4708C996.6 18.8693 997.243 25.2701 997.886 31.6698C999.323 40.5148 998.741 58.6497 997.404 66.9473C997.082 72.3866 996.761 77.8271 996.439 83.2664C994.51 98.624 992.581 113.986 990.652 129.344C986.887 148.971 979.411 184.31 987.759 203.259C993.663 216.662 1012.17 221.166 1032.36 217.898C1061.59 213.167 1099.69 211.311 1120.85 223.897C1136.46 233.185 1145.07 248.813 1158.94 259.655C1175.01 272.218 1193.7 282.228 1209.57 294.933C1217.6 301.356 1223.28 310.777 1228.62 319.891C1247.73 352.518 1245.29 414.333 1282.14 428.364C1282.14 432.843 1282.14 437.325 1282.14 441.803C1275.27 439.492 1270.22 437.578 1265.27 433.644C1255.74 426.089 1251.75 413.097 1246.94 400.766C1237.7 377.061 1233.62 348.93 1221.39 328.051C1204.05 298.483 1178.53 287.896 1152.19 268.055C1138.47 257.724 1129.13 242.715 1114.1 233.737C1105.03 228.318 1094.76 226.518 1082.03 224.378C1074.57 223.123 1064.25 223.997 1057.68 225.097C1052.13 225.498 1046.59 225.897 1041.04 226.297C1015.95 230.337 990.744 226.566 982.938 208.539C975.512 191.387 982.355 158.98 986.314 141.103C990.483 122.274 990.03 103.039 993.306 82.7874C994.649 74.4852 995.52 63.1253 994.752 55.1893C994.752 49.9906 994.752 44.7896 994.752 39.5898C992.594 26.2909 993.595 11.9267 989.448 -0.00810909ZM1027.3 -0.00810909C1027.94 5.99123 1028.59 11.9917 1029.23 17.9911C1029.39 22.1507 1029.55 26.3114 1029.71 30.4699C1029.63 32.9495 1029.55 35.4302 1029.47 37.9098C1028.48 47.3787 1029.46 56.4347 1028.02 65.0277C1027.38 72.3068 1026.74 79.587 1026.1 86.866C1023.11 103.386 1021.49 120.037 1017.66 135.343C1014.84 146.597 1006 177.091 1012.59 187.42C1016.77 193.961 1027.59 195.562 1038.15 193.66C1054.41 190.73 1075.57 186.488 1094.57 189.82C1124.89 195.138 1155.15 200.142 1182.57 208.778C1189.05 210.819 1206.96 216.731 1204.99 225.577C1203.58 231.927 1193.91 231.632 1188.36 229.177C1175.29 223.399 1164.59 212.77 1149.54 208.539C1149.7 208.778 1149.86 209.019 1150.02 209.258C1165.75 214.613 1164.27 242.355 1186.91 247.416C1201.21 250.613 1215.26 236.764 1212.71 222.457C1211.3 214.579 1207.45 209.343 1203.3 204.218C1191.29 189.375 1166.62 188.782 1143.99 184.299C1116.66 178.885 1086.73 172.699 1073.59 153.102C1064.24 139.141 1066.6 114.839 1069.98 95.9859C1075.58 64.6913 1074.39 31.5991 1071.42 -0.00810909C1074.15 -0.00810909 1076.89 -0.00810909 1079.62 -0.00810909C1079.69 19.4122 1084.28 42.3739 1081.07 62.3873C1080.34 71.2654 1079.62 80.147 1078.9 89.0251C1073.44 120.198 1072.87 145.317 1094.09 160.301C1106.1 168.782 1123.25 172.768 1139.65 176.14C1167.58 181.879 1197.41 180.763 1212.22 199.178C1223.46 213.151 1227.62 236.686 1211.5 249.335C1208.33 251.824 1204.6 253.903 1199.93 254.854C1198.08 255.014 1196.23 255.175 1194.38 255.335C1194.38 255.414 1194.38 255.494 1194.38 255.574C1200.08 256.824 1208.45 263.48 1213.19 266.614C1229.63 277.479 1241.56 290.825 1249.35 310.29C1257.95 331.759 1259.8 358.707 1268.88 380.125C1272.48 388.601 1277.07 392.863 1282.14 399.325C1282.06 403.404 1281.98 407.484 1281.9 411.564C1257.17 396.962 1254.48 336.468 1239.47 309.331C1232.69 297.077 1224.58 286.246 1213.43 278.373C1200.61 269.318 1184.88 263.655 1172.69 254.135C1157.17 242.031 1148.99 222.764 1131.94 212.137C1108.97 197.824 1069.34 198.91 1038.15 204.697C1022.52 207.596 1006 206.953 1000.78 194.377C994.785 179.94 1003.44 154.59 1006.33 141.101C1008.9 124.784 1011.47 108.461 1014.04 92.1445C1014.68 85.0252 1015.33 77.9046 1015.97 70.7864C1016.61 61.2684 1017.26 51.7471 1017.9 42.2279C1016.93 27.6333 1019.22 12.8243 1015.49 -0.00924963C1019.42 -0.00810906 1023.36 -0.00810909 1027.3 -0.00810909ZM1055.99 -0.00810909C1056.21 12.1514 1058.99 25.3864 1058.4 38.1493C1058.4 44.468 1058.4 50.789 1058.4 57.1077C1058.32 61.8273 1058.24 66.5481 1058.16 71.2666C1055.51 88.9247 1055.53 107.845 1052.38 125.023C1050.7 134.131 1049.68 146.456 1053.1 154.302C1056.84 162.883 1068.59 169.468 1078.17 172.06C1078.01 172.22 1077.85 172.381 1077.69 172.54C1069.79 170.435 1052.29 176.041 1045.87 177.82C1041.63 178.992 1035.27 180.66 1031.4 177.82C1023.95 172.353 1035.09 146.739 1037.43 139.182C1042.23 123.639 1043.9 106.257 1047.07 88.3054C1047.55 80.707 1048.03 73.1052 1048.52 65.5068C1050.35 54.1867 1050.05 40.8091 1048.76 29.2689C1047.69 19.7407 1048.13 9.13461 1046.35 -0.00924963C1049.56 -0.00810906 1052.78 -0.00810909 1055.99 -0.00810909ZM1093.36 -0.00810909C1096.17 -0.00810909 1098.99 -0.00810909 1101.8 -0.00810909C1102.44 16.7091 1103.09 33.4308 1103.73 50.1491C1103.87 90.7804 1098.33 123.33 1125.19 139.183C1144.79 150.756 1175.04 148.332 1200.89 154.303C1213.4 157.192 1223.28 161.499 1231.75 168.222C1261.35 191.707 1258.12 253.479 1268.88 296.373C1271.15 305.431 1273.32 314.716 1276.6 323.011C1278.04 326.674 1281.02 330.369 1282.14 333.81C1282.14 339.169 1282.14 344.53 1282.14 349.888C1271.86 341.854 1268.57 323.712 1264.3 309.811C1256.78 285.337 1253.25 257.359 1245.98 232.777C1241.86 218.863 1239.35 205.539 1232.71 194.38C1226.08 183.212 1216.77 174.998 1203.54 170.381C1192.95 166.685 1180.96 166.602 1168.58 164.382C1146.55 160.428 1125.52 158.398 1110.48 147.823C1092.61 135.262 1089.21 108.516 1093.84 79.6679C1094.24 70.9495 1094.65 62.2277 1095.05 53.5092C1096.66 36.0039 1093.55 17.8907 1093.36 -0.00810909ZM1116.51 -0.00810909C1120.2 -0.00810909 1123.9 -0.00810909 1127.6 -0.00810909C1129.82 39.4028 1125.6 92.4365 1149.78 110.145C1169.3 124.445 1200.36 119.348 1227.9 125.744C1257.32 132.581 1274.75 149.474 1282.15 178.061C1282.15 195.338 1282.15 212.62 1282.15 229.897C1282.06 247.014 1281.98 264.136 1281.9 281.254C1276.08 238.284 1277.71 172.146 1250.8 150.943C1240.24 142.622 1227.41 138.914 1211.02 136.064C1204.59 135.664 1198.16 135.265 1191.73 134.864C1173.76 132.083 1158.38 133.239 1144.96 126.465C1128.66 118.236 1123.98 103.405 1120.37 82.3083C1119.96 76.3888 1119.56 70.4682 1119.16 64.5498C1119 56.9514 1118.84 49.3496 1118.68 41.7512C1117.95 27.8307 1117.23 13.909 1116.51 -0.00810909ZM1151.23 -0.00810909C1151.99 36.5377 1156.75 70.0701 1177.99 86.3858C1196.92 100.933 1225.17 99.1065 1251.52 106.305C1258.83 108.299 1266.08 110.731 1272.02 114.225C1275.39 116.545 1278.77 118.864 1282.14 121.184C1282.06 126.383 1281.98 131.584 1281.9 136.784C1281.82 136.624 1281.74 136.463 1281.66 136.304C1279.17 133.824 1276.68 131.343 1274.19 128.864C1268.33 124.208 1261.43 120.054 1253.94 117.105C1239.05 111.248 1221.18 111.082 1203.55 107.265C1180.89 102.359 1162.03 93.0844 1153.64 74.1476C1147.98 61.3734 1147.42 49.142 1144.72 32.6301C1143.26 23.7338 1141.79 9.00345 1142.79 -0.00810909C1145.6 -0.00810909 1148.41 -0.00810909 1151.23 -0.00810909ZM1167.62 -0.00810909C1171.72 -0.00810909 1175.82 -0.00810909 1179.92 -0.00810909C1179.37 40.2639 1195.5 66.2732 1226.21 75.587C1241.9 80.3477 1262.66 79.6851 1282.14 79.6668C1282.14 83.3462 1282.14 87.0268 1282.14 90.7063C1205.87 91.5104 1167.44 76.2828 1167.62 -0.00810909ZM1197.03 -0.00810909C1198.8 -0.00810909 1200.57 -0.00810909 1202.34 -0.00810909C1203.2 8.83008 1206.98 17.6922 1210.54 24.2299C1224.09 49.1169 1245.26 54.619 1282.14 54.4684C1282.14 58.4672 1282.14 62.4683 1282.14 66.4671C1241.68 66.8982 1216.6 59.7241 1204.51 32.1488C1200.6 23.2342 1197.27 12.5187 1197.03 -0.00810909ZM1282.14 -0.00810909C1282.14 4.63169 1282.14 9.27148 1282.14 13.9113C1257.63 14.9959 1227.57 16.4296 1218.01 -0.00810909C1239.39 -0.00810909 1260.77 -0.00810909 1282.14 -0.00810909ZM1282.14 30.949C1282.14 34.3079 1282.14 37.6691 1282.14 41.0281C1261.68 41.4022 1237.04 37.4193 1229.82 24.4694C1229.82 24.3896 1229.82 24.3098 1229.82 24.2299C1229.91 24.2299 1229.99 24.2299 1230.07 24.2299C1234.32 25.91 1238.59 27.59 1242.84 29.27C1248.74 30.917 1255.21 30.6878 1261.89 31.6698C1268.64 31.4291 1275.39 31.1896 1282.14 30.949ZM481.449 57.5879C483.279 60.1484 483.678 64.0126 484.583 67.4275C489.692 86.6847 480.116 101.284 471.805 111.584C460.456 125.648 445.764 129.425 423.585 132.942C417.477 133.102 411.368 133.263 405.261 133.423C393.753 135.215 381.935 134.059 371.025 136.062C348.918 140.12 330.299 146.626 318.948 161.26C316.411 164.53 314.091 168.506 312.438 172.539C308.96 181.023 309.688 193.31 313.884 200.377C318.231 207.698 324.974 213.637 331.484 218.856C339.533 225.308 347.606 234.198 353.907 242.374C361.48 252.203 368.195 263.447 372.23 276.693C388.196 329.09 364.12 378.213 331.484 398.125C293.23 421.466 201.097 417.768 166.814 393.325C148.436 380.222 142.568 355.047 120.522 345.569C109.504 340.832 90.4669 337.53 73.9893 340.05C58.841 342.366 37.8969 343.185 24.5636 339.089C1.20976 331.915 -7.86204 308.53 -14.0119 284.133C-14.0119 265.656 -14.0119 247.173 -14.0119 228.696C-13.9317 212.539 -13.8515 196.376 -13.7713 180.219C-12.7262 185.818 -11.6812 191.419 -10.6373 197.018C-9.99449 203.496 -9.35166 209.978 -8.70883 216.456C-8.22643 225.175 -7.74402 233.896 -7.26275 242.615C-6.61992 250.134 -5.97709 257.655 -5.33426 265.173C-2.46158 281.484 0.148697 295.812 7.44441 307.41C14.1512 318.073 24.0354 325.36 38.3048 328.529C48.2887 330.746 63.4508 331.479 74.7112 329.729C78.0858 329.729 81.4627 329.729 84.8372 329.729C97.876 329.728 109.162 330.704 119.073 333.809C149.549 343.354 150.103 368.388 171.392 383.965C178.847 389.419 187.872 393.934 197.673 396.924C225.168 405.31 282.729 407.214 310.267 397.643C320.951 393.931 330.5 388.746 338.234 382.044C360.013 363.172 375.153 320.862 364.032 280.77C359.815 265.571 352.426 252.994 343.297 242.613C327.828 225.022 291.359 207.712 303.274 171.097C304.833 166.308 307.385 161.765 310.025 157.899C322.103 140.21 343.39 132.87 368.371 127.901C375.844 127.102 383.32 126.301 390.793 125.501C407.832 122.815 426.187 125.655 440.46 121.182C461.549 114.571 476.928 98.2659 481.447 75.1046C482.509 69.6732 481.645 62.2596 481.449 57.5879ZM1151.23 860.094C1148.33 860.094 1145.44 860.094 1142.55 860.094C1141.78 817.538 1156.15 793.752 1174.61 770.821C1185.62 757.142 1209.33 738.137 1201.13 711.545C1195.33 692.707 1178.06 683.421 1157.49 679.147C1152.35 678.747 1147.21 678.348 1142.06 677.947C1136.44 677.867 1130.81 677.788 1125.19 677.708C1114.66 678.108 1104.13 678.507 1093.6 678.908C1089.5 678.987 1085.4 679.067 1081.31 679.147C1075.12 678.747 1068.93 678.348 1062.74 677.947C1050.31 675.784 1039.14 673.773 1028.99 669.548C1006.24 660.081 990.645 642.215 978.596 622.031C971.689 610.459 966.608 597.277 960.996 584.594C949.718 559.107 931.858 533.899 906.266 522.677C872.029 507.664 818.533 513.401 778.724 520.277C740.975 526.798 715.616 517.021 704.466 491.96C700.939 484.03 698.203 475.339 696.028 466.042C694.982 457.723 693.937 449.402 692.894 441.083C689.981 425.13 687.82 410.732 681.08 398.845C675.411 388.848 668.279 379.238 659.38 372.447C644.197 360.858 615.969 347.94 622.492 317.251C627.009 295.997 640.754 285.75 652.147 271.654C664.803 255.995 678.167 241.46 685.177 220.057C688.787 209.038 690.628 197.167 692.892 184.539C693.295 178.619 693.696 172.699 694.098 166.78C695.059 160.805 695.353 151.78 694.339 145.422C692.793 135.731 689.45 102.747 693.856 95.9859C697.26 90.761 706.118 89.7699 714.35 91.426C730.496 94.6743 746.081 97.7755 759.194 104.145C769.83 109.311 779.945 116.467 784.269 127.904C792.759 150.359 783.996 186.56 778 206.139C771.455 227.514 764.815 247.841 758.23 268.775C754.844 279.538 749.141 297.084 751.72 311.973C755.441 333.452 762.759 349.824 767.873 369.809C773.761 392.812 773.267 420.68 789.572 433.165C793.416 436.108 798.329 438.686 803.557 440.125C806.851 440.685 810.148 441.245 813.442 441.805C805.416 442.328 796.249 443.017 789.572 440.605C765.155 431.784 764.237 393.649 756.301 368.37C753.549 359.603 750.209 351.081 746.658 342.932C741.596 331.315 733.191 316.19 736.532 299.015C738.559 288.59 741.5 279.68 745.211 270.936C753.252 251.993 760.846 232.077 767.393 211.18C770.313 201.859 771.696 192.62 774.143 182.622C777.678 168.186 779.729 146.814 773.661 133.905C767.637 121.091 753.212 114.067 738.702 109.667C729.546 106.891 712.269 103.646 706.636 111.586C700.101 120.799 703.74 142.766 703.743 156.943C703.747 181.92 700.934 203.208 694.58 221.979C687.204 243.774 672.985 258.763 660.102 275.015C649.881 287.909 637.406 298.668 633.822 318.212C629.19 343.464 651.96 353.817 664.682 363.33C674.757 370.862 682.505 380.565 689.033 391.647C695.373 402.412 698.504 415.903 701.57 429.805C705.372 447.041 705.791 464.433 712.419 478.282C718.021 489.986 726.355 500.212 739.181 504.68C755.957 510.524 784.749 506.621 802.349 503.241C837.302 496.526 885.119 496.579 911.567 509.96C938.315 523.494 955.021 548.471 967.26 576.435C973.029 589.615 977.761 603.397 984.861 615.312C995.561 633.271 1008.89 646.999 1027.05 657.549C1037.99 663.901 1051.48 665.709 1066.35 668.348C1070.77 668.588 1075.19 668.828 1079.61 669.068C1086.77 669.148 1093.92 669.228 1101.07 669.307C1106.54 669.068 1112 668.827 1117.47 668.588C1129.36 666.716 1146.41 666.755 1158.21 669.068C1184.73 674.264 1205.35 684.751 1212.7 708.666C1221.81 738.267 1198.83 759.919 1185.94 774.421C1166.5 796.294 1151.17 818.339 1151.23 860.094ZM495.192 96.2254C497.71 104.122 487.327 123.673 484.343 128.143C474.728 142.545 461.95 152.6 441.909 156.701C433.533 158.416 423.102 157.663 413.46 157.662C381.898 157.658 352.963 157.778 338.96 175.661C334.598 181.231 327.206 191.812 330.28 203.259C324.84 200.693 320.085 190.083 322.806 181.18C326.093 170.42 334.345 162.6 343.54 157.662C357.757 150.026 387.182 145.971 408.396 147.583C419.231 148.405 434.938 148.29 444.802 145.663C470.423 138.839 486.637 120.113 495.192 96.2254ZM-14.0119 121.903C-6.66232 125.456 -1.04644 138.199 2.14136 146.382C17.1132 184.804 -2.11095 238.652 11.7849 277.412C11.6245 277.492 11.463 277.572 11.3025 277.652C10.4328 271.444 8.36569 263.583 6.96315 256.773C6.40053 249.734 5.83791 242.693 5.27529 235.654C5.27529 231.095 5.27529 226.534 5.27529 221.976C5.93416 206.651 5.14352 189.543 2.38199 176.378C0.159009 165.784 -2.65982 155.094 -7.50339 146.861C-9.29093 143.822 -12.7056 140.528 -14.013 137.501C-14.0119 132.304 -14.0119 127.103 -14.0119 121.903ZM1179.92 860.094C1175.82 860.094 1171.72 860.094 1167.62 860.094C1166.55 806.384 1201.05 790.28 1220.42 757.381C1235.73 731.399 1233.41 702.416 1216.08 680.827C1204.77 666.726 1187.27 659.41 1165.69 655.389C1154.14 653.236 1130.36 652.959 1118.2 654.909C1112.17 655.069 1106.14 655.229 1100.11 655.389C1093.12 655.469 1086.13 655.549 1079.14 655.629C1060.78 652.715 1047.47 651.75 1033.81 644.83C997.527 626.446 989.63 593.997 973.053 556.515C963.466 534.84 949.801 514.522 931.825 501.078C907.127 482.607 863.174 475.494 820.919 483.079C801.203 486.618 765.9 494.444 746.66 486.199C717.789 473.827 721.227 429.317 710.253 399.084C704.856 384.217 697.07 370.563 685.661 361.646C673.681 352.282 659.021 345.576 654.318 329.008C650.018 313.858 657.327 299.6 662.998 290.37C677.846 266.203 698.732 248.896 709.771 221.015C714.076 210.143 715.278 197.564 717.486 184.538C717.888 178.618 718.289 172.698 718.692 166.779C721.198 151.126 717.386 136.901 728.818 130.061C734.517 126.651 744.302 129.06 749.07 131.501C768.604 141.502 764.896 169.531 759.196 191.737C751.997 219.775 742.173 245.277 728.816 267.332C720.327 281.353 704.816 300.827 701.813 318.689C699.777 330.799 722.084 340.82 727.852 347.967C740.438 363.566 745.3 387.475 751.479 409.404C754.446 419.932 756.449 430.583 761.847 438.682C771.012 452.432 788.816 456.129 811.273 451.881C851.023 444.362 897.96 446.438 930.859 459.321C963.831 472.234 985.098 497.155 999.09 528.917C1013.07 560.638 1016.65 592.478 1045.38 610.031C1054.84 615.81 1066 618.508 1079.14 620.83C1083.96 621.07 1088.78 621.31 1093.6 621.55C1097.94 621.63 1102.28 621.71 1106.62 621.789C1112.49 621.63 1118.36 621.469 1124.22 621.309C1131.99 620.104 1143.39 619.782 1151.47 621.07C1160.37 622.487 1169.26 622.369 1177.5 624.189C1196.14 628.305 1210.76 635.525 1223.31 645.547C1247.91 665.177 1267.1 711.879 1253.93 755.7C1250.43 767.349 1246.33 778.458 1240.67 788.098C1235.83 796.358 1230.36 804.469 1226.69 813.776C1218.16 835.397 1226.61 856.651 1247.18 859.854C1247.18 859.934 1247.18 860.014 1247.18 860.093C1237.38 860.093 1227.57 860.093 1217.77 860.093C1215.66 856.341 1213.25 852.782 1211.98 848.094C1204.95 822.091 1229.63 790.228 1238.74 774.659C1262.31 734.385 1251.67 677.931 1220.9 653.707C1208.16 643.674 1193.56 637.178 1174.61 633.068C1168.42 632.349 1162.23 631.628 1156.05 630.908C1148.01 630.908 1139.97 630.908 1131.93 630.908C1125.75 631.148 1119.56 631.388 1113.37 631.628C1110.4 631.628 1107.42 631.628 1104.45 631.628C1082.8 634.915 1053.89 628.32 1041.52 621.069C1007.64 601.196 1005.45 571.169 989.444 534.914C975.729 503.843 954.821 479.796 922.901 466.759C892.401 454.303 848.177 454.508 811.995 460.999C787.45 465.403 764.731 463.955 753.889 448.52C746.623 438.175 744.707 424.035 740.628 410.363C735.711 393.882 730.977 377.17 722.545 364.046C717.777 356.624 711.636 349.176 704.704 343.888C696.118 337.337 685.891 333.105 683.728 320.129C681.117 304.474 701.036 284.451 707.597 275.972C725.688 252.589 737.34 229.969 746.897 197.497C750.142 186.471 755.549 163.302 750.513 151.18C748.564 146.489 742.75 140.69 736.529 144.94C729.53 149.721 731.913 161.976 730.26 172.298C726.94 193.052 725.662 211.472 718.687 227.735C707.736 253.27 689.316 269.173 674.325 290.371C668.167 299.078 659.828 313.101 664.681 328.049C669.61 343.228 684.512 349.154 695.783 358.047C706.573 366.559 713.739 381.258 719.171 395.004C729.835 421.994 729.224 462.842 755.818 473.959C770.277 480.004 793.285 477.083 809.342 474.199C817.137 473.238 824.934 472.279 832.729 471.319C839.882 470.998 847.035 470.679 854.187 470.359C861.002 469.33 870.114 470.041 876.368 471.078C902.657 475.439 919.505 478.744 937.125 491.477C957.106 505.917 970.745 528.137 981.005 552.194C995.452 586.065 1002.2 618.648 1036.22 633.308C1047.19 638.038 1072.95 644.821 1089.5 642.187C1094.56 642.107 1099.63 642.028 1104.69 641.948C1111.84 641.627 1119 641.308 1126.15 640.987C1135.31 639.599 1151.43 639.488 1160.62 640.987C1190.35 645.838 1212.22 653.311 1227.17 672.426C1232.34 679.04 1236.71 686.747 1239.71 695.464C1241.48 700.624 1242.34 706.446 1243.32 712.263C1246.59 731.596 1238.57 752.555 1231.99 763.62C1227.47 771.226 1223.05 778.037 1217.77 784.739C1200.32 806.867 1179.91 819.793 1179.92 860.094ZM129.684 129.103C136.21 137.333 133.594 156.223 128.961 164.141C117.757 183.285 98.7228 191.485 92.7964 216.698C92.0734 219.777 90.9172 224.371 91.591 228.457C93.8815 242.344 100.27 249.726 111.362 254.616C116.143 256.724 124.782 259.249 127.757 263.256C115.943 261.213 101.805 261.221 93.0382 256.057C78.881 247.716 77.5415 225.892 84.6 208.54C88.1683 199.768 93.1046 192.572 98.5842 185.741C111.717 169.364 132.705 160.335 129.684 129.103ZM50.121 141.582C50.7638 141.662 51.4066 141.742 52.0495 141.822C59.3876 144.824 61.4914 158.506 58.0767 167.259C56.5504 169.899 55.023 172.539 53.4956 175.18C53.3351 175.18 53.1736 175.18 53.0131 175.18C53.6159 164.516 47.4763 150.818 49.3968 142.062C49.6386 141.903 49.8792 141.742 50.121 141.582ZM545.1 156.461C545.18 156.62 545.26 156.781 545.341 156.941C545.26 156.781 545.18 156.621 545.1 156.461ZM544.858 156.941C544.938 157.18 545.019 157.421 545.099 157.661C545.019 157.661 544.938 157.661 544.858 157.661C544.858 157.421 544.858 157.181 544.858 156.941ZM544.618 157.661C545.759 161.678 537.6 176.276 535.697 179.499C530.731 187.912 525.22 195.14 517.614 200.857C505.207 210.183 490.001 216.754 480.002 228.455C472.764 236.926 467.01 246.041 463.367 258.213C456.588 280.858 459.542 309.307 455.411 335.248C454.446 346.687 453.482 358.128 452.518 369.566C452.277 375.325 452.035 381.086 451.795 386.845C457.736 424.192 479.845 431.319 510.864 443.001C520.094 446.478 529.198 449.754 536.42 455.24C555.139 469.458 552.898 493.846 558.119 521.237C560.048 533.874 561.977 546.516 563.906 559.155C561.335 548.517 558.762 537.875 556.191 527.237C550.597 504.067 548.01 474.739 531.358 462.442C523.001 456.27 512.47 453.395 501.943 449.242C477.018 439.412 452.081 429.247 443.115 403.645C437.75 388.327 441.309 363.586 444.079 347.488C444.802 338.13 445.527 328.768 446.25 319.41C446.893 309.171 447.535 298.93 448.178 288.693C452.641 261.39 453.541 244.53 468.43 227.497C479.318 215.041 495.188 208.652 509.658 199.659C523.257 191.207 539.557 174.229 544.618 157.661ZM464.331 213.097C464.814 213.097 465.296 213.097 465.777 213.097C465.697 213.257 465.617 213.418 465.537 213.578C453.23 214.873 442.814 230.852 441.667 243.816C441.587 243.816 441.507 243.816 441.427 243.816C440.185 233.284 433.177 217.745 446.249 213.818C452.276 213.578 458.304 213.337 464.331 213.097ZM1229.58 249.575C1238.85 250.602 1248.14 267.437 1249.6 276.933C1249.52 276.933 1249.44 276.933 1249.36 276.933C1249.36 276.774 1249.36 276.613 1249.36 276.453C1247.35 273.573 1245.34 270.693 1243.33 267.813C1238.59 262.285 1231.62 255.921 1224.28 253.174C1224.44 252.935 1224.6 252.694 1224.76 252.455C1226.29 251.746 1227.98 250.54 1229.58 249.575ZM900.482 264.934C900.562 265.173 900.642 265.414 900.722 265.653C900.642 265.653 900.562 265.653 900.482 265.653C900.482 265.414 900.482 265.174 900.482 264.934ZM900.722 266.133C902.249 269.893 903.776 273.653 905.304 277.412C910.938 287.278 918.702 295.186 928.449 300.931C948.652 312.839 978.464 312.855 1005.36 318.45C1047.39 327.191 1087.92 334.889 1119.16 354.207C1136.41 364.88 1148.5 378.879 1156.29 399.085C1163.48 417.742 1161.95 443.448 1167.14 464.121C1172.28 484.634 1180.21 501.223 1191.49 515.478C1203.33 530.438 1219.3 539.557 1242.6 543.316C1255.97 545.472 1269.44 541.437 1282.14 543.076C1282.06 557.393 1281.98 571.716 1281.9 586.033C1281.9 585.873 1281.9 585.712 1281.9 585.553C1280.7 582.834 1279.49 580.112 1278.28 577.393C1275.51 571.097 1271.43 564.75 1265.75 561.315C1256.75 555.878 1239.48 557.65 1228.62 554.355C1209.88 548.668 1193.98 536.543 1183.29 522.677C1171.27 507.074 1163.11 489.202 1157.25 467.24C1151.78 446.728 1153.28 421.757 1146.16 403.645C1136.71 379.594 1117.82 363.224 1094.57 353.009C1065.64 340.301 1032.85 333.415 997.885 325.891C982.616 323.491 967.344 321.091 952.075 318.692C924.921 311.929 901.687 298.617 900.722 266.133ZM11.5443 277.653C11.7047 278.213 11.8663 278.773 12.0267 279.333C11.9465 279.333 11.8663 279.333 11.7861 279.333C11.7059 278.773 11.6257 278.213 11.5443 277.653ZM12.0267 279.333C12.1069 279.493 12.1871 279.654 12.2674 279.813C12.1871 279.652 12.1069 279.493 12.0267 279.333ZM12.5091 280.533C12.6696 280.933 12.8311 281.333 12.9915 281.733C12.9113 281.733 12.8311 281.733 12.7509 281.733C12.7509 281.573 12.7509 281.412 12.7509 281.253C12.6696 281.013 12.5893 280.772 12.5091 280.533ZM12.9915 282.453C13.152 282.453 13.3135 282.453 13.474 282.453C13.3124 282.453 13.152 282.453 12.9915 282.453ZM13.2322 282.933C13.3926 282.933 13.5542 282.933 13.7146 282.933C13.5542 282.933 13.3937 282.933 13.2322 282.933ZM-14.0119 334.529C-8.44414 340.591 -4.94582 347.696 2.38313 352.048C6.46355 354.472 14.7894 354.949 17.8133 356.848C9.91146 356.94 1.98666 358.885 -5.33197 355.887C-8.6355 354.535 -11.0029 351.767 -14.0119 350.368C-14.0119 345.089 -14.0119 339.809 -14.0119 334.529ZM72.5433 353.728C77.2046 353.808 81.866 353.888 86.5274 353.968C100.468 356.234 112.017 358.117 121.246 364.767C131.921 372.459 138.027 384.221 146.079 394.525C154.524 405.332 166.031 413.536 179.833 419.004C193.84 424.551 210.441 425.694 227.33 428.603C235.929 429.322 244.529 430.043 253.128 430.763C262.289 431.403 271.453 432.043 280.614 432.682C294.89 435.058 309.124 435.342 322.807 438.202C375.771 449.273 425.45 462.02 440.222 510.917C442.388 518.085 442.474 525.898 443.839 534.196C445.608 544.956 443.073 560.114 441.186 568.514C438.554 580.227 436.141 590.904 430.818 599.952C418.074 621.615 398.811 635.978 385.974 657.548C372.227 680.648 369.457 710.738 359.693 738.184C353.262 756.264 344.598 772.132 339.923 791.94C336.702 805.592 339.099 820.08 345.709 827.938C360.494 845.511 399.15 835.259 426.718 839.697C442.037 842.163 456.399 842.548 468.911 847.376C474.376 849.856 479.842 852.336 485.306 854.816C487.878 856.496 490.45 858.176 493.022 859.856C493.022 859.936 493.022 860.016 493.022 860.096C486.432 860.096 479.841 860.096 473.251 860.096C467.614 858.12 461.687 854.826 455.168 852.896C447.48 850.62 438.984 850.697 430.093 849.297C421.897 849.297 413.697 849.297 405.5 849.297C399.152 849.377 392.802 849.456 386.454 849.536C366.114 849.54 348.329 849.013 336.788 839.937C327.68 832.776 322.653 815.873 325.939 798.9C330.218 776.785 338.172 760.407 345.467 742.024C355.318 717.204 359.418 686.357 370.06 662.109C375.22 650.352 382.312 639.919 389.831 630.432C397.995 620.13 407.948 611.624 415.146 600.193C422.895 587.89 426.322 574.437 429.371 556.995C430.975 547.818 431.334 536.74 429.612 527.478C428.173 519.734 426.455 512.825 423.825 506.599C419.604 496.606 413.226 487.209 405.26 480.92C381.892 462.47 351.989 454.354 317.017 446.842C304.641 445.242 292.263 443.642 279.887 442.043C272.173 441.483 264.456 440.923 256.742 440.363C228.513 435.84 199.5 437.692 176.214 428.604C163.25 423.544 152.358 416.313 143.907 406.766C128.615 389.493 123.206 372.438 97.3741 364.768C64.9003 355.127 36.2171 369.702 15.6408 380.127C7.67588 384.162 -7.30515 386.491 -14.0142 379.407C-14.0142 375.488 -14.0142 371.567 -14.0142 367.648C-11.3627 369.117 -8.66873 370.614 -5.09363 371.247C1.72655 372.456 7.7114 369.274 12.2651 367.648C22.9743 363.823 33.3879 359.908 44.8133 357.088C51.1614 356.128 57.5118 355.169 63.8599 354.209C66.7566 354.048 69.6499 353.888 72.5433 353.728ZM1271.78 353.728C1273.3 356.447 1274.83 359.169 1276.36 361.888C1278.29 363.807 1280.22 365.728 1282.14 367.648C1282.06 371.487 1281.98 375.327 1281.9 379.167C1281.58 378.928 1281.26 378.687 1280.94 378.448C1279.73 376.768 1278.53 375.088 1277.32 373.408C1274.22 368.302 1272.22 361.199 1271.78 353.728ZM66.516 378.686C124.897 377.705 127.847 423.682 166.09 441.562C183.504 449.703 203.102 450.087 225.642 453.801C233.356 454.281 241.074 454.761 248.787 455.24C263.172 456.68 277.56 458.12 291.944 459.56C346.341 469.757 399.196 476.434 410.807 529.156C412.553 537.084 412.537 548.447 411.048 556.514C408.707 569.191 406.531 579.071 401.885 588.912C396.287 600.773 386.91 609.809 379.222 619.629C373.074 627.483 367.528 635.751 362.345 644.588C350.564 664.676 346.61 690.466 338.958 714.904C332.856 734.391 324.49 751.844 317.259 770.1C304.27 802.892 299.647 850.968 338.235 859.854C338.235 859.934 338.235 860.014 338.235 860.093C330.359 860.093 322.483 860.093 314.607 860.093C312.438 857.614 310.267 855.133 308.097 852.654C304.03 846.932 301.15 839.725 299.177 832.015C295.616 818.095 298.213 800.312 301.347 788.098C308.46 760.375 319.969 738.014 328.351 711.543C331.967 697.625 335.584 683.704 339.2 669.786C344.34 653.074 350.757 637.44 359.211 623.95C364.594 615.359 371.901 608.389 377.534 600.191C386.937 586.505 392.409 573.776 395.858 553.394C397.1 546.052 396.744 536.671 395.135 529.875C393.789 524.191 391.823 518.756 389.108 514.276C369.913 482.624 323.285 478.954 279.89 471.078C267.917 469.878 255.939 468.679 243.966 467.479C236.492 466.998 229.017 466.518 221.543 466.039C201.282 462.715 182.378 462.257 166.573 455.48C131.705 440.529 124.647 401.425 86.2868 391.164C55.7701 383.001 33.8772 401.226 15.4036 410.602C8.81487 413.947 -7.37734 418.055 -14.0107 411.563C-13.9305 407.483 -13.8503 403.403 -13.7701 399.323C8.15256 411.355 24.1809 391.669 40.4774 384.684C46.0016 382.316 52.3657 380.666 58.8009 379.405C61.3722 379.166 63.9447 378.927 66.516 378.686ZM782.584 387.565C784.11 392.044 785.638 396.526 787.165 401.005C791.258 410.795 799.726 424.957 809.587 428.603C809.587 428.682 809.587 428.762 809.587 428.842C793.97 426.359 783.457 405.35 782.584 387.565ZM69.8906 407.484C109.822 407.176 128.61 432.72 137.157 463.88C139.392 472.026 142.899 486.921 141.256 497.718C140.694 505.317 140.131 512.919 139.568 520.517C136.992 535.142 133.273 556.315 137.88 571.153C144.875 593.677 167.148 598.846 190.44 605.231C197.11 607.071 203.781 608.91 210.451 610.75C210.451 610.83 210.451 610.91 210.451 610.99C203.161 610.786 195.494 609.01 188.994 607.629C163.51 602.22 140.642 598.289 132.576 575.712C128.099 563.18 129.904 543.426 132.336 529.875C132.978 522.917 133.621 515.956 134.264 508.996C135.235 503.204 134.938 495.177 134.023 489.797C133.541 485.157 133.059 480.517 132.577 475.878C129.383 460.786 123.997 449.448 115.942 439.4C111.732 434.149 105.313 429.62 99.0643 426.441C71.5406 412.438 43.0739 426.639 21.1891 435.561C12.6352 439.048 -1.64917 445.103 -14.0119 441.561C-14.0119 437.161 -14.0119 432.761 -14.0119 428.362C12.524 431.875 26.1965 420.608 44.8168 413.003C49.9617 410.901 55.6246 409.433 61.4524 408.204C64.2655 407.964 67.0786 407.725 69.8906 407.484ZM1009.46 423.083C1042.71 424.951 1064.9 432.77 1073.59 459.561C1084.08 491.916 1070.51 532.554 1091.19 556.994C1109.2 578.277 1149.18 568.838 1181.85 574.753C1223.14 582.228 1248.5 595.433 1268.64 623.709C1273.14 630.017 1279.7 637.971 1282.14 645.788C1282.14 653.627 1282.14 661.467 1282.14 669.306C1281.98 669.226 1281.82 669.147 1281.66 669.067C1279.93 658.631 1271.76 645.879 1266.71 637.869C1248.35 608.695 1223.49 592.408 1183.05 584.833C1146.53 577.991 1101.62 587.978 1082.27 563.954C1072.07 551.287 1071.05 539.033 1068.53 518.357C1068.61 514.518 1068.69 510.677 1068.77 506.837C1068.96 495.056 1068.54 483.42 1066.12 473.72C1059.35 446.566 1045.25 438.261 1020.79 428.842C1015.31 426.732 1008.73 424.417 1002.95 423.563C1002.95 423.483 1002.95 423.403 1002.95 423.323C1005.12 423.243 1007.29 423.163 1009.46 423.083ZM-14.0119 475.4C-14.0119 470.201 -14.0119 465 -14.0119 459.8C11.3919 460.836 30.1245 449.872 50.121 443.001C60.9563 439.278 78.362 436.999 90.3844 441.562C95.244 443.406 99.6303 446.028 103.404 449.002C118.533 460.923 124.787 492.037 119.557 519.317C116.022 537.754 110.216 562.592 116.423 582.193C124.533 607.807 149.871 612.617 177.18 619.39C188.2 622.122 217.225 630.792 227.088 623.23C238.602 614.401 226.252 600.94 218.891 597.312C211.283 593.562 201.921 592.979 192.61 590.832C179.965 587.917 169.051 585.115 160.544 578.354C150.611 570.459 146.369 552.315 150.418 534.917C155.687 512.278 163.693 494.316 183.209 485.96C202.794 477.573 243.518 480.348 266.388 484.521C310.842 492.633 359.346 493.175 371.507 533.238C373.683 540.404 374.54 550.219 372.953 558.675C371.629 565.738 370.509 572.498 368.132 578.594C364.537 587.809 360.465 598.754 354.63 606.192C356.237 601.153 357.845 596.112 359.452 591.073C364.704 573.88 368.613 546.433 359.452 530.597C340.454 497.762 291.574 498.917 246.375 491.96C242.839 491.88 239.303 491.8 235.767 491.72C213.619 488.414 189.627 494.619 178.386 503.479C163.316 515.357 153.893 553.285 173.081 568.035C193.208 583.505 228.721 574.457 242.759 597.553C246.45 603.624 249.02 613.702 245.652 622.271C243.436 627.91 239.241 630.995 235.767 635.23C235.927 635.469 236.089 635.71 236.249 635.95C247.645 640.525 253.668 658.405 249.751 675.067C245.248 694.226 237.022 707.165 227.329 720.665C224.677 724.104 222.025 727.544 219.372 730.984C223.957 715.605 232.763 702.931 236.972 686.347C237.535 682.828 238.098 679.308 238.66 675.788C239.698 669.699 238.162 662.994 236.732 658.989C229.322 638.24 206.755 639.373 184.172 633.79C150.036 625.351 118.326 622.078 106.055 592.033C89.6705 551.915 130.659 484.114 91.5887 459.803C81.9153 453.784 64.7869 453.049 52.0483 456.923C30.4465 463.49 12.7773 474.216 -14.0119 475.4ZM1045.38 460.521C1045.46 460.681 1045.54 460.842 1045.62 461.001C1045.54 460.841 1045.46 460.681 1045.38 460.521ZM1045.62 461.241C1052.27 465.868 1053.56 485.851 1055.03 496.999C1056.76 510.138 1050.88 524.593 1053.34 539.475C1055.97 555.406 1059.08 566.613 1067.08 576.672C1086.97 601.671 1139.31 590.705 1177.26 598.03C1220.01 606.28 1245.21 622.388 1262.61 655.626C1276.82 682.756 1284.13 728.987 1274.43 766.979C1272.51 774.492 1270.13 781.903 1267.2 788.578C1263.96 795.944 1259.69 802.362 1258.03 811.377C1255.21 826.711 1269.81 830.438 1282.14 827.455C1282.14 832.095 1282.14 836.735 1282.14 841.374C1265.97 845.735 1238.54 844.554 1242.12 822.895C1245.67 801.416 1257.65 787.833 1263.82 768.179C1274.72 733.413 1268.59 686.648 1253.45 660.906C1237.38 633.571 1215.59 617.941 1178.95 610.749C1139.62 603.027 1092.96 613.662 1066.12 593.471C1051.86 582.749 1041.27 558.896 1046.11 532.034C1047.98 521.599 1049.14 511.866 1050.93 500.596C1051.09 496.677 1051.25 492.756 1051.41 488.837C1050.61 482.917 1049.8 476.997 1049 471.078C1047.87 467.801 1046.75 464.52 1045.62 461.241ZM59.5239 472.28C82.3713 471.978 90.185 480.667 93.5194 499.879C94.3135 504.453 94.5943 511.449 93.7601 516.437C89.2717 543.276 81.7251 580.004 92.314 605.231C99.4848 622.315 114.029 633.006 133.783 637.628C141.979 638.669 150.179 639.709 158.375 640.748C184.425 645.629 211.165 648.271 219.615 670.506C226.112 687.602 213.513 713.469 208.524 726.183C194.51 761.893 175.499 821.394 198.881 860.093C194.782 860.014 190.683 859.934 186.584 859.854C184.977 856.334 183.369 852.814 181.762 849.295C179.208 843.096 177.509 836.211 175.976 829.136C171.618 809.029 177.651 785.54 182.726 769.38C189.476 749.304 196.229 729.221 202.978 709.144C205.524 701.047 210.058 689.258 207.559 678.426C202.377 655.962 181.058 651.903 157.651 647.468C148.279 645.693 138.845 645.966 130.165 643.628C118.59 640.509 109.548 635.919 101.474 629.469C84.0798 615.575 75.7987 584.406 81.222 553.154C84.4855 534.345 89.7175 503.955 78.8111 490.038C73.7819 483.62 61.08 481.669 50.1198 484.038C36.3603 487.013 23.7168 491.239 10.5795 494.837C2.38313 496.437 -5.81667 498.038 -14.013 499.637C-14.013 496.597 -14.013 493.556 -14.013 490.517C4.23485 488.377 19.9252 482.102 35.6533 477.317C40.7157 476.037 45.7804 474.758 50.8429 473.477C53.7373 473.08 56.6306 472.68 59.5239 472.28ZM523.16 473.72C532.552 481.849 537.582 504.174 541.243 518.357C545.204 533.706 553.293 563.565 549.44 581.712C544.823 603.466 533.103 620.922 522.679 637.389C518.188 644.482 506.768 662.636 500.016 666.187C500.016 666.107 500.016 666.027 500.016 665.947C504.423 651.321 511.137 641.357 518.099 629.47C523.882 619.595 528.056 607.166 531.601 595.632C542.908 558.829 532.428 506.617 523.16 473.72ZM156.688 478.04C158.819 478.622 160.315 479.655 161.509 481.16C160.847 483.488 159.229 485.683 157.651 487.159C157.571 487.159 157.491 487.159 157.411 487.159C157.639 484.434 157.105 480.759 156.688 478.04ZM-14.0119 524.836C-14.0119 520.517 -14.0119 516.196 -14.0119 511.877C6.99524 511.167 44.7973 492.529 63.1403 506.358C71.4054 512.589 73.0108 529.267 70.6148 542.596C65.8411 569.143 64.615 594.246 74.4729 616.75C82.7334 635.61 97.695 648.82 119.077 654.668C139.308 660.202 168.064 656.322 182.487 668.588C201.01 684.34 182.065 722.633 176.459 740.343C174.691 747.542 172.923 754.742 171.155 761.941C170.881 736.84 186.678 697.763 171.878 679.147C160.682 665.063 133.171 669.372 113.532 663.548C90.24 656.64 74.9404 641.506 65.7941 620.591C57.7272 602.142 54.9875 576.867 59.2845 553.395C61.6381 540.534 62.4619 524.127 53.7396 517.877C48.7391 514.294 39.2788 513.798 31.558 515.477C16.7362 518.7 1.9477 523.65 -14.0119 524.836ZM221.543 506.598C243.447 506.298 263.468 508.365 281.578 512.357C305.077 517.538 330.973 520.642 342.817 537.316C359.426 560.7 342.275 605.248 335.343 627.55C326.177 657.035 320.437 688.94 310.268 717.785C301.58 742.426 290.964 764.033 283.747 790.26C280.357 802.577 278.315 821.677 282.301 835.138C285.163 844.806 289.295 852.575 294.114 860.097C289.212 860.097 284.309 860.097 279.407 860.097C277.077 854.578 274.746 849.057 272.415 843.538C267.489 827.944 267.269 807.734 271.45 791.222C278.404 763.764 290.514 740.75 300.142 715.387C310.809 687.284 315.304 654.812 323.769 624.673C328.761 606.902 341.119 572.395 332.208 551.718C321.788 527.539 282.71 527.283 252.162 522.44C243.898 521.129 228.817 520.84 220.337 522.2C208.154 524.155 196.776 525.546 194.298 537.079C193.505 540.772 194.645 544.317 196.227 546.438C203.984 556.845 229.195 554.968 243 559.158C270.316 567.45 275.769 588.168 276.513 621.074C276.726 630.525 275.641 640.954 274.102 649.392C271.086 665.931 269.434 681.224 263.976 695.229C256.631 714.076 247.163 730.33 239.143 748.506C229.837 769.595 216.572 801.489 223.953 833.22C226.312 843.362 230.265 851.536 233.597 860.098C229.097 860.098 224.595 860.098 220.095 860.098C217.296 851.235 213.699 842.7 211.657 832.26C208.458 815.905 211.522 796.824 215.273 783.544C220.47 765.149 226.736 749.57 234.32 733.867C240.432 721.21 247.626 709.197 253.126 695.709C258.87 681.624 261.503 665.795 264.699 648.912C265.342 641.314 265.985 633.712 266.627 626.113C267.4 621.388 266.35 615.648 265.663 611.714C261.375 587.162 255.691 574.581 233.355 568.037C219.422 563.955 201.804 565.396 190.921 558.438C171.389 545.95 180.939 518.416 198.154 510.921C202.849 508.878 208.265 508.084 214.067 507.081C216.56 506.918 219.052 506.758 221.543 506.598ZM225.642 532.756C257.306 532.248 289.943 536.974 303.517 555.555C316.592 573.453 310.429 607.45 305.205 629.95C298.316 659.621 293.993 688.727 283.748 714.425C273.788 739.405 260.097 760.608 253.128 788.34C248.964 804.91 248.628 828.1 253.851 843.775C255.773 849.543 258.715 854.784 260.843 860.094C257.87 860.094 254.896 860.094 251.923 860.094C250.235 856.335 248.547 852.575 246.859 848.816C244.411 842.686 242.972 835.711 241.555 828.657C235.044 796.268 251.641 762.803 261.084 741.544C267.535 727.02 274.393 712.757 279.407 696.907C282.94 685.741 284.864 674.215 287.605 662.109C293.198 637.408 303.852 585.184 289.293 564.676C273.142 541.927 240.417 545.986 210.453 537.558C212.461 532.411 220.255 534.779 225.642 532.756ZM27.9393 535.876C29.5229 536.259 31.0905 536.562 32.5205 537.556C32.3738 542.193 29.2365 545.499 27.6987 549.075C24.8134 555.785 21.9006 566.821 23.6 577.154C28.6681 607.977 39.6512 631.87 53.0143 654.668C62.0151 670.025 69.3944 684.927 84.3571 694.266C90.7041 698.227 98.4959 700.975 106.779 702.906C124.965 707.146 145.94 704.666 154.517 718.265C158.539 724.642 160.196 736.77 158.375 747.303C155.505 763.907 154.469 780.153 151.625 797.461C148.987 813.506 154.329 835.907 158.617 846.658C160.706 851.137 162.796 855.618 164.886 860.097C160.386 860.097 155.884 860.097 151.384 860.097C146.722 850.283 142.881 839.877 140.294 827.699C139.731 821.7 139.168 815.699 138.606 809.7C138.606 803.862 138.606 798.021 138.606 792.181C139.249 785.622 139.891 779.061 140.534 772.502C142.479 761.831 146.015 745.485 142.222 734.825C137.147 720.56 119.27 721.684 103.647 717.786C96.4299 715.985 89.2087 713.724 83.3946 710.346C62.1216 697.986 51.7401 676.508 41.4433 653.23C32.7875 633.664 22.6455 614.761 15.8871 593.234C10.8969 577.34 8.60746 548.527 20.9507 538.999C23.0614 537.364 25.179 537.064 27.9393 535.876ZM45.0574 539.475C45.9856 541.948 45.1548 545.751 44.575 549.074C42.8619 558.892 41.3677 571.397 43.1289 581.952C48.0252 611.304 56.8885 634.498 72.0609 653.467C82.5902 666.632 97.8863 674.839 117.628 678.905C135.387 682.563 167.263 678.514 164.161 701.224C164.081 701.064 164 700.903 163.92 700.744C160.201 696.963 159.625 693.107 154.035 690.904C145.302 687.463 133.212 689.785 122.21 688.024C111.856 686.367 103.268 685.049 95.2062 681.544C67.6676 669.573 53.6113 637.584 43.6102 608.11C40.6137 599.277 35.8481 583.902 37.8236 571.152C38.8147 564.756 39.1688 556.799 40.9575 550.514C42.3257 546.835 43.6915 543.155 45.0574 539.475ZM-14.0119 543.076C0.214011 544.761 -4.86904 555.218 -2.68044 568.274C-1.48187 575.42 -0.43111 582.273 1.90072 588.433C10.662 611.573 21.4102 632.942 30.592 656.108C38.3472 675.675 43.6663 696.375 55.667 711.545C63.1197 720.965 74.5726 727.777 87.7328 731.463C103.138 735.778 121.569 735.103 125.585 750.662C128.786 763.058 121.797 775.265 117.87 783.54C109.559 801.051 97.2687 835.123 105.092 860.096C100.993 860.016 96.894 859.936 92.7953 859.856C92.1524 854.977 91.5096 850.096 90.8668 845.217C88.276 829.881 94.058 812.134 98.0995 802.26C102.327 791.935 116.677 770.249 110.396 755.223C105.345 743.139 90.5093 742.025 77.3651 737.945C66.194 734.477 55.6864 729.05 49.1562 720.906C34.1488 702.191 28.3358 673.945 18.2957 650.351C11.6761 634.795 4.47548 619.447 -3.88589 605.234C-7.26046 599.155 -10.6373 593.075 -14.0119 586.996C-14.0119 572.355 -14.0119 557.713 -14.0119 543.076ZM564.146 559.155C564.227 559.394 564.307 559.635 564.387 559.874C564.227 559.794 564.065 559.715 563.905 559.635C563.986 559.475 564.066 559.314 564.146 559.155ZM785.96 593.712C793.593 593.872 801.23 594.033 808.864 594.193C841.495 599.568 860.067 605.752 869.139 634.75C871.572 642.524 874.307 654.374 872.515 664.988C871.55 670.747 870.586 676.508 869.621 682.266C866.977 691.902 863.561 701.251 858.772 708.904C852.922 718.255 845.342 726.438 836.35 732.663C832.011 735.382 827.67 738.104 823.331 740.823C820.024 743.389 816.087 749.315 818.509 755.222C823.787 768.091 855.629 781.531 868.417 789.3C897.696 807.089 924.221 828.941 940.024 860.096C935.283 860.096 930.541 860.096 925.8 860.096C923.192 852.201 915.483 845.534 910.61 839.457C892.941 817.424 868.218 803.256 843.101 788.58C830.262 781.078 805.588 771.695 799.945 758.102C791.723 738.298 822.951 728.959 832.975 721.625C851.457 708.102 871.691 669.422 858.773 636.67C853.493 623.284 843.873 613.733 830.806 608.112C811.062 599.619 776.025 599.76 751.484 604.272C741.882 606.037 733.096 606.217 724.24 608.591C680.818 620.228 647.941 636.953 626.111 669.786C609.608 694.611 602.862 728.758 587.054 754.021C577.921 768.615 565.821 783.531 552.576 794.098C545.393 799.83 533.862 806.626 531.118 816.417C529.357 822.698 532.43 828.249 534.734 832.016C540.79 841.914 548.799 850.083 554.505 860.094C551.933 860.173 545.154 860.973 543.656 859.614C534.817 849.296 525.974 838.975 517.135 828.656C515.069 825.744 512.38 820.782 513.519 815.697C515.689 806.011 525.672 800.082 532.565 794.818C544.563 785.658 556.074 775.004 565.355 763.14C575.698 749.92 583.767 734.436 590.671 717.784C597.786 700.62 603.278 682.753 612.37 667.626C625.33 646.066 644.41 630.069 667.341 618.429C689.491 607.186 714.588 602.524 743.528 597.311C753.172 596.35 762.818 595.391 772.46 594.431C776.958 594.193 781.459 593.952 785.96 593.712ZM1079.62 860.094C1076.89 860.015 1074.15 859.935 1071.42 859.855C1070.62 852.576 1069.81 845.296 1069.01 838.017C1065.69 819.381 1065.64 803.515 1056.23 791.7C1045.45 778.162 1015.16 774.399 997.163 767.462C964.437 754.849 935.451 741.39 916.394 715.385C909.275 705.67 904.585 694.063 901.928 679.867C898.486 661.472 901.208 643.6 894.695 628.51C889.915 617.431 881.394 610.566 870.826 605.231C867.772 604.031 864.717 602.831 861.663 601.631C861.663 601.551 861.663 601.472 861.663 601.392C879.265 601.378 893.27 606.008 900.721 618.191C906.9 628.292 907.805 640.524 910.124 654.909C910.607 661.868 911.089 668.828 911.57 675.788C913.71 687.393 917.395 697.259 922.902 705.546C940.733 732.377 971.456 747.988 1004.88 759.303C1023.37 765.566 1055.55 766.886 1067.8 778.982C1078.28 789.322 1074.57 809.094 1077.45 827.46C1078.17 838.335 1078.9 849.217 1079.62 860.094ZM210.453 610.991C210.775 610.991 211.095 610.991 211.417 610.991C211.417 611.07 211.417 611.15 211.417 611.23C211.095 611.151 210.773 611.072 210.453 610.991ZM778.485 610.991C783.708 611.15 788.933 611.311 794.157 611.471C811.845 614.486 827.468 617.891 836.591 629.229C855.845 653.159 845.928 690.53 825.982 706.505C820.19 711.143 814.148 716.061 806.936 719.224C790.985 726.217 758.39 732.084 769.806 759.301C777.548 777.759 804.765 787.767 821.884 797.698C852.358 815.379 882.153 831.421 901.687 859.854C901.687 859.934 901.687 860.014 901.687 860.093C896.464 860.093 891.239 860.093 886.015 860.093C881.574 852.668 872.582 846.108 865.763 840.894C857.184 834.337 848.472 827.698 839.002 821.936C827.109 815.458 815.212 808.976 803.318 802.497C787.911 793.562 771.103 786.985 760.644 773.219C744.153 751.517 748.579 721.059 778.485 716.823C776.959 716.343 775.431 715.863 773.904 715.384C769.967 713.624 766.027 711.864 762.09 710.104C757.941 708.002 753.679 705.853 748.588 704.585C741.651 702.856 733.216 704.364 728.094 706.505C703.449 716.809 698.852 754.919 710.736 782.819C724.024 814.022 755.303 829.158 784.754 844.256C792.407 848.179 799.968 851.801 807.176 856.015C809.507 857.374 811.838 858.735 814.168 860.094C805.329 860.094 796.487 860.094 787.647 860.094C779.531 855.775 771.413 851.455 763.297 847.135C756.306 843.456 749.312 839.775 742.32 836.096C723.251 824.51 706.73 809.497 697.716 787.859C691.78 773.608 688.209 750.578 692.895 731.944C695.196 722.791 698.622 714.598 703.503 707.945C711.868 696.543 731.207 683.603 751 692.106C762.085 696.868 768.353 706.93 781.138 710.105C794.427 713.406 808.259 703.659 814.651 698.586C835.355 682.152 841.872 645.05 816.097 628.99C787.733 611.317 734.92 623.49 709.772 635.469C676.91 651.122 657.045 668.587 639.13 699.065C628.358 717.389 623.971 740.949 614.537 760.501C606.413 777.338 594.596 790.401 585.123 805.857C581.604 811.599 576.076 819.865 577.89 830.336C579.137 837.539 580.444 843.869 582.954 849.775C584.561 853.215 586.169 856.655 587.775 860.094C582.954 860.094 578.131 860.094 573.309 860.094C569.144 848.428 555.069 835.658 560.772 817.138C564.534 804.922 573.531 797.761 580.543 788.82C588.108 779.172 595.681 769.506 602.242 758.822C616.656 735.35 622.856 704.115 637.201 680.827C650.115 659.864 668.516 645.569 690.003 633.071C706.508 623.469 726.293 618.523 747.626 613.872C754.134 613.072 760.646 612.272 767.155 611.472C770.93 611.311 774.708 611.151 778.485 610.991ZM-14.0119 616.75C-8.94374 621.647 -5.87855 629.771 -2.19803 635.95C7.42608 652.104 14.2337 670.732 20.4649 690.426C24.8421 704.258 27.4397 718.753 33.0018 731.463C35.3348 736.794 38.7574 742.544 44.575 744.422C48.3277 745.635 53.6262 745.124 58.3174 745.142C69.6488 745.187 81.3103 746.383 86.5262 753.061C91.9267 759.976 90.0429 772.37 86.7669 780.179C81.0948 793.705 71.8156 803.576 67.4785 819.056C65.0115 827.862 65.966 837.734 64.3446 847.374C63.5769 851.94 64.4878 856.213 63.3798 860.093C58.6382 860.093 53.8955 860.093 49.155 860.093C49.155 860.014 49.155 859.934 49.155 859.854C55.1548 848.366 52.2202 829.947 56.3877 816.177C58.7253 808.452 62.0941 801.357 66.0313 795.059C69.0083 790.296 72.8423 785.791 74.7112 779.939C77.82 770.204 73.2652 762.031 65.5489 760.021C49.8322 755.924 40.2505 769.591 34.9291 778.02C19.5321 802.406 14.8318 829.741 -14.0142 841.376C-13.934 836.656 -13.8538 831.935 -13.7736 827.217C6.31459 824.142 14.6588 785.168 24.5613 769.621C26.9 765.948 30.4671 761.842 33.9643 759.301C36.3752 757.862 38.7861 756.421 41.197 754.982C32.0358 756.791 23.93 753.969 21.1856 747.782C18.3026 741.284 18.9489 733.005 17.5693 724.744C15.0335 709.554 14.5499 694.41 10.5772 680.827C6.77752 667.834 2.74981 655.32 -2.92451 644.109C-7.37161 635.315 -13.9569 629.702 -14.0119 616.75ZM766.431 633.309C785.173 632.975 802.066 634.894 810.31 645.308C821.423 659.344 813.672 681.253 802.595 689.945C800.024 691.545 797.451 693.145 794.88 694.744C775.212 702.867 762.557 684.054 751 678.186C740.282 672.744 724.16 674.676 714.353 679.625C697.719 688.022 684.808 702.576 678.912 721.623C667.738 757.709 676.804 795.838 693.859 818.096C702.743 829.689 714.776 839.754 727.373 847.613C734.525 851.773 741.679 855.934 748.83 860.092C739.669 860.092 730.505 860.092 721.344 860.092C716.121 856.333 710.896 852.573 705.672 848.813C687.212 835.284 672.218 816.991 665.167 792.177C656.327 761.062 664.456 721.211 677.704 700.262C687.752 684.374 702.659 673.036 722.066 666.424C729.479 663.899 742.073 661.978 750.516 665.224C760.336 669 775.47 686.686 786.44 684.663C805.134 681.215 808.056 657.207 792.949 647.705C770.969 633.879 728.909 648.885 712.181 656.825C684.106 670.15 664.767 691.661 653.111 721.381C648.129 738.658 643.146 755.94 638.164 773.217C633.281 785.585 627.264 796.86 620.805 807.775C615.958 815.964 609.812 827.96 612.607 841.852C613.984 848.692 617.004 854.101 618.876 860.091C614.859 860.091 610.839 860.091 606.822 860.091C605.296 856.332 603.768 852.571 602.241 848.812C600.545 844.011 600.053 838.773 599.107 833.213C597.625 824.511 601.314 816.578 603.688 811.134C610.396 795.752 620.67 783.44 627.557 767.697C635.643 749.215 640.657 727.541 648.774 709.14C661.104 681.191 684.785 661.432 711.942 648.184C722.751 642.911 734.551 639.128 747.384 635.945C753.731 635.069 760.081 634.19 766.431 633.309ZM971.365 634.269C974.745 637.793 977.941 646.462 981.25 650.828C992.93 666.242 1010.47 678.845 1031.16 685.146C1040.32 687.936 1050.07 689.21 1060.57 690.906C1066.28 691.146 1071.99 691.386 1077.69 691.626C1085 691.706 1092.32 691.786 1099.63 691.865C1122.62 688.492 1154.95 689.775 1169.55 698.584C1179.39 704.523 1189.34 715.733 1184.98 733.142C1183.81 737.833 1182.14 742.456 1180.16 746.342C1176.55 753.425 1172.39 761.641 1166.9 766.98C1166.82 766.98 1166.74 766.98 1166.66 766.98C1166.66 766.901 1166.66 766.821 1166.66 766.741C1169.13 760.64 1171.2 753.922 1172.68 747.062C1185.84 686.131 1103.76 711.201 1060.57 703.144C1014.75 694.597 980.218 679.364 971.365 634.269ZM1055.75 860.094C1052.62 860.094 1049.48 860.094 1046.35 860.094C1041.79 806.378 1010.43 800.016 970.161 782.819C936.798 768.573 897.112 744.551 886.016 708.665C882.371 696.876 883.148 680.448 885.293 667.627C885.454 659.949 885.615 652.267 885.776 644.589C885.615 642.75 885.454 640.91 885.293 639.07C885.856 643.79 886.419 648.509 886.981 653.229C886.901 658.908 886.821 664.589 886.741 670.268C885.45 678.116 886.927 687.692 888.428 694.027C895.202 722.612 916.008 742.234 937.854 755.943C953.228 765.59 970.279 772.575 987.762 780.422C1005.02 788.17 1022.15 792.577 1035.74 803.46C1047.19 812.632 1049.61 829.121 1053.34 846.177C1054.14 850.815 1054.95 855.456 1055.75 860.094ZM-14.0119 646.748C-9.22104 652.602 -6.37929 664.54 -3.88589 672.666C-0.708409 683.02 1.01612 694.142 3.10617 706.264C3.3468 712.183 3.58858 718.104 3.82921 724.022C3.749 729.701 3.66879 735.382 3.58858 741.061C3.34795 746.82 3.10617 752.581 2.86554 758.339C2.62491 764.339 2.38313 770.339 2.1425 776.339C-0.00943279 788.743 -4.82092 800.33 -14.0107 805.617C-14.1723 791.344 -10.2833 784.491 -7.74172 772.979C-5.53708 762.991 -6.8617 752.293 -5.08905 741.301C-4.92863 735.381 -4.76706 729.461 -4.60664 723.542C-6.11116 714.377 -5.4626 704.974 -7.26161 696.425C-9.1328 687.532 -12.0525 678.752 -14.0119 670.747C-14.0119 662.748 -14.0119 654.747 -14.0119 646.748ZM759.197 654.668C770.301 654.311 779.727 655.063 785.718 659.708C788.628 661.966 790.402 667.748 785.958 669.788C783.554 670.982 780.809 669.036 779.208 667.868C775.672 664.988 772.136 662.108 768.6 659.228C765.466 657.708 762.331 656.188 759.197 654.668ZM747.383 717.064C749.508 717.006 752.339 716.9 753.169 717.544C748.383 717.744 745.658 720.221 742.802 722.343C727.715 733.555 729.942 760.673 739.426 776.1C758.94 807.841 804.972 820.617 835.625 841.856C843.347 847.206 853.405 852.671 859.012 860.094C853.627 860.094 848.242 860.094 842.859 860.094C837.168 853.05 821.838 845.135 813.444 840.176C784.422 823.03 748.115 811.086 730.265 782.819C721.24 768.528 714.883 739.608 728.819 725.223C731.86 722.085 736.079 719.084 740.873 717.784C743.044 717.544 745.214 717.304 747.383 717.064ZM538.831 726.184C538.752 726.812 538.626 727.053 537.866 727.623C538.188 727.143 538.51 726.664 538.831 726.184ZM881.918 731.223C881.998 731.382 882.078 731.543 882.158 731.703C882.078 731.543 881.998 731.384 881.918 731.223ZM882.158 732.423C882.238 732.582 882.319 732.743 882.399 732.903C882.319 732.743 882.238 732.583 882.158 732.423ZM882.399 732.903C884.73 736.662 887.06 740.422 889.391 744.182C898.778 756.978 913.53 767.699 927.726 775.62C943.56 784.455 960.625 792.068 977.152 800.099C989.426 806.064 1003.28 811.599 1011.39 821.698C1019.77 832.144 1023.9 844.286 1027.3 860.096C1023.36 860.096 1019.42 860.096 1015.49 860.096C1011.68 822.445 978.191 810.449 951.595 795.06C939.164 787.866 926.366 781.185 914.706 773.461C902.06 765.081 884.172 751.513 882.399 732.903ZM852.744 742.503C853.655 745.021 853.246 748.065 854.672 750.422C864.036 765.885 894.5 779.081 910.125 790.02C930.321 804.157 948.994 818.843 960.756 841.377C963.845 847.293 965.63 853.789 968.472 860.096C965.82 860.096 963.167 860.096 960.515 860.096C950.9 821.296 913.146 799.068 883.604 779.46C873.982 773.074 848.531 758.686 852.744 742.503ZM365.48 756.662C365.802 762.581 366.123 768.502 366.445 774.42C369.399 789.806 375.68 800.281 386.939 807.298C403.949 817.9 430.931 815.75 453.723 820.498C483.587 826.717 512.031 839.302 527.017 860.096C523.32 860.096 519.623 860.096 515.926 860.096C503.852 843.914 476.517 834.506 452.758 829.378C416.99 821.657 380.34 828.117 366.926 797.461C364.449 791.799 361.353 783.352 362.827 774.182C363.712 768.341 364.597 762.5 365.48 756.662ZM58.3185 773.701C60.7374 773.655 61.433 774.24 62.8997 774.9C62.8997 775.46 62.8997 776.02 62.8997 776.581C60.7638 781.329 57.2895 784.595 54.4615 788.579C49.0828 796.156 44.2484 805.064 41.2004 814.738C35.5926 832.543 39.4965 849.925 25.7702 860.094C13.7169 860.015 1.65895 859.935 -10.3944 859.855C4.80434 858.903 19.4565 850.955 24.0835 839.217C26.9275 831.999 26.1529 821.617 28.6647 814.258C33.8291 799.118 44.6048 780.282 58.3185 773.701ZM352.943 795.059C353.666 798.178 354.39 801.299 355.113 804.418C359.359 815.69 369.712 824.977 383.08 826.976C383.08 827.056 383.08 827.136 383.08 827.216C362.937 827.443 352.67 816.576 352.943 795.059ZM1281.9 795.299C1282.61 796.893 1282.7 804.52 1281.66 805.619C1280.37 806.975 1277.8 807.844 1275.39 808.019C1277.56 803.778 1279.73 799.538 1281.9 795.299ZM641.058 812.098C660.846 811.936 671.523 831.722 679.393 844.015C683.25 849.374 687.108 854.735 690.966 860.093C686.547 860.093 682.126 860.093 677.705 860.093C676.392 855.076 660.367 834.343 656.248 831.295C654.197 829.778 650.45 827.396 646.604 828.655C634.77 832.531 643.495 852.701 645.881 860.093C641.622 860.014 637.362 859.934 633.102 859.854C631.174 854.975 629.244 850.094 627.316 845.215C624.19 834.271 626.777 820.511 633.343 815.456C635.64 813.689 638.054 813.352 641.058 812.098ZM121.246 818.097C121.648 823.216 122.049 828.337 122.451 833.456C124.202 843.28 125.891 852.438 129.684 860.093C127.353 860.014 125.023 859.934 122.692 859.854C122.324 853.594 120.864 846.498 119.799 839.696C118.617 832.159 121.019 824.872 121.246 818.097ZM80.2584 860.094C78.4903 860.198 78.0044 860.178 77.3651 859.134C79.1251 847.619 74.6104 831.388 79.2935 821.457C79.0529 828.016 78.8111 834.577 78.5705 841.136C79.1331 847.455 79.6957 853.776 80.2584 860.094ZM973.535 823.857C983.073 829.153 988.977 848.881 993.547 860.094C992.181 860.094 990.814 860.094 989.448 860.094C988.005 849.983 983.084 839.826 978.599 832.016C976.911 829.297 975.223 826.577 973.535 823.857ZM384.045 827.456C384.448 827.536 384.849 827.616 385.251 827.696C384.849 827.617 384.446 827.537 384.045 827.456ZM1197.03 860.094C1196.86 850.887 1197.17 833.481 1201.13 828.656C1200.68 838.46 1200.95 850.786 1202.34 860.094C1200.57 860.094 1198.8 860.094 1197.03 860.094ZM652.872 846.175C655.773 847.673 661.508 856.926 663.24 860.094C661.794 860.094 660.346 860.094 658.9 860.094C656.891 855.456 654.881 850.815 652.872 846.175Z" fill="url(#paint0_linear_16_1757)" fill-opacity="0.37"/>
</g>
<defs>
<linearGradient id="paint0_linear_16_1757" x1="634.211" y1="-0.412109" x2="634.211" y2="860.4" gradientUnits="userSpaceOnUse">
<stop stop-color="#5A5AC2"/>
<stop offset="1" stop-color="#2B2B5C" stop-opacity="0"/>
</linearGradient>
</defs>
</svg>
